<?xml version="1.0" standalone="no"?>
<!DOCTYPE svg PUBLIC "-//W3C//DTD SVG 1.1//EN" "http://www.w3.org/Graphics/SVG/1.1/DTD/svg11.dtd" >
<svg xmlns="http://www.w3.org/2000/svg" xmlns:xlink="http://www.w3.org/1999/xlink" version="1.1">
<metadata>
Created by FontForge 20201107 at Tue Sep  4 00:06:14 2012
 By 
Copyright (c) 2011 Canada Type. Designed by Patrick Griffin &#38; Bill Troop. All rights reserved. 
</metadata>
<defs>
<font id="SemplicitaPro-BoldItalic" horiz-adv-x="595" >
  <font-face 
    font-family="Semplicita Pro"
    font-weight="700"
    font-style="italic"
    font-stretch="normal"
    units-per-em="1000"
    panose-1="0 0 0 0 0 0 0 0 0 0"
    ascent="800"
    descent="-200"
    x-height="510"
    cap-height="757"
    bbox="-206 -339 1317 1124"
    underline-thickness="50"
    underline-position="-249"
    unicode-range="U+0020-FB04"
  />
<missing-glyph horiz-adv-x="601" 
d="M558 0h-515l120 758h515zM472 97l90 564h-313l-90 -564h313z" />
    <glyph glyph-name=".notdef" horiz-adv-x="601" 
d="M558 0h-515l120 758h515zM472 97l90 564h-313l-90 -564h313z" />
    <glyph glyph-name=".null" horiz-adv-x="0" 
 />
    <glyph glyph-name="nonmarkingreturn" horiz-adv-x="333" 
 />
    <glyph glyph-name="space" unicode=" " horiz-adv-x="240" 
 />
    <glyph glyph-name="exclam" unicode="!" horiz-adv-x="298" 
d="M188 225h-106l51 532h176zM189 77q0 -34 -27.5 -62t-63.5 -28q-30 0 -49 21t-19 49q0 35 28 61.5t63 26.5q30 0 49 -20t19 -48z" />
    <glyph glyph-name="quotedbl" unicode="&#x22;" horiz-adv-x="462" 
d="M207 456h-108l27 305h150zM408 456h-108l27 305h150z" />
    <glyph glyph-name="numbersign" unicode="#" horiz-adv-x="641" 
d="M382 -5l-103 14l55 205h-93l-62 -219l-103 14l55 205h-91l16 108h106l24 87h-91l16 107h105l57 210l107 -9l-55 -201h93l58 210l108 -9l-55 -201h91l-17 -107h-106l-24 -87h92l-16 -108h-106zM364 322l23 87h-92l-23 -87h92z" />
    <glyph glyph-name="dollar" unicode="$" horiz-adv-x="581" 
d="M198 -124l-82 4l37 119q-50 12 -88.5 37.5t-56.5 50.5l79 92q38 -50 100 -70l72 229q-47 33 -71 53.5t-44.5 58t-20.5 84.5q0 94 65.5 152.5t169.5 58.5q18 0 28 -1l36 115l83 -4l-41 -129q34 -14 57.5 -34.5t31.5 -33.5l-74 -95q-25 30 -51 47l-56 -180
q75 -52 105.5 -98t30.5 -110q0 -109 -70 -173.5t-171 -64.5q-14 0 -34 2zM330 295l-61 -194q47 5 77 34t30 74q0 50 -46 86zM301 469l50 160q-39 -3 -69 -27t-30 -61q0 -41 49 -72z" />
    <glyph glyph-name="percent" unicode="%" horiz-adv-x="745" 
d="M211 -27l-82 34l408 737l80 -36zM218 445q-58 0 -94 39t-36 97q0 73 54 127t123 54q57 0 93.5 -39.5t36.5 -97.5q0 -73 -54 -126.5t-123 -53.5zM233 540q26 0 45.5 21.5t19.5 51.5q0 23 -12.5 38.5t-33.5 15.5q-26 0 -46 -22t-20 -52q0 -23 13 -38t34 -15zM499 -9
q-58 0 -93.5 38t-35.5 96q0 74 53 128t123 54q58 0 94.5 -39t36.5 -98q0 -73 -54 -126t-124 -53zM513 83q27 0 46.5 22.5t19.5 51.5q0 24 -13 39t-34 15q-26 0 -46 -22t-20 -52q0 -23 13 -38.5t34 -15.5z" />
    <glyph glyph-name="ampersand" unicode="&#x26;" horiz-adv-x="726" 
d="M701 0h-153l-69 106q-99 -117 -226 -117q-99 0 -162 68t-63 167q0 101 51.5 172.5t138.5 109.5q-31 47 -31 97q0 69 53.5 118t132.5 49q33 0 60 -7.5t47 -22.5t29 -23.5t23 -23.5l-86 -77q-44 47 -78 47q-23 0 -41 -15t-18 -45q0 -28 27 -70l259 1l-42 -105h-145z
M424 190l-152 232q-15 -4 -34.5 -15t-42 -31.5t-37.5 -56t-15 -78.5q0 -63 38.5 -103.5t87.5 -40.5q97 0 155 93z" />
    <glyph glyph-name="quotesingle" unicode="'" horiz-adv-x="261" 
d="M207 456h-108l27 305h150z" />
    <glyph glyph-name="parenleft" unicode="(" horiz-adv-x="288" 
d="M165 -219l-105 -41q-31 130 -31 331q0 378 203 765l97 -42q-28 -56 -54.5 -120t-57.5 -158.5t-50 -207.5t-19 -223q0 -156 17 -304z" />
    <glyph glyph-name="parenright" unicode=")" horiz-adv-x="289" 
d="M50 -260l-94 41q38 88 57 134.5t46.5 126t40.5 140.5t23 144.5t10 171.5q0 195 -19 296l110 42q27 -127 27 -330q0 -402 -201 -766z" />
    <glyph glyph-name="plus" unicode="+" horiz-adv-x="661" 
d="M611 309h-216l-32 -205h-129l32 205h-216l17 109h216l33 206h129l-33 -206h216z" />
    <glyph glyph-name="comma" unicode="," horiz-adv-x="285" 
d="M32 -109h-87l119 240h140z" />
    <glyph glyph-name="hyphen" unicode="-" horiz-adv-x="405" 
d="M307 191h-261l32 108h261z" />
    <glyph glyph-name="period" unicode="." horiz-adv-x="260" 
d="M172 76q0 -33 -28.5 -61t-64.5 -28q-28 0 -47 21t-19 48q0 35 27.5 61.5t63.5 26.5q30 0 49 -19.5t19 -48.5z" />
    <glyph glyph-name="slash" unicode="/" horiz-adv-x="578" 
d="M73 -219l-114 37l542 1002l115 -44z" />
    <glyph glyph-name="zero" unicode="0" horiz-adv-x="672" 
d="M295 -15q-55 0 -96.5 16.5t-67 43.5t-41 65t-21.5 75.5t-6 81.5q0 21 1 45.5t8 76.5t19 97.5t37.5 98.5t59 90.5t88 63t121.5 25.5q55 0 97 -17t67.5 -44t41 -65t21.5 -75.5t6 -80.5q0 -28 -2 -60.5t-10.5 -83t-22 -96t-39.5 -94t-60 -83.5t-86 -57.5t-115 -22.5zM306 97
q54 0 97 54.5t64.5 136.5t21.5 171q0 192 -104 192q-54 0 -96.5 -52.5t-63.5 -133.5t-21 -173q0 -195 102 -195z" />
    <glyph glyph-name="one" unicode="1" horiz-adv-x="405" 
d="M265 -3h-138l94 595l-132 -38l-19 99l318 119z" />
    <glyph glyph-name="two" unicode="2" horiz-adv-x="609" 
d="M508 0h-521l13 85q56 26 134 79t141 112q149 140 149 269q0 51 -22 78.5t-64 27.5q-77 0 -159 -82l-52 89q123 106 244 106q90 0 144.5 -56.5t54.5 -140.5q0 -115 -99.5 -238t-231.5 -216q47 0 143 0.5t144 0.5z" />
    <glyph glyph-name="three" unicode="3" horiz-adv-x="553" 
d="M389 418v-1q48 -24 72.5 -73.5t24.5 -103.5q0 -103 -85 -179t-213 -76q-79 0 -131.5 27t-71.5 54l72 96q15 -23 57.5 -44.5t90.5 -21.5q68 0 108.5 44t40.5 101q0 56 -39.5 94t-103.5 38q-15 0 -37 -2l13 82q21 -3 38 -3q61 0 105.5 39.5t44.5 89.5q0 33 -21 50.5
t-57 17.5q-59 0 -119 -35l-24 97q21 19 76.5 37t106.5 18q84 0 130 -50.5t46 -118.5q0 -112 -124 -177z" />
    <glyph glyph-name="four" unicode="4" horiz-adv-x="644" 
d="M447 -4h-126l20 126h-343l13 87l466 576h95l-88 -555l103 1l-17 -109h-103zM354 230l47 296l-228 -298z" />
    <glyph glyph-name="five" unicode="5" horiz-adv-x="570" 
d="M-12 50l61 110q56 -60 144 -60q76 0 121.5 49.5t45.5 119.5q0 54 -30.5 88t-100.5 34q-53 0 -133 -25l156 381h312l-49 -107h-195l-64 -161q23 4 46 4q93 0 150 -59t57 -151q0 -53 -20 -103t-57 -92t-97 -67.5t-133 -25.5q-124 0 -214 65z" />
    <glyph glyph-name="six" unicode="6" horiz-adv-x="618" 
d="M420 772l80 -81q-3 -3 -47 -47.5t-85.5 -89.5t-70.5 -84q42 13 81 13q87 0 135 -58t48 -149q0 -119 -87 -205t-214 -86q-36 0 -74 12.5t-72.5 37t-56.5 67t-22 95.5q0 227 385 575zM276 98q58 0 100 47.5t42 109.5q0 51 -26.5 85t-73.5 34q-60 0 -103 -48t-43 -113
q0 -49 29 -82t75 -33z" />
    <glyph glyph-name="seven" unicode="7" horiz-adv-x="582" 
d="M149 -8h-158l431 639h-320l19 116h526z" />
    <glyph glyph-name="eight" unicode="8" horiz-adv-x="609" 
d="M454 379q78 -48 78 -149q0 -102 -76 -173.5t-191 -71.5q-102 0 -161.5 56t-59.5 138q0 69 40.5 121.5t94.5 77.5q-31 18 -52.5 59t-21.5 95q0 73 42.5 127.5t102.5 79.5t125 25q90 0 148 -51.5t58 -135.5q0 -68 -37 -123t-90 -75zM268 95q49 0 87 40.5t38 92.5
q0 40 -24.5 69.5t-63.5 29.5q-46 0 -83.5 -40t-37.5 -94q0 -40 21.5 -69t62.5 -29zM324 427q46 0 82 39t36 93q0 39 -20.5 66t-61.5 27q-49 0 -85 -38.5t-36 -89.5q0 -40 23.5 -68.5t61.5 -28.5z" />
    <glyph glyph-name="nine" unicode="9" horiz-adv-x="617" 
d="M218 -24l-80 80q3 3 47 47.5t85.5 89.5t70.5 84q-42 -13 -81 -13q-87 0 -135 58t-48 149q0 119 87 205.5t214 86.5q81 0 153 -55.5t72 -157.5q0 -227 -385 -574zM320 373q60 0 103 48t43 113q0 49 -29 82t-75 33q-58 0 -100 -47.5t-42 -109.5q0 -51 26.5 -85t73.5 -34z
" />
    <glyph glyph-name="colon" unicode=":" horiz-adv-x="289" 
d="M186 76q0 -33 -28.5 -61t-64.5 -28q-28 0 -47 21t-19 48q0 35 28 62t64 27q29 0 48 -20t19 -49zM236 394q0 -34 -28 -61.5t-64 -27.5q-28 0 -47.5 21t-19.5 49q0 34 28.5 61t63.5 27q29 0 48 -20t19 -49z" />
    <glyph glyph-name="semicolon" unicode=";" horiz-adv-x="302" 
d="M252 394q0 -33 -28 -61t-63 -28q-28 0 -47 21.5t-19 48.5q0 34 28 61t63 27q29 0 47.5 -20t18.5 -49zM33 -109h-87l119 240h139z" />
    <glyph glyph-name="less" unicode="&#x3c;" horiz-adv-x="637" 
d="M471 19l-423 314l12 75l521 295l42 -112l-395 -222l322 -241z" />
    <glyph glyph-name="equal" unicode="=" horiz-adv-x="705" 
d="M650 427h-558l17 109h558zM612 189h-558l17 109h558z" />
    <glyph glyph-name="greater" unicode="&#x3e;" horiz-adv-x="636" 
d="M594 332l-520 -295l-41 112l395 222l-322 241l78 109l422 -314z" />
    <glyph glyph-name="question" unicode="?" horiz-adv-x="475" 
d="M374 394l55 -65q-30 -40 -90 -78t-124 -38q-61 0 -105.5 37t-44.5 100q0 44 25 81t60.5 62t71.5 47t61 48t25 54q0 33 -36 33q-11 0 -21.5 -2.5t-21.5 -8.5t-17 -9.5t-17 -12.5l-11 -8l-40 70q96 71 172 71q61 0 94 -36.5t33 -86.5q0 -35 -18.5 -67.5t-45.5 -55
t-59.5 -45.5t-59.5 -41.5t-45.5 -41t-18.5 -44.5q0 -18 11.5 -30.5t32.5 -12.5q34 0 76 28.5t58 51.5zM177 -13q-29 0 -47.5 21t-18.5 49q0 34 27.5 60.5t61.5 26.5q28 0 45.5 -19t17.5 -47q0 -35 -26 -63t-60 -28z" />
    <glyph glyph-name="at" unicode="@" horiz-adv-x="976" 
d="M678 -72l22 -89q-131 -53 -255 -53q-110 0 -191.5 30.5t-127.5 84t-67.5 118t-21.5 141.5q0 81 22 161.5t67.5 154.5t109 130.5t152.5 90.5t191 34q92 0 162.5 -27.5t111.5 -74t61.5 -103.5t20.5 -121q0 -79 -30 -155t-83.5 -136.5t-134.5 -97.5t-175 -37q-116 0 -175 52
t-59 134q0 86 60.5 140t142.5 54q57 0 106 -29l6 40q11 73 -68 73q-64 0 -145 -32l-20 91q105 48 185 48q68 0 106.5 -29.5t47 -72.5t-0.5 -100l-29 -180h-32q-2 45 -42.5 71t-92.5 26q-48 0 -82.5 -23t-34.5 -62q0 -41 38 -70t110 -29q87 0 157 45.5t105 113t35 140.5
q0 102 -71.5 174t-205.5 72q-95 0 -173.5 -39.5t-127 -103.5t-74.5 -140.5t-26 -155.5q0 -61 16.5 -112.5t52 -94.5t98.5 -67t149 -24q41 0 65.5 1.5t63.5 10.5t81 27z" />
    <glyph glyph-name="A" unicode="A" horiz-adv-x="733" 
d="M700 0h-160l-39 139h-314l-83 -139h-164l504 790zM467 258l-70 239l-138 -239h208z" />
    <glyph glyph-name="B" unicode="B" horiz-adv-x="642" 
d="M261 0h-228l120 757h180q122 0 186 -37t64 -130q0 -61 -41.5 -110t-87.5 -68q50 -13 92 -56.5t42 -106.5q0 -115 -80.5 -182t-246.5 -67zM246 451h57q60 0 93 28.5t33 80.5q0 68 -88 68h-67zM195 129h101q71 0 105 30.5t34 82.5q0 34 -30 57t-85 23h-94z" />
    <glyph glyph-name="C" unicode="C" horiz-adv-x="739" 
d="M623 177l49 -93q-110 -100 -273 -100q-159 0 -254 98.5t-95 251.5q0 185 132 312.5t322 127.5q165 0 254 -109l-90 -98q-65 79 -182 79q-120 0 -201.5 -90t-81.5 -216q0 -101 57.5 -165t164.5 -64q63 0 118 21t80 45z" />
    <glyph glyph-name="D" unicode="D" horiz-adv-x="746" 
d="M252 0h-219l120 757h224q157 0 247 -82.5t90 -245.5q0 -195 -125 -312t-337 -117zM195 129h83q119 0 201 73.5t82 209.5q0 104 -50 160t-135 56h-102z" />
    <glyph glyph-name="E" unicode="E" horiz-adv-x="584" 
d="M495 1h-462l120 755h434l-21 -128h-292l-26 -163h235l-20 -129h-235l-33 -206h320z" />
    <glyph glyph-name="F" unicode="F" horiz-adv-x="535" 
d="M175 0h-142l120 756h425l-21 -128h-283l-26 -168h230l-21 -129h-230z" />
    <glyph glyph-name="G" unicode="G" horiz-adv-x="829" 
d="M646 287h-180l20 124h329q-16 -116 -56 -201t-97 -133t-120.5 -70.5t-134.5 -22.5q-157 0 -256.5 97.5t-99.5 255.5q0 187 135 312t325 125q162 0 261 -99l-86 -107q-2 6 -22 23t-67.5 36t-102.5 19q-126 0 -208 -89t-82 -212q0 -101 57.5 -167.5t155.5 -66.5
q84 0 146 49.5t83 126.5z" />
    <glyph glyph-name="H" unicode="H" horiz-adv-x="766" 
d="M635 0h-142l51 322h-318l-51 -322h-142l120 757h142l-49 -306h318l49 306h142z" />
    <glyph glyph-name="I" unicode="I" horiz-adv-x="306" 
d="M175 0h-142l120 757h142z" />
    <glyph glyph-name="J" unicode="J" horiz-adv-x="307" 
d="M-109 -256l-31 121q100 32 135.5 76t54.5 163l103 653h143l-104 -657q-25 -157 -86.5 -227.5t-214.5 -128.5z" />
    <glyph glyph-name="K" unicode="K" horiz-adv-x="709" 
d="M683 0h-189l-271 306l-48 -306h-142l120 757h142l-44 -282l303 282h178l-406 -368z" />
    <glyph glyph-name="L" unicode="L" horiz-adv-x="538" 
d="M476 1h-442l120 756h142l-100 -627h300z" />
    <glyph glyph-name="M" unicode="M" horiz-adv-x="951" 
d="M855 0h-152l26 382l-309 -411l-180 404l-90 -375h-152l222 777l244 -535l413 534z" />
    <glyph glyph-name="N" unicode="N" horiz-adv-x="831" 
d="M695 -27l-451 479l-70 -452h-142l125 778l448 -493l74 472h142z" />
    <glyph glyph-name="O" unicode="O" horiz-adv-x="877" 
d="M850 430q0 -119 -63 -222.5t-168 -163.5t-225 -60q-155 0 -250 99.5t-95 248.5q0 93 39.5 176.5t104 141t147.5 91t168 33.5q151 0 246.5 -97t95.5 -247zM406 110q113 0 201 91.5t88 218.5q0 98 -55 162t-148 64q-114 0 -202 -89.5t-88 -215.5q0 -96 54.5 -163.5
t149.5 -67.5z" />
    <glyph glyph-name="P" unicode="P" horiz-adv-x="597" 
d="M175 0h-142l120 757h163q139 0 211 -47.5t72 -161.5q0 -126 -85.5 -206t-248.5 -80h-49zM237 391h46q80 0 121.5 38.5t41.5 103.5q0 46 -25 70.5t-87 24.5h-60z" />
    <glyph glyph-name="Q" unicode="Q" horiz-adv-x="876" 
d="M809 -8l-117 -101l-115 139q-86 -46 -191 -46q-146 0 -241.5 100t-95.5 249q0 122 66.5 224.5t172 159.5t221.5 57q151 0 245.5 -97t94.5 -246q0 -99 -43 -184.5t-118 -148.5zM407 110q113 0 201 91.5t88 218.5q0 98 -55.5 162t-148.5 64q-113 0 -201 -89.5t-88 -214.5
q0 -96 54.5 -164t149.5 -68z" />
    <glyph glyph-name="R" unicode="R" horiz-adv-x="661" 
d="M666 0h-186l-248 282h-12l-45 -282h-142l120 757h146q62 0 109 -7.5t94 -28t72.5 -64.5t25.5 -109q0 -104 -60.5 -172.5t-144.5 -80.5zM240 411h45q163 0 163 126q0 46 -27.5 68.5t-100.5 22.5h-46z" />
    <glyph glyph-name="S" unicode="S" horiz-adv-x="590" 
d="M-7 91l88 102q74 -82 174 -82q59 0 91 29t32 74q0 33 -19.5 60t-49 45t-63.5 41t-63.5 46.5t-49 63.5t-19.5 90q0 106 76 160.5t180 54.5q60 0 110 -20t70 -37t30 -31l-85 -106q-25 31 -60 49t-70 18q-39 0 -69.5 -21.5t-30.5 -58.5q0 -27 20 -50.5t49.5 -40t64 -39.5
t64 -48t49.5 -67.5t20 -95.5q0 -115 -82.5 -179t-204.5 -64q-90 0 -154.5 32.5t-97.5 74.5z" />
    <glyph glyph-name="T" unicode="T" horiz-adv-x="598" 
d="M320 0h-142l99 628h-212l20 128h568l-20 -128h-214z" />
    <glyph glyph-name="U" unicode="U" horiz-adv-x="757" 
d="M511 149l96 608h142l-105 -664q-119 -110 -316 -110q-304 0 -256 296l76 478h142l-63 -396q-24 -151 1 -201.5t129 -50.5q85 0 154 40z" />
    <glyph glyph-name="V" unicode="V" horiz-adv-x="704" 
d="M295 -41l-241 798h159l130 -494l285 494h160z" />
    <glyph glyph-name="W" unicode="W" horiz-adv-x="1043" 
d="M683 -37l-143 482l-289 -480l-191 792h158l89 -457l290 490l130 -486l236 453h156z" />
    <glyph glyph-name="X" unicode="X" horiz-adv-x="727" 
d="M675 0h-178l-136 274l-230 -274h-180l345 393l-206 364h180l127 -251l211 251h180l-327 -372z" />
    <glyph glyph-name="Y" unicode="Y" horiz-adv-x="658" 
d="M347 0h-142l49 307l-202 450h160l132 -318l244 318h157l-349 -450z" />
    <glyph glyph-name="Z" unicode="Z" horiz-adv-x="685" 
d="M602 1h-648l489 627h-304l21 128h563l-485 -626h384z" />
    <glyph glyph-name="bracketleft" unicode="[" horiz-adv-x="348" 
d="M230 -215h-237l163 1035h238l-16 -102h-124l-132 -834h124z" />
    <glyph glyph-name="backslash" unicode="\" horiz-adv-x="571" 
d="M461 -180l-128 -37l-226 995l128 44z" />
    <glyph glyph-name="bracketright" unicode="]" horiz-adv-x="349" 
d="M190 -215h-237l16 102h119l132 834h-120l16 99h238z" />
    <glyph glyph-name="asciicircum" unicode="^" horiz-adv-x="693" 
d="M689 403h-153l-87 245l-165 -245h-152l291 411h105z" />
    <glyph glyph-name="underscore" unicode="_" horiz-adv-x="611" 
d="M494 -53h-489l17 107h489z" />
    <glyph glyph-name="grave" unicode="`" horiz-adv-x="345" 
d="M397 629l-59 -46l-171 167l117 80z" />
    <glyph glyph-name="a" unicode="a" horiz-adv-x="523" 
d="M311 103l16 103q-29 33 -84 33q-42 0 -73 -22t-31 -61q0 -32 21.5 -53t64.5 -21q49 0 86 21zM469 319l-43 -271q-32 -25 -91.5 -43.5t-129.5 -18.5q-105 0 -153 43.5t-48 112.5q0 51 24 89.5t61 59.5t74.5 31t72.5 10q72 0 106 -34l8 52q5 33 -16 52t-69 19
q-37 0 -77 -10.5t-59 -19.5l-22 92q94 43 189 43q110 0 149.5 -53.5t23.5 -153.5z" />
    <glyph glyph-name="b" unicode="b" horiz-adv-x="588" 
d="M20 47l122 773h132l-52 -334q64 40 134 40q95 0 142 -64t47 -164q0 -147 -94.5 -229.5t-228.5 -82.5q-125 0 -202 61zM204 376l-41 -262q29 -20 73 -20q81 0 125.5 56t44.5 137q0 58 -24.5 94.5t-71.5 36.5q-59 0 -106 -42z" />
    <glyph glyph-name="c" unicode="c" horiz-adv-x="510" 
d="M420 145l27 -90q-23 -22 -78.5 -45.5t-124.5 -23.5q-106 0 -162.5 63t-56.5 166q0 136 91.5 223.5t216.5 87.5q103 0 161 -58l-57 -94q-45 45 -107 45q-66 0 -118 -53.5t-52 -134.5q0 -63 32.5 -101.5t85.5 -38.5q39 0 83 19.5t59 34.5z" />
    <glyph glyph-name="d" unicode="d" horiz-adv-x="586" 
d="M363 114l41 264q-29 39 -88 39q-64 0 -108 -57t-44 -134q0 -63 31 -98.5t83 -35.5q50 0 85 22zM423 496l51 324h131l-122 -773q-107 -61 -223 -61q-102 0 -168.5 58.5t-66.5 172.5q0 133 87.5 221t212.5 88q58 0 98 -30z" />
    <glyph glyph-name="e" unicode="e" horiz-adv-x="571" 
d="M456 139l23 -91q-28 -22 -87.5 -42t-128.5 -20q-114 0 -176 60.5t-62 167.5q0 132 87.5 222t216.5 90q118 0 168.5 -77.5t32.5 -192.5l-8 -50h-370q1 -63 43.5 -90t106.5 -27q54 0 95 16t59 34zM167 304h242q8 51 -16 85.5t-76 34.5q-50 0 -89.5 -32.5t-60.5 -87.5z" />
    <glyph glyph-name="f" unicode="f" horiz-adv-x="378" 
d="M189 0h-131l64 407h-81l16 103h82l14 92q15 98 76 157t161 59q41 0 68 -10.5t62 -33.5l-62 -95q-32 28 -77 28q-81 0 -97 -107l-14 -90h121l-16 -103h-122z" />
    <glyph glyph-name="g" unicode="g" horiz-adv-x="579" 
d="M330 -42l13 82q-54 -54 -133 -54q-74 0 -129.5 61.5t-55.5 168.5q0 138 95 224t237 86q106 0 187 -48l-80 -501q-40 -249 -276 -249q-77 0 -133.5 20t-83.5 43l68 97q17 -18 62 -35.5t94 -17.5q116 0 135 123zM361 148l40 254q-38 16 -70 16q-65 0 -114.5 -51.5
t-49.5 -139.5q0 -55 22 -94.5t71 -39.5q64 0 101 55z" />
    <glyph glyph-name="h" unicode="h" horiz-adv-x="567" 
d="M457 0h-131l43 273q5 37 7 67.5t-12.5 50.5t-47.5 20q-35 0 -67 -18.5t-48 -38.5l-56 -354h-131l130 820h131l-57 -361q75 67 170 67q152 0 123 -184z" />
    <glyph glyph-name="i" unicode="i" horiz-adv-x="265" 
d="M149 0h-131l81 511h131zM272 691q0 -41 -27.5 -68t-68.5 -27q-31 0 -50 19.5t-19 50.5q0 40 28 67t67 27q33 0 51.5 -19t18.5 -50z" />
    <glyph glyph-name="j" unicode="j" horiz-adv-x="265" 
d="M-88 -267l-33 98q31 8 49 14t34 18.5t23.5 22.5t15.5 35.5t12 48t11 69.5l75 472h130l-75 -476q-22 -142 -68 -204.5t-174 -97.5zM271 691q0 -41 -28 -68t-68 -27q-31 0 -50 19t-19 50q0 41 27.5 68t67.5 27q33 0 51.5 -19t18.5 -50z" />
    <glyph glyph-name="k" unicode="k" horiz-adv-x="529" 
d="M483 0h-149l-152 237l-37 -237h-131l130 819h131l-81 -509l178 201h162l-230 -236z" />
    <glyph glyph-name="l" unicode="l" horiz-adv-x="257" 
d="M145 0h-131l130 820h131z" />
    <glyph glyph-name="m" unicode="m" horiz-adv-x="851" 
d="M742 0h-131l51 322q14 89 -50 89q-58 0 -112 -54l-57 -357h-131l52 327q7 42 -7.5 63t-45.5 21t-61 -17.5t-49 -37.5l-56 -356h-131l81 511h131l-8 -53q74 68 162 68q84 0 104 -77q35 24 57 37.5t59.5 26.5t73.5 13q72 0 104.5 -45t17.5 -137z" />
    <glyph glyph-name="n" unicode="n" horiz-adv-x="567" 
d="M457 0h-131l43 273q5 37 7 67.5t-12.5 50.5t-47.5 20q-35 0 -67 -18.5t-48 -38.5l-56 -354h-131l81 511h131l-8 -52q75 67 169 67q153 0 124 -184z" />
    <glyph glyph-name="o" unicode="o" horiz-adv-x="603" 
d="M562 290q0 -124 -90 -214t-216 -90q-106 0 -169 66t-63 169q0 129 94 217t216 88q104 0 166 -67.5t62 -168.5zM268 87q65 0 110.5 57t45.5 142q0 61 -26 97.5t-76 36.5q-65 0 -112.5 -57.5t-47.5 -140.5q0 -61 27.5 -98t78.5 -37z" />
    <glyph glyph-name="p" unicode="p" horiz-adv-x="585" 
d="M103 -254h-130l114 723q110 57 226 57q100 0 165 -58.5t65 -168.5q0 -123 -76 -217.5t-196 -94.5q-69 0 -123 43zM206 397l-39 -245q36 -58 91 -58q63 0 104 56.5t41 132.5q0 62 -29.5 98t-84.5 36q-49 0 -83 -20z" />
    <glyph glyph-name="q" unicode="q" 
d="M443 -254h-131l46 285q-65 -44 -134 -44q-82 0 -140 63t-58 173q0 97 49.5 167.5t124 103t162.5 32.5q117 0 196 -57zM377 152l38 245q-31 21 -75 21q-74 0 -124.5 -59t-50.5 -142q0 -57 26.5 -90.5t73.5 -33.5q64 0 112 59z" />
    <glyph glyph-name="r" unicode="r" horiz-adv-x="394" 
d="M144 0h-130l81 511h130l-13 -81q18 32 51 63.5t71 31.5q44 0 84 -25l-62 -123q-35 26 -64 26q-39 0 -67.5 -38.5t-35.5 -82.5z" />
    <glyph glyph-name="s" unicode="s" horiz-adv-x="440" 
d="M424 470l-62 -90q-10 14 -36 31.5t-55 17.5q-25 0 -45.5 -14.5t-20.5 -36.5q0 -19 17.5 -36.5t42.5 -34.5t49.5 -37t42 -52.5t17.5 -73.5q0 -73 -53.5 -116t-149.5 -43q-116 0 -189 64l62 94q20 -23 56 -42t66 -19q29 0 50.5 17t21.5 40q0 19 -18 38t-43 37.5t-50.5 39.5
t-43.5 52.5t-18 67.5q0 65 52 109.5t142 44.5q44 0 83 -13t55.5 -24t26.5 -21z" />
    <glyph glyph-name="t" unicode="t" horiz-adv-x="377" 
d="M195 0h-131l64 407h-93l16 103h93l28 173h131l-28 -173h121l-16 -103h-121z" />
    <glyph glyph-name="u" unicode="u" horiz-adv-x="565" 
d="M341 114l63 397h131l-72 -455q-89 -70 -231 -70q-102 0 -154.5 50.5t-37.5 146.5l52 328h131l-47 -298q-12 -72 8.5 -97.5t77.5 -25.5q50 0 79 24z" />
    <glyph glyph-name="v" unicode="v" horiz-adv-x="519" 
d="M242 -9h-64l-152 520h141l74 -313l175 313h141z" />
    <glyph glyph-name="w" unicode="w" horiz-adv-x="746" 
d="M489 -9h-68l-57 258l-141 -258h-67l-127 520h137l64 -281l163 278h24l66 -277l161 280h137z" />
    <glyph glyph-name="x" unicode="x" horiz-adv-x="548" 
d="M498 0h-152l-88 179l-152 -179h-150l237 276l-136 235h155l71 -150l122 150h149l-211 -242z" />
    <glyph glyph-name="y" unicode="y" horiz-adv-x="543" 
d="M76 -255h-141l226 339l-135 427h145l77 -296l193 296h142z" />
    <glyph glyph-name="z" unicode="z" horiz-adv-x="516" 
d="M434 1h-474l331 406h-216l17 103h427l-326 -406h257z" />
    <glyph glyph-name="braceleft" unicode="{" horiz-adv-x="386" 
d="M291 -103l-42 -97q-111 13 -147.5 62.5t-19.5 155.5l19 119q9 57 -11 97t-83 76q74 36 106.5 76t41.5 97l19 119q17 107 69.5 156.5t167.5 62.5l12 -97q-64 -11 -93 -38.5t-40 -96.5l-19 -118q-9 -55 -26.5 -91.5t-53.5 -69.5q26 -33 32 -71.5t-3 -89.5l-18 -118
q-11 -68 9.5 -95.5t79.5 -38.5z" />
    <glyph glyph-name="bar" unicode="|" horiz-adv-x="271" 
d="M104 -259h-117l170 1079h118z" />
    <glyph glyph-name="braceright" unicode="}" horiz-adv-x="387" 
d="M-23 -200l-12 97q62 11 91 38.5t40 95.5l19 118q9 55 26.5 91.5t54.5 69.5q-26 33 -32.5 71.5t2.5 89.5l19 118q11 69 -9.5 96.5t-80.5 38.5l43 97q111 -13 147.5 -62.5t19.5 -156.5l-19 -119q-9 -57 10.5 -97t83.5 -76q-75 -36 -107.5 -76.5t-41.5 -96.5l-19 -119
q-17 -106 -69.5 -155.5t-165.5 -62.5z" />
    <glyph glyph-name="asciitilde" unicode="~" horiz-adv-x="531" 
d="M497 590l16 -109q-23 -20 -63.5 -39.5t-79.5 -19.5q-25 0 -75 26t-80 26q-40 0 -118 -48l-17 107q26 22 70.5 43t79.5 21q31 0 82 -26.5t72 -26.5q49 0 113 46z" />
    <glyph glyph-name="exclamdown" unicode="&#xa1;" horiz-adv-x="284" 
d="M149 -210h-175l117 531h106zM158 401q-31 0 -50 20.5t-19 48.5q0 34 28.5 62t63.5 28q29 0 47.5 -21t18.5 -49q0 -35 -27 -62t-62 -27z" />
    <glyph glyph-name="cent" unicode="&#xa2;" horiz-adv-x="577" 
d="M309 -12h-87l19 116q-81 16 -130 77t-49 156q0 117 72.5 196.5t186.5 86.5l24 139h87l-23 -141q47 -5 92 -33t62 -48l-74 -81q-45 55 -96 59l-49 -307q33 0 74.5 23.5t59.5 41.5l26 -87q-24 -27 -70 -51t-106 -29zM258 211l48 302q-121 -33 -121 -177q0 -101 73 -125z
" />
    <glyph glyph-name="sterling" unicode="&#xa3;" horiz-adv-x="651" 
d="M567 115l-6 -111q-88 -21 -135 -21q-27 0 -85 13.5t-86 13.5q-76 0 -221 -59l-26 100q104 46 147 55l27 171h-86l16 101h86l24 150q36 225 213 225q46 0 73 -13t57 -38l-71 -93q-1 1 -12.5 10.5t-23.5 14.5t-28 5q-28 0 -44 -21.5t-24 -69.5l-27 -170h131l-16 -101h-131
l-25 -158q30 -2 70.5 -14t75.5 -12q39 0 127 22z" />
    <glyph glyph-name="currency" unicode="&#xa4;" horiz-adv-x="697" 
d="M608 157l-108 -74l-58 69q-65 -35 -126 -35q-60 0 -114 35l-83 -70l-77 75l82 72q-18 41 -18 92q0 88 57 156l-60 73l101 76l62 -73q60 37 125 37t116 -36l80 70l83 -74l-84 -73q17 -36 17 -87q0 -88 -58 -160zM334 230q52 0 95 43t43 98q0 45 -28.5 75t-70.5 30
q-50 0 -93 -41t-43 -97q0 -45 28.5 -76.5t68.5 -31.5z" />
    <glyph glyph-name="yen" unicode="&#xa5;" horiz-adv-x="792" 
d="M669 90h-239l-14 -90h-142l14 90h-240l16 102h240l14 85h-240l16 102h196l-169 378h160l132 -318l244 318h157l-293 -378h194l-16 -102h-239l-14 -85h239z" />
    <glyph glyph-name="brokenbar" unicode="&#xa6;" horiz-adv-x="274" 
d="M106 -259h-117l69 438h118zM208 381h-118l69 439h118z" />
    <glyph glyph-name="section" unicode="&#xa7;" horiz-adv-x="573" 
d="M287 -122l-233 520q42 85 169 144q-38 81 -53 121q22 40 138 98.5t172 58.5l12 -120q-97 0 -200 -31l215 -489q-39 -78 -164 -140q11 -27 37 -84.5t31 -69.5q-19 -40 -144.5 -105t-179.5 -65l-13 120q109 0 213 42zM383 167l-121 278q-56 -5 -85 -33l124 -282
q24 0 48.5 12.5t33.5 24.5z" />
    <glyph glyph-name="dieresis" unicode="&#xa8;" horiz-adv-x="479" 
d="M300 657q0 -31 -26 -54t-61 -23q-27 0 -45 17.5t-18 42.5q0 32 26 55.5t59 23.5q29 0 47 -17.5t18 -44.5zM535 658q0 -32 -25.5 -55t-61.5 -23q-27 0 -44.5 17.5t-17.5 42.5q0 32 25 55.5t59 23.5q30 0 47.5 -17t17.5 -44z" />
    <glyph glyph-name="copyright" unicode="&#xa9;" horiz-adv-x="878" 
d="M403 62q87 0 167 47.5t129 129.5t49 175q0 114 -70.5 190t-182.5 76q-135 0 -239.5 -105t-104.5 -247q0 -114 70 -190t182 -76zM390 -26q-144 0 -236.5 98.5t-92.5 244.5q0 90 38 174t100 145t144 97.5t166 36.5q144 0 236.5 -99t92.5 -245q0 -120 -64 -225t-167.5 -166
t-216.5 -61zM574 276l40 -73q-75 -63 -180 -63q-106 0 -170 60.5t-64 148.5q0 105 85 184.5t209 79.5q50 0 89.5 -15t55.5 -29.5t22 -25.5l-71 -77q-41 45 -113 45q-69 0 -110.5 -45.5t-41.5 -105.5q0 -52 34 -85t96 -33q39 0 74 12t45 22z" />
    <glyph glyph-name="ordfeminine" unicode="&#xaa;" horiz-adv-x="451" 
d="M293 458l9 55q-21 15 -49 15q-24 0 -40.5 -12t-16.5 -32q0 -37 48 -37q25 0 49 11zM437 590l-28 -178q-66 -49 -176 -49q-86 0 -125.5 32t-39.5 84q0 65 51.5 96t120.5 31q40 0 74 -12l4 28q2 16 -10.5 25.5t-45.5 9.5q-52 0 -99 -20l-22 72q74 31 157 31
q92 0 121.5 -37.5t17.5 -112.5z" />
    <glyph glyph-name="guillemotleft" unicode="&#xab;" horiz-adv-x="633" 
d="M285 25h-144l-113 213l177 213h144l-189 -214zM550 25h-143l-112 213l177 213h140l-190 -212z" />
    <glyph glyph-name="logicalnot" unicode="&#xac;" horiz-adv-x="697" 
d="M585 93h-133l34 215h-427l18 111h560z" />
    <glyph glyph-name="registered" unicode="&#xae;" horiz-adv-x="691" 
d="M328 185q-105 0 -173.5 73t-68.5 180q0 88 47.5 166t124 123t158.5 45q105 0 174 -73.5t69 -180.5q0 -133 -102 -233t-229 -100zM340 263q94 0 167.5 73.5t73.5 172.5q0 79 -49.5 132.5t-128.5 53.5q-93 0 -166 -71.5t-73 -172.5q0 -81 49.5 -134.5t126.5 -53.5zM489 327
h-104l-47 112l-18 -112h-92l51 323h134q39 0 67.5 -27.5t28.5 -70.5q0 -36 -21 -69t-57 -45zM347 497h18q27 0 40 12.5t13 31.5q0 32 -38 32h-21z" />
    <glyph glyph-name="macron" unicode="&#xaf;" horiz-adv-x="499" 
d="M540 578h-397l17 109h397z" />
    <glyph glyph-name="degree" unicode="&#xb0;" horiz-adv-x="427" 
d="M434 639q0 -73 -59 -126t-138 -53q-64 0 -106 40.5t-42 99.5q0 73 59.5 126.5t138.5 53.5q64 0 105.5 -40.5t41.5 -100.5zM251 549q26 0 45 24.5t19 58.5q0 25 -11.5 42t-30.5 17q-23 0 -43.5 -25t-20.5 -58q0 -25 12 -42t30 -17z" />
    <glyph glyph-name="plusminus" unicode="&#xb1;" horiz-adv-x="693" 
d="M637 364h-216l-32 -205h-129l32 205h-216l18 109h216l32 206h129l-32 -206h216zM580 1h-561l17 109h561z" />
    <glyph glyph-name="twosuperior" unicode="&#xb2;" horiz-adv-x="452" 
d="M417 296h-404q3 2 67 52t108 87.5t87 92t43 91.5q0 39 -44 39q-47 0 -104 -49l-47 80q87 69 181 69q66 0 104.5 -34t38.5 -92q0 -68 -48.5 -131t-112.5 -104h147z" />
    <glyph glyph-name="threesuperior" unicode="&#xb3;" horiz-adv-x="392" 
d="M21 336l65 85q13 -14 42 -25.5t55 -11.5q33 0 52.5 19t19.5 44q0 28 -25.5 42.5t-65.5 14.5q-18 0 -30 -1l12 70q6 -1 19 -1q38 0 66 15.5t28 41.5q0 30 -36 30t-75 -23l-20 89q17 14 55 23.5t76 9.5q64 0 97 -28.5t33 -69.5q0 -64 -74 -113q28 -13 44 -41.5t16 -62.5
q0 -62 -51 -110.5t-152 -48.5q-105 0 -151 52z" />
    <glyph glyph-name="acute" unicode="&#xb4;" horiz-adv-x="345" 
d="M416 750l-223 -167l-45 46l177 201z" />
    <glyph glyph-name="paragraph" unicode="&#xb6;" horiz-adv-x="580" 
d="M409 -154h-130l144 911h130zM366 754l-79 -495q-100 -4 -158.5 58.5t-58.5 149.5q0 104 87 195.5t209 91.5z" />
    <glyph glyph-name="periodcentered" unicode="&#xb7;" horiz-adv-x="269" 
d="M223 369q0 -33 -28 -58.5t-65 -25.5q-30 0 -50 19.5t-20 46.5q0 34 28 58.5t66 24.5q30 0 49.5 -18.5t19.5 -46.5z" />
    <glyph glyph-name="cedilla" unicode="&#xb8;" horiz-adv-x="296" 
d="M90 -256h-123l119 205h161z" />
    <glyph glyph-name="onesuperior" unicode="&#xb9;" horiz-adv-x="320" 
d="M256 294h-132l50 317l-75 -27l-31 94l263 87z" />
    <glyph glyph-name="ordmasculine" unicode="&#xba;" horiz-adv-x="494" 
d="M491 568q0 -89 -69 -147t-162 -58q-83 0 -132.5 46.5t-49.5 121.5q0 91 69 150t162 59q83 0 132.5 -49t49.5 -123zM274 455q38 0 61 32t23 80q0 36 -14.5 59t-44.5 23q-37 0 -64 -34t-27 -79q0 -34 16.5 -57.5t49.5 -23.5z" />
    <glyph glyph-name="guillemotright" unicode="&#xbb;" horiz-adv-x="625" 
d="M137 24h-140l193 213l-122 214h140l109 -213zM395 24h-137l194 213l-122 214h137l108 -213z" />
    <glyph glyph-name="onequarter" unicode="&#xbc;" horiz-adv-x="967" 
d="M264 -39l-99 47l499 767l104 -49zM283 294h-132l50 317l-75 -27l-31 94l263 87zM877 60h-72l-11 -71h-117l11 71h-227l12 75l314 318h80l-47 -297h72zM708 149l21 132l-127 -132h106z" />
    <glyph glyph-name="onehalf" unicode="&#xbd;" horiz-adv-x="994" 
d="M264 -39l-99 47l499 767l104 -49zM283 294h-132l50 317l-75 -27l-31 94l263 87zM892 0h-404q4 3 66 51.5t107.5 87t88.5 93t43 92.5t-43 38q-48 0 -106 -49l-46 80q87 69 181 69q65 0 103.5 -34t38.5 -92q0 -68 -48.5 -131t-111.5 -104h147z" />
    <glyph glyph-name="threequarters" unicode="&#xbe;" horiz-adv-x="1035" 
d="M334 -39l-100 47l501 767l103 -49zM947 60h-73l-11 -71h-116l11 71h-227l12 75l314 318h80l-48 -297h73zM777 149l21 132l-126 -132h105zM46 336l65 85q13 -14 42 -25.5t55 -11.5q33 0 52.5 19t19.5 44q0 28 -25.5 42.5t-65.5 14.5q-18 0 -30 -1l12 70q6 -1 19 -1
q38 0 66 15.5t28 41.5q0 30 -36 30t-75 -23l-20 89q17 14 55 23.5t76 9.5q64 0 97 -28.5t33 -69.5q0 -64 -74 -113q28 -13 44 -41.5t16 -62.5q0 -62 -51.5 -110.5t-151.5 -48.5q-105 0 -151 52z" />
    <glyph glyph-name="questiondown" unicode="&#xbf;" horiz-adv-x="460" 
d="M269 -107l40 -70q-93 -71 -172 -71q-61 0 -93.5 36.5t-32.5 86.5q0 51 38.5 95.5t84 71.5t84 61t38.5 66q0 18 -10.5 30.5t-32.5 12.5q-33 0 -75 -28t-59 -52l-54 65q29 39 89 77.5t125 38.5q61 0 105.5 -37t44.5 -100q0 -45 -25 -81.5t-60.5 -61t-71.5 -46.5t-61 -47.5
t-25 -54.5q0 -33 35 -33q11 0 21.5 2.5t21.5 8.5t17 9.5t17 11.5zM254 382q-29 0 -47 19.5t-18 47.5q0 34 27 62.5t61 28.5q29 0 47 -21t18 -49q0 -35 -27 -61.5t-61 -26.5z" />
    <glyph glyph-name="Agrave" unicode="&#xc0;" horiz-adv-x="733" 
d="M581 827l-314 50l70 114l294 -70zM700 0h-160l-39 139h-314l-83 -139h-164l504 790zM467 258l-70 239l-138 -239h208z" />
    <glyph glyph-name="Aacute" unicode="&#xc1;" horiz-adv-x="733" 
d="M616 877l-331 -49l-7 94l317 70zM700 0h-160l-39 139h-314l-83 -139h-164l504 790zM467 258l-70 239l-138 -239h208z" />
    <glyph glyph-name="Acircumflex" unicode="&#xc2;" horiz-adv-x="733" 
d="M697 875l-94 -73l-147 63l-172 -67l-59 79l252 113zM700 0h-160l-39 139h-314l-83 -139h-164l504 790zM467 258l-70 239l-138 -239h208z" />
    <glyph glyph-name="Atilde" unicode="&#xc3;" horiz-adv-x="733" 
d="M595 1001l56 -90q-101 -86 -176 -86q-20 0 -54.5 21t-55.5 21q-19 0 -47.5 -19t-48.5 -39l-59 83q36 29 88.5 57.5t88.5 28.5q25 0 59 -21.5t52 -21.5q22 0 50.5 22t46.5 44zM700 0h-160l-39 139h-314l-83 -139h-164l504 790zM467 258l-70 239l-138 -239h208z" />
    <glyph glyph-name="Adieresis" unicode="&#xc4;" horiz-adv-x="733" 
d="M416 908q0 -33 -28.5 -58t-67.5 -25q-30 0 -50.5 19.5t-20.5 46.5q0 33 28.5 58t65.5 25q32 0 52.5 -19t20.5 -47zM667 909q0 -34 -27 -59t-69 -25q-32 0 -51.5 18.5t-19.5 46.5q0 35 27.5 59.5t66.5 24.5q35 0 54 -18t19 -47zM700 0h-160l-39 139h-314l-83 -139h-164
l504 790zM467 258l-70 239l-138 -239h208z" />
    <glyph glyph-name="Aring" unicode="&#xc5;" horiz-adv-x="733" 
d="M591 951q0 -57 -43.5 -98.5t-101.5 -41.5q-47 0 -76 30.5t-29 76.5q0 57 44.5 99t100.5 42q46 0 75.5 -31.5t29.5 -76.5zM459 886q20 0 36.5 17t16.5 39q0 17 -10.5 30t-26.5 13q-21 0 -37 -17.5t-16 -39.5q0 -18 10.5 -30t26.5 -12zM700 0h-160l-39 139h-314l-83 -139
h-164l504 790zM467 258l-70 239l-138 -239h208z" />
    <glyph glyph-name="AE" unicode="&#xc6;" horiz-adv-x="993" 
d="M912 1h-488l26 162h-222l-123 -163h-170l598 756h444l-21 -128h-291l-25 -163h234l-21 -129h-234l-32 -206h346zM469 282l40 255l-191 -255h151z" />
    <glyph glyph-name="Ccedilla" unicode="&#xc7;" horiz-adv-x="739" 
d="M290 -246h-122l127 186h138zM623 177l49 -93q-110 -100 -273 -100q-159 0 -254 98.5t-95 251.5q0 185 132 312.5t322 127.5q165 0 254 -109l-90 -98q-65 79 -182 79q-120 0 -201.5 -90t-81.5 -216q0 -101 57.5 -165t164.5 -64q63 0 118 21t80 45z" />
    <glyph glyph-name="Egrave" unicode="&#xc8;" horiz-adv-x="584" 
d="M525 817l-316 50l57 114l295 -70zM495 1h-462l120 755h434l-21 -128h-292l-26 -163h235l-20 -129h-235l-33 -206h320z" />
    <glyph glyph-name="Eacute" unicode="&#xc9;" horiz-adv-x="584" 
d="M555 877l-332 -49l-10 94l317 70zM495 1h-462l120 755h434l-21 -128h-292l-26 -163h235l-20 -129h-235l-33 -206h320z" />
    <glyph glyph-name="Ecircumflex" unicode="&#xca;" horiz-adv-x="584" 
d="M495 1h-462l120 755h433l-21 -128h-291l-26 -163h234l-20 -129h-234l-33 -206h320zM615 884l-96 -73l-145 61l-171 -64l-60 79l252 113z" />
    <glyph glyph-name="Edieresis" unicode="&#xcb;" horiz-adv-x="584" 
d="M333 892q0 -33 -26.5 -58t-61.5 -25q-27 0 -44.5 18.5t-17.5 45.5q0 34 26 59t59 25q28 0 46.5 -18.5t18.5 -46.5zM598 893q0 -33 -26.5 -58t-59.5 -25q-27 0 -44 18t-17 45q0 35 25 60t60 25q26 0 44 -18.5t18 -46.5zM495 1h-462l120 755h434l-21 -128h-292l-26 -163
h235l-20 -129h-235l-33 -206h320z" />
    <glyph glyph-name="Igrave" unicode="&#xcc;" horiz-adv-x="305" 
d="M174 0h-141l120 757h141zM387 827l-316 50l57 114l295 -70z" />
    <glyph glyph-name="Iacute" unicode="&#xcd;" horiz-adv-x="306" 
d="M175 0h-142l120 757h142zM414 870l-332 -49l-10 94l317 70z" />
    <glyph glyph-name="Icircumflex" unicode="&#xce;" horiz-adv-x="306" 
d="M175 0h-142l120 757h142zM485 894l-96 -73l-145 61l-172 -64l-59 79l252 113z" />
    <glyph glyph-name="Idieresis" unicode="&#xcf;" horiz-adv-x="306" 
d="M175 0h-142l120 757h142zM193 897q0 -31 -26 -54t-61 -23q-27 0 -45 17.5t-18 42.5q0 32 26 55.5t59 23.5q29 0 47 -17.5t18 -44.5zM448 898q0 -32 -25.5 -55t-61.5 -23q-27 0 -44.5 17.5t-17.5 42.5q0 32 25 55.5t59 23.5q30 0 47.5 -17t17.5 -44z" />
    <glyph glyph-name="Eth" unicode="&#xd0;" horiz-adv-x="759" 
d="M265 0h-219l50 318h-80l20 125h80l50 314h224q157 0 247 -82.5t90 -245.5q0 -195 -125 -312t-337 -117zM412 318h-174l-30 -189h83q119 0 201 73.5t82 209.5q0 104 -50 160t-135 56h-102l-29 -185h174z" />
    <glyph glyph-name="Ntilde" unicode="&#xd1;" horiz-adv-x="831" 
d="M674 990l39 -80q-10 -19 -65 -53.5t-101 -34.5q-23 0 -57 23.5t-55 23.5q-24 0 -61.5 -19.5t-50.5 -33.5l-42 77q123 84 174 84q26 0 57 -25t53 -25q33 0 109 63zM695 -27l-451 479l-70 -452h-142l125 778l448 -493l74 472h142z" />
    <glyph glyph-name="Ograve" unicode="&#xd2;" horiz-adv-x="877" 
d="M635 827l-316 50l63 114l294 -70zM850 430q0 -119 -63 -222.5t-168 -163.5t-225 -60q-155 0 -250 99.5t-95 248.5q0 93 39.5 176.5t104 141t147.5 91t168 33.5q151 0 246.5 -97t95.5 -247zM406 110q113 0 201 91.5t88 218.5q0 98 -55 162t-148 64q-114 0 -202 -89.5
t-88 -215.5q0 -96 54.5 -163.5t149.5 -67.5z" />
    <glyph glyph-name="Oacute" unicode="&#xd3;" horiz-adv-x="877" 
d="M682 877l-331 -49l-6 94l317 70zM850 430q0 -119 -63 -222.5t-168 -163.5t-225 -60q-155 0 -250 99.5t-95 248.5q0 93 39.5 176.5t104 141t147.5 91t168 33.5q151 0 246.5 -97t95.5 -247zM406 110q113 0 201 91.5t88 218.5q0 98 -55 162t-148 64q-114 0 -202 -89.5
t-88 -215.5q0 -96 54.5 -163.5t149.5 -67.5z" />
    <glyph glyph-name="Ocircumflex" unicode="&#xd4;" horiz-adv-x="877" 
d="M748 872l-79 -73l-145 63l-173 -64l-58 79l252 113zM850 430q0 -119 -63 -222.5t-168 -163.5t-225 -60q-155 0 -250 99.5t-95 248.5q0 93 39.5 176.5t104 141t147.5 91t168 33.5q151 0 246.5 -97t95.5 -247zM406 110q113 0 201 91.5t88 218.5q0 98 -55 162t-148 64
q-114 0 -202 -89.5t-88 -215.5q0 -96 54.5 -163.5t149.5 -67.5z" />
    <glyph glyph-name="Otilde" unicode="&#xd5;" horiz-adv-x="877" 
d="M682 1001l54 -90q-99 -86 -175 -86q-19 0 -54 21t-56 21q-32 0 -96 -58l-58 83q36 29 88.5 57.5t88.5 28.5q23 0 57.5 -21.5t52.5 -21.5q39 0 98 66zM850 430q0 -119 -63 -222.5t-168 -163.5t-225 -60q-155 0 -250 99.5t-95 248.5q0 93 39.5 176.5t104 141t147.5 91
t168 33.5q151 0 246.5 -97t95.5 -247zM406 110q113 0 201 91.5t88 218.5q0 98 -55 162t-148 64q-114 0 -202 -89.5t-88 -215.5q0 -96 54.5 -163.5t149.5 -67.5z" />
    <glyph glyph-name="Odieresis" unicode="&#xd6;" horiz-adv-x="877" 
d="M389 876q0 -33 -26.5 -58t-61.5 -25q-27 0 -46 18.5t-19 45.5q0 34 27 59t61 25q28 0 46.5 -18.5t18.5 -46.5zM803 877q0 -35 -24.5 -59.5t-62.5 -24.5q-30 0 -47 18t-17 45q0 35 25 60t62 25q30 0 47 -18t17 -46zM850 430q0 -119 -63 -222.5t-168 -163.5t-225 -60
q-155 0 -250 99.5t-95 248.5q0 93 39.5 176.5t104 141t147.5 91t168 33.5q151 0 246.5 -97t95.5 -247zM406 110q113 0 201 91.5t88 218.5q0 98 -55 162t-148 64q-114 0 -202 -89.5t-88 -215.5q0 -96 54.5 -163.5t149.5 -67.5z" />
    <glyph glyph-name="multiply" unicode="&#xd7;" horiz-adv-x="660" 
d="M576 174l-103 -70l-148 175l-200 -173l-85 66l210 179l-150 179l103 71l147 -176l202 177l80 -72l-206 -178z" />
    <glyph glyph-name="Oslash" unicode="&#xd8;" horiz-adv-x="877" 
d="M232 -141l-118 36l81 145q-70 46 -108 122.5t-38 169.5t39.5 176.5t104 141t147.5 91t168 33.5q45 0 91 -11l67 121l116 -45l-71 -126q66 -45 102.5 -119t36.5 -164q0 -119 -63 -222.5t-168 -163.5t-225 -60q-42 0 -87 10zM266 167l265 475q-16 4 -39 4
q-114 0 -202 -89.5t-88 -215.5q0 -108 64 -174zM638 583l-264 -471q20 -2 32 -2q113 0 201 91.5t88 218.5q0 100 -57 163z" />
    <glyph glyph-name="Ugrave" unicode="&#xd9;" horiz-adv-x="757" 
d="M576 826l-316 50l57 114l295 -70zM511 149l96 608h142l-105 -664q-119 -110 -316 -110q-304 0 -256 296l76 478h142l-63 -396q-24 -151 1 -201.5t129 -50.5q85 0 154 40z" />
    <glyph glyph-name="Uacute" unicode="&#xda;" horiz-adv-x="757" 
d="M645 877l-332 -49l-10 94l317 70zM511 149l96 608h142l-105 -664q-119 -110 -316 -110q-304 0 -256 296l76 478h142l-63 -396q-24 -151 1 -201.5t129 -50.5q85 0 154 40z" />
    <glyph glyph-name="Ucircumflex" unicode="&#xdb;" horiz-adv-x="757" 
d="M690 874l-96 -73l-145 61l-171 -64l-60 79l252 113zM511 149l96 608h142l-105 -664q-119 -110 -316 -110q-304 0 -256 296l76 478h142l-63 -396q-24 -151 1 -201.5t129 -50.5q85 0 154 40z" />
    <glyph glyph-name="Udieresis" unicode="&#xdc;" horiz-adv-x="757" 
d="M320 888q0 -34 -27.5 -58.5t-63.5 -24.5q-28 0 -48 19t-20 46q0 34 28 58.5t63 24.5q30 0 49 -18.5t19 -46.5zM774 889q0 -35 -26.5 -59.5t-66.5 -24.5q-30 0 -48 18t-18 45q0 35 26 60t63 25q32 0 51 -18t19 -46zM511 149l96 608h142l-105 -664q-119 -110 -316 -110
q-304 0 -256 296l76 478h142l-63 -396q-24 -151 1 -201.5t129 -50.5q85 0 154 40z" />
    <glyph glyph-name="Yacute" unicode="&#xdd;" horiz-adv-x="658" 
d="M624 933l-227 -168l-78 59l200 189zM347 0h-142l49 307l-202 450h160l132 -318l244 318h157l-349 -450z" />
    <glyph glyph-name="Thorn" unicode="&#xde;" horiz-adv-x="597" 
d="M175 0h-142l120 757h142l-21 -130h21q139 0 211.5 -47.5t72.5 -161.5q0 -126 -86 -206t-248 -80h-49zM216 261h46q80 0 122 38.5t42 103.5q0 95 -103 95h-69z" />
    <glyph glyph-name="germandbls" unicode="&#xdf;" horiz-adv-x="624" 
d="M231 -245l18 118q57 11 107 67.5t50 119.5q0 42 -23.5 66t-59.5 24q-35 0 -80 -18l174 275h-166l-64 -407h-133l64 407h-73l16 103h74l14 91q16 102 68 159.5t142 57.5q61 0 132 -35l-65 -92q-24 16 -52 16q-75 0 -92 -107l-14 -90h345l-190 -287q46 -4 67 -14
q59 -30 59 -128q0 -109 -87 -204.5t-231 -121.5z" />
    <glyph glyph-name="agrave" unicode="&#xe0;" horiz-adv-x="523" 
d="M401 629l-59 -46l-171 167l117 80zM311 103l16 103q-29 33 -84 33q-42 0 -73 -22t-31 -61q0 -32 21.5 -53t64.5 -21q49 0 86 21zM469 319l-43 -271q-32 -25 -91.5 -43.5t-129.5 -18.5q-105 0 -153 43.5t-48 112.5q0 51 24 89.5t61 59.5t74.5 31t72.5 10q72 0 106 -34
l8 52q5 33 -16 52t-69 19q-37 0 -77 -10.5t-59 -19.5l-22 92q94 43 189 43q110 0 149.5 -53.5t23.5 -153.5z" />
    <glyph glyph-name="aacute" unicode="&#xe1;" horiz-adv-x="523" 
d="M494 750l-223 -167l-45 46l177 201zM311 103l16 103q-29 33 -84 33q-42 0 -73 -22t-31 -61q0 -32 21.5 -53t64.5 -21q49 0 86 21zM469 319l-43 -271q-32 -25 -91.5 -43.5t-129.5 -18.5q-105 0 -153 43.5t-48 112.5q0 51 24 89.5t61 59.5t74.5 31t72.5 10q72 0 106 -34
l8 52q5 33 -16 52t-69 19q-37 0 -77 -10.5t-59 -19.5l-22 92q94 43 189 43q110 0 149.5 -53.5t23.5 -153.5z" />
    <glyph glyph-name="acircumflex" unicode="&#xe2;" horiz-adv-x="523" 
d="M498 649l-80 -79l-104 89l-131 -89l-58 79l210 137zM311 103l16 103q-29 33 -84 33q-42 0 -73 -22t-31 -61q0 -32 21.5 -53t64.5 -21q49 0 86 21zM469 319l-43 -271q-32 -25 -91.5 -43.5t-129.5 -18.5q-105 0 -153 43.5t-48 112.5q0 51 24 89.5t61 59.5t74.5 31t72.5 10
q72 0 106 -34l8 52q5 33 -16 52t-69 19q-37 0 -77 -10.5t-59 -19.5l-22 92q94 43 189 43q110 0 149.5 -53.5t23.5 -153.5z" />
    <glyph glyph-name="atilde" unicode="&#xe3;" horiz-adv-x="523" 
d="M481 727l27 -70q-11 -21 -53 -52t-87 -31q-24 0 -57 25.5t-54 25.5q-23 0 -48.5 -15t-38.5 -30l-40 77q105 74 160 74q26 0 57 -25t53 -25q26 0 81 46zM311 103l16 103q-29 33 -84 33q-42 0 -73 -22t-31 -61q0 -32 21.5 -53t64.5 -21q49 0 86 21zM469 319l-43 -271
q-32 -25 -91.5 -43.5t-129.5 -18.5q-105 0 -153 43.5t-48 112.5q0 51 24 89.5t61 59.5t74.5 31t72.5 10q72 0 106 -34l8 52q5 33 -16 52t-69 19q-37 0 -77 -10.5t-59 -19.5l-22 92q94 43 189 43q110 0 149.5 -53.5t23.5 -153.5z" />
    <glyph glyph-name="adieresis" unicode="&#xe4;" horiz-adv-x="523" 
d="M281 657q0 -31 -26 -54t-61 -23q-27 0 -45 17.5t-18 42.5q0 32 26 55.5t59 23.5q28 0 46.5 -18t18.5 -44zM516 658q0 -32 -25 -55t-62 -23q-28 0 -45 17t-17 42q0 33 24.5 56.5t59.5 23.5q30 0 47.5 -17t17.5 -44zM311 103l16 103q-29 33 -84 33q-42 0 -73 -22t-31 -61
q0 -32 21.5 -53t64.5 -21q49 0 86 21zM469 319l-43 -271q-32 -25 -91.5 -43.5t-129.5 -18.5q-105 0 -153 43.5t-48 112.5q0 51 24 89.5t61 59.5t74.5 31t72.5 10q72 0 106 -34l8 52q5 33 -16 52t-69 19q-37 0 -77 -10.5t-59 -19.5l-22 92q94 43 189 43q110 0 149.5 -53.5
t23.5 -153.5z" />
    <glyph glyph-name="aring" unicode="&#xe5;" horiz-adv-x="523" 
d="M450 719q0 -57 -43 -98.5t-101 -41.5q-47 0 -76 30.5t-29 76.5q0 57 44 99t100 42q46 0 75.5 -31.5t29.5 -76.5zM319 654q20 0 36 17t16 39q0 18 -10.5 30.5t-25.5 12.5q-21 0 -37 -17.5t-16 -39.5q0 -18 10.5 -30t26.5 -12zM311 103l16 103q-29 33 -84 33q-42 0 -73 -22
t-31 -61q0 -32 21.5 -53t64.5 -21q49 0 86 21zM469 319l-43 -271q-32 -25 -91.5 -43.5t-129.5 -18.5q-105 0 -153 43.5t-48 112.5q0 51 24 89.5t61 59.5t74.5 31t72.5 10q72 0 106 -34l8 52q5 33 -16 52t-69 19q-37 0 -77 -10.5t-59 -19.5l-22 92q94 43 189 43
q110 0 149.5 -53.5t23.5 -153.5z" />
    <glyph glyph-name="ae" unicode="&#xe6;" horiz-adv-x="873" 
d="M759 139l21 -91q-28 -22 -87 -42t-130 -20q-101 0 -159 47q-78 -47 -201 -47q-103 0 -151 43.5t-48 112.5q0 50 24 89t60.5 59.5t72.5 31t67 10.5q30 0 64 -9t50 -25l8 52q5 33 -16 52t-69 19q-37 0 -77 -10.5t-59 -19.5l-22 92q94 43 191 43q112 0 157 -64q91 64 180 64
q113 0 164 -78t33 -192l-8 -50h-370q1 -64 43.5 -90.5t105.5 -26.5q56 0 96.5 16t59.5 34zM342 116q-17 28 -17 65q0 10 2 26q-30 32 -84 32q-42 0 -73 -22.5t-31 -62.5q0 -33 23 -52.5t67 -19.5q51 0 113 34zM469 304h242q7 52 -16 86t-75 34q-50 0 -90 -32.5t-61 -87.5z
" />
    <glyph glyph-name="ccedilla" unicode="&#xe7;" horiz-adv-x="510" 
d="M149 -246h-108l120 186h131zM420 145l27 -90q-23 -22 -78.5 -45.5t-124.5 -23.5q-106 0 -162.5 63t-56.5 166q0 136 91.5 223.5t216.5 87.5q103 0 161 -58l-57 -94q-45 45 -107 45q-66 0 -118 -53.5t-52 -134.5q0 -63 32.5 -101.5t85.5 -38.5q39 0 83 19.5t59 34.5z" />
    <glyph glyph-name="egrave" unicode="&#xe8;" horiz-adv-x="571" 
d="M427 629l-60 -46l-170 167l117 80zM456 139l23 -91q-28 -22 -87.5 -42t-128.5 -20q-114 0 -176 60.5t-62 167.5q0 132 87.5 222t216.5 90q118 0 168.5 -77.5t32.5 -192.5l-8 -50h-370q1 -63 43.5 -90t106.5 -27q54 0 95 16t59 34zM167 304h242q8 51 -16 85.5t-76 34.5
q-50 0 -89.5 -32.5t-60.5 -87.5z" />
    <glyph glyph-name="eacute" unicode="&#xe9;" horiz-adv-x="571" 
d="M491 750l-224 -167l-44 46l177 201zM456 139l23 -91q-28 -22 -87.5 -42t-128.5 -20q-114 0 -176 60.5t-62 167.5q0 132 87.5 222t216.5 90q118 0 168.5 -77.5t32.5 -192.5l-8 -50h-370q1 -63 43.5 -90t106.5 -27q54 0 95 16t59 34zM167 304h242q8 51 -16 85.5t-76 34.5
q-50 0 -89.5 -32.5t-60.5 -87.5z" />
    <glyph glyph-name="ecircumflex" unicode="&#xea;" horiz-adv-x="571" 
d="M530 649l-81 -79l-105 89l-130 -89l-57 79l209 137zM456 139l23 -91q-28 -22 -87.5 -42t-128.5 -20q-114 0 -176 60.5t-62 167.5q0 132 87.5 222t216.5 90q118 0 168.5 -77.5t32.5 -192.5l-8 -50h-370q1 -63 43.5 -90t106.5 -27q54 0 95 16t59 34zM167 304h242
q8 51 -16 85.5t-76 34.5q-50 0 -89.5 -32.5t-60.5 -87.5z" />
    <glyph glyph-name="edieresis" unicode="&#xeb;" horiz-adv-x="571" 
d="M302 657q0 -31 -26 -54t-61 -23q-27 0 -45 17.5t-18 42.5q0 32 26 55.5t59 23.5q28 0 46.5 -18t18.5 -44zM537 658q0 -32 -25.5 -55t-61.5 -23q-28 0 -45 17t-17 42q0 33 24.5 56.5t59.5 23.5q30 0 47.5 -17t17.5 -44zM456 139l23 -91q-28 -22 -87.5 -42t-128.5 -20
q-114 0 -176 60.5t-62 167.5q0 132 87.5 222t216.5 90q118 0 168.5 -77.5t32.5 -192.5l-8 -50h-370q1 -63 43.5 -90t106.5 -27q54 0 95 16t59 34zM167 304h242q8 51 -16 85.5t-76 34.5q-50 0 -89.5 -32.5t-60.5 -87.5z" />
    <glyph glyph-name="igrave" unicode="&#xec;" horiz-adv-x="265" 
d="M149 0h-131l81 511h131zM264 629l-60 -46l-170 167l116 80z" />
    <glyph glyph-name="iacute" unicode="&#xed;" horiz-adv-x="265" 
d="M149 0h-131l81 511h131zM369 750l-224 -167l-44 46l176 201z" />
    <glyph glyph-name="icircumflex" unicode="&#xee;" horiz-adv-x="265" 
d="M149 0h-131l81 511h131zM372 649l-81 -79l-104 89l-131 -89l-56 79l208 137z" />
    <glyph glyph-name="idieresis" unicode="&#xef;" horiz-adv-x="265" 
d="M149 0h-131l81 511h131zM173 657q0 -31 -26 -54t-61 -23q-27 0 -45 17.5t-18 42.5q0 32 26 55.5t59 23.5q29 0 47 -17.5t18 -44.5zM350 658q0 -32 -25.5 -55t-61.5 -23q-27 0 -44.5 17.5t-17.5 42.5q0 32 25 55.5t59 23.5q30 0 47.5 -17t17.5 -44z" />
    <glyph glyph-name="eth" unicode="&#xf0;" horiz-adv-x="609" 
d="M576 714l-104 -60q41 -74 67.5 -164t26.5 -168q0 -146 -90.5 -241t-221.5 -95q-109 0 -169.5 66t-60.5 162q0 118 86 202t188 84q73 0 110 -44q-19 71 -54 135l-68 -42l-42 75l65 40q-60 94 -141 156h191q9 -13 31.5 -45t34.5 -50l116 67zM267 87q61 0 107.5 52.5
t46.5 129.5q0 55 -27 92.5t-82 37.5q-68 0 -108.5 -57t-40.5 -124q0 -52 26 -91.5t78 -39.5z" />
    <glyph glyph-name="ntilde" unicode="&#xf1;" horiz-adv-x="567" 
d="M491 727l26 -70q-11 -21 -52.5 -52t-86.5 -31q-23 0 -56 25.5t-54 25.5q-24 0 -50.5 -15.5t-37.5 -29.5l-40 77q108 74 161 74q26 0 56.5 -25t52.5 -25q26 0 81 46zM457 0h-131l43 273q5 37 7 67.5t-12.5 50.5t-47.5 20q-35 0 -67 -18.5t-48 -38.5l-56 -354h-131l81 511
h131l-8 -52q75 67 169 67q153 0 124 -184z" />
    <glyph glyph-name="ograve" unicode="&#xf2;" horiz-adv-x="603" 
d="M476 639l-104 -56l-169 167l131 80zM562 290q0 -124 -90 -214t-216 -90q-106 0 -169 66t-63 169q0 129 94 217t216 88q104 0 166 -67.5t62 -168.5zM268 87q65 0 110.5 57t45.5 142q0 61 -26 97.5t-76 36.5q-65 0 -112.5 -57.5t-47.5 -140.5q0 -61 27.5 -98t78.5 -37z" />
    <glyph glyph-name="oacute" unicode="&#xf3;" horiz-adv-x="603" 
d="M554 750l-223 -167l-85 56l202 191zM562 290q0 -124 -90 -214t-216 -90q-106 0 -169 66t-63 169q0 129 94 217t216 88q104 0 166 -67.5t62 -168.5zM268 87q65 0 110.5 57t45.5 142q0 61 -26 97.5t-76 36.5q-65 0 -112.5 -57.5t-47.5 -140.5q0 -61 27.5 -98t78.5 -37z" />
    <glyph glyph-name="ocircumflex" unicode="&#xf4;" horiz-adv-x="603" 
d="M530 639l-80 -79l-106 79l-130 -79l-56 79l208 137zM562 290q0 -124 -90 -214t-216 -90q-106 0 -169 66t-63 169q0 129 94 217t216 88q104 0 166 -67.5t62 -168.5zM268 87q65 0 110.5 57t45.5 142q0 61 -26 97.5t-76 36.5q-65 0 -112.5 -57.5t-47.5 -140.5
q0 -61 27.5 -98t78.5 -37z" />
    <glyph glyph-name="otilde" unicode="&#xf5;" horiz-adv-x="603" 
d="M520 748l29 -68q-8 -24 -50.5 -60t-92.5 -36q-18 0 -49 20t-49 20q-26 0 -52 -18t-38 -35l-50 71q105 89 161 89q22 0 52 -20t48 -20q34 0 91 57zM562 290q0 -124 -90 -214t-216 -90q-106 0 -169 66t-63 169q0 129 94 217t216 88q104 0 166 -67.5t62 -168.5zM268 87
q65 0 110.5 57t45.5 142q0 61 -26 97.5t-76 36.5q-65 0 -112.5 -57.5t-47.5 -140.5q0 -61 27.5 -98t78.5 -37z" />
    <glyph glyph-name="odieresis" unicode="&#xf6;" horiz-adv-x="603" 
d="M315 665q0 -31 -26 -54t-61 -23q-27 0 -45.5 17.5t-18.5 42.5q0 32 26.5 55.5t59.5 23.5q28 0 46.5 -18t18.5 -44zM550 666q0 -32 -25 -55t-62 -23q-27 0 -44.5 17t-17.5 42q0 33 24.5 56.5t59.5 23.5q30 0 47.5 -17t17.5 -44zM562 290q0 -124 -90 -214t-216 -90
q-106 0 -169 66t-63 169q0 129 94 217t216 88q104 0 166 -67.5t62 -168.5zM268 87q65 0 110.5 57t45.5 142q0 61 -26 97.5t-76 36.5q-65 0 -112.5 -57.5t-47.5 -140.5q0 -61 27.5 -98t78.5 -37z" />
    <glyph glyph-name="divide" unicode="&#xf7;" horiz-adv-x="677" 
d="M389 163q0 -32 -24.5 -55t-61.5 -23q-26 0 -43.5 17.5t-17.5 43.5q0 31 25.5 54t56.5 23q30 0 47.5 -17.5t17.5 -42.5zM453 567q0 -31 -25 -54t-61 -23q-26 0 -43.5 18t-17.5 42q0 30 25.5 53.5t56.5 23.5t48 -16.5t17 -43.5zM619 309h-561l17 109h561z" />
    <glyph glyph-name="oslash" unicode="&#xf8;" horiz-adv-x="603" 
d="M98 -142l-92 37l91 147q-73 65 -73 179q0 129 94 217t216 88q26 0 57 -7l78 127l97 -41l-82 -131q78 -69 78 -184q0 -124 -90 -214t-216 -90q-35 0 -72 10zM411 358l-168 -269q16 -2 25 -2q65 0 110.5 57t45.5 142q0 43 -13 72zM170 161l159 258q-1 0 -3.5 0.5t-3.5 0.5
q-65 0 -112.5 -57.5t-47.5 -140.5q0 -32 8 -61z" />
    <glyph glyph-name="ugrave" unicode="&#xf9;" horiz-adv-x="565" 
d="M410 629l-60 -46l-170 167l116 80zM341 114l63 397h131l-72 -455q-89 -70 -231 -70q-102 0 -154.5 50.5t-37.5 146.5l52 328h131l-47 -298q-12 -72 8.5 -97.5t77.5 -25.5q50 0 79 24z" />
    <glyph glyph-name="uacute" unicode="&#xfa;" horiz-adv-x="565" 
d="M528 750l-224 -167l-43 46l176 201zM341 114l63 397h131l-72 -455q-89 -70 -231 -70q-102 0 -154.5 50.5t-37.5 146.5l52 328h131l-47 -298q-12 -72 8.5 -97.5t77.5 -25.5q50 0 79 24z" />
    <glyph glyph-name="ucircumflex" unicode="&#xfb;" horiz-adv-x="565" 
d="M524 649l-80 -79l-105 89l-131 -89l-57 79l209 137zM341 114l63 397h131l-72 -455q-89 -70 -231 -70q-102 0 -154.5 50.5t-37.5 146.5l52 328h131l-47 -298q-12 -72 8.5 -97.5t77.5 -25.5q50 0 79 24z" />
    <glyph glyph-name="udieresis" unicode="&#xfc;" horiz-adv-x="565" 
d="M294 657q0 -31 -26 -54t-60 -23q-27 0 -45 17.5t-18 42.5q0 32 26 55.5t59 23.5q28 0 46 -17.5t18 -44.5zM530 658q0 -32 -25.5 -55t-61.5 -23q-28 0 -45 17t-17 42q0 33 24.5 56.5t59.5 23.5q30 0 47.5 -17t17.5 -44zM341 114l63 397h131l-72 -455q-89 -70 -231 -70
q-102 0 -154.5 50.5t-37.5 146.5l52 328h131l-47 -298q-12 -72 8.5 -97.5t77.5 -25.5q50 0 79 24z" />
    <glyph glyph-name="yacute" unicode="&#xfd;" horiz-adv-x="543" 
d="M534 750l-223 -167l-45 46l177 201zM76 -255h-141l226 339l-135 427h145l77 -296l193 296h142z" />
    <glyph glyph-name="thorn" unicode="&#xfe;" horiz-adv-x="587" 
d="M105 -254h-130l169 1074h132l-49 -308q47 14 97 14q93 0 157 -59.5t64 -168.5q0 -122 -77 -216.5t-197 -94.5q-67 0 -121 43zM208 397l-39 -245q30 -58 93 -58q60 0 101.5 56t41.5 133q0 61 -29.5 97t-85.5 36q-50 0 -82 -19z" />
    <glyph glyph-name="ydieresis" unicode="&#xff;" horiz-adv-x="543" 
d="M284 657q0 -31 -25.5 -54t-60.5 -23q-27 0 -45.5 17.5t-18.5 42.5q0 32 26.5 55.5t59.5 23.5q28 0 46 -17.5t18 -44.5zM520 658q0 -32 -25 -55t-63 -23q-27 0 -44 17t-17 42q0 33 24.5 56.5t58.5 23.5q30 0 48 -17t18 -44zM76 -255h-141l226 339l-135 427h145l77 -296
l193 296h142z" />
    <glyph glyph-name="Amacron" unicode="&#x100;" horiz-adv-x="733" 
d="M649 824h-397l17 109h397zM700 0h-160l-39 139h-314l-83 -139h-164l504 790zM467 258l-70 239l-138 -239h208z" />
    <glyph glyph-name="amacron" unicode="&#x101;" horiz-adv-x="523" 
d="M506 578h-397l17 109h397zM311 103l16 103q-29 33 -84 33q-42 0 -73 -22t-31 -61q0 -32 21.5 -53t64.5 -21q49 0 86 21zM469 319l-43 -271q-32 -25 -91.5 -43.5t-129.5 -18.5q-105 0 -153 43.5t-48 112.5q0 51 24 89.5t61 59.5t74.5 31t72.5 10q72 0 106 -34l8 52
q5 33 -16 52t-69 19q-37 0 -77 -10.5t-59 -19.5l-22 92q94 43 189 43q110 0 149.5 -53.5t23.5 -153.5z" />
    <glyph glyph-name="Abreve" unicode="&#x102;" horiz-adv-x="733" 
d="M531 985h120q-16 -68 -70.5 -122t-136.5 -54q-68 0 -109 46t-35 130h122q0 -9 -1.5 -27t8 -36.5t29.5 -18.5t35 11.5t23 28t11 26.5t4 16zM700 0h-160l-39 139h-314l-83 -139h-164l504 790zM467 258l-70 239l-138 -239h208z" />
    <glyph glyph-name="abreve" unicode="&#x103;" horiz-adv-x="523" 
d="M388 739h120q-17 -68 -71 -122t-136 -54q-68 0 -109 46t-35 130h122q-5 -21 1.5 -51.5t34.5 -30.5q20 0 35 11.5t23 28t11 26.5t4 16zM311 103l16 103q-29 33 -84 33q-42 0 -73 -22t-31 -61q0 -32 21.5 -53t64.5 -21q49 0 86 21zM469 319l-43 -271q-32 -25 -91.5 -43.5
t-129.5 -18.5q-105 0 -153 43.5t-48 112.5q0 51 24 89.5t61 59.5t74.5 31t72.5 10q72 0 106 -34l8 52q5 33 -16 52t-69 19q-37 0 -77 -10.5t-59 -19.5l-22 92q94 43 189 43q110 0 149.5 -53.5t23.5 -153.5z" />
    <glyph glyph-name="Aogonek" unicode="&#x104;" horiz-adv-x="735" 
d="M679 -115l-16 -97q-60 -38 -122 -38q-57 0 -99.5 30t-42.5 74q0 79 141 146l-39 139h-314l-83 -139h-164l504 790l260 -796q-166 -40 -166 -116q0 -27 29 -27q42 0 112 34zM467 258l-70 239l-138 -239h208z" />
    <glyph glyph-name="aogonek" unicode="&#x105;" horiz-adv-x="523" 
d="M406 -110l-15 -97q-60 -38 -122 -38q-58 0 -100 30t-42 74q0 68 99 128q-7 -1 -21 -1q-105 0 -153 43.5t-48 112.5q0 51 24 89.5t61 59.5t74.5 31t72.5 10q72 0 106 -34l8 52q5 33 -16 52t-69 19q-37 0 -77 -10.5t-59 -19.5l-22 92q94 43 189 43q110 0 149.5 -53.5
t23.5 -153.5l-43 -271q-11 -9 -39 -25q-54 -33 -87.5 -72t-33.5 -68q0 -27 29 -27q41 0 111 34zM311 103l16 103q-29 33 -84 33q-42 0 -73 -22t-31 -61q0 -32 21.5 -53t64.5 -21q49 0 86 21z" />
    <glyph glyph-name="Cacute" unicode="&#x106;" horiz-adv-x="739" 
d="M680 885l-332 -49l-10 94l316 70zM623 177l49 -93q-110 -100 -273 -100q-159 0 -254 98.5t-95 251.5q0 185 132 312.5t322 127.5q165 0 254 -109l-90 -98q-65 79 -182 79q-120 0 -201.5 -90t-81.5 -216q0 -101 57.5 -165t164.5 -64q63 0 118 21t80 45z" />
    <glyph glyph-name="cacute" unicode="&#x107;" horiz-adv-x="510" 
d="M515 750l-224 -167l-44 46l176 201zM420 145l27 -90q-23 -22 -78.5 -45.5t-124.5 -23.5q-106 0 -162.5 63t-56.5 166q0 136 91.5 223.5t216.5 87.5q103 0 161 -58l-57 -94q-45 45 -107 45q-66 0 -118 -53.5t-52 -134.5q0 -63 32.5 -101.5t85.5 -38.5q39 0 83 19.5
t59 34.5z" />
    <glyph glyph-name="Ccircumflex" unicode="&#x108;" horiz-adv-x="739" 
d="M750 891l-95 -73l-146 61l-171 -64l-59 79l252 113zM623 177l49 -93q-110 -100 -273 -100q-159 0 -254 98.5t-95 251.5q0 185 132 312.5t322 127.5q165 0 254 -109l-90 -98q-65 79 -182 79q-120 0 -201.5 -90t-81.5 -216q0 -101 57.5 -165t164.5 -64q63 0 118 21t80 45z
" />
    <glyph glyph-name="ccircumflex" unicode="&#x109;" horiz-adv-x="510" 
d="M497 649l-81 -79l-105 89l-131 -89l-56 79l208 137zM420 145l27 -90q-23 -22 -78.5 -45.5t-124.5 -23.5q-106 0 -162.5 63t-56.5 166q0 136 91.5 223.5t216.5 87.5q103 0 161 -58l-57 -94q-45 45 -107 45q-66 0 -118 -53.5t-52 -134.5q0 -63 32.5 -101.5t85.5 -38.5
q39 0 83 19.5t59 34.5z" />
    <glyph glyph-name="Cdotaccent" unicode="&#x10a;" horiz-adv-x="739" 
d="M587 909q0 -36 -26.5 -62.5t-64.5 -26.5q-27 0 -46.5 20t-19.5 48q0 36 28.5 62.5t62.5 26.5q30 0 48 -19.5t18 -48.5zM623 177l49 -93q-110 -100 -273 -100q-159 0 -254 98.5t-95 251.5q0 185 132 312.5t322 127.5q165 0 254 -109l-90 -98q-65 79 -182 79
q-120 0 -201.5 -90t-81.5 -216q0 -101 57.5 -165t164.5 -64q63 0 118 21t80 45z" />
    <glyph glyph-name="cdotaccent" unicode="&#x10b;" horiz-adv-x="510" 
d="M400 670q0 -35 -27 -61.5t-64 -26.5q-28 0 -47.5 20t-19.5 48q0 36 28.5 62.5t63.5 26.5q30 0 48 -19.5t18 -49.5zM420 145l27 -90q-23 -22 -78.5 -45.5t-124.5 -23.5q-106 0 -162.5 63t-56.5 166q0 136 91.5 223.5t216.5 87.5q103 0 161 -58l-57 -94q-45 45 -107 45
q-66 0 -118 -53.5t-52 -134.5q0 -63 32.5 -101.5t85.5 -38.5q39 0 83 19.5t59 34.5z" />
    <glyph glyph-name="Ccaron" unicode="&#x10c;" horiz-adv-x="739" 
d="M735 932l-248 -115l-201 113l89 62l133 -69l153 65zM623 177l49 -93q-110 -100 -273 -100q-159 0 -254 98.5t-95 251.5q0 185 132 312.5t322 127.5q165 0 254 -109l-90 -98q-65 79 -182 79q-120 0 -201.5 -90t-81.5 -216q0 -101 57.5 -165t164.5 -64q63 0 118 21t80 45z
" />
    <glyph glyph-name="ccaron" unicode="&#x10d;" horiz-adv-x="510" 
d="M522 722l-206 -137l-168 137l84 79l103 -90l133 90zM420 145l27 -90q-23 -22 -78.5 -45.5t-124.5 -23.5q-106 0 -162.5 63t-56.5 166q0 136 91.5 223.5t216.5 87.5q103 0 161 -58l-57 -94q-45 45 -107 45q-66 0 -118 -53.5t-52 -134.5q0 -63 32.5 -101.5t85.5 -38.5
q39 0 83 19.5t59 34.5z" />
    <glyph glyph-name="Dcaron" unicode="&#x10e;" horiz-adv-x="746" 
d="M631 931l-247 -115l-202 113l89 62l133 -69l152 65zM252 0h-219l120 757h224q157 0 247 -82.5t90 -245.5q0 -195 -125 -312t-337 -117zM195 129h83q119 0 201 73.5t82 209.5q0 104 -50 160t-135 56h-102z" />
    <glyph glyph-name="dcaron" unicode="&#x10f;" horiz-adv-x="626" 
d="M734 562h-102l120 241h153zM363 114l41 264q-29 39 -88 39q-64 0 -108 -57t-44 -134q0 -63 31 -98.5t83 -35.5q50 0 85 22zM423 496l51 324h131l-122 -773q-107 -61 -223 -61q-102 0 -168.5 58.5t-66.5 172.5q0 133 87.5 221t212.5 88q58 0 98 -30z" />
    <glyph glyph-name="Dcroat" unicode="&#x110;" horiz-adv-x="759" 
d="M265 0h-219l50 318h-80l20 125h80l50 314h224q157 0 247 -82.5t90 -245.5q0 -195 -125 -312t-337 -117zM412 318h-174l-30 -189h83q119 0 201 73.5t82 209.5q0 104 -50 160t-135 56h-102l-29 -185h174z" />
    <glyph glyph-name="dcroat" unicode="&#x111;" horiz-adv-x="586" 
d="M640 625h-66l-91 -578q-107 -61 -223 -61q-102 0 -168.5 58.5t-66.5 172.5q0 133 87.5 221t212.5 88q58 0 98 -30l20 129h-167l20 99h163l15 96h131l-16 -96h70zM363 114l41 264q-29 39 -88 39q-64 0 -108 -57t-44 -134q0 -63 31 -98.5t83 -35.5q50 0 85 22z" />
    <glyph glyph-name="Emacron" unicode="&#x112;" horiz-adv-x="584" 
d="M495 1h-462l120 755h434l-21 -128h-292l-26 -163h235l-20 -129h-235l-33 -206h320zM581 824h-397l18 109h397z" />
    <glyph glyph-name="emacron" unicode="&#x113;" horiz-adv-x="571" 
d="M531 588h-397l18 109h397zM456 139l23 -91q-28 -22 -87.5 -42t-128.5 -20q-114 0 -176 60.5t-62 167.5q0 132 87.5 222t216.5 90q118 0 168.5 -77.5t32.5 -192.5l-8 -50h-370q1 -63 43.5 -90t106.5 -27q54 0 95 16t59 34zM167 304h242q8 51 -16 85.5t-76 34.5
q-50 0 -89.5 -32.5t-60.5 -87.5z" />
    <glyph glyph-name="Edotaccent" unicode="&#x116;" horiz-adv-x="584" 
d="M495 1h-462l120 755h434l-21 -128h-292l-26 -163h235l-20 -129h-235l-33 -206h320zM482 908q0 -35 -27 -61.5t-64 -26.5q-28 0 -47 20t-19 48q0 35 28.5 62t62.5 27q30 0 48 -19.5t18 -49.5z" />
    <glyph glyph-name="edotaccent" unicode="&#x117;" horiz-adv-x="571" 
d="M423 671q0 -36 -27 -62.5t-65 -26.5q-27 0 -46 20t-19 48q0 36 28 62.5t62 26.5q30 0 48.5 -19.5t18.5 -48.5zM456 139l23 -91q-28 -22 -87.5 -42t-128.5 -20q-114 0 -176 60.5t-62 167.5q0 132 87.5 222t216.5 90q118 0 168.5 -77.5t32.5 -192.5l-8 -50h-370
q1 -63 43.5 -90t106.5 -27q54 0 95 16t59 34zM167 304h242q8 51 -16 85.5t-76 34.5q-50 0 -89.5 -32.5t-60.5 -87.5z" />
    <glyph glyph-name="Eogonek" unicode="&#x118;" horiz-adv-x="584" 
d="M454 -115l-15 -97q-58 -38 -121 -38q-58 0 -100 30t-42 74q0 80 144 147h-287l120 755h434l-21 -128h-292l-26 -163h235l-20 -129h-235l-33 -206h320l-20 -129h-83q-97 -71 -97 -123q0 -27 29 -27q44 0 110 34z" />
    <glyph glyph-name="eogonek" unicode="&#x119;" horiz-adv-x="572" 
d="M390 -127l-15 -97q-60 -38 -122 -38q-58 0 -100 30t-42 74q0 78 130 145q-104 6 -160 66t-56 161q0 132 87.5 222t216.5 90q118 0 168.5 -77.5t32.5 -192.5l-8 -50h-370q1 -63 43.5 -90t106.5 -27q54 0 95 16t59 34l23 -91q-43 -35 -124 -51q-47 -34 -76 -69.5t-29 -61.5
q0 -27 29 -27q41 0 111 34zM167 304h242q8 51 -16 85.5t-76 34.5q-50 0 -89.5 -32.5t-60.5 -87.5z" />
    <glyph glyph-name="Ecaron" unicode="&#x11a;" horiz-adv-x="584" 
d="M495 1h-462l120 755h434l-21 -128h-292l-26 -163h235l-20 -129h-235l-33 -206h320zM629 930l-247 -115l-202 113l89 62l134 -69l151 65z" />
    <glyph glyph-name="ecaron" unicode="&#x11b;" horiz-adv-x="571" 
d="M541 722l-207 -137l-167 137l84 79l102 -90l133 90zM456 139l23 -91q-28 -22 -87.5 -42t-128.5 -20q-114 0 -176 60.5t-62 167.5q0 132 87.5 222t216.5 90q118 0 168.5 -77.5t32.5 -192.5l-8 -50h-370q1 -63 43.5 -90t106.5 -27q54 0 95 16t59 34zM167 304h242
q8 51 -16 85.5t-76 34.5q-50 0 -89.5 -32.5t-60.5 -87.5z" />
    <glyph glyph-name="Gcircumflex" unicode="&#x11c;" horiz-adv-x="829" 
d="M717 895l-95 -73l-145 61l-172 -64l-59 79l252 113zM646 287h-180l20 124h329q-16 -116 -56 -201t-97 -133t-120.5 -70.5t-134.5 -22.5q-157 0 -256.5 97.5t-99.5 255.5q0 187 135 312t325 125q162 0 261 -99l-86 -107q-2 6 -22 23t-67.5 36t-102.5 19q-126 0 -208 -89
t-82 -212q0 -101 57.5 -167.5t155.5 -66.5q84 0 146 49.5t83 126.5z" />
    <glyph glyph-name="gcircumflex" unicode="&#x11d;" horiz-adv-x="579" 
d="M454 570l-105 89l-131 -89l-58 79l210 137l163 -137zM330 -42l13 82q-54 -54 -133 -54q-74 0 -129.5 61.5t-55.5 168.5q0 138 95 224t237 86q106 0 187 -48l-80 -501q-40 -249 -276 -249q-77 0 -133.5 20t-83.5 43l68 97q17 -18 62 -35.5t94 -17.5q116 0 135 123z
M361 148l40 254q-38 16 -70 16q-65 0 -114.5 -51.5t-49.5 -139.5q0 -55 22 -94.5t71 -39.5q64 0 101 55z" />
    <glyph glyph-name="Gbreve" unicode="&#x11e;" horiz-adv-x="829" 
d="M555 996h120q-16 -68 -70.5 -122t-136.5 -54q-68 0 -109 46t-35 130h122q0 -9 -1.5 -27t8 -36.5t29.5 -18.5t35 11.5t23 28t11 26.5t4 16zM646 287h-180l20 124h329q-16 -116 -56 -201t-97 -133t-120.5 -70.5t-134.5 -22.5q-157 0 -256.5 97.5t-99.5 255.5q0 187 135 312
t325 125q162 0 261 -99l-86 -107q-2 6 -22 23t-67.5 36t-102.5 19q-126 0 -208 -89t-82 -212q0 -101 57.5 -167.5t155.5 -66.5q84 0 146 49.5t83 126.5z" />
    <glyph glyph-name="gbreve" unicode="&#x11f;" horiz-adv-x="579" 
d="M416 739h120q-16 -68 -70.5 -122t-136.5 -54q-68 0 -109 46t-35 130h122q0 -9 -1.5 -27t8 -36.5t29.5 -18.5t35 11.5t23 28t11 26.5t4 16zM330 -42l13 82q-54 -54 -133 -54q-74 0 -129.5 61.5t-55.5 168.5q0 138 95 224t237 86q106 0 187 -48l-80 -501
q-40 -249 -276 -249q-77 0 -133.5 20t-83.5 43l68 97q17 -18 62 -35.5t94 -17.5q116 0 135 123zM361 148l40 254q-38 16 -70 16q-65 0 -114.5 -51.5t-49.5 -139.5q0 -55 22 -94.5t71 -39.5q64 0 101 55z" />
    <glyph glyph-name="Gdotaccent" unicode="&#x120;" horiz-adv-x="829" 
d="M555 909q0 -36 -27 -62.5t-65 -26.5q-27 0 -46 20t-19 48q0 36 28 62.5t62 26.5q30 0 48.5 -19.5t18.5 -48.5zM646 287h-180l20 124h329q-16 -116 -56 -201t-97 -133t-120.5 -70.5t-134.5 -22.5q-157 0 -256.5 97.5t-99.5 255.5q0 187 135 312t325 125q162 0 261 -99
l-86 -107q-2 6 -22 23t-67.5 36t-102.5 19q-126 0 -208 -89t-82 -212q0 -101 57.5 -167.5t155.5 -66.5q84 0 146 49.5t83 126.5z" />
    <glyph glyph-name="gdotaccent" unicode="&#x121;" horiz-adv-x="579" 
d="M425 650q0 -35 -27.5 -61.5t-64.5 -26.5q-27 0 -46 20t-19 48q0 35 28 62t62 27q30 0 48.5 -19.5t18.5 -49.5zM330 -42l13 82q-54 -54 -133 -54q-74 0 -129.5 61.5t-55.5 168.5q0 138 95 224t237 86q106 0 187 -48l-80 -501q-40 -249 -276 -249q-77 0 -133.5 20t-83.5 43
l68 97q17 -18 62 -35.5t94 -17.5q116 0 135 123zM361 148l40 254q-38 16 -70 16q-65 0 -114.5 -51.5t-49.5 -139.5q0 -55 22 -94.5t71 -39.5q64 0 101 55z" />
    <glyph glyph-name="Gcommaaccent" unicode="&#x122;" horiz-adv-x="829" 
d="M334 -264h-124l120 205h161zM646 287h-180l20 124h329q-16 -116 -56 -201t-97 -133t-120.5 -70.5t-134.5 -22.5q-157 0 -256.5 97.5t-99.5 255.5q0 187 135 312t325 125q162 0 261 -99l-86 -107q-2 6 -22 23t-67.5 36t-102.5 19q-126 0 -208 -89t-82 -212
q0 -101 57.5 -167.5t155.5 -66.5q84 0 146 49.5t83 126.5z" />
    <glyph glyph-name="gcommaaccent" unicode="&#x123;" horiz-adv-x="579" 
d="M422 620h-147l178 241h93zM330 -42l13 82q-54 -54 -133 -54q-74 0 -129.5 61.5t-55.5 168.5q0 138 95 224t237 86q106 0 187 -48l-80 -501q-40 -249 -276 -249q-77 0 -133.5 20t-83.5 43l68 97q17 -18 62 -35.5t94 -17.5q116 0 135 123zM361 148l40 254q-38 16 -70 16
q-65 0 -114.5 -51.5t-49.5 -139.5q0 -55 22 -94.5t71 -39.5q64 0 101 55z" />
    <glyph glyph-name="Hcircumflex" unicode="&#x124;" horiz-adv-x="766" 
d="M635 0h-142l51 322h-318l-51 -322h-142l120 757h142l-49 -306h318l49 306h142zM720 893l-94 -73l-145 61l-173 -64l-59 79l253 113z" />
    <glyph glyph-name="hcircumflex" unicode="&#x125;" horiz-adv-x="567" 
d="M408 943l-80 -79l-105 89l-130 -89l-58 79l209 137zM457 0h-131l43 273q5 37 7 67.5t-12.5 50.5t-47.5 20q-35 0 -67 -18.5t-48 -38.5l-56 -354h-131l130 820h131l-57 -361q75 67 170 67q152 0 123 -184z" />
    <glyph glyph-name="Hbar" unicode="&#x126;" horiz-adv-x="769" 
d="M637 0h-142l51 322h-318l-51 -322h-142l89 562h-54l17 109h54l14 86h142l-14 -86h318l14 86h142l-14 -86h55l-17 -109h-55zM566 451l18 111h-318l-18 -111h318z" />
    <glyph glyph-name="hbar" unicode="&#x127;" horiz-adv-x="567" 
d="M457 0h-131l43 273q5 37 7 67.5t-12.5 50.5t-47.5 20q-35 0 -67 -18.5t-48 -38.5l-56 -354h-131l99 625h-59l18 99h56l16 96h131l-16 -96h177l-19 -99h-173l-26 -166q75 67 170 67q152 0 123 -184z" />
    <glyph glyph-name="Itilde" unicode="&#x128;" horiz-adv-x="306" 
d="M175 0h-142l120 757h142zM417 987l40 -80q-10 -19 -65 -53.5t-101 -34.5q-23 0 -57.5 23.5t-55.5 23.5q-25 0 -62.5 -20t-48.5 -33l-42 77q122 84 173 84q26 0 57 -25t53 -25q19 0 54 22.5t55 40.5z" />
    <glyph glyph-name="itilde" unicode="&#x129;" horiz-adv-x="265" 
d="M149 0h-131l81 511h131zM349 727l27 -70q-13 -23 -53.5 -53t-86.5 -30q-23 0 -56 25.5t-54 25.5q-24 0 -49.5 -15t-38.5 -30l-39 77q105 74 160 74q26 0 57 -25t53 -25q28 0 80 46z" />
    <glyph glyph-name="Imacron" unicode="&#x12a;" horiz-adv-x="305" 
d="M174 0h-141l120 757h141zM435 834h-397l17 109h397z" />
    <glyph glyph-name="imacron" unicode="&#x12b;" horiz-adv-x="265" 
d="M149 0h-131l81 511h131zM373 578h-396l17 109h396z" />
    <glyph glyph-name="Ibreve" unicode="&#x12c;" horiz-adv-x="306" 
d="M175 0h-142l120 757h142zM317 991h120q-16 -68 -70.5 -122t-136.5 -54q-68 0 -109 46t-35 130h121q0 -9 -1 -27t8.5 -36.5t29.5 -18.5q19 0 34.5 11.5t23 28t11 26.5t4.5 16z" />
    <glyph glyph-name="ibreve" unicode="&#x12d;" horiz-adv-x="265" 
d="M149 0h-131l81 511h131zM254 739h120q-16 -68 -70.5 -122t-136.5 -54q-68 0 -109 46t-35 130h121q0 -9 -1 -27t8.5 -36.5t29.5 -18.5q19 0 34.5 11.5t23 28t11 26.5t4.5 16z" />
    <glyph glyph-name="Iogonek" unicode="&#x12e;" horiz-adv-x="306" 
d="M169 -115l-15 -97q-60 -38 -122 -38q-57 0 -99 30t-42 74q0 80 142 147l120 756h142l-121 -761q-77 -26 -111 -57.5t-34 -60.5q0 -27 29 -27q41 0 111 34z" />
    <glyph glyph-name="iogonek" unicode="&#x12f;" horiz-adv-x="266" 
d="M154 -115l-15 -97q-60 -38 -122 -38q-57 0 -99 30t-42 74q0 79 143 147l81 510h131l-82 -515q-69 -26 -102 -58t-33 -60q0 -27 29 -27q41 0 111 34zM177 596q-31 0 -50 19.5t-19 50.5q0 40 28 67t67 27q32 0 50.5 -19t18.5 -50q0 -41 -27 -68t-68 -27z" />
    <glyph glyph-name="Idotaccent" unicode="&#x130;" horiz-adv-x="306" 
d="M175 0h-142l120 757h142zM324 909q0 -36 -26.5 -62.5t-64.5 -26.5q-27 0 -46.5 20t-19.5 48q0 36 28.5 62.5t62.5 26.5q30 0 48 -19.5t18 -48.5z" />
    <glyph glyph-name="IJ" unicode="&#x132;" horiz-adv-x="613" 
d="M175 0h-142l120 757h142zM196 -256l-31 121q100 32 136 76t55 163l103 653h143l-104 -657q-25 -157 -86.5 -227.5t-215.5 -128.5z" />
    <glyph glyph-name="ij" unicode="&#x133;" horiz-adv-x="530" 
d="M149 0h-131l81 511h131zM272 691q0 -41 -27.5 -68t-68.5 -27q-31 0 -50 19.5t-19 50.5q0 40 28 67t67 27q33 0 51.5 -19t18.5 -50zM176 -267l-33 98q37 10 57.5 19.5t35.5 20t24 36.5t14.5 51t14.5 81l75 472h130l-75 -476q-22 -142 -68.5 -204.5t-174.5 -97.5zM536 691
q0 -41 -28 -68t-68 -27q-31 0 -50 19t-19 50q0 41 27.5 68t67.5 27q33 0 51.5 -19t18.5 -50z" />
    <glyph glyph-name="Jcircumflex" unicode="&#x134;" horiz-adv-x="308" 
d="M-109 -256l-30 121q100 32 135 76t54 163l103 653h144l-104 -657q-25 -157 -86.5 -227.5t-215.5 -128.5zM498 889l-93 -73l-164 61l-193 -64l-50 79l265 113z" />
    <glyph glyph-name="jcircumflex" unicode="&#x135;" horiz-adv-x="265" 
d="M-89 -267l-33 98q85 23 106 54t40 154l75 472h130l-75 -476q-22 -142 -68.5 -204.5t-174.5 -97.5zM374 649l-81 -79l-105 89l-130 -89l-57 79l208 137z" />
    <glyph glyph-name="Kcommaaccent" unicode="&#x136;" horiz-adv-x="707" 
d="M254 -256h-123l121 205h161zM683 0h-189l-271 306l-48 -306h-142l120 757h142l-44 -282l303 282h178l-406 -368z" />
    <glyph glyph-name="kcommaaccent" unicode="&#x137;" horiz-adv-x="529" 
d="M164 -256h-123l120 205h162zM483 0h-149l-152 237l-37 -237h-131l130 819h131l-81 -509l178 201h162l-230 -236z" />
    <glyph glyph-name="kgreenlandic" unicode="&#x138;" horiz-adv-x="529" 
d="M483 0h-149l-152 237l-37 -237h-131l81 511h131l-32 -201l178 201h162l-230 -236z" />
    <glyph glyph-name="Lacute" unicode="&#x139;" horiz-adv-x="537" 
d="M475 1h-441l120 756h142l-100 -627h299zM442 876l-332 -49l-10 94l317 70z" />
    <glyph glyph-name="lacute" unicode="&#x13a;" horiz-adv-x="257" 
d="M145 0h-131l130 820h131zM425 1044l-223 -167l-45 46l177 201z" />
    <glyph glyph-name="Lcommaaccent" unicode="&#x13b;" horiz-adv-x="537" 
d="M475 1h-442l120 756h142l-100 -627h300zM189 -256h-123l121 205h161z" />
    <glyph glyph-name="lcommaaccent" unicode="&#x13c;" horiz-adv-x="257" 
d="M145 0h-131l130 820h131zM38 -256h-123l119 205h161z" />
    <glyph glyph-name="Lcaron" unicode="&#x13d;" horiz-adv-x="545" 
d="M476 1h-442l120 756h142l-100 -627h300zM477 579h-103l120 241h153z" />
    <glyph glyph-name="lcaron" unicode="&#x13e;" horiz-adv-x="297" 
d="M145 0h-131l130 820h131zM404 562h-103l120 241h153z" />
    <glyph glyph-name="Ldot" unicode="&#x13f;" horiz-adv-x="566" 
d="M476 1h-442l120 756h142l-100 -627h300zM542 409q0 -33 -28 -58.5t-65 -25.5q-30 0 -50 19.5t-20 46.5q0 34 28.5 58.5t65.5 24.5q30 0 49.5 -18.5t19.5 -46.5z" />
    <glyph glyph-name="ldot" unicode="&#x140;" horiz-adv-x="455" 
d="M145 0h-131l130 820h131zM449 394q0 -33 -28 -58.5t-65 -25.5q-30 0 -50 19.5t-20 46.5q0 34 28 58.5t66 24.5q30 0 49.5 -18.5t19.5 -46.5z" />
    <glyph glyph-name="Lslash" unicode="&#x141;" horiz-adv-x="545" 
d="M483 1h-442l33 207l-77 -45l21 137l78 46l65 411h142l-52 -329l153 88l-22 -138l-153 -89l-25 -159h300z" />
    <glyph glyph-name="lslash" unicode="&#x142;" horiz-adv-x="332" 
d="M173 0h-131l28 176l-73 -43l20 132l74 44l81 511h131l-68 -427l83 51l-21 -135l-83 -50z" />
    <glyph glyph-name="Nacute" unicode="&#x143;" horiz-adv-x="831" 
d="M659 872l-332 -49l-10 94l316 70zM695 -27l-451 479l-70 -452h-142l125 778l448 -493l74 472h142z" />
    <glyph glyph-name="nacute" unicode="&#x144;" horiz-adv-x="567" 
d="M533 750l-224 -167l-44 46l176 201zM457 0h-131l43 273q5 37 7 67.5t-12.5 50.5t-47.5 20q-35 0 -67 -18.5t-48 -38.5l-56 -354h-131l81 511h131l-8 -52q75 67 169 67q153 0 124 -184z" />
    <glyph glyph-name="Ncommaaccent" unicode="&#x145;" horiz-adv-x="831" 
d="M325 -256h-124l121 205h161zM695 -27l-451 479l-70 -452h-142l125 778l448 -493l74 472h142z" />
    <glyph glyph-name="ncommaaccent" unicode="&#x146;" horiz-adv-x="567" 
d="M178 -256h-123l120 205h161zM457 0h-131l43 273q5 37 7 67.5t-12.5 50.5t-47.5 20q-35 0 -67 -18.5t-48 -38.5l-56 -354h-131l81 511h131l-8 -52q75 67 169 67q153 0 124 -184z" />
    <glyph glyph-name="Ncaron" unicode="&#x147;" horiz-adv-x="831" 
d="M742 917l-247 -115l-202 113l89 62l133 -69l152 65zM695 -27l-451 479l-70 -452h-142l125 778l448 -493l74 472h142z" />
    <glyph glyph-name="ncaron" unicode="&#x148;" horiz-adv-x="567" 
d="M534 722l-206 -137l-168 137l84 79l103 -90l133 90zM457 0h-131l43 273q5 37 7 67.5t-12.5 50.5t-47.5 20q-35 0 -67 -18.5t-48 -38.5l-56 -354h-131l81 511h131l-8 -52q75 67 169 67q153 0 124 -184z" />
    <glyph glyph-name="napostrophe" unicode="&#x149;" horiz-adv-x="635" 
d="M525 0h-131l43 273q13 58 3 98t-56 40q-35 0 -67 -18.5t-48 -38.5l-56 -354h-131l80 511h131l-8 -52q78 67 170 67q153 0 124 -184zM54 483h-123l119 205h161z" />
    <glyph glyph-name="Eng" unicode="&#x14a;" horiz-adv-x="832" 
d="M414 -256l-31 121q98 31 135 76.5t56 159.5l-330 351l-70 -452h-142l125 778l447 -491l74 470h143l-104 -657q-25 -157 -87 -227.5t-216 -128.5z" />
    <glyph glyph-name="eng" unicode="&#x14b;" horiz-adv-x="567" 
d="M220 -267l-34 98q85 23 106 54t40 154l37 234q5 37 7 67.5t-12.5 50.5t-47.5 20q-35 0 -67 -18.5t-48 -38.5l-56 -354h-131l81 511h131l-8 -52q75 67 169 67q153 0 124 -184l-48 -307q-22 -142 -68.5 -204.5t-174.5 -97.5z" />
    <glyph glyph-name="Omacron" unicode="&#x14c;" horiz-adv-x="877" 
d="M719 824h-397l17 109h397zM850 430q0 -119 -63 -222.5t-168 -163.5t-225 -60q-155 0 -250 99.5t-95 248.5q0 93 39.5 176.5t104 141t147.5 91t168 33.5q151 0 246.5 -97t95.5 -247zM406 110q113 0 201 91.5t88 218.5q0 98 -55 162t-148 64q-114 0 -202 -89.5t-88 -215.5
q0 -96 54.5 -163.5t149.5 -67.5z" />
    <glyph glyph-name="omacron" unicode="&#x14d;" horiz-adv-x="603" 
d="M545 598h-397l17 109h397zM562 290q0 -124 -90 -214t-216 -90q-106 0 -169 66t-63 169q0 129 94 217t216 88q104 0 166 -67.5t62 -168.5zM268 87q65 0 110.5 57t45.5 142q0 61 -26 97.5t-76 36.5q-65 0 -112.5 -57.5t-47.5 -140.5q0 -61 27.5 -98t78.5 -37z" />
    <glyph glyph-name="Obreve" unicode="&#x14e;" horiz-adv-x="877" 
d="M600 985h120q-16 -68 -70.5 -122t-136.5 -54q-68 0 -109 46t-35 130h121q0 -9 -1 -27t8.5 -36.5t29.5 -18.5q19 0 34.5 11.5t23 28t11 26.5t4.5 16zM850 430q0 -119 -63 -222.5t-168 -163.5t-225 -60q-155 0 -250 99.5t-95 248.5q0 93 39.5 176.5t104 141t147.5 91
t168 33.5q151 0 246.5 -97t95.5 -247zM406 110q113 0 201 91.5t88 218.5q0 98 -55 162t-148 64q-114 0 -202 -89.5t-88 -215.5q0 -96 54.5 -163.5t149.5 -67.5z" />
    <glyph glyph-name="obreve" unicode="&#x14f;" horiz-adv-x="603" 
d="M429 759h120q-17 -68 -71 -122t-136 -54q-68 0 -109 46t-35 130h122q-5 -21 1.5 -51.5t34.5 -30.5q20 0 35 11.5t23 28t11 26.5t4 16zM562 290q0 -124 -90 -214t-216 -90q-106 0 -169 66t-63 169q0 129 94 217t216 88q104 0 166 -67.5t62 -168.5zM268 87q65 0 110.5 57
t45.5 142q0 61 -26 97.5t-76 36.5q-65 0 -112.5 -57.5t-47.5 -140.5q0 -61 27.5 -98t78.5 -37z" />
    <glyph glyph-name="Ohungarumlaut" unicode="&#x150;" horiz-adv-x="877" 
d="M590 940l-207 -121l-28 56l173 161zM808 940l-207 -121l-29 56l173 161zM850 430q0 -119 -63 -222.5t-168 -163.5t-225 -60q-155 0 -250 99.5t-95 248.5q0 93 39.5 176.5t104 141t147.5 91t168 33.5q151 0 246.5 -97t95.5 -247zM406 110q113 0 201 91.5t88 218.5
q0 98 -55 162t-148 64q-114 0 -202 -89.5t-88 -215.5q0 -96 54.5 -163.5t149.5 -67.5z" />
    <glyph glyph-name="ohungarumlaut" unicode="&#x151;" horiz-adv-x="603" 
d="M401 694l-207 -121l-29 56l173 161zM619 694l-207 -121l-29 56l173 161zM562 290q0 -124 -90 -214t-216 -90q-106 0 -169 66t-63 169q0 129 94 217t216 88q104 0 166 -67.5t62 -168.5zM268 87q65 0 110.5 57t45.5 142q0 61 -26 97.5t-76 36.5q-65 0 -112.5 -57.5
t-47.5 -140.5q0 -61 27.5 -98t78.5 -37z" />
    <glyph glyph-name="OE" unicode="&#x152;" horiz-adv-x="1186" 
d="M1096 1h-463l13 77q-105 -94 -258 -94q-147 0 -243 99.5t-96 244.5q0 126 66 229.5t172.5 160t226.5 56.5q145 0 224 -113l15 95h434l-21 -128h-292l-25 -163h235l-21 -129h-235l-32 -206h321zM401 110q117 0 205.5 90.5t88.5 215.5q0 101 -54.5 165.5t-147.5 64.5
q-113 0 -202 -89.5t-89 -210.5q0 -99 54 -167.5t145 -68.5z" />
    <glyph glyph-name="oe" unicode="&#x153;" horiz-adv-x="970" 
d="M855 139l23 -91q-28 -22 -87.5 -42t-128.5 -20q-136 0 -196 83q-88 -83 -210 -83q-106 0 -169 66t-63 169q0 129 94 217t216 88q117 0 181 -87q87 87 213 87q118 0 168.5 -77.5t32.5 -192.5l-8 -50h-370q1 -63 43.5 -90t106.5 -27q54 0 95 16t59 34zM268 87
q65 0 110.5 57t45.5 142q0 61 -26 97.5t-76 36.5q-65 0 -112.5 -57.5t-47.5 -140.5q0 -61 27.5 -98t78.5 -37zM566 304h242q8 51 -16 85.5t-76 34.5q-50 0 -89.5 -32.5t-60.5 -87.5z" />
    <glyph glyph-name="Racute" unicode="&#x154;" horiz-adv-x="661" 
d="M581 875l-332 -49l-10 94l317 70zM666 0h-186l-248 282h-12l-45 -282h-142l120 757h146q62 0 109 -7.5t94 -28t72.5 -64.5t25.5 -109q0 -104 -60.5 -172.5t-144.5 -80.5zM240 411h45q163 0 163 126q0 46 -27.5 68.5t-100.5 22.5h-46z" />
    <glyph glyph-name="racute" unicode="&#x155;" horiz-adv-x="394" 
d="M144 0h-130l81 511h130l-13 -81q18 32 51 63.5t71 31.5q44 0 84 -25l-62 -123q-35 26 -64 26q-39 0 -67.5 -38.5t-35.5 -82.5zM460 750l-224 -167l-44 46l176 201z" />
    <glyph glyph-name="Rcommaaccent" unicode="&#x156;" horiz-adv-x="659" 
d="M235 -256h-124l121 205h161zM666 0h-186l-248 282h-12l-45 -282h-142l120 757h146q62 0 109 -7.5t94 -28t72.5 -64.5t25.5 -109q0 -104 -60.5 -172.5t-144.5 -80.5zM240 411h45q163 0 163 126q0 46 -27.5 68.5t-100.5 22.5h-46z" />
    <glyph glyph-name="rcommaaccent" unicode="&#x157;" horiz-adv-x="395" 
d="M142 0h-128l81 511h129l-13 -81q12 19 26.5 37t42.5 38t54 20q44 0 84 -25l-64 -123q-33 26 -63 26q-38 0 -67.5 -39t-36.5 -82zM96 -256h-123l119 205h161z" />
    <glyph glyph-name="Rcaron" unicode="&#x158;" horiz-adv-x="661" 
d="M632 930l-247 -115l-202 113l89 62l133 -69l152 65zM666 0h-186l-248 282h-12l-45 -282h-142l120 757h146q62 0 109 -7.5t94 -28t72.5 -64.5t25.5 -109q0 -104 -60.5 -172.5t-144.5 -80.5zM240 411h45q163 0 163 126q0 46 -27.5 68.5t-100.5 22.5h-46z" />
    <glyph glyph-name="rcaron" unicode="&#x159;" horiz-adv-x="395" 
d="M144 0h-130l81 511h130l-13 -81q12 19 26.5 37t42 38t53.5 20q45 0 85 -25l-63 -123q-33 26 -64 26q-39 0 -67.5 -38.5t-35.5 -82.5zM466 722l-206 -137l-168 137l84 79l103 -90l133 90z" />
    <glyph glyph-name="Sacute" unicode="&#x15a;" horiz-adv-x="590" 
d="M398 829l-68 46l110 201l117 -80zM-7 91l88 102q74 -82 174 -82q59 0 91 29t32 74q0 33 -19.5 60t-49 45t-63.5 41t-63.5 46.5t-49 63.5t-19.5 90q0 106 76 160.5t180 54.5q60 0 110 -20t70 -37t30 -31l-85 -106q-25 31 -60 49t-70 18q-39 0 -69.5 -21.5t-30.5 -58.5
q0 -27 20 -50.5t49.5 -40t64 -39.5t64 -48t49.5 -67.5t20 -95.5q0 -115 -82.5 -179t-204.5 -64q-90 0 -154.5 32.5t-97.5 74.5z" />
    <glyph glyph-name="sacute" unicode="&#x15b;" horiz-adv-x="440" 
d="M440 750l-223 -167l-45 46l177 201zM424 470l-62 -90q-10 14 -36 31.5t-55 17.5q-25 0 -45.5 -14.5t-20.5 -36.5q0 -19 17.5 -36.5t42.5 -34.5t49.5 -37t42 -52.5t17.5 -73.5q0 -73 -53.5 -116t-149.5 -43q-116 0 -189 64l62 94q20 -23 56 -42t66 -19q29 0 50.5 17
t21.5 40q0 19 -18 38t-43 37.5t-50.5 39.5t-43.5 52.5t-18 67.5q0 65 52 109.5t142 44.5q44 0 83 -13t55.5 -24t26.5 -21z" />
    <glyph glyph-name="Scedilla" unicode="&#x15e;" horiz-adv-x="590" 
d="M189 -266h-123l120 205h161zM-7 91l88 102q74 -82 174 -82q59 0 91 29t32 74q0 33 -19.5 60t-49 45t-63.5 41t-63.5 46.5t-49 63.5t-19.5 90q0 106 76 160.5t180 54.5q60 0 110 -20t70 -37t30 -31l-85 -106q-25 31 -60 49t-70 18q-39 0 -69.5 -21.5t-30.5 -58.5
q0 -27 20 -50.5t49.5 -40t64 -39.5t64 -48t49.5 -67.5t20 -95.5q0 -115 -82.5 -179t-204.5 -64q-90 0 -154.5 32.5t-97.5 74.5z" />
    <glyph glyph-name="scedilla" unicode="&#x15f;" horiz-adv-x="440" 
d="M125 -256h-123l119 205h161zM424 470l-62 -90q-10 14 -36 31.5t-55 17.5q-25 0 -45.5 -14.5t-20.5 -36.5q0 -19 17.5 -36.5t42.5 -34.5t49.5 -37t42 -52.5t17.5 -73.5q0 -73 -53.5 -116t-149.5 -43q-116 0 -189 64l62 94q20 -23 56 -42t66 -19q29 0 50.5 17t21.5 40
q0 19 -18 38t-43 37.5t-50.5 39.5t-43.5 52.5t-18 67.5q0 65 52 109.5t142 44.5q44 0 83 -13t55.5 -24t26.5 -21z" />
    <glyph glyph-name="Scaron" unicode="&#x160;" horiz-adv-x="590" 
d="M624 935l-248 -115l-201 113l89 62l133 -69l153 65zM-7 91l88 102q74 -82 174 -82q59 0 91 29t32 74q0 33 -19.5 60t-49 45t-63.5 41t-63.5 46.5t-49 63.5t-19.5 90q0 106 76 160.5t180 54.5q60 0 110 -20t70 -37t30 -31l-85 -106q-25 31 -60 49t-70 18
q-39 0 -69.5 -21.5t-30.5 -58.5q0 -27 20 -50.5t49.5 -40t64 -39.5t64 -48t49.5 -67.5t20 -95.5q0 -115 -82.5 -179t-204.5 -64q-90 0 -154.5 32.5t-97.5 74.5z" />
    <glyph glyph-name="scaron" unicode="&#x161;" horiz-adv-x="440" 
d="M475 722l-207 -137l-167 137l83 79l103 -90l132 90zM424 470l-62 -90q-10 14 -36 31.5t-55 17.5q-25 0 -45.5 -14.5t-20.5 -36.5q0 -19 17.5 -36.5t42.5 -34.5t49.5 -37t42 -52.5t17.5 -73.5q0 -73 -53.5 -116t-149.5 -43q-116 0 -189 64l62 94q20 -23 56 -42t66 -19
q29 0 50.5 17t21.5 40q0 19 -18 38t-43 37.5t-50.5 39.5t-43.5 52.5t-18 67.5q0 65 52 109.5t142 44.5q44 0 83 -13t55.5 -24t26.5 -21z" />
    <glyph glyph-name="Tcommaaccent" unicode="&#x162;" horiz-adv-x="600" 
d="M321 0h-142l99 628h-212l20 128h568l-20 -128h-214zM209 -256h-124l120 205h161z" />
    <glyph glyph-name="tcommaaccent" unicode="&#x163;" horiz-adv-x="376" 
d="M88 -256h-123l119 205h161zM195 0h-131l64 407h-93l16 103h93l28 173h131l-28 -173h121l-16 -103h-121z" />
    <glyph glyph-name="Tcaron" unicode="&#x164;" horiz-adv-x="598" 
d="M320 0h-142l99 628h-212l20 128h568l-20 -128h-214zM627 934l-247 -115l-201 113l89 62l133 -69l152 65z" />
    <glyph glyph-name="tcaron" unicode="&#x165;" horiz-adv-x="377" 
d="M469 575h-103l120 241h153zM195 0h-131l64 407h-93l16 103h93l28 173h131l-28 -173h121l-16 -103h-121z" />
    <glyph glyph-name="Tbar" unicode="&#x166;" horiz-adv-x="598" 
d="M320 0h-142l62 392h-127l17 109h127l20 127h-212l20 128h568l-20 -128h-214l-20 -127h128l-17 -109h-128z" />
    <glyph glyph-name="tbar" unicode="&#x167;" horiz-adv-x="379" 
d="M197 0h-131l37 237h-62l14 89h62l13 81h-93l16 103h93l28 173h131l-28 -173h121l-16 -103h-121l-13 -81h74l-14 -89h-74z" />
    <glyph glyph-name="Utilde" unicode="&#x168;" horiz-adv-x="757" 
d="M648 992l43 -80q-10 -19 -66.5 -53.5t-103.5 -34.5q-23 0 -57 23.5t-56 23.5q-24 0 -64.5 -20t-51.5 -33l-40 77q122 84 176 84q26 0 57 -25t53 -25q34 0 110 63zM511 149l96 608h142l-105 -664q-119 -110 -316 -110q-304 0 -256 296l76 478h142l-63 -396
q-24 -151 1 -201.5t129 -50.5q85 0 154 40z" />
    <glyph glyph-name="utilde" unicode="&#x169;" horiz-adv-x="565" 
d="M503 727l27 -70q-11 -21 -52.5 -52t-86.5 -31q-24 0 -57 25.5t-54 25.5q-24 0 -49.5 -15t-38.5 -30l-40 77q108 74 161 74q26 0 57 -25t53 -25q28 0 80 46zM341 114l63 397h131l-72 -455q-89 -70 -231 -70q-102 0 -154.5 50.5t-37.5 146.5l52 328h131l-47 -298
q-12 -72 8.5 -97.5t77.5 -25.5q50 0 79 24z" />
    <glyph glyph-name="Umacron" unicode="&#x16a;" horiz-adv-x="757" 
d="M660 834h-397l18 109h397zM511 149l96 608h142l-105 -664q-119 -110 -316 -110q-304 0 -256 296l76 478h142l-63 -396q-24 -151 1 -201.5t129 -50.5q85 0 154 40z" />
    <glyph glyph-name="umacron" unicode="&#x16b;" horiz-adv-x="565" 
d="M526 578h-397l18 109h397zM341 114l63 397h131l-72 -455q-89 -70 -231 -70q-102 0 -154.5 50.5t-37.5 146.5l52 328h131l-47 -298q-12 -72 8.5 -97.5t77.5 -25.5q50 0 79 24z" />
    <glyph glyph-name="Ubreve" unicode="&#x16c;" horiz-adv-x="757" 
d="M540 985h120q-17 -68 -71.5 -122t-136.5 -54q-67 0 -108 46t-35 130h121q0 -9 -1 -27t8.5 -36.5t29.5 -18.5q19 0 34.5 11.5t23 28t11 26.5t4.5 16zM511 149l96 608h142l-105 -664q-119 -110 -316 -110q-304 0 -256 296l76 478h142l-63 -396q-24 -151 1 -201.5t129 -50.5
q85 0 154 40z" />
    <glyph glyph-name="ubreve" unicode="&#x16d;" horiz-adv-x="565" 
d="M410 739h120q-16 -68 -70.5 -122t-136.5 -54q-68 0 -109 46t-35 130h121q0 -9 -1 -27t8.5 -36.5t29.5 -18.5q19 0 34.5 11.5t23 28t11 26.5t4.5 16zM341 114l63 397h131l-72 -455q-89 -70 -231 -70q-102 0 -154.5 50.5t-37.5 146.5l52 328h131l-47 -298
q-12 -72 8.5 -97.5t77.5 -25.5q50 0 79 24z" />
    <glyph glyph-name="Uring" unicode="&#x16e;" horiz-adv-x="757" 
d="M599 925q0 -57 -43 -98.5t-101 -41.5q-47 0 -76 30.5t-29 76.5q0 57 44 99t100 42q46 0 75.5 -31.5t29.5 -76.5zM468 860q20 0 36 17t16 39q0 17 -10.5 30t-26.5 13q-21 0 -36.5 -17.5t-15.5 -39.5q0 -18 10.5 -30t26.5 -12zM511 149l96 608h142l-105 -664
q-119 -110 -316 -110q-304 0 -256 296l76 478h142l-63 -396q-24 -151 1 -201.5t129 -50.5q85 0 154 40z" />
    <glyph glyph-name="uring" unicode="&#x16f;" horiz-adv-x="565" 
d="M468 714q0 -57 -43 -98.5t-101 -41.5q-47 0 -76 30.5t-29 76.5q0 57 44 99t100 42q46 0 75.5 -31.5t29.5 -76.5zM337 649q20 0 36 17t16 39q0 18 -10.5 30.5t-26.5 12.5q-20 0 -36 -17.5t-16 -39.5q0 -18 10 -30t27 -12zM341 114l63 397h131l-72 -455q-89 -70 -231 -70
q-102 0 -154.5 50.5t-37.5 146.5l52 328h131l-47 -298q-12 -72 8.5 -97.5t77.5 -25.5q50 0 79 24z" />
    <glyph glyph-name="Uhungarumlaut" unicode="&#x170;" horiz-adv-x="757" 
d="M525 940l-207 -121l-29 56l173 161zM743 940l-207 -121l-29 56l173 161zM511 149l96 608h142l-105 -664q-119 -110 -316 -110q-304 0 -256 296l76 478h142l-63 -396q-24 -151 1 -201.5t129 -50.5q85 0 154 40z" />
    <glyph glyph-name="uhungarumlaut" unicode="&#x171;" horiz-adv-x="565" 
d="M376 694l-207 -121l-29 56l173 161zM593 694l-206 -121l-29 56l173 161zM341 114l63 397h131l-72 -455q-89 -70 -231 -70q-102 0 -154.5 50.5t-37.5 146.5l52 328h131l-47 -298q-12 -72 8.5 -97.5t77.5 -25.5q50 0 79 24z" />
    <glyph glyph-name="Uogonek" unicode="&#x172;" horiz-adv-x="758" 
d="M490 -130l-15 -97q-60 -38 -122 -38q-58 0 -100 30t-42 74q0 77 129 144h-12q-304 0 -256 296l76 478h142l-63 -396q-24 -151 1 -201.5t129 -50.5q85 0 154 40l96 608h142l-105 -664q-73 -68 -180 -93q-51 -35 -82.5 -72t-31.5 -65q0 -27 29 -27q41 0 111 34z" />
    <glyph glyph-name="uogonek" unicode="&#x173;" horiz-adv-x="565" 
d="M422 -116l-15 -97q-60 -38 -122 -38q-58 0 -100 30t-42 74q0 72 109 134q-4 0 -10 -0.5t-10 -0.5q-102 0 -154.5 50.5t-37.5 146.5l52 328h131l-47 -298q-12 -72 8.5 -97.5t77.5 -25.5q50 0 79 24l63 397h131l-72 -455q-30 -24 -63 -39q-52 -34 -85 -72.5t-33 -67.5
q0 -27 29 -27q41 0 111 34z" />
    <glyph glyph-name="Wcircumflex" unicode="&#x174;" horiz-adv-x="1043" 
d="M849 891l-95 -73l-146 61l-172 -64l-58 79l252 113zM683 -37l-143 482l-289 -480l-191 792h158l89 -457l290 490l130 -486l236 453h156z" />
    <glyph glyph-name="wcircumflex" unicode="&#x175;" horiz-adv-x="746" 
d="M613 649l-80 -79l-104 89l-132 -89l-56 79l209 137zM489 -9h-68l-57 258l-141 -258h-67l-127 520h137l64 -281l163 278h24l66 -277l161 280h137z" />
    <glyph glyph-name="Ycircumflex" unicode="&#x176;" horiz-adv-x="658" 
d="M656 893l-95 -73l-145 61l-172 -64l-60 79l253 113zM347 0h-142l49 307l-202 450h160l132 -318l244 318h157l-349 -450z" />
    <glyph glyph-name="ycircumflex" unicode="&#x177;" horiz-adv-x="543" 
d="M514 649l-80 -79l-104 89l-131 -89l-58 79l209 137zM76 -255h-141l226 339l-135 427h145l77 -296l193 296h142z" />
    <glyph glyph-name="Ydieresis" unicode="&#x178;" horiz-adv-x="658" 
d="M720 881q0 -35 -25.5 -59.5t-61.5 -24.5q-27 0 -44 18t-17 45q0 34 25.5 59.5t59.5 25.5q28 0 45.5 -18.5t17.5 -45.5zM262 881q0 -34 -24.5 -59t-59.5 -25q-27 0 -45 18.5t-18 45.5q0 34 26.5 59t60.5 25q27 0 43.5 -18t16.5 -46zM347 0h-142l49 307l-202 450h160
l132 -318l244 318h157l-349 -450z" />
    <glyph glyph-name="Zacute" unicode="&#x179;" horiz-adv-x="685" 
d="M632 874l-331 -49l-11 94l316 70zM602 1h-648l489 627h-304l21 128h563l-485 -626h384z" />
    <glyph glyph-name="zacute" unicode="&#x17a;" horiz-adv-x="516" 
d="M486 750l-224 -167l-45 46l177 201zM434 1h-474l331 406h-216l17 103h427l-326 -406h257z" />
    <glyph glyph-name="Zdotaccent" unicode="&#x17b;" horiz-adv-x="685" 
d="M527 911q0 -36 -26.5 -62.5t-64.5 -26.5q-27 0 -46.5 20t-19.5 48q0 36 28.5 62.5t62.5 26.5q30 0 48 -19.5t18 -48.5zM602 1h-648l489 627h-304l21 128h563l-485 -626h384z" />
    <glyph glyph-name="zdotaccent" unicode="&#x17c;" horiz-adv-x="516" 
d="M398 664q0 -36 -26.5 -62.5t-64.5 -26.5q-27 0 -46.5 20t-19.5 48q0 36 28.5 62.5t62.5 26.5q30 0 48 -19.5t18 -48.5zM434 1h-474l331 406h-216l17 103h427l-326 -406h257z" />
    <glyph glyph-name="Zcaron" unicode="&#x17d;" horiz-adv-x="685" 
d="M682 930l-247 -115l-202 113l89 62l134 -69l151 65zM602 1h-648l489 627h-304l21 128h563l-485 -626h384z" />
    <glyph glyph-name="zcaron" unicode="&#x17e;" horiz-adv-x="516" 
d="M510 722l-207 -137l-167 137l84 79l102 -90l133 90zM434 1h-474l331 406h-216l17 103h427l-326 -406h257z" />
    <glyph glyph-name="longs" unicode="&#x17f;" horiz-adv-x="301" 
d="M189 0h-131l64 407h-81l16 103h82l14 92q15 98 76 157t161 59q41 0 68 -10.5t62 -33.5l-62 -95q-32 28 -77 28q-81 0 -97 -107z" />
    <glyph glyph-name="florin" unicode="&#x192;" horiz-adv-x="364" 
d="M-89 -239l16 103q2 0 23 -5.5t31 -5.5q25 0 39.5 31.5t27.5 99.5l79 420h-86l18 105h84l10 67q19 126 72.5 201.5t146.5 75.5q13 0 28 -3t32.5 -8t24.5 -6l-25 -103q-35 5 -52 5q-22 0 -38.5 -15.5t-29 -52t-19.5 -68t-18 -93.5h103l-18 -105h-104l-88 -475
q-16 -86 -68.5 -137.5t-113.5 -51.5q-24 0 -46 7.5t-29 13.5z" />
    <glyph glyph-name="uni01C0" unicode="&#x1c0;" horiz-adv-x="301" 
d="M172 0h-142l120 757h142z" />
    <glyph glyph-name="uni01C1" unicode="&#x1c1;" horiz-adv-x="553" 
d="M172 0h-142l120 757h142zM424 0h-142l120 757h142z" />
    <glyph glyph-name="uni01C2" unicode="&#x1c2;" horiz-adv-x="650" 
d="M582 201h-210l-32 -201h-142l32 201h-197l20 124h197l22 141h-197l20 125h197l26 166h142l-26 -166h210l-20 -125h-210l-22 -141h210z" />
    <glyph glyph-name="uni01C3" unicode="&#x1c3;" horiz-adv-x="266" 
d="M193 243h-142l81 514h142zM175 76q0 -33 -28.5 -61t-64.5 -28q-29 0 -48 21t-19 48q0 35 28 61.5t64 26.5q30 0 49 -19.5t19 -48.5z" />
    <glyph glyph-name="AEacute" unicode="&#x1fc;" horiz-adv-x="993" 
d="M964 875l-332 -49l-10 94l317 70zM912 1h-488l26 162h-222l-123 -163h-170l598 756h444l-21 -128h-291l-25 -163h234l-21 -129h-234l-32 -206h346zM469 282l40 255l-191 -255h151z" />
    <glyph glyph-name="aeacute" unicode="&#x1fd;" horiz-adv-x="873" 
d="M672 750l-223 -167l-45 46l177 201zM759 139l21 -91q-28 -22 -87 -42t-130 -20q-101 0 -159 47q-78 -47 -201 -47q-103 0 -151 43.5t-48 112.5q0 50 24 89t60.5 59.5t72.5 31t67 10.5q30 0 64 -9t50 -25l8 52q5 33 -16 52t-69 19q-37 0 -77 -10.5t-59 -19.5l-22 92
q94 43 191 43q112 0 157 -64q91 64 180 64q113 0 164 -78t33 -192l-8 -50h-370q1 -64 43.5 -90.5t105.5 -26.5q56 0 96.5 16t59.5 34zM342 116q-17 28 -17 65q0 10 2 26q-30 32 -84 32q-42 0 -73 -22.5t-31 -62.5q0 -33 23 -52.5t67 -19.5q51 0 113 34zM469 304h242
q7 52 -16 86t-75 34q-50 0 -90 -32.5t-61 -87.5z" />
    <glyph glyph-name="Oslashacute" unicode="&#x1fe;" horiz-adv-x="877" 
d="M569 862l-250 -38l-6 94l234 52zM232 -141l-118 36l81 145q-70 46 -108 122.5t-38 169.5t39.5 176.5t104 141t147.5 91t168 33.5q45 0 91 -11l67 121l116 -45l-71 -126q66 -45 102.5 -119t36.5 -164q0 -119 -63 -222.5t-168 -163.5t-225 -60q-42 0 -87 10zM266 167
l265 475q-16 4 -39 4q-114 0 -202 -89.5t-88 -215.5q0 -108 64 -174zM638 583l-264 -471q20 -2 32 -2q113 0 201 91.5t88 218.5q0 100 -57 163z" />
    <glyph glyph-name="oslashacute" unicode="&#x1ff;" horiz-adv-x="603" 
d="M506 750l-224 -167l-85 56l202 191zM98 -142l-92 37l91 147q-73 65 -73 179q0 129 94 217t216 88q26 0 57 -7l78 127l97 -41l-82 -131q78 -69 78 -184q0 -124 -90 -214t-216 -90q-35 0 -72 10zM411 358l-168 -269q16 -2 25 -2q65 0 110.5 57t45.5 142q0 43 -13 72z
M170 161l159 258q-1 0 -3.5 0.5t-3.5 0.5q-65 0 -112.5 -57.5t-47.5 -140.5q0 -32 8 -61z" />
    <glyph glyph-name="dotlessj" unicode="&#x237;" horiz-adv-x="265" 
d="M-88 -267l-33 98q31 8 49 14t34 18.5t23.5 22.5t15.5 35.5t12 48t11 69.5l75 472h130l-75 -476q-22 -142 -68 -204.5t-174 -97.5z" />
    <glyph glyph-name="schwa" unicode="&#x259;" horiz-adv-x="571" 
d="M25 255l8 50h372q-1 34 -16.5 58t-40.5 36t-49.5 17.5t-49.5 5.5q-51 0 -93 -16.5t-58 -33.5l-21 91q27 23 86.5 43t134.5 20q107 0 169 -61t62 -165q0 -132 -91.5 -223t-218.5 -91q-114 0 -163 77t-31 192zM389 207h-244q-8 -50 16 -85t71 -35q111 0 157 120z" />
    <glyph glyph-name="circumflex" unicode="&#x2c6;" horiz-adv-x="469" 
d="M524 649l-81 -79l-104 89l-131 -89l-57 79l209 137z" />
    <glyph glyph-name="caron" unicode="&#x2c7;" horiz-adv-x="470" 
d="M536 722l-207 -137l-167 137l84 79l102 -90l134 90z" />
    <glyph glyph-name="breve" unicode="&#x2d8;" horiz-adv-x="447" 
d="M396 739h120q-16 -68 -70.5 -122t-136.5 -54q-68 0 -109 46t-35 130h121q0 -9 -1 -27t8.5 -36.5t29.5 -18.5q19 0 34.5 11.5t23 28t11 26.5t4.5 16z" />
    <glyph glyph-name="dotaccent" unicode="&#x2d9;" horiz-adv-x="251" 
d="M305 651q0 -36 -27 -62.5t-64 -26.5q-28 0 -47 20t-19 48q0 36 28.5 62.5t62.5 26.5q30 0 48 -19.5t18 -48.5z" />
    <glyph glyph-name="ring" unicode="&#x2da;" horiz-adv-x="275" 
d="M435 739q0 -57 -43.5 -98.5t-101.5 -41.5q-46 0 -75.5 30.5t-29.5 76.5q0 57 44 99t100 42q46 0 76 -31.5t30 -76.5zM304 674q19 0 35 17.5t16 38.5q0 18 -10 30.5t-25 12.5q-21 0 -37.5 -17.5t-16.5 -39.5q0 -18 10.5 -30t27.5 -12z" />
    <glyph glyph-name="ogonek" unicode="&#x2db;" horiz-adv-x="451" 
d="M398 -115l-15 -97q-60 -38 -122 -38q-58 0 -100 30t-42 74q0 91 174 164h86q-54 -35 -87.5 -73.5t-33.5 -66.5q0 -27 29 -27q41 0 111 34z" />
    <glyph glyph-name="tilde" unicode="&#x2dc;" horiz-adv-x="278" 
d="M424 727l27 -70q-13 -23 -53.5 -53t-86.5 -30q-23 0 -56 25.5t-54 25.5q-24 0 -49.5 -15t-38.5 -30l-40 77q108 74 161 74q26 0 57 -25t53 -25q28 0 80 46z" />
    <glyph glyph-name="hungarumlaut" unicode="&#x2dd;" horiz-adv-x="413" 
d="M384 694l-207 -121l-29 56l173 161zM601 694l-207 -121l-29 56l174 161z" />
    <glyph glyph-name="pi" unicode="&#x3c0;" horiz-adv-x="583" 
d="M461 0h-132l64 405h-174l-64 -405h-132l81 510h438z" />
    <glyph glyph-name="uni1E02" unicode="&#x1e02;" horiz-adv-x="642" 
d="M446 897q0 -36 -26.5 -62.5t-64.5 -26.5q-28 0 -47 20t-19 48q0 35 28.5 62t62.5 27q30 0 48 -19.5t18 -48.5zM261 0h-228l120 757h180q122 0 186 -37t64 -130q0 -61 -41.5 -110t-87.5 -68q50 -13 92 -56.5t42 -106.5q0 -115 -80.5 -182t-246.5 -67zM246 451h57
q60 0 93 28.5t33 80.5q0 68 -88 68h-67zM195 129h101q71 0 105 30.5t34 82.5q0 34 -30 57t-85 23h-94z" />
    <glyph glyph-name="uni1E03" unicode="&#x1e03;" horiz-adv-x="588" 
d="M514 705q0 -35 -27.5 -61.5t-64.5 -26.5q-27 0 -46 20t-19 48q0 35 28 62t62 27q30 0 48.5 -19.5t18.5 -49.5zM20 47l122 773h132l-52 -334q64 40 134 40q95 0 142 -64t47 -164q0 -147 -94.5 -229.5t-228.5 -82.5q-125 0 -202 61zM204 376l-41 -262q29 -20 73 -20
q81 0 125.5 56t44.5 137q0 58 -24.5 94.5t-71.5 36.5q-59 0 -106 -42z" />
    <glyph glyph-name="uni1E0A" unicode="&#x1e0a;" horiz-adv-x="746" 
d="M480 909q0 -35 -27 -61.5t-64 -26.5q-28 0 -47 20t-19 48q0 35 28.5 62t62.5 27q30 0 48 -19.5t18 -49.5zM252 0h-219l120 757h224q157 0 247 -82.5t90 -245.5q0 -195 -125 -312t-337 -117zM195 129h83q119 0 201 73.5t82 209.5q0 104 -50 160t-135 56h-102z" />
    <glyph glyph-name="uni1E0B" unicode="&#x1e0b;" horiz-adv-x="586" 
d="M343 698q0 -36 -26.5 -62.5t-64.5 -26.5q-27 0 -46.5 20t-19.5 48q0 36 28.5 62.5t62.5 26.5q30 0 48 -19.5t18 -48.5zM363 114l41 264q-29 39 -88 39q-64 0 -108 -57t-44 -134q0 -63 31 -98.5t83 -35.5q50 0 85 22zM423 496l51 324h131l-122 -773q-107 -61 -223 -61
q-102 0 -168.5 58.5t-66.5 172.5q0 133 87.5 221t212.5 88q58 0 98 -30z" />
    <glyph glyph-name="uni1E1E" unicode="&#x1e1e;" horiz-adv-x="535" 
d="M175 0h-142l120 756h425l-21 -128h-283l-26 -168h230l-21 -129h-230zM478 909q0 -36 -26.5 -62.5t-64.5 -26.5q-27 0 -46.5 20t-19.5 48q0 36 28.5 62.5t62.5 26.5q30 0 48 -19.5t18 -48.5z" />
    <glyph glyph-name="uni1E1F" unicode="&#x1e1f;" horiz-adv-x="378" 
d="M452 961q0 -36 -26.5 -62.5t-64.5 -26.5q-27 0 -46.5 20t-19.5 48q0 36 28.5 62.5t62.5 26.5q30 0 48 -19.5t18 -48.5zM189 0h-131l64 407h-81l16 103h82l14 92q15 98 76 157t161 59q41 0 68 -10.5t62 -33.5l-62 -95q-32 28 -77 28q-81 0 -97 -107l-14 -90h121l-16 -103
h-122z" />
    <glyph glyph-name="uni1E40" unicode="&#x1e40;" horiz-adv-x="951" 
d="M619 768q0 -36 -27 -62.5t-64 -26.5q-28 0 -47 20t-19 48q0 36 28.5 62.5t61.5 26.5q30 0 48.5 -19.5t18.5 -48.5zM855 0h-152l26 382l-309 -411l-180 404l-90 -375h-152l222 777l244 -535l413 534z" />
    <glyph glyph-name="uni1E41" unicode="&#x1e41;" horiz-adv-x="851" 
d="M562 680q0 -35 -27 -61.5t-64 -26.5q-28 0 -47 20t-19 48q0 35 28.5 62t62.5 27q30 0 48 -19.5t18 -49.5zM742 0h-131l51 322q14 89 -50 89q-58 0 -112 -54l-57 -357h-131l52 327q7 42 -7.5 63t-45.5 21t-61 -17.5t-49 -37.5l-56 -356h-131l81 511h131l-8 -53
q74 68 162 68q84 0 104 -77q35 24 57 37.5t59.5 26.5t73.5 13q72 0 104.5 -45t17.5 -137z" />
    <glyph glyph-name="uni1E56" unicode="&#x1e56;" horiz-adv-x="597" 
d="M461 908q0 -35 -27 -61.5t-64 -26.5q-28 0 -47.5 20t-19.5 48q0 36 28.5 62.5t63.5 26.5q30 0 48 -19.5t18 -49.5zM175 0h-142l120 757h163q139 0 211 -47.5t72 -161.5q0 -126 -85.5 -206t-248.5 -80h-49zM237 391h46q80 0 121.5 38.5t41.5 103.5q0 46 -25 70.5t-87 24.5
h-60z" />
    <glyph glyph-name="uni1E57" unicode="&#x1e57;" horiz-adv-x="585" 
d="M422 671q0 -36 -27 -62.5t-64 -26.5q-28 0 -47 20t-19 48q0 36 28.5 62.5t61.5 26.5q30 0 48.5 -19.5t18.5 -48.5zM103 -254h-130l114 723q110 57 226 57q100 0 165 -58.5t65 -168.5q0 -123 -76 -217.5t-196 -94.5q-69 0 -123 43zM206 397l-39 -245q36 -58 91 -58
q63 0 104 56.5t41 132.5q0 62 -29.5 98t-84.5 36q-49 0 -83 -20z" />
    <glyph glyph-name="uni1E60" unicode="&#x1e60;" horiz-adv-x="590" 
d="M463 909q0 -36 -27 -62.5t-65 -26.5q-27 0 -46 20t-19 48q0 36 28 62.5t62 26.5q30 0 48.5 -19.5t18.5 -48.5zM-7 91l88 102q74 -82 174 -82q59 0 91 29t32 74q0 33 -19.5 60t-49 45t-63.5 41t-63.5 46.5t-49 63.5t-19.5 90q0 106 76 160.5t180 54.5q60 0 110 -20t70 -37
t30 -31l-85 -106q-25 31 -60 49t-70 18q-39 0 -69.5 -21.5t-30.5 -58.5q0 -27 20 -50.5t49.5 -40t64 -39.5t64 -48t49.5 -67.5t20 -95.5q0 -115 -82.5 -179t-204.5 -64q-90 0 -154.5 32.5t-97.5 74.5z" />
    <glyph glyph-name="uni1E61" unicode="&#x1e61;" horiz-adv-x="440" 
d="M345 661q0 -36 -27 -62.5t-64 -26.5q-28 0 -47 20t-19 48q0 36 28.5 62.5t62.5 26.5q30 0 48 -19.5t18 -48.5zM424 470l-62 -90q-10 14 -36 31.5t-55 17.5q-25 0 -45.5 -14.5t-20.5 -36.5q0 -19 17.5 -36.5t42.5 -34.5t49.5 -37t42 -52.5t17.5 -73.5q0 -73 -53.5 -116
t-149.5 -43q-116 0 -189 64l62 94q20 -23 56 -42t66 -19q29 0 50.5 17t21.5 40q0 19 -18 38t-43 37.5t-50.5 39.5t-43.5 52.5t-18 67.5q0 65 52 109.5t142 44.5q44 0 83 -13t55.5 -24t26.5 -21z" />
    <glyph glyph-name="uni1E6A" unicode="&#x1e6a;" horiz-adv-x="598" 
d="M320 0h-142l99 628h-212l20 128h568l-20 -128h-214zM468 897q0 -36 -26.5 -62.5t-64.5 -26.5q-27 0 -46.5 20t-19.5 48q0 36 28.5 62.5t61.5 26.5q30 0 48.5 -19.5t18.5 -48.5z" />
    <glyph glyph-name="uni1E6B" unicode="&#x1e6b;" horiz-adv-x="377" 
d="M335 809q-5 -32 -31 -54.5t-60 -22.5q-27 0 -46 20t-19 48q0 36 28 62.5t62 26.5t53 -23t13 -57zM195 0h-131l64 407h-93l16 103h93l28 173h131l-28 -173h121l-16 -103h-121z" />
    <glyph glyph-name="Wgrave" unicode="&#x1e80;" horiz-adv-x="1043" 
d="M753 835l-316 50l57 114l295 -70zM683 -37l-143 482l-289 -480l-191 792h158l89 -457l290 490l130 -486l236 453h156z" />
    <glyph glyph-name="wgrave" unicode="&#x1e81;" horiz-adv-x="746" 
d="M548 629l-59 -46l-170 167l116 80zM489 -9h-68l-57 258l-141 -258h-67l-127 520h137l64 -281l163 278h24l66 -277l161 280h137z" />
    <glyph glyph-name="Wacute" unicode="&#x1e82;" horiz-adv-x="1043" 
d="M782 885l-332 -50l-6 94l317 70zM683 -37l-143 482l-289 -480l-191 792h158l89 -457l290 490l130 -486l236 453h156z" />
    <glyph glyph-name="wacute" unicode="&#x1e83;" horiz-adv-x="746" 
d="M570 750l-223 -167l-45 46l177 201zM489 -9h-68l-57 258l-141 -258h-67l-127 520h137l64 -281l163 278h24l66 -277l161 280h137z" />
    <glyph glyph-name="Wdieresis" unicode="&#x1e84;" horiz-adv-x="1043" 
d="M872 764q0 -32 -25 -55t-61 -23q-27 0 -44.5 17.5t-17.5 42.5q0 32 25 55.5t59 23.5q29 0 46.5 -17t17.5 -44zM466 763q0 -32 -25.5 -54.5t-60.5 -22.5q-27 0 -45 17.5t-18 42.5q0 32 26 55.5t59 23.5q29 0 46.5 -17.5t17.5 -44.5zM683 -37l-143 482l-289 -480l-191 792
h158l89 -457l290 490l130 -486l236 453h156z" />
    <glyph glyph-name="wdieresis" unicode="&#x1e85;" horiz-adv-x="746" 
d="M384 657q0 -31 -26 -54t-61 -23q-27 0 -45.5 17.5t-18.5 42.5q0 32 26.5 55.5t59.5 23.5q28 0 46.5 -18t18.5 -44zM619 658q0 -32 -25.5 -55t-61.5 -23q-28 0 -45 17t-17 42q0 33 24.5 56.5t59.5 23.5q30 0 47.5 -17t17.5 -44zM489 -9h-68l-57 258l-141 -258h-67
l-127 520h137l64 -281l163 278h24l66 -277l161 280h137z" />
    <glyph glyph-name="Ygrave" unicode="&#x1ef2;" horiz-adv-x="658" 
d="M517 824l-98 -59l-173 168l131 80zM347 0h-142l49 307l-202 450h160l132 -318l244 318h157l-349 -450z" />
    <glyph glyph-name="ygrave" unicode="&#x1ef3;" horiz-adv-x="543" 
d="M392 629l-59 -46l-171 167l117 80zM76 -255h-141l226 339l-135 427h145l77 -296l193 296h142z" />
    <glyph glyph-name="emdash" unicode="&#x2014;" horiz-adv-x="917" 
d="M816 191h-770l35 108h769z" />
    <glyph glyph-name="quoteleft" unicode="&#x2018;" horiz-adv-x="302" 
d="M222 516h-153l170 241h102z" />
    <glyph glyph-name="quoteright" unicode="&#x2019;" horiz-adv-x="298" 
d="M177 516h-103l120 241h153z" />
    <glyph glyph-name="quotesinglbase" unicode="&#x201a;" horiz-adv-x="293" 
d="M42 -121h-102l119 240h153z" />
    <glyph glyph-name="quotedblleft" unicode="&#x201c;" horiz-adv-x="496" 
d="M205 516h-136l170 241h103zM421 516h-135l144 241h103z" />
    <glyph glyph-name="quotedblright" unicode="&#x201d;" horiz-adv-x="491" 
d="M370 516h-103l137 241h136zM179 516h-103l112 241h135z" />
    <glyph glyph-name="quotedblbase" unicode="&#x201e;" horiz-adv-x="494" 
d="M239 -120h-103l137 240h136zM48 -120h-102l111 240h135z" />
    <glyph glyph-name="dagger" unicode="&#x2020;" horiz-adv-x="506" 
d="M275 48h-131l76 479h-140l17 107h140l29 181h131l-29 -181h144l-17 -107h-144z" />
    <glyph glyph-name="daggerdbl" unicode="&#x2021;" horiz-adv-x="532" 
d="M288 49h-131l31 194h-140l17 108h140l31 198h-140l17 107h140l26 164h131l-26 -164h144l-17 -107h-144l-31 -198h144l-17 -108h-144z" />
    <glyph glyph-name="bullet" unicode="&#x2022;" horiz-adv-x="388" 
d="M406 328q0 -74 -57.5 -129.5t-131.5 -55.5q-59 0 -98 41.5t-39 101.5q0 74 58 129.5t131 55.5q59 0 98 -41.5t39 -101.5z" />
    <glyph glyph-name="onedotenleader" unicode="&#x2024;" horiz-adv-x="260" 
d="M172 76q0 -33 -28.5 -61t-64.5 -28q-28 0 -47 21t-19 48q0 35 27.5 61.5t63.5 26.5q30 0 49 -19.5t19 -48.5z" />
    <glyph glyph-name="twodotenleader" unicode="&#x2025;" horiz-adv-x="510" 
d="M172 76q0 -33 -28.5 -61t-64.5 -28q-28 0 -47 21t-19 48q0 35 27.5 61.5t63.5 26.5q30 0 49 -19.5t19 -48.5zM422 76q0 -33 -28.5 -61t-64.5 -28q-28 0 -47 21t-19 48q0 35 27.5 61.5t63.5 26.5q30 0 49 -19.5t19 -48.5z" />
    <glyph glyph-name="ellipsis" unicode="&#x2026;" horiz-adv-x="760" 
d="M172 76q0 -33 -28.5 -61t-64.5 -28q-28 0 -47 21t-19 48q0 35 27.5 61.5t63.5 26.5q30 0 49 -19.5t19 -48.5zM422 76q0 -33 -28.5 -61t-64.5 -28q-28 0 -47 21t-19 48q0 35 27.5 61.5t63.5 26.5q30 0 49 -19.5t19 -48.5zM672 76q0 -33 -28.5 -61t-64.5 -28q-28 0 -47 21
t-19 48q0 35 27.5 61.5t63.5 26.5q30 0 49 -19.5t19 -48.5z" />
    <glyph glyph-name="perthousand" unicode="&#x2030;" horiz-adv-x="1103" 
d="M859 -9q-58 0 -93.5 38.5t-35.5 96.5q0 73 54 127t123 54q57 0 93.5 -39.5t36.5 -97.5q0 -73 -54 -126t-124 -53zM874 83q26 0 46 22t20 52q0 24 -13.5 39t-34.5 15q-26 0 -46 -21.5t-20 -51.5q0 -24 13.5 -39.5t34.5 -15.5zM212 -27l-82 34l408 737l80 -36zM219 445
q-58 0 -94 39t-36 97q0 73 54.5 127t122.5 54q57 0 93.5 -39.5t36.5 -97.5q0 -73 -54 -126.5t-123 -53.5zM234 540q26 0 45.5 21.5t19.5 51.5q0 23 -12.5 38.5t-33.5 15.5q-26 0 -46 -22t-20 -52q0 -23 13 -38t34 -15zM500 -9q-58 0 -93.5 38t-35.5 96q0 74 53 128t123 54
q58 0 94.5 -39t36.5 -98q0 -73 -54 -126t-124 -53zM514 83q27 0 46.5 22.5t19.5 51.5q0 24 -13 39t-34 15q-26 0 -46 -22t-20 -52q0 -23 13 -38.5t34 -15.5z" />
    <glyph glyph-name="guilsinglleft" unicode="&#x2039;" horiz-adv-x="365" 
d="M281 26h-140l-113 212l177 213h140l-190 -214z" />
    <glyph glyph-name="guilsinglright" unicode="&#x203a;" horiz-adv-x="366" 
d="M135 25h-139l191 212l-121 214h140l110 -213z" />
    <glyph glyph-name="fraction" unicode="&#x2044;" horiz-adv-x="170" 
d="M-107 -39l-99 47l498 767l104 -49z" />
    <glyph glyph-name="zero.sinf" unicode="&#x2080;" horiz-adv-x="472" 
d="M163 -201q-51 0 -86 16.5t-52.5 45t-24.5 57.5t-7 64q0 30 4 62t19 74.5t39 75t68 55.5t102 23q49 0 84 -16t52.5 -43.5t25 -57t7.5 -64.5q0 -27 -3.5 -56.5t-17.5 -74.5t-37 -78.5t-68 -58t-105 -24.5zM175 -100q25 0 43.5 22t27.5 54t13 60t4 49q0 34 -11.5 60.5
t-39.5 26.5q-39 0 -63 -53t-24 -125q0 -94 50 -94z" />
    <glyph glyph-name="one.sinf" unicode="&#x2081;" horiz-adv-x="322" 
d="M181 -191h-132l50 316l-75 -27l-30 94l262 87z" />
    <glyph glyph-name="two.sinf" unicode="&#x2082;" horiz-adv-x="451" 
d="M339 -189h-403q8 7 50.5 39t80 63.5t80 71.5t68 79t25.5 69q0 39 -44 39q-47 0 -104 -49l-47 80q87 69 181 69q66 0 104.5 -34t38.5 -92q0 -68 -48.5 -130.5t-112.5 -103.5h147z" />
    <glyph glyph-name="three.sinf" unicode="&#x2083;" horiz-adv-x="392" 
d="M-55 -149l64 85q13 -14 42 -25.5t55 -11.5q33 0 52.5 19t19.5 44q0 27 -25.5 41.5t-65.5 14.5q-18 0 -30 -1l12 70q6 -1 19 -1q38 0 66 15.5t28 41.5q0 30 -36 30t-75 -23l-20 89q17 14 55 23.5t76 9.5q64 0 97 -28.5t33 -69.5q0 -64 -74 -113q28 -13 44 -41.5t16 -61.5
q0 -62 -51 -110.5t-152 -48.5q-104 0 -150 52z" />
    <glyph glyph-name="four.sinf" unicode="&#x2084;" horiz-adv-x="464" 
d="M368 -129h-72l-11 -72h-117l11 72h-226l12 75l312 317h81l-47 -296h72zM198 -40l21 131l-126 -131h105z" />
    <glyph glyph-name="five.sinf" unicode="&#x2085;" horiz-adv-x="405" 
d="M302 166h-124l-27 -59q11 1 32 1q56 0 95 -38.5t39 -96.5q0 -69 -54.5 -121.5t-156.5 -52.5q-84 0 -158 45l54 101q37 -41 95 -41q37 0 59 18.5t22 54.5q0 52 -70 52q-38 0 -102 -17l105 249h238z" />
    <glyph glyph-name="six.sinf" unicode="&#x2086;" horiz-adv-x="434" 
d="M242 289l73 -67q-35 -26 -84.5 -67.5t-59.5 -54.5q29 10 58 10q65 0 97 -35t32 -88q0 -73 -55 -130.5t-153 -57.5q-86 0 -129 44.5t-43 104.5q0 44 26.5 95t63 91.5t77 77t65.5 55t32 22.5zM158 -100q27 0 46 20.5t19 47.5q0 22 -12.5 35.5t-34.5 13.5q-27 0 -47 -20.5
t-20 -47.5q0 -22 13.5 -35.5t35.5 -13.5z" />
    <glyph glyph-name="seven.sinf" unicode="&#x2087;" horiz-adv-x="435" 
d="M89 -196h-143l274 350h-200l16 104h385z" />
    <glyph glyph-name="eight.sinf" unicode="&#x2088;" horiz-adv-x="449" 
d="M300 46q53 -27 53 -89q0 -64 -61.5 -110.5t-143.5 -46.5q-72 0 -119.5 37t-47.5 88q0 40 27.5 72t59.5 47q-24 9 -37.5 35t-13.5 55q0 65 65 108t142 43q66 0 111 -34.5t45 -87.5q0 -40 -25.5 -74t-54.5 -43zM224 -44q0 18 -13.5 31t-35.5 13q-25 0 -45 -16.5t-20 -37.5
q0 -18 15 -32t36 -14q24 0 43.5 17.5t19.5 38.5zM253 142q0 17 -13 29.5t-35 12.5q-26 0 -45 -16t-19 -36q0 -18 13.5 -31.5t35.5 -13.5q25 0 44 17t19 38z" />
    <glyph glyph-name="nine.sinf" unicode="&#x2089;" horiz-adv-x="435" 
d="M106 -218l-75 67q35 25 85 67t61 55q-30 -10 -58 -10q-65 0 -96.5 35t-31.5 88q0 73 54 130.5t152 57.5q84 0 130 -42t46 -98q0 -49 -39.5 -112.5t-90.5 -114.5t-90.5 -85.5t-46.5 -37.5zM171 53q27 0 47 20.5t20 48.5q0 22 -13.5 35.5t-35.5 13.5q-27 0 -46 -20.5
t-19 -47.5q0 -22 13 -36t34 -14z" />
    <glyph glyph-name="parenleft.sinf" unicode="&#x208d;" horiz-adv-x="231" 
d="M105 -303l-98 -36q-28 98 -28 228q0 211 131 431l89 -38q-41 -71 -76.5 -174.5t-35.5 -207.5q0 -91 18 -203z" />
    <glyph glyph-name="parenright.sinf" unicode="&#x208e;" horiz-adv-x="232" 
d="M19 -339l-86 36q39 81 57 124.5t35.5 114t17.5 139.5q0 120 -20 207l102 38q27 -95 27 -230q0 -211 -133 -429z" />
    <glyph glyph-name="Euro" unicode="&#x20ac;" horiz-adv-x="704" 
d="M577 140l30 -106q-11 -6 -32 -15.5t-69 -21t-94 -11.5q-117 0 -189 69t-84 184h-101l38 102h453l-37 -102h-219q31 -140 156 -140q74 0 148 41zM532 408h-456l37 102h68q48 115 138.5 182.5t204.5 67.5q107 0 190 -59l-72 -95q-59 40 -133 40q-67 0 -112 -32t-83 -104
h254z" />
    <glyph glyph-name="uni2117" unicode="&#x2117;" horiz-adv-x="878" 
d="M403 62q87 0 167 47.5t129 129.5t49 175q0 114 -70.5 190t-182.5 76q-135 0 -239.5 -105t-104.5 -247q0 -114 70 -190t182 -76zM390 -26q-144 0 -236.5 98.5t-92.5 244.5q0 90 38 174t100 145t144 97.5t166 36.5q144 0 236.5 -99t92.5 -245q0 -120 -64 -225t-167.5 -166
t-216.5 -61zM405 144h-115l72 451h112q107 0 153.5 -27.5t46.5 -99.5q0 -80 -54 -126t-162 -46h-29zM443 381h25q43 0 63.5 23t20.5 53q0 45 -60 45h-30z" />
    <glyph glyph-name="trademark" unicode="&#x2122;" horiz-adv-x="998" 
d="M326 366h-122l44 280l-126 -1l18 113h375l-18 -113l-127 1zM951 366h-123l7 179l-141 -194l-78 192l-48 -177h-124l165 403l111 -223l192 222z" />
    <glyph glyph-name="estimated" unicode="&#x212e;" horiz-adv-x="861" 
d="M816 329h-599q-3 -95 51 -156.5t152 -61.5q37 0 72.5 7.5t60 18t45.5 22.5t30.5 19.5t12.5 10.5l52 -107q-6 -5 -16.5 -13t-39.5 -24t-61 -28.5t-80.5 -22.5t-97.5 -10q-148 0 -240 95t-92 245q0 122 63.5 226.5t169 164t227.5 59.5q52 0 99 -15t90 -48t69.5 -85
t37.5 -126t-6 -171zM243 450h443q8 86 -46 141t-134 55q-87 0 -157 -55t-106 -141z" />
    <glyph glyph-name="arrowleft" unicode="&#x2190;" horiz-adv-x="819" 
d="M821 311h-574l58 -88l-97 -46l-100 199l164 199l81 -47l-86 -86h574z" />
    <glyph glyph-name="arrowup" unicode="&#x2191;" horiz-adv-x="478" 
d="M304 -3h-131l97 607l-95 -73l-28 95l212 131l170 -131l-58 -95l-70 73z" />
    <glyph glyph-name="arrowright" unicode="&#x2192;" horiz-adv-x="819" 
d="M667 177l-82 46l86 88h-574l21 131h574l-59 86l97 47l100 -199z" />
    <glyph glyph-name="arrowdown" unicode="&#x2193;" horiz-adv-x="478" 
d="M450 127l-212 -130l-170 130l58 95l71 -73l97 608h131l-97 -608l94 73z" />
    <glyph glyph-name="arrowboth" unicode="&#x2194;" horiz-adv-x="826" 
d="M674 180l-81 47l86 86h-432l58 -86l-97 -47l-100 199l164 199l81 -46l-86 -88h432l-58 88l97 46l100 -199z" />
    <glyph glyph-name="arrowupdn" unicode="&#x2195;" horiz-adv-x="478" 
d="M450 127l-212 -130l-170 130l58 95l71 -73l73 460l-94 -73l-28 95l212 131l170 -131l-58 -95l-71 73l-73 -460l94 73z" />
    <glyph glyph-name="uni2196" unicode="&#x2196;" horiz-adv-x="709" 
d="M691 153l-107 -92l-337 430l-27 -114l-88 34l79 234l237 48l17 -101l-112 -9z" />
    <glyph glyph-name="uni2197" unicode="&#x2197;" horiz-adv-x="709" 
d="M732 411l-99 -34l10 114l-474 -430l-78 92l474 430l-107 9l48 101l222 -48z" />
    <glyph glyph-name="uni2198" unicode="&#x2198;" horiz-adv-x="709" 
d="M643 109l-238 -48l-16 101l111 9l-338 430l108 92l336 -430l28 114l87 -34z" />
    <glyph glyph-name="uni2199" unicode="&#x2199;" horiz-adv-x="709" 
d="M347 61l-221 48l-5 234l98 34l-9 -114l473 430l79 -92l-474 -430l108 -9z" />
    <glyph glyph-name="partialdiff" unicode="&#x2202;" horiz-adv-x="633" 
d="M251 760l118 64q7 -11 34.5 -53t45.5 -71t44.5 -80.5t43 -95.5t28.5 -101.5t12 -111.5q0 -136 -95.5 -230.5t-221.5 -94.5q-102 0 -163 66t-61 158q0 111 87 200.5t196 89.5q45 0 89 -28q-75 191 -157 288zM276 87q62 0 110 52t48 127q0 54 -30 93.5t-78 39.5
q-70 0 -110.5 -56.5t-40.5 -122.5q0 -51 28.5 -92t72.5 -41z" />
    <glyph glyph-name="Delta" unicode="&#x2206;" horiz-adv-x="830" 
d="M747 0h-760l504 790zM544 129l-93 344q-4 10 -2 39l-4 -8q-4 -9 -8 -18.5t-6 -12.5l-202 -344h315z" />
    <glyph glyph-name="product" unicode="&#x220f;" horiz-adv-x="741" 
d="M601 0h-142l99 628h-275l-99 -628h-142l120 757h559z" />
    <glyph glyph-name="summation" unicode="&#x2211;" horiz-adv-x="664" 
d="M558 1h-562l339 375l-220 380h532l-21 -128h-289l180 -252l-251 -246h312z" />
    <glyph glyph-name="minus" unicode="&#x2212;" horiz-adv-x="709" 
d="M634 309h-561l17 109h561z" />
    <glyph glyph-name="radical" unicode="&#x221a;" horiz-adv-x="718" 
d="M171 -273l-166 596h138l74 -305l448 790h142z" />
    <glyph glyph-name="infinity" unicode="&#x221e;" horiz-adv-x="882" 
d="M396 151q-92 -114 -184 -114q-72 0 -117.5 50.5t-45.5 132.5q0 123 71.5 195t161.5 72q70 0 105 -38.5t57 -106.5q54 68 108 106.5t126 38.5q60 0 100.5 -43.5t40.5 -129.5q0 -70 -23.5 -126t-60 -87.5t-75 -47.5t-73.5 -16q-136 0 -191 114zM473 255q17 -46 41 -70.5
t66 -24.5q37 0 77.5 34.5t40.5 82.5q0 37 -22 63t-62 26q-63 0 -141 -111zM364 236q-7 32 -12.5 50.5t-15 39.5t-23 30.5t-31.5 9.5q-57 0 -84 -33.5t-27 -77.5t26 -69.5t45 -25.5q58 0 122 76z" />
    <glyph glyph-name="integral" unicode="&#x222b;" horiz-adv-x="547" 
d="M155 -26l99 627q15 93 78 155t170 62q27 0 43 -5q23 -7 76 -39l-62 -95q-32 28 -77 28q-81 0 -97 -107l-100 -627q-15 -93 -78.5 -155t-170.5 -62q-26 0 -41 5q-20 6 -76 39l62 95q32 -28 77 -28q81 0 97 107z" />
    <glyph glyph-name="approxequal" unicode="&#x2248;" horiz-adv-x="708" 
d="M528 234l95 -10q-42 -170 -170 -170q-50 0 -91 14t-62.5 30.5t-45.5 30.5t-43 14q-14 0 -22.5 -16t-17.5 -58l-133 10q12 77 59.5 124.5t110.5 47.5q41 0 78 -14t59 -31t51.5 -31t57.5 -14q20 0 41.5 16t32.5 57zM573 523l96 -10q-42 -170 -170 -170q-50 0 -91 14
t-62.5 30.5t-45.5 30.5t-43 14q-14 0 -22.5 -16t-17.5 -59l-133 11q12 77 59.5 124.5t110.5 47.5q41 0 78 -14t59 -31t51.5 -31t57.5 -14q20 0 41 16t32 57z" />
    <glyph glyph-name="notequal" unicode="&#x2260;" horiz-adv-x="685" 
d="M605 185h-272l-127 -236l-89 30l110 206h-191l18 112h235l44 91h-265l18 112h309l133 244l87 -37l-111 -207h151l-18 -112h-197l-44 -91h227z" />
    <glyph glyph-name="lessequal" unicode="&#x2264;" horiz-adv-x="683" 
d="M525 137l-437 266l10 65l519 249l48 -98l-387 -186l326 -201zM576 1h-569l17 109h569z" />
    <glyph glyph-name="greaterequal" unicode="&#x2265;" horiz-adv-x="682" 
d="M629 403l-521 -266l-51 95l389 201l-327 186l79 98l441 -249zM581 1h-569l17 109h569z" />
    <glyph glyph-name="triagup" unicode="&#x25b2;" horiz-adv-x="635" 
d="M645 0h-654l411 578z" />
    <glyph glyph-name="triagrt" unicode="&#x25ba;" horiz-adv-x="600" 
d="M657 360l-564 -364l115 723z" />
    <glyph glyph-name="triagdn" unicode="&#x25bc;" horiz-adv-x="635" 
d="M311 10l-228 579h655z" />
    <glyph glyph-name="triaglf" unicode="&#x25c4;" horiz-adv-x="600" 
d="M505 -4l-448 364l563 359z" />
    <glyph glyph-name="lozenge" unicode="&#x25ca;" horiz-adv-x="624" 
d="M256 -56l-198 446l341 447l192 -448zM294 175l154 215l-86 214l-156 -214z" />
    <glyph glyph-name="ff" unicode="&#xfb00;" horiz-adv-x="725" 
d="M189 0h-131l64 407h-81l16 103h81l11 67q16 98 77 157.5t157 59.5q38 0 64 -9.5t69 -34.5l-62 -95q-32 28 -77 28q-81 0 -97 -107l-10 -66h121l-16 -103h-122zM567 0h-132l64 407h-80l16 103h80l18 113q15 97 68 157t145 60q79 0 155 -44l-61 -95q-32 28 -78 28
q-79 0 -97 -107l-18 -112h122l-16 -103h-122z" />
    <glyph glyph-name="fi" unicode="&#xfb01;" horiz-adv-x="642" 
d="M527 0h-131l80 511h131zM645 658q0 -37 -30 -64.5t-65 -27.5q-28 0 -49 20.5t-21 51.5q0 36 29 64t65 28q30 0 50.5 -21t20.5 -51zM189 0h-131l64 407h-81l16 103h81l18 111q17 101 70 159t144 58q82 0 141 -33l-69 -94q-32 16 -57 16q-81 0 -98 -107l-17 -110h121
l-16 -103h-122z" />
    <glyph glyph-name="fl" unicode="&#xfb02;" horiz-adv-x="615" 
d="M524 0h-131l129 820h131zM189 0h-131l64 407h-81l16 103h82l14 91q15 99 68 158t146 59q68 0 123 -23l-51 -104q-21 16 -56 16q-82 0 -99 -107l-14 -90h121l-16 -103h-122z" />
    <glyph glyph-name="ffi" unicode="&#xfb03;" horiz-adv-x="1021" 
d="M189 0h-131l64 407h-81l16 103h81l11 67q16 98 77 157.5t157 59.5q38 0 64 -9.5t69 -34.5l-62 -95q-32 28 -77 28q-81 0 -97 -107l-10 -66h121l-16 -103h-122zM906 0h-131l80 511h131zM1024 658q0 -37 -30 -64.5t-65 -27.5q-28 0 -49 20.5t-21 51.5q0 36 29 64t65 28
q30 0 50.5 -21t20.5 -51zM567 0h-131l64 407h-81l16 103h81l18 111q17 101 70 159t144 58q82 0 141 -33l-69 -94q-32 16 -57 16q-81 0 -98 -107l-17 -110h121l-16 -103h-122z" />
    <glyph glyph-name="ffl" unicode="&#xfb04;" horiz-adv-x="992" 
d="M189 0h-131l64 407h-81l16 103h81l11 67q16 98 77 157.5t157 59.5q38 0 64 -9.5t69 -34.5l-62 -95q-32 28 -77 28q-81 0 -97 -107l-10 -66h121l-16 -103h-122zM901 0h-131l129 820h131zM567 0h-131l64 407h-81l16 103h82l14 91q15 99 68 158t146 59q68 0 123 -23
l-51 -104q-21 16 -56 16q-82 0 -99 -107l-14 -90h121l-16 -103h-122z" />
    <glyph glyph-name="uring.sc" horiz-adv-x="617" 
d="M499 739q0 -57 -43.5 -98.5t-101.5 -41.5q-46 0 -75.5 30.5t-29.5 76.5q0 57 44 99t100 42q46 0 76 -31.5t30 -76.5zM368 674q19 0 35 17.5t16 38.5q0 18 -10.5 30.5t-25.5 12.5q-21 0 -37 -17.5t-16 -39.5q0 -18 10.5 -30t27.5 -12zM384 131l65 410h134l-76 -475
q-91 -79 -252 -79q-237 0 -203 215l54 339h137l-42 -265q-19 -95 -7 -133t79 -38q62 0 111 26z" />
    <glyph glyph-name="ubreve.sc" horiz-adv-x="617" 
d="M422 753h99q-14 -59 -58.5 -106t-110.5 -47q-54 0 -86.5 40t-27.5 113h98q-3 -19 1.5 -45t26.5 -26q44 0 58 71zM384 131l65 410h134l-76 -475q-91 -79 -252 -79q-237 0 -203 215l54 339h137l-42 -265q-19 -95 -7 -133t79 -38q62 0 111 26z" />
    <glyph glyph-name="umacron.sc" horiz-adv-x="617" 
d="M566 611h-417l17 109h417zM384 131l65 410h134l-76 -475q-91 -79 -252 -79q-237 0 -203 215l54 339h137l-42 -265q-19 -95 -7 -133t79 -38q62 0 111 26z" />
    <glyph glyph-name="utilde.sc" horiz-adv-x="617" 
d="M529 771l29 -68q-7 -23 -50.5 -59.5t-91.5 -36.5q-19 0 -49.5 20t-48.5 20q-26 0 -50.5 -17.5t-39.5 -35.5l-50 71q106 90 162 90q22 0 51.5 -20.5t47.5 -20.5q37 0 90 57zM384 131l65 410h134l-76 -475q-91 -79 -252 -79q-237 0 -203 215l54 339h137l-42 -265
q-19 -95 -7 -133t79 -38q62 0 111 26z" />
    <glyph glyph-name="multiply.sup" horiz-adv-x="436" 
d="M411 381l-79 -56l-94 103l-126 -102l-66 54l135 108l-98 107l80 57l95 -104l126 103l60 -56l-130 -107z" />
    <glyph glyph-name="multiply.dnom" horiz-adv-x="436" 
d="M364 85l-79 -56l-94 103l-126 -102l-65 54l134 108l-98 107l80 57l95 -104l126 103l60 -56l-130 -107z" />
    <glyph glyph-name="Amacron.semp" horiz-adv-x="733" 
d="M649 824h-397l17 109h397zM700 0h-160l-31 111h-343l-67 -111h-159l504 790zM471 240l-75 256l-152 -256h227z" />
    <glyph glyph-name="Abreve.semp" horiz-adv-x="733" 
d="M531 985h120q-16 -68 -70.5 -122t-136.5 -54q-68 0 -109 46t-35 130h122q0 -9 -1.5 -27t8 -36.5t29.5 -18.5t35 11.5t23 28t11 26.5t4 16zM700 0h-160l-31 111h-343l-67 -111h-159l504 790zM471 240l-75 256l-152 -256h227z" />
    <glyph glyph-name="Aogonek.semp" horiz-adv-x="735" 
d="M679 -115l-16 -97q-60 -38 -122 -38q-57 0 -99.5 30t-42.5 74q0 79 141 146l-31 111h-343l-67 -111h-159l504 790l260 -796q-166 -40 -166 -116q0 -27 29 -27q42 0 112 34zM471 240l-75 256l-152 -256h227z" />
    <glyph glyph-name="Atilde.semp" horiz-adv-x="733" 
d="M597 1001l55 -90q-101 -86 -176 -86q-19 0 -54 21t-56 21q-35 0 -96 -58l-58 83q36 29 88.5 57.5t88.5 28.5q24 0 57.5 -21.5t52.5 -21.5q39 0 98 66zM700 0h-160l-31 111h-343l-67 -111h-159l504 790zM471 240l-75 256l-152 -256h227z" />
    <glyph glyph-name="Aring.semp" horiz-adv-x="733" 
d="M593 951q0 -57 -43.5 -98.5t-102.5 -41.5q-46 0 -75.5 30.5t-29.5 76.5q0 57 44.5 99t100.5 42q46 0 76 -31.5t30 -76.5zM461 886q20 0 36 17t16 39q0 18 -10.5 30.5t-25.5 12.5q-20 0 -37 -17.5t-17 -39.5q0 -17 11 -29.5t27 -12.5zM700 0h-160l-31 111h-343l-67 -111
h-159l504 790zM471 240l-75 256l-152 -256h227z" />
    <glyph glyph-name="Agrave.semp" horiz-adv-x="733" 
d="M583 827l-315 50l70 114l295 -70zM700 0h-160l-31 111h-343l-67 -111h-159l504 790zM471 240l-75 256l-152 -256h227z" />
    <glyph glyph-name="Adieresis.semp" horiz-adv-x="733" 
d="M418 908q0 -33 -29 -58t-67 -25q-31 0 -51.5 19.5t-20.5 46.5q0 33 29 58t66 25q32 0 52.5 -19t20.5 -47zM669 909q0 -35 -27.5 -59.5t-69.5 -24.5q-32 0 -51 18.5t-19 46.5q0 35 27 59.5t66 24.5q35 0 54.5 -18t19.5 -47zM700 0h-160l-31 111h-343l-67 -111h-159
l504 790zM471 240l-75 256l-152 -256h227z" />
    <glyph glyph-name="Acircumflex.semp" horiz-adv-x="733" 
d="M698 875l-94 -73l-146 63l-173 -67l-59 79l253 113zM700 0h-160l-31 111h-343l-67 -111h-159l504 790zM471 240l-75 256l-152 -256h227z" />
    <glyph glyph-name="Aacute.semp" horiz-adv-x="733" 
d="M617 877l-330 -49l-7 94l316 70zM700 0h-160l-31 111h-343l-67 -111h-159l504 790zM471 240l-75 256l-152 -256h227z" />
    <glyph glyph-name="J.semp2" horiz-adv-x="486" 
d="M252 231l83 526h144l-86 -543q-11 -67 -38 -114.5t-65.5 -71t-76 -33t-80.5 -9.5q-83 0 -160 48l71 110q57 -36 97 -36q41 0 71 29.5t40 93.5z" />
    <glyph glyph-name="J.semp" horiz-adv-x="513" 
d="M280 231l63 398h-168l20 127h311l-86 -542q-10 -66 -36.5 -112.5t-64 -70.5t-76.5 -34.5t-84 -10.5q-87 0 -176 55l72 114q72 -47 118 -47q41 0 69.5 32.5t37.5 90.5z" />
    <glyph glyph-name="J.alt" horiz-adv-x="308" 
d="M-126 -267l-8 123q96 32 129.5 76.5t50.5 150.5l107 674h144l-108 -682q-13 -80 -34.5 -133t-62 -91.5t-88.5 -63t-130 -54.5z" />
    <glyph glyph-name="A.semp" horiz-adv-x="733" 
d="M700 0h-160l-31 111h-343l-67 -111h-159l504 790zM471 240l-75 256l-152 -256h227z" />
    <glyph glyph-name="i.sc" horiz-adv-x="282" 
d="M160 0h-137l86 541h137z" />
    <glyph glyph-name="dotlessj.semp" horiz-adv-x="267" 
d="M113 -237l-136 -30l122 778h132z" />
    <glyph glyph-name="jcircumflex.semp" horiz-adv-x="266" 
d="M112 -237l-135 -30l122 778h131zM374 649l-80 -79l-105 89l-130 -89l-58 79l209 137z" />
    <glyph glyph-name="uni1E1F.semp" horiz-adv-x="336" 
d="M108 -244h-131l133 845q15 94 68 155.5t144 61.5q80 0 155 -44l-61 -95q-32 28 -77 28q-80 0 -97 -107l-14 -90h122l-17 -103h-122zM327 872q-30 0 -49.5 19.5t-19.5 48.5q0 36 29 62.5t63 26.5q29 0 47 -19.5t18 -48.5q0 -36 -26.5 -62.5t-61.5 -26.5z" />
    <glyph glyph-name="uni1E1F.semp2" horiz-adv-x="336" 
d="M147 0h-132l95 601q15 95 69.5 156t144.5 61q78 0 154 -44l-61 -95q-32 28 -78 28q-80 0 -97 -107l-14 -90h122l-17 -103h-122zM327 872q-30 0 -49.5 19.5t-19.5 48.5q0 36 29 62.5t63 26.5q29 0 47 -19.5t18 -48.5q0 -36 -26 -62.5t-62 -26.5z" />
    <glyph glyph-name="Jcircumflex.alt" horiz-adv-x="308" 
d="M-126 -267l-8 123q96 32 129.5 76.5t50.5 150.5l107 674h144l-108 -682q-13 -80 -34.5 -133t-62 -91.5t-88.5 -63t-130 -54.5zM498 889l-94 -73l-163 61l-193 -64l-51 79l265 113z" />
    <glyph glyph-name="Jcircumflex.semp" horiz-adv-x="513" 
d="M280 231l63 398h-168l20 127h311l-86 -542q-10 -66 -36.5 -112.5t-64 -70.5t-76.5 -34.5t-84 -10.5q-87 0 -176 55l72 114q72 -47 118 -47q41 0 69.5 32.5t37.5 90.5zM618 874l-95 -73l-145 61l-172 -64l-59 79l252 113z" />
    <glyph glyph-name="Jcircumflex.semp2" horiz-adv-x="483" 
d="M249 231l83 526h144l-86 -543q-11 -67 -38 -114.5t-65.5 -71t-76 -33t-80.5 -9.5q-83 0 -160 48l71 110q57 -36 97 -36q41 0 71 29.5t40 93.5zM655 874l-95 -73l-145 61l-172 -64l-59 79l252 113z" />
    <glyph glyph-name="Ygrave.alt" horiz-adv-x="658" 
d="M569 828l-316 49l57 115l295 -70zM347 0h-142l49 307l-202 450h160l132 -318l244 318h157l-349 -450z" />
    <glyph glyph-name="Yacute.alt" horiz-adv-x="658" 
d="M608 877l-332 -49l-6 94l317 70zM347 0h-142l49 307l-202 450h160l132 -318l244 318h157l-349 -450z" />
    <glyph glyph-name="IJ.alt" horiz-adv-x="614" 
d="M175 0h-142l120 757h142zM179 -267l-8 123q96 32 130 76.5t51 150.5l107 674h144l-108 -682q-13 -80 -34.5 -133t-62.5 -91.5t-89 -63t-130 -54.5z" />
    <glyph glyph-name="IJ.semp" horiz-adv-x="819" 
d="M175 0h-142l120 757h142zM586 231l63 398h-168l20 127h311l-86 -542q-10 -66 -36.5 -112.5t-64 -70.5t-76.5 -34.5t-84 -10.5q-87 0 -177 55l73 114q72 -47 118 -47q41 0 69.5 32.5t37.5 90.5z" />
    <glyph glyph-name="IJ.semp2" horiz-adv-x="792" 
d="M175 0h-142l120 757h142zM558 231l83 526h144l-86 -543q-11 -67 -38 -114.5t-65.5 -71t-76 -33t-80.5 -9.5q-82 0 -161 48l72 110q57 -36 97 -36q41 0 71 29.5t40 93.5z" />
    <glyph glyph-name="a.alt" horiz-adv-x="580" 
d="M468 -1h-111l-1 53q-67 -66 -143 -66q-79 0 -133.5 61.5t-54.5 168.5q0 141 95.5 225.5t237.5 84.5q109 0 186 -48zM360 148l42 256q-33 14 -65 14q-71 0 -120.5 -52.5t-49.5 -143.5q0 -58 22.5 -93.5t70.5 -35.5q32 0 59 16t41 39z" />
    <glyph glyph-name="f.semp2" horiz-adv-x="336" 
d="M147 0h-132l95 601q15 95 69.5 156t144.5 61q78 0 154 -44l-61 -95q-32 28 -78 28q-80 0 -97 -107l-14 -90h122l-17 -103h-122z" />
    <glyph glyph-name="f.alt" horiz-adv-x="378" 
d="M150 -244h-131l103 651h-81l16 103h82l14 92q15 98 76 157t161 59q41 0 68 -10.5t62 -33.5l-62 -95q-32 28 -77 28q-81 0 -97 -107l-14 -90h121l-16 -103h-122z" />
    <glyph glyph-name="f.semp" horiz-adv-x="336" 
d="M108 -244h-131l133 845q15 94 68 155.5t144 61.5q80 0 155 -44l-61 -95q-32 28 -77 28q-80 0 -97 -107l-14 -90h122l-17 -103h-122z" />
    <glyph glyph-name="j.semp" horiz-adv-x="266" 
d="M112 -237l-135 -30l122 778h131zM176 596q-31 0 -50 19.5t-19 50.5q0 40 28 67t67 27q32 0 50.5 -19t18.5 -50q0 -41 -28 -68t-67 -27z" />
    <glyph glyph-name="m.alt" horiz-adv-x="851" 
d="M741 0h-131l47 294q11 71 -7 97t-64 26q-53 0 -90 -24q3 -32 -2 -65l-52 -328h-131l47 294q11 71 -6.5 97t-62.5 26q-53 0 -82 -20l-63 -397h-131l74 469q116 57 225 57q94 0 131 -44q78 44 167 44q102 0 150 -50.5t33 -147.5z" />
    <glyph glyph-name="n.alt" horiz-adv-x="565" 
d="M456 0h-131l47 294q11 70 -12 96.5t-71 26.5q-53 0 -82 -20l-63 -397h-131l74 469q114 57 226 57q104 0 157 -50.5t38 -147.5z" />
    <glyph glyph-name="longs.semp" horiz-adv-x="301" 
d="M150 -244h-131l103 651h-81l17 103h81l14 91q14 91 78 154t167 63q31 0 54 -8.5t68 -35.5l-62 -95q-32 28 -77 28q-81 0 -97 -107z" />
    <glyph glyph-name="t.alt" horiz-adv-x="374" 
d="M308 80l-64 -93q-25 0 -45.5 2.5t-43.5 9.5t-37.5 19t-27.5 31t-14.5 46.5t2.5 64.5l39 247h-87l16 103h87l28 173h131l-28 -173h119l-16 -103h-119l-36 -226q-3 -18 -3.5 -32.5t2.5 -24.5t7 -17.5t12 -12.5t14.5 -7.5t19 -4t21 -2t23.5 -0.5z" />
    <glyph glyph-name="t.alt2" horiz-adv-x="401" 
d="M218 0h-131l64 407h-122l16 103h122l28 173h131l-28 -173h122l-16 -103h-122z" />
    <glyph glyph-name="t.semp" horiz-adv-x="331" 
d="M145 0h-131l105 664h131l-24 -154h124l-17 -103h-124z" />
    <glyph glyph-name="aacute.alt" horiz-adv-x="580" 
d="M517 750l-224 -167l-45 46l177 201zM468 -1h-111l-1 53q-67 -66 -143 -66q-79 0 -133.5 61.5t-54.5 168.5q0 141 95.5 225.5t237.5 84.5q109 0 186 -48zM360 148l42 256q-33 14 -65 14q-71 0 -120.5 -52.5t-49.5 -143.5q0 -58 22.5 -93.5t70.5 -35.5q32 0 59 16t41 39z
" />
    <glyph glyph-name="acircumflex.alt" horiz-adv-x="580" 
d="M537 649l-81 -79l-104 89l-131 -89l-57 79l209 137zM468 -1h-111l-1 53q-67 -66 -143 -66q-79 0 -133.5 61.5t-54.5 168.5q0 141 95.5 225.5t237.5 84.5q109 0 186 -48zM360 148l42 256q-33 14 -65 14q-71 0 -120.5 -52.5t-49.5 -143.5q0 -58 22.5 -93.5t70.5 -35.5
q32 0 59 16t41 39z" />
    <glyph glyph-name="adieresis.alt" horiz-adv-x="580" 
d="M303 657q0 -31 -25 -54t-60 -23q-27 0 -45.5 17.5t-18.5 42.5q0 32 26.5 55.5t59.5 23.5q28 0 45.5 -17.5t17.5 -44.5zM539 658q0 -32 -25 -55t-61 -23q-28 0 -45 17t-17 42q0 33 24.5 56.5t59.5 23.5q29 0 46.5 -17t17.5 -44zM468 -1h-111l-1 53q-67 -66 -143 -66
q-79 0 -133.5 61.5t-54.5 168.5q0 141 95.5 225.5t237.5 84.5q109 0 186 -48zM360 148l42 256q-33 14 -65 14q-71 0 -120.5 -52.5t-49.5 -143.5q0 -58 22.5 -93.5t70.5 -35.5q32 0 59 16t41 39z" />
    <glyph glyph-name="agrave.alt" horiz-adv-x="580" 
d="M423 629l-59 -46l-170 167l116 80zM468 -1h-111l-1 53q-67 -66 -143 -66q-79 0 -133.5 61.5t-54.5 168.5q0 141 95.5 225.5t237.5 84.5q109 0 186 -48zM360 148l42 256q-33 14 -65 14q-71 0 -120.5 -52.5t-49.5 -143.5q0 -58 22.5 -93.5t70.5 -35.5q32 0 59 16t41 39z
" />
    <glyph glyph-name="aring.alt" horiz-adv-x="580" 
d="M488 739q0 -57 -43.5 -98.5t-101.5 -41.5q-46 0 -75.5 30.5t-29.5 76.5q0 57 44 99t100 42q46 0 76 -31.5t30 -76.5zM357 674q19 0 35 17.5t16 38.5q0 18 -10.5 30.5t-25.5 12.5q-21 0 -37 -17.5t-16 -39.5q0 -18 10.5 -30t27.5 -12zM468 -1h-111l-1 53q-67 -66 -143 -66
q-79 0 -133.5 61.5t-54.5 168.5q0 141 95.5 225.5t237.5 84.5q109 0 186 -48zM360 148l42 256q-33 14 -65 14q-71 0 -120.5 -52.5t-49.5 -143.5q0 -58 22.5 -93.5t70.5 -35.5q32 0 59 16t41 39z" />
    <glyph glyph-name="atilde.alt" horiz-adv-x="580" 
d="M518 727l27 -70q-11 -21 -52.5 -52t-86.5 -31q-24 0 -57 25.5t-54 25.5q-24 0 -49.5 -15t-38.5 -30l-40 77q108 74 161 74q26 0 57 -25t53 -25q28 0 80 46zM468 -1h-111l-1 53q-67 -66 -143 -66q-79 0 -133.5 61.5t-54.5 168.5q0 141 95.5 225.5t237.5 84.5
q109 0 186 -48zM360 148l42 256q-33 14 -65 14q-71 0 -120.5 -52.5t-49.5 -143.5q0 -58 22.5 -93.5t70.5 -35.5q32 0 59 16t41 39z" />
    <glyph glyph-name="aogonek.alt" horiz-adv-x="580" 
d="M480 -115l-16 -97q-58 -38 -122 -38q-57 0 -99 30t-42 74q0 40 40.5 78.5t114.5 67.5v52q-67 -66 -143 -66q-79 0 -133.5 61.5t-54.5 168.5q0 141 95.5 225.5t237.5 84.5q109 0 186 -48l-76 -482q-64 -27 -96 -58.5t-32 -58.5q0 -28 29 -28q43 0 111 34zM360 148l42 256
q-33 14 -65 14q-71 0 -120.5 -52.5t-49.5 -143.5q0 -58 22.5 -93.5t70.5 -35.5q32 0 59 16t41 39z" />
    <glyph glyph-name="abreve.alt" horiz-adv-x="580" 
d="M437 759h120q-17 -68 -71.5 -122t-136.5 -54q-67 0 -108 46t-35 130h121q0 -9 -1 -27t8.5 -36.5t28.5 -18.5q20 0 35 11.5t23 28t11.5 26.5t4.5 16zM468 -1h-111l-1 53q-67 -66 -143 -66q-79 0 -133.5 61.5t-54.5 168.5q0 141 95.5 225.5t237.5 84.5q109 0 186 -48z
M360 148l42 256q-33 14 -65 14q-71 0 -120.5 -52.5t-49.5 -143.5q0 -58 22.5 -93.5t70.5 -35.5q32 0 59 16t41 39z" />
    <glyph glyph-name="amacron.alt" horiz-adv-x="580" 
d="M541 598h-397l17 109h397zM468 -1h-111l-1 53q-67 -66 -143 -66q-79 0 -133.5 61.5t-54.5 168.5q0 141 95.5 225.5t237.5 84.5q109 0 186 -48zM360 148l42 256q-33 14 -65 14q-71 0 -120.5 -52.5t-49.5 -143.5q0 -58 22.5 -93.5t70.5 -35.5q32 0 59 16t41 39z" />
    <glyph glyph-name="tcommaaccent.semp" horiz-adv-x="330" 
d="M38 -256h-123l119 205h161zM145 0h-131l105 664h131l-25 -154h124l-16 -103h-124z" />
    <glyph glyph-name="tcommaaccent.alt2" horiz-adv-x="400" 
d="M111 -256h-123l119 205h161zM218 0h-131l64 407h-122l16 103h122l28 173h131l-28 -173h122l-16 -103h-122z" />
    <glyph glyph-name="tcommaaccent.alt" horiz-adv-x="375" 
d="M308 80l-64 -93q-25 0 -45.5 2.5t-43.5 9.5t-37.5 19t-27.5 31t-14.5 46.5t2.5 64.5l39 247h-87l16 103h87l28 173h131l-28 -173h119l-16 -103h-119l-36 -226q-3 -18 -3.5 -32.5t3 -24.5t7 -17.5t12 -12.5t15 -7.5t18.5 -4t20.5 -2t23.5 -0.5zM105 -256h-122l119 205h161
z" />
    <glyph glyph-name="tcaron.semp" horiz-adv-x="331" 
d="M419 575h-103l120 241h153zM145 0h-131l105 664h131l-24 -154h124l-17 -103h-124z" />
    <glyph glyph-name="tcaron.alt2" horiz-adv-x="401" 
d="M492 575h-103l120 241h153zM218 0h-131l64 407h-122l16 103h122l28 173h131l-28 -173h122l-16 -103h-122z" />
    <glyph glyph-name="tcaron.alt" horiz-adv-x="374" 
d="M457 575h-103l120 241h153zM308 80l-64 -93q-25 0 -45.5 2.5t-43.5 9.5t-37.5 19t-27.5 31t-14.5 46.5t2.5 64.5l39 247h-87l16 103h87l28 173h131l-28 -173h119l-16 -103h-119l-36 -226q-3 -18 -3.5 -32.5t2.5 -24.5t7 -17.5t12 -12.5t14.5 -7.5t19 -4t21 -2t23.5 -0.5z
" />
    <glyph glyph-name="napostrophe.alt" horiz-adv-x="634" 
d="M54 483h-123l119 205h161zM525 0h-131l47 294q11 70 -12 96.5t-71 26.5q-53 0 -82 -20l-63 -397h-131l74 469q114 57 226 57q104 0 157 -50.5t38 -147.5z" />
    <glyph glyph-name="ntilde.alt" horiz-adv-x="565" 
d="M492 727l27 -70q-13 -22 -54 -52.5t-86 -30.5q-23 0 -56 25.5t-54 25.5q-24 0 -49.5 -15t-38.5 -30l-40 77q108 74 161 74q26 0 57 -25t52 -25q29 0 81 46zM456 0h-131l47 294q11 70 -12 96.5t-71 26.5q-53 0 -82 -20l-63 -397h-131l74 469q114 57 226 57
q104 0 157 -50.5t38 -147.5z" />
    <glyph glyph-name="ncommaaccent.alt" horiz-adv-x="565" 
d="M184 -256h-124l121 205h161zM456 0h-131l47 294q11 70 -12 96.5t-71 26.5q-53 0 -82 -20l-63 -397h-131l74 469q114 57 226 57q104 0 157 -50.5t38 -147.5z" />
    <glyph glyph-name="ncaron.alt" horiz-adv-x="565" 
d="M527 722l-207 -137l-168 137l84 79l103 -90l133 90zM456 0h-131l47 294q11 70 -12 96.5t-71 26.5q-53 0 -82 -20l-63 -397h-131l74 469q114 57 226 57q104 0 157 -50.5t38 -147.5z" />
    <glyph glyph-name="nacute.alt" horiz-adv-x="565" 
d="M536 750l-224 -167l-44 46l176 201zM456 0h-131l47 294q11 70 -12 96.5t-71 26.5q-53 0 -82 -20l-63 -397h-131l74 469q114 57 226 57q104 0 157 -50.5t38 -147.5z" />
    <glyph glyph-name="uni1E41.alt" horiz-adv-x="851" 
d="M561 680q0 -35 -27 -61.5t-64 -26.5q-28 0 -47 20t-19 48q0 35 28.5 62t62.5 27q30 0 48 -19.5t18 -49.5zM741 0h-131l47 294q11 71 -7 97t-64 26q-53 0 -90 -24q3 -32 -2 -65l-52 -328h-131l47 294q11 71 -6.5 97t-62.5 26q-53 0 -82 -20l-63 -397h-131l74 469
q116 57 225 57q94 0 131 -44q78 44 167 44q102 0 150 -50.5t33 -147.5z" />
    <glyph glyph-name="ncaron.sc" horiz-adv-x="660" 
d="M551 735l-194 -136l-151 136l83 79l88 -84l119 84zM535 -20l-332 309l-44 -289h-137l90 557l332 -314l46 298h135z" />
    <glyph glyph-name="nacute.sc" horiz-adv-x="660" 
d="M557 757l-206 -162l-61 46l166 201zM535 -20l-332 309l-44 -289h-137l90 557l332 -314l46 298h135z" />
    <glyph glyph-name="uni1E41.sc" horiz-adv-x="766" 
d="M512 669q0 -32 -26 -55t-60 -23q-26 0 -43.5 17.5t-17.5 42.5q0 32 25 55.5t58 23.5q28 0 46 -17.5t18 -43.5zM673 0h-137l8 246l-215 -267l-127 267l-71 -246h-137l173 558l193 -359l318 358z" />
    <glyph glyph-name="ldot.sc" horiz-adv-x="498" 
d="M386 1h-363l86 540h137l-67 -422h226zM468 326q0 -33 -29 -58t-66 -25q-32 0 -52 19t-20 46q0 35 28.5 59.5t67.5 24.5q31 0 51 -18.5t20 -47.5z" />
    <glyph glyph-name="lcommaaccent.sc" horiz-adv-x="455" 
d="M387 1h-363l85 540h137l-66 -422h226zM145 -256h-124l120 205h161z" />
    <glyph glyph-name="lcaron.sc" horiz-adv-x="500" 
d="M386 1h-363l86 540h137l-67 -422h226zM392 360h-108l120 205h145z" />
    <glyph glyph-name="lacute.sc" horiz-adv-x="455" 
d="M386 1h-363l86 540h138l-67 -422h225zM350 757l-206 -162l-62 46l167 201z" />
    <glyph glyph-name="lslash.sc" horiz-adv-x="463" 
d="M395 1h-363l21 133l-61 -32l20 130l62 32l44 277h137l-33 -205l119 61l-21 -130l-119 -61l-13 -87h226z" />
    <glyph glyph-name="kcommaaccent.sc" horiz-adv-x="603" 
d="M199 -256h-124l121 205h161zM563 0h-184l-187 207l-32 -207h-137l86 541h137l-29 -185l199 185h174l-308 -261z" />
    <glyph glyph-name="jcircumflex.sc.semp" horiz-adv-x="424" 
d="M216 217l33 209h-135l18 114h269l-56 -355q-9 -58 -32.5 -98.5t-56.5 -61t-66 -29.5t-71 -9q-87 0 -149 42l40 111q28 -35 101 -35q53 0 74 25.5t31 86.5zM460 678l-81 -79l-92 84l-114 -84l-58 79l193 136z" />
    <glyph glyph-name="jcircumflex.sc" horiz-adv-x="283" 
d="M-76 -179l-30 113q78 20 105 48t39 105l72 454h137l-72 -456q-18 -113 -69.5 -166t-181.5 -98zM370 678l-80 -79l-92 84l-115 -84l-58 79l195 136z" />
    <glyph glyph-name="itilde.sc" horiz-adv-x="282" 
d="M161 0h-137l85 541h137zM361 771l30 -68q-8 -24 -51 -60t-92 -36q-19 0 -49.5 20t-48.5 20q-26 0 -50.5 -17.5t-39.5 -35.5l-50 71q103 90 161 90q22 0 52 -20.5t48 -20.5q37 0 90 57z" />
    <glyph glyph-name="ibreve.sc" horiz-adv-x="283" 
d="M161 0h-138l86 541h138zM254 753h99q-14 -59 -58.5 -106t-110.5 -47q-54 0 -86.5 40t-27.5 113h98q-6 -71 28 -71q44 0 58 71z" />
    <glyph glyph-name="iogonek.sc" horiz-adv-x="282" 
d="M164 -115l-15 -97q-60 -38 -122 -38q-57 0 -99 30t-42 74q0 79 138 146l85 541h137l-86 -545q-136 -53 -136 -117q0 -28 30 -28q40 0 110 34z" />
    <glyph glyph-name="imacron.sc" horiz-adv-x="282" 
d="M160 0h-137l86 541h137zM397 611h-416l17 109h416z" />
    <glyph glyph-name="ncommaaccent.sc" horiz-adv-x="660" 
d="M255 -246h-124l120 205h161zM535 -20l-332 309l-44 -289h-137l90 557l332 -314l46 298h135z" />
    <glyph glyph-name="ntilde.sc" horiz-adv-x="660" 
d="M530 771l33 -68q-11 -16 -28.5 -34.5t-52 -40t-66.5 -21.5q-23 0 -55.5 20t-50.5 20q-10 0 -20.5 -3.5t-22 -11t-18 -12.5t-18 -15t-12.5 -11l-51 71q106 90 164 90q23 0 54.5 -20.5t49.5 -20.5q37 0 94 57zM535 -20l-332 309l-44 -289h-137l90 557l332 -314l46 298h135z
" />
    <glyph glyph-name="napostrophe.sc" horiz-adv-x="742" 
d="M76 491h-123l119 205h161zM617 -20l-332 309l-44 -289h-137l90 557l332 -314l46 298h135z" />
    <glyph glyph-name="oacute.sc" horiz-adv-x="667" 
d="M528 757l-205 -162l-62 46l168 201zM622 307q0 -130 -101 -225t-235 -95q-114 0 -183.5 72t-69.5 179q0 133 102.5 225t232.5 92q112 0 183 -70.5t71 -177.5zM300 107q72 0 126.5 55t54.5 133q0 60 -33.5 99t-93.5 39q-72 0 -125.5 -55t-53.5 -134q0 -59 33 -98t92 -39z
" />
    <glyph glyph-name="ocircumflex.sc" horiz-adv-x="667" 
d="M565 678l-80 -79l-93 84l-114 -84l-59 79l195 136zM622 307q0 -130 -101 -225t-235 -95q-114 0 -183.5 72t-69.5 179q0 133 102.5 225t232.5 92q112 0 183 -70.5t71 -177.5zM300 107q72 0 126.5 55t54.5 133q0 60 -33.5 99t-93.5 39q-72 0 -125.5 -55t-53.5 -134
q0 -59 33 -98t92 -39z" />
    <glyph glyph-name="odieresis.sc" horiz-adv-x="667" 
d="M351 689q0 -32 -26 -55t-61 -23q-26 0 -44 17.5t-18 43.5q0 32 26 55t58 23q29 0 47 -17t18 -44zM585 690q0 -33 -24.5 -56t-62.5 -23q-27 0 -44.5 17.5t-17.5 42.5q0 33 24.5 56t59.5 23q30 0 47.5 -16.5t17.5 -43.5zM622 307q0 -130 -101 -225t-235 -95
q-114 0 -183.5 72t-69.5 179q0 133 102.5 225t232.5 92q112 0 183 -70.5t71 -177.5zM300 107q72 0 126.5 55t54.5 133q0 60 -33.5 99t-93.5 39q-72 0 -125.5 -55t-53.5 -134q0 -59 33 -98t92 -39z" />
    <glyph glyph-name="ograve.sc" horiz-adv-x="667" 
d="M447 641l-73 -46l-154 162l125 85zM622 307q0 -130 -101 -225t-235 -95q-114 0 -183.5 72t-69.5 179q0 133 102.5 225t232.5 92q112 0 183 -70.5t71 -177.5zM300 107q72 0 126.5 55t54.5 133q0 60 -33.5 99t-93.5 39q-72 0 -125.5 -55t-53.5 -134q0 -59 33 -98t92 -39z
" />
    <glyph glyph-name="ohungarumlaut.sc" horiz-adv-x="667" 
d="M430 731l-206 -121l-29 56l174 161zM648 731l-207 -121l-29 56l174 161zM622 307q0 -130 -101 -225t-235 -95q-114 0 -183.5 72t-69.5 179q0 133 102.5 225t232.5 92q112 0 183 -70.5t71 -177.5zM300 107q72 0 126.5 55t54.5 133q0 60 -33.5 99t-93.5 39
q-72 0 -125.5 -55t-53.5 -134q0 -59 33 -98t92 -39z" />
    <glyph glyph-name="omacron.sc" horiz-adv-x="667" 
d="M589 611h-417l18 109h417zM622 307q0 -130 -101 -225t-235 -95q-114 0 -183.5 72t-69.5 179q0 133 102.5 225t232.5 92q112 0 183 -70.5t71 -177.5zM300 107q72 0 126.5 55t54.5 133q0 60 -33.5 99t-93.5 39q-72 0 -125.5 -55t-53.5 -134q0 -59 33 -98t92 -39z" />
    <glyph glyph-name="otilde.sc" horiz-adv-x="667" 
d="M556 771l34 -68q-11 -15 -29 -34.5t-52.5 -40.5t-65.5 -21q-23 0 -55.5 20t-50.5 20q-8 0 -15.5 -2t-15.5 -6t-14.5 -7.5t-14 -10t-11.5 -10t-11.5 -10t-8.5 -7.5l-51 71q103 90 163 90q23 0 54.5 -20.5t50.5 -20.5q36 0 93 57zM622 307q0 -130 -101 -225t-235 -95
q-114 0 -183.5 72t-69.5 179q0 133 102.5 225t232.5 92q112 0 183 -70.5t71 -177.5zM300 107q72 0 126.5 55t54.5 133q0 60 -33.5 99t-93.5 39q-72 0 -125.5 -55t-53.5 -134q0 -59 33 -98t92 -39z" />
    <glyph glyph-name="idotaccent.sc" horiz-adv-x="282" 
d="M160 0h-137l86 541h137zM273 689q0 -31 -25.5 -54.5t-60.5 -23.5q-26 0 -43.5 17.5t-17.5 42.5q0 32 25 55.5t58 23.5q28 0 46 -17.5t18 -43.5z" />
    <glyph glyph-name="igrave.sc" horiz-adv-x="283" 
d="M161 0h-138l86 541h138zM275 641l-78 -46l-153 162l127 85z" />
    <glyph glyph-name="idieresis.sc" horiz-adv-x="282" 
d="M160 0h-137l86 541h137zM143 689q0 -32 -26 -55t-61 -23q-27 0 -44.5 17.5t-17.5 43.5q0 32 25.5 55t58.5 23q29 0 47 -17t18 -44zM407 690q0 -33 -24.5 -56t-62.5 -23q-28 0 -45 17.5t-17 42.5q0 33 24.5 56t59.5 23q31 0 48 -16.5t17 -43.5z" />
    <glyph glyph-name="icircumflex.sc" horiz-adv-x="282" 
d="M160 0h-137l86 541h137zM292 599l-93 84l-114 -84l-59 79l195 136l150 -136z" />
    <glyph glyph-name="iacute.sc" horiz-adv-x="282" 
d="M160 0h-137l86 541h137zM374 757l-206 -162l-61 46l166 201z" />
    <glyph glyph-name="hbar.sc" horiz-adv-x="644" 
d="M516 0h-134l34 212h-216l-34 -212h-137l62 389h-54l15 99h54l9 53h137l-9 -53h216l9 53h134l-9 -53h56l-15 -99h-56zM434 330l10 59h-216l-10 -59h216z" />
    <glyph glyph-name="hcircumflex.sc" horiz-adv-x="633" 
d="M511 0h-135l34 217h-216l-34 -217h-137l86 541h137l-33 -206h216l33 206h135zM548 678l-80 -79l-93 84l-113 -84l-59 79l194 136z" />
    <glyph glyph-name="obreve.sc" horiz-adv-x="667" 
d="M447 753h98q-13 -59 -57.5 -106t-110.5 -47q-54 0 -87 40t-27 113h98q-3 -19 1.5 -45t26.5 -26q44 0 58 71zM622 307q0 -130 -101 -225t-235 -95q-114 0 -183.5 72t-69.5 179q0 133 102.5 225t232.5 92q112 0 183 -70.5t71 -177.5zM300 107q72 0 126.5 55t54.5 133
q0 60 -33.5 99t-93.5 39q-72 0 -125.5 -55t-53.5 -134q0 -59 33 -98t92 -39z" />
    <glyph glyph-name="oslash.sc" horiz-adv-x="667" 
d="M155 -136l-105 46l74 128q-91 72 -91 200q0 133 102.5 225t232.5 92q24 0 52 -5l60 104l107 -51l-58 -100q93 -71 93 -196q0 -130 -101 -225t-235 -95q-28 0 -56 5zM297 107h3q72 0 126.5 55t54.5 133q0 50 -24 86zM196 162l156 271q-71 -1 -124 -56t-53 -133
q0 -48 21 -82z" />
    <glyph glyph-name="oslashacute.sc" horiz-adv-x="667" 
d="M524 757l-205 -162l-62 46l168 201zM155 -136l-105 46l74 128q-91 72 -91 200q0 133 102.5 225t232.5 92q24 0 52 -5l60 104l107 -51l-58 -100q93 -71 93 -196q0 -130 -101 -225t-235 -95q-28 0 -56 5zM297 107h3q72 0 126.5 55t54.5 133q0 50 -24 86zM196 162l156 271
q-71 -1 -124 -56t-53 -133q0 -48 21 -82z" />
    <glyph glyph-name="uni1E57.sc" horiz-adv-x="503" 
d="M397 689q0 -31 -25.5 -54.5t-60.5 -23.5q-26 0 -43.5 17.5t-17.5 42.5q0 32 25 55.5t58 23.5q28 0 46 -17.5t18 -43.5zM160 0h-137l86 541h143q115 0 172 -37t57 -118q0 -92 -68 -151t-193 -59h-32zM205 284h29q99 0 99 82q0 28 -15 44t-56 16h-35z" />
    <glyph glyph-name="racute.sc" horiz-adv-x="516" 
d="M493 757l-205 -162l-61 46l166 201zM455 0h-157l-107 196l-31 -196h-137l86 541h151q221 0 221 -147q0 -71 -49 -119.5t-120 -59.5zM205 284h37q48 0 69.5 26.5t21.5 58.5q0 57 -66 57h-40z" />
    <glyph glyph-name="rcaron.sc" horiz-adv-x="516" 
d="M482 735l-193 -136l-152 136l84 79l88 -84l119 84zM455 0h-157l-107 196l-31 -196h-137l86 541h151q221 0 221 -147q0 -71 -49 -119.5t-120 -59.5zM205 284h37q48 0 69.5 26.5t21.5 58.5q0 57 -66 57h-40z" />
    <glyph glyph-name="rcommaaccent.sc" horiz-adv-x="514" 
d="M161 -256h-124l121 205h161zM455 0h-157l-107 196l-31 -196h-137l86 541h151q221 0 221 -147q0 -71 -49 -119.5t-120 -59.5zM205 284h37q48 0 69.5 26.5t21.5 58.5q0 57 -66 57h-40z" />
    <glyph glyph-name="uni1E61.sc" horiz-adv-x="506" 
d="M385 689q0 -31 -25.5 -54.5t-60.5 -23.5q-26 0 -43.5 17.5t-17.5 42.5q0 32 25 55.5t58 23.5q28 0 46 -17.5t18 -43.5zM472 486l-77 -94q-45 50 -107 50q-59 0 -59 -41q0 -22 22 -38.5t53 -30t62 -31t53 -51t22 -79.5q0 -48 -22.5 -84.5t-59 -57.5t-77 -31.5t-82.5 -10.5
q-72 0 -128 28t-79 64l82 92q22 -27 58 -47t78 -20q34 0 56.5 14t22.5 37q0 18 -15.5 33.5t-39 26t-50.5 26t-50.5 32.5t-39 47t-15.5 69q0 83 63.5 124t153.5 41q113 0 175 -68z" />
    <glyph glyph-name="scaron.sc" horiz-adv-x="506" 
d="M484 735l-194 -136l-151 136l83 79l88 -84l119 84zM472 486l-77 -94q-45 50 -107 50q-59 0 -59 -41q0 -22 22 -38.5t53 -30t62 -31t53 -51t22 -79.5q0 -48 -22.5 -84.5t-59 -57.5t-77 -31.5t-82.5 -10.5q-72 0 -128 28t-79 64l82 92q22 -27 58 -47t78 -20q34 0 56.5 14
t22.5 37q0 18 -15.5 33.5t-39 26t-50.5 26t-50.5 32.5t-39 47t-15.5 69q0 83 63.5 124t153.5 41q113 0 175 -68z" />
    <glyph glyph-name="sacute.sc" horiz-adv-x="506" 
d="M482 757l-205 -162l-62 46l167 201zM472 486l-77 -94q-45 50 -107 50q-59 0 -59 -41q0 -22 22 -38.5t53 -30t62 -31t53 -51t22 -79.5q0 -48 -22.5 -84.5t-59 -57.5t-77 -31.5t-82.5 -10.5q-72 0 -128 28t-79 64l82 92q22 -27 58 -47t78 -20q34 0 56.5 14t22.5 37
q0 18 -15.5 33.5t-39 26t-50.5 26t-50.5 32.5t-39 47t-15.5 69q0 83 63.5 124t153.5 41q113 0 175 -68z" />
    <glyph glyph-name="scedilla.sc" horiz-adv-x="506" 
d="M158 -256h-123l119 205h162zM472 486l-77 -94q-45 50 -107 50q-59 0 -59 -41q0 -22 22 -38.5t53 -30t62 -31t53 -51t22 -79.5q0 -48 -22.5 -84.5t-59 -57.5t-77 -31.5t-82.5 -10.5q-72 0 -128 28t-79 64l82 92q22 -27 58 -47t78 -20q34 0 56.5 14t22.5 37
q0 18 -15.5 33.5t-39 26t-50.5 26t-50.5 32.5t-39 47t-15.5 69q0 83 63.5 124t153.5 41q113 0 175 -68z" />
    <glyph glyph-name="tcaron.sc" horiz-adv-x="507" 
d="M274 0h-138l67 425h-164l18 115h466l-18 -115h-164zM497 735l-194 -136l-151 136l84 79l86 -84l120 84z" />
    <glyph glyph-name="tcommaaccent.sc" horiz-adv-x="509" 
d="M275 0h-138l67 425h-164l18 115h466l-18 -115h-164zM163 -256h-123l119 205h161z" />
    <glyph glyph-name="uni1E6B.sc" horiz-adv-x="507" 
d="M274 0h-138l67 425h-164l18 115h466l-18 -115h-164zM385 689q0 -31 -25.5 -54.5t-59.5 -23.5q-26 0 -43.5 17.5t-17.5 43.5q0 32 25.5 55t57.5 23q28 0 45.5 -17.5t17.5 -43.5z" />
    <glyph glyph-name="tbar.sc" horiz-adv-x="508" 
d="M275 0h-138l32 203h-99l17 109h99l18 113h-164l18 115h466l-18 -115h-164l-18 -113h97l-17 -109h-97z" />
    <glyph glyph-name="uacute.sc" horiz-adv-x="617" 
d="M545 757l-204 -162l-62 46l167 201zM384 131l65 410h134l-76 -475q-91 -79 -252 -79q-237 0 -203 215l54 339h137l-42 -265q-19 -95 -7 -133t79 -38q62 0 111 26z" />
    <glyph glyph-name="ucircumflex.sc" horiz-adv-x="617" 
d="M540 678l-80 -79l-92 84l-114 -84l-59 79l195 136zM384 131l65 410h134l-76 -475q-91 -79 -252 -79q-237 0 -203 215l54 339h137l-42 -265q-19 -95 -7 -133t79 -38q62 0 111 26z" />
    <glyph glyph-name="udieresis.sc" horiz-adv-x="617" 
d="M328 689q0 -31 -25.5 -54.5t-60.5 -23.5q-28 0 -46 17.5t-18 43.5q0 32 26 55t60 23q28 0 46 -17.5t18 -43.5zM562 690q0 -33 -24.5 -56t-62.5 -23q-27 0 -44.5 17.5t-17.5 42.5q0 33 25 56t59 23q31 0 48 -16.5t17 -43.5zM384 131l65 410h134l-76 -475q-91 -79 -252 -79
q-237 0 -203 215l54 339h137l-42 -265q-19 -95 -7 -133t79 -38q62 0 111 26z" />
    <glyph glyph-name="ugrave.sc" horiz-adv-x="617" 
d="M439 641l-74 -46l-153 162l124 85zM384 131l65 410h134l-76 -475q-91 -79 -252 -79q-237 0 -203 215l54 339h137l-42 -265q-19 -95 -7 -133t79 -38q62 0 111 26z" />
    <glyph glyph-name="uogonek.sc" horiz-adv-x="616" 
d="M432 -106l-15 -97q-60 -38 -123 -38q-57 0 -98.5 30t-41.5 74q0 62 87 124q-223 0 -189 215l54 339h137l-42 -265q-19 -95 -7.5 -133t78.5 -38q63 0 112 26l64 410h134l-75 -475q-59 -50 -147 -67q-68 -71 -68 -112q0 -27 29 -27q43 0 111 34z" />
    <glyph glyph-name="uhungarumlaut.sc" horiz-adv-x="617" 
d="M422 731l-207 -121l-30 56l174 161zM640 731l-207 -121l-30 56l174 161zM384 131l65 410h134l-76 -475q-91 -79 -252 -79q-237 0 -203 215l54 339h137l-42 -265q-19 -95 -7 -133t79 -38q62 0 111 26z" />
    <glyph glyph-name="wcircumflex.sc" horiz-adv-x="842" 
d="M651 678l-81 -79l-93 84l-113 -84l-58 79l193 136zM537 -30l-120 329l-219 -327l-168 569h151l67 -294l213 317l109 -320l163 297h147z" />
    <glyph glyph-name="eogonek.sc" horiz-adv-x="495" 
d="M364 -115l-15 -97q-60 -38 -122 -38q-57 0 -99.5 30t-42.5 74q0 79 144 147h-205l85 539h356l-18 -114h-219l-14 -93h176l-18 -113h-176l-16 -101h241l-19 -118h-80q-44 -32 -70.5 -65t-26.5 -58q0 -27 29 -27q42 0 110 34z" />
    <glyph glyph-name="uni1E1F.sc" horiz-adv-x="456" 
d="M160 0h-137l86 540h350l-19 -114h-213l-16 -105h173l-18 -113h-173zM383 689q0 -31 -25.5 -54.5t-60.5 -23.5q-26 0 -43.5 17.5t-17.5 42.5q0 32 25 55.5t58 23.5q28 0 46 -17.5t18 -43.5z" />
    <glyph glyph-name="gcircumflex.sc" horiz-adv-x="654" 
d="M547 678l-80 -79l-93 84l-113 -84l-59 79l194 136zM462 208h-127l17 109h271q-25 -166 -115.5 -249t-214.5 -83q-118 0 -189 70t-71 182q0 136 101.5 226.5t248.5 90.5q115 0 197 -68l-81 -101q-3 6 -13.5 15.5t-40.5 21.5t-68 12q-87 0 -143.5 -52.5t-56.5 -132.5
q0 -61 35 -99t101 -38q59 0 100 30t49 66z" />
    <glyph glyph-name="gbreve.sc" horiz-adv-x="654" 
d="M424 753h98q-12 -59 -57 -106t-111 -47q-54 0 -87 40t-27 113h98q-6 -71 28 -71q44 0 58 71zM462 208h-127l17 109h271q-25 -166 -115.5 -249t-214.5 -83q-118 0 -189 70t-71 182q0 136 101.5 226.5t248.5 90.5q115 0 197 -68l-81 -101q-3 6 -13.5 15.5t-40.5 21.5
t-68 12q-87 0 -143.5 -52.5t-56.5 -132.5q0 -61 35 -99t101 -38q59 0 100 30t49 66z" />
    <glyph glyph-name="gcommaaccent.sc" horiz-adv-x="654" 
d="M265 -255h-124l121 205h161zM462 208h-127l17 109h271q-25 -166 -115.5 -249t-214.5 -83q-118 0 -189 70t-71 182q0 136 101.5 226.5t248.5 90.5q115 0 197 -68l-81 -101q-3 6 -13.5 15.5t-40.5 21.5t-68 12q-87 0 -143.5 -52.5t-56.5 -132.5q0 -61 35 -99t101 -38
q59 0 100 30t49 66z" />
    <glyph glyph-name="gdotaccent.sc" horiz-adv-x="654" 
d="M443 689q0 -31 -25.5 -54.5t-59.5 -23.5q-27 0 -44.5 17.5t-17.5 43.5q0 32 25.5 55t58.5 23q28 0 45.5 -17.5t17.5 -43.5zM462 208h-127l17 109h271q-25 -166 -115.5 -249t-214.5 -83q-118 0 -189 70t-71 182q0 136 101.5 226.5t248.5 90.5q115 0 197 -68l-81 -101
q-3 6 -13.5 15.5t-40.5 21.5t-68 12q-87 0 -143.5 -52.5t-56.5 -132.5q0 -61 35 -99t101 -38q59 0 100 30t49 66z" />
    <glyph glyph-name="wgrave.sc" horiz-adv-x="842" 
d="M596 641l-76 -46l-155 162l128 85zM537 -30l-120 329l-219 -327l-168 569h151l67 -294l213 317l109 -320l163 297h147z" />
    <glyph glyph-name="wacute.sc" horiz-adv-x="842" 
d="M614 757l-205 -162l-62 46l167 201zM537 -30l-120 329l-219 -327l-168 569h151l67 -294l213 317l109 -320l163 297h147z" />
    <glyph glyph-name="wdieresis.sc" horiz-adv-x="842" 
d="M790 691q0 -34 -23.5 -57t-63.5 -23q-28 0 -45 17.5t-17 42.5q0 33 24.5 56t59.5 23q31 0 48 -16.5t17 -42.5zM314 689q0 -32 -26.5 -55t-60.5 -23q-26 0 -44.5 18t-18.5 43q0 32 26.5 55t58.5 23q28 0 46.5 -17.5t18.5 -43.5zM537 -30l-120 329l-219 -327l-168 569h151
l67 -294l213 317l109 -320l163 297h147z" />
    <glyph glyph-name="ygrave.sc" horiz-adv-x="535" 
d="M389 641l-76 -46l-154 162l128 85zM285 0h-138l35 218l-160 323h161l84 -209l156 209h159l-262 -323z" />
    <glyph glyph-name="ycircumflex.sc" horiz-adv-x="535" 
d="M497 678l-81 -79l-92 84l-114 -84l-58 79l193 136zM285 0h-138l35 218l-160 323h161l84 -209l156 209h159l-262 -323z" />
    <glyph glyph-name="yacute.sc" horiz-adv-x="535" 
d="M508 757l-205 -162l-62 46l167 201zM285 0h-138l35 218l-160 323h161l84 -209l156 209h159l-262 -323z" />
    <glyph glyph-name="ydieresis.sc" horiz-adv-x="535" 
d="M281 689q0 -31 -25.5 -54.5t-60.5 -23.5q-27 0 -45.5 17.5t-18.5 43.5q0 32 26 55t60 23q28 0 46 -17.5t18 -43.5zM515 690q0 -33 -24.5 -56t-62.5 -23q-27 0 -44.5 17.5t-17.5 42.5q0 33 25 56t59 23q31 0 48 -16.5t17 -43.5zM285 0h-138l35 218l-160 323h161l84 -209
l156 209h159l-262 -323z" />
    <glyph glyph-name="zcaron.sc" horiz-adv-x="572" 
d="M521 735l-193 -136l-152 136l84 79l87 -84l119 84zM480 1h-518l344 421h-201l18 118h446l-341 -421h271z" />
    <glyph glyph-name="zacute.sc" horiz-adv-x="572" 
d="M536 757l-205 -162l-63 46l167 201zM480 1h-518l344 421h-201l18 118h446l-341 -421h271z" />
    <glyph glyph-name="zdotaccent.sc" horiz-adv-x="572" 
d="M414 689q0 -32 -25.5 -55t-59.5 -23q-26 0 -43.5 17.5t-17.5 42.5q0 32 25 55.5t58 23.5q28 0 45.5 -17t17.5 -44zM480 1h-518l344 421h-201l18 118h446l-341 -421h271z" />
    <glyph glyph-name="ae.sc" horiz-adv-x="801" 
d="M707 1h-378l14 87h-173l-67 -88h-161l439 540h390l-19 -114h-219l-14 -93h176l-18 -113h-176l-16 -101h241zM358 186l31 191l-145 -191h114z" />
    <glyph glyph-name="aeacute.sc" horiz-adv-x="801" 
d="M758 757l-206 -162l-61 46l166 201zM707 1h-378l14 87h-173l-67 -88h-161l439 540h390l-19 -114h-219l-14 -93h176l-18 -113h-176l-16 -101h241zM358 186l31 191l-145 -191h114z" />
    <glyph glyph-name="ij.sc" horiz-adv-x="565" 
d="M160 0h-137l86 541h137zM205 -179l-30 113q79 20 106 48t39 105l72 454h137l-72 -456q-18 -113 -69.5 -166t-182.5 -98z" />
    <glyph glyph-name="eng.sc" horiz-adv-x="660" 
d="M299 -179l-29 113q78 20 106 50t38 108l-210 202l-45 -294h-137l90 557l327 -310l48 294h137l-72 -456q-18 -113 -70 -166t-183 -98z" />
    <glyph glyph-name="oe.sc" horiz-adv-x="908" 
d="M814 1h-378l6 41q-68 -55 -160 -55q-108 0 -178.5 72t-70.5 176q0 136 102 228t238 92q89 0 140 -65l8 50h356l-18 -114h-219l-15 -93h176l-17 -113h-176l-16 -101h241zM302 107q69 0 124 55.5t55 130.5q0 62 -33.5 101t-95.5 39q-70 0 -123.5 -55.5t-53.5 -130.5
q0 -62 32.5 -101t94.5 -39z" />
    <glyph glyph-name="ff.sc" horiz-adv-x="912" 
d="M160 0h-137l86 540h350l-19 -114h-213l-16 -105h173l-18 -113h-173zM616 0h-137l86 540h350l-19 -114h-213l-16 -105h173l-18 -113h-173z" />
    <glyph glyph-name="fi.sc" horiz-adv-x="738" 
d="M160 0h-137l86 540h350l-19 -114h-213l-16 -105h173l-18 -113h-173zM616 0h-137l86 541h137z" />
    <glyph glyph-name="f_j.sc" horiz-adv-x="739" 
d="M160 0h-137l86 540h350l-19 -114h-213l-16 -105h173l-18 -113h-173zM379 -179l-30 113q79 20 106 48t39 105l72 454h137l-72 -456q-18 -113 -69.5 -166t-182.5 -98z" />
    <glyph glyph-name="fl.sc" horiz-adv-x="911" 
d="M160 0h-137l86 540h350l-19 -114h-213l-16 -105h173l-18 -113h-173zM842 1h-363l86 540h137l-67 -422h226z" />
    <glyph glyph-name="f_t.sc" horiz-adv-x="963" 
d="M160 0h-137l86 540h350l-19 -114h-213l-16 -105h173l-18 -113h-173zM730 0h-138l67 425h-164l18 115h466l-18 -115h-164z" />
    <glyph glyph-name="ffi.sc" horiz-adv-x="1194" 
d="M160 0h-137l86 540h350l-19 -114h-213l-16 -105h173l-18 -113h-173zM616 0h-137l86 540h350l-19 -114h-213l-16 -105h173l-18 -113h-173zM1072 0h-137l86 541h137z" />
    <glyph glyph-name="ffl.sc" horiz-adv-x="1367" 
d="M160 0h-137l86 540h350l-19 -114h-213l-16 -105h173l-18 -113h-173zM616 0h-137l86 540h350l-19 -114h-213l-16 -105h173l-18 -113h-173zM1298 1h-363l86 540h137l-67 -422h226z" />
    <glyph glyph-name="zero_slash" horiz-adv-x="672" 
d="M295 -15q-55 0 -96.5 16.5t-67 43.5t-41 65t-21.5 75.5t-6 81.5q0 21 1 45.5t8 76.5t19 97.5t37.5 98.5t59 90.5t88 63t121.5 25.5q55 0 97 -17t67.5 -44t41 -65t21.5 -75.5t6 -80.5q0 -28 -2 -60.5t-10.5 -83t-22 -96t-39.5 -94t-60 -83.5t-86 -57.5t-115 -22.5z
M485 543l-228 -433q16 -13 45 -13q47 0 83 35t54.5 82t30 105.5t14.5 95.5t3 62q0 52 -2 66zM206 207l225 431q-18 13 -45 13q-82 0 -131.5 -111t-49.5 -275q0 -47 1 -58z" />
    <glyph glyph-name="emacron.sc" horiz-adv-x="496" 
d="M402 1h-378l85 539h357l-18 -114h-219l-14 -93h176l-18 -113h-176l-16 -101h240zM506 611h-417l17 109h417z" />
    <glyph glyph-name="edotaccent.sc" horiz-adv-x="496" 
d="M402 1h-378l85 539h356l-18 -114h-219l-14 -93h176l-18 -113h-176l-16 -101h241zM388 689q0 -32 -25.5 -55t-59.5 -23q-26 0 -43.5 17.5t-17.5 42.5q0 32 25 55.5t58 23.5q28 0 45.5 -17.5t17.5 -43.5z" />
    <glyph glyph-name="ecaron.sc" horiz-adv-x="496" 
d="M402 1h-378l85 539h356l-18 -114h-219l-14 -93h176l-18 -113h-176l-16 -101h241zM497 735l-193 -136l-152 136l84 79l87 -84l120 84z" />
    <glyph glyph-name="egrave.sc" horiz-adv-x="496" 
d="M402 1h-378l85 539h356l-18 -114h-219l-14 -93h176l-18 -113h-176l-16 -101h241zM379 641l-74 -46l-153 162l124 85z" />
    <glyph glyph-name="uni1E6B.alt" horiz-adv-x="374" 
d="M308 80l-64 -93q-25 0 -45.5 2.5t-43.5 9.5t-37.5 19t-27.5 31t-14.5 46.5t2.5 64.5l39 247h-87l16 103h87l28 173h131l-28 -173h119l-16 -103h-119l-36 -226q-3 -18 -3.5 -32.5t2.5 -24.5t7 -17.5t12 -12.5t14.5 -7.5t19 -4t21 -2t23.5 -0.5zM328 820q0 -35 -27.5 -61.5
t-64.5 -26.5q-27 0 -46 20t-19 48q0 35 28 62t62 27q30 0 48.5 -19.5t18.5 -49.5z" />
    <glyph glyph-name="uni1E6B.alt2" horiz-adv-x="401" 
d="M358 809q-5 -32 -31 -54.5t-60 -22.5q-27 0 -46 20t-19 48q0 36 28 62.5t62 26.5t53 -23t13 -57zM218 0h-131l64 407h-122l16 103h122l28 173h131l-28 -173h122l-16 -103h-122z" />
    <glyph glyph-name="uni1E6B.semp" horiz-adv-x="331" 
d="M286 821q0 -36 -26.5 -62.5t-64.5 -26.5q-28 0 -47 20t-19 48q0 36 28.5 62.5t62.5 26.5q30 0 48 -19.5t18 -48.5zM145 0h-131l105 664h131l-24 -154h124l-17 -103h-124z" />
    <glyph glyph-name="tbar.alt" horiz-adv-x="377" 
d="M311 80l-64 -93q-39 0 -68.5 6.5t-56.5 23.5t-38 53.5t-3 89.5l12 77h-77l14 89h77l13 81h-87l16 103h87l28 173h131l-28 -173h119l-16 -103h-119l-13 -81h75l-14 -89h-75l-9 -56q-3 -18 -3.5 -32.5t2.5 -24.5t7 -17.5t12 -12.5t14.5 -7.5t19 -4t21 -2t23.5 -0.5z" />
    <glyph glyph-name="ff.semp2" horiz-adv-x="677" 
d="M547 407l-65 -407h-131l99 623q15 94 68 155.5t144 61.5q79 0 156 -44l-63 -95q-28 28 -77 28q-79 0 -97 -107l-18 -112h122l-16 -103h-122zM211 407l-65 -407h-132l92 577q15 94 68 155.5t144 61.5q79 0 155 -44l-61 -95q-32 28 -77 28q-81 0 -97 -107l-10 -66h121
l-16 -103h-122z" />
    <glyph glyph-name="ff.alt" horiz-adv-x="725" 
d="M152 -229h-131l101 636h-81l16 103h81l11 67q16 98 77 157.5t157 59.5q38 0 64 -9.5t69 -34.5l-62 -95q-32 28 -77 28q-81 0 -97 -107l-10 -66h121l-16 -103h-122zM547 -121h-132l84 528h-80l16 103h80l18 113q15 97 68 157t145 60q79 0 155 -44l-61 -95q-32 28 -78 28
q-79 0 -97 -107l-18 -112h122l-16 -103h-122z" />
    <glyph glyph-name="ff.semp" horiz-adv-x="677" 
d="M110 -229h-131l127 806q15 94 68 155.5t144 61.5q79 0 155 -44l-61 -95q-32 28 -77 28q-81 0 -97 -107l-10 -66h121l-16 -103h-122zM463 -121h-131l118 744q15 94 68 155.5t144 61.5q79 0 156 -44l-63 -95q-28 28 -77 28q-79 0 -97 -107l-18 -112h122l-16 -103h-122z" />
    <glyph glyph-name="fi.semp2" horiz-adv-x="596" 
d="M211 407l-65 -407h-132l99 621q15 95 68 156t149 61q79 0 138 -33l-68 -94q-36 16 -57 16q-81 0 -98 -107l-17 -110h121l-16 -103h-122zM485 0h-131l81 511h131zM603 658q0 -37 -30 -64.5t-64 -27.5q-29 0 -50 20.5t-21 50.5q0 37 29.5 65t65.5 28q30 0 50 -21t20 -51z
" />
    <glyph glyph-name="fi.alt" horiz-adv-x="622" 
d="M527 0h-131l80 511h131zM645 658q0 -37 -30 -64.5t-65 -27.5q-28 0 -49 20.5t-21 51.5q0 36 29 64t65 28q30 0 50.5 -21t20.5 -51zM152 -229h-131l101 636h-81l16 103h81l18 111q17 101 70 159t144 58q82 0 141 -33l-69 -94q-32 16 -57 16q-81 0 -98 -107l-17 -110h121
l-16 -103h-122z" />
    <glyph glyph-name="fi.semp" horiz-adv-x="596" 
d="M485 0h-131l81 511h131zM603 658q0 -37 -30 -64.5t-64 -27.5q-29 0 -50 20.5t-21 50.5q0 37 29.5 65t65.5 28q30 0 50 -21t20 -51zM110 -229h-131l134 850q15 95 68 156t149 61q79 0 138 -33l-68 -94q-36 16 -57 16q-81 0 -98 -107l-17 -110h121l-16 -103h-122z" />
    <glyph glyph-name="f_j" horiz-adv-x="642" 
d="M645 658q0 -37 -30 -64.5t-65 -27.5q-28 0 -49 20.5t-21 51.5q0 36 29 64t65 28q30 0 50.5 -21t20.5 -51zM289 -267l-33 98q37 10 57.5 19.5t35.5 20t24 36.5t14.5 51t14.5 81l75 472h130l-75 -476q-22 -142 -68.5 -204.5t-174.5 -97.5zM189 0h-131l64 407h-81l16 103h81
l18 111q17 101 70 159t144 58q82 0 141 -33l-69 -94q-32 16 -57 16q-81 0 -98 -107l-17 -110h121l-16 -103h-122z" />
    <glyph glyph-name="tbar.alt2" horiz-adv-x="401" 
d="M218 0h-131l38 237h-96l14 89h96l13 81h-122l16 103h122l28 173h131l-28 -173h122l-16 -103h-122l-13 -81h76l-14 -89h-76z" />
    <glyph glyph-name="f_j.semp" horiz-adv-x="597" 
d="M602 658q0 -37 -30 -64.5t-64 -27.5q-29 0 -50 20.5t-21 50.5q0 37 29.5 65t65.5 28q30 0 50 -21t20 -51zM110 -229h-131l134 850q15 95 68 156t149 61q79 0 138 -33l-68 -94q-36 16 -57 16q-81 0 -98 -107l-17 -110h121l-16 -103h-122zM448 -237l-136 -30l123 778h132z
" />
    <glyph glyph-name="tbar.semp" horiz-adv-x="361" 
d="M175 0h-131l38 237h-81l14 89h81l54 338h131l-25 -154h125l-16 -103h-125l-13 -81h76l-14 -89h-76z" />
    <glyph glyph-name="fl.semp2" horiz-adv-x="593" 
d="M211 407l-65 -407h-132l96 601q15 94 68 155.5t147 61.5q68 0 122 -23l-50 -104q-24 16 -58 16q-81 0 -98 -107l-14 -90h122l-16 -103h-122zM481 0h-131l130 820h131z" />
    <glyph glyph-name="fl.alt" horiz-adv-x="615" 
d="M524 0h-131l129 820h131zM152 -229h-131l101 636h-81l16 103h82l14 91q15 99 68 158t146 59q68 0 123 -23l-51 -104q-21 16 -56 16q-82 0 -99 -107l-14 -90h121l-16 -103h-122z" />
    <glyph glyph-name="fl.semp" horiz-adv-x="593" 
d="M481 0h-131l130 820h131zM110 -229h-131l131 830q15 94 68 155.5t147 61.5q68 0 122 -23l-50 -104q-24 16 -58 16q-81 0 -98 -107l-14 -90h122l-16 -103h-122z" />
    <glyph glyph-name="f_t" horiz-adv-x="690" 
d="M506 0h-131l64 407h-186l-64 -407h-131l64 407h-81l16 103h81l18 111q16 99 68.5 158t145.5 59q78 0 138 -32l-66 -95q-32 16 -57 16q-81 0 -98 -107l-17 -110h185l28 173h131l-28 -173h123l-16 -103h-123z" />
    <glyph glyph-name="f_t.semp" horiz-adv-x="666" 
d="M110 -229h-131l134 850q15 95 68 156t149 61q79 0 138 -33l-68 -94q-36 16 -57 16q-81 0 -98 -107l-17 -110h121l-16 -103h-122zM480 0h-131l106 664h131l-25 -154h124l-16 -103h-124z" />
    <glyph glyph-name="ffi.semp2" horiz-adv-x="932" 
d="M547 407l-65 -407h-131l99 623q15 93 67.5 155t144.5 62q77 0 142 -34l-68 -93q-32 16 -57 16q-81 0 -98 -107l-18 -112h122l-16 -103h-122zM211 407l-65 -407h-132l92 577q15 94 68 155.5t144 61.5q79 0 155 -44l-61 -95q-32 28 -77 28q-81 0 -97 -107l-10 -66h121
l-16 -103h-122zM821 0h-131l81 511h131zM939 658q0 -37 -30 -64.5t-64 -27.5q-28 0 -49 20.5t-21 51.5q0 36 29 64t65 28q30 0 50 -21t20 -51z" />
    <glyph glyph-name="ffi.alt" horiz-adv-x="968" 
d="M152 -229h-131l101 636h-81l16 103h81l11 67q16 98 77 157.5t157 59.5q38 0 64 -9.5t69 -34.5l-62 -95q-32 28 -77 28q-81 0 -97 -107l-10 -66h121l-16 -103h-122zM906 0h-131l80 511h131zM1024 658q0 -37 -30 -64.5t-65 -27.5q-28 0 -49 20.5t-21 51.5q0 36 29 64t65 28
q30 0 50.5 -21t20.5 -51zM547 -121h-131l84 528h-81l16 103h81l18 111q17 101 70 159t144 58q82 0 141 -33l-69 -94q-32 16 -57 16q-81 0 -98 -107l-17 -110h121l-16 -103h-122z" />
    <glyph glyph-name="ffi.semp" horiz-adv-x="932" 
d="M821 0h-131l81 511h131zM939 658q0 -37 -30 -64.5t-64 -27.5q-28 0 -49 20.5t-21 51.5q0 36 29 64t65 28q30 0 50 -21t20 -51zM110 -229h-131l127 806q15 94 68 155.5t144 61.5q79 0 155 -44l-61 -95q-32 28 -77 28q-81 0 -97 -107l-10 -66h121l-16 -103h-122zM463 -121
h-131l118 744q15 93 67.5 155t144.5 62q77 0 142 -34l-68 -93q-32 16 -57 16q-81 0 -98 -107l-18 -112h122l-16 -103h-122z" />
    <glyph glyph-name="ffl.semp2" horiz-adv-x="929" 
d="M547 407l-65 -407h-131l99 621q15 94 68 155.5t147 61.5q67 0 122 -23l-51 -104q-22 16 -56 16q-83 0 -99 -107l-17 -110h121l-16 -103h-122zM211 407l-65 -407h-132l92 577q15 94 68 155.5t144 61.5q79 0 155 -44l-61 -95q-32 28 -77 28q-81 0 -97 -107l-10 -66h121
l-16 -103h-122zM817 0h-131l130 820h131z" />
    <glyph glyph-name="ffl.alt" horiz-adv-x="962" 
d="M152 -229h-131l101 636h-81l16 103h81l11 67q16 98 77 157.5t157 59.5q38 0 64 -9.5t69 -34.5l-62 -95q-32 28 -77 28q-81 0 -97 -107l-10 -66h121l-16 -103h-122zM901 0h-131l129 820h131zM547 -121h-131l84 528h-81l16 103h82l14 91q15 99 68 158t146 59q68 0 123 -23
l-51 -104q-21 16 -56 16q-82 0 -99 -107l-14 -90h121l-16 -103h-122z" />
    <glyph glyph-name="ffl.semp" horiz-adv-x="929" 
d="M817 0h-131l130 820h131zM463 -121h-131l118 742q15 94 68 155.5t147 61.5q67 0 122 -23l-51 -104q-22 16 -56 16q-83 0 -99 -107l-17 -110h121l-16 -103h-122zM110 -229h-131l127 806q15 94 68 155.5t144 61.5q79 0 155 -44l-61 -95q-32 28 -77 28q-81 0 -97 -107
l-10 -66h121l-16 -103h-122z" />
    <glyph glyph-name="ij.semp" horiz-adv-x="531" 
d="M149 0h-131l81 511h131zM272 691q0 -41 -27.5 -68t-68.5 -27q-31 0 -50 19.5t-19 50.5q0 40 28 67t67 27q33 0 51.5 -19t18.5 -50zM377 -237l-136 -30l123 778h131zM441 596q-31 0 -50 19.5t-19 50.5q0 40 28 67t67 27q32 0 50.5 -19t18.5 -50q0 -41 -28 -68t-67 -27z
" />
    <glyph glyph-name="eng.alt" horiz-adv-x="566" 
d="M218 -267l-33 98q37 10 57.5 19.5t35.5 20t24 36.5t14.5 51t14.5 81l41 255q11 70 -12 96.5t-71 26.5q-53 0 -82 -20l-63 -397h-131l74 469q114 57 226 57q104 0 157 -50.5t38 -147.5l-46 -293q-11 -72 -24.5 -116t-40 -82t-69.5 -62t-110 -42z" />
    <glyph glyph-name="germandbls.alt" horiz-adv-x="590" 
d="M169 21l44 112q45 -35 90 -35q40 0 71.5 22t31.5 57q0 23 -16 42t-39 35t-46.5 34t-39.5 48.5t-16 69.5q0 25 5 46t19.5 41t21 28.5t28.5 29.5t23 22q50 50 50 93q0 25 -16.5 40.5t-40.5 15.5q-33 0 -61 -28.5t-37 -84.5l-96 -609h-131l96 605q16 102 78.5 161.5
t160.5 59.5q81 0 121 -39t40 -105q0 -48 -22 -88t-48 -62.5t-48 -50.5t-22 -55q0 -25 17.5 -44t43 -33.5t50.5 -32t42.5 -48.5t17.5 -74q0 -92 -71.5 -149t-167.5 -57q-72 0 -133 33z" />
    <glyph glyph-name="germandbls.semp" horiz-adv-x="624" 
d="M231 -245l18 118q57 11 107 67.5t50 119.5q0 42 -23.5 66t-59.5 24q-35 0 -80 -18l174 275h-166l-103 -651h-133l103 651h-73l16 103h74l14 91q16 102 68 159.5t142 57.5q61 0 132 -35l-65 -92q-24 16 -52 16q-75 0 -92 -107l-14 -90h345l-190 -287q71 -3 98.5 -35.5
t27.5 -94.5q0 -122 -84.5 -216t-233.5 -122z" />
    <glyph glyph-name="a.sc" 
d="M556 0h-148l-28 88h-233l-54 -88h-147l395 568zM348 186l-48 151l-93 -151h141z" />
    <glyph glyph-name="a.sc.semp" 
d="M556 0h-148l-20 64h-255l-40 -64h-147l395 568zM358 162l-55 175l-109 -175h164z" />
    <glyph glyph-name="b.sc" horiz-adv-x="538" 
d="M217 0h-194l86 541h165q196 0 196 -118q0 -49 -30 -81.5t-72 -43.5q106 -31 106 -128q0 -77 -65 -123.5t-192 -46.5zM211 322h24q89 0 89 63q0 51 -67 51h-28zM176 104h77q37 0 56.5 21.5t19.5 50.5q0 55 -64 55h-68z" />
    <glyph glyph-name="c.sc" horiz-adv-x="603" 
d="M481 148l49 -87q-37 -31 -96.5 -52.5t-130.5 -21.5q-127 0 -198 70t-71 180q0 133 100.5 225.5t248.5 92.5q32 0 60.5 -5.5t47 -12t37 -18t27 -18t20.5 -18t13 -12.5l-86 -92q-57 54 -136 54q-83 0 -135 -56t-52 -128q0 -62 42 -102t122 -40q24 0 47.5 4t39.5 9.5
t28.5 11.5t18 10.5t4.5 5.5z" />
    <glyph glyph-name="d.sc" horiz-adv-x="605" 
d="M211 0h-188l86 540h185q128 0 194.5 -58.5t66.5 -174.5q0 -139 -92 -223t-252 -84zM179 119h52q84 0 135 42.5t51 131.5q0 70 -34 100t-103 30h-53z" />
    <glyph glyph-name="e.sc" horiz-adv-x="496" 
d="M402 1h-378l85 539h356l-18 -114h-219l-14 -93h176l-18 -113h-176l-16 -101h241z" />
    <glyph glyph-name="f.sc" horiz-adv-x="456" 
d="M160 0h-137l86 540h350l-19 -114h-213l-16 -105h173l-18 -113h-173z" />
    <glyph glyph-name="g.sc" horiz-adv-x="654" 
d="M462 208h-127l17 109h271q-25 -166 -115.5 -249t-214.5 -83q-118 0 -189 70t-71 182q0 136 101.5 226.5t248.5 90.5q115 0 197 -68l-81 -101q-3 6 -13.5 15.5t-40.5 21.5t-68 12q-87 0 -143.5 -52.5t-56.5 -132.5q0 -61 35 -99t101 -38q59 0 100 30t49 66z" />
    <glyph glyph-name="h.sc" horiz-adv-x="633" 
d="M511 0h-135l34 217h-216l-34 -217h-137l86 541h137l-33 -206h216l33 206h135z" />
    <glyph glyph-name="j.sc" horiz-adv-x="283" 
d="M-76 -179l-30 113q78 20 105 48t39 105l72 454h137l-72 -456q-18 -113 -69.5 -166t-181.5 -98z" />
    <glyph glyph-name="j.sc.semp" horiz-adv-x="424" 
d="M216 217l33 209h-135l18 114h269l-56 -355q-9 -58 -33 -99.5t-57.5 -61.5t-66 -28.5t-69.5 -8.5q-87 0 -149 42l40 111q28 -35 101 -35q53 0 74 25.5t31 86.5z" />
    <glyph glyph-name="k.sc" horiz-adv-x="604" 
d="M563 0h-184l-187 207l-32 -207h-137l86 541h137l-29 -185l199 185h174l-308 -261z" />
    <glyph glyph-name="l.sc" horiz-adv-x="455" 
d="M386 1h-363l86 540h137l-67 -422h226z" />
    <glyph glyph-name="m.sc" horiz-adv-x="766" 
d="M673 0h-137l8 246l-215 -267l-127 267l-71 -246h-137l173 558l193 -359l318 358z" />
    <glyph glyph-name="n.sc" horiz-adv-x="660" 
d="M535 -20l-332 309l-44 -289h-137l90 557l332 -314l46 298h135z" />
    <glyph glyph-name="o.sc" horiz-adv-x="667" 
d="M622 307q0 -130 -101 -225t-235 -95q-114 0 -183.5 72t-69.5 179q0 133 102.5 225t232.5 92q112 0 183 -70.5t71 -177.5zM300 107q72 0 126.5 55t54.5 133q0 60 -33.5 99t-93.5 39q-72 0 -125.5 -55t-53.5 -134q0 -59 33 -98t92 -39z" />
    <glyph glyph-name="p.sc" horiz-adv-x="503" 
d="M160 0h-137l86 541h143q115 0 172 -37t57 -118q0 -92 -68 -151t-193 -59h-32zM205 284h29q99 0 99 82q0 28 -15 44t-56 16h-35z" />
    <glyph glyph-name="q.sc" horiz-adv-x="668" 
d="M601 8l-112 -94l-78 99q-53 -26 -128 -26q-109 0 -179.5 72t-70.5 180q0 132 102 224t233 92q112 0 183 -70.5t71 -178.5q0 -128 -105 -226zM300 107q72 0 126.5 55t54.5 133q0 60 -33.5 99t-93.5 39q-73 0 -126 -55t-53 -133q0 -60 33 -99t92 -39z" />
    <glyph glyph-name="r.sc" horiz-adv-x="516" 
d="M455 0h-157l-107 196l-31 -196h-137l86 541h151q221 0 221 -147q0 -71 -49 -119.5t-120 -59.5zM205 284h37q48 0 69.5 26.5t21.5 58.5q0 57 -66 57h-40z" />
    <glyph glyph-name="s.sc" horiz-adv-x="506" 
d="M472 486l-77 -94q-45 50 -107 50q-59 0 -59 -41q0 -22 22 -38.5t53 -30t62 -31t53 -51t22 -79.5q0 -48 -22.5 -84.5t-59 -57.5t-77 -31.5t-82.5 -10.5q-72 0 -128 28t-79 64l82 92q22 -27 58 -47t78 -20q34 0 56.5 14t22.5 37q0 18 -15.5 33.5t-39 26t-50.5 26
t-50.5 32.5t-39 47t-15.5 69q0 83 63.5 124t153.5 41q113 0 175 -68z" />
    <glyph glyph-name="t.sc" horiz-adv-x="507" 
d="M274 0h-138l67 425h-164l18 115h466l-18 -115h-164z" />
    <glyph glyph-name="u.sc" horiz-adv-x="617" 
d="M384 131l65 410h134l-76 -475q-91 -79 -252 -79q-237 0 -203 215l54 339h137l-42 -265q-19 -95 -7 -133t79 -38q62 0 111 26z" />
    <glyph glyph-name="v.sc" horiz-adv-x="593" 
d="M241 -34l-218 575h153l101 -321l206 321h155z" />
    <glyph glyph-name="w.sc" horiz-adv-x="842" 
d="M537 -30l-120 329l-219 -327l-168 569h151l67 -294l213 317l109 -320l163 297h147z" />
    <glyph glyph-name="x.sc" horiz-adv-x="636" 
d="M575 0h-174l-103 175l-164 -175h-172l276 281l-175 260h172l95 -158l151 158h173l-265 -266z" />
    <glyph glyph-name="y.sc" horiz-adv-x="535" 
d="M285 0h-138l35 218l-160 323h161l84 -209l156 209h159l-262 -323z" />
    <glyph glyph-name="z.sc" horiz-adv-x="572" 
d="M480 1h-518l344 421h-201l18 118h446l-341 -421h271z" />
    <glyph glyph-name="eth.sc" horiz-adv-x="619" 
d="M225 0h-188l34 217h-66l16 104h67l35 219h185q128 0 194.5 -58.5t66.5 -174.5q0 -139 -92 -223t-252 -84zM321 217h-113l-15 -98h52q84 0 135 42.5t51 131.5q0 70 -34 100t-103 30h-53l-16 -102h112z" />
    <glyph glyph-name="thorn.sc" horiz-adv-x="502" 
d="M160 0h-137l86 541h137l-14 -87h48q93 0 140 -36t47 -114q0 -96 -67.5 -155.5t-193.5 -59.5h-32zM191 197h29q51 0 75 24.5t24 60.5q0 57 -70 57h-35z" />
    <glyph glyph-name="aacute.sc" 
d="M527 757l-205 -162l-61 46l167 201zM556 0h-148l-28 88h-233l-54 -88h-147l395 568zM348 186l-48 151l-93 -151h141z" />
    <glyph glyph-name="aacute.sc.semp" 
d="M540 757l-205 -162l-61 46l167 201zM556 0h-148l-20 64h-255l-40 -64h-147l395 568zM358 162l-55 175l-109 -175h164z" />
    <glyph glyph-name="acircumflex.sc" 
d="M531 678l-80 -79l-92 84l-114 -84l-59 79l195 136zM556 0h-148l-28 88h-233l-54 -88h-147l395 568zM348 186l-48 151l-93 -151h141z" />
    <glyph glyph-name="acircumflex.sc.semp" 
d="M530 678l-80 -79l-92 84l-114 -84l-59 79l195 136zM556 0h-148l-20 64h-255l-40 -64h-147l395 568zM358 162l-55 175l-109 -175h164z" />
    <glyph glyph-name="adieresis.sc" 
d="M317 689q0 -32 -26 -55t-61 -23q-27 0 -45 17.5t-18 43.5q0 32 26 55t59 23q28 0 46.5 -17.5t18.5 -43.5zM550 690q0 -33 -24.5 -56t-62.5 -23q-27 0 -44.5 17.5t-17.5 42.5q0 33 25 56t59 23q31 0 48 -16.5t17 -43.5zM556 0h-148l-28 88h-233l-54 -88h-147l395 568z
M348 186l-48 151l-93 -151h141z" />
    <glyph glyph-name="adieresis.sc.semp" 
d="M316 689q0 -32 -26 -55t-61 -23q-27 0 -45 17.5t-18 43.5q0 32 26 55t59 23q28 0 46.5 -17.5t18.5 -43.5zM549 690q0 -33 -24.5 -56t-62.5 -23q-27 0 -44.5 17.5t-17.5 42.5q0 33 25 56t59 23q31 0 48 -16.5t17 -43.5zM556 0h-148l-20 64h-255l-40 -64h-147l395 568z
M358 162l-55 175l-109 -175h164z" />
    <glyph glyph-name="agrave.sc" 
d="M459 641l-75 -46l-154 162l125 85zM556 0h-148l-28 88h-233l-54 -88h-147l395 568zM348 186l-48 151l-93 -151h141z" />
    <glyph glyph-name="agrave.sc.semp" 
d="M450 641l-75 -46l-153 162l124 85zM556 0h-148l-20 64h-255l-40 -64h-147l395 568zM358 162l-55 175l-109 -175h164z" />
    <glyph glyph-name="aring.sc" 
d="M490 739q0 -57 -43.5 -98.5t-101.5 -41.5q-46 0 -75.5 30.5t-29.5 76.5q0 57 44 99t100 42q46 0 76 -31.5t30 -76.5zM359 674q19 0 35 17.5t16 38.5q0 18 -10.5 30.5t-25.5 12.5q-20 0 -36.5 -17.5t-16.5 -39.5q0 -17 10.5 -29.5t27.5 -12.5zM556 0h-148l-28 88h-233
l-54 -88h-147l395 568zM348 186l-48 151l-93 -151h141z" />
    <glyph glyph-name="aring.sc.semp" 
d="M490 739q0 -57 -43.5 -98.5t-101.5 -41.5q-46 0 -75.5 30.5t-29.5 76.5q0 57 44 99t100 42q46 0 76 -31.5t30 -76.5zM359 674q19 0 35 17.5t16 38.5q0 18 -10.5 30.5t-25.5 12.5q-20 0 -36.5 -17.5t-16.5 -39.5q0 -17 10.5 -29.5t27.5 -12.5zM556 0h-148l-20 64h-255
l-40 -64h-147l395 568zM358 162l-55 175l-109 -175h164z" />
    <glyph glyph-name="atilde.sc" 
d="M523 771l34 -68q-11 -15 -29 -34.5t-52.5 -40.5t-65.5 -21q-23 0 -55.5 20t-50.5 20q-10 0 -21 -3.5t-22 -11t-18 -12.5t-17.5 -14.5t-12.5 -11.5l-51 71q106 90 164 90q23 0 54 -20.5t50 -20.5q22 0 48.5 19t44.5 38zM556 0h-148l-28 88h-233l-54 -88h-147l395 568z
M348 186l-48 151l-93 -151h141z" />
    <glyph glyph-name="atilde.sc.semp" 
d="M525 771l34 -68q-13 -17 -30 -35t-51.5 -39.5t-66.5 -21.5q-23 0 -55.5 20t-50.5 20q-10 0 -20.5 -3.5t-22 -11t-18 -12.5t-18 -15t-12.5 -11l-51 71q106 90 164 90q23 0 54.5 -20.5t49.5 -20.5q22 0 49 19t45 38zM556 0h-148l-20 64h-255l-40 -64h-147l395 568zM358 162
l-55 175l-109 -175h164z" />
    <glyph glyph-name="aogonek.sc" 
d="M550 -115l-16 -97q-60 -38 -122 -38q-57 0 -99.5 30t-42.5 74q0 78 138 146l-28 88h-233l-54 -88h-147l395 568l219 -575q-82 -24 -116.5 -54.5t-34.5 -59.5q0 -28 30 -28q41 0 111 34zM348 186l-48 141l-93 -141h141z" />
    <glyph glyph-name="aogonek.sc.semp" horiz-adv-x="596" 
d="M550 -115l-16 -97q-60 -38 -122 -38q-57 0 -99.5 30t-42.5 74q0 78 138 146l-20 64h-255l-40 -64h-147l395 568l220 -575q-82 -24 -117 -54.5t-35 -59.5q0 -28 30 -28q41 0 111 34zM358 162l-55 175l-109 -175h164z" />
    <glyph glyph-name="abreve.sc" 
d="M412 753h99q-14 -59 -58.5 -106t-110.5 -47q-54 0 -86.5 40t-27.5 113h98q-6 -71 28 -71q44 0 58 71zM556 0h-148l-28 88h-233l-54 -88h-147l395 568zM348 186l-48 151l-93 -151h141z" />
    <glyph glyph-name="abreve.sc.semp" 
d="M412 753h99q-14 -59 -58.5 -106t-110.5 -47q-54 0 -86.5 40t-27.5 113h98q-6 -71 28 -71q44 0 58 71zM556 0h-148l-20 64h-255l-40 -64h-147l395 568zM358 162l-55 175l-109 -175h164z" />
    <glyph glyph-name="amacron.sc" 
d="M546 611h-417l17 109h417zM556 0h-148l-28 88h-233l-54 -88h-147l395 568zM348 186l-48 151l-93 -151h141z" />
    <glyph glyph-name="amacron.sc.semp" 
d="M546 611h-397l17 109h397zM556 0h-148l-20 64h-255l-40 -64h-147l395 568zM358 162l-55 175l-109 -175h164z" />
    <glyph glyph-name="uni1E03.sc" horiz-adv-x="538" 
d="M383 689q0 -31 -25.5 -54.5t-60.5 -23.5q-26 0 -43.5 17.5t-17.5 42.5q0 32 25 55.5t58 23.5q28 0 46 -17.5t18 -43.5zM217 0h-194l86 541h165q196 0 196 -118q0 -49 -30 -81.5t-72 -43.5q106 -31 106 -128q0 -77 -65 -123.5t-192 -46.5zM211 322h24q89 0 89 63
q0 51 -67 51h-28zM176 104h77q37 0 56.5 21.5t19.5 50.5q0 55 -64 55h-68z" />
    <glyph glyph-name="ccedilla.sc" horiz-adv-x="603" 
d="M232 -253h-141l137 208h157zM481 148l49 -87q-37 -31 -96.5 -52.5t-130.5 -21.5q-127 0 -198 70t-71 180q0 133 100.5 225.5t248.5 92.5q32 0 60.5 -5.5t47 -12t37 -18t27 -18t20.5 -18t13 -12.5l-86 -92q-57 54 -136 54q-83 0 -135 -56t-52 -128q0 -62 42 -102t122 -40
q24 0 47.5 4t39.5 9.5t28.5 11.5t18 10.5t4.5 5.5z" />
    <glyph glyph-name="cacute.sc" horiz-adv-x="603" 
d="M559 757l-206 -162l-62 46l167 201zM481 148l49 -87q-37 -31 -96.5 -52.5t-130.5 -21.5q-127 0 -198 70t-71 180q0 133 100.5 225.5t248.5 92.5q32 0 60.5 -5.5t47 -12t37 -18t27 -18t20.5 -18t13 -12.5l-86 -92q-57 54 -136 54q-83 0 -135 -56t-52 -128q0 -62 42 -102
t122 -40q24 0 47.5 4t39.5 9.5t28.5 11.5t18 10.5t4.5 5.5z" />
    <glyph glyph-name="ccaron.sc" horiz-adv-x="603" 
d="M550 735l-193 -136l-152 136l84 79l88 -84l118 84zM481 148l49 -87q-37 -31 -96.5 -52.5t-130.5 -21.5q-127 0 -198 70t-71 180q0 133 100.5 225.5t248.5 92.5q32 0 60.5 -5.5t47 -12t37 -18t27 -18t20.5 -18t13 -12.5l-86 -92q-57 54 -136 54q-83 0 -135 -56t-52 -128
q0 -62 42 -102t122 -40q24 0 47.5 4t39.5 9.5t28.5 11.5t18 10.5t4.5 5.5z" />
    <glyph glyph-name="ccircumflex.sc" horiz-adv-x="603" 
d="M541 678l-80 -79l-92 84l-114 -84l-59 79l195 136zM481 148l49 -87q-37 -31 -96.5 -52.5t-130.5 -21.5q-127 0 -198 70t-71 180q0 133 100.5 225.5t248.5 92.5q32 0 60.5 -5.5t47 -12t37 -18t27 -18t20.5 -18t13 -12.5l-86 -92q-57 54 -136 54q-83 0 -135 -56t-52 -128
q0 -62 42 -102t122 -40q24 0 47.5 4t39.5 9.5t28.5 11.5t18 10.5t4.5 5.5z" />
    <glyph glyph-name="cdotaccent.sc" horiz-adv-x="603" 
d="M437 689q0 -31 -25.5 -54.5t-59.5 -23.5q-27 0 -44.5 17.5t-17.5 43.5q0 32 25.5 55t58.5 23q28 0 45.5 -17.5t17.5 -43.5zM481 148l49 -87q-37 -31 -96.5 -52.5t-130.5 -21.5q-127 0 -198 70t-71 180q0 133 100.5 225.5t248.5 92.5q32 0 60.5 -5.5t47 -12t37 -18t27 -18
t20.5 -18t13 -12.5l-86 -92q-57 54 -136 54q-83 0 -135 -56t-52 -128q0 -62 42 -102t122 -40q24 0 47.5 4t39.5 9.5t28.5 11.5t18 10.5t4.5 5.5z" />
    <glyph glyph-name="dcaron.sc" horiz-adv-x="605" 
d="M522 735l-194 -136l-151 136l83 79l88 -84l119 84zM211 0h-188l86 540h185q128 0 194.5 -58.5t66.5 -174.5q0 -139 -92 -223t-252 -84zM179 119h52q84 0 135 42.5t51 131.5q0 70 -34 100t-103 30h-53z" />
    <glyph glyph-name="dcroat.sc" horiz-adv-x="619" 
d="M225 0h-188l34 217h-66l16 104h67l35 219h185q128 0 194.5 -58.5t66.5 -174.5q0 -139 -92 -223t-252 -84zM321 217h-113l-15 -98h52q84 0 135 42.5t51 131.5q0 70 -34 100t-103 30h-53l-16 -102h112z" />
    <glyph glyph-name="uni1E0B.sc" horiz-adv-x="605" 
d="M409 689q0 -32 -26 -55t-60 -23q-26 0 -43.5 17.5t-17.5 42.5q0 32 25 55.5t58 23.5q28 0 46 -17.5t18 -43.5zM211 0h-188l86 540h185q128 0 194.5 -58.5t66.5 -174.5q0 -139 -92 -223t-252 -84zM179 119h52q84 0 135 42.5t51 131.5q0 70 -34 100t-103 30h-53z" />
    <glyph glyph-name="eacute.sc" horiz-adv-x="496" 
d="M402 1h-378l85 539h356l-18 -114h-219l-14 -93h176l-18 -113h-176l-16 -101h241zM481 757l-205 -162l-62 46l168 201z" />
    <glyph glyph-name="ecircumflex.sc" horiz-adv-x="496" 
d="M402 1h-378l85 539h356l-18 -114h-219l-14 -93h176l-18 -113h-176l-16 -101h241zM491 678l-80 -79l-92 84l-114 -84l-59 79l195 136z" />
    <glyph glyph-name="edieresis.sc" horiz-adv-x="496" 
d="M402 1h-378l85 539h356l-18 -114h-219l-14 -93h176l-18 -113h-176l-16 -101h241zM274 689q0 -32 -25.5 -55t-60.5 -23q-27 0 -45 17.5t-18 43.5q0 32 26 55t59 23q28 0 46 -17.5t18 -43.5zM509 690q0 -33 -25 -56t-62 -23q-28 0 -45 17.5t-17 42.5q0 33 24.5 56t59.5 23
q30 0 47.5 -16.5t17.5 -43.5z" />
    <glyph glyph-name="four.sc" horiz-adv-x="523" 
d="M449 76h-81l-13 -79h-132l13 79h-251l18 79l355 403l87 7l-61 -389h81zM258 173l32 177l-147 -177h115z" />
    <glyph glyph-name="three.sc" horiz-adv-x="453" 
d="M-21 48l68 88q11 -16 45.5 -30.5t69.5 -14.5q46 0 72 25.5t26 59.5q0 35 -28.5 57t-74.5 22q-18 0 -41 -3l13 79q8 -1 25 -1q50 0 82 18.5t32 50.5q0 39 -50 39q-40 0 -92 -23l-22 92q18 15 62 27t85 12q70 0 109.5 -37.5t39.5 -86.5q0 -76 -91 -125q77 -34 77 -123
q0 -81 -67 -133.5t-171 -52.5q-66 0 -108.5 19.5t-60.5 40.5z" />
    <glyph glyph-name="two.sc" horiz-adv-x="496" 
d="M402 0h-412l7 79q52 16 122.5 63.5t129.5 116.5t59 126q0 31 -16.5 46.5t-43.5 15.5q-55 0 -118 -58l-48 83q97 80 199 80q74 0 118.5 -43.5t44.5 -109.5q0 -143 -215 -293h190z" />
    <glyph glyph-name="one.sc" horiz-adv-x="343" 
d="M221 -3h-135l63 395l-80 -24l-33 99l275 92z" />
    <glyph glyph-name="zero_slash.sc.alt" horiz-adv-x="703" 
d="M656 303q0 -130 -100.5 -223t-245.5 -93q-126 0 -200 72.5t-74 184.5q0 135 105 223t244 88q122 0 196.5 -71t74.5 -181zM222 153l125 280q-75 0 -119.5 -52.5t-44.5 -126.5q0 -60 39 -101zM473 388l-129 -281q74 0 119.5 53t45.5 128q0 59 -36 100z" />
    <glyph glyph-name="zero.sc.alt" horiz-adv-x="701" 
d="M655 305q0 -130 -103 -224t-246 -94q-123 0 -197 72.5t-74 181.5q0 133 106 223.5t245 90.5q120 0 194.5 -71t74.5 -179zM508 293q0 59 -36 99.5t-99 40.5q-75 0 -133 -54t-58 -130q0 -58 36 -100t100 -42q75 0 132.5 55t57.5 131z" />
    <glyph glyph-name="zero_slash.sc" horiz-adv-x="539" 
d="M225 -7q-188 0 -188 219q0 89 27 163.5t89.5 125.5t150.5 51q54 0 92.5 -18.5t58 -51t28 -67.5t8.5 -76q0 -35 -5 -74t-22.5 -89.5t-45 -89.5t-77.5 -66t-116 -27zM367 344v17l-193 -252q21 -23 58 -23q64 0 99.5 74t35.5 184zM160 183l188 252q-18 23 -56 23
q-63 0 -97.5 -71.5t-34.5 -186.5v-17z" />
    <glyph glyph-name="zero.sc" horiz-adv-x="539" 
d="M225 -7q-188 0 -188 219q0 89 27 163.5t89.5 125.5t150.5 51q54 0 92.5 -18.5t58 -51t28 -67.5t8.5 -76q0 -35 -5 -74t-22.5 -89.5t-45 -89.5t-77.5 -66t-116 -27zM241 96q35 0 60 30.5t35.5 76t15 79.5t4.5 58q0 41 -15.5 74.5t-52.5 33.5q-51 0 -83.5 -67.5
t-32.5 -160.5q0 -124 69 -124z" />
    <glyph glyph-name="nine.osf" horiz-adv-x="579" 
d="M171 -260l-80 81l47.5 47.5t85 89t70.5 83.5q-42 -13 -81 -13q-87 0 -135 58t-48 149q0 119 87 205.5t214 86.5q81 0 153 -55.5t72 -157.5q0 -227 -385 -574zM273 137q60 0 103 48t43 113q0 49 -29 82t-75 33q-58 0 -100 -47.5t-42 -109.5q0 -51 26.5 -85t73.5 -34z" />
    <glyph glyph-name="eight.osf" horiz-adv-x="610" 
d="M452 365q80 -48 80 -144q0 -97 -79 -166.5t-190 -69.5q-97 0 -158 53.5t-61 134.5q0 66 40 117t93 74q-33 19 -54 58.5t-21 90.5q0 70 42.5 122t102.5 76t124 24q91 0 149 -50.5t58 -130.5q0 -64 -35.5 -117t-90.5 -72zM392 219q0 39 -24.5 66.5t-63.5 27.5
q-47 0 -83.5 -37t-36.5 -89q0 -38 21 -65t62 -27q50 0 87.5 38t37.5 86zM322 412q46 0 82 36.5t36 86.5q0 37 -21 63t-62 26q-49 0 -85.5 -36t-36.5 -83q0 -38 24 -65.5t63 -27.5z" />
    <glyph glyph-name="seven.osf" horiz-adv-x="554" 
d="M96 -211h-146l414 621h-300l18 116h506z" />
    <glyph glyph-name="six.osf" horiz-adv-x="618" 
d="M420 772l80 -81q-3 -3 -47 -47.5t-85.5 -89.5t-70.5 -84q42 13 81 13q87 0 135 -58t48 -149q0 -119 -87 -205t-214 -86q-36 0 -74 12.5t-72.5 37t-56.5 67t-22 95.5q0 227 385 575zM276 98q58 0 100 47.5t42 109.5q0 51 -26.5 85t-73.5 34q-60 0 -103 -48t-43 -113
q0 -49 29 -82t75 -33z" />
    <glyph glyph-name="five.osf" horiz-adv-x="525" 
d="M-53 -155l68 103q13 -26 56.5 -54.5t91.5 -28.5q55 0 97.5 39t42.5 98q0 133 -229 190l148 314h273l-44 -115h-174l-56 -124q96 -28 153 -92.5t57 -156.5q0 -113 -84 -189.5t-204 -76.5q-56 0 -102 19.5t-65 38t-29 35.5z" />
    <glyph glyph-name="four.osf" horiz-adv-x="679" 
d="M440 -203h-143l45 204h-379l3 18l587 596h16l-78 -494l115 6l-20 -126h-114zM369 116l49 218l-224 -226z" />
    <glyph glyph-name="three.osf" horiz-adv-x="539" 
d="M349 212v-1q46 -25 71 -73t25 -101q0 -101 -81.5 -180t-213.5 -79q-57 0 -104.5 17.5t-67 33t-32.5 31.5l72 96q13 -22 56 -43.5t91 -21.5q68 0 109 43t41 95q0 58 -50.5 97.5t-117.5 39.5q-1 0 -5.5 -0.5t-6.5 -0.5l13 82q8 -1 24 -1q67 0 115 36.5t48 86.5
q0 31 -21 48.5t-57 17.5q-60 0 -118 -35l-25 98q24 19 77 36.5t107 17.5q83 0 129 -43.5t46 -112.5q0 -119 -124 -184z" />
    <glyph glyph-name="two.osf" horiz-adv-x="555" 
d="M458 0h-478l10 61q13 7 67 36.5t81 45.5t73.5 47t70.5 55t43.5 56.5t19.5 62.5q0 36 -21.5 60t-56.5 24q-37 0 -81 -26.5t-73 -55.5l-55 82q125 116 245 116q77 0 127 -47t50 -123q0 -49 -22.5 -95.5t-60 -82.5t-78 -63.5t-83.5 -45.5l239 3z" />
    <glyph glyph-name="one.osf" horiz-adv-x="478" 
d="M400 0h-399l18 109h134l45 285l-88 -33l-21 99l270 93l-73 -444h131z" />
    <glyph glyph-name="zero_slash.osf" horiz-adv-x="648" 
d="M282 -17q-111 0 -175 69.5t-64 179.5q0 137 94 225t218 88q108 0 172 -69.5t64 -177.5q0 -130 -89 -222.5t-220 -92.5zM452 381l-194 -287q13 -3 31 -3q76 0 133 58t57 140q0 55 -27 92zM179 148l190 283q-12 2 -25 2q-74 0 -130.5 -58.5t-56.5 -140.5q0 -49 22 -86z" />
    <glyph glyph-name="zero.osf" horiz-adv-x="648" 
d="M282 -17q-111 0 -175 69.5t-64 179.5q0 137 94 225t218 88q108 0 172 -69.5t64 -177.5q0 -130 -89 -222.5t-220 -92.5zM291 104q71 0 123.5 53.5t52.5 129.5q0 56 -32 94.5t-90 38.5q-71 0 -123.5 -53.5t-52.5 -129.5q0 -56 32 -94.5t90 -38.5z" />
    <glyph glyph-name="nine.tab" horiz-adv-x="669" 
d="M237 -24l-80 80q3 3 47 47.5t85.5 89.5t70.5 84q-42 -13 -81 -13q-87 0 -135 58t-48 149q0 119 87 205.5t214 86.5q81 0 153 -55.5t72 -157.5q0 -227 -385 -574zM339 373q60 0 103 48t43 113q0 49 -29 82t-75 33q-58 0 -100 -47.5t-42 -109.5q0 -51 26.5 -85t73.5 -34z
" />
    <glyph glyph-name="eight.tab" horiz-adv-x="669" 
d="M484 379q78 -48 78 -149q0 -102 -76 -173.5t-191 -71.5q-102 0 -161.5 56t-59.5 138q0 69 40.5 121.5t94.5 77.5q-31 18 -52.5 59t-21.5 95q0 73 42.5 127.5t102.5 79.5t125 25q90 0 148 -51.5t58 -135.5q0 -68 -37 -123t-90 -75zM298 95q49 0 87 40.5t38 92.5
q0 40 -24.5 69.5t-63.5 29.5q-46 0 -83.5 -40t-37.5 -94q0 -40 21.5 -69t62.5 -29zM354 427q46 0 82 39t36 93q0 39 -20.5 66t-61.5 27q-49 0 -85 -38.5t-36 -89.5q0 -40 23.5 -68.5t61.5 -28.5z" />
    <glyph glyph-name="seven.tab" horiz-adv-x="669" 
d="M189 -8h-159l432 639h-320l19 116h526z" />
    <glyph glyph-name="six.tab" horiz-adv-x="669" 
d="M451 772l80 -81q-3 -3 -47 -47.5t-85.5 -89.5t-70.5 -84q42 13 81 13q87 0 135 -58t48 -149q0 -119 -87 -205t-214 -86q-36 0 -74 12.5t-72.5 37t-56.5 67t-22 95.5q0 227 385 575zM307 98q58 0 100 47.5t42 109.5q0 51 -26.5 85t-73.5 34q-60 0 -103 -48t-43 -113
q0 -49 29 -82t75 -33z" />
    <glyph glyph-name="five.tab" horiz-adv-x="669" 
d="M38 50l62 110q21 -23 60 -41.5t77 -18.5q83 0 128.5 48.5t45.5 119.5q0 53 -30.5 88t-91.5 35q-62 0 -142 -25l156 381h312l-49 -107h-195l-64 -161q23 4 54 4q85 0 142 -59.5t57 -147.5q0 -55 -19.5 -105.5t-56.5 -92.5t-99 -67.5t-141 -25.5q-63 0 -120 21.5t-86 43.5z
" />
    <glyph glyph-name="four.tab" horiz-adv-x="669" 
d="M465 -4h-126l20 126h-344l14 87l466 576h95l-88 -555l103 1l-17 -109h-103zM372 230l48 304l-237 -306z" />
    <glyph glyph-name="three.tab" horiz-adv-x="669" 
d="M446 418v-1q48 -24 72.5 -73.5t24.5 -106.5q0 -101 -85.5 -176.5t-214.5 -75.5q-77 0 -129.5 27t-72.5 54l73 96q15 -22 57.5 -44t88.5 -22q69 0 110 43.5t41 100.5t-39.5 95t-105.5 38q-13 0 -35 -2l13 82q21 -3 40 -3q59 0 103.5 39.5t44.5 89.5q0 68 -83 68
q-24 0 -58.5 -11t-55.5 -24l-24 97q22 20 76.5 37.5t110.5 17.5q79 0 125.5 -50t46.5 -115q0 -116 -124 -181z" />
    <glyph glyph-name="two.tab" horiz-adv-x="669" 
d="M540 0h-522l13 85q56 26 134.5 78.5t141.5 112.5q149 140 149 269q0 51 -22 78.5t-64 27.5q-77 0 -159 -82l-52 89q123 106 244 106q90 0 144.5 -56.5t54.5 -140.5q0 -115 -99.5 -238t-231.5 -216q47 0 143 0.5t144 0.5z" />
    <glyph glyph-name="one.tab" horiz-adv-x="669" 
d="M584 1h-576l18 116h227l76 475l-185 -57l-19 99l370 138l-104 -655h211z" />
    <glyph glyph-name="zero_slash.tab" horiz-adv-x="669" 
d="M293 -15q-55 0 -96.5 16.5t-67 43.5t-41 65t-21.5 75.5t-6 81.5q0 21 1 45.5t8 76.5t19 97.5t37.5 98.5t59 90.5t88 63t121.5 25.5q55 0 97 -17t67.5 -44t41 -65t21.5 -75.5t6 -80.5q0 -28 -2 -60.5t-10.5 -83t-22 -96t-39.5 -94t-60 -83.5t-86 -57.5t-115 -22.5z
M483 543l-228 -433q16 -13 45 -13q47 0 83 35t54.5 82t30 105.5t14.5 95.5t3 62q0 52 -2 66zM204 207l225 431q-18 13 -45 13q-82 0 -131.5 -111t-49.5 -275q0 -47 1 -58z" />
    <glyph glyph-name="zero.tab" horiz-adv-x="669" 
d="M293 -15q-55 0 -96.5 16.5t-67 43.5t-41 65t-21.5 75.5t-6 81.5q0 21 1 45.5t8 76.5t19 97.5t37.5 98.5t59 90.5t88 63t121.5 25.5q55 0 97 -17t67.5 -44t41 -65t21.5 -75.5t6 -80.5q0 -28 -2 -60.5t-10.5 -83t-22 -96t-39.5 -94t-60 -83.5t-86 -57.5t-115 -22.5zM304 97
q54 0 97 54.5t64.5 136.5t21.5 171q0 192 -104 192q-54 0 -96.5 -52.5t-63.5 -133.5t-21 -173q0 -195 102 -195z" />
    <glyph glyph-name="five.alt" horiz-adv-x="565" 
d="M528 626h-176l-60 -114q100 -26 159 -88t59 -158q0 -120 -87 -198t-210 -78q-59 0 -115 21t-80.5 39t-38.5 33l77 100q89 -81 169 -81q60 0 101.5 42.5t41.5 103.5q0 77 -68.5 130t-178.5 70l155 293h306z" />
    <glyph glyph-name="question.sc" horiz-adv-x="382" 
d="M286 334l49 -59q-27 -33 -73 -61.5t-97 -28.5q-48 0 -83 28t-35 73q0 38 28 69t61.5 48.5t61.5 39t28 40.5q0 16 -18 16q-17 0 -41 -10.5t-37 -22.5l-38 64q80 56 148 56q49 0 76 -28.5t27 -65.5q0 -35 -28.5 -66t-62.5 -49.5t-62.5 -40.5t-28.5 -41q0 -22 23 -22
t55.5 22t46.5 39zM226 80q0 -37 -28.5 -63t-63.5 -26q-30 0 -48.5 19t-18.5 48q0 37 28 64t63 27q30 0 49 -19.5t19 -49.5z" />
    <glyph glyph-name="questiondown.sc" horiz-adv-x="383" 
d="M243 84l38 -64q-83 -55 -148 -55q-49 0 -75.5 28t-26.5 65q0 35 28.5 66t62 49.5t62 40.5t28.5 41q0 22 -23 22t-56 -22.5t-46 -38.5l-50 59q27 32 73.5 61t96.5 29q48 0 83.5 -28t35.5 -73q0 -37 -28 -68.5t-62 -49t-62 -38.5t-28 -40q0 -17 19 -17q17 0 41 10.5
t37 22.5zM306 491q0 -36 -27.5 -63t-63.5 -27q-30 0 -48.5 19.5t-18.5 49.5q0 36 27.5 63t63.5 27q30 0 48.5 -19.5t18.5 -49.5z" />
    <glyph glyph-name="exclam.sc" horiz-adv-x="275" 
d="M176 79q0 -35 -28.5 -61.5t-63.5 -26.5q-29 0 -48 19.5t-19 48.5q0 36 28 63t65 27q28 0 47 -20.5t19 -49.5zM183 215h-118l38 346h151z" />
    <glyph glyph-name="exclamdown.sc" horiz-adv-x="274" 
d="M241 492q0 -36 -28.5 -63t-63.5 -27q-29 0 -48 20t-19 50q0 36 28 62.5t64 26.5q28 0 47.5 -20t19.5 -49zM163 -9h-150l72 345h117z" />
    <glyph glyph-name="periodcentered.sc" horiz-adv-x="277" 
d="M220 319q0 -33 -28.5 -58t-65.5 -25q-30 0 -50 19t-20 46q0 35 28.5 59.5t65.5 24.5q31 0 50.5 -18.5t19.5 -47.5z" />
    <glyph glyph-name="commaaccent" horiz-adv-x="296" 
d="M90 -256h-123l119 205h161z" />
    <glyph glyph-name="plus.sc" horiz-adv-x="519" 
d="M457 187h-163l-23 -143h-107l23 143h-163l16 103h163l23 143h107l-23 -143h163z" />
    <glyph glyph-name="plus.dnom" horiz-adv-x="478" 
d="M422 157h-153l-22 -136h-108l22 136h-154l16 99h154l22 138h108l-22 -138h153z" />
    <glyph glyph-name="plus.sup" horiz-adv-x="478" 
d="M469 453h-153l-22 -136h-108l22 136h-154l16 99h154l22 138h108l-22 -138h153z" />
    <glyph glyph-name="plus.sinf" horiz-adv-x="477" 
d="M392 -32h-153l-22 -136h-108l22 136h-153l16 98h153l22 138h108l-22 -138h153z" />
    <glyph glyph-name="minus.sc" horiz-adv-x="563" 
d="M479 187h-433l16 103h433z" />
    <glyph glyph-name="minus.dnom" horiz-adv-x="521" 
d="M444 157h-415l16 99h415z" />
    <glyph glyph-name="minus.sup" horiz-adv-x="522" 
d="M491 453h-415l16 99h415z" />
    <glyph glyph-name="minus.sinf" horiz-adv-x="522" 
d="M414 -32h-414l15 98h415z" />
    <glyph glyph-name="multiply.sc" horiz-adv-x="505" 
d="M427 123l-89 -69l-100 136l-148 -135l-72 66l160 139l-115 136l92 71l104 -138l145 139l67 -71l-157 -142z" />
    <glyph glyph-name="multiply.sinf" horiz-adv-x="437" 
d="M335 -104l-79 -56l-94 103l-126 -102l-65 54l134 107l-98 107l80 57l95 -104l126 103l60 -56l-130 -107z" />
    <glyph glyph-name="divide.sc" horiz-adv-x="524" 
d="M459 186h-433l16 103h433zM338 399q0 -27 -22 -49.5t-52 -22.5q-22 0 -37 17.5t-15 38.5q0 27 23 49.5t50 22.5q26 0 39.5 -16.5t13.5 -39.5zM290 95q0 -28 -22 -50t-52 -22q-23 0 -38 16.5t-15 38.5q0 28 22.5 49.5t50.5 21.5q26 0 40 -15.5t14 -38.5z" />
    <glyph glyph-name="divide.dnom" horiz-adv-x="483" 
d="M425 157h-415l16 99h415zM267 74q0 -27 -20.5 -45.5t-51.5 -18.5q-23 0 -39 14.5t-16 35.5q0 26 22.5 45t50.5 19q25 0 39.5 -14t14.5 -36zM312 354q0 -25 -21 -44t-52 -19q-23 0 -39 14.5t-16 34.5q0 25 22.5 45t50.5 20q25 0 40 -14.5t15 -36.5z" />
    <glyph glyph-name="divide.sup" horiz-adv-x="482" 
d="M471 453h-415l16 99h415zM313 370q0 -27 -20.5 -45.5t-51.5 -18.5q-23 0 -39 14.5t-16 35.5q0 26 22.5 45t50.5 19q25 0 39.5 -14t14.5 -36zM358 650q0 -25 -21 -44t-52 -19q-23 0 -39 14.5t-16 34.5q0 25 22.5 45t50.5 20q25 0 40 -14.5t15 -36.5z" />
    <glyph glyph-name="divide.sinf" horiz-adv-x="484" 
d="M395 -32h-414l16 98h414zM237 -115q0 -27 -20.5 -45.5t-51.5 -18.5q-23 0 -39 14.5t-16 35.5q0 26 22.5 45t50.5 19q25 0 39.5 -14t14.5 -36zM282 164q0 -25 -21 -44t-52 -19q-23 0 -39 14.5t-16 34.5q0 25 22.5 45t50.5 20q25 0 40 -14.5t15 -36.5z" />
    <glyph glyph-name="equal.sc" horiz-adv-x="563" 
d="M464 94h-433l17 105h433zM493 277h-433l16 104h433z" />
    <glyph glyph-name="equal.dnom" horiz-adv-x="521" 
d="M430 69h-415l16 101h415zM458 245h-415l16 100h415z" />
    <glyph glyph-name="equal.sup" horiz-adv-x="521" 
d="M477 365h-415l16 101h415zM505 541h-415l16 100h415z" />
    <glyph glyph-name="equal.sinf" horiz-adv-x="521" 
d="M400 -120h-414l15 101h415zM428 55h-415l16 100h415z" />
    <glyph glyph-name="notequal.sc" horiz-adv-x="521" 
d="M444 94h-189l-69 -169l-104 22l58 147h-129l17 105h157l27 78h-172l16 104h201l78 189l102 -28l-68 -161h120l-16 -104h-148l-25 -78h161z" />
    <glyph glyph-name="plusminus.sc" horiz-adv-x="544" 
d="M441 1h-433l16 103h433zM485 279h-163l-22 -142h-107l22 142h-163l16 103h163l24 147h107l-24 -147h163z" />
    <glyph glyph-name="less.sc" horiz-adv-x="541" 
d="M381 23l-357 185l10 60l413 174l47 -91l-284 -115l247 -124z" />
    <glyph glyph-name="greater.sc" horiz-adv-x="540" 
d="M484 207l-413 -174l-47 90l284 115l-247 124l77 89l356 -184z" />
    <glyph glyph-name="section.alt" horiz-adv-x="437" 
d="M171 -139l48 831q21 24 78.5 51t125.5 27q20 0 31.5 -11.5t11.5 -28.5q0 -20 -16 -37t-35 -17q-20 0 -30 15.5t-7 31.5q-11 -3 -32.5 -19.5t-26.5 -23.5l-49 -830q-23 -37 -101 -77t-145 -40q-18 0 -28 11t-10 28q0 22 16 37.5t35 15.5t28.5 -14.5t8.5 -29.5
q23 7 52.5 31.5t44.5 48.5zM173 669l-44 -774q-4 -2 -11 -4.5t-21.5 -8t-23.5 -9.5l-9 -4l46 769q62 31 63 31z" />
    <glyph glyph-name="five.sc" horiz-adv-x="462" 
d="M390 435h-146l-38 -87q24 2 36 1q74 -4 115 -47t41 -108q0 -81 -62.5 -143.5t-176.5 -62.5q-103 0 -175 50l55 103q45 -45 110 -45q48 0 78 27t30 70q0 74 -89 74q-40 0 -114 -20l121 286h262z" />
    <glyph glyph-name="two.dnom" horiz-adv-x="452" 
d="M370 0h-403q5 4 67 52.5t107 87t87.5 92.5t42.5 91q0 39 -44 39q-47 0 -104 -49l-47 80q87 69 181 69q66 0 104.5 -34t38.5 -92q0 -68 -48.5 -131t-112.5 -104h147z" />
    <glyph glyph-name="six.sc" horiz-adv-x="505" 
d="M323 549l77 -73q-29 -18 -83.5 -63t-83.5 -81q18 14 58 14q80 0 117.5 -41.5t37.5 -104.5q0 -84 -60 -147.5t-164 -63.5q-37 0 -69.5 9.5t-62.5 30.5t-47 61t-17 95q0 38 10 73t38 83.5t91.5 101.5t157.5 106zM224 93q35 0 61.5 26.5t26.5 63.5q0 29 -17 49t-47 20
q-36 0 -62.5 -28t-26.5 -64q0 -29 18 -48t47 -19z" />
    <glyph glyph-name="three.dnom" horiz-adv-x="392" 
d="M-25 40l64 85q13 -14 42 -25.5t55 -11.5q33 0 52.5 19t19.5 44q0 28 -25.5 42.5t-65.5 14.5q-18 0 -30 -1l12 70q6 -1 19 -1q38 0 66 15.5t28 41.5q0 30 -36 30t-75 -23l-20 89q17 14 55 23.5t76 9.5q64 0 97 -28.5t33 -69.5q0 -64 -74 -113q28 -13 44 -41.5t16 -62.5
q0 -62 -51.5 -110t-151.5 -48q-105 0 -150 51z" />
    <glyph glyph-name="four.dnom" horiz-adv-x="464" 
d="M398 60h-72l-11 -71h-117l11 71h-226l12 75l312 318h81l-47 -297h72zM228 149l21 132l-126 -132h105z" />
    <glyph glyph-name="five.dnom" horiz-adv-x="405" 
d="M332 356h-124l-27 -59q11 1 32 1q56 0 95 -38.5t39 -97.5q0 -69 -54.5 -121t-156.5 -52q-89 0 -158 44l54 101q37 -41 95 -41q37 0 59 18.5t22 54.5q0 26 -15.5 39.5t-54.5 13.5q-38 0 -102 -17l105 249h238z" />
    <glyph glyph-name="six.dnom" horiz-adv-x="435" 
d="M273 479l73 -67q-35 -26 -84.5 -67.5t-59.5 -54.5q29 10 58 10q65 0 97 -35.5t32 -88.5q0 -73 -55 -130t-153 -57q-86 0 -129.5 44t-43.5 104q0 55 39 118.5t90.5 111.5t88 77t47.5 35zM189 89q27 0 46 20.5t19 47.5q0 22 -12.5 36t-34.5 14q-27 0 -47 -21t-20 -48
q0 -22 13.5 -35.5t35.5 -13.5z" />
    <glyph glyph-name="seven.dnom" horiz-adv-x="435" 
d="M119 -6h-143l274 350h-200l16 104h385z" />
    <glyph glyph-name="eight.dnom" horiz-adv-x="449" 
d="M330 236q53 -27 53 -90q0 -64 -61.5 -110t-143.5 -46q-72 0 -120 36.5t-48 87.5q0 40 28 72.5t60 47.5q-24 9 -37.5 35t-13.5 55q0 65 65 108t142 43q67 0 111.5 -34.5t44.5 -87.5q0 -40 -25.5 -74t-54.5 -43zM254 146q0 17 -13.5 30t-34.5 13q-25 0 -45.5 -16.5
t-20.5 -38.5q0 -18 14.5 -31.5t35.5 -13.5q24 0 44 17.5t20 39.5zM283 332q0 17 -13 29.5t-35 12.5q-26 0 -45 -16t-19 -36q0 -18 13.5 -31.5t35.5 -13.5q25 0 44 17t19 38z" />
    <glyph glyph-name="nine.dnom" horiz-adv-x="435" 
d="M136 -28l-75 66q35 25 85 67t61 55q-30 -10 -58 -10q-65 0 -97 35.5t-32 88.5q0 73 54.5 130.5t152.5 57.5q84 0 130 -42t46 -98q0 -49 -39.5 -113t-90.5 -114.5t-90.5 -85t-46.5 -37.5zM202 243q27 0 46.5 20.5t19.5 47.5q0 22 -13.5 36t-35.5 14q-27 0 -46 -20.5
t-19 -47.5q0 -21 13 -35.5t35 -14.5z" />
    <glyph glyph-name="zero_slash.sinf" horiz-adv-x="472" 
d="M163 -201q-51 0 -86 16.5t-52.5 45t-24.5 57.5t-7 64q0 30 4 62t19 74.5t39 75t68 55.5t102 23q49 0 84 -16t52.5 -43.5t25 -57t7.5 -64.5q0 -27 -3.5 -56.5t-17.5 -74.5t-37 -78.5t-68 -58t-105 -24.5zM114 -32l142 202q-18 13 -39 13q-58 0 -88 -117q-14 -53 -15 -98z
M272 105l-141 -203q14 -13 35 -13q60 0 93 119q13 47 13 97z" />
    <glyph glyph-name="seven.sc" horiz-adv-x="480" 
d="M131 -7h-149l323 432h-238l17 107h429z" />
    <glyph glyph-name="eight.sc" horiz-adv-x="488" 
d="M357 271q57 -34 57 -107q0 -75 -65.5 -125.5t-150.5 -50.5q-76 0 -125.5 41t-49.5 102q0 47 29 85.5t67 53.5q-21 13 -37 43.5t-16 66.5q0 73 65.5 119.5t148.5 46.5q74 0 119.5 -38.5t45.5 -101.5q0 -45 -24 -82.5t-64 -52.5zM208 91q27 0 50 23.5t23 52.5
q0 23 -14.5 39t-37.5 16q-28 0 -50.5 -22t-22.5 -51q0 -24 15 -41t37 -17zM245 315q28 0 49.5 22t21.5 51q0 23 -14.5 38.5t-37.5 15.5q-29 0 -51 -21.5t-22 -49.5q0 -23 15 -39.5t39 -16.5z" />
    <glyph glyph-name="nine.sc" horiz-adv-x="506" 
d="M166 -24l-78 75q4 4 39 32t73.5 62t57.5 57q-15 -14 -58 -14q-80 0 -117 41.5t-37 104.5q0 85 60 148.5t174 63.5q35 0 65.5 -7.5t60 -25.5t47 -55t17.5 -90q0 -206 -304 -392zM244 282q36 0 63 27.5t27 64.5q0 29 -18.5 48t-48.5 19q-36 0 -61 -26.5t-25 -63.5
q0 -30 16.5 -49.5t46.5 -19.5z" />
    <glyph glyph-name="zero.sup" horiz-adv-x="472" 
d="M240 284q-51 0 -86.5 16.5t-53 45t-24.5 58t-7 63.5q0 30 4.5 62.5t19.5 75t38.5 75t68 55.5t102.5 23q49 0 84 -16t52.5 -43.5t25 -57t7.5 -64.5q0 -27 -3.5 -57t-17.5 -74.5t-37 -78.5t-68 -58.5t-105 -24.5zM252 385q32 0 53.5 38.5t28 77.5t6.5 70q0 34 -11.5 60.5
t-39.5 26.5q-39 0 -63 -53.5t-24 -125.5q0 -94 50 -94z" />
    <glyph glyph-name="zero_slash.sup" horiz-adv-x="472" 
d="M240 284q-51 0 -86.5 16.5t-53 45t-24.5 58t-7 63.5q0 30 4.5 62.5t19.5 75t38.5 75t68 55.5t102.5 23q49 0 84 -16t52.5 -43.5t25 -57t7.5 -64.5q0 -27 -3.5 -57t-17.5 -74.5t-37 -78.5t-68 -58.5t-105 -24.5zM191 453l142 203q-18 13 -39 13q-58 0 -88 -117
q-13 -52 -15 -99zM349 591l-141 -204q14 -13 35 -13q61 0 93 120q13 47 13 97z" />
    <glyph glyph-name="one.sup" horiz-adv-x="320" 
d="M256 294h-132l50 317l-75 -27l-31 94l263 87z" />
    <glyph glyph-name="two.sup" horiz-adv-x="452" 
d="M417 296h-404q3 2 67 52t108 87.5t87 92t43 91.5q0 39 -44 39q-47 0 -104 -49l-47 80q87 69 181 69q66 0 104.5 -34t38.5 -92q0 -68 -48.5 -131t-112.5 -104h147z" />
    <glyph glyph-name="three.sup" horiz-adv-x="392" 
d="M21 336l65 85q13 -14 42 -25.5t55 -11.5q33 0 52.5 19t19.5 44q0 28 -25.5 42.5t-65.5 14.5q-18 0 -30 -1l12 70q6 -1 19 -1q38 0 66 15.5t28 41.5q0 30 -36 30t-75 -23l-20 89q17 14 55 23.5t76 9.5q64 0 97 -28.5t33 -69.5q0 -64 -74 -113q28 -13 44 -41.5t16 -62.5
q0 -62 -51 -110.5t-152 -48.5q-105 0 -151 52z" />
    <glyph glyph-name="four.sup" horiz-adv-x="465" 
d="M445 356h-72l-11 -72h-117l11 72h-227l12 75l313 318h81l-47 -297h72zM275 445l21 132l-126 -132h105z" />
    <glyph glyph-name="zero.dnom" horiz-adv-x="472" 
d="M193 -11q-51 0 -86.5 16.5t-53 44.5t-24.5 57.5t-7 63.5q0 30 4.5 62.5t19.5 75t38.5 75t68 55.5t102.5 23q169 0 169 -181q0 -27 -3.5 -57t-17.5 -74.5t-37 -78t-68 -58t-105 -24.5zM205 89q32 0 53.5 38.5t28 77.5t6.5 70q0 34 -11.5 60.5t-39.5 26.5q-39 0 -63 -53.5
t-24 -125.5q0 -94 50 -94z" />
    <glyph glyph-name="five.sup" horiz-adv-x="405" 
d="M379 652h-124l-27 -59q11 1 32 1q56 0 95 -38.5t39 -97.5q0 -69 -54.5 -121.5t-156.5 -52.5q-85 0 -159 45l55 101q37 -41 95 -41q37 0 59 18.5t22 54.5q0 26 -15.5 39.5t-54.5 13.5q-38 0 -102 -17l105 249h238z" />
    <glyph glyph-name="six.sup" horiz-adv-x="434" 
d="M319 775l73 -67q-35 -26 -84.5 -67.5t-59.5 -54.5q29 10 58 10q65 0 97 -35.5t32 -88.5q0 -73 -55 -130.5t-153 -57.5q-86 0 -129.5 44.5t-43.5 104.5q0 55 39 118.5t90.5 111.5t88 77t47.5 35zM235 385q27 0 46 20.5t19 47.5q0 22 -12.5 36t-34.5 14q-27 0 -47 -21
t-20 -48q0 -22 13.5 -35.5t35.5 -13.5z" />
    <glyph glyph-name="zero_slash.dnom" horiz-adv-x="472" 
d="M193 -11q-51 0 -86.5 16.5t-53 44.5t-24.5 57.5t-7 63.5q0 30 4.5 62.5t19.5 75t38.5 75t68 55.5t102.5 23q169 0 169 -181q0 -27 -3.5 -57t-17.5 -74.5t-37 -78t-68 -58t-105 -24.5zM144 157l142 203q-18 13 -39 13q-59 0 -88 -117q-13 -52 -15 -99zM302 295l-141 -204
q14 -13 35 -13q35 0 58 36.5t35 83.5q13 54 13 97z" />
    <glyph glyph-name="seven.sup" horiz-adv-x="435" 
d="M166 289h-144l275 351h-200l16 104h385z" />
    <glyph glyph-name="eight.sup" horiz-adv-x="450" 
d="M377 532q53 -27 53 -90q0 -64 -62.5 -110.5t-143.5 -46.5q-71 0 -119 37t-48 88q0 39 28 71.5t60 48.5q-24 9 -37.5 35t-13.5 55q0 65 65 108t142 43q67 0 111.5 -34.5t44.5 -87.5q0 -40 -25.5 -74t-54.5 -43zM301 442q0 17 -13.5 30t-34.5 13q-25 0 -45.5 -16.5
t-20.5 -38.5q0 -18 14.5 -31.5t35.5 -13.5q24 0 44 17.5t20 39.5zM330 628q0 17 -13 29.5t-35 12.5q-26 0 -45 -16t-19 -36q0 -18 13.5 -31.5t35.5 -13.5q25 0 44 17t19 38z" />
    <glyph glyph-name="nine.sup" horiz-adv-x="434" 
d="M182 267l-75 67q35 25 85 67t61 55q-30 -10 -58 -10q-65 0 -97 35.5t-32 88.5q0 73 54.5 130.5t152.5 57.5q84 0 130 -42.5t46 -97.5q0 -49 -39.5 -113t-90.5 -114.5t-90.5 -85.5t-46.5 -38zM247 539q27 0 47 20.5t20 47.5q0 22 -13.5 36t-35.5 14q-27 0 -46 -20.5
t-19 -47.5q0 -22 13 -36t34 -14z" />
    <glyph glyph-name="percent.sc" horiz-adv-x="719" 
d="M222 -19l-76 23l324 557l81 -25zM161 314q-47 0 -76.5 32t-29.5 79q0 60 44 103.5t101 43.5q47 0 76.5 -32t29.5 -79q0 -60 -44 -103.5t-101 -43.5zM173 389q21 0 38.5 19t17.5 42q0 19 -11.5 33t-29.5 14q-21 0 -38.5 -19t-17.5 -42q0 -19 11.5 -33t29.5 -14zM509 -12
q-47 0 -77 32t-30 79q0 59 44.5 102.5t100.5 43.5q47 0 77 -31.5t30 -79.5q0 -59 -44.5 -102.5t-100.5 -43.5zM520 62q21 0 39 19t18 43q0 19 -12 32.5t-30 13.5q-21 0 -38.5 -18.5t-17.5 -42.5q0 -19 11.5 -33t29.5 -14z" />
    <glyph glyph-name="perthousand.sc" horiz-adv-x="1052" 
d="M244 -19l-76 23l324 557l81 -25zM161 314q-47 0 -76.5 32t-29.5 79q0 60 44 103.5t101 43.5q47 0 76.5 -32t29.5 -79q0 -60 -44 -103.5t-101 -43.5zM173 389q21 0 38.5 19t17.5 42q0 19 -11.5 33t-29.5 14q-21 0 -38.5 -19t-17.5 -42q0 -19 11.5 -33t29.5 -14zM509 -12
q-47 0 -77 32t-30 79q0 59 44.5 102.5t100.5 43.5q47 0 77 -31.5t30 -79.5q0 -59 -44.5 -102.5t-100.5 -43.5zM520 62q21 0 39 19t18 43q0 19 -12 32.5t-30 13.5q-21 0 -38.5 -18.5t-17.5 -42.5q0 -19 11.5 -33t29.5 -14zM842 -12q-47 0 -76.5 31.5t-29.5 78.5q0 59 44 103
t101 44q47 0 77 -32t30 -79q0 -59 -44.5 -102.5t-101.5 -43.5zM853 62q21 0 39 19t18 43q0 19 -11.5 32.5t-29.5 13.5q-21 0 -38.5 -18.5t-17.5 -42.5q0 -19 11 -33t29 -14z" />
    <glyph glyph-name="dollar.alt" horiz-adv-x="562" 
d="M279 -103h-102l14 91q-66 7 -116.5 37t-72.5 62l79 92q66 -79 163 -79q57 0 91.5 30t34.5 78q0 23 -7.5 41.5t-25 34t-33 25.5t-43.5 25q-70 39 -107 81.5t-37 115.5q0 84 52.5 136t140.5 69l13 84h102l-13 -80q37 -6 69 -24.5t45.5 -32.5t20.5 -25l-74 -95
q-54 67 -117 67q-42 0 -76 -24t-34 -65q0 -31 21 -50t65 -43q7 -3 10 -5q86 -47 123 -96t37 -120q0 -99 -60.5 -160.5t-147.5 -72.5z" />
    <glyph glyph-name="dollar.sc" horiz-adv-x="484" 
d="M146 -97l-56 4l31 91q-70 19 -116 67l74 88q33 -35 80 -49l45 125q-37 24 -57 39.5t-38 46.5t-18 69q0 73 53.5 118.5t126.5 45.5q20 0 45 -5l27 77l56 -4l-31 -88q26 -12 46 -28t25 -23l-69 -89q-18 20 -40 33l-35 -99q63 -43 87.5 -77t24.5 -76q0 -74 -57.5 -127
t-146.5 -53q-17 0 -26 1zM253 203l-40 -111q4 -1 11 -1q25 0 41.5 17.5t16.5 44.5q0 33 -29 50zM247 348l31 91q-10 3 -19 3q-21 0 -36 -14t-15 -33q0 -27 39 -47z" />
    <glyph glyph-name="dollar.dnom" horiz-adv-x="388" 
d="M101 -88l-61 4l31 84q-55 17 -89 57l63 76q23 -25 61 -39l42 114q-48 25 -71 49.5t-23 65.5q0 66 53.5 108t117.5 42q10 0 22 -2l30 78l60 -3l-34 -92q34 -17 54 -42l-59 -80q-19 19 -31 26l-30 -82q45 -24 69 -51t24 -76q0 -75 -56.5 -117.5t-127.5 -42.5
q-7 0 -10.5 0.5t-5.5 0.5zM200 176l-34 -92q53 3 53 49q0 26 -19 43zM184 304l29 74q-20 -1 -34.5 -11.5t-14.5 -28.5q0 -17 20 -34z" />
    <glyph glyph-name="dollar.sup" horiz-adv-x="388" 
d="M154 242l-61 4l31 85q-56 17 -90 57l64 76q23 -25 61 -39l42 114q-48 25 -71 49.5t-23 65.5q0 66 53.5 108t117.5 42q10 0 22 -2l30 78l60 -3l-34 -92q34 -17 54 -42l-59 -80q-19 19 -31 26l-30 -82q45 -24 69 -51t24 -76q0 -75 -56.5 -118t-127.5 -43q-7 0 -10.5 0.5
t-5.5 0.5zM253 507l-34 -92q53 3 53 49q0 26 -19 43zM237 635l29 74q-20 -1 -34.5 -11.5t-14.5 -28.5q0 -17 20 -34z" />
    <glyph glyph-name="dollar.sinf" horiz-adv-x="387" 
d="M71 -278l-61 4l31 85q-55 17 -89 57l63 76q23 -25 61 -39l42 113q-48 25 -71 49.5t-23 65.5q0 66 53.5 108t117.5 42q10 0 22 -2l30 78l60 -3l-34 -92q34 -17 54 -42l-59 -80q-19 19 -31 26l-30 -82q45 -24 69 -51t24 -75q0 -75 -56.5 -118t-127.5 -43q-7 0 -10.5 0.5
t-5.5 0.5zM170 -13l-34 -92q53 3 53 49q0 26 -19 43zM154 114l29 74q-20 -1 -34.5 -11.5t-14.5 -28.5q0 -17 20 -34z" />
    <glyph glyph-name="one.dnom" horiz-adv-x="320" 
d="M209 -1h-132l50 316l-75 -27l-31 94l263 87z" />
    <glyph glyph-name="cent.sc" horiz-adv-x="447" 
d="M225 -18h-78l15 100q-60 15 -93 56t-33 103q0 76 49.5 129.5t133.5 70.5l15 100h80l-17 -101q38 -6 71 -26.5t42 -34.5l-57 -68q-27 27 -71 34l-27 -172q51 2 89 36l36 -64q-67 -61 -140 -67zM178 179l26 166q-32 -6 -54.5 -32.5t-22.5 -61.5q0 -30 15.5 -50.5
t35.5 -21.5z" />
    <glyph glyph-name="cent.dnom" horiz-adv-x="391" 
d="M205 -14h-77l11 73q-57 13 -91 53t-34 97q0 74 54 123t123 51l11 70h77l-12 -73q29 -6 59 -22.5t40 -27.5l-54 -74q-32 32 -60 32l-21 -134q38 0 73 24l24 -72q-38 -32 -111 -43zM155 156l21 134q-26 -2 -45.5 -25.5t-19.5 -53.5q0 -49 44 -55z" />
    <glyph glyph-name="cent.sup" horiz-adv-x="390" 
d="M251 281h-77l11 74q-57 13 -91 53t-34 97q0 74 54 123t123 51l11 70h77l-12 -73q29 -6 59 -22.5t40 -27.5l-54 -74q-32 32 -60 32l-21 -134q38 0 73 24l24 -72q-38 -32 -111 -43zM201 452l21 134q-26 -2 -45.5 -25.5t-19.5 -53.5q0 -49 44 -55z" />
    <glyph glyph-name="cent.sinf" horiz-adv-x="392" 
d="M175 -204h-77l11 74q-56 13 -90 52.5t-34 96.5q0 74 53.5 123t122.5 51l11 70h77l-12 -73q29 -6 59 -22.5t40 -27.5l-54 -74q-32 32 -60 32l-21 -133q38 0 73 24l24 -72q-38 -32 -111 -43zM125 -33l21 133q-26 -2 -45.5 -25.5t-19.5 -53.5q0 -48 44 -54z" />
    <glyph glyph-name="sterling.sc" horiz-adv-x="522" 
d="M441 105l-3 -100q-70 -16 -116 -16q-24 0 -62 8.5t-57 8.5q-40 0 -95 -18.5t-78 -30.5l-30 95q12 7 47.5 20t64.5 19l17 112h-60l16 101h60l13 81q13 83 60 121.5t112 38.5q14 0 28 -2t23 -4.5t21.5 -8t17 -8t16.5 -9.5t14 -8l-67 -89q-31 25 -54 25q-17 0 -28.5 -12.5
t-14.5 -32.5l-15 -92h106l-16 -101h-111l-16 -102q6 1 18 1q18 0 48 -7t47 -7q35 0 94 17z" />
    <glyph glyph-name="sterling.dnom" horiz-adv-x="459" 
d="M393 110l-6 -98q-58 -22 -119 -22q-18 0 -54 8.5t-56 8.5q-24 0 -76.5 -16.5t-75.5 -25.5l-25 90q2 1 20 8t40.5 15.5t38.5 12.5l11 74h-50l14 84h50l12 76q11 67 58.5 100.5t114.5 33.5q64 0 108 -47l-68 -77q-4 10 -15.5 20t-25.5 10q-37 0 -45 -43l-12 -73h78l-14 -84
h-77l-10 -63q7 1 20 1q21 0 45.5 -8.5t39.5 -8.5q25 0 79 24z" />
    <glyph glyph-name="sterling.sup" horiz-adv-x="459" 
d="M440 406l-6 -98q-60 -23 -119 -23q-18 0 -54 9t-56 9q-45 0 -152 -43l-26 91q2 1 20.5 8t41 15.5t38.5 12.5l11 74h-50l14 84h50l12 76q11 67 58.5 100.5t114.5 33.5q64 0 108 -47l-68 -77q-4 10 -15.5 20t-25.5 10q-37 0 -45 -43l-12 -73h78l-14 -84h-77l-10 -63
q7 1 20 1q21 0 45.5 -8.5t39.5 -8.5q25 0 79 24z" />
    <glyph glyph-name="sterling.sinf" horiz-adv-x="460" 
d="M364 -79l-6 -98q-60 -23 -119 -23q-18 0 -54 9t-56 9q-43 0 -151 -43l-26 91q2 1 20 8t40.5 15.5t38.5 12.5l11 74h-50l14 83h50l12 76q11 67 58.5 100.5t114.5 33.5q64 0 108 -47l-68 -77q-4 10 -15.5 20t-25.5 10q-37 0 -45 -43l-12 -73h78l-14 -83h-77l-10 -63
q7 1 20 1q21 0 45.5 -8.5t39.5 -8.5q25 0 79 24z" />
    <glyph glyph-name="Euro.alt" horiz-adv-x="635" 
d="M515 131l31 -83q-12 -8 -32.5 -18.5t-69.5 -25.5t-96 -15q-125 0 -205 94t-80 248q0 97 34 180.5t90.5 139.5t129 87.5t148.5 31.5q118 0 195 -65l-73 -86l-13 7q-13 6 -23.5 10.5t-27.5 10.5t-37 9.5t-40 3.5q-65 0 -124 -36.5t-97 -106.5h265l-16 -97h-292
q-9 -22 -9 -58h292l-15 -96h-270q18 -85 61.5 -125.5t125.5 -40.5q43 0 85 9.5t63 21.5z" />
    <glyph glyph-name="Euro.sc" horiz-adv-x="551" 
d="M437 121l24 -87q-65 -45 -154 -45q-85 0 -138.5 48.5t-64.5 132.5h-86l39 86h363l-40 -86h-157q6 -45 35 -66t67 -21q35 0 68 14t44 24zM408 299h-358l34 86h54q35 89 101.5 133.5t152.5 44.5q72 0 150 -44l-59 -83q-57 31 -109 31q-81 0 -118 -82h191z" />
    <glyph glyph-name="Euro.alt.sc" horiz-adv-x="525" 
d="M405 118l29 -76q-80 -49 -163 -49q-102 0 -165 72t-63 183q0 137 92.5 228.5t213.5 91.5q51 0 96.5 -17t72.5 -38l-69 -80q-9 10 -42 21t-68 11q-42 0 -83 -18t-66 -59h212l-12 -76h-230q-9 -22 -9 -48h231l-12 -75h-215q23 -97 136 -97q64 0 114 26z" />
    <glyph glyph-name="Euro.dnom" horiz-adv-x="488" 
d="M357 253h-335l36 72h46q31 69 92.5 111t137.5 42q74 0 143 -46l-63 -80q-54 28 -96 28q-60 0 -96 -55h170zM383 113l29 -86q-8 -5 -25 -12.5t-52.5 -16.5t-69.5 -9q-77 0 -127.5 42.5t-61.5 111.5h-75l36 72h325l-34 -72h-132q23 -57 84 -57q13 0 27 2.5t27 6.5t22 7
t18 7z" />
    </font>
</defs>
</svg>
