<?xml version="1.0" standalone="no"?>
<!DOCTYPE svg PUBLIC "-//W3C//DTD SVG 1.1//EN" "http://www.w3.org/Graphics/SVG/1.1/DTD/svg11.dtd" >
<svg xmlns="http://www.w3.org/2000/svg" xmlns:xlink="http://www.w3.org/1999/xlink" version="1.1">
<metadata>
Created by FontForge 20201107 at Tue Sep  4 00:04:08 2012
 By 
Copyright (c) 2011 Canada Type. Designed by Patrick Griffin &#38; Bill Troop. All rights reserved. 
</metadata>
<defs>
<font id="SemplicitaPro-Regular" horiz-adv-x="549" >
  <font-face 
    font-family="Semplicita Pro"
    font-weight="400"
    font-stretch="normal"
    units-per-em="1000"
    panose-1="0 0 0 0 0 0 0 0 0 0"
    ascent="800"
    descent="-200"
    x-height="480"
    cap-height="757"
    bbox="-135 -301 1242 1079"
    underline-thickness="50"
    underline-position="-249"
    unicode-range="U+0020-FB04"
  />
<missing-glyph horiz-adv-x="589" 
d="M526 0h-481v758h481v-758zM470 52v654h-369v-654h369z" />
    <glyph glyph-name=".notdef" horiz-adv-x="589" 
d="M526 0h-481v758h481v-758zM470 52v654h-369v-654h369z" />
    <glyph glyph-name=".null" horiz-adv-x="0" 
 />
    <glyph glyph-name="nonmarkingreturn" horiz-adv-x="333" 
 />
    <glyph glyph-name="space" unicode=" " horiz-adv-x="240" 
 />
    <glyph glyph-name="exclam" unicode="!" horiz-adv-x="255" 
d="M148 197h-47l-19 560h94zM183 41q0 -21 -15.5 -36.5t-38.5 -15.5q-22 0 -37.5 15.5t-15.5 36.5q0 23 15.5 39t37.5 16q24 0 39 -15.5t15 -39.5z" />
    <glyph glyph-name="quotedbl" unicode="&#x22;" horiz-adv-x="369" 
d="M133 480h-54l-12 281h78zM290 480h-54l-12 281h78z" />
    <glyph glyph-name="numbersign" unicode="#" horiz-adv-x="656" 
d="M413 -10l-58 6l30 243h-149l-31 -249l-58 6l31 243h-123l6 58h124l18 151h-121l6 58h122l32 247l59 -5l-31 -242h149l31 247l59 -5l-31 -242h123l-4 -58h-126l-19 -151h121l-3 -58h-125zM393 297l19 151h-149l-20 -151h150z" />
    <glyph glyph-name="dollar" unicode="$" horiz-adv-x="562" 
d="M321 -109l-56 2v97q-68 1 -128.5 31.5t-85.5 64.5l41 52q66 -78 173 -83l-1 310q-34 17 -51.5 26.5t-44.5 29t-40.5 36.5t-24 44t-10.5 58q0 77 49 125t122 58v103h57v-101q53 -5 93.5 -27.5t62.5 -45.5l-39 -51q-54 52 -117 58v-262q41 -19 66 -34.5t55 -42t44.5 -64.5
t14.5 -87q0 -69 -48.5 -125t-131.5 -69v-103zM321 336v-276q47 11 75 44.5t28 82.5q0 51 -27 85.5t-76 63.5zM264 443v233q-42 -9 -69 -37t-27 -73q0 -43 24.5 -71t71.5 -52z" />
    <glyph glyph-name="percent" unicode="%" horiz-adv-x="818" 
d="M262 -21l-45 18l321 766l45 -18zM347 613q0 -62 -44 -105.5t-106 -43.5t-105 43.5t-43 105.5t43 105.5t105 43.5t106 -43.5t44 -105.5zM198 515q41 0 69 28.5t28 69.5t-28 69.5t-69 28.5q-40 0 -68 -28.5t-28 -69.5t28 -69.5t68 -28.5zM619 -11q-62 0 -105 43t-43 105
t43 105.5t105 43.5t105.5 -43.5t43.5 -105.5t-43.5 -105t-105.5 -43zM620 38q40 0 68 29t28 70t-28 69.5t-68 28.5q-41 0 -68.5 -28.5t-27.5 -69.5q0 -42 27.5 -70.5t68.5 -28.5z" />
    <glyph glyph-name="ampersand" unicode="&#x26;" horiz-adv-x="731" 
d="M749 0h-90l-108 130q-7 -16 -23.5 -37t-45 -46t-73.5 -42t-96 -17q-113 0 -190 77t-77 186q0 96 56 165t127 88q-1 1 -7 8.5t-9.5 13t-10 14.5t-11 18t-9 19.5t-6.5 22t-2 22.5q0 65 41 106.5t108 41.5q17 0 32 -2t27 -6.5t21.5 -8.5t19 -11t13.5 -10.5t12 -11t9 -8.5
l-43 -43q-45 42 -91 42q-36 0 -61 -21t-25 -64q0 -45 58 -111l262 1l-14 -55l-201 -1zM509 177l-241 279q-13 -2 -35 -13t-51 -33t-49.5 -62.5t-20.5 -91.5q0 -91 62.5 -149.5t139.5 -58.5q45 0 83 16t60.5 39t34.5 41.5t17 32.5z" />
    <glyph glyph-name="quotesingle" unicode="'" horiz-adv-x="212" 
d="M133 480h-54l-12 281h78z" />
    <glyph glyph-name="parenleft" unicode="(" horiz-adv-x="244" 
d="M199 -243l-52 -22q-84 225 -84 541q0 322 83 560l54 -22q-29 -88 -53 -233.5t-24 -302.5q0 -228 76 -521z" />
    <glyph glyph-name="parenright" unicode=")" horiz-adv-x="244" 
d="M98 -265l-53 22q76 286 76 521q0 157 -24 303t-52 233l53 22q83 -232 83 -560q0 -319 -83 -541z" />
    <glyph glyph-name="plus" unicode="+" horiz-adv-x="635" 
d="M351 104h-67v230h-227v60h227v230h67v-230h227v-60h-227v-230z" />
    <glyph glyph-name="comma" unicode="," horiz-adv-x="236" 
d="M73 -106h-54l74 196h75z" />
    <glyph glyph-name="hyphen" unicode="-" horiz-adv-x="394" 
d="M316 218h-246l8 57h246z" />
    <glyph glyph-name="period" unicode="." horiz-adv-x="236" 
d="M171 41q0 -21 -15 -36t-38 -15q-21 0 -37 15.5t-16 35.5q0 23 16 38.5t37 15.5q23 0 38 -15.5t15 -38.5z" />
    <glyph glyph-name="slash" unicode="/" horiz-adv-x="539" 
d="M91 -215l-53 19l409 1016l54 -24z" />
    <glyph glyph-name="zero" unicode="0" horiz-adv-x="656" 
d="M327 -12q-63 0 -110.5 25t-75 63.5t-44 92.5t-22 102t-5.5 103q0 54 5.5 102t22 102.5t43.5 93t74.5 64.5t110.5 26q64 0 112 -25t75.5 -63t44.5 -91.5t22.5 -103t5.5 -105.5q0 -55 -5.5 -104t-22.5 -102.5t-44.5 -91.5t-75.5 -63t-111 -25zM327 48q49 0 85 24t55 58
t30.5 82.5t14.5 84.5t3 77q0 42 -3.5 80t-15 85t-31 81t-55.5 57t-84 23q-185 0 -185 -326q0 -39 3.5 -76.5t15 -85t31 -82t54.5 -58.5t82 -24z" />
    <glyph glyph-name="one" unicode="1" horiz-adv-x="349" 
d="M240 -3h-69v677l-124 -54l-21 54l214 95v-772z" />
    <glyph glyph-name="two" unicode="2" horiz-adv-x="592" 
d="M536 0h-513v19q2 2 63 52.5t91.5 77.5t89 85.5t90 102.5t57.5 101.5t26 107.5q0 64 -41 109.5t-104 45.5q-50 0 -92.5 -26t-65.5 -57l-38 47q91 97 202 97q94 0 152.5 -61.5t58.5 -154.5q0 -206 -353 -485l377 2v-63z" />
    <glyph glyph-name="three" unicode="3" horiz-adv-x="556" 
d="M34 65l31 54q17 -23 63 -47.5t109 -24.5q87 0 134 46.5t47 112.5q0 77 -60 134.5t-160 58.5v36q90 4 141.5 49t51.5 101q0 49 -35 81t-97 32q-72 0 -128 -41l-23 50q16 18 63.5 36.5t98.5 18.5q85 0 137.5 -52t52.5 -121q0 -51 -29.5 -95.5t-91.5 -72.5v-2
q73 -30 111.5 -88.5t38.5 -126.5q0 -88 -67.5 -152t-183.5 -64q-53 0 -100.5 16.5t-69 31.5t-34.5 29z" />
    <glyph glyph-name="four" unicode="4" horiz-adv-x="622" 
d="M471 -3h-67v150h-379v19l436 609h10v-566h101v-62h-101v-150zM404 209v391l-272 -391h272z" />
    <glyph glyph-name="five" unicode="5" horiz-adv-x="554" 
d="M35 45l28 58q76 -54 160 -54q97 0 148 55t51 133q0 75 -51.5 128t-148.5 53q-54 0 -118 -21l97 352h275l-17 -60h-211l-59 -220q27 4 58 4q106 0 177 -64t71 -165q0 -108 -68.5 -182t-194.5 -74q-61 0 -116.5 19.5t-80.5 37.5z" />
    <glyph glyph-name="six" unicode="6" horiz-adv-x="603" 
d="M354 766l47 -45q-44 -46 -107.5 -133t-105.5 -163q19 21 54.5 31.5t64.5 10.5q108 0 179 -71.5t71 -173.5q0 -95 -71.5 -165t-176.5 -70q-107 0 -179 70t-72 165q0 67 34.5 152t88.5 164.5t95.5 133.5t77.5 94zM484 222q0 76 -49 130t-128 54q-78 0 -127.5 -53
t-49.5 -131q0 -72 52.5 -122.5t126.5 -50.5q77 0 126 51t49 122z" />
    <glyph glyph-name="seven" unicode="7" horiz-adv-x="524" 
d="M140 -6h-76l347 693l-365 -1v63h469z" />
    <glyph glyph-name="eight" unicode="8" horiz-adv-x="604" 
d="M408 378q53 -24 88 -68t35 -108q0 -89 -68 -152t-161 -63q-95 0 -162.5 62t-67.5 152q0 113 126 178q-54 24 -87 70.5t-33 101.5q0 95 68.5 153.5t156.5 58.5q94 0 159 -58.5t65 -153.5q0 -55 -34 -102t-85 -71zM459 199q0 62 -46 107t-111 45q-66 0 -112 -44.5
t-46 -107.5t46 -108t112 -45q65 0 111 45t46 108zM454 550q0 65 -43.5 109t-107.5 44t-109 -44t-45 -106q0 -59 45 -102t110 -43q63 0 106.5 42t43.5 100z" />
    <glyph glyph-name="nine" unicode="9" horiz-adv-x="602" 
d="M248 -17l-47 44q44 46 107.5 133t105.5 163q-19 -21 -54.5 -31.5t-64.5 -10.5q-108 0 -179 71.5t-71 173.5q0 96 71.5 166t176.5 70q107 0 179 -70.5t72 -165.5q0 -67 -35 -152t-88 -164t-95 -133.5t-78 -93.5zM295 342q78 0 127.5 53t49.5 131q0 72 -52.5 122.5
t-126.5 50.5q-77 0 -126 -51t-49 -122q0 -76 49 -130t128 -54z" />
    <glyph glyph-name="colon" unicode=":" horiz-adv-x="246" 
d="M176 41q0 -20 -15.5 -35.5t-38.5 -15.5q-21 0 -36.5 15.5t-15.5 35.5q0 23 15.5 39t36.5 16q23 0 38.5 -16t15.5 -39zM176 397q0 -21 -15.5 -36t-38.5 -15q-21 0 -36.5 15t-15.5 36q0 23 15 38.5t37 15.5q23 0 38.5 -15t15.5 -39z" />
    <glyph glyph-name="semicolon" unicode=";" horiz-adv-x="267" 
d="M195 398q0 -21 -15 -36t-39 -15q-21 0 -36 15t-15 36q0 23 15 38t37 15q23 0 38 -15t15 -38zM83 -106h-54l75 196h75z" />
    <glyph glyph-name="less" unicode="&#x3c;" horiz-adv-x="610" 
d="M501 64l-450 286v40l450 269l31 -56l-400 -233l400 -252z" />
    <glyph glyph-name="equal" unicode="=" horiz-adv-x="687" 
d="M604 215h-521v60h521v-60zM604 440h-521v61h521v-61z" />
    <glyph glyph-name="greater" unicode="&#x3e;" horiz-adv-x="609" 
d="M558 350l-450 -269l-30 56l399 233l-399 252l30 54l450 -286v-40z" />
    <glyph glyph-name="question" unicode="?" horiz-adv-x="470" 
d="M380 328l36 -37q-20 -34 -72 -68t-118 -34q-61 0 -111.5 40.5t-50.5 103.5q0 45 25 82t60.5 62t71.5 48.5t61 53t25 63.5q0 31 -21.5 52t-53.5 21q-53 0 -109 -43l-28 43q64 58 146 58q63 0 98 -39.5t35 -92.5q0 -39 -25 -74.5t-61 -62t-72.5 -51.5t-61.5 -55.5
t-25 -63.5q0 -37 30 -63t72 -26q49 0 87.5 26t61.5 57zM270 41q0 -21 -15.5 -36t-37.5 -15q-21 0 -36.5 15.5t-15.5 35.5q0 23 15.5 38.5t36.5 15.5q23 0 38 -15.5t15 -38.5z" />
    <glyph glyph-name="at" unicode="@" horiz-adv-x="1058" 
d="M793 -150l19 -51q-114 -47 -238 -47q-138 0 -255.5 67.5t-186.5 183.5t-69 252q0 137 65 253t179 184t251 68q110 0 197.5 -34.5t141 -92t81.5 -127.5t28 -147q0 -74 -26 -142.5t-74.5 -123.5t-125 -87.5t-170.5 -32.5q-129 0 -196 57t-67 137q0 72 52.5 126t139.5 54
q82 0 146 -51v61q0 44 -35 73t-97 29q-65 0 -132 -27l-24 46q76 38 157 38q108 0 150 -47t42 -133v-158h-18q-55 112 -185 112q-62 0 -99 -35t-37 -83q0 -57 52.5 -100t151.5 -43q156 0 246.5 98.5t90.5 232.5q0 66 -24 126t-71 109t-124 78.5t-174 29.5q-185 0 -310 -132
t-125 -329q0 -83 36.5 -162.5t96.5 -139t144 -96t174 -36.5q131 0 222 42z" />
    <glyph glyph-name="A" unicode="A" horiz-adv-x="692" 
d="M698 0h-78l-89 202h-370l-90 -202h-77l353 780zM502 267l-138 312q-17 40 -18 46q-8 -25 -18 -46l-138 -312h312z" />
    <glyph glyph-name="B" unicode="B" horiz-adv-x="617" 
d="M295 0h-195v757h151q116 0 182 -42.5t66 -147.5q0 -53 -37.5 -99t-85.5 -63q68 -9 127.5 -60t59.5 -132q0 -100 -69 -156.5t-199 -56.5zM172 421h61q87 0 139 39.5t52 104.5q0 127 -161 127h-91v-271zM172 65h130q91 0 138 39t47 108q0 62 -50.5 103t-129.5 41h-135v-291
z" />
    <glyph glyph-name="C" unicode="C" horiz-adv-x="749" 
d="M673 129l34 -48q-105 -94 -255 -94q-171 0 -286 114t-115 277q0 164 113.5 278.5t284.5 114.5q152 0 256 -98l-40 -52q-82 84 -224 84q-135 0 -224.5 -93t-89.5 -239q0 -135 95.5 -228.5t230.5 -93.5q138 0 220 78z" />
    <glyph glyph-name="D" unicode="D" horiz-adv-x="737" 
d="M276 0h-176v757h174q176 0 292.5 -100t116.5 -279q0 -174 -112.5 -276t-294.5 -102zM172 65h91q156 0 250 79.5t94 236.5q0 150 -95.5 230.5t-242.5 80.5h-97v-627z" />
    <glyph glyph-name="E" unicode="E" horiz-adv-x="561" 
d="M525 1h-425v755h393v-64h-321v-254h258v-65h-258v-308h353v-64z" />
    <glyph glyph-name="F" unicode="F" horiz-adv-x="512" 
d="M172 0h-72v756h386v-64h-314v-256h253v-64h-253v-372z" />
    <glyph glyph-name="G" unicode="G" horiz-adv-x="836" 
d="M725 296h-208v65h283q-1 -94 -31 -167.5t-80.5 -117.5t-112.5 -66.5t-131 -22.5q-163 0 -278.5 113t-115.5 276q0 170 115 282.5t284 112.5q49 0 96 -10.5t78 -24.5t57 -31t37 -26.5t14 -13.5l-41 -53q-3 4 -12.5 12.5t-32 23t-49 27t-66 21.5t-79.5 9q-148 0 -237 -93.5
t-89 -236.5q0 -132 92.5 -228t227.5 -96q111 0 190.5 65.5t88.5 179.5z" />
    <glyph glyph-name="H" unicode="H" horiz-adv-x="760" 
d="M660 0h-72v353h-416v-353h-72v757h72v-339h416v339h72v-757z" />
    <glyph glyph-name="I" unicode="I" horiz-adv-x="272" 
d="M172 0h-72v757h72v-757z" />
    <glyph glyph-name="J" unicode="J" horiz-adv-x="272" 
d="M-25 -262l-27 64q64 25 94.5 53t44 78t13.5 144v680h72v-685q0 -107 -19 -168.5t-58.5 -96.5t-119.5 -69z" />
    <glyph glyph-name="K" unicode="K" horiz-adv-x="646" 
d="M662 0h-113l-377 338v-338h-72v757h72v-339l336 339h97l-374 -376z" />
    <glyph glyph-name="L" unicode="L" horiz-adv-x="515" 
d="M495 1h-395v756h72v-692h323v-64z" />
    <glyph glyph-name="M" unicode="M" horiz-adv-x="968" 
d="M904 0h-75l-49 524q0 3 -0.5 16.5t-0.5 15.5q0 -1 -5 -13t-7 -14l-283 -556l-284 556q-7 12 -12 28q2 -18 -1 -33l-48 -524h-75l83 778l323 -618q13 -25 15 -37q3 15 14 37l322 618z" />
    <glyph glyph-name="N" unicode="N" horiz-adv-x="851" 
d="M751 -25l-580 616l1 -591h-72v776l580 -618v599h72z" />
    <glyph glyph-name="O" unicode="O" horiz-adv-x="904" 
d="M853 375q0 -161 -117.5 -274.5t-281.5 -113.5q-169 0 -286 114t-117 277q0 164 117.5 278.5t285.5 114.5q169 0 284 -113t115 -283zM777 376q0 141 -94 235t-229 94q-137 0 -232 -92.5t-95 -230.5q0 -133 94 -232t226 -99q140 0 235 93.5t95 231.5z" />
    <glyph glyph-name="P" unicode="P" horiz-adv-x="560" 
d="M172 0h-72v757h150q53 0 100 -11.5t87 -36t63.5 -68.5t23.5 -103q0 -108 -72.5 -174t-213.5 -66h-66v-298zM172 363h65q99 0 155.5 46t56.5 128q0 75 -51.5 115t-129.5 40h-96v-329z" />
    <glyph glyph-name="Q" unicode="Q" horiz-adv-x="904" 
d="M806 -94l-150 134q-90 -53 -202 -53q-169 0 -286 114t-117 277q0 164 117.5 278.5t285.5 114.5q169 0 284 -113t115 -283q0 -88 -38 -165t-104 -132l147 -117zM778 376q0 141 -94.5 235t-229.5 94q-137 0 -232 -92.5t-95 -230.5q0 -133 94 -232t226 -99q140 0 235.5 93.5
t95.5 231.5z" />
    <glyph glyph-name="R" unicode="R" horiz-adv-x="598" 
d="M620 0h-106l-300 300h-42v-300h-72v757h148q50 0 95 -10.5t88 -33.5t68 -68t25 -107q0 -98 -58.5 -160.5t-161.5 -74.5zM172 363h59q109 0 163.5 48t54.5 126q0 76 -51.5 115.5t-139.5 39.5h-86v-329z" />
    <glyph glyph-name="S" unicode="S" horiz-adv-x="547" 
d="M31 86l42 52q74 -86 194 -86q69 0 113 38t44 101q0 43 -19.5 77t-50 55.5t-68 40t-75 37.5t-68 41.5t-50 57.5t-19.5 81q0 89 63.5 140.5t152.5 51.5q63 0 112 -24.5t74 -51.5l-40 -51q-62 62 -145 62q-59 0 -100.5 -31.5t-41.5 -88.5q0 -36 19.5 -64t50.5 -47t68.5 -36
t75 -37.5t68.5 -46.5t50.5 -68t19.5 -97q0 -82 -65.5 -143.5t-174.5 -61.5q-73 0 -138.5 31.5t-91.5 67.5z" />
    <glyph glyph-name="T" unicode="T" horiz-adv-x="550" 
d="M311 0h-72v692h-220v64h512v-64h-220v-692z" />
    <glyph glyph-name="U" unicode="U" horiz-adv-x="750" 
d="M582 109v648h72v-673q-86 -97 -281 -97q-134 0 -207 72.5t-73 214.5v483h72v-453q0 -137 54.5 -195t176.5 -58q125 0 186 58z" />
    <glyph glyph-name="V" unicode="V" horiz-adv-x="640" 
d="M319 -31l-323 788h84l235 -584q3 -8 6 -36q3 28 6 36l235 584h84z" />
    <glyph glyph-name="W" unicode="W" horiz-adv-x="1010" 
d="M747 -30l-228 572q-11 26 -14 47q-3 -21 -14 -47l-224 -571l-263 786h81l184 -570q3 -10 6 -41q2 27 7 41l222 594l231 -594q3 -8 6 -41q2 27 6 41l179 570h79z" />
    <glyph glyph-name="X" unicode="X" horiz-adv-x="625" 
d="M611 0h-86l-214 329l-217 -329h-86l265 391l-245 366h86l201 -307l201 307h86l-250 -366z" />
    <glyph glyph-name="Y" unicode="Y" horiz-adv-x="561" 
d="M316 0h-72v327l-250 430h80l203 -355q4 -6 5 -19q1 11 6 19l204 355h79l-255 -430v-327z" />
    <glyph glyph-name="Z" unicode="Z" horiz-adv-x="591" 
d="M561 1h-560l432 691h-356v64h477l-432 -691h439v-64z" />
    <glyph glyph-name="bracketleft" unicode="[" horiz-adv-x="294" 
d="M257 -215h-173v1035h173v-57h-113v-924h113v-54z" />
    <glyph glyph-name="backslash" unicode="\" horiz-adv-x="538" 
d="M500 -196l-53 -19l-409 1012l54 23z" />
    <glyph glyph-name="bracketright" unicode="]" horiz-adv-x="295" 
d="M211 -215h-173v57h112v924h-112v54h173v-1035z" />
    <glyph glyph-name="asciicircum" unicode="^" horiz-adv-x="635" 
d="M550 410h-77l-156 327l-157 -327h-76l201 404h63z" />
    <glyph glyph-name="underscore" unicode="_" horiz-adv-x="615" 
d="M555 -28h-495v56h495v-56z" />
    <glyph glyph-name="grave" unicode="`" horiz-adv-x="329" 
d="M264 610l-39 -27l-154 145l60 45z" />
    <glyph glyph-name="a" unicode="a" horiz-adv-x="512" 
d="M382 83v125q-59 57 -144 57q-52 0 -94.5 -27.5t-42.5 -76.5q0 -56 40 -87.5t100 -31.5q88 0 141 41zM447 313v-258q-72 -67 -210 -67q-100 0 -152.5 50t-52.5 123q0 74 63 115.5t136 41.5q98 0 151 -54v67q0 47 -34.5 76.5t-97.5 29.5q-72 0 -134 -29l-25 50
q74 36 160 36q110 0 153 -46.5t43 -134.5z" />
    <glyph glyph-name="b" unicode="b" horiz-adv-x="582" 
d="M73 52v768h66v-393q24 24 71.5 45.5t96.5 21.5q113 0 171.5 -72t58.5 -179q0 -121 -77.5 -188t-185.5 -67q-117 0 -201 64zM139 360v-276q20 -15 58.5 -27.5t76.5 -12.5q83 0 138 53t55 147q0 83 -44.5 137.5t-124.5 54.5q-44 0 -90.5 -24t-68.5 -52z" />
    <glyph glyph-name="c" unicode="c" horiz-adv-x="518" 
d="M455 107l32 -39q-61 -80 -194 -80q-106 0 -177.5 71.5t-71.5 179.5q0 110 72 182.5t183 72.5q58 0 104.5 -22.5t64.5 -42.5l-35 -44q-9 9 -23.5 19t-46 21t-65.5 11q-74 0 -129.5 -51.5t-55.5 -145.5q0 -88 54.5 -141t133.5 -53q94 0 154 62z" />
    <glyph glyph-name="d" unicode="d" horiz-adv-x="580" 
d="M442 85v282q-19 30 -61 49.5t-88 19.5q-82 0 -130.5 -54.5t-48.5 -148.5q0 -89 55.5 -139t137.5 -50q77 0 135 41zM442 442v378h66v-768q-86 -64 -201 -64q-109 0 -185.5 63.5t-76.5 181.5t68.5 189.5t178.5 71.5q92 0 150 -52z" />
    <glyph glyph-name="e" unicode="e" horiz-adv-x="548" 
d="M461 107l31 -40q-25 -35 -78 -57t-122 -22q-108 0 -178 69.5t-70 180.5q0 113 67.5 184.5t177.5 71.5q105 0 161 -70t56 -170v-18h-395q0 -89 53.5 -140.5t141.5 -51.5q100 0 155 63zM114 289h324q-6 64 -45.5 106t-106.5 42q-66 0 -114.5 -39t-57.5 -109z" />
    <glyph glyph-name="f" unicode="f" horiz-adv-x="312" 
d="M172 0h-66v423h-81v57h81v134q0 101 38 152q40 52 119 52q58 0 93 -26l-28 -56q-34 21 -65 21q-91 0 -91 -128v-149h120v-57h-120v-423z" />
    <glyph glyph-name="g" unicode="g" horiz-adv-x="578" 
d="M440 -31v96q-29 -35 -74 -56t-90 -21q-92 0 -162 68.5t-70 182.5q0 119 77 187t186 68q121 0 198 -61v-459q0 -65 -19.5 -113t-52.5 -73.5t-71 -37.5t-81 -12q-109 0 -195 56l30 51q72 -49 167 -49q157 0 157 173zM440 134v266q-61 36 -133 36q-80 0 -136.5 -51
t-56.5 -146q0 -74 45.5 -133.5t131.5 -59.5q42 0 85 25.5t64 62.5z" />
    <glyph glyph-name="h" unicode="h" 
d="M478 0h-66v284q0 78 -29 113t-99 35q-45 0 -83.5 -20.5t-59.5 -43.5v-368h-66v820h66v-390q72 64 162 64q175 0 175 -179v-315z" />
    <glyph glyph-name="i" unicode="i" horiz-adv-x="224" 
d="M145 0h-66v481h66v-481zM164 627q0 -21 -14.5 -35.5t-36.5 -14.5q-21 0 -36 14.5t-15 35.5q0 23 15 37.5t36 14.5q22 0 36.5 -14.5t14.5 -37.5z" />
    <glyph glyph-name="j" unicode="j" horiz-adv-x="224" 
d="M6 -267l-26 53q20 9 33 14.5t24.5 16t17.5 16.5t11.5 23.5t7.5 28t3.5 39.5t1.5 48.5v64.5v444h66v-440q0 -69 -2 -105t-8.5 -73t-22 -57t-40.5 -38t-66 -35zM113 577q-22 0 -36.5 14.5t-14.5 35.5q0 23 14.5 37.5t36.5 14.5t36 -14.5t14 -37.5q0 -21 -14 -35.5
t-36 -14.5z" />
    <glyph glyph-name="k" unicode="k" horiz-adv-x="468" 
d="M471 0h-87l-243 239v-239h-66v820h66v-537l190 198h83l-212 -215z" />
    <glyph glyph-name="l" unicode="l" horiz-adv-x="228" 
d="M147 0h-66v820h66v-820z" />
    <glyph glyph-name="m" unicode="m" horiz-adv-x="834" 
d="M763 0h-66v314q0 63 -27 90.5t-81 27.5q-41 0 -79 -20.5t-61 -44.5q3 -22 3 -44v-323h-66v315q0 63 -27.5 90t-82.5 27q-40 0 -77 -20t-58 -43v-369h-66v481h66v-51q72 64 160 64t131 -74q86 74 178 74q72 0 112.5 -43.5t40.5 -130.5v-320z" />
    <glyph glyph-name="n" unicode="n" 
d="M478 0h-66v284q0 78 -29 113t-99 35q-45 0 -83.5 -20.5t-59.5 -43.5v-368h-66v481h66v-51q72 64 162 64q175 0 175 -179v-315z" />
    <glyph glyph-name="o" unicode="o" horiz-adv-x="599" 
d="M556 240q0 -106 -74 -179t-182 -73t-182.5 72.5t-74.5 179.5t74.5 180.5t183.5 73.5q107 0 181 -74t74 -180zM298 45q84 0 136 53.5t52 141.5q0 84 -55 140t-132 56q-83 0 -135.5 -56t-52.5 -143q0 -82 56 -137t131 -55z" />
    <glyph glyph-name="p" unicode="p" horiz-adv-x="581" 
d="M139 -254h-66v685q88 63 202 63q109 0 185.5 -67t76.5 -188q0 -105 -63.5 -178t-171.5 -73q-45 0 -90 18.5t-73 45.5v-306zM139 395v-270q24 -34 68 -57t93 -23q71 0 119 52.5t48 140.5q0 87 -53.5 142t-145.5 55q-35 0 -72.5 -12.5t-56.5 -27.5z" />
    <glyph glyph-name="q" unicode="q" horiz-adv-x="584" 
d="M511 -254h-66v310q-26 -28 -73 -47.5t-92 -19.5q-104 0 -169.5 71.5t-65.5 177.5q0 120 80.5 188t190.5 68q109 0 195 -63v-685zM445 131v264q-21 15 -55 27.5t-68 12.5q-93 0 -150.5 -56.5t-57.5 -142.5q0 -88 51.5 -139.5t124.5 -51.5q46 0 88.5 24.5t66.5 61.5z" />
    <glyph glyph-name="r" unicode="r" horiz-adv-x="335" 
d="M141 0h-66v481h66v-69q6 23 36.5 52.5t66.5 29.5q44 0 81 -22l-31 -63q-29 20 -56 20q-38 0 -65.5 -33.5t-31.5 -68.5v-327z" />
    <glyph glyph-name="s" unicode="s" horiz-adv-x="406" 
d="M26 57l34 46q55 -62 134 -62q45 0 73.5 24t28.5 69q0 29 -24 51.5t-58 38.5t-68 33t-58 44.5t-24 64.5q0 55 41 92t108 37q43 0 82 -17t59 -39l-29 -48q-13 15 -43.5 32.5t-65.5 17.5q-42 0 -63 -21t-21 -49q0 -26 24 -45t58 -33.5t68 -32t58 -49.5t24 -76
q0 -67 -47.5 -107.5t-121.5 -40.5q-107 0 -169 70z" />
    <glyph glyph-name="t" unicode="t" horiz-adv-x="309" 
d="M177 0h-66v423h-89v57h89v172h66v-172h117v-57h-117v-423z" />
    <glyph glyph-name="u" unicode="u" 
d="M410 83v398h66v-427q-72 -66 -202 -66q-92 0 -147.5 47t-55.5 137v309h66v-294q0 -72 37.5 -107t102.5 -35q79 0 133 38z" />
    <glyph glyph-name="v" unicode="v" horiz-adv-x="472" 
d="M246 -16h-19l-220 497h73l131 -307q21 -49 27 -78h1q5 26 26 77l129 308h71z" />
    <glyph glyph-name="w" unicode="w" horiz-adv-x="726" 
d="M522 -16h-18l-141 361l-141 -361h-19l-194 497h72l138 -360l142 373h7l141 -373l138 360h70z" />
    <glyph glyph-name="x" unicode="x" horiz-adv-x="482" 
d="M471 0h-79l-151 208l-152 -208h-77l191 259l-165 222h80l124 -173l125 173h76l-165 -222z" />
    <glyph glyph-name="y" unicode="y" horiz-adv-x="496" 
d="M120 -258h-70l156 305l-199 434h74l161 -369l176 369h73z" />
    <glyph glyph-name="z" unicode="z" horiz-adv-x="456" 
d="M418 1h-406l304 422h-256v57h368l-301 -422h291v-57z" />
    <glyph glyph-name="braceleft" unicode="{" horiz-adv-x="316" 
d="M282 -162l-12 -48q-83 6 -115 54t-32 135v139q0 69 -20.5 113t-74.5 74q54 30 74.5 74t20.5 113v140q0 87 32 135t115 54l12 -48q-28 -4 -46.5 -15.5t-28.5 -23.5t-14.5 -36t-5.5 -41t-1 -51v-127q0 -59 -15.5 -98t-55.5 -76q40 -37 55.5 -76t15.5 -98v-127q0 -33 1 -50
t5.5 -41t14.5 -36.5t28.5 -23.5t46.5 -15z" />
    <glyph glyph-name="bar" unicode="|" horiz-adv-x="227" 
d="M144 -259h-61v1079h61v-1079z" />
    <glyph glyph-name="braceright" unicode="}" horiz-adv-x="316" 
d="M46 -210l-12 48q28 4 46.5 15t28.5 23.5t14.5 36.5t5.5 41t1 50v127q0 59 15.5 98t55.5 76q-40 37 -55.5 76t-15.5 98v127q0 34 -1 51t-5.5 41t-14.5 36t-28.5 23.5t-46.5 15.5l12 48q83 -6 115 -54t32 -135v-140q0 -69 20.5 -113t74.5 -74q-54 -30 -74.5 -74t-20.5 -113
v-139q0 -87 -32 -135t-115 -54z" />
    <glyph glyph-name="asciitilde" unicode="~" horiz-adv-x="577" 
d="M488 554l31 -49q-21 -20 -60 -39.5t-80 -19.5q-26 0 -83.5 26t-88.5 26q-44 0 -116 -48l-32 47q24 22 67 43t80 21q33 0 90.5 -26.5t80.5 -26.5q54 0 111 46z" />
    <glyph glyph-name="exclamdown" unicode="&#xa1;" horiz-adv-x="253" 
d="M172 -210h-94l28 559h47zM125 450q-24 0 -39 15.5t-15 39.5q0 21 15.5 37t38.5 16q22 0 37.5 -16t15.5 -37q0 -23 -15.5 -39t-37.5 -16z" />
    <glyph glyph-name="cent" unicode="&#xa2;" horiz-adv-x="563" 
d="M327 -12h-50v131q-94 13 -154.5 82t-60.5 168t60.5 167t154.5 80v143h50v-141q57 -2 102 -26t63 -44l-35 -43q-57 53 -130 56v-388q87 0 149 64l32 -37q-57 -77 -181 -82v-130zM277 177v379q-61 -12 -103.5 -60.5t-42.5 -128.5q0 -76 41.5 -126.5t104.5 -63.5z" />
    <glyph glyph-name="sterling" unicode="&#xa3;" horiz-adv-x="602" 
d="M548 54l7 -58q-50 -14 -90 -14q-46 1 -109 15t-91 14q-35 0 -82.5 -12t-75 -22.5t-37.5 -15.5l-21 53q4 2 23.5 10t53.5 19.5t63 17.5v229h-75v56h75v183q0 120 37.5 169t120.5 49q53 0 92 -26l-31 -55q-34 19 -65 19q-51 0 -69 -36t-18 -107v-196h137v-56h-137v-221
q44 0 102 -15t112 -15q15 0 28.5 2.5t29 7t20.5 5.5z" />
    <glyph glyph-name="currency" unicode="&#xa4;" horiz-adv-x="701" 
d="M620 147l-48 -39l-78 75q-68 -49 -145 -49q-78 0 -145 49l-79 -76l-44 40l78 77q-53 68 -53 147q0 81 52 143l-78 80l44 40l80 -79q67 52 145 52q80 0 145 -51l79 78l48 -40l-79 -80q51 -61 51 -143t-54 -146zM527 371q0 72 -53 122.5t-125 50.5q-69 0 -122.5 -51
t-53.5 -122q0 -70 53.5 -122t122.5 -52q71 0 124.5 52t53.5 122z" />
    <glyph glyph-name="yen" unicode="&#xa5;" horiz-adv-x="681" 
d="M573 156h-196v-156h-72v156h-206v50h206v79h-206v50h201l-246 422h81l203 -355q4 -11 5 -18q1 10 6 18l204 355h79l-251 -422h192v-50h-196v-79h196v-50z" />
    <glyph glyph-name="brokenbar" unicode="&#xa6;" horiz-adv-x="237" 
d="M149 -259h-61v438h61v-438zM149 381h-61v439h61v-439z" />
    <glyph glyph-name="section" unicode="&#xa7;" horiz-adv-x="558" 
d="M383 -127l-338 527q15 39 72 77.5t94 47.5l-88 140q5 19 56.5 51t124.5 58t129 26l-19 -73q-43 0 -124 -21t-97 -31l313 -497q-14 -39 -68.5 -76t-92.5 -48l108 -170q-14 -38 -127.5 -92t-194.5 -54l21 73q42 0 128.5 26t102.5 36zM436 162l-192 308q-30 0 -66.5 -16
t-62.5 -38l195 -307q30 0 69 17t57 36z" />
    <glyph glyph-name="dieresis" unicode="&#xa8;" horiz-adv-x="355" 
d="M117 635q0 -19 -14 -32t-34 -13q-19 0 -33 13t-14 32t14 33t33 14q20 0 34 -13.5t14 -33.5zM343 635q0 -19 -13.5 -32t-35.5 -13q-19 0 -32 13t-13 32q0 20 13 33.5t32 13.5q22 0 35.5 -13.5t13.5 -33.5z" />
    <glyph glyph-name="copyright" unicode="&#xa9;" horiz-adv-x="913" 
d="M457 36q141 0 239.5 99.5t98.5 241.5q0 143 -98 242t-240 99q-143 0 -240.5 -98.5t-97.5 -242.5q0 -142 97.5 -241.5t240.5 -99.5zM457 -16q-165 0 -280 115t-115 278q0 164 115 279t280 115q164 0 279 -115t115 -279q0 -163 -115 -278t-279 -115zM619 236l28 -44
q-64 -54 -170 -54q-114 0 -188 68.5t-74 168.5q0 102 72.5 174.5t185.5 72.5q102 0 172 -59l-34 -46q-49 46 -144 46q-82 0 -132 -52.5t-50 -134.5q0 -77 55 -128.5t138 -51.5q92 0 141 40z" />
    <glyph glyph-name="ordfeminine" unicode="&#xaa;" horiz-adv-x="432" 
d="M304 456v79q-40 34 -97 34q-37 0 -66 -17t-29 -47q0 -35 27 -54.5t69 -19.5q58 0 96 25zM366 608v-176q-55 -48 -161 -48q-77 0 -117 35t-40 87t46.5 80t103.5 28t106 -30v42q0 27 -25.5 45.5t-69.5 18.5q-48 0 -97 -19l-21 40q59 26 125 26q84 0 117 -33t33 -96z" />
    <glyph glyph-name="guillemotleft" unicode="&#xab;" horiz-adv-x="489" 
d="M248 25h-67l-131 210l128 210h66l-131 -210zM438 25h-66l-132 210l128 210h66l-132 -210z" />
    <glyph glyph-name="logicalnot" unicode="&#xac;" horiz-adv-x="691" 
d="M604 109h-66v228h-455v57h521v-285z" />
    <glyph glyph-name="registered" unicode="&#xae;" horiz-adv-x="711" 
d="M356 215q-116 0 -198.5 82.5t-82.5 198.5q0 115 82.5 196.5t198.5 81.5q115 0 197.5 -81.5t82.5 -196.5t-82.5 -198t-197.5 -83zM356 262q94 0 163 69.5t69 164.5q0 94 -69 163t-163 69q-95 0 -163.5 -68.5t-68.5 -163.5t69 -164.5t163 -69.5zM511 344h-64l-129 124
l-18 17v-141h-47v319h81q57 0 96 -23t39 -73q0 -38 -27.5 -63.5t-76.5 -31.5zM300 504h28q94 0 94 63q0 25 -21.5 40t-58.5 15h-42v-118z" />
    <glyph glyph-name="macron" unicode="&#xaf;" horiz-adv-x="525" 
d="M444 591h-363v58h363v-58z" />
    <glyph glyph-name="degree" unicode="&#xb0;" horiz-adv-x="409" 
d="M358 619q0 -62 -44.5 -105t-109.5 -43q-64 0 -108.5 43t-44.5 105q0 63 44.5 106.5t108.5 43.5q65 0 109.5 -43.5t44.5 -106.5zM205 524q39 0 65.5 27.5t26.5 67.5q0 41 -26.5 68.5t-65.5 27.5t-65.5 -27.5t-26.5 -68.5q0 -40 26.5 -67.5t65.5 -27.5z" />
    <glyph glyph-name="plusminus" unicode="&#xb1;" horiz-adv-x="673" 
d="M370 123h-67v230h-227v60h227v230h67v-230h227v-60h-227v-230zM597 1h-521v59h521v-59z" />
    <glyph glyph-name="twosuperior" unicode="&#xb2;" horiz-adv-x="404" 
d="M365 347h-344q6 4 36 26.5t47.5 37t48.5 40t50.5 47t40 47t30.5 50t10 47.5q0 30 -23.5 52t-57.5 22q-58 0 -98 -45l-31 40q62 56 135 56q62 0 101 -36t39 -89q0 -110 -199 -245l215 2v-52z" />
    <glyph glyph-name="threesuperior" unicode="&#xb3;" horiz-adv-x="371" 
d="M238 577v-1q46 -16 69 -48t23 -71q0 -48 -46 -84t-122 -36q-51 0 -87 15t-51 30l28 45q11 -12 41.5 -24.5t68.5 -12.5q50 0 77.5 22t27.5 53q0 40 -38.5 65.5t-102.5 25.5v34q55 0 88.5 21t33.5 50q0 24 -20.5 39t-55.5 15q-46 0 -80 -23l-21 45q13 11 45 21t67 10
q57 0 92.5 -29.5t35.5 -67.5q0 -63 -73 -94z" />
    <glyph glyph-name="acute" unicode="&#xb4;" horiz-adv-x="335" 
d="M264 728l-155 -145l-38 27l133 163z" />
    <glyph glyph-name="paragraph" unicode="&#xb6;" horiz-adv-x="555" 
d="M314 754v-495q-122 0 -193.5 70.5t-71.5 166.5q0 99 74 178.5t191 79.5zM441 -164h-68v921h68v-921z" />
    <glyph glyph-name="periodcentered" unicode="&#xb7;" horiz-adv-x="239" 
d="M173 377q0 -21 -15.5 -36.5t-38.5 -15.5q-22 0 -37.5 15.5t-15.5 36.5q0 22 15.5 37t37.5 15q23 0 38.5 -15t15.5 -37z" />
    <glyph glyph-name="cedilla" unicode="&#xb8;" horiz-adv-x="585" 
d="M321 -202h-64l77 164h75z" />
    <glyph glyph-name="onesuperior" unicode="&#xb9;" horiz-adv-x="241" 
d="M178 345h-63v348l-74 -30l-22 49l159 59v-426z" />
    <glyph glyph-name="ordmasculine" unicode="&#xba;" horiz-adv-x="483" 
d="M435 560q0 -74 -56 -125t-137 -51q-82 0 -138 51t-56 125t56 125.5t138 51.5q81 0 137 -52t56 -125zM369 560q0 54 -37.5 90.5t-89.5 36.5q-57 0 -93 -36.5t-36 -92.5q0 -53 38 -88.5t89 -35.5q58 0 93.5 35t35.5 91z" />
    <glyph glyph-name="guillemotright" unicode="&#xbb;" horiz-adv-x="485" 
d="M117 25h-66l135 210l-131 210h65l128 -210zM305 25h-64l134 210l-131 210h65l126 -210z" />
    <glyph glyph-name="onequarter" unicode="&#xbc;" horiz-adv-x="753" 
d="M184 -3l-44 19l366 747l44 -20zM207 345h-63v348l-74 -30l-22 49l159 59v-426zM628 -4h-62v84h-232v44l250 290h44v-283h66v-51h-66v-84zM568 129v196l-166 -196h166z" />
    <glyph glyph-name="onehalf" unicode="&#xbd;" horiz-adv-x="787" 
d="M184 -3l-44 19l366 747l44 -20zM207 345h-63v348l-74 -30l-22 49l159 59v-426zM728 0h-344q6 4 36 26.5t47.5 37t48.5 40t50.5 47t40 47t30.5 50t10 47.5q0 30 -23.5 52t-57.5 22q-58 0 -98 -45l-31 40q62 56 135 56q62 0 101 -36t39 -89q0 -110 -199 -245l215 2v-52z
" />
    <glyph glyph-name="threequarters" unicode="&#xbe;" horiz-adv-x="863" 
d="M741 -4h-62v84h-232v44l250 290h44v-283h66v-51h-66v-84zM264 577v-1q46 -16 69 -48t23 -71q0 -48 -46 -84t-122 -36q-51 0 -87 15t-51 30l28 45q11 -12 41.5 -24.5t68.5 -12.5q50 0 77.5 22t27.5 53q0 40 -38.5 65.5t-102.5 25.5v34q55 0 88.5 21t33.5 50q0 24 -20.5 39
t-55.5 15q-46 0 -80 -23l-21 45q13 11 45 21t67 10q57 0 92.5 -29.5t35.5 -67.5q0 -63 -73 -94zM297 -3l-44 19l366 747l44 -20zM681 129v196l-166 -196h166z" />
    <glyph glyph-name="questiondown" unicode="&#xbf;" horiz-adv-x="457" 
d="M342 -145l28 -43q-64 -58 -146 -58q-63 0 -98 39.5t-35 92.5q0 39 25 74t61 61.5t72.5 51.5t61.5 55.5t25 63.5q0 37 -30 63t-72 26q-49 0 -87.5 -26t-61.5 -57l-36 37q20 34 72 68t118 34q61 0 111.5 -40.5t50.5 -103.5q0 -45 -25 -82t-60.5 -62t-71.5 -48.5t-61 -52.5
t-25 -63q0 -31 21.5 -52t53.5 -21q53 0 109 43zM248 431q-23 0 -38 15.5t-15 38.5q0 21 15.5 36.5t37.5 15.5q21 0 36.5 -16t15.5 -36q0 -23 -15.5 -38.5t-36.5 -15.5z" />
    <glyph glyph-name="Agrave" unicode="&#xc0;" horiz-adv-x="692" 
d="M698 0h-78l-89 202h-370l-90 -202h-77l353 780zM502 267l-138 312q-17 40 -18 46q-8 -25 -18 -46l-138 -312h312zM443 838l-262 45l34 66l249 -64z" />
    <glyph glyph-name="Aacute" unicode="&#xc1;" horiz-adv-x="692" 
d="M698 0h-78l-89 202h-370l-90 -202h-77l353 780zM502 267l-138 312q-17 40 -18 46q-8 -25 -18 -46l-138 -312h312zM456 883l-262 -45l-20 47l249 64z" />
    <glyph glyph-name="Acircumflex" unicode="&#xc2;" horiz-adv-x="692" 
d="M698 0h-78l-89 202h-370l-90 -202h-77l353 780zM502 267l-138 312q-17 40 -18 46q-8 -25 -18 -46l-138 -312h312zM488 815l-153 61l-157 -68l-28 37l186 102l186 -97z" />
    <glyph glyph-name="Atilde" unicode="&#xc3;" horiz-adv-x="692" 
d="M698 0h-78l-89 202h-370l-90 -202h-77l353 780zM502 267l-138 312q-17 40 -18 46q-8 -25 -18 -46l-138 -312h312zM495 943l31 -46q-21 -23 -54.5 -45t-65.5 -22q-20 0 -61.5 24t-64.5 24q-32 0 -87 -49l-31 41q20 22 56.5 45t65.5 23q25 0 66.5 -24t58.5 -24q24 0 48 18
t38 35z" />
    <glyph glyph-name="Adieresis" unicode="&#xc4;" horiz-adv-x="692" 
d="M698 0h-78l-89 202h-370l-90 -202h-77l353 780zM502 267l-138 312q-17 40 -18 46q-8 -25 -18 -46l-138 -312h312zM517 894q0 -19 -14 -33t-37 -14q-21 0 -34.5 14t-13.5 33q0 20 13.5 34t34.5 14q23 0 37 -13.5t14 -34.5zM253 894q0 -19 -15 -33t-36 -14q-20 0 -34.5 14
t-14.5 33q0 20 14.5 34t34.5 14q22 0 36.5 -14t14.5 -34z" />
    <glyph glyph-name="Aring" unicode="&#xc5;" horiz-adv-x="692" 
d="M698 0h-78l-89 202h-370l-90 -202h-77l353 780zM502 267l-138 312q-17 40 -18 46q-8 -25 -18 -46l-138 -312h312zM457 911q0 -45 -32 -76.5t-78 -31.5t-78 31.5t-32 76.5q0 46 32 77.5t78 31.5q45 0 77.5 -32t32.5 -77zM348 847q26 0 45 19.5t19 45.5q0 27 -19 46t-45 19
t-45 -19t-19 -46q0 -26 19 -45.5t45 -19.5z" />
    <glyph glyph-name="AE" unicode="&#xc6;" horiz-adv-x="912" 
d="M876 1h-425v217h-254l-131 -218h-79l457 756h400v-64h-321v-254h258v-65h-258v-308h353v-64zM451 281v363l-216 -363h216z" />
    <glyph glyph-name="Ccedilla" unicode="&#xc7;" horiz-adv-x="749" 
d="M673 129l34 -48q-105 -94 -255 -94q-171 0 -286 114t-115 277q0 164 113.5 278.5t284.5 114.5q152 0 256 -98l-40 -52q-82 84 -224 84q-135 0 -224.5 -93t-89.5 -239q0 -135 95.5 -228.5t230.5 -93.5q138 0 220 78zM390 -230h-64l77 164h75z" />
    <glyph glyph-name="Egrave" unicode="&#xc8;" horiz-adv-x="561" 
d="M419 838l-263 35l33 68l250 -54zM525 1h-425v755h393v-64h-321v-254h258v-65h-258v-308h353v-64z" />
    <glyph glyph-name="Eacute" unicode="&#xc9;" horiz-adv-x="561" 
d="M436 883l-262 -45l-21 47l250 64zM525 1h-425v755h393v-64h-321v-254h258v-65h-258v-308h353v-64z" />
    <glyph glyph-name="Ecircumflex" unicode="&#xca;" horiz-adv-x="561" 
d="M525 1h-425v755h393v-64h-321v-254h258v-65h-258v-308h353v-64zM452 815l-153 66l-157 -73l-28 38l186 104l186 -98z" />
    <glyph glyph-name="Edieresis" unicode="&#xcb;" horiz-adv-x="561" 
d="M216 877q0 -19 -14 -32.5t-35 -13.5q-19 0 -32.5 13.5t-13.5 32.5q0 21 13.5 35t32.5 14q21 0 35 -14t14 -35zM473 878q0 -19 -13.5 -32.5t-34.5 -13.5q-20 0 -33 13.5t-13 32.5q0 20 13 34t33 14q21 0 34.5 -14t13.5 -34zM525 1h-425v755h393v-64h-321v-254h258v-65
h-258v-308h353v-64z" />
    <glyph glyph-name="Igrave" unicode="&#xcc;" horiz-adv-x="272" 
d="M231 835l-212 36l33 68l200 -55zM172 0h-72v757h72v-757z" />
    <glyph glyph-name="Iacute" unicode="&#xcd;" horiz-adv-x="272" 
d="M252 871l-212 -36l-21 49l200 55zM172 0h-72v757h72v-757z" />
    <glyph glyph-name="Icircumflex" unicode="&#xce;" horiz-adv-x="272" 
d="M172 0h-72v757h72v-757zM231 814l-95 61l-101 -69l-28 38l128 108h1l129 -102z" />
    <glyph glyph-name="Idieresis" unicode="&#xcf;" horiz-adv-x="272" 
d="M112 853q0 -20 -14.5 -33.5t-35.5 -13.5q-19 0 -33 14t-14 33q0 20 14 34t33 14q21 0 35.5 -14t14.5 -34zM260 853q0 -20 -13.5 -33.5t-36.5 -13.5q-20 0 -33 13.5t-13 33.5t13 34t33 14q23 0 36.5 -13.5t13.5 -34.5zM172 0h-72v757h72v-757z" />
    <glyph glyph-name="Eth" unicode="&#xd0;" horiz-adv-x="739" 
d="M277 0h-176v348h-77v58h77v351h166q118 0 211 -42t149.5 -129.5t56.5 -207.5q0 -174 -112.5 -276t-294.5 -102zM173 65h78q165 0 261 79.5t96 236.5q0 150 -95.5 230.5t-242.5 80.5h-97v-286h204v-58h-204v-283z" />
    <glyph glyph-name="Ntilde" unicode="&#xd1;" horiz-adv-x="851" 
d="M572 943l31 -46q-21 -23 -54.5 -45t-65.5 -22q-20 0 -61.5 24t-64.5 24q-32 0 -87 -49l-32 41q20 22 57 45t66 23q25 0 66.5 -24t58.5 -24q40 0 86 53zM751 -25l-580 616l1 -591h-72v776l580 -618v599h72z" />
    <glyph glyph-name="Ograve" unicode="&#xd2;" horiz-adv-x="904" 
d="M541 838l-262 45l33 66l250 -64zM853 375q0 -161 -117.5 -274.5t-281.5 -113.5q-169 0 -286 114t-117 277q0 164 117.5 278.5t285.5 114.5q169 0 284 -113t115 -283zM777 376q0 141 -94 235t-229 94q-137 0 -232 -92.5t-95 -230.5q0 -133 94 -232t226 -99q140 0 235 93.5
t95 231.5z" />
    <glyph glyph-name="Oacute" unicode="&#xd3;" horiz-adv-x="904" 
d="M588 883l-262 -45l-21 47l250 64zM853 375q0 -161 -117.5 -274.5t-281.5 -113.5q-169 0 -286 114t-117 277q0 164 117.5 278.5t285.5 114.5q169 0 284 -113t115 -283zM777 376q0 141 -94 235t-229 94q-137 0 -232 -92.5t-95 -230.5q0 -133 94 -232t226 -99
q140 0 235 93.5t95 231.5z" />
    <glyph glyph-name="Ocircumflex" unicode="&#xd4;" horiz-adv-x="904" 
d="M853 375q0 -161 -117.5 -274.5t-281.5 -113.5q-169 0 -286 114t-117 277q0 164 117.5 278.5t285.5 114.5q169 0 284 -113t115 -283zM777 376q0 141 -94 235t-229 94q-137 0 -232 -92.5t-95 -230.5q0 -133 94 -232t226 -99q140 0 235 93.5t95 231.5zM599 815l-152 61
l-157 -68l-28 37l185 102h1l185 -97z" />
    <glyph glyph-name="Otilde" unicode="&#xd5;" horiz-adv-x="904" 
d="M602 943l31 -46q-21 -23 -54.5 -45t-65.5 -22q-20 0 -61.5 24t-64.5 24q-32 0 -87 -49l-32 41q20 22 57 45t66 23q25 0 66.5 -24t58.5 -24q40 0 86 53zM853 375q0 -161 -117.5 -274.5t-281.5 -113.5q-169 0 -286 114t-117 277q0 164 117.5 278.5t285.5 114.5
q169 0 284 -113t115 -283zM777 376q0 141 -94 235t-229 94q-137 0 -232 -92.5t-95 -230.5q0 -133 94 -232t226 -99q140 0 235 93.5t95 231.5z" />
    <glyph glyph-name="Odieresis" unicode="&#xd6;" horiz-adv-x="904" 
d="M279 878q0 -19 -14 -32.5t-35 -13.5q-19 0 -33 13.5t-14 32.5q0 20 14 34t33 14q21 0 35 -14t14 -34zM702 878q0 -19 -13.5 -32.5t-35.5 -13.5q-20 0 -33 13.5t-13 32.5q0 20 13 34t33 14q22 0 35.5 -13.5t13.5 -34.5zM853 375q0 -161 -117.5 -274.5t-281.5 -113.5
q-169 0 -286 114t-117 277q0 164 117.5 278.5t285.5 114.5q169 0 284 -113t115 -283zM777 376q0 141 -94 235t-229 94q-137 0 -232 -92.5t-95 -230.5q0 -133 94 -232t226 -99q140 0 235 93.5t95 231.5z" />
    <glyph glyph-name="multiply" unicode="&#xd7;" horiz-adv-x="646" 
d="M570 163l-48 -41l-199 197l-199 -197l-49 40l206 199l-203 198l46 42l201 -198l197 198l46 -42l-200 -197z" />
    <glyph glyph-name="Oslash" unicode="&#xd8;" horiz-adv-x="903" 
d="M278 -146l-59 19l61 151q-103 46 -166 142t-63 212q0 164 117 278.5t285 114.5q62 0 124 -19l54 133l59 -24l-55 -132q99 -47 158.5 -141t59.5 -213q0 -161 -117.5 -274.5t-281.5 -113.5q-55 0 -115 15zM307 87l244 603q-52 15 -98 15q-138 -1 -231.5 -92.5t-94.5 -230.5
q0 -94 49.5 -174t130.5 -121zM609 664l-244 -600q44 -13 86 -13q133 0 229.5 90.5t96.5 234.5q0 96 -46 172t-122 116z" />
    <glyph glyph-name="Ugrave" unicode="&#xd9;" horiz-adv-x="750" 
d="M470 838l-262 45l33 66l250 -64zM582 109v648h72v-673q-86 -97 -281 -97q-134 0 -207 72.5t-73 214.5v483h72v-453q0 -137 54.5 -195t176.5 -58q125 0 186 58z" />
    <glyph glyph-name="Uacute" unicode="&#xda;" horiz-adv-x="750" 
d="M522 883l-262 -45l-21 47l250 64zM582 109v648h72v-673q-86 -97 -281 -97q-134 0 -207 72.5t-73 214.5v483h72v-453q0 -137 54.5 -195t176.5 -58q125 0 186 58z" />
    <glyph glyph-name="Ucircumflex" unicode="&#xdb;" horiz-adv-x="750" 
d="M582 109v648h72v-673q-86 -97 -281 -97q-134 0 -207 72.5t-73 214.5v483h72v-453q0 -137 54.5 -195t176.5 -58q125 0 186 58zM506 815l-152 61l-158 -68l-28 37l186 102h1l185 -97z" />
    <glyph glyph-name="Udieresis" unicode="&#xdc;" horiz-adv-x="750" 
d="M188 880q0 -19 -14.5 -32.5t-35.5 -13.5q-19 0 -33 13.5t-14 32.5q0 20 14 34t33 14q21 0 35.5 -14t14.5 -34zM676 880q0 -19 -13.5 -32.5t-35.5 -13.5q-20 0 -33.5 13.5t-13.5 32.5q0 20 13.5 34t33.5 14q22 0 35.5 -13.5t13.5 -34.5zM582 109v648h72v-673
q-86 -97 -281 -97q-134 0 -207 72.5t-73 214.5v483h72v-453q0 -137 54.5 -195t176.5 -58q125 0 186 58z" />
    <glyph glyph-name="Yacute" unicode="&#xdd;" horiz-adv-x="561" 
d="M316 0h-72v327l-250 430h80l203 -355q4 -11 5 -18q1 10 6 18l204 355h79l-255 -430v-327zM419 888l-156 -146l-37 28l133 163z" />
    <glyph glyph-name="Thorn" unicode="&#xde;" horiz-adv-x="558" 
d="M172 0h-72v757h72v-148h78q53 0 100 -11.5t87 -36t63.5 -68.5t23.5 -103q0 -108 -72.5 -174t-213.5 -66h-66v-150zM172 215h65q99 0 155.5 46t56.5 128q0 75 -51.5 115t-129.5 40h-96v-329z" />
    <glyph glyph-name="germandbls" unicode="&#xdf;" horiz-adv-x="544" 
d="M243 -245l2 56q72 12 135.5 73t63.5 146q0 59 -33.5 96.5t-97.5 37.5q-37 0 -88 -14l164 273h-218v-423h-66v423h-76v57h76v134q0 103 38 152q40 52 116 52q61 0 96 -26l-28 -56q-36 21 -68 21q-88 0 -88 -128v-149h321l-172 -270q16 3 32 3q68 0 113.5 -52.5
t45.5 -132.5q0 -62 -30 -114.5t-74.5 -84.5t-87 -50.5t-76.5 -23.5z" />
    <glyph glyph-name="agrave" unicode="&#xe0;" horiz-adv-x="512" 
d="M382 83v125q-59 57 -144 57q-52 0 -94.5 -27.5t-42.5 -76.5q0 -56 40 -87.5t100 -31.5q88 0 141 41zM447 313v-258q-72 -67 -210 -67q-100 0 -152.5 50t-52.5 123q0 74 63 115.5t136 41.5q98 0 151 -54v67q0 47 -34.5 76.5t-97.5 29.5q-72 0 -134 -29l-25 50
q74 36 160 36q110 0 153 -46.5t43 -134.5zM320 610l-39 -27l-154 145l60 45z" />
    <glyph glyph-name="aacute" unicode="&#xe1;" horiz-adv-x="512" 
d="M382 83v125q-59 57 -144 57q-52 0 -94.5 -27.5t-42.5 -76.5q0 -56 40 -87.5t100 -31.5q88 0 141 41zM447 313v-258q-72 -67 -210 -67q-100 0 -152.5 50t-52.5 123q0 74 63 115.5t136 41.5q98 0 151 -54v67q0 47 -34.5 76.5t-97.5 29.5q-72 0 -134 -29l-25 50
q74 36 160 36q110 0 153 -46.5t43 -134.5zM378 728l-155 -145l-38 27l133 163z" />
    <glyph glyph-name="acircumflex" unicode="&#xe2;" horiz-adv-x="512" 
d="M447 313v-258q-72 -67 -210 -67q-100 0 -152.5 50t-52.5 123q0 74 63 115.5t136 41.5q98 0 151 -54v67q0 47 -34.5 76.5t-97.5 29.5q-72 0 -134 -29l-25 50q74 36 160 36q110 0 153 -46.5t43 -134.5zM382 83v125q-59 57 -144 57q-52 0 -94.5 -27.5t-42.5 -76.5
q0 -56 40 -87.5t100 -31.5q88 0 141 41zM418 610l-37 -36l-123 96l-122 -96l-38 36l160 134h1z" />
    <glyph glyph-name="atilde" unicode="&#xe3;" horiz-adv-x="512" 
d="M382 83v125q-59 57 -144 57q-52 0 -94.5 -27.5t-42.5 -76.5q0 -56 40 -87.5t100 -31.5q88 0 141 41zM447 313v-258q-72 -67 -210 -67q-100 0 -152.5 50t-52.5 123q0 74 63 115.5t136 41.5q98 0 151 -54v67q0 47 -34.5 76.5t-97.5 29.5q-72 0 -134 -29l-25 50
q74 36 160 36q110 0 153 -46.5t43 -134.5zM397 686l24 -37q-9 -12 -22 -24.5t-37 -26t-47 -13.5q-19 0 -58 22.5t-60 22.5q-32 0 -81 -46l-29 36q20 22 53 44t61 22q23 0 62 -23t55 -23q37 0 79 46z" />
    <glyph glyph-name="adieresis" unicode="&#xe4;" horiz-adv-x="512" 
d="M382 83v125q-59 57 -144 57q-52 0 -94.5 -27.5t-42.5 -76.5q0 -56 40 -87.5t100 -31.5q88 0 141 41zM447 313v-258q-72 -67 -210 -67q-100 0 -152.5 50t-52.5 123q0 74 63 115.5t136 41.5q98 0 151 -54v67q0 47 -34.5 76.5t-97.5 29.5q-72 0 -134 -29l-25 50
q74 36 160 36q110 0 153 -46.5t43 -134.5zM185 637q0 -19 -14 -32t-34 -13q-19 0 -33 13t-14 32t14 33t33 14q20 0 34 -13.5t14 -33.5zM411 637q0 -19 -13.5 -32t-35.5 -13q-19 0 -32 13t-13 32q0 20 13 33.5t32 13.5q22 0 35.5 -13.5t13.5 -33.5z" />
    <glyph glyph-name="aring" unicode="&#xe5;" horiz-adv-x="512" 
d="M382 83v125q-59 57 -144 57q-52 0 -94.5 -27.5t-42.5 -76.5q0 -56 40 -87.5t100 -31.5q88 0 141 41zM447 313v-258q-72 -67 -210 -67q-100 0 -152.5 50t-52.5 123q0 74 63 115.5t136 41.5q98 0 151 -54v67q0 47 -34.5 76.5t-97.5 29.5q-72 0 -134 -29l-25 50
q74 36 160 36q110 0 153 -46.5t43 -134.5zM376 662q0 -45 -32 -76.5t-78 -31.5t-78 31.5t-32 76.5q0 46 32 77.5t78 31.5t78 -32.5t32 -76.5zM267 598q26 0 45 19.5t19 45.5q0 27 -19 46t-45 19t-45 -19t-19 -46q0 -26 19 -45.5t45 -19.5z" />
    <glyph glyph-name="ae" unicode="&#xe6;" horiz-adv-x="885" 
d="M798 107l31 -40q-25 -35 -78 -57t-122 -22q-113 0 -180 69q-72 -69 -212 -69q-100 0 -152.5 50t-52.5 123q0 74 63 115.5t136 41.5q98 0 151 -54v67q0 47 -34.5 76.5t-97.5 29.5q-72 0 -134 -29l-25 50q74 36 160 36q143 0 181 -90q68 90 194 90q105 0 161 -70t56 -170
v-18h-395q0 -89 53.5 -140.5t141.5 -51.5q100 0 155 63zM415 103q-26 45 -33 105q-59 57 -144 57q-52 0 -94.5 -27.5t-42.5 -76.5q0 -56 40 -87.5t100 -31.5q103 0 174 61zM451 289h324q-6 64 -45.5 106t-106.5 42q-66 0 -114.5 -39t-57.5 -109z" />
    <glyph glyph-name="ccedilla" unicode="&#xe7;" horiz-adv-x="518" 
d="M240 -222h-64l77 164h75zM455 107l32 -39q-61 -80 -194 -80q-106 0 -177.5 71.5t-71.5 179.5q0 110 72 182.5t183 72.5q58 0 104.5 -22.5t64.5 -42.5l-35 -44q-9 9 -23.5 19t-46 21t-65.5 11q-74 0 -129.5 -51.5t-55.5 -145.5q0 -88 54.5 -141t133.5 -53q94 0 154 62z
" />
    <glyph glyph-name="egrave" unicode="&#xe8;" horiz-adv-x="548" 
d="M461 107l31 -40q-25 -35 -78 -57t-122 -22q-108 0 -178 69.5t-70 180.5q0 113 67.5 184.5t177.5 71.5q105 0 161 -70t56 -170v-18h-395q0 -89 53.5 -140.5t141.5 -51.5q100 0 155 63zM114 289h324q-6 64 -45.5 106t-106.5 42q-66 0 -114.5 -39t-57.5 -109zM334 610
l-39 -27l-154 145l60 45z" />
    <glyph glyph-name="eacute" unicode="&#xe9;" horiz-adv-x="548" 
d="M461 107l31 -40q-25 -35 -78 -57t-122 -22q-108 0 -178 69.5t-70 180.5q0 113 67.5 184.5t177.5 71.5q105 0 161 -70t56 -170v-18h-395q0 -89 53.5 -140.5t141.5 -51.5q100 0 155 63zM114 289h324q-6 64 -45.5 106t-106.5 42q-66 0 -114.5 -39t-57.5 -109zM404 728
l-155 -145l-38 27l133 163z" />
    <glyph glyph-name="ecircumflex" unicode="&#xea;" horiz-adv-x="548" 
d="M461 107l31 -40q-25 -35 -78 -57t-122 -22q-108 0 -178 69.5t-70 180.5q0 113 67.5 184.5t177.5 71.5q105 0 161 -70t56 -170v-18h-395q0 -89 53.5 -140.5t141.5 -51.5q100 0 155 63zM114 289h324q-6 64 -45.5 106t-106.5 42q-66 0 -114.5 -39t-57.5 -109zM437 618
l-37 -36l-123 96l-122 -96l-38 36l160 134h1z" />
    <glyph glyph-name="edieresis" unicode="&#xeb;" horiz-adv-x="548" 
d="M461 107l31 -40q-25 -35 -78 -57t-122 -22q-108 0 -178 69.5t-70 180.5q0 113 67.5 184.5t177.5 71.5q105 0 161 -70t56 -170v-18h-395q0 -89 53.5 -140.5t141.5 -51.5q100 0 155 63zM114 289h324q-6 64 -45.5 106t-106.5 42q-66 0 -114.5 -39t-57.5 -109zM212 635
q0 -19 -14 -32t-34 -13q-19 0 -33 13t-14 32t14 33t33 14q20 0 34 -13.5t14 -33.5zM438 635q0 -19 -13.5 -32t-35.5 -13q-19 0 -32 13t-13 32q0 20 13 33.5t32 13.5q22 0 35.5 -13.5t13.5 -33.5z" />
    <glyph glyph-name="igrave" unicode="&#xec;" horiz-adv-x="224" 
d="M174 604l-39 -26l-139 136l59 45zM145 0h-66v481h66v-481z" />
    <glyph glyph-name="iacute" unicode="&#xed;" horiz-adv-x="224" 
d="M219 715l-141 -137l-37 27l118 155zM145 0h-66v481h66v-481z" />
    <glyph glyph-name="icircumflex" unicode="&#xee;" horiz-adv-x="224" 
d="M145 0h-66v481h66v-481zM272 618l-37 -36l-123 96l-121 -96l-38 36l159 134h1z" />
    <glyph glyph-name="idieresis" unicode="&#xef;" horiz-adv-x="224" 
d="M88 636q0 -19 -14 -32t-35 -13q-19 0 -32 13t-13 32q0 20 13 33.5t32 13.5q21 0 35 -13.5t14 -33.5zM231 636q0 -19 -13 -32t-35 -13q-19 0 -32.5 13t-13.5 32q0 20 13.5 33.5t32.5 13.5q22 0 35 -13.5t13 -33.5zM145 0h-66v481h66v-481z" />
    <glyph glyph-name="eth" unicode="&#xf0;" horiz-adv-x="605" 
d="M497 729l-117 -68q174 -262 174 -423q0 -104 -72.5 -177.5t-181.5 -73.5q-113 0 -185 73.5t-72 174.5q0 102 72 177t183 75q92 0 149 -61q-41 98 -121 203l-106 -65l-29 42l108 64q-75 108 -131 150h93q41 -44 89 -120l121 72zM299 43q78 0 132 52t54 140q0 79 -54 137
t-133 58q-87 0 -137 -57t-50 -140q0 -72 52.5 -131t135.5 -59z" />
    <glyph glyph-name="ntilde" unicode="&#xf1;" 
d="M478 0h-66v284q0 78 -29 113t-99 35q-45 0 -83.5 -20.5t-59.5 -43.5v-368h-66v481h66v-51q72 64 162 64q175 0 175 -179v-315zM422 690l24 -37q-9 -12 -22 -24.5t-37 -26t-47 -13.5q-19 0 -58 22.5t-60 22.5q-32 0 -81 -46l-29 36q20 22 53 44t61 22q22 0 61 -23t56 -23
q37 0 79 46z" />
    <glyph glyph-name="ograve" unicode="&#xf2;" horiz-adv-x="599" 
d="M556 240q0 -106 -74 -179t-182 -73t-182.5 72.5t-74.5 179.5t74.5 180.5t183.5 73.5q107 0 181 -74t74 -180zM298 45q84 0 136 53.5t52 141.5q0 84 -55 140t-132 56q-83 0 -135.5 -56t-52.5 -143q0 -82 56 -137t131 -55zM379 610l-39 -27l-154 145l60 45z" />
    <glyph glyph-name="oacute" unicode="&#xf3;" horiz-adv-x="599" 
d="M556 240q0 -106 -74 -179t-182 -73t-182.5 72.5t-74.5 179.5t74.5 180.5t183.5 73.5q107 0 181 -74t74 -180zM298 45q84 0 136 53.5t52 141.5q0 84 -55 140t-132 56q-83 0 -135.5 -56t-52.5 -143q0 -82 56 -137t131 -55zM405 728l-155 -145l-38 27l133 163z" />
    <glyph glyph-name="ocircumflex" unicode="&#xf4;" horiz-adv-x="599" 
d="M556 240q0 -106 -74 -179t-182 -73t-182.5 72.5t-74.5 179.5t74.5 180.5t183.5 73.5q107 0 181 -74t74 -180zM298 45q84 0 136 53.5t52 141.5q0 84 -55 140t-132 56q-83 0 -135.5 -56t-52.5 -143q0 -82 56 -137t131 -55zM470 608l-37 -36l-123 96l-122 -96l-38 36
l160 134h1z" />
    <glyph glyph-name="otilde" unicode="&#xf5;" horiz-adv-x="599" 
d="M556 240q0 -106 -74 -179t-182 -73t-182.5 72.5t-74.5 179.5t74.5 180.5t183.5 73.5q107 0 181 -74t74 -180zM298 45q84 0 136 53.5t52 141.5q0 84 -55 140t-132 56q-83 0 -135.5 -56t-52.5 -143q0 -82 56 -137t131 -55zM443 686l24 -37q-9 -12 -22 -24.5t-37 -26
t-47 -13.5q-19 0 -58 22.5t-60 22.5q-32 0 -81 -46l-29 36q20 22 53 44t61 22q23 0 62 -23t55 -23q37 0 79 46z" />
    <glyph glyph-name="odieresis" unicode="&#xf6;" horiz-adv-x="599" 
d="M556 240q0 -106 -74 -179t-182 -73t-182.5 72.5t-74.5 179.5t74.5 180.5t183.5 73.5q107 0 181 -74t74 -180zM298 45q84 0 136 53.5t52 141.5q0 84 -55 140t-132 56q-83 0 -135.5 -56t-52.5 -143q0 -82 56 -137t131 -55zM234 637q0 -19 -14 -32t-34 -13q-19 0 -33 13
t-14 32t14 33t33 14q20 0 34 -13.5t14 -33.5zM460 637q0 -19 -13.5 -32t-35.5 -13q-19 0 -32 13t-13 32q0 20 13 33.5t32 13.5q22 0 35.5 -13.5t13.5 -33.5z" />
    <glyph glyph-name="divide" unicode="&#xf7;" horiz-adv-x="703" 
d="M399 168q0 -19 -13.5 -32t-34.5 -13q-18 0 -31 13.5t-13 31.5t13 32t31 14q21 0 34.5 -13.5t13.5 -32.5zM399 551q0 -18 -13.5 -31t-34.5 -13q-18 0 -31 13.5t-13 30.5q0 19 13 32.5t31 13.5q22 0 35 -13t13 -33zM612 334h-521v59h521v-59z" />
    <glyph glyph-name="oslash" unicode="&#xf8;" horiz-adv-x="599" 
d="M153 -145l-50 20l68 143q-59 33 -93.5 91.5t-34.5 129.5q0 107 74.5 180.5t183.5 73.5q42 0 85 -15l70 148l52 -23l-71 -149q55 -34 87 -91t32 -124q0 -106 -74 -179t-182 -73q-42 0 -79 12zM197 74l164 350q-31 11 -62 11q-83 0 -135.5 -56t-52.5 -143q0 -106 86 -162z
M410 397l-164 -346q24 -7 52 -7q84 0 136 53.5t52 141.5q0 100 -76 158z" />
    <glyph glyph-name="ugrave" unicode="&#xf9;" 
d="M410 83v398h66v-427q-72 -66 -202 -66q-92 0 -147.5 47t-55.5 137v309h66v-294q0 -72 37.5 -107t102.5 -35q79 0 133 38zM341 610l-39 -27l-154 145l60 45z" />
    <glyph glyph-name="uacute" unicode="&#xfa;" 
d="M410 83v398h66v-427q-72 -66 -202 -66q-92 0 -147.5 47t-55.5 137v309h66v-294q0 -72 37.5 -107t102.5 -35q79 0 133 38zM392 728l-155 -145l-38 27l133 163z" />
    <glyph glyph-name="ucircumflex" unicode="&#xfb;" 
d="M410 83v398h66v-427q-72 -66 -202 -66q-92 0 -147.5 47t-55.5 137v309h66v-294q0 -72 37.5 -107t102.5 -35q79 0 133 38zM439 610l-37 -36l-123 96l-122 -96l-38 36l160 134h1z" />
    <glyph glyph-name="udieresis" unicode="&#xfc;" 
d="M410 83v398h66v-427q-72 -66 -202 -66q-92 0 -147.5 47t-55.5 137v309h66v-294q0 -72 37.5 -107t102.5 -35q79 0 133 38zM209 635q0 -19 -14 -32t-34 -13q-19 0 -33 13t-14 32t14 33t33 14q20 0 34 -13.5t14 -33.5zM435 635q0 -19 -13.5 -32t-35.5 -13q-19 0 -32 13
t-13 32q0 20 13 33.5t32 13.5q22 0 35.5 -13.5t13.5 -33.5z" />
    <glyph glyph-name="yacute" unicode="&#xfd;" horiz-adv-x="496" 
d="M120 -258h-70l156 305l-199 434h74l161 -369l176 369h73zM383 728l-155 -145l-38 27l133 163z" />
    <glyph glyph-name="thorn" unicode="&#xfe;" horiz-adv-x="583" 
d="M141 -254h-66v1074h65v-359q59 33 137 33q109 0 185.5 -67t76.5 -188q0 -105 -63.5 -178t-171.5 -73q-45 0 -90 18.5t-73 45.5v-306zM141 395v-270q24 -34 68 -57t93 -23q71 0 119 52.5t48 140.5q0 87 -53.5 142t-145.5 55q-35 0 -72.5 -12.5t-56.5 -27.5z" />
    <glyph glyph-name="ydieresis" unicode="&#xff;" horiz-adv-x="496" 
d="M120 -258h-70l156 305l-199 434h74l161 -369l176 369h73zM176 635q0 -19 -14 -32t-34 -13q-19 0 -33 13t-14 32t14 33t33 14q20 0 34 -13.5t14 -33.5zM402 635q0 -19 -13.5 -32t-35.5 -13q-19 0 -32 13t-13 32q0 20 13 33.5t32 13.5q22 0 35.5 -13.5t13.5 -33.5z" />
    <glyph glyph-name="Amacron" unicode="&#x100;" horiz-adv-x="692" 
d="M698 0h-78l-89 202h-370l-90 -202h-77l353 780zM502 267l-138 312q-17 40 -18 46q-8 -25 -18 -46l-138 -312h312zM532 867h-373v58h373v-58z" />
    <glyph glyph-name="amacron" unicode="&#x101;" horiz-adv-x="512" 
d="M382 83v125q-59 57 -144 57q-52 0 -94.5 -27.5t-42.5 -76.5q0 -56 40 -87.5t100 -31.5q88 0 141 41zM447 313v-258q-72 -67 -210 -67q-100 0 -152.5 50t-52.5 123q0 74 63 115.5t136 41.5q98 0 151 -54v67q0 47 -34.5 76.5t-97.5 29.5q-72 0 -134 -29l-25 50
q74 36 160 36q110 0 153 -46.5t43 -134.5zM440 591h-373v58h373v-58z" />
    <glyph glyph-name="Abreve" unicode="&#x102;" horiz-adv-x="692" 
d="M698 0h-78l-89 202h-370l-90 -202h-77l353 780zM502 267l-138 312q-17 40 -18 46q-8 -25 -18 -46l-138 -312h312zM452 976h67q-3 -63 -48.5 -114t-128.5 -51q-66 0 -113.5 43.5t-53.5 121.5h70q0 -10 3 -24.5t12 -35t30 -34.5t51 -14q29 0 51.5 10.5t33 24.5t17 31.5
t8 27t1.5 14.5z" />
    <glyph glyph-name="abreve" unicode="&#x103;" horiz-adv-x="512" 
d="M382 83v125q-59 57 -144 57q-52 0 -94.5 -27.5t-42.5 -76.5q0 -56 40 -87.5t100 -31.5q88 0 141 41zM447 313v-258q-72 -67 -210 -67q-100 0 -152.5 50t-52.5 123q0 74 63 115.5t136 41.5q98 0 151 -54v67q0 47 -34.5 76.5t-97.5 29.5q-72 0 -134 -29l-25 50
q74 36 160 36q110 0 153 -46.5t43 -134.5zM361 729h67q-3 -63 -48.5 -114t-128.5 -51q-66 0 -113.5 43.5t-53.5 121.5h70q0 -10 3 -24.5t12 -35t30 -34.5t51 -14q29 0 51.5 10.5t33 24.5t17 31.5t8 27t1.5 14.5z" />
    <glyph glyph-name="Aogonek" unicode="&#x104;" horiz-adv-x="692" 
d="M724 -152v-58q-31 -15 -79 -15q-52 0 -88.5 22.5t-36.5 69.5q0 76 100 133l-89 202h-369l-91 -202h-77l353 780l354 -785q-55 -25 -85.5 -51t-30.5 -62q0 -25 19.5 -38.5t49.5 -13.5q25 0 70 18zM502 267l-138 312q-16 36 -18 46q-9 -26 -18 -46l-138 -312h312z" />
    <glyph glyph-name="aogonek" unicode="&#x105;" horiz-adv-x="512" 
d="M422 -140v-58q-31 -15 -79 -15q-52 0 -88.5 22.5t-36.5 69.5q0 61 65 111q-30 -2 -46 -2q-100 0 -152.5 50t-52.5 123q0 74 63 115.5t136 41.5q98 0 151 -54v67q0 47 -34.5 76.5t-97.5 29.5q-72 0 -134 -29l-25 50q74 36 160 36q110 0 153 -46.5t43 -134.5v-258
q-13 -13 -44 -32t-55.5 -33.5t-44.5 -40t-20 -55.5q0 -25 19.5 -38.5t49.5 -13.5q25 0 70 18zM382 83v125q-59 57 -144 57q-52 0 -94.5 -27.5t-42.5 -76.5q0 -56 40 -87.5t100 -31.5q88 0 141 41z" />
    <glyph glyph-name="Cacute" unicode="&#x106;" horiz-adv-x="749" 
d="M673 129l34 -48q-105 -94 -255 -94q-171 0 -286 114t-115 277q0 164 113.5 278.5t284.5 114.5q152 0 256 -98l-40 -52q-82 84 -224 84q-135 0 -224.5 -93t-89.5 -239q0 -135 95.5 -228.5t230.5 -93.5q138 0 220 78zM566 882l-258 -45l-18 47l250 64z" />
    <glyph glyph-name="cacute" unicode="&#x107;" horiz-adv-x="518" 
d="M455 107l32 -39q-61 -80 -194 -80q-106 0 -177.5 71.5t-71.5 179.5q0 110 72 182.5t183 72.5q58 0 104.5 -22.5t64.5 -42.5l-35 -44q-9 9 -23.5 19t-46 21t-65.5 11q-74 0 -129.5 -51.5t-55.5 -145.5q0 -88 54.5 -141t133.5 -53q94 0 154 62zM407 728l-155 -145l-38 27
l133 163z" />
    <glyph glyph-name="Ccircumflex" unicode="&#x108;" horiz-adv-x="749" 
d="M673 129l34 -48q-105 -94 -255 -94q-171 0 -286 114t-115 277q0 164 113.5 278.5t284.5 114.5q152 0 256 -98l-40 -52q-82 84 -224 84q-135 0 -224.5 -93t-89.5 -239q0 -135 95.5 -228.5t230.5 -93.5q138 0 220 78zM576 838l-152 67l-157 -68l-28 37l185 102h1l185 -103z
" />
    <glyph glyph-name="ccircumflex" unicode="&#x109;" horiz-adv-x="518" 
d="M455 107l32 -39q-61 -80 -194 -80q-106 0 -177.5 71.5t-71.5 179.5q0 110 72 182.5t183 72.5q58 0 104.5 -22.5t64.5 -42.5l-35 -44q-9 9 -23.5 19t-46 21t-65.5 11q-74 0 -129.5 -51.5t-55.5 -145.5q0 -88 54.5 -141t133.5 -53q94 0 154 62zM445 618l-37 -36l-123 96
l-122 -96l-38 36l160 134h1z" />
    <glyph glyph-name="Cdotaccent" unicode="&#x10a;" horiz-adv-x="749" 
d="M673 129l34 -48q-105 -94 -255 -94q-171 0 -286 114t-115 277q0 164 113.5 278.5t284.5 114.5q152 0 256 -98l-40 -52q-82 84 -224 84q-135 0 -224.5 -93t-89.5 -239q0 -135 95.5 -228.5t230.5 -93.5q138 0 220 78zM472 883q0 -19 -13.5 -32.5t-34.5 -13.5
q-19 0 -33 13.5t-14 32.5q0 20 14 34.5t33 14.5q21 0 34.5 -14t13.5 -35z" />
    <glyph glyph-name="cdotaccent" unicode="&#x10b;" horiz-adv-x="518" 
d="M455 107l32 -39q-61 -80 -194 -80q-106 0 -177.5 71.5t-71.5 179.5q0 110 72 182.5t183 72.5q58 0 104.5 -22.5t64.5 -42.5l-35 -44q-9 9 -23.5 19t-46 21t-65.5 11q-74 0 -129.5 -51.5t-55.5 -145.5q0 -88 54.5 -141t133.5 -53q94 0 154 62zM318 630q0 -19 -13.5 -32.5
t-34.5 -13.5q-19 0 -33 13.5t-14 32.5q0 20 14 34.5t33 14.5q21 0 34.5 -14t13.5 -35z" />
    <glyph glyph-name="Ccaron" unicode="&#x10c;" horiz-adv-x="749" 
d="M673 129l34 -48q-105 -94 -255 -94q-171 0 -286 114t-115 277q0 164 113.5 278.5t284.5 114.5q152 0 256 -98l-40 -52q-82 84 -224 84q-135 0 -224.5 -93t-89.5 -239q0 -135 95.5 -228.5t230.5 -93.5q138 0 220 78zM610 929l-184 -101l-183 101l29 33l157 -69l147 67z
" />
    <glyph glyph-name="ccaron" unicode="&#x10d;" horiz-adv-x="518" 
d="M455 107l32 -39q-61 -80 -194 -80q-106 0 -177.5 71.5t-71.5 179.5q0 110 72 182.5t183 72.5q58 0 104.5 -22.5t64.5 -42.5l-35 -44q-9 9 -23.5 19t-46 21t-65.5 11q-74 0 -129.5 -51.5t-55.5 -145.5q0 -88 54.5 -141t133.5 -53q94 0 154 62zM438 712l-159 -134l-160 134
l37 37l122 -96l123 96z" />
    <glyph glyph-name="Dcaron" unicode="&#x10e;" horiz-adv-x="737" 
d="M276 0h-176v757h174q176 0 292.5 -100t116.5 -279q0 -174 -112.5 -276t-294.5 -102zM172 65h91q156 0 250 79.5t94 236.5q0 150 -95.5 230.5t-242.5 80.5h-97v-627zM503 938l-184 -101l-183 101l29 33l157 -69l147 67z" />
    <glyph glyph-name="dcaron" unicode="&#x10f;" horiz-adv-x="606" 
d="M442 85v282q-19 30 -61 49.5t-88 19.5q-82 0 -130.5 -54.5t-48.5 -148.5q0 -89 55.5 -139t137.5 -50q77 0 135 41zM442 442v378h66v-768q-86 -64 -201 -64q-109 0 -185.5 63.5t-76.5 181.5t68.5 189.5t178.5 71.5q92 0 150 -52zM631 570h-54l68 197h73z" />
    <glyph glyph-name="Dcroat" unicode="&#x110;" horiz-adv-x="739" 
d="M277 0h-176v348h-77v58h77v351h166q118 0 211 -42t149.5 -129.5t56.5 -207.5q0 -174 -112.5 -276t-294.5 -102zM173 65h78q165 0 261 79.5t96 236.5q0 150 -95.5 230.5t-242.5 80.5h-97v-286h204v-58h-204v-283z" />
    <glyph glyph-name="dcroat" unicode="&#x111;" horiz-adv-x="580" 
d="M442 442v201h-174l8 57h166v120h66v-120h74l-8 -57h-66v-591q-86 -64 -201 -64q-109 0 -185.5 63.5t-76.5 181.5t68.5 189.5t178.5 71.5q92 0 150 -52zM442 85v282q-19 30 -61 49.5t-88 19.5q-82 0 -130.5 -54.5t-48.5 -148.5q0 -89 55.5 -139t137.5 -50q77 0 135 41z
" />
    <glyph glyph-name="Emacron" unicode="&#x112;" horiz-adv-x="561" 
d="M525 1h-425v755h393v-64h-321v-254h258v-65h-258v-308h353v-64zM476 867h-363v58h363v-58z" />
    <glyph glyph-name="emacron" unicode="&#x113;" horiz-adv-x="548" 
d="M461 107l31 -40q-25 -35 -78 -57t-122 -22q-108 0 -178 69.5t-70 180.5q0 113 67.5 184.5t177.5 71.5q105 0 161 -70t56 -170v-18h-395q0 -89 53.5 -140.5t141.5 -51.5q100 0 155 63zM114 289h324q-6 64 -45.5 106t-106.5 42q-66 0 -114.5 -39t-57.5 -109zM459 591h-363
v58h363v-58z" />
    <glyph glyph-name="Edotaccent" unicode="&#x116;" horiz-adv-x="561" 
d="M525 1h-425v755h393v-64h-321v-254h258v-65h-258v-308h353v-64zM353 866q0 -19 -13.5 -32.5t-34.5 -13.5q-19 0 -33 13.5t-14 32.5q0 20 14 34.5t33 14.5q21 0 34.5 -14t13.5 -35z" />
    <glyph glyph-name="edotaccent" unicode="&#x117;" horiz-adv-x="548" 
d="M461 107l31 -40q-25 -35 -78 -57t-122 -22q-108 0 -178 69.5t-70 180.5q0 113 67.5 184.5t177.5 71.5q105 0 161 -70t56 -170v-18h-395q0 -89 53.5 -140.5t141.5 -51.5q100 0 155 63zM114 289h324q-6 64 -45.5 106t-106.5 42q-66 0 -114.5 -39t-57.5 -109zM325 630
q0 -19 -13.5 -32.5t-34.5 -13.5q-19 0 -33 13.5t-14 32.5q0 20 14 34.5t33 14.5q21 0 34.5 -14t13.5 -35z" />
    <glyph glyph-name="Eogonek" unicode="&#x118;" horiz-adv-x="561" 
d="M465 -140v-58q-31 -15 -79 -15q-52 0 -88.5 22.5t-36.5 69.5q0 68 82 122h-243v755h393v-64h-321v-254h258v-65h-258v-308h353v-64h-119q-80 -49 -80 -107q0 -25 19.5 -38.5t49.5 -13.5q25 0 70 18z" />
    <glyph glyph-name="eogonek" unicode="&#x119;" horiz-adv-x="548" 
d="M450 -146v-58q-32 -15 -79 -15q-52 0 -88.5 22.5t-36.5 69.5q0 64 71 116q-4 0 -12.5 -0.5t-12.5 -0.5q-108 0 -178 69.5t-70 180.5q0 113 67.5 184.5t177.5 71.5q105 0 161 -70t56 -170v-18h-395q0 -89 53.5 -140.5t141.5 -51.5q100 0 155 63l31 -40q-22 -31 -73 -56
q-108 -53 -108 -123q0 -25 19.5 -38.5t49.5 -13.5q25 0 70 18zM114 289h324q-6 64 -45.5 106t-106.5 42q-66 0 -114.5 -39t-57.5 -109z" />
    <glyph glyph-name="Ecaron" unicode="&#x11a;" horiz-adv-x="561" 
d="M525 1h-425v755h393v-64h-321v-254h258v-65h-258v-308h353v-64zM487 920l-184 -101l-183 101l29 33l157 -69l147 67z" />
    <glyph glyph-name="ecaron" unicode="&#x11b;" horiz-adv-x="548" 
d="M461 107l31 -40q-25 -35 -78 -57t-122 -22q-108 0 -178 69.5t-70 180.5q0 113 67.5 184.5t177.5 71.5q105 0 161 -70t56 -170v-18h-395q0 -89 53.5 -140.5t141.5 -51.5q100 0 155 63zM114 289h324q-6 64 -45.5 106t-106.5 42q-66 0 -114.5 -39t-57.5 -109zM437 712
l-159 -134l-160 134l37 37l122 -96l123 96z" />
    <glyph glyph-name="Gcircumflex" unicode="&#x11c;" horiz-adv-x="836" 
d="M582 839l-152 67l-157 -68l-28 37l185 102h1l185 -103zM725 296h-208v65h283q-1 -94 -31 -167.5t-80.5 -117.5t-112.5 -66.5t-131 -22.5q-163 0 -278.5 113t-115.5 276q0 170 115 282.5t284 112.5q49 0 96 -10.5t78 -24.5t57 -31t37 -26.5t14 -13.5l-41 -53
q-3 4 -12.5 12.5t-32 23t-49 27t-66 21.5t-79.5 9q-148 0 -237 -93.5t-89 -236.5q0 -132 92.5 -228t227.5 -96q111 0 190.5 65.5t88.5 179.5z" />
    <glyph glyph-name="gcircumflex" unicode="&#x11d;" horiz-adv-x="578" 
d="M440 -31v96q-29 -35 -74 -56t-90 -21q-92 0 -162 68.5t-70 182.5q0 119 77 187t186 68q121 0 198 -61v-459q0 -65 -19.5 -113t-52.5 -73.5t-71 -37.5t-81 -12q-109 0 -195 56l30 51q72 -49 167 -49q157 0 157 173zM440 134v266q-61 36 -133 36q-80 0 -136.5 -51
t-56.5 -146q0 -74 45.5 -133.5t131.5 -59.5q42 0 85 25.5t64 62.5zM450 618l-37 -36l-123 96l-122 -96l-38 36l160 134h1z" />
    <glyph glyph-name="Gbreve" unicode="&#x11e;" horiz-adv-x="836" 
d="M529 998h67q-3 -63 -48.5 -114t-128.5 -51q-66 0 -113.5 43.5t-53.5 121.5h70q0 -10 3 -24.5t12 -35t30 -34.5t51 -14q29 0 51.5 10.5t33 24.5t17 31.5t8 27t1.5 14.5zM725 296h-208v65h283q-1 -94 -31 -167.5t-80.5 -117.5t-112.5 -66.5t-131 -22.5q-163 0 -278.5 113
t-115.5 276q0 170 115 282.5t284 112.5q49 0 96 -10.5t78 -24.5t57 -31t37 -26.5t14 -13.5l-41 -53q-3 4 -12.5 12.5t-32 23t-49 27t-66 21.5t-79.5 9q-148 0 -237 -93.5t-89 -236.5q0 -132 92.5 -228t227.5 -96q111 0 190.5 65.5t88.5 179.5z" />
    <glyph glyph-name="gbreve" unicode="&#x11f;" horiz-adv-x="578" 
d="M440 -31v96q-29 -35 -74 -56t-90 -21q-92 0 -162 68.5t-70 182.5q0 119 77 187t186 68q121 0 198 -61v-459q0 -65 -19.5 -113t-52.5 -73.5t-71 -37.5t-81 -12q-109 0 -195 56l30 51q72 -49 167 -49q157 0 157 173zM440 134v266q-61 36 -133 36q-80 0 -136.5 -51
t-56.5 -146q0 -74 45.5 -133.5t131.5 -59.5q42 0 85 25.5t64 62.5zM395 729h67q-3 -63 -48.5 -114t-128.5 -51q-66 0 -113.5 43.5t-53.5 121.5h70q0 -10 3 -24.5t12 -35t30 -34.5t51 -14q29 0 51.5 10.5t33 24.5t17 31.5t8 27t1.5 14.5z" />
    <glyph glyph-name="Gdotaccent" unicode="&#x120;" horiz-adv-x="836" 
d="M471 906q0 -19 -13.5 -32.5t-34.5 -13.5q-19 0 -33 13.5t-14 32.5q0 20 14 34.5t33 14.5q21 0 34.5 -14t13.5 -35zM725 296h-208v65h283q-1 -94 -31 -167.5t-80.5 -117.5t-112.5 -66.5t-131 -22.5q-163 0 -278.5 113t-115.5 276q0 170 115 282.5t284 112.5q49 0 96 -10.5
t78 -24.5t57 -31t37 -26.5t14 -13.5l-41 -53q-3 4 -12.5 12.5t-32 23t-49 27t-66 21.5t-79.5 9q-148 0 -237 -93.5t-89 -236.5q0 -132 92.5 -228t227.5 -96q111 0 190.5 65.5t88.5 179.5z" />
    <glyph glyph-name="gdotaccent" unicode="&#x121;" horiz-adv-x="578" 
d="M440 -31v96q-29 -35 -74 -56t-90 -21q-92 0 -162 68.5t-70 182.5q0 119 77 187t186 68q121 0 198 -61v-459q0 -65 -19.5 -113t-52.5 -73.5t-71 -37.5t-81 -12q-109 0 -195 56l30 51q72 -49 167 -49q157 0 157 173zM440 134v266q-61 36 -133 36q-80 0 -136.5 -51
t-56.5 -146q0 -74 45.5 -133.5t131.5 -59.5q42 0 85 25.5t64 62.5zM333 630q0 -19 -13.5 -32.5t-34.5 -13.5q-19 0 -33 13.5t-14 32.5q0 20 14 34.5t33 14.5q21 0 34.5 -14t13.5 -35z" />
    <glyph glyph-name="Gcommaaccent" unicode="&#x122;" horiz-adv-x="836" 
d="M409 -242h-73l87 190h79zM725 296h-208v65h283q-1 -94 -31 -167.5t-80.5 -117.5t-112.5 -66.5t-131 -22.5q-163 0 -278.5 113t-115.5 276q0 170 115 282.5t284 112.5q49 0 96 -10.5t78 -24.5t57 -31t37 -26.5t14 -13.5l-41 -53q-3 4 -12.5 12.5t-32 23t-49 27t-66 21.5
t-79.5 9q-148 0 -237 -93.5t-89 -236.5q0 -132 92.5 -228t227.5 -96q111 0 190.5 65.5t88.5 179.5z" />
    <glyph glyph-name="gcommaaccent" unicode="&#x123;" horiz-adv-x="578" 
d="M440 -31v96q-29 -35 -74 -56t-90 -21q-92 0 -162 68.5t-70 182.5q0 119 77 187t186 68q121 0 198 -61v-459q0 -65 -19.5 -113t-52.5 -73.5t-71 -37.5t-81 -12q-109 0 -195 56l30 51q72 -49 167 -49q157 0 157 173zM440 134v266q-61 36 -133 36q-80 0 -136.5 -51
t-56.5 -146q0 -74 45.5 -133.5t131.5 -59.5q42 0 85 25.5t64 62.5zM317 599h-73l88 197h54z" />
    <glyph glyph-name="Hcircumflex" unicode="&#x124;" horiz-adv-x="760" 
d="M660 0h-72v353h-416v-353h-72v757h72v-339h416v339h72v-757zM532 815l-152 67l-157 -68l-28 37l185 102h1l185 -103z" />
    <glyph glyph-name="hcircumflex" unicode="&#x125;" 
d="M478 0h-66v284q0 78 -29 113t-99 35q-45 0 -83.5 -20.5t-59.5 -43.5v-368h-66v820h66v-390q72 64 162 64q175 0 175 -179v-315zM267 903l-37 -36l-123 96l-121 -96l-38 36l159 134h1z" />
    <glyph glyph-name="Hbar" unicode="&#x126;" horiz-adv-x="761" 
d="M661 0h-72v353h-416v-353h-72v571h-72v58h72v128h72v-128h416v128h72v-128h71v-58h-71v-571zM589 418v153h-416v-153h416z" />
    <glyph glyph-name="hbar" unicode="&#x127;" 
d="M478 0h-66v284q0 78 -29 113t-99 35q-45 0 -83.5 -20.5t-59.5 -43.5v-368h-66v643h-72l8 57h64v120h66v-120h176l-8 -57h-168v-213q72 64 162 64q175 0 175 -179v-315z" />
    <glyph glyph-name="Itilde" unicode="&#x128;" horiz-adv-x="272" 
d="M172 0h-72v757h72v-757zM286 945l31 -46q-21 -23 -54.5 -45t-65.5 -22q-20 0 -61.5 24t-64.5 24q-34 0 -86 -49l-32 41q21 23 57 45.5t65 22.5q25 0 66.5 -24t58.5 -24q40 0 86 53z" />
    <glyph glyph-name="itilde" unicode="&#x129;" horiz-adv-x="224" 
d="M145 0h-66v481h66v-481zM255 686l24 -37q-9 -12 -22 -24.5t-37 -26t-47 -13.5q-19 0 -58 22.5t-60 22.5q-31 0 -80 -46l-29 36q21 23 53 44.5t60 21.5q23 0 62 -23t55 -23q37 0 79 46z" />
    <glyph glyph-name="Imacron" unicode="&#x12a;" horiz-adv-x="272" 
d="M172 0h-72v757h72v-757zM318 867h-362v58h362v-58z" />
    <glyph glyph-name="imacron" unicode="&#x12b;" horiz-adv-x="224" 
d="M145 0h-66v481h66v-481zM294 591h-362v58h362v-58z" />
    <glyph glyph-name="Ibreve" unicode="&#x12c;" horiz-adv-x="272" 
d="M172 0h-72v757h72v-757zM241 985h67q-3 -63 -48.5 -114t-128.5 -51q-66 0 -113 43.5t-53 121.5h69q0 -10 3 -24.5t12 -35t30 -34.5t51 -14q29 0 51.5 10.5t33 24.5t17 31.5t8 27t1.5 14.5z" />
    <glyph glyph-name="ibreve" unicode="&#x12d;" horiz-adv-x="224" 
d="M145 0h-66v481h66v-481zM217 729h67q-3 -63 -48.5 -114t-128.5 -51q-66 0 -113 43.5t-53 121.5h69q0 -10 3 -24.5t12 -35t30 -34.5t51 -14q29 0 51.5 10.5t33 24.5t17 31.5t8 27t1.5 14.5z" />
    <glyph glyph-name="Iogonek" unicode="&#x12e;" horiz-adv-x="272" 
d="M202 -152v-58q-31 -15 -79 -15q-52 0 -88 22.5t-36 69.5q0 78 101 134v756h72v-759q-109 -51 -109 -116q0 -25 19.5 -38.5t49.5 -13.5q25 0 70 18z" />
    <glyph glyph-name="iogonek" unicode="&#x12f;" horiz-adv-x="224" 
d="M181 -152v-58q-31 -15 -79 -15q-52 0 -88 22.5t-36 69.5q0 78 101 134v480h66v-483q-103 -53 -103 -116q0 -25 19.5 -38.5t49.5 -13.5q25 0 70 18zM164 627q0 -21 -14.5 -35.5t-36.5 -14.5q-21 0 -36 14.5t-15 35.5q0 23 15 37.5t36 14.5q22 0 36.5 -14.5t14.5 -37.5z
" />
    <glyph glyph-name="Idotaccent" unicode="&#x130;" horiz-adv-x="272" 
d="M172 0h-72v757h72v-757zM183 871q0 -19 -13.5 -32.5t-34.5 -13.5q-19 0 -33 13.5t-14 32.5q0 20 14 34.5t33 14.5q21 0 34.5 -14t13.5 -35z" />
    <glyph glyph-name="IJ" unicode="&#x132;" horiz-adv-x="544" 
d="M172 0h-72v757h72v-757zM246 -262l-27 64q64 25 95 53t44.5 78t13.5 144v680h72v-685q0 -107 -19 -168.5t-59 -96.5t-120 -69z" />
    <glyph glyph-name="ij" unicode="&#x133;" horiz-adv-x="448" 
d="M145 0h-66v481h66v-481zM164 627q0 -21 -14.5 -35.5t-36.5 -14.5q-21 0 -36 14.5t-15 35.5q0 23 15 37.5t36 14.5q22 0 36.5 -14.5t14.5 -37.5zM230 -267l-27 53q27 11 42.5 19t28 24t17.5 26t8 42.5t3.5 56.5t0.5 83v444h66v-440q0 -69 -2 -105t-8.5 -73t-22 -57
t-40.5 -38t-66 -35zM337 577q-22 0 -36.5 14.5t-14.5 35.5q0 23 14.5 37.5t36.5 14.5t36 -14.5t14 -37.5q0 -21 -14 -35.5t-36 -14.5z" />
    <glyph glyph-name="Jcircumflex" unicode="&#x134;" horiz-adv-x="272" 
d="M-25 -262l-27 64q64 25 94.5 53t44 78t13.5 144v680h72v-685q0 -107 -19 -168.5t-58.5 -96.5t-119.5 -69zM287 812l-152 67l-156 -68l-28 37l184 102h1l185 -103z" />
    <glyph glyph-name="jcircumflex" unicode="&#x135;" horiz-adv-x="224" 
d="M6 -267l-26 53q20 9 33 14.5t24.5 16t17.5 16.5t11.5 23.5t7.5 28t3.5 39.5t1.5 48.5v64.5v444h66v-440q0 -69 -2 -105t-8.5 -73t-22 -57t-40.5 -38t-66 -35zM258 618l-37 -36l-113 96l-111 -96l-38 36l149 134h1z" />
    <glyph glyph-name="Kcommaaccent" unicode="&#x136;" horiz-adv-x="645" 
d="M310 -232h-73l87 190h79zM662 0h-113l-377 338v-338h-72v757h72v-339l336 339h97l-374 -376z" />
    <glyph glyph-name="kcommaaccent" unicode="&#x137;" horiz-adv-x="466" 
d="M471 0h-87l-243 239v-239h-66v820h66v-537l190 198h83l-212 -215zM211 -232h-73l87 190h79z" />
    <glyph glyph-name="kgreenlandic" unicode="&#x138;" horiz-adv-x="468" 
d="M471 0h-87l-243 239v-239h-66v481h66v-198l190 198h83l-212 -215z" />
    <glyph glyph-name="Lacute" unicode="&#x139;" horiz-adv-x="515" 
d="M495 1h-395v756h72v-692h323v-64zM301 881l-258 -45l-18 47l250 64z" />
    <glyph glyph-name="lacute" unicode="&#x13a;" horiz-adv-x="228" 
d="M147 0h-66v820h66v-820zM244 1034l-155 -145l-38 27l133 163z" />
    <glyph glyph-name="Lcommaaccent" unicode="&#x13b;" horiz-adv-x="516" 
d="M495 1h-395v756h72v-692h323v-64zM258 -232h-73l87 190h79z" />
    <glyph glyph-name="lcommaaccent" unicode="&#x13c;" horiz-adv-x="228" 
d="M147 0h-66v820h66v-820zM104 -232h-73l87 190h79z" />
    <glyph glyph-name="Lcaron" unicode="&#x13d;" horiz-adv-x="517" 
d="M495 1h-395v756h72v-692h323v-64zM398 615h-54l68 197h73z" />
    <glyph glyph-name="lcaron" unicode="&#x13e;" horiz-adv-x="247" 
d="M147 0h-66v820h66v-820zM270 570h-54l68 197h73z" />
    <glyph glyph-name="Ldot" unicode="&#x13f;" horiz-adv-x="542" 
d="M495 1h-395v756h72v-692h323v-64zM494 384q0 -21 -15.5 -36.5t-38.5 -15.5q-22 0 -37.5 15.5t-15.5 36.5q0 22 15.5 37t37.5 15q23 0 38.5 -15t15.5 -37z" />
    <glyph glyph-name="ldot" unicode="&#x140;" horiz-adv-x="377" 
d="M147 0h-66v820h66v-820zM356 383q0 -21 -15.5 -36.5t-38.5 -15.5q-22 0 -37.5 15.5t-15.5 36.5q0 22 15.5 37t37.5 15q23 0 38.5 -15t15.5 -37z" />
    <glyph glyph-name="Lslash" unicode="&#x141;" horiz-adv-x="517" 
d="M500 1h-398v232l-78 -49v70l78 50v453h72v-409l136 86v-70l-136 -86v-215h326v-62z" />
    <glyph glyph-name="lslash" unicode="&#x142;" horiz-adv-x="265" 
d="M160 0h-66v240l-70 -50v69l70 50v511h66v-466l79 58v-69l-79 -58v-285z" />
    <glyph glyph-name="Nacute" unicode="&#x143;" horiz-adv-x="851" 
d="M585 865l-258 -45l-18 47l250 64zM751 -25l-580 616l1 -591h-72v776l580 -618v599h72z" />
    <glyph glyph-name="nacute" unicode="&#x144;" 
d="M478 0h-66v284q0 78 -29 113t-99 35q-45 0 -83.5 -20.5t-59.5 -43.5v-368h-66v481h66v-51q72 64 162 64q175 0 175 -179v-315zM396 728l-155 -145l-38 27l133 163z" />
    <glyph glyph-name="Ncommaaccent" unicode="&#x145;" horiz-adv-x="851" 
d="M396 -232h-73l87 190h79zM751 -25l-580 616l1 -591h-72v776l580 -618v599h72z" />
    <glyph glyph-name="ncommaaccent" unicode="&#x146;" 
d="M478 0h-66v284q0 78 -29 113t-99 35q-45 0 -83.5 -20.5t-59.5 -43.5v-368h-66v481h66v-51q72 64 162 64q175 0 175 -179v-315zM236 -232h-73l87 190h79z" />
    <glyph glyph-name="Ncaron" unicode="&#x147;" horiz-adv-x="851" 
d="M623 901l-184 -101l-183 101l29 33l157 -69l147 67zM751 -25l-580 616l1 -591h-72v776l580 -618v599h72z" />
    <glyph glyph-name="ncaron" unicode="&#x148;" 
d="M478 0h-66v284q0 78 -29 113t-99 35q-45 0 -83.5 -20.5t-59.5 -43.5v-368h-66v481h66v-51q72 64 162 64q175 0 175 -179v-315zM430 712l-159 -134l-160 134l37 37l122 -96l123 96z" />
    <glyph glyph-name="napostrophe" unicode="&#x149;" horiz-adv-x="697" 
d="M626 0h-66v284q0 78 -29 113t-99 35q-45 0 -83.5 -20.5t-59.5 -43.5v-368h-66v481h66v-51q72 64 162 64q175 0 175 -179v-315zM111 467h-73l87 190h79z" />
    <glyph glyph-name="Eng" unicode="&#x14a;" horiz-adv-x="852" 
d="M554 -262l-27 64q62 24 92 49.5t44.5 70.5t16.5 126l-509 541l1 -589h-72v776l580 -618v599h72v-685q0 -107 -19 -168.5t-59 -96.5t-120 -69z" />
    <glyph glyph-name="eng" unicode="&#x14b;" 
d="M339 -267l-27 53q27 11 42.5 19t28 24t17.5 26t8 42.5t3.5 56.5t0.5 83v247q0 78 -29 113t-99 35q-45 0 -83.5 -20.5t-59.5 -43.5v-368h-66v481h66v-51q72 64 162 64q175 0 175 -179v-274q0 -69 -2 -105t-8.5 -73t-22 -57t-40.5 -38t-66 -35z" />
    <glyph glyph-name="Omacron" unicode="&#x14c;" horiz-adv-x="904" 
d="M853 375q0 -161 -117.5 -274.5t-281.5 -113.5q-169 0 -286 114t-117 277q0 164 117.5 278.5t285.5 114.5q169 0 284 -113t115 -283zM777 376q0 141 -94 235t-229 94q-137 0 -232 -92.5t-95 -230.5q0 -133 94 -232t226 -99q140 0 235 93.5t95 231.5zM634 867h-363v58h363
v-58z" />
    <glyph glyph-name="omacron" unicode="&#x14d;" horiz-adv-x="599" 
d="M556 240q0 -106 -74 -179t-182 -73t-182.5 72.5t-74.5 179.5t74.5 180.5t183.5 73.5q107 0 181 -74t74 -180zM298 45q84 0 136 53.5t52 141.5q0 84 -55 140t-132 56q-83 0 -135.5 -56t-52.5 -143q0 -82 56 -137t131 -55zM481 591h-363v58h363v-58z" />
    <glyph glyph-name="Obreve" unicode="&#x14e;" horiz-adv-x="904" 
d="M853 375q0 -161 -117.5 -274.5t-281.5 -113.5q-169 0 -286 114t-117 277q0 164 117.5 278.5t285.5 114.5q169 0 284 -113t115 -283zM777 376q0 141 -94 235t-229 94q-137 0 -232 -92.5t-95 -230.5q0 -133 94 -232t226 -99q140 0 235 93.5t95 231.5zM557 980h67
q-3 -63 -48.5 -114t-128.5 -51q-66 0 -113.5 43.5t-53.5 121.5h70q0 -10 3 -24.5t12 -35t30 -34.5t51 -14q29 0 51.5 10.5t33 24.5t17 31.5t8 27t1.5 14.5z" />
    <glyph glyph-name="obreve" unicode="&#x14f;" horiz-adv-x="599" 
d="M556 240q0 -106 -74 -179t-182 -73t-182.5 72.5t-74.5 179.5t74.5 180.5t183.5 73.5q107 0 181 -74t74 -180zM298 45q84 0 136 53.5t52 141.5q0 84 -55 140t-132 56q-83 0 -135.5 -56t-52.5 -143q0 -82 56 -137t131 -55zM404 729h67q-3 -63 -48.5 -114t-128.5 -51
q-66 0 -113.5 43.5t-53.5 121.5h70q0 -10 3 -24.5t12 -35t30 -34.5t51 -14q29 0 51.5 10.5t33 24.5t17 31.5t8 27t1.5 14.5z" />
    <glyph glyph-name="Ohungarumlaut" unicode="&#x150;" horiz-adv-x="904" 
d="M853 375q0 -161 -117.5 -274.5t-281.5 -113.5q-169 0 -286 114t-117 277q0 164 117.5 278.5t285.5 114.5q169 0 284 -113t115 -283zM777 376q0 141 -94 235t-229 94q-137 0 -232 -92.5t-95 -230.5q0 -133 94 -232t226 -99q140 0 235 93.5t95 231.5zM505 935l-185 -115
l-28 31l163 133zM690 935l-185 -115l-28 31l163 133z" />
    <glyph glyph-name="ohungarumlaut" unicode="&#x151;" horiz-adv-x="599" 
d="M556 240q0 -106 -74 -179t-182 -73t-182.5 72.5t-74.5 179.5t74.5 180.5t183.5 73.5q107 0 181 -74t74 -180zM298 45q84 0 136 53.5t52 141.5q0 84 -55 140t-132 56q-83 0 -135.5 -56t-52.5 -143q0 -82 56 -137t131 -55zM334 694l-185 -115l-28 31l163 133zM519 694
l-185 -115l-28 31l163 133z" />
    <glyph glyph-name="OE" unicode="&#x152;" horiz-adv-x="1239" 
d="M1203 1h-425v167q-50 -84 -138.5 -132.5t-185.5 -48.5q-169 0 -286 114t-117 277q0 164 117.5 278.5t285.5 114.5q100 0 188.5 -48t135.5 -133v166h393v-64h-321v-254h258v-65h-258v-308h353v-64zM777 376q0 141 -94 235t-229 94q-137 0 -232 -92.5t-95 -230.5
q0 -133 94 -232t226 -99q140 0 235 93.5t95 231.5z" />
    <glyph glyph-name="oe" unicode="&#x153;" horiz-adv-x="990" 
d="M903 107l31 -40q-25 -35 -78 -57t-122 -22q-72 0 -128 31t-88 87q-33 -55 -90.5 -86.5t-127.5 -31.5q-108 0 -182.5 72.5t-74.5 179.5t74.5 180.5t183.5 73.5q69 0 126 -32.5t91 -87.5q31 57 86 88.5t127 31.5q105 0 161 -70t56 -170v-18h-395q0 -89 53.5 -140.5
t141.5 -51.5q100 0 155 63zM298 45q84 0 136 53.5t52 141.5q0 84 -55 140t-132 56q-83 0 -135.5 -56t-52.5 -143q0 -82 56 -137t131 -55zM556 289h324q-6 64 -45.5 106t-106.5 42q-66 0 -114.5 -39t-57.5 -109z" />
    <glyph glyph-name="Racute" unicode="&#x154;" horiz-adv-x="598" 
d="M427 882l-258 -45l-18 47l250 64zM620 0h-106l-300 300h-42v-300h-72v757h148q50 0 95 -10.5t88 -33.5t68 -68t25 -107q0 -98 -58.5 -160.5t-161.5 -74.5zM172 363h59q109 0 163.5 48t54.5 126q0 76 -51.5 115.5t-139.5 39.5h-86v-329z" />
    <glyph glyph-name="racute" unicode="&#x155;" horiz-adv-x="335" 
d="M141 0h-66v481h66v-69q6 23 36.5 52.5t66.5 29.5q44 0 81 -22l-31 -63q-29 20 -56 20q-38 0 -65.5 -33.5t-31.5 -68.5v-327zM306 728l-155 -145l-38 27l133 163z" />
    <glyph glyph-name="Rcommaaccent" unicode="&#x156;" horiz-adv-x="597" 
d="M287 -232h-73l87 190h79zM620 0h-106l-300 300h-42v-300h-72v757h148q50 0 95 -10.5t88 -33.5t68 -68t25 -107q0 -98 -58.5 -160.5t-161.5 -74.5zM172 363h59q109 0 163.5 48t54.5 126q0 76 -51.5 115.5t-139.5 39.5h-86v-329z" />
    <glyph glyph-name="rcommaaccent" unicode="&#x157;" horiz-adv-x="333" 
d="M141 0h-66v481h66v-69q6 23 36.5 52.5t66.5 29.5q44 0 81 -22l-31 -63q-29 20 -56 20q-38 0 -65.5 -33.5t-31.5 -68.5v-327zM120 -232h-73l87 190h79z" />
    <glyph glyph-name="Rcaron" unicode="&#x158;" horiz-adv-x="598" 
d="M463 938l-184 -101l-183 101l29 33l157 -69l147 67zM620 0h-106l-300 300h-42v-300h-72v757h148q50 0 95 -10.5t88 -33.5t68 -68t25 -107q0 -98 -58.5 -160.5t-161.5 -74.5zM172 363h59q109 0 163.5 48t54.5 126q0 76 -51.5 115.5t-139.5 39.5h-86v-329z" />
    <glyph glyph-name="rcaron" unicode="&#x159;" horiz-adv-x="335" 
d="M141 0h-66v481h66v-69q6 23 36.5 52.5t66.5 29.5q44 0 81 -22l-31 -63q-29 20 -56 20q-38 0 -65.5 -33.5t-31.5 -68.5v-327zM343 712l-159 -134l-160 134l37 37l122 -96l123 96z" />
    <glyph glyph-name="Sacute" unicode="&#x15a;" horiz-adv-x="547" 
d="M31 86l42 52q74 -86 194 -86q69 0 113 38t44 101q0 43 -19.5 77t-50 55.5t-68 40t-75 37.5t-68 41.5t-50 57.5t-19.5 81q0 89 63.5 140.5t152.5 51.5q63 0 112 -24.5t74 -51.5l-40 -51q-62 62 -145 62q-59 0 -100.5 -31.5t-41.5 -88.5q0 -36 19.5 -64t50.5 -47t68.5 -36
t75 -37.5t68.5 -46.5t50.5 -68t19.5 -97q0 -82 -65.5 -143.5t-174.5 -61.5q-73 0 -138.5 31.5t-91.5 67.5zM423 882l-258 -45l-18 47l250 64z" />
    <glyph glyph-name="sacute" unicode="&#x15b;" horiz-adv-x="406" 
d="M26 57l34 46q55 -62 134 -62q45 0 73.5 24t28.5 69q0 29 -24 51.5t-58 38.5t-68 33t-58 44.5t-24 64.5q0 55 41 92t108 37q43 0 82 -17t59 -39l-29 -48q-13 15 -43.5 32.5t-65.5 17.5q-42 0 -63 -21t-21 -49q0 -26 24 -45t58 -33.5t68 -32t58 -49.5t24 -76
q0 -67 -47.5 -107.5t-121.5 -40.5q-107 0 -169 70zM325 728l-155 -145l-38 27l133 163z" />
    <glyph glyph-name="Scedilla" unicode="&#x15e;" horiz-adv-x="547" 
d="M31 86l42 52q74 -86 194 -86q69 0 113 38t44 101q0 43 -19.5 77t-50 55.5t-68 40t-75 37.5t-68 41.5t-50 57.5t-19.5 81q0 89 63.5 140.5t152.5 51.5q63 0 112 -24.5t74 -51.5l-40 -51q-62 62 -145 62q-59 0 -100.5 -31.5t-41.5 -88.5q0 -36 19.5 -64t50.5 -47t68.5 -36
t75 -37.5t68.5 -46.5t50.5 -68t19.5 -97q0 -82 -65.5 -143.5t-174.5 -61.5q-73 0 -138.5 31.5t-91.5 67.5zM250 -212h-64l77 164h75z" />
    <glyph glyph-name="scedilla" unicode="&#x15f;" horiz-adv-x="406" 
d="M26 57l34 46q55 -62 134 -62q45 0 73.5 24t28.5 69q0 29 -24 51.5t-58 38.5t-68 33t-58 44.5t-24 64.5q0 55 41 92t108 37q43 0 82 -17t59 -39l-29 -48q-13 15 -43.5 32.5t-65.5 17.5q-42 0 -63 -21t-21 -49q0 -26 24 -45t58 -33.5t68 -32t58 -49.5t24 -76
q0 -67 -47.5 -107.5t-121.5 -40.5q-107 0 -169 70zM182 -212h-64l77 164h75z" />
    <glyph glyph-name="Scaron" unicode="&#x160;" horiz-adv-x="547" 
d="M31 86l42 52q74 -86 194 -86q69 0 113 38t44 101q0 43 -19.5 77t-50 55.5t-68 40t-75 37.5t-68 41.5t-50 57.5t-19.5 81q0 89 63.5 140.5t152.5 51.5q63 0 112 -24.5t74 -51.5l-40 -51q-62 62 -145 62q-59 0 -100.5 -31.5t-41.5 -88.5q0 -36 19.5 -64t50.5 -47t68.5 -36
t75 -37.5t68.5 -46.5t50.5 -68t19.5 -97q0 -82 -65.5 -143.5t-174.5 -61.5q-73 0 -138.5 31.5t-91.5 67.5zM461 914l-184 -101l-183 101l29 33l157 -69l147 67z" />
    <glyph glyph-name="scaron" unicode="&#x161;" horiz-adv-x="406" 
d="M26 57l34 46q55 -62 134 -62q45 0 73.5 24t28.5 69q0 29 -24 51.5t-58 38.5t-68 33t-58 44.5t-24 64.5q0 55 41 92t108 37q43 0 82 -17t59 -39l-29 -48q-13 15 -43.5 32.5t-65.5 17.5q-42 0 -63 -21t-21 -49q0 -26 24 -45t58 -33.5t68 -32t58 -49.5t24 -76
q0 -67 -47.5 -107.5t-121.5 -40.5q-107 0 -169 70zM369 710l-159 -134l-160 134l37 37l122 -96l123 96z" />
    <glyph glyph-name="Tcommaaccent" unicode="&#x162;" horiz-adv-x="550" 
d="M311 0h-72v692h-220v64h512v-64h-220v-692zM250 -232h-73l87 190h79z" />
    <glyph glyph-name="tcommaaccent" unicode="&#x163;" horiz-adv-x="307" 
d="M121 -232h-73l87 190h79zM176 0h-66v423h-89v57h89v172h66v-172h117v-57h-117v-423z" />
    <glyph glyph-name="Tcaron" unicode="&#x164;" horiz-adv-x="550" 
d="M311 0h-72v692h-220v64h512v-64h-220v-692zM460 921l-184 -101l-183 101l29 33l157 -69l147 67z" />
    <glyph glyph-name="tcaron" unicode="&#x165;" horiz-adv-x="309" 
d="M296 575h-54l68 197h73zM177 0h-66v423h-89v57h89v172h66v-172h117v-57h-117v-423z" />
    <glyph glyph-name="Tbar" unicode="&#x166;" horiz-adv-x="550" 
d="M311 0h-72v444h-145v58h145v190h-220v64h512v-64h-220v-190h146v-58h-146v-444z" />
    <glyph glyph-name="tbar" unicode="&#x167;" horiz-adv-x="310" 
d="M177 0h-66v274h-60v52h60v97h-89v57h89v172h66v-172h117v-57h-117v-97h89v-52h-89v-274z" />
    <glyph glyph-name="Utilde" unicode="&#x168;" horiz-adv-x="750" 
d="M582 109v648h72v-673q-86 -97 -281 -97q-134 0 -207 72.5t-73 214.5v483h72v-453q0 -137 54.5 -195t176.5 -58q125 0 186 58zM527 944l31 -46q-21 -23 -54.5 -45t-65.5 -22q-20 0 -61.5 24t-64.5 24q-32 0 -87 -49l-32 41q20 22 57 45t66 23q25 0 66.5 -24t58.5 -24
q40 0 86 53z" />
    <glyph glyph-name="utilde" unicode="&#x169;" 
d="M410 83v398h66v-427q-72 -66 -202 -66q-92 0 -147.5 47t-55.5 137v309h66v-294q0 -72 37.5 -107t102.5 -35q79 0 133 38zM418 686l24 -37q-9 -12 -22 -24.5t-37 -26t-47 -13.5q-19 0 -58 22.5t-60 22.5q-32 0 -81 -46l-29 36q20 22 53 44t61 22q23 0 61.5 -23t55.5 -23
q37 0 79 46z" />
    <glyph glyph-name="Umacron" unicode="&#x16a;" horiz-adv-x="750" 
d="M582 109v648h72v-673q-86 -97 -281 -97q-134 0 -207 72.5t-73 214.5v483h72v-453q0 -137 54.5 -195t176.5 -58q125 0 186 58zM556 867h-363v58h363v-58z" />
    <glyph glyph-name="umacron" unicode="&#x16b;" 
d="M410 83v398h66v-427q-72 -66 -202 -66q-92 0 -147.5 47t-55.5 137v309h66v-294q0 -72 37.5 -107t102.5 -35q79 0 133 38zM457 591h-363v58h363v-58z" />
    <glyph glyph-name="Ubreve" unicode="&#x16c;" horiz-adv-x="750" 
d="M582 109v648h72v-673q-86 -97 -281 -97q-134 0 -207 72.5t-73 214.5v483h72v-453q0 -137 54.5 -195t176.5 -58q125 0 186 58zM479 985h67q-3 -63 -48.5 -114t-128.5 -51q-66 0 -113.5 43.5t-53.5 121.5h70q0 -10 3 -24.5t12 -35t30 -34.5t51 -14q29 0 51.5 10.5t33 24.5
t17 31.5t8 27t1.5 14.5z" />
    <glyph glyph-name="ubreve" unicode="&#x16d;" 
d="M410 83v398h66v-427q-72 -66 -202 -66q-92 0 -147.5 47t-55.5 137v309h66v-294q0 -72 37.5 -107t102.5 -35q79 0 133 38zM375 729h67q-3 -63 -48.5 -114t-128.5 -51q-66 0 -113.5 43.5t-53.5 121.5h70q0 -10 3 -24.5t12 -35t30 -34.5t51 -14q29 0 51.5 10.5t33 24.5
t17 31.5t8 27t1.5 14.5z" />
    <glyph glyph-name="Uring" unicode="&#x16e;" horiz-adv-x="750" 
d="M582 109v648h72v-673q-86 -97 -281 -97q-134 0 -207 72.5t-73 214.5v483h72v-453q0 -137 54.5 -195t176.5 -58q125 0 186 58zM484 909q0 -45 -32 -76.5t-78 -31.5t-78 31.5t-32 76.5q0 46 32 77.5t78 31.5t78 -32t32 -77zM375 845q26 0 45 19.5t19 45.5q0 27 -19 46
t-45 19t-45 -19t-19 -46q0 -26 19 -45.5t45 -19.5z" />
    <glyph glyph-name="uring" unicode="&#x16f;" 
d="M410 83v398h66v-427q-72 -66 -202 -66q-92 0 -147.5 47t-55.5 137v309h66v-294q0 -72 37.5 -107t102.5 -35q79 0 133 38zM385 690q0 -45 -32 -76.5t-78 -31.5t-78 31.5t-32 76.5q0 46 32 77.5t78 31.5q45 0 77.5 -32.5t32.5 -76.5zM276 626q26 0 45 19.5t19 45.5
q0 27 -19 46t-45 19t-45 -19t-19 -46q0 -26 19 -45.5t45 -19.5z" />
    <glyph glyph-name="Uhungarumlaut" unicode="&#x170;" horiz-adv-x="750" 
d="M582 109v648h72v-673q-86 -97 -281 -97q-134 0 -207 72.5t-73 214.5v483h72v-453q0 -137 54.5 -195t176.5 -58q125 0 186 58zM441 932l-185 -115l-28 31l163 133zM626 932l-185 -115l-28 31l163 133z" />
    <glyph glyph-name="uhungarumlaut" unicode="&#x171;" 
d="M410 83v398h66v-427q-72 -66 -202 -66q-92 0 -147.5 47t-55.5 137v309h66v-294q0 -72 37.5 -107t102.5 -35q79 0 133 38zM318 694l-185 -115l-28 31l163 133zM503 694l-185 -115l-28 31l163 133z" />
    <glyph glyph-name="Uogonek" unicode="&#x172;" horiz-adv-x="750" 
d="M513 -156v-58q-31 -15 -79 -15q-52 0 -88.5 22.5t-36.5 69.5q0 69 84 124h-20q-134 0 -207 72.5t-73 214.5v483h72v-453q0 -137 54.5 -195t176.5 -58q125 0 186 58v648h72v-673q-65 -72 -187 -90q-93 -56 -93 -116q0 -25 19.5 -38.5t49.5 -13.5q25 0 70 18z" />
    <glyph glyph-name="uogonek" unicode="&#x173;" 
d="M423 -154v-58q-31 -15 -79 -15q-52 0 -88.5 22.5t-36.5 69.5q0 69 83 124q-9 -1 -28 -1q-92 0 -147.5 47t-55.5 137v309h66v-294q0 -72 37.5 -107t102.5 -35q79 0 133 38v398h66v-427q-36 -33 -83 -49q-109 -61 -109 -125q0 -25 19.5 -38.5t49.5 -13.5q25 0 70 18z" />
    <glyph glyph-name="Wcircumflex" unicode="&#x174;" horiz-adv-x="1010" 
d="M747 -30l-228 572q-11 26 -14 47q-3 -21 -14 -47l-224 -571l-263 786h81l184 -570q3 -10 6 -41q2 27 7 41l222 594l231 -594q3 -8 6 -41q2 27 6 41l179 570h79zM657 814l-152 67l-157 -68l-28 37l185 102h1l185 -103z" />
    <glyph glyph-name="wcircumflex" unicode="&#x175;" horiz-adv-x="726" 
d="M523 618l-37 -36l-123 96l-122 -96l-38 36l160 134h1zM522 -16h-18l-141 361l-141 -361h-19l-194 497h72l138 -360l142 373h7l141 -373l138 360h70z" />
    <glyph glyph-name="Ycircumflex" unicode="&#x176;" horiz-adv-x="561" 
d="M316 0h-72v327l-250 430h80l203 -355q4 -11 5 -19q1 11 6 19l204 355h79l-255 -430v-327zM435 820l-152 67l-157 -68l-28 37l185 102h1l185 -103z" />
    <glyph glyph-name="ycircumflex" unicode="&#x177;" horiz-adv-x="496" 
d="M120 -258h-70l156 305l-199 434h74l161 -369l176 369h73zM402 618l-37 -36l-123 96l-122 -96l-38 36l160 134h1z" />
    <glyph glyph-name="Ydieresis" unicode="&#x178;" horiz-adv-x="561" 
d="M316 0h-72v327l-250 430h80l203 -355q4 -11 5 -19q1 11 6 19l204 355h79l-255 -430v-327zM529 879q0 -19 -13.5 -32.5t-34.5 -13.5q-20 0 -33 13.5t-13 32.5q0 20 13 34t33 14q21 0 34.5 -13.5t13.5 -34.5zM131 879q0 -19 -14 -32.5t-34 -13.5q-19 0 -32.5 13.5
t-13.5 32.5q0 20 13.5 34t32.5 14q20 0 34 -14t14 -34z" />
    <glyph glyph-name="Zacute" unicode="&#x179;" horiz-adv-x="591" 
d="M561 1h-560l432 691h-356v64h477l-432 -691h439v-64zM460 882l-258 -45l-18 47l250 64z" />
    <glyph glyph-name="zacute" unicode="&#x17a;" horiz-adv-x="456" 
d="M418 1h-406l304 422h-256v57h368l-301 -422h291v-57zM368 728l-155 -145l-38 27l133 163z" />
    <glyph glyph-name="Zdotaccent" unicode="&#x17b;" horiz-adv-x="591" 
d="M561 1h-560l432 691h-356v64h477l-432 -691h439v-64zM356 883q0 -19 -13.5 -32.5t-34.5 -13.5q-19 0 -33 13.5t-14 32.5q0 20 14 34.5t33 14.5q21 0 34.5 -14t13.5 -35z" />
    <glyph glyph-name="zdotaccent" unicode="&#x17c;" horiz-adv-x="456" 
d="M418 1h-406l304 422h-256v57h368l-301 -422h291v-57zM274 630q0 -19 -13.5 -32.5t-34.5 -13.5q-19 0 -33 13.5t-14 32.5q0 20 14 34.5t33 14.5q21 0 34.5 -14t13.5 -35z" />
    <glyph glyph-name="Zcaron" unicode="&#x17d;" horiz-adv-x="591" 
d="M561 1h-560l432 691h-356v64h477l-432 -691h439v-64zM482 914l-184 -101l-183 101l29 33l157 -69l147 67z" />
    <glyph glyph-name="zcaron" unicode="&#x17e;" horiz-adv-x="456" 
d="M418 1h-406l304 422h-256v57h368l-301 -422h291v-57zM398 712l-159 -134l-160 134l37 37l122 -96l123 96z" />
    <glyph glyph-name="longs" unicode="&#x17f;" horiz-adv-x="247" 
d="M172 0h-66v423h-81v57h81v134q0 103 38 152q40 52 116 52q61 0 96 -26l-28 -56q-36 21 -68 21q-88 0 -88 -128v-629z" />
    <glyph glyph-name="florin" unicode="&#x192;" horiz-adv-x="312" 
d="M-96 -256l8 54q18 -6 34 -6q42 0 64.5 43t36.5 120l87 474h-88l10 55h88l11 66q11 64 20.5 105.5t25 81.5t35 62t49 35t69.5 13q14 0 46 -8l-11 -57q-20 4 -37 4t-31 -4.5t-25 -15.5t-19.5 -22t-16 -31t-12.5 -36t-10.5 -43t-9 -46t-9 -51.5t-9.5 -52.5h92l-10 -55h-93
l-89 -490q-18 -99 -55.5 -152t-107.5 -53q-26 0 -43 10z" />
    <glyph glyph-name="uni01C0" unicode="&#x1c0;" horiz-adv-x="250" 
d="M161 0h-72v757h72v-757z" />
    <glyph glyph-name="uni01C1" unicode="&#x1c1;" horiz-adv-x="421" 
d="M332 0h-72v757h72v-757zM161 0h-72v757h72v-757z" />
    <glyph glyph-name="uni01C2" unicode="&#x1c2;" horiz-adv-x="576" 
d="M316 0h-72v262h-193v63h193v141h-193v64h193v227h72v-227h208v-64h-208v-141h208v-63h-208v-262z" />
    <glyph glyph-name="uni01C3" unicode="&#x1c3;" horiz-adv-x="237" 
d="M155 243h-72v514h72v-514zM118 -10q-19 0 -33 14t-14 34q0 19 14 32.5t33 13.5q21 0 34.5 -13.5t13.5 -32.5q0 -20 -13.5 -34t-34.5 -14z" />
    <glyph glyph-name="AEacute" unicode="&#x1fc;" horiz-adv-x="912" 
d="M876 1h-425v217h-254l-131 -218h-79l457 756h400v-64h-321v-254h258v-65h-258v-308h353v-64zM451 281v363l-216 -363h216zM796 881l-258 -45l-18 47l250 64z" />
    <glyph glyph-name="aeacute" unicode="&#x1fd;" horiz-adv-x="885" 
d="M798 107l31 -40q-25 -35 -78 -57t-122 -22q-113 0 -180 69q-72 -69 -212 -69q-100 0 -152.5 50t-52.5 123q0 74 63 115.5t136 41.5q98 0 151 -54v67q0 47 -34.5 76.5t-97.5 29.5q-72 0 -134 -29l-25 50q74 36 160 36q143 0 181 -90q68 90 194 90q105 0 161 -70t56 -170
v-18h-395q0 -89 53.5 -140.5t141.5 -51.5q100 0 155 63zM415 103q-26 45 -33 105q-59 57 -144 57q-52 0 -94.5 -27.5t-42.5 -76.5q0 -56 40 -87.5t100 -31.5q103 0 174 61zM451 289h324q-6 64 -45.5 106t-106.5 42q-66 0 -114.5 -39t-57.5 -109zM581 728l-155 -145l-38 27
l133 163z" />
    <glyph glyph-name="Oslashacute" unicode="&#x1fe;" horiz-adv-x="903" 
d="M578 883l-262 -45l-21 47l250 64zM278 -146l-59 19l61 151q-103 46 -166 142t-63 212q0 164 117 278.5t285 114.5q62 0 124 -19l54 133l59 -24l-55 -132q99 -47 158.5 -141t59.5 -213q0 -161 -117.5 -274.5t-281.5 -113.5q-55 0 -115 15zM307 87l244 603q-52 15 -98 15
q-138 -1 -231.5 -92.5t-94.5 -230.5q0 -94 49.5 -174t130.5 -121zM609 664l-244 -600q44 -13 86 -13q133 0 229.5 90.5t96.5 234.5q0 96 -46 172t-122 116z" />
    <glyph glyph-name="oslashacute" unicode="&#x1ff;" horiz-adv-x="599" 
d="M153 -145l-50 20l68 143q-59 33 -93.5 91.5t-34.5 129.5q0 107 74.5 180.5t183.5 73.5q42 0 85 -15l70 148l52 -23l-71 -149q55 -34 87 -91t32 -124q0 -106 -74 -179t-182 -73q-42 0 -79 12zM197 74l164 350q-31 11 -62 11q-83 0 -135.5 -56t-52.5 -143q0 -106 86 -162z
M410 397l-164 -346q24 -7 52 -7q84 0 136 53.5t52 141.5q0 100 -76 158zM405 728l-155 -145l-38 27l133 163z" />
    <glyph glyph-name="dotlessj" unicode="&#x237;" horiz-adv-x="224" 
d="M6 -267l-26 53q20 9 33 14.5t24.5 16t17.5 16.5t11.5 23.5t7.5 28t3.5 39.5t1.5 48.5v64.5v444h66v-440q0 -69 -2 -105t-8.5 -73t-22 -57t-40.5 -38t-66 -35z" />
    <glyph glyph-name="schwa" unicode="&#x259;" horiz-adv-x="547" 
d="M41 227v18h395q0 89 -53.5 140.5t-141.5 51.5q-100 0 -155 -63l-31 40q25 35 78.5 57.5t121.5 22.5q108 0 178 -69.5t70 -181.5q0 -113 -67.5 -184t-177.5 -71q-105 0 -161 69.5t-56 169.5zM433 192h-324q6 -64 45.5 -106t106.5 -42q66 0 114.5 39t57.5 109z" />
    <glyph glyph-name="circumflex" unicode="&#x2c6;" horiz-adv-x="445" 
d="M386 618l-37 -36l-123 96l-122 -96l-38 36l160 134h1z" />
    <glyph glyph-name="caron" unicode="&#x2c7;" horiz-adv-x="445" 
d="M381 712l-159 -134l-160 134l37 37l122 -96l123 96z" />
    <glyph glyph-name="breve" unicode="&#x2d8;" horiz-adv-x="403" 
d="M309 729h67q-3 -63 -48.5 -114t-128.5 -51q-66 0 -113.5 43.5t-53.5 121.5h70q0 -10 3 -24.5t12 -35t30 -34.5t51 -14q29 0 51.5 10.5t33 24.5t17 31.5t8 27t1.5 14.5z" />
    <glyph glyph-name="dotaccent" unicode="&#x2d9;" horiz-adv-x="250" 
d="M172 630q0 -19 -13.5 -32.5t-34.5 -13.5q-19 0 -33 13.5t-14 32.5q0 20 14 34.5t33 14.5q21 0 34.5 -14t13.5 -35z" />
    <glyph glyph-name="ring" unicode="&#x2da;" horiz-adv-x="365" 
d="M303 690q0 -45 -32 -76.5t-78 -31.5t-78 31.5t-32 76.5q0 46 32 77.5t78 31.5q45 0 77.5 -32.5t32.5 -76.5zM194 626q26 0 45 19.5t19 45.5q0 27 -19 46t-45 19t-45 -19t-19 -46q0 -26 19 -45.5t45 -19.5z" />
    <glyph glyph-name="ogonek" unicode="&#x2db;" horiz-adv-x="599" 
d="M401 -152v-58q-31 -15 -79 -15q-52 0 -88.5 22.5t-36.5 69.5q0 83 118 143h62q-115 -63 -115 -128q0 -25 19.5 -38.5t49.5 -13.5q25 0 70 18z" />
    <glyph glyph-name="tilde" unicode="&#x2dc;" horiz-adv-x="371" 
d="M346 686l24 -37q-9 -12 -22 -24.5t-37 -26t-47 -13.5q-19 0 -58 22.5t-60 22.5q-32 0 -81 -46l-29 36q20 22 53 44t61 22q22 0 61 -23t56 -23q37 0 79 46z" />
    <glyph glyph-name="hungarumlaut" unicode="&#x2dd;" horiz-adv-x="564" 
d="M291 694l-185 -115l-28 31l163 133zM476 694l-185 -115l-28 31l163 133z" />
    <glyph glyph-name="pi" unicode="&#x3c0;" horiz-adv-x="559" 
d="M479 0h-69v417h-261v-417h-69v480h399v-480z" />
    <glyph glyph-name="uni1E02" unicode="&#x1e02;" horiz-adv-x="617" 
d="M320 883q0 -19 -13.5 -32.5t-34.5 -13.5q-19 0 -33 13.5t-14 32.5q0 20 14 34.5t33 14.5q21 0 34.5 -14t13.5 -35zM295 0h-195v757h151q116 0 182 -42.5t66 -147.5q0 -53 -37.5 -99t-85.5 -63q68 -9 127.5 -60t59.5 -132q0 -100 -69 -156.5t-199 -56.5zM172 421h61
q87 0 139 39.5t52 104.5q0 127 -161 127h-91v-271zM172 65h130q91 0 138 39t47 108q0 62 -50.5 103t-129.5 41h-135v-291z" />
    <glyph glyph-name="uni1E03" unicode="&#x1e03;" horiz-adv-x="582" 
d="M73 52v768h66v-393q24 24 71.5 45.5t96.5 21.5q113 0 171.5 -72t58.5 -179q0 -121 -77.5 -188t-185.5 -67q-117 0 -201 64zM139 360v-276q20 -15 58.5 -27.5t76.5 -12.5q83 0 138 53t55 147q0 83 -44.5 137.5t-124.5 54.5q-44 0 -90.5 -24t-68.5 -52zM370 630
q0 -19 -13.5 -32.5t-34.5 -13.5q-19 0 -33 13.5t-14 32.5q0 20 14 34.5t33 14.5q21 0 34.5 -14t13.5 -35z" />
    <glyph glyph-name="uni1E0A" unicode="&#x1e0a;" horiz-adv-x="737" 
d="M276 0h-176v757h174q176 0 292.5 -100t116.5 -279q0 -174 -112.5 -276t-294.5 -102zM172 65h91q156 0 250 79.5t94 236.5q0 150 -95.5 230.5t-242.5 80.5h-97v-627zM368 883q0 -19 -13.5 -32.5t-34.5 -13.5q-19 0 -33 13.5t-14 32.5q0 20 14 34.5t33 14.5q21 0 34.5 -14
t13.5 -35z" />
    <glyph glyph-name="uni1E0B" unicode="&#x1e0b;" horiz-adv-x="580" 
d="M442 85v282q-19 30 -61 49.5t-88 19.5q-82 0 -130.5 -54.5t-48.5 -148.5q0 -89 55.5 -139t137.5 -50q77 0 135 41zM442 442v378h66v-768q-86 -64 -201 -64q-109 0 -185.5 63.5t-76.5 181.5t68.5 189.5t178.5 71.5q92 0 150 -52zM303 630q0 -19 -13.5 -32.5t-34.5 -13.5
q-19 0 -33 13.5t-14 32.5q0 20 14 34.5t33 14.5q21 0 34.5 -14t13.5 -35z" />
    <glyph glyph-name="uni1E1E" unicode="&#x1e1e;" horiz-adv-x="512" 
d="M172 0h-72v756h386v-64h-314v-256h253v-64h-253v-372zM340 883q0 -19 -13.5 -32.5t-34.5 -13.5q-19 0 -33 13.5t-14 32.5q0 20 14 34.5t33 14.5q21 0 34.5 -14t13.5 -35z" />
    <glyph glyph-name="uni1E1F" unicode="&#x1e1f;" horiz-adv-x="312" 
d="M172 0h-66v423h-81v57h81v134q0 101 38 152q40 52 119 52q58 0 93 -26l-28 -56q-34 21 -65 21q-91 0 -91 -128v-149h120v-57h-120v-423zM279 924q0 -19 -13.5 -32.5t-34.5 -13.5q-19 0 -33 13.5t-14 32.5q0 20 14 34.5t33 14.5q21 0 34.5 -14t13.5 -35z" />
    <glyph glyph-name="uni1E40" unicode="&#x1e40;" horiz-adv-x="968" 
d="M533 755q0 -19 -13.5 -32.5t-34.5 -13.5q-19 0 -33 13.5t-14 32.5q0 20 14 34.5t33 14.5q21 0 34.5 -14t13.5 -35zM904 0h-75l-49 524q0 3 -0.5 16.5t-0.5 15.5q0 -1 -5 -13t-7 -14l-283 -556l-284 556q-7 12 -12 28q2 -18 -1 -33l-48 -524h-75l83 778l323 -618
q13 -25 15 -37q3 15 14 37l322 618z" />
    <glyph glyph-name="uni1E41" unicode="&#x1e41;" horiz-adv-x="834" 
d="M465 630q0 -19 -13.5 -32.5t-34.5 -13.5q-19 0 -33 13.5t-14 32.5q0 20 14 34.5t33 14.5q21 0 34.5 -14t13.5 -35zM763 0h-66v314q0 63 -27 90.5t-81 27.5q-41 0 -79 -20.5t-61 -44.5q3 -22 3 -44v-323h-66v315q0 63 -27.5 90t-82.5 27q-40 0 -77 -20t-58 -43v-369h-66
v481h66v-51q72 64 160 64t131 -74q86 74 178 74q72 0 112.5 -43.5t40.5 -130.5v-320z" />
    <glyph glyph-name="uni1E56" unicode="&#x1e56;" horiz-adv-x="560" 
d="M331 883q0 -19 -13.5 -32.5t-34.5 -13.5q-19 0 -33 13.5t-14 32.5q0 20 14 34.5t33 14.5q21 0 34.5 -14t13.5 -35zM172 0h-72v757h150q53 0 100 -11.5t87 -36t63.5 -68.5t23.5 -103q0 -108 -72.5 -174t-213.5 -66h-66v-298zM172 363h65q99 0 155.5 46t56.5 128
q0 75 -51.5 115t-129.5 40h-96v-329z" />
    <glyph glyph-name="uni1E57" unicode="&#x1e57;" horiz-adv-x="581" 
d="M139 -254h-66v685q88 63 202 63q109 0 185.5 -67t76.5 -188q0 -105 -63.5 -178t-171.5 -73q-45 0 -90 18.5t-73 45.5v-306zM139 395v-270q24 -34 68 -57t93 -23q71 0 119 52.5t48 140.5q0 87 -53.5 142t-145.5 55q-35 0 -72.5 -12.5t-56.5 -27.5zM335 630
q0 -19 -13.5 -32.5t-34.5 -13.5q-19 0 -33 13.5t-14 32.5q0 20 14 34.5t33 14.5q21 0 34.5 -14t13.5 -35z" />
    <glyph glyph-name="uni1E60" unicode="&#x1e60;" horiz-adv-x="547" 
d="M31 86l42 52q74 -86 194 -86q69 0 113 38t44 101q0 43 -19.5 77t-50 55.5t-68 40t-75 37.5t-68 41.5t-50 57.5t-19.5 81q0 89 63.5 140.5t152.5 51.5q63 0 112 -24.5t74 -51.5l-40 -51q-62 62 -145 62q-59 0 -100.5 -31.5t-41.5 -88.5q0 -36 19.5 -64t50.5 -47t68.5 -36
t75 -37.5t68.5 -46.5t50.5 -68t19.5 -97q0 -82 -65.5 -143.5t-174.5 -61.5q-73 0 -138.5 31.5t-91.5 67.5zM334 883q0 -19 -13.5 -32.5t-34.5 -13.5q-19 0 -33 13.5t-14 32.5q0 20 14 34.5t33 14.5q21 0 34.5 -14t13.5 -35z" />
    <glyph glyph-name="uni1E61" unicode="&#x1e61;" horiz-adv-x="406" 
d="M26 57l34 46q55 -62 134 -62q45 0 73.5 24t28.5 69q0 29 -24 51.5t-58 38.5t-68 33t-58 44.5t-24 64.5q0 55 41 92t108 37q43 0 82 -17t59 -39l-29 -48q-13 15 -43.5 32.5t-65.5 17.5q-42 0 -63 -21t-21 -49q0 -26 24 -45t58 -33.5t68 -32t58 -49.5t24 -76
q0 -67 -47.5 -107.5t-121.5 -40.5q-107 0 -169 70zM256 630q0 -19 -13.5 -32.5t-34.5 -13.5q-19 0 -33 13.5t-14 32.5q0 20 14 34.5t33 14.5q21 0 34.5 -14t13.5 -35z" />
    <glyph glyph-name="uni1E6A" unicode="&#x1e6a;" horiz-adv-x="550" 
d="M311 0h-72v692h-220v64h512v-64h-220v-692zM323 883q0 -19 -13.5 -32.5t-34.5 -13.5q-19 0 -33 13.5t-14 32.5q0 20 14 34.5t33 14.5q21 0 34.5 -14t13.5 -35z" />
    <glyph glyph-name="uni1E6B" unicode="&#x1e6b;" horiz-adv-x="309" 
d="M191 788q0 -19 -13.5 -32.5t-34.5 -13.5q-19 0 -33 13.5t-14 32.5q0 20 14 34.5t33 14.5q21 0 34.5 -14t13.5 -35zM177 0h-66v423h-89v57h89v172h66v-172h117v-57h-117v-423z" />
    <glyph glyph-name="Wgrave" unicode="&#x1e80;" horiz-adv-x="1010" 
d="M747 -30l-228 572q-11 26 -14 47q-3 -21 -14 -47l-224 -571l-263 786h81l184 -570q3 -10 6 -41q2 27 7 41l222 594l231 -594q3 -8 6 -41q2 27 6 41l179 570h79zM609 837l-257 45l25 66l250 -64z" />
    <glyph glyph-name="wgrave" unicode="&#x1e81;" horiz-adv-x="726" 
d="M428 610l-39 -27l-154 145l60 45zM522 -16h-18l-141 361l-141 -361h-19l-194 497h72l138 -360l142 373h7l141 -373l138 360h70z" />
    <glyph glyph-name="Wacute" unicode="&#x1e82;" horiz-adv-x="1010" 
d="M747 -30l-228 572q-11 26 -14 47q-3 -21 -14 -47l-224 -571l-263 786h81l184 -570q3 -10 6 -41q2 27 7 41l222 594l231 -594q3 -8 6 -41q2 27 6 41l179 570h79zM655 882l-258 -45l-18 47l250 64z" />
    <glyph glyph-name="wacute" unicode="&#x1e83;" horiz-adv-x="726" 
d="M484 728l-155 -145l-38 27l133 163zM522 -16h-18l-141 361l-141 -361h-19l-194 497h72l138 -360l142 373h7l141 -373l138 360h70z" />
    <glyph glyph-name="Wdieresis" unicode="&#x1e84;" horiz-adv-x="1010" 
d="M747 -30l-228 572q-11 26 -14 47q-3 -21 -14 -47l-224 -571l-263 786h81l184 -570q3 -10 6 -41q2 27 7 41l222 594l231 -594q3 -8 6 -41q2 27 6 41l179 570h79zM766 757q0 -19 -13.5 -32t-35.5 -13q-19 0 -32 13t-13 32q0 20 13 33.5t32 13.5q22 0 35.5 -13.5t13.5 -33.5
zM340 757q0 -19 -14 -32t-34 -13q-19 0 -33 13t-14 32t14 33t33 14q20 0 34 -13.5t14 -33.5z" />
    <glyph glyph-name="wdieresis" unicode="&#x1e85;" horiz-adv-x="726" 
d="M297 635q0 -19 -14 -32t-34 -13q-19 0 -33 13t-14 32t14 33t33 14q20 0 34 -13.5t14 -33.5zM523 635q0 -19 -13.5 -32t-35.5 -13q-19 0 -32 13t-13 32q0 20 13 33.5t32 13.5q22 0 35.5 -13.5t13.5 -33.5zM522 -16h-18l-141 361l-141 -361h-19l-194 497h72l138 -360
l142 373h7l141 -373l138 360h70z" />
    <glyph glyph-name="Ygrave" unicode="&#x1ef2;" horiz-adv-x="561" 
d="M316 0h-72v327l-250 430h80l203 -355q4 -11 5 -18q1 10 6 18l204 355h79l-255 -430v-327zM348 770l-39 -27l-154 145l60 45z" />
    <glyph glyph-name="ygrave" unicode="&#x1ef3;" horiz-adv-x="496" 
d="M120 -258h-70l156 305l-199 434h74l161 -369l176 369h73zM294 610l-39 -27l-154 145l60 45z" />
    <glyph glyph-name="emdash" unicode="&#x2014;" horiz-adv-x="878" 
d="M800 218h-730l8 57h730z" />
    <glyph glyph-name="quoteleft" unicode="&#x2018;" horiz-adv-x="235" 
d="M124 560h-73l88 197h54z" />
    <glyph glyph-name="quoteright" unicode="&#x2019;" horiz-adv-x="231" 
d="M107 560h-54l68 197h73z" />
    <glyph glyph-name="quotesinglbase" unicode="&#x201a;" horiz-adv-x="230" 
d="M82 -77h-54l68 196h73z" />
    <glyph glyph-name="quotedblleft" unicode="&#x201c;" horiz-adv-x="389" 
d="M120 560h-69l88 197h54zM281 560h-69l81 197h54z" />
    <glyph glyph-name="quotedblright" unicode="&#x201d;" horiz-adv-x="386" 
d="M262 560h-54l73 197h69zM108 560h-54l66 197h69z" />
    <glyph glyph-name="quotedblbase" unicode="&#x201e;" horiz-adv-x="391" 
d="M238 -76h-54l73 196h69zM84 -76h-54l66 196h69z" />
    <glyph glyph-name="dagger" unicode="&#x2020;" horiz-adv-x="469" 
d="M264 55h-63v497h-147v57h147v206h63v-206h151v-57h-151v-497z" />
    <glyph glyph-name="daggerdbl" unicode="&#x2021;" horiz-adv-x="492" 
d="M275 56h-63v193h-147v56h147v272h-147v56h147v187h63v-187h151v-56h-151v-272h151v-56h-151v-193z" />
    <glyph glyph-name="bullet" unicode="&#x2022;" horiz-adv-x="481" 
d="M366 288q0 -52 -37 -88.5t-89 -36.5t-89 36.5t-37 88.5t37 89t89 37t89 -37t37 -89z" />
    <glyph glyph-name="twodotenleader" unicode="&#x2025;" horiz-adv-x="477" 
d="M171 41q0 -21 -15 -36t-38 -15q-21 0 -37 15.5t-16 35.5q0 23 16 38.5t37 15.5q23 0 38 -15.5t15 -38.5zM412 41q0 -21 -15 -36t-38 -15q-21 0 -37 15.5t-16 35.5q0 23 16 38.5t37 15.5q23 0 38 -15.5t15 -38.5z" />
    <glyph glyph-name="ellipsis" unicode="&#x2026;" horiz-adv-x="718" 
d="M171 41q0 -21 -15 -36t-38 -15q-21 0 -37 15.5t-16 35.5q0 23 16 38.5t37 15.5q23 0 38 -15.5t15 -38.5zM412 41q0 -21 -15 -36t-38 -15q-21 0 -37 15.5t-16 35.5q0 23 16 38.5t37 15.5q23 0 38 -15.5t15 -38.5zM653 41q0 -21 -15 -36t-38 -15q-21 0 -37 15.5t-16 35.5
q0 23 16 38.5t37 15.5q23 0 38 -15.5t15 -38.5z" />
    <glyph glyph-name="perthousand" unicode="&#x2030;" horiz-adv-x="1215" 
d="M1166 137q0 -62 -44 -105t-106 -43t-105 43t-43 105t43 105.5t105 43.5t106 -43.5t44 -105.5zM1017 38q41 0 68.5 28.5t27.5 70.5q0 41 -27.5 69.5t-68.5 28.5q-40 0 -68 -28.5t-28 -69.5t28 -70t68 -29zM263 -21l-45 18l321 766l45 -18zM348 613q0 -62 -44 -105.5
t-106 -43.5t-105 43.5t-43 105.5t43 105.5t105 43.5t106 -43.5t44 -105.5zM199 515q41 0 69 28.5t28 69.5t-28 69.5t-69 28.5q-40 0 -68 -28.5t-28 -69.5t28 -69.5t68 -28.5zM620 -11q-62 0 -105 43t-43 105t43 105.5t105 43.5t105.5 -43.5t43.5 -105.5t-43.5 -105
t-105.5 -43zM621 38q40 0 68 29t28 70t-28 69.5t-68 28.5q-41 0 -68.5 -28.5t-27.5 -69.5q0 -42 27.5 -70.5t68.5 -28.5z" />
    <glyph glyph-name="guilsinglleft" unicode="&#x2039;" horiz-adv-x="298" 
d="M247 26h-66l-131 209l128 210h65l-131 -210z" />
    <glyph glyph-name="guilsinglright" unicode="&#x203a;" horiz-adv-x="299" 
d="M118 26h-67l135 209l-131 210h66l128 -210z" />
    <glyph glyph-name="fraction" unicode="&#x2044;" horiz-adv-x="136" 
d="M-91 -3l-44 19l365 747l44 -20z" />
    <glyph glyph-name="zero.sinf" unicode="&#x2080;" horiz-adv-x="426" 
d="M212 -188q-50 0 -85.5 20.5t-52 55t-23.5 67.5t-7 71t6.5 71.5t23.5 68t52 55t86 20.5t86.5 -19.5t52.5 -54t24 -68t7 -73.5q0 -38 -7 -71.5t-24 -68t-52.5 -54.5t-86.5 -20zM212 -137q33 0 56 17t32.5 45t13 51.5t3.5 49.5q0 164 -105 164q-103 0 -103 -164
q0 -25 3.5 -49t13.5 -52t32 -45t54 -17z" />
    <glyph glyph-name="one.sinf" unicode="&#x2081;" horiz-adv-x="240" 
d="M177 -180h-63v347l-74 -30l-22 49l159 59v-425z" />
    <glyph glyph-name="two.sinf" unicode="&#x2082;" horiz-adv-x="403" 
d="M364 -179h-344q2 2 42 32t58.5 45t55.5 48t56 57t35 55t16 57q0 30 -23.5 52t-57.5 22q-58 0 -98 -45l-31 40q62 56 135 56q62 0 101 -36t39 -89q0 -109 -199 -244l215 2v-52z" />
    <glyph glyph-name="three.sinf" unicode="&#x2083;" horiz-adv-x="371" 
d="M238 50v-1q46 -16 69 -47.5t23 -70.5q0 -48 -46 -84t-122 -36q-51 0 -87 15t-51 30l28 45q11 -12 41.5 -24.5t68.5 -12.5q50 0 77.5 22t27.5 53q0 40 -38.5 65t-102.5 25v34q55 0 88.5 21t33.5 50q0 24 -20.5 39t-55.5 15q-46 0 -80 -23l-21 45q13 11 45 21t67 10
q57 0 92.5 -29.5t35.5 -67.5q0 -63 -73 -94z" />
    <glyph glyph-name="four.sinf" unicode="&#x2084;" horiz-adv-x="414" 
d="M319 -184h-62v85h-232v44l250 289h44v-282h66v-51h-66v-85zM259 -50v195l-166 -195h166z" />
    <glyph glyph-name="five.sinf" unicode="&#x2085;" horiz-adv-x="367" 
d="M25 -152l23 51q52 -32 100 -32q55 0 85 25t30 62t-29 62t-86 25q-38 0 -82 -13l62 205h190l-16 -50h-131l-33 -100q24 2 35 2q65 0 110.5 -37t45.5 -92q0 -61 -43.5 -102t-126.5 -41q-41 0 -78.5 11.5t-55.5 23.5z" />
    <glyph glyph-name="six.sinf" unicode="&#x2086;" horiz-adv-x="399" 
d="M233 280l44 -39q-28 -27 -72.5 -77.5t-63.5 -82.5q26 21 80 21q62 0 106.5 -41.5t44.5 -102.5q0 -62 -48.5 -104t-118.5 -42t-119.5 44t-49.5 103q0 115 197 321zM308 -40q0 40 -31.5 66t-75.5 26q-40 0 -70 -26.5t-30 -65.5q0 -37 31 -65.5t74 -28.5q42 0 72 27t30 67z
" />
    <glyph glyph-name="seven.sinf" unicode="&#x2087;" horiz-adv-x="359" 
d="M111 -184h-70l215 361h-220v55h314z" />
    <glyph glyph-name="eight.sinf" unicode="&#x2088;" horiz-adv-x="404" 
d="M282 36q78 -33 78 -96q0 -54 -46.5 -91t-110.5 -37q-66 0 -112.5 36.5t-46.5 89.5q0 33 24 58t55 39q-31 12 -53 39t-22 56q0 57 46.5 91t107.5 34q65 0 109.5 -34.5t44.5 -90.5q0 -29 -22 -56t-52 -38zM294 -61q0 30 -27 51.5t-66 21.5q-38 0 -65 -21.5t-27 -51.5
q0 -31 27 -52.5t65 -21.5q39 0 66 22t27 52zM292 128q0 32 -26 53t-64 21q-37 0 -63.5 -21t-26.5 -51q0 -28 26.5 -49.5t64.5 -21.5q37 0 63 20.5t26 48.5z" />
    <glyph glyph-name="nine.sinf" unicode="&#x2089;" horiz-adv-x="400" 
d="M170 -221l-43 38q79 73 133 154q-24 -21 -72 -21q-66 0 -114 43t-48 103q0 58 48.5 101.5t119.5 43.5q72 0 120.5 -43.5t48.5 -101.5q0 -41 -23.5 -92.5t-60 -98.5t-62 -76t-47.5 -50zM297 96q0 38 -30 64.5t-73 26.5q-44 0 -72.5 -27t-28.5 -64q0 -40 28 -68t74 -28
q45 0 73.5 27t28.5 69z" />
    <glyph glyph-name="parenleft.sinf" unicode="&#x208d;" horiz-adv-x="183" 
d="M148 -283l-47 -18q-57 129 -57 297q0 175 57 307l47 -18q-18 -47 -33.5 -126t-15.5 -161q0 -119 49 -281z" />
    <glyph glyph-name="parenright.sinf" unicode="&#x208e;" horiz-adv-x="182" 
d="M82 -301l-46 18q48 158 48 281q0 82 -15.5 161t-33.5 126l47 18q55 -130 55 -307q0 -169 -55 -297z" />
    <glyph glyph-name="Euro" unicode="&#x20ac;" horiz-adv-x="698" 
d="M611 80l27 -59q-6 -5 -22 -11.5t-56.5 -14t-88.5 -7.5q-50 0 -98.5 14.5t-95 45.5t-82 87.5t-49.5 131.5h-93l13 56h73q-2 30 -2 48q0 29 3 59h-76l13 55h71q25 122 103 199.5t211 77.5q107 0 173 -43l-31 -53q-61 33 -150 33q-97 0 -156.5 -59.5t-82.5 -154.5h304
l-13 -55h-300q-3 -28 -3 -56q0 -35 2 -51h303l-13 -56h-282q13 -63 42.5 -108.5t67.5 -68t74.5 -32.5t74.5 -10q91 0 139 32z" />
    <glyph glyph-name="uni2117" unicode="&#x2117;" horiz-adv-x="913" 
d="M457 36q141 0 239.5 99.5t98.5 241.5q0 143 -98 242t-240 99q-143 0 -240.5 -98.5t-97.5 -242.5q0 -142 97.5 -241.5t240.5 -99.5zM457 -16q-165 0 -280 115t-115 278q0 164 115 279t280 115q164 0 279 -115t115 -279q0 -163 -115 -278t-279 -115zM419 111h-69v521h97
q95 0 155.5 -36.5t60.5 -119.5q0 -79 -57 -126t-161 -47h-26v-192zM419 363h26q69 0 107.5 30t38.5 81q0 47 -33.5 72.5t-92.5 25.5h-46v-209z" />
    <glyph glyph-name="trademark" unicode="&#x2122;" horiz-adv-x="977" 
d="M259 387h-61v316l-124 -1v55h308v-55l-123 1v-316zM896 387h-61l-30 235l-148 -249l-149 249l-25 -235h-62l51 381l187 -298l184 297z" />
    <glyph glyph-name="estimated" unicode="&#x212e;" horiz-adv-x="871" 
d="M706 145l41 -53q-3 -4 -14 -13.5t-37 -26t-57 -30.5t-78 -24.5t-96 -10.5q-169 0 -284 112t-115 282q0 164 111 277t273 113q57 0 109 -14.5t99 -46.5t81 -79t54.5 -117.5t21.5 -156.5h-673q8 -134 95.5 -219.5t229.5 -85.5q40 0 79.5 9t66 21.5t49 27t32 23t12.5 12.5z
M144 423h596q-6 94 -49 160t-104.5 94.5t-135.5 28.5q-124 0 -208 -81t-99 -202z" />
    <glyph glyph-name="arrowleft" unicode="&#x2190;" horiz-adv-x="861" 
d="M811 343h-669l66 -105l-52 -22l-106 160l106 160l51 -20l-65 -107h669v-66z" />
    <glyph glyph-name="arrowup" unicode="&#x2191;" horiz-adv-x="420" 
d="M243 -3h-66v668l-107 -65l-20 51l160 106l160 -106l-22 -52l-105 66v-668z" />
    <glyph glyph-name="arrowright" unicode="&#x2192;" horiz-adv-x="861" 
d="M705 216l-52 22l66 105h-669v66h669l-65 107l51 20l106 -160z" />
    <glyph glyph-name="arrowdown" unicode="&#x2193;" horiz-adv-x="420" 
d="M370 102l-160 -105l-160 105l20 51l107 -65v669h66v-669l105 66z" />
    <glyph glyph-name="arrowboth" unicode="&#x2194;" horiz-adv-x="881" 
d="M725 216l-52 22l66 105h-597l66 -105l-52 -22l-106 160l106 160l51 -20l-65 -107h597l-65 107l51 20l106 -160z" />
    <glyph glyph-name="arrowupdn" unicode="&#x2195;" horiz-adv-x="420" 
d="M370 91l-160 -105l-160 105l22 52l105 -66v597l-105 -66l-22 52l160 106l160 -106l-20 -51l-107 65v-597l107 65z" />
    <glyph glyph-name="uni2196" unicode="&#x2196;" horiz-adv-x="714" 
d="M623 85l-473 473l-29 -122l-51 22l39 188l188 39l21 -53l-121 -27l473 -473z" />
    <glyph glyph-name="uni2197" unicode="&#x2197;" horiz-adv-x="714" 
d="M670 458l-51 -22l-29 122l-473 -473l-47 47l473 473l-121 27l21 53l188 -39z" />
    <glyph glyph-name="uni2198" unicode="&#x2198;" horiz-adv-x="714" 
d="M631 124l-188 -39l-21 53l121 27l-473 473l47 47l473 -473l29 122l51 -22z" />
    <glyph glyph-name="uni2199" unicode="&#x2199;" horiz-adv-x="714" 
d="M297 85l-188 39l-39 188l51 22l29 -122l473 473l47 -47l-473 -473l121 -27z" />
    <glyph glyph-name="partialdiff" unicode="&#x2202;" horiz-adv-x="627" 
d="M194 775l57 31q113 -90 212.5 -264.5t99.5 -303.5q0 -104 -72.5 -177.5t-181.5 -73.5q-113 0 -185 73.5t-72 174.5q0 102 72 177t183 75q92 0 149 -61q-38 88 -112.5 192.5t-149.5 156.5zM308 43q78 0 132 52t54 140q0 79 -54 137t-133 58q-87 0 -137 -57t-50 -140
q0 -72 52.5 -131t135.5 -59z" />
    <glyph glyph-name="Delta" unicode="&#x2206;" horiz-adv-x="787" 
d="M746 0h-705l354 778zM639 65l-245 563l-247 -563h492z" />
    <glyph glyph-name="product" unicode="&#x220f;" horiz-adv-x="778" 
d="M669 0h-72v692h-416v-692h-72v757h560v-757z" />
    <glyph glyph-name="summation" unicode="&#x2211;" horiz-adv-x="658" 
d="M599 1h-548l300 377l-300 378h516v-63h-384l259 -315l-259 -314h416v-63z" />
    <glyph glyph-name="minus" unicode="&#x2212;" horiz-adv-x="687" 
d="M604 334h-521v59h521v-59z" />
    <glyph glyph-name="radical" unicode="&#x221a;" horiz-adv-x="673" 
d="M234 -277l-224 559h73l154 -387l362 933h76z" />
    <glyph glyph-name="infinity" unicode="&#x221e;" horiz-adv-x="929" 
d="M455 181q-39 -68 -83.5 -106t-107.5 -38q-83 0 -140.5 67t-57.5 153q0 99 58.5 164.5t139.5 65.5q36 0 65 -14.5t54.5 -46.5t40 -56.5t38.5 -71.5q21 44 38 71t43.5 57.5t62 45.5t79.5 15q74 0 125.5 -60.5t51.5 -158.5q0 -102 -62.5 -166.5t-136.5 -64.5
q-118 0 -208 144zM490 244q37 -69 77.5 -106.5t99.5 -37.5t98 39t39 123q0 71 -36.5 117.5t-98.5 46.5q-30 0 -55 -13.5t-49 -45t-37 -54t-38 -69.5zM428 228q-6 11 -22.5 41t-23.5 42t-21.5 35t-24.5 33.5t-24 23.5t-28 18t-30 5q-50 0 -89.5 -43t-39.5 -112q0 -89 44 -130
t107 -41q52 0 86.5 33t65.5 95z" />
    <glyph glyph-name="integral" unicode="&#x222b;" horiz-adv-x="446" 
d="M190 -23v637q0 101 38 152q40 52 119 52q58 0 93 -26l-28 -56q-34 21 -65 21q-91 0 -91 -128v-637q0 -101 -38 -152q-40 -52 -119 -52q-58 0 -93 26l28 56q34 -21 65 -21q91 0 91 128z" />
    <glyph glyph-name="approxequal" unicode="&#x2248;" horiz-adv-x="693" 
d="M541 273l69 -7q-10 -130 -111 -130q-49 0 -93 16t-70.5 35t-60.5 35t-67 16q-26 0 -40.5 -22t-13.5 -59l-66 6q0 60 31.5 96t81.5 36q44 0 84.5 -16t66.5 -35.5t63 -35.5t75 -16q51 0 51 81zM541 518l69 -7q-10 -130 -111 -130q-49 0 -93 16t-70.5 35t-60.5 35t-67 16
q-26 0 -40.5 -22t-13.5 -59l-66 6q0 60 31.5 96t81.5 36q44 0 84.5 -16t66.5 -35.5t63 -35.5t75 -16q51 0 51 81z" />
    <glyph glyph-name="notequal" unicode="&#x2260;" horiz-adv-x="666" 
d="M593 214h-269l-62 -214l-60 6l61 208h-193v61h213l48 165h-261v62h281l64 205l56 -10l-59 -195h181v-62h-202l-46 -165h248v-61z" />
    <glyph glyph-name="lessequal" unicode="&#x2264;" horiz-adv-x="645" 
d="M525 101l-452 274v37l453 257l31 -52l-399 -224l399 -242zM586 1h-523v59h523v-59z" />
    <glyph glyph-name="greaterequal" unicode="&#x2265;" horiz-adv-x="645" 
d="M572 375l-452 -274l-32 50l399 242l-398 224l30 52l453 -257v-37zM582 1h-523v59h523v-59z" />
    <glyph glyph-name="triagup" unicode="&#x25b2;" horiz-adv-x="669" 
d="M679 0h-688l336 578z" />
    <glyph glyph-name="triagrt" unicode="&#x25ba;" horiz-adv-x="632" 
d="M632 360l-533 -364v723z" />
    <glyph glyph-name="triagdn" unicode="&#x25bc;" horiz-adv-x="669" 
d="M327 10l-336 579h688z" />
    <glyph glyph-name="triaglf" unicode="&#x25c4;" horiz-adv-x="632" 
d="M533 -4l-533 364l533 359v-723z" />
    <glyph glyph-name="lozenge" unicode="&#x25ca;" horiz-adv-x="587" 
d="M296 -29h-1l-243 438l243 440h1l239 -440zM297 105l164 304l-164 305l-168 -305z" />
    <glyph glyph-name="ff" unicode="&#xfb00;" horiz-adv-x="624" 
d="M172 0h-66v423h-81v57h81v94q0 103 38 152q40 52 116 52q61 0 96 -26l-28 -56q-36 21 -68 21q-88 0 -88 -128v-109h120v-57h-120v-423zM484 0h-66v423h-80v57h80v142q0 103 38 152q40 52 116 52q61 0 96 -26l-28 -56q-36 21 -68 21q-88 0 -88 -128v-157h120v-57h-120
v-423z" />
    <glyph glyph-name="fi" unicode="&#xfb01;" horiz-adv-x="536" 
d="M457 0h-66v481h66v-481zM476 622q0 -21 -15 -36t-36 -15t-36 15t-15 36q0 22 15 36.5t36 14.5q22 0 36.5 -15t14.5 -36zM172 0h-66v423h-81v57h81v134q0 103 38 152q40 52 116 52q61 0 96 -26l-28 -56q-36 21 -68 21q-88 0 -88 -128v-149h120v-57h-120v-423z" />
    <glyph glyph-name="fl" unicode="&#xfb02;" horiz-adv-x="540" 
d="M459 0h-66v820h66v-820zM172 0h-66v423h-81v57h81v121q0 103 38 152q40 52 116 52q61 0 96 -26l-28 -56q-36 21 -68 21q-88 0 -88 -128v-136h120v-57h-120v-423z" />
    <glyph glyph-name="ffi" unicode="&#xfb03;" horiz-adv-x="848" 
d="M172 0h-66v423h-81v57h81v94q0 103 38 152q40 52 116 52q61 0 96 -26l-28 -56q-36 21 -68 21q-88 0 -88 -128v-109h120v-57h-120v-423zM769 0h-66v481h66v-481zM788 622q0 -21 -15 -36t-36 -15t-36 15t-15 36q0 22 15 36.5t36 14.5q22 0 36.5 -15t14.5 -36zM484 0h-66
v423h-81v57h81v134q0 103 38 152q40 52 116 52q61 0 96 -26l-28 -56q-36 21 -68 21q-88 0 -88 -128v-149h120v-57h-120v-423z" />
    <glyph glyph-name="ffl" unicode="&#xfb04;" horiz-adv-x="852" 
d="M771 0h-66v820h66v-820zM172 0h-66v423h-81v57h81v90q0 103 38 152q40 52 116 52q61 0 96 -26l-28 -56q-36 21 -68 21q-88 0 -88 -128v-105h112v-57h-112v-423zM484 0h-66v423h-80v57h80v127q0 103 38 152q40 52 116 52q61 0 96 -26l-28 -56q-36 21 -68 21
q-88 0 -88 -128v-142h120v-57h-120v-423z" />
    <glyph glyph-name="tcommaaccent.alt" horiz-adv-x="312" 
d="M143 -232h-73l87 190h79zM281 43l-35 -52q-69 0 -105 32t-36 118v281h-86v58h86v172h66v-172h119v-58h-119v-269q0 -67 26.5 -88t83.5 -22z" />
    <glyph glyph-name="dcroat.sc" horiz-adv-x="594" 
d="M232 0h-141v234h-63v56h63v238h132q141 0 229 -69t88 -195q0 -123 -83.5 -193.5t-224.5 -70.5zM160 63h63q114 0 179 50t65 153q0 92 -66 145.5t-167 53.5h-74v-175h146v-56h-146v-171z" />
    <glyph glyph-name="dcaron.sc" horiz-adv-x="590" 
d="M438 736l-159 -134l-160 134l37 36l122 -96l123 96zM228 0h-141v528h132q141 0 229 -69t88 -195q0 -123 -83.5 -193.5t-224.5 -70.5zM156 63h63q114 0 179 50.5t65 152.5q0 92 -66 145.5t-167 53.5h-74v-402z" />
    <glyph glyph-name="ccaron.sc" horiz-adv-x="595" 
d="M518 102l31 -47q-78 -65 -194 -65q-130 0 -217 80t-87 194t85.5 194.5t214.5 80.5q114 0 197 -71l-38 -48q-62 57 -164 57q-96 0 -158.5 -61t-62.5 -156q0 -87 67.5 -148t163.5 -61q99 0 162 51zM482 738l-159 -134l-160 134l37 36l122 -96l123 96z" />
    <glyph glyph-name="o.sc" horiz-adv-x="680" 
d="M629 262q0 -113 -83.5 -192.5t-204.5 -79.5q-124 0 -207 80t-83 194q0 115 83 195t207 80t206 -79t82 -198zM557 262q0 93 -62 154t-155 61q-95 0 -156.5 -60.5t-61.5 -151.5q0 -87 61.5 -150.5t152.5 -63.5q97 0 159 60.5t62 150.5z" />
    <glyph glyph-name="r.sc" horiz-adv-x="505" 
d="M506 0h-102l-248 213v-213h-69v528h119q95 0 154.5 -37t59.5 -119q0 -71 -43 -115.5t-121 -56.5zM156 259h41q75 0 113 30t38 82q0 46 -33 70t-92 24h-67v-206z" />
    <glyph glyph-name="c.sc" horiz-adv-x="595" 
d="M518 102l31 -47q-78 -65 -194 -65q-130 0 -217 80t-87 194t85.5 194.5t214.5 80.5q114 0 197 -71l-38 -48q-62 57 -164 57q-96 0 -158.5 -61t-62.5 -156q0 -87 67.5 -148t163.5 -61q99 0 162 51z" />
    <glyph glyph-name="i.sc" horiz-adv-x="243" 
d="M156 0h-69v528h69v-528z" />
    <glyph glyph-name="p.sc" horiz-adv-x="461" 
d="M156 0h-69v528h117q95 0 155.5 -36.5t60.5 -119.5q0 -81 -57 -128.5t-161 -47.5h-46v-196zM156 259h46q69 0 107.5 30t38.5 81q0 47 -33 71t-93 24h-66v-206z" />
    <glyph glyph-name="m.sc" horiz-adv-x="758" 
d="M699 0h-70l-36 330v7v11v8l-3.5 -7t-4.5 -9.5t-4 -7.5l-203 -351l-203 350q-7 12 -12 24q3 -10 1 -26l-35 -329h-70l66 542l243 -416q1 -2 5.5 -10.5t5.5 -11.5q1 6 10 22l243 416z" />
    <glyph glyph-name="seven.osf" horiz-adv-x="523" 
d="M109 -208h-74l383 651l-365 -1v63h468z" />
    <glyph glyph-name="two.osf" horiz-adv-x="543" 
d="M488 0h-464v28q23 9 48 20t72 34t86 48.5t77.5 56.5t61 67t22.5 71q0 61 -37.5 99t-96.5 38q-46 0 -88.5 -23.5t-63.5 -50.5l-37 44q29 32 81 61.5t115 29.5q87 0 141.5 -54.5t54.5 -139.5q0 -60 -46 -117t-104 -93t-122 -61l300 3v-61z" />
    <glyph glyph-name="zero.osf" horiz-adv-x="655" 
d="M595 249q0 -111 -78.5 -188.5t-189.5 -77.5t-189 77.5t-78 188.5t78 189t189 78t189.5 -78t78.5 -189zM530 248q0 83 -59 142t-143 59t-142.5 -59t-58.5 -142q0 -84 58.5 -142.5t142.5 -58.5t143 58.5t59 142.5z" />
    <glyph glyph-name="three.osf" horiz-adv-x="541" 
d="M25 -171l30 54q19 -23 64 -47t108 -24q87 0 134.5 48t47.5 114q0 75 -62 135t-159 64v37q91 6 141.5 49.5t50.5 100.5q0 40 -35 70t-96 30q-73 0 -127 -41l-24 51q17 17 64.5 35.5t97.5 18.5q85 0 137 -48t52 -112q0 -115 -119 -168v-2q72 -29 110.5 -91.5t38.5 -130.5
q0 -89 -67.5 -155t-183.5 -66q-53 0 -100.5 17t-68 31.5t-34.5 29.5z" />
    <glyph glyph-name="nine.osf" horiz-adv-x="557" 
d="M242 -265l-47 45q44 46 107.5 132.5t105.5 162.5q-19 -21 -54.5 -31.5t-64.5 -10.5q-108 0 -179 71.5t-71 173.5q0 96 71.5 166t176.5 70q107 0 179 -70.5t72 -165.5q0 -67 -34.5 -152t-88.5 -164.5t-95 -132.5t-78 -94zM289 94q78 0 127.5 53t49.5 131q0 72 -52.5 122.5
t-126.5 50.5q-77 0 -126 -51t-49 -122q0 -76 49 -130t128 -54z" />
    <glyph glyph-name="one.osf" horiz-adv-x="425" 
d="M390 0h-331l1 56l142 1l1 372l-114 -43l-20 54l202 76l-2 -458l121 1v-59z" />
    <glyph glyph-name="eight.sc" horiz-adv-x="473" 
d="M323 264q38 -16 64 -47t26 -74q0 -64 -51.5 -108t-124.5 -44t-125 43.5t-52 107.5q0 42 27.5 73.5t63.5 48.5q-37 15 -61.5 48t-24.5 70q0 68 52 109t120 41q73 0 122.5 -41t49.5 -109q0 -37 -24.5 -70.5t-61.5 -47.5zM344 142q0 39 -31.5 68t-75.5 29q-46 0 -78 -28.5
t-32 -68.5t32.5 -69t77.5 -29q44 0 75.5 29t31.5 69zM342 380q0 42 -30.5 70t-74.5 28t-75 -28t-31 -68q0 -37 31 -64.5t76 -27.5q43 0 73.5 27t30.5 63z" />
    <glyph glyph-name="zero.sc" horiz-adv-x="535" 
d="M267 -8q-63 0 -107 25.5t-65 69t-29 86t-8 92.5q0 37 4.5 71t18 72t35.5 66t60.5 46t89.5 18t90 -17.5t61.5 -44.5t36.5 -65t18.5 -72.5t4.5 -73.5t-4.5 -74t-18.5 -72.5t-36.5 -64.5t-61 -44.5t-89.5 -17.5zM267 47q37 0 64 16t41.5 39t23.5 55t11 56.5t2 51.5
q0 28 -2.5 53t-11.5 56.5t-23.5 53.5t-42 37.5t-63.5 15.5q-141 0 -141 -216q0 -21 2 -41.5t7 -47t15.5 -48t25 -40.5t38.5 -30t54 -11z" />
    <glyph glyph-name="two.sc" horiz-adv-x="480" 
d="M431 1h-401v27q36 18 85.5 55t102 85.5t89 107t36.5 107.5q0 41 -29 69.5t-73 28.5q-69 0 -119 -55l-33 42q71 71 158 71q72 0 118 -45t46 -111q0 -149 -254 -326l274 1v-57z" />
    <glyph glyph-name="e.sc" horiz-adv-x="462" 
d="M417 1h-330v526h307v-63l-238 1v-153h191v-63l-191 1v-187l261 1v-63z" />
    <glyph glyph-name="t.sc" horiz-adv-x="466" 
d="M268 0h-69v466l-172 -1v62h412v-62l-171 1v-466z" />
    <glyph glyph-name="a.sc" horiz-adv-x="556" 
d="M550 0h-73l-63 126h-271l-62 -126h-74l271 546zM382 189l-105 211l-104 -211h209z" />
    <glyph glyph-name="l.sc" horiz-adv-x="423" 
d="M396 1h-309v527h69v-465l240 1v-63z" />
    <glyph glyph-name="n.sc" horiz-adv-x="666" 
d="M579 -18l-426 403l2 -385h-69l1 543l426 -405l-2 390h69z" />
    <glyph glyph-name="t.semp" horiz-adv-x="297" 
d="M141 0h-66v659h66v-179h142v-57h-142v-423z" />
    <glyph glyph-name="f.semp" horiz-adv-x="300" 
d="M141 -244h-66v858q0 103 38 152q40 52 116 52q61 0 96 -26l-28 -56q-36 21 -68 21q-88 0 -88 -128v-150h140v-57h-140v-666z" />
    <glyph glyph-name="A.semp" horiz-adv-x="692" 
d="M698 0h-78l-69 156h-412l-68 -156h-77l353 778zM523 221l-177 402l-178 -402h355z" />
    <glyph glyph-name="plus.dnom" horiz-adv-x="418" 
d="M382 169h-146v-127h-54v127h-146v51h146v132h54v-132h146v-51z" />
    <glyph glyph-name="paragraph.sc" horiz-adv-x="540" 
d="M328 531v-522q-127 0 -206 73.5t-79 182.5q0 111 79.5 188.5t205.5 77.5zM455 -137h-67v671h67v-671z" />
    <glyph glyph-name="oslash.sc" horiz-adv-x="680" 
d="M212 -110l-54 22l47 107q-71 35 -112.5 100.5t-41.5 144.5q0 115 83 195t207 80q41 0 87 -12l44 100l56 -24l-43 -98q66 -35 105 -99.5t39 -143.5q0 -113 -83.5 -192.5t-204.5 -79.5q-38 0 -80 10zM231 78l171 391q-30 8 -62 8q-95 0 -156.5 -60.5t-61.5 -151.5
q0 -58 29.5 -108.5t79.5 -78.5zM458 444l-172 -388q27 -5 50 -5q97 0 159 60.5t62 150.5q0 58 -26.5 106t-72.5 76z" />
    <glyph glyph-name="thorn.sc" horiz-adv-x="459" 
d="M156 0h-69v528h69v-98h48q95 0 155.5 -36.5t60.5 -119.5q0 -80 -57 -128t-161 -48h-46v-98zM156 161h46q69 0 107.5 30t38.5 81q0 47 -33 71t-93 24h-66v-206z" />
    <glyph glyph-name="eth.sc" horiz-adv-x="594" 
d="M232 0h-141v234h-63v56h63v238h132q141 0 229 -69t88 -195q0 -123 -83.5 -193.5t-224.5 -70.5zM160 63h63q114 0 179 50t65 153q0 92 -66 145.5t-167 53.5h-74v-175h146v-56h-146v-171z" />
    <glyph glyph-name="z.sc" horiz-adv-x="504" 
d="M460 1h-445l327 464l-260 -1v63h379l-327 -464l326 1v-63z" />
    <glyph glyph-name="y.sc" horiz-adv-x="472" 
d="M270 0h-69v226l-193 302h81l146 -241l151 241h80l-197 -302z" />
    <glyph glyph-name="x.sc" horiz-adv-x="531" 
d="M506 0h-88l-154 218l-156 -218h-87l207 272l-192 256h87l144 -203l144 203h88l-196 -256z" />
    <glyph glyph-name="w.sc" horiz-adv-x="796" 
d="M579 -23l-181 409l-179 -407l-207 549h75l137 -374q2 -5 4 -26q2 17 5 26l166 392l167 -392q5 -13 6 -25q0 16 4 25l133 374h73z" />
    <glyph glyph-name="v.sc" horiz-adv-x="528" 
d="M265 -24l-258 552h78l176 -395q4 -7 6 -20q1 11 5 20l171 395h77z" />
    <glyph glyph-name="u.sc" horiz-adv-x="597" 
d="M444 87v441h69v-468q-67 -70 -216 -70q-103 0 -159 51t-56 151v336h69v-298q0 -98 36 -138.5t123 -40.5q90 0 134 36z" />
    <glyph glyph-name="q.sc" horiz-adv-x="680" 
d="M587 -76l-109 102q-66 -36 -137 -36q-124 0 -207 80t-83 194t83 194.5t206 80.5q124 0 206.5 -79t82.5 -198q0 -122 -102 -202l113 -82zM557 262q0 93 -62 154t-155 61q-95 0 -156.5 -60.5t-61.5 -151.5q0 -87 61.5 -150.5t152.5 -63.5q97 0 159 60.5t62 150.5z" />
    <glyph glyph-name="k.sc" horiz-adv-x="536" 
d="M531 0h-101l-274 223v-223h-69v528h69v-226l241 226h90l-285 -262z" />
    <glyph glyph-name="j.sc" horiz-adv-x="243" 
d="M-2 -181l-25 59q70 24 92 58.5t22 124.5v467h69v-471q0 -109 -32 -155.5t-126 -82.5z" />
    <glyph glyph-name="h.sc" horiz-adv-x="608" 
d="M521 0h-69v238h-296v-238h-69v528h69v-227h296v227h69v-528z" />
    <glyph glyph-name="g.sc" horiz-adv-x="654" 
d="M542 206l-151 -1v62h223q-1 -137 -77.5 -207t-186.5 -70q-124 0 -211.5 79.5t-87.5 192.5q0 116 86 196.5t212 80.5q59 0 113 -19t72 -32t26 -21l-36 -51q-5 6 -22 18.5t-59 27.5t-89 15q-105 0 -167 -61t-62 -155q0 -90 68.5 -150.5t154.5 -60.5q78 0 132.5 42.5
t61.5 113.5z" />
    <glyph glyph-name="f.sc" horiz-adv-x="423" 
d="M156 0h-69v527h300v-62l-231 1v-159l187 1v-63h-187v-245z" />
    <glyph glyph-name="d.sc" horiz-adv-x="590" 
d="M228 0h-141v528h132q141 0 229 -69t88 -195q0 -123 -83.5 -193.5t-224.5 -70.5zM156 63h63q114 0 179 50.5t65 152.5q0 92 -66 145.5t-167 53.5h-74v-402z" />
    <glyph glyph-name="b.sc" horiz-adv-x="498" 
d="M242 0h-155v528h121q194 0 194 -133q0 -37 -27.5 -68.5t-61.5 -42.5q50 -7 93 -42.5t43 -90.5q0 -73 -53 -112t-154 -39zM156 301h40q66 0 100.5 23t34.5 65q0 43 -30 59.5t-87 16.5h-58v-164zM156 63h77q64 0 103.5 23.5t39.5 65.5q0 39 -34 62.5t-89 23.5h-97v-175z
" />
    <glyph glyph-name="s.sc" horiz-adv-x="454" 
d="M37 66l39 47q54 -63 144 -63q48 0 80 23.5t32 62.5q0 37 -27 63.5t-65 43.5t-76.5 35t-65.5 49.5t-27 75.5q0 64 50 100.5t119 36.5q91 0 147 -56l-35 -48q-49 45 -111 45q-42 0 -69.5 -19.5t-27.5 -55.5q0 -32 27 -54t65.5 -38t77 -35t65.5 -55t27 -88q0 -58 -51 -102
t-137 -44q-57 0 -108 23.5t-73 52.5z" />
    <glyph glyph-name="zero_slash.sup" horiz-adv-x="426" 
d="M212 338q-50 0 -85.5 20.5t-52 55t-23.5 68t-7 71.5t6.5 71.5t23.5 68t52 55t86 20.5t86.5 -19.5t52.5 -54t24 -68t7 -73.5q0 -39 -7 -72.5t-24 -68t-52.5 -54.5t-86.5 -20zM127 447l143 251q-24 19 -58 19q-103 0 -103 -164q0 -64 18 -106zM299 659l-143 -251
q22 -19 56 -19q105 0 105 164q0 65 -18 106z" />
    <glyph glyph-name="nine.sup" horiz-adv-x="401" 
d="M171 305l-43 38q79 73 133 154q-24 -21 -72 -21q-66 0 -114 43t-48 104q0 58 48.5 101.5t119.5 43.5q72 0 120.5 -43.5t48.5 -101.5q0 -42 -23.5 -93.5t-60 -98.5t-62 -76t-47.5 -50zM298 623q0 38 -30 64.5t-73 26.5q-44 0 -72.5 -27t-28.5 -64q0 -40 28 -68t74 -28
q45 0 73.5 27t28.5 69z" />
    <glyph glyph-name="eight.sup" horiz-adv-x="404" 
d="M282 563q33 -14 55.5 -39t22.5 -58q0 -54 -46.5 -91t-110.5 -37q-66 0 -112.5 36.5t-46.5 89.5q0 33 24 58.5t55 39.5q-31 12 -53 39t-22 56q0 57 46.5 91t107.5 34q65 0 109.5 -34.5t44.5 -90.5q0 -29 -22 -56t-52 -38zM294 465q0 30 -27.5 52t-65.5 22q-37 0 -64.5 -22
t-27.5 -52q0 -31 27 -52.5t65 -21.5q39 0 66 22t27 52zM292 655q0 32 -26 53t-64 21q-37 0 -63.5 -21t-26.5 -51q0 -28 26.5 -49.5t64.5 -21.5q37 0 63 20.5t26 48.5z" />
    <glyph glyph-name="seven.sup" horiz-adv-x="356" 
d="M111 342h-70l215 362h-220v55h314z" />
    <glyph glyph-name="six.sup" horiz-adv-x="399" 
d="M233 807l44 -39q-28 -27 -72.5 -77.5t-63.5 -82.5q26 21 80 21q62 0 106.5 -41.5t44.5 -103.5t-48.5 -104t-118.5 -42t-119.5 44t-49.5 103q0 116 197 322zM308 486q0 40 -31.5 66.5t-75.5 26.5q-40 0 -70 -26.5t-30 -66.5q0 -37 31 -65.5t74 -28.5q42 0 72 27t30 67z
" />
    <glyph glyph-name="five.sup" horiz-adv-x="367" 
d="M25 374l23 51q52 -32 100 -32q55 0 85 25t30 62t-29.5 62.5t-85.5 25.5q-38 0 -82 -13l62 205h190l-16 -50h-131l-33 -100q24 2 35 2q65 0 110.5 -37t45.5 -93q0 -61 -43.5 -102t-126.5 -41q-41 0 -78.5 11.5t-55.5 23.5z" />
    <glyph glyph-name="four.sup" horiz-adv-x="414" 
d="M319 342h-62v85h-232v44l250 290h44v-283h66v-51h-66v-85zM259 476v196l-166 -196h166z" />
    <glyph glyph-name="three.sup" horiz-adv-x="371" 
d="M238 577v-1q46 -16 69 -48t23 -71q0 -48 -46 -84t-122 -36q-51 0 -87 15t-51 30l28 45q11 -12 41.5 -24.5t68.5 -12.5q50 0 77.5 22t27.5 53q0 40 -38.5 65.5t-102.5 25.5v34q55 0 88.5 21t33.5 50q0 24 -20.5 39t-55.5 15q-46 0 -80 -23l-21 45q13 11 45 21t67 10
q57 0 92.5 -29.5t35.5 -67.5q0 -63 -73 -94z" />
    <glyph glyph-name="two.sup" horiz-adv-x="404" 
d="M365 347h-344q6 4 36 26.5t47.5 37t48.5 40t50.5 47t40 47t30.5 50t10 47.5q0 30 -23.5 52t-57.5 22q-58 0 -98 -45l-31 40q62 56 135 56q62 0 101 -36t39 -89q0 -110 -199 -245l215 2v-52z" />
    <glyph glyph-name="one.sup" horiz-adv-x="241" 
d="M178 345h-63v348l-74 -30l-22 49l159 59v-426z" />
    <glyph glyph-name="zero.sup" horiz-adv-x="425" 
d="M211 337q-50 0 -85.5 20.5t-52 55t-23.5 68t-7 71.5t6.5 71.5t23.5 68t52 55t86 20.5t86.5 -19.5t52.5 -54t24 -68t7 -73.5q0 -39 -7 -72.5t-24 -68t-52.5 -54.5t-86.5 -20zM211 388q105 0 105 164t-105 164q-103 0 -103 -164q0 -26 3.5 -50t13.5 -52t32 -45t54 -17z" />
    <glyph glyph-name="zero_slash.sc.alt" horiz-adv-x="684" 
d="M631 262q0 -113 -83.5 -192.5t-204.5 -79.5q-124 0 -207 80t-83 194q0 115 83 195t207 80t206 -79t82 -198zM211 92l213 370q-37 15 -82 15q-95 0 -156.5 -60.5t-61.5 -151.5q0 -52 23 -98t64 -75zM475 434l-214 -370q35 -13 77 -13q97 0 159 60.5t62 150.5
q0 111 -84 172z" />
    <glyph glyph-name="eight.osf" horiz-adv-x="605" 
d="M409 363q52 -24 87.5 -65.5t35.5 -102.5q0 -86 -68 -147t-161 -61q-95 0 -162.5 60t-67.5 147q0 107 126 170q-53 22 -86.5 67t-33.5 98q0 92 68 148t156 56q94 0 159.5 -56t65.5 -148q0 -52 -34 -97.5t-85 -68.5zM459 192q0 58 -46 101t-111 43t-111 -42.5t-46 -101.5
q0 -60 46 -103t111 -43t111 43t46 103zM455 528q0 62 -44 103.5t-108 41.5t-108.5 -42t-44.5 -101q0 -56 44.5 -97t109.5 -41q63 0 107 40t44 96z" />
    <glyph glyph-name="six.osf" horiz-adv-x="603" 
d="M354 766l47 -45q-44 -46 -107.5 -133t-105.5 -163q19 21 54.5 31.5t64.5 10.5q108 0 179 -71.5t71 -173.5q0 -95 -71.5 -165t-176.5 -70q-107 0 -179 70t-72 165q0 67 34.5 152t88.5 164.5t95.5 133.5t77.5 94zM484 222q0 76 -49 130t-128 54q-78 0 -127.5 -53
t-49.5 -131q0 -72 52.5 -122.5t126.5 -50.5q77 0 126 51t49 122z" />
    <glyph glyph-name="five.osf" horiz-adv-x="510" 
d="M27 -165l29 56q16 -22 65.5 -46.5t109.5 -24.5q65 0 112.5 43.5t47.5 119.5q0 83 -76.5 145.5t-205.5 86.5l94 284h250l-16 -63l-192 2l-60 -181q118 -25 194.5 -99t76.5 -173t-66.5 -162.5t-164.5 -63.5q-66 0 -123.5 27t-74.5 49z" />
    <glyph glyph-name="four.osf" horiz-adv-x="642" 
d="M473 -235h-67v238h-386v19l443 530h10v-489l135 1v-61h-135v-238zM406 62v330l-280 -332z" />
    <glyph glyph-name="dollar.sup" horiz-adv-x="355" 
d="M188 294h-44l3 43q-37 5 -70.5 22t-47.5 35l32 42q31 -35 90 -45l13 157q-28 14 -40.5 21t-32.5 22t-28 33t-8 42q0 51 36.5 81t90.5 31l3 31h43l-3 -36q53 -13 80 -43l-30 -43q-24 22 -54 32l-10 -127q51 -23 79.5 -52.5t28.5 -85.5q0 -46 -33.5 -80t-94.5 -39zM206 526
l-11 -136q29 4 45.5 21t15.5 43q0 42 -50 72zM169 610l9 115q-26 -2 -43 -17t-17 -39q0 -34 51 -59z" />
    <glyph glyph-name="cent.sup" horiz-adv-x="351" 
d="M208 333h-42v64q-60 8 -98.5 47t-38.5 95q0 55 39.5 92t97.5 44v83h42v-82q33 -2 62 -15.5t40 -24.5l-26 -37q-33 29 -76 31v-188q48 0 89 34l20 -36q-32 -37 -109 -43v-64zM166 444v184q-35 -6 -59.5 -29.5t-24.5 -61.5q0 -37 23.5 -62t60.5 -31z" />
    <glyph glyph-name="sterling.sup" horiz-adv-x="383" 
d="M353 400l5 -49q-32 -10 -84 -10q-15 0 -51 7.5t-56 7.5q-29 0 -72.5 -12.5t-53.5 -18.5l-19 45q37 18 87 29v108h-48v44h48v92q0 121 111 121q38 0 71 -22l-28 -42q-19 15 -41 15q-51 0 -51 -68v-96h86v-44h-86v-103h19q19 0 49.5 -8t47.5 -8q24 0 66 12z" />
    <glyph glyph-name="yen.sup" horiz-adv-x="448" 
d="M393 411h-137v-64h-64v64h-137v40h137v47h-137v41h125l-150 214h71l125 -180l125 180h68l-151 -214h125v-41h-137v-47h137v-40z" />
    <glyph glyph-name="Euro.sup" horiz-adv-x="432" 
d="M376 409l20 -44q-39 -26 -107 -26q-76 0 -129.5 42t-70.5 112h-60l13 42h41q-2 16 -2 25q0 8 2 24h-48l12 42h42q17 70 68 111t126 41q66 0 114 -29l-26 -42q-40 20 -93 20q-97 0 -127 -101q30 0 91 0.5t87 0.5l-12 -43h-177q-1 -6 -1 -26q0 -15 1 -23l182 1l-12 -43
h-159q35 -104 138 -104q60 0 87 20z" />
    <glyph glyph-name="parenleft.sup" horiz-adv-x="183" 
d="M148 243l-47 -18q-57 129 -57 297q0 176 57 308l47 -18q-18 -47 -33.5 -126t-15.5 -162q0 -119 49 -281z" />
    <glyph glyph-name="parenright.sup" horiz-adv-x="182" 
d="M82 225l-46 18q48 158 48 281q0 83 -15.5 162t-33.5 126l47 18q55 -130 55 -308q0 -169 -55 -297z" />
    <glyph glyph-name="bracketleft.sup" horiz-adv-x="221" 
d="M188 251h-128v571h128v-46h-75v-481h75v-44z" />
    <glyph glyph-name="bracketright.sup" horiz-adv-x="221" 
d="M161 251h-128v45h74v481h-74v45h128v-571z" />
    <glyph glyph-name="braceleft.sup" horiz-adv-x="236" 
d="M206 296l-13 -42q-108 7 -108 107v77q0 69 -68 100q68 31 68 100v77q0 100 108 107l13 -42q-42 -6 -53.5 -25t-11.5 -56v-68q0 -58 -42 -93q42 -35 42 -93v-68q0 -37 11.5 -56t53.5 -25z" />
    <glyph glyph-name="braceright.sup" horiz-adv-x="236" 
d="M43 254l-13 42q42 6 53.5 25t11.5 56v68q0 58 42 93q-42 35 -42 93v68q0 37 -11.5 56t-53.5 25l13 42q108 -7 108 -107v-77q0 -69 68 -100q-68 -31 -68 -100v-77q0 -100 -108 -107z" />
    <glyph glyph-name="plus.sup" horiz-adv-x="418" 
d="M382 516h-146v-127h-54v127h-146v51h146v132h54v-132h146v-51z" />
    <glyph glyph-name="minus.sup" horiz-adv-x="458" 
d="M402 516h-346v51h346v-51z" />
    <glyph glyph-name="multiply.sup" horiz-adv-x="406" 
d="M360 434l-40 -32l-117 103l-115 -102l-42 30l120 106l-118 105l40 32l116 -103l116 103l39 -32l-118 -105z" />
    <glyph glyph-name="divide.sup" horiz-adv-x="444" 
d="M395 516h-346v52h346v-52zM259 434q0 -14 -10.5 -24.5t-27.5 -10.5q-14 0 -25 10.5t-11 24.5q0 13 11 24t25 11q17 0 27.5 -10.5t10.5 -24.5zM259 648q0 -13 -10.5 -23.5t-27.5 -10.5q-14 0 -25 10.5t-11 23.5q0 14 11 24.5t25 10.5q17 0 27.5 -10.5t10.5 -24.5z" />
    <glyph glyph-name="equal.sup" horiz-adv-x="458" 
d="M402 447h-346v52h346v-52zM402 584h-346v51h346v-51z" />
    <glyph glyph-name="five.tab" horiz-adv-x="624" 
d="M71 45l28 58q76 -54 160 -54q97 0 148 55t51 133q0 75 -51.5 128t-148.5 53q-54 0 -118 -21l97 352h275l-17 -60h-211l-59 -220q27 4 58 4q106 0 177 -64t71 -165q0 -108 -68.5 -182t-194.5 -74q-61 0 -116.5 19.5t-80.5 37.5z" />
    <glyph glyph-name="six.tab" horiz-adv-x="624" 
d="M366 766l47 -45q-44 -46 -107.5 -133t-105.5 -163q19 21 54.5 31.5t64.5 10.5q108 0 179 -71.5t71 -173.5q0 -95 -71.5 -165t-176.5 -70q-107 0 -179 70t-72 165q0 67 34.5 152t88.5 164.5t95.5 133.5t77.5 94zM496 222q0 76 -49 130t-128 54q-78 0 -127.5 -53
t-49.5 -131q0 -72 52.5 -122.5t126.5 -50.5q77 0 126 51t49 122z" />
    <glyph glyph-name="seven.tab" horiz-adv-x="624" 
d="M185 -6h-76l347 693l-365 -1v63h469z" />
    <glyph glyph-name="eight.tab" horiz-adv-x="624" 
d="M418 378q53 -24 88 -68t35 -108q0 -89 -68 -152t-161 -63q-95 0 -162.5 62t-67.5 152q0 113 126 178q-54 24 -87 70.5t-33 101.5q0 95 68.5 153.5t156.5 58.5q94 0 159 -58.5t65 -153.5q0 -55 -34 -102t-85 -71zM469 199q0 62 -46 107t-111 45q-66 0 -112 -44.5
t-46 -107.5t46 -108t112 -45q65 0 111 45t46 108zM464 550q0 65 -43.5 109t-107.5 44t-109 -44t-45 -106q0 -59 45 -102t110 -43q63 0 106.5 42t43.5 100z" />
    <glyph glyph-name="nine.tab" horiz-adv-x="624" 
d="M257 -17l-47 44q44 46 107.5 133t105.5 163q-19 -21 -54.5 -31.5t-64.5 -10.5q-108 0 -179 71.5t-71 173.5q0 96 71.5 166t176.5 70q107 0 179 -70.5t72 -165.5q0 -67 -35 -152t-88 -164t-95 -133.5t-78 -93.5zM304 342q78 0 127.5 53t49.5 131q0 72 -52.5 122.5
t-126.5 50.5q-77 0 -126 -51t-49 -122q0 -76 49 -130t128 -54z" />
    <glyph glyph-name="zero_slash.tab" horiz-adv-x="624" 
d="M311 -12q-63 0 -110.5 25t-75 63.5t-44 92.5t-22 102t-5.5 103q0 54 5.5 102t22 102.5t43.5 93t74.5 64.5t110.5 26q64 0 112 -25t75.5 -63t44.5 -91.5t22.5 -103t5.5 -105.5q0 -55 -5.5 -104t-22.5 -102.5t-44.5 -91.5t-75.5 -63t-111 -25zM180 122l221 551
q-38 27 -91 27q-185 0 -185 -326q0 -167 55 -252zM445 625l-223 -549q37 -28 89 -28q49 0 85 24t55 58t30.5 82.5t14.5 84.5t3 77q0 168 -54 251z" />
    <glyph glyph-name="comma.sup" horiz-adv-x="193" 
d="M71 287h-44l50 123h65z" />
    <glyph glyph-name="hyphen.sup" horiz-adv-x="273" 
d="M210 490h-154l7 53h154z" />
    <glyph glyph-name="period.sup" horiz-adv-x="180" 
d="M130 377q0 -15 -11.5 -26.5t-28.5 -11.5q-16 0 -28 11.5t-12 26.5q0 16 11.5 27.5t28.5 11.5t28.5 -11t11.5 -28z" />
    <glyph glyph-name="zero.dnom" horiz-adv-x="425" 
d="M211 -8q-41 0 -72 14t-48.5 35.5t-29 51.5t-15 56.5t-3.5 56.5q0 38 6.5 71.5t23.5 68t52 55t86 20.5t86.5 -19.5t52.5 -54t24 -68t7 -73.5q0 -39 -7 -72.5t-24 -67.5t-52.5 -54t-86.5 -20zM211 42q105 0 105 164t-105 164q-103 0 -103 -164q0 -26 3.5 -50t13.5 -52
t32 -45t54 -17z" />
    <glyph glyph-name="one.dnom" horiz-adv-x="241" 
d="M177 0h-63v347l-74 -30l-22 49l159 59v-425z" />
    <glyph glyph-name="two.dnom" horiz-adv-x="401" 
d="M363 0h-344q6 4 36 26.5t47.5 37t48.5 40t50.5 47t40 47t30.5 50t10 47.5q0 30 -23.5 52t-57.5 22q-58 0 -98 -45l-31 40q62 56 135 56q62 0 101 -36t39 -89q0 -110 -199 -245l215 2v-52z" />
    <glyph glyph-name="three.dnom" horiz-adv-x="371" 
d="M238 230v-1q46 -16 69 -48t23 -71q0 -48 -45.5 -83.5t-122.5 -35.5q-51 0 -87 14.5t-51 29.5l28 45q11 -12 41.5 -24.5t68.5 -12.5q50 0 77.5 22t27.5 53q0 40 -38.5 65.5t-102.5 25.5v34q55 0 88.5 21t33.5 50q0 24 -20.5 39t-55.5 15q-46 0 -80 -23l-21 45q13 11 45 21
t67 10q57 0 92.5 -29.5t35.5 -67.5q0 -63 -73 -94z" />
    <glyph glyph-name="four.dnom" horiz-adv-x="414" 
d="M319 -4h-62v84h-232v44l250 290h44v-283h66v-51h-66v-84zM259 129v196l-166 -196h166z" />
    <glyph glyph-name="five.dnom" horiz-adv-x="366" 
d="M24 27l23 51q52 -32 100 -32q55 0 85 25t30 62t-29.5 62.5t-85.5 25.5q-38 0 -82 -13l62 205h190l-16 -50h-131l-33 -100q24 2 35 2q65 0 110.5 -37t45.5 -93q0 -61 -43.5 -101.5t-126.5 -40.5q-41 0 -79 11.5t-55 22.5z" />
    <glyph glyph-name="six.dnom" horiz-adv-x="398" 
d="M232 460l44 -39q-28 -27 -72.5 -77.5t-63.5 -82.5q26 21 80 21q62 0 106.5 -41.5t44.5 -103.5t-48.5 -103.5t-118.5 -41.5t-119.5 44t-49.5 102q0 116 197 322zM307 139q0 40 -31.5 66.5t-75.5 26.5q-40 0 -70 -26.5t-30 -66.5q0 -37 31 -65.5t74 -28.5q42 0 72 27t30 67
z" />
    <glyph glyph-name="seven.dnom" horiz-adv-x="360" 
d="M111 -4h-70l215 361h-220v55h314z" />
    <glyph glyph-name="eight.dnom" horiz-adv-x="404" 
d="M282 216q33 -14 55.5 -39t22.5 -58q0 -53 -46.5 -90t-110.5 -37q-66 0 -112.5 36t-46.5 89q0 33 24 58.5t55 39.5q-31 12 -53 39t-22 56q0 57 46.5 91t107.5 34q65 0 109.5 -34.5t44.5 -90.5q0 -29 -22 -56t-52 -38zM294 118q0 30 -27.5 52t-65.5 22q-37 0 -64.5 -22
t-27.5 -52q0 -31 27 -52.5t65 -21.5q39 0 66 22t27 52zM292 308q0 32 -26 53t-64 21q-37 0 -63.5 -21t-26.5 -51q0 -28 26.5 -49.5t64.5 -21.5q37 0 63 20.5t26 48.5z" />
    <glyph glyph-name="nine.dnom" horiz-adv-x="399" 
d="M170 -41l-43 38q78 70 133 153q-24 -21 -72 -21q-66 0 -114 43t-48 104q0 58 48.5 101.5t119.5 43.5q72 0 120.5 -43.5t48.5 -101.5q0 -42 -23.5 -93.5t-60 -98t-62 -75t-47.5 -50.5zM297 276q0 38 -30 64.5t-73 26.5q-44 0 -72.5 -27t-28.5 -64q0 -40 28 -68t74 -28
q45 0 73.5 27t28.5 69z" />
    <glyph glyph-name="zero_slash.dnom" horiz-adv-x="425" 
d="M211 -8q-41 0 -72 14t-48.5 35.5t-29 51.5t-15 56.5t-3.5 56.5q0 38 6.5 71.5t23.5 68t52 55t86 20.5t86.5 -19.5t52.5 -54t24 -68t7 -73.5q0 -39 -7 -72.5t-24 -67.5t-52.5 -54t-86.5 -20zM126 100l143 251q-24 19 -58 19q-103 0 -103 -164q0 -64 18 -106zM298 312
l-143 -251q22 -19 56 -19q105 0 105 164q0 65 -18 106z" />
    <glyph glyph-name="dollar.dnom" horiz-adv-x="353" 
d="M186 -52h-44l3 43q-38 6 -71.5 22.5t-46.5 33.5l32 42q31 -35 90 -45l13 157q-28 14 -40.5 21t-32.5 22t-28 33t-8 42q0 51 36.5 81t90.5 31l3 31h43l-3 -36q53 -13 80 -43l-30 -43q-24 22 -54 32l-10 -127q51 -23 79.5 -52.5t28.5 -85.5q0 -46 -33.5 -79.5t-94.5 -37.5z
M204 179l-11 -136q29 4 45.5 21t15.5 43q0 42 -50 72zM167 263l9 115q-26 -2 -43 -17t-17 -39q0 -34 51 -59z" />
    <glyph glyph-name="cent.dnom" horiz-adv-x="350" 
d="M208 -13h-42v63q-60 8 -98.5 47t-38.5 95q0 55 39.5 92t97.5 44v83h42v-82q33 -2 62 -15.5t40 -24.5l-26 -37q-33 29 -76 31v-188q48 0 89 34l20 -36q-32 -37 -109 -43v-63zM166 97v184q-35 -6 -59.5 -29.5t-24.5 -61.5q0 -37 23.5 -62t60.5 -31z" />
    <glyph glyph-name="sterling.dnom" horiz-adv-x="382" 
d="M353 53l5 -49q-29 -9 -84 -9q-15 0 -51 7t-56 7q-29 0 -72.5 -12t-53.5 -18l-19 44q37 18 87 29v108h-48v44h48v92q0 121 111 121q38 0 71 -22l-28 -42q-19 15 -41 15q-51 0 -51 -68v-96h86v-44h-86v-103h19q19 0 49.5 -8t47.5 -8q24 0 66 12z" />
    <glyph glyph-name="yen.dnom" horiz-adv-x="450" 
d="M394 64h-137v-64h-64v64h-137v40h137v47h-137v41h125l-150 214h71l125 -180l125 180h68l-151 -214h125v-41h-137v-47h137v-40z" />
    <glyph glyph-name="Euro.dnom" horiz-adv-x="431" 
d="M375 62l20 -44q-37 -25 -107 -25q-77 0 -130 41.5t-70 111.5h-60l13 42h41q-2 16 -2 25q0 8 2 24h-48l12 42h42q17 70 68 111t126 41q66 0 114 -29l-26 -42q-40 20 -93 20q-97 0 -127 -101q30 0 91 0.5t87 0.5l-12 -43h-177q-1 -6 -1 -26q0 -15 1 -23l182 1l-12 -43h-159
q35 -104 138 -104q60 0 87 20z" />
    <glyph glyph-name="parenleft.dnom" horiz-adv-x="183" 
d="M148 -103l-47 -18q-57 129 -57 296q0 176 57 308l47 -18q-18 -47 -33.5 -126t-15.5 -162q0 -118 49 -280z" />
    <glyph glyph-name="parenright.dnom" horiz-adv-x="182" 
d="M82 -121l-46 18q48 158 48 280q0 83 -15.5 162t-33.5 126l47 18q55 -130 55 -308q0 -168 -55 -296z" />
    <glyph glyph-name="bracketleft.dnom" horiz-adv-x="221" 
d="M188 -95h-128v570h128v-46h-75v-480h75v-44z" />
    <glyph glyph-name="bracketright.dnom" horiz-adv-x="221" 
d="M161 -95h-128v45h74v480h-74v45h128v-570z" />
    <glyph glyph-name="braceleft.dnom" horiz-adv-x="237" 
d="M207 -50l-13 -42q-108 7 -108 106v77q0 69 -68 100q68 31 68 100v77q0 100 108 107l13 -42q-42 -6 -53.5 -25t-11.5 -56v-68q0 -58 -42 -93q42 -35 42 -93v-68q0 -37 11.5 -55.5t53.5 -24.5z" />
    <glyph glyph-name="braceright.dnom" horiz-adv-x="237" 
d="M43 -92l-13 42q42 6 53.5 24.5t11.5 55.5v68q0 58 42 93q-42 35 -42 93v68q0 37 -11.5 56t-53.5 25l13 42q108 -7 108 -107v-77q0 -69 68 -100q-68 -31 -68 -100v-77q0 -99 -108 -106z" />
    <glyph glyph-name="four.tab" horiz-adv-x="624" 
d="M479 -3h-67v150h-379v19l436 609h10v-566h101v-62h-101v-150zM412 209v391l-272 -391h272z" />
    <glyph glyph-name="three.tab" horiz-adv-x="624" 
d="M70 65l31 54q17 -23 63 -47.5t109 -24.5q87 0 134 46.5t47 112.5q0 77 -60 134.5t-160 58.5v36q90 4 141.5 49t51.5 101q0 49 -35 81t-97 32q-72 0 -128 -41l-23 50q16 18 63.5 36.5t98.5 18.5q85 0 137.5 -52t52.5 -121q0 -51 -29.5 -95.5t-91.5 -72.5v-2
q73 -30 111.5 -88.5t38.5 -126.5q0 -88 -67.5 -152t-183.5 -64q-53 0 -100.5 16.5t-69 31.5t-34.5 29z" />
    <glyph glyph-name="two.tab" horiz-adv-x="624" 
d="M555 0h-513v19q2 2 63 52.5t91.5 77.5t89 85.5t90 102.5t57.5 101.5t26 107.5q0 64 -41 109.5t-104 45.5q-50 0 -92.5 -26t-65.5 -57l-38 47q91 97 202 97q94 0 152.5 -61.5t58.5 -154.5q0 -206 -353 -485l377 2v-63z" />
    <glyph glyph-name="one.tab" horiz-adv-x="624" 
d="M565 1h-496v64h219v609l-154 -69l-21 54l244 110v-704h208v-64z" />
    <glyph glyph-name="one.sc" horiz-adv-x="294" 
d="M207 0h-67v453l-93 -34l-20 49l180 72v-540z" />
    <glyph glyph-name="nine.sc" horiz-adv-x="472" 
d="M197 -14l-44 40q101 98 159 195q-28 -27 -88 -27q-77 0 -130.5 50t-53.5 121q0 67 55 117.5t135 50.5q81 0 136.5 -50.5t55.5 -117.5q0 -47 -27.5 -108.5t-68 -116.5t-73.5 -93.5t-56 -60.5zM355 365q0 46 -36.5 78.5t-88.5 32.5q-53 0 -87 -32.5t-34 -78.5
q0 -50 33.5 -84.5t88.5 -34.5q54 0 89 34.5t35 84.5z" />
    <glyph glyph-name="zero_slash.sc" horiz-adv-x="535" 
d="M267 -8q-63 0 -107 25.5t-65 69t-29 86t-8 92.5q0 37 4.5 71t18 72t35.5 66t60.5 46t89.5 18t90 -17.5t61.5 -44.5t36.5 -65t18.5 -72.5t4.5 -73.5t-4.5 -74t-18.5 -72.5t-36.5 -64.5t-61 -44.5t-89.5 -17.5zM170 92l152 378q-25 11 -56 11q-141 0 -141 -216
q0 -115 45 -173zM366 434l-153 -376q24 -11 54 -11q37 0 64 16t41.5 39t23.5 55t11 56.5t2 51.5q0 112 -43 169z" />
    <glyph glyph-name="percent.sc" horiz-adv-x="654" 
d="M217 -19l-45 14l250 553l45 -15zM267 430q0 -47 -33.5 -80t-80.5 -33t-80 33t-33 80t33 80.5t80 33.5t80.5 -33.5t33.5 -80.5zM153 361q27 0 47.5 21t20.5 48t-20.5 48.5t-47.5 21.5t-47 -21.5t-20 -48.5t20 -48t47 -21zM502 -10q-47 0 -80.5 33t-33.5 80t33.5 80
t80.5 33t80 -33t33 -80t-33 -80t-80 -33zM502 33q27 0 47 21t20 49q0 27 -20 48t-47 21t-47.5 -21t-20.5 -48q0 -28 20 -49t48 -21z" />
    <glyph glyph-name="perthousand.sc" horiz-adv-x="974" 
d="M222 -19l-45 14l250 553l46 -15zM267 430q0 -47 -33.5 -80t-80.5 -33t-80 33t-33 80t33 80.5t80 33.5t80.5 -33.5t33.5 -80.5zM153 361q27 0 47.5 21t20.5 48t-20.5 48.5t-47.5 21.5t-47 -21.5t-20 -48.5t20 -48t47 -21zM502 -10q-47 0 -80.5 33t-33.5 80t33.5 80
t80.5 33t80 -33t33 -80t-33 -80t-80 -33zM502 33q27 0 47 21t20 49q0 27 -20 48t-47 21t-47.5 -21t-20.5 -48q0 -28 20 -49t48 -21zM821 -10q-47 0 -80 33t-33 80t33 80t80 33t80.5 -33t33.5 -80t-33.5 -80t-80.5 -33zM821 33q27 0 47.5 21t20.5 49q0 27 -20.5 48t-47.5 21
t-47 -21t-20 -48q0 -28 20 -49t47 -21z" />
    <glyph glyph-name="dollar.sc" horiz-adv-x="472" 
d="M252 -77l-50 2l4 75q-50 3 -95 26t-65 49l39 47q47 -56 125 -62l11 191q-26 12 -40.5 19t-35.5 21t-32 27t-19.5 33t-8.5 43q0 61 43.5 97t108.5 39l5 78h50l-5 -80q65 -11 109 -53l-35 -48q-35 32 -77 41l-10 -167q29 -13 48 -24.5t40.5 -29.5t32 -43.5t10.5 -58.5
q0 -54 -39 -96t-110 -49zM269 227l-9 -165q74 15 74 83q0 47 -65 82zM225 322l9 149q-35 -3 -56.5 -21.5t-21.5 -51.5q0 -25 17.5 -42t51.5 -34z" />
    <glyph glyph-name="cent.sc" horiz-adv-x="438" 
d="M258 -18h-53q0 16 0.5 50.5t0.5 52.5q-67 11 -111.5 59t-44.5 116q0 69 43.5 117.5t112.5 60.5q0 17 -0.5 52.5t-0.5 50.5h53q0 -17 -0.5 -51t-0.5 -50q44 -3 79 -21t46 -32l-33 -41q-40 36 -92 39v-248q65 3 108 46l31 -37q-51 -60 -139 -63q0 -17 0.5 -51.5t0.5 -49.5z
M208 140v242q-41 -9 -70 -40.5t-29 -81.5q0 -47 28.5 -78.5t70.5 -41.5z" />
    <glyph glyph-name="sterling.sc" horiz-adv-x="471" 
d="M425 52l7 -53q-34 -12 -82 -12q-29 0 -72 10.5t-67 10.5q-37 0 -88 -16.5t-61 -23.5l-22 50q6 4 40.5 15t65.5 16v164h-64v54h64v131q0 71 34 105t92 34q38 0 78 -22l-30 -50q-26 16 -51 16q-60 0 -60 -80v-134h110v-54h-111v-155q7 1 24 1q15 0 56 -10t58 -10
q38 0 79 13z" />
    <glyph glyph-name="yen.sc" horiz-adv-x="539" 
d="M454 74h-152l1 -74h-69v74h-150v48h150v67h-150v48h143l-186 291h83l144 -239l149 239h82l-190 -291h145v-48h-152v-67h152v-48z" />
    <glyph glyph-name="Euro.alt.sc" horiz-adv-x="505" 
d="M429 69l24 -43q-44 -35 -128 -35q-116 0 -193.5 82t-77.5 199q0 116 77 193.5t190 77.5q81 0 140 -40l-32 -44q-61 27 -112 27q-63 0 -114.5 -36t-74.5 -99h232v-47h-246q-3 -16 -3 -33q0 -16 1 -24h248v-48h-239q20 -69 76.5 -111.5t128.5 -42.5q43 0 103 24z" />
    <glyph glyph-name="currency.sc" horiz-adv-x="557" 
d="M495 77l-37 -32l-62 61q-55 -39 -118 -39q-65 0 -116 39l-64 -62l-34 34l63 64q-44 52 -44 119q0 68 43 116l-63 66l34 34l65 -64q55 41 116 41q66 0 118 -40l63 63l36 -34l-62 -66q41 -48 41 -116t-44 -119zM423 261q0 57 -43.5 98.5t-101.5 41.5q-55 0 -98.5 -41.5
t-43.5 -98.5q0 -58 43 -99.5t99 -41.5q58 0 101.5 42t43.5 99z" />
    <glyph glyph-name="florin.sc" horiz-adv-x="345" 
d="M-60 -161l10 44q18 -4 29 -4q24 0 41 25.5t23 54.5l66 331h-65l11 51h64l9 42q9 42 15 65.5t18.5 53.5t27 45.5t39 26.5t56.5 11q29 0 46 -12l-15 -47q-18 6 -35 6q-15 0 -28 -6.5t-22 -20.5t-15.5 -27.5t-12 -35t-8 -35t-6.5 -36.5t-5 -30h81l-10 -51h-80l-66 -326
q-27 -136 -129 -136q-20 0 -39 11z" />
    <glyph glyph-name="ampersand.sc" horiz-adv-x="595" 
d="M595 0h-90l-74 84q-14 -18 -33 -36t-59 -37.5t-81 -19.5q-90 0 -150.5 55.5t-60.5 126.5q0 121 139 182q-41 38 -41 78q0 41 35 72t83 31q12 0 24 -1.5t20.5 -4t17 -6.5t13.5 -7t11 -8t8.5 -7.5t6.5 -7.5l5 -4l-40 -37q-29 32 -63 32q-24 0 -42 -17.5t-18 -39.5
q0 -13 7.5 -26.5t11.5 -17.5t20 -21l201 1l-15 -51l-136 1zM390 126l-174 184q-10 -2 -25 -10t-33.5 -22.5t-31 -40.5t-12.5 -57q0 -58 45.5 -96.5t94.5 -38.5q56 0 91 28t45 53z" />
    <glyph glyph-name="three.sc" horiz-adv-x="438" 
d="M32 46l29 48q12 -16 47 -32.5t81 -16.5q61 0 94.5 30t33.5 72q0 52 -44.5 88t-120.5 36v37q65 1 104 29t39 66q0 32 -24.5 52t-69.5 20q-53 0 -93 -28l-21 47q14 13 50.5 26t75.5 13q65 0 106.5 -38t41.5 -86q0 -78 -89 -116v-1q55 -21 83 -60.5t28 -88.5
q0 -63 -52 -107.5t-141 -44.5q-41 0 -77.5 11.5t-53 22t-27.5 21.5z" />
    <glyph glyph-name="exclam.sc" horiz-adv-x="242" 
d="M143 152h-47l-14 396h81zM175 42q0 -21 -15.5 -36t-37.5 -15t-37.5 15t-15.5 36q0 23 15.5 38.5t37.5 15.5t37.5 -15.5t15.5 -38.5z" />
    <glyph glyph-name="four.sc" horiz-adv-x="498" 
d="M378 -4h-66v98h-286v17l330 436h22v-396h77v-57h-77v-98zM315 149l1 257l-192 -257h191z" />
    <glyph glyph-name="five.sc" horiz-adv-x="438" 
d="M33 33l24 53q59 -39 119 -39q68 0 104.5 35t36.5 85q0 49 -36 83.5t-105 34.5q-44 0 -93 -16l73 254h217l-17 -54h-156l-41 -139q21 3 42 3q78 0 132 -46.5t54 -116.5q0 -76 -51.5 -127.5t-148.5 -51.5q-48 0 -91 14t-63 28z" />
    <glyph glyph-name="exclamdown.sc" horiz-adv-x="242" 
d="M163 -9h-81l14 395h47zM122 442q-22 0 -37.5 15.5t-15.5 38.5q0 21 15.5 36.5t37.5 15.5t37.5 -15.5t15.5 -36.5q0 -23 -15.5 -38.5t-37.5 -15.5z" />
    <glyph glyph-name="question.sc" horiz-adv-x="371" 
d="M291 258l32 -32q-16 -26 -56 -50.5t-89 -24.5q-47 0 -85 28.5t-38 74.5q0 27 15.5 51t31 36t41.5 28q89 53 89 92q0 19 -14.5 32t-36.5 13q-42 0 -81 -31l-26 37q51 43 115 43q49 0 76 -28t27 -67q0 -12 -3.5 -23t-11.5 -22t-14 -18.5t-20 -18.5t-19.5 -15.5t-21.5 -15.5
t-18 -12q-4 -3 -19.5 -13.5t-20.5 -14.5t-14.5 -13t-12.5 -18.5t-3 -20.5q0 -23 20 -39t48 -16q63 0 109 58zM225 42q0 -21 -15.5 -36t-37.5 -15t-37.5 15t-15.5 36q0 23 15.5 38.5t37.5 15.5q23 0 38 -15.5t15 -38.5z" />
    <glyph glyph-name="questiondown.sc" horiz-adv-x="371" 
d="M271 57l26 -37q-50 -42 -115 -42q-49 0 -76 28t-27 66q0 12 3.5 23t11.5 22t14 18.5t20 18.5t19.5 15.5t21.5 15.5t18 12q4 3 19.5 13.5t20.5 14.5t14.5 13t12.5 18.5t3 20.5q0 23 -20 39t-48 16q-63 0 -109 -58l-32 32q16 26 56 50.5t89 24.5q47 0 85 -28.5t38 -74.5
q0 -27 -15.5 -51t-31 -36t-41.5 -28q-89 -53 -89 -92q0 -19 14.5 -32t36.5 -13q42 0 81 31zM199 436q-23 0 -38 15.5t-15 38.5q0 21 15.5 36.5t37.5 15.5t37.5 -15.5t15.5 -36.5q0 -23 -15.5 -38.5t-37.5 -15.5z" />
    <glyph glyph-name="parenleft.sc" horiz-adv-x="250" 
d="M193 -115l-49 -21q-67 163 -67 377q0 219 66 391l51 -21q-22 -62 -40.5 -162.5t-18.5 -206.5q0 -158 58 -357z" />
    <glyph glyph-name="parenright.sc" horiz-adv-x="248" 
d="M106 -136l-49 21q58 205 58 357q0 106 -18.5 206.5t-40.5 162.5l50 21q65 -164 65 -391q0 -218 -65 -377z" />
    <glyph glyph-name="bracketleft.sc" horiz-adv-x="378" 
d="M323 -122h-146v724h146v-51l-89 1v-624l89 2v-52zM120 241q0 -20 -14 -34t-35 -14q-20 0 -34.5 14t-14.5 34q0 21 14.5 35t34.5 14q21 0 35 -14t14 -35z" />
    <glyph glyph-name="bracketright.sc" horiz-adv-x="378" 
d="M201 -120h-146v51l88 -1v623l-88 -2v51h146v-722zM356 241q0 -20 -14.5 -34t-35.5 -14q-20 0 -34.5 14t-14.5 34q0 21 14.5 35t34.5 14q21 0 35.5 -14t14.5 -35z" />
    <glyph glyph-name="braceleft.sc" horiz-adv-x="284" 
d="M242 -91l-11 -38q-122 9 -122 131v100q0 45 -17.5 75.5t-62.5 52.5q45 22 62.5 52.5t17.5 75.5v100q0 123 122 132l11 -38q-21 -3 -35.5 -11t-22 -17.5t-11.5 -25.5t-4.5 -28.5t-0.5 -33.5v-86q0 -67 -59 -120q59 -53 59 -120v-86q0 -21 0.5 -33t4.5 -28.5t11.5 -25.5
t22 -17t35.5 -11z" />
    <glyph glyph-name="braceright.sc" horiz-adv-x="284" 
d="M53 -129l-11 38q21 3 35.5 11t22 17t11.5 25.5t4.5 28.5t0.5 33v86q0 67 59 120q-59 53 -59 120v86q0 21 -0.5 33.5t-4.5 28.5t-11.5 25.5t-22 17.5t-35.5 11l11 38q122 -9 122 -132v-100q0 -45 17.5 -75.5t62.5 -52.5q-45 -22 -62.5 -52.5t-17.5 -75.5v-100
q0 -122 -122 -131z" />
    <glyph glyph-name="quotesingle.sc" horiz-adv-x="214" 
d="M133 361h-52l-9 203h70z" />
    <glyph glyph-name="quotedbl.sc" horiz-adv-x="329" 
d="M133 361h-52l-9 203h70zM248 361h-52l-9 203h70z" />
    <glyph glyph-name="quoteleft.sc" horiz-adv-x="259" 
d="M133 400h-74l88 197h54z" />
    <glyph glyph-name="six.sc" horiz-adv-x="475" 
d="M275 536l45 -40q-29 -29 -81.5 -92t-75.5 -102q36 26 95 26q72 0 123 -48.5t51 -120.5t-55 -120t-135 -48q-79 0 -135.5 50.5t-56.5 118.5q0 50 29 112.5t77 123.5t71 87.5t48 52.5zM367 161q0 50 -37.5 82t-91.5 32q-49 0 -85.5 -33t-36.5 -81q0 -45 37.5 -79.5
t89.5 -34.5t88 32.5t36 81.5z" />
    <glyph glyph-name="quoteright.sc" horiz-adv-x="257" 
d="M116 400h-54l69 197h73z" />
    <glyph glyph-name="quotedblleft.sc" horiz-adv-x="418" 
d="M289 400h-69l88 197h54zM128 400h-69l88 197h54z" />
    <glyph glyph-name="seven.sc" horiz-adv-x="424" 
d="M127 -5h-73l261 471l-269 -1v57h366z" />
    <glyph glyph-name="quotedblright.sc" horiz-adv-x="417" 
d="M115 400h-54l73 197h69zM276 400h-54l73 197h69z" />
    <glyph glyph-name="guilsinglleft.sc" horiz-adv-x="314" 
d="M254 49h-67l-130 210l126 210h68l-128 -210z" />
    <glyph glyph-name="guilsinglright.sc" horiz-adv-x="314" 
d="M127 49h-67l131 210l-128 210h68l126 -210z" />
    <glyph glyph-name="guillemotleft.sc" horiz-adv-x="500" 
d="M255 49h-68l-130 210l127 210h68l-128 -210zM440 49h-68l-131 210l128 210h67l-128 -210z" />
    <glyph glyph-name="guillemotright.sc" horiz-adv-x="500" 
d="M128 49h-68l132 210l-128 210h67l128 -210zM313 49h-68l131 210l-128 210h68l127 -210z" />
    <glyph glyph-name="plus.sc" horiz-adv-x="485" 
d="M436 224h-164v-158h-59v158h-164v56h164v159h59v-159h164v-56z" />
    <glyph glyph-name="minus.sc" horiz-adv-x="535" 
d="M461 224h-387v56h387v-56z" />
    <glyph glyph-name="multiply.sc" horiz-adv-x="480" 
d="M417 124l-44 -38l-131 135l-133 -135l-45 37l138 135l-138 138l44 39l136 -140l129 140l44 -39l-134 -137z" />
    <glyph glyph-name="divide.sc" horiz-adv-x="521" 
d="M454 223h-387v56h387v-56zM306 392q0 -16 -13 -29.5t-33 -13.5q-17 0 -30 13.5t-13 29.5q0 18 13 32t30 14q21 0 33.5 -13.5t12.5 -32.5zM306 109q0 -17 -13.5 -30.5t-32.5 -13.5q-17 0 -30 14t-13 30q0 17 13 31t30 14q21 0 33.5 -13.5t12.5 -31.5z" />
    <glyph glyph-name="plusminus.sc" horiz-adv-x="519" 
d="M453 1h-387v54h387v-54zM453 261h-164v-159h-59v159h-164v56h164v159h59v-159h164v-56z" />
    <glyph glyph-name="equal.sc" horiz-adv-x="535" 
d="M461 304h-387v57h387v-57zM461 148h-387v56h387v-56z" />
    <glyph glyph-name="notequal.sc" horiz-adv-x="493" 
d="M440 138h-191l-53 -194l-55 16l49 178h-137v55h151l29 107h-180v57h194l54 198l54 -20l-49 -178h134v-57h-148l-29 -107h177v-55z" />
    <glyph glyph-name="less.sc" horiz-adv-x="486" 
d="M390 46l-348 190v33l348 177l31 -48l-294 -147l294 -158z" />
    <glyph glyph-name="greater.sc" horiz-adv-x="486" 
d="M444 235l-348 -177l-31 47l295 147l-295 159l31 46l348 -188v-34z" />
    <glyph glyph-name="backslash.sc" horiz-adv-x="391" 
d="M354 -27l-54 -19l-264 589l53 23z" />
    <glyph glyph-name="slash.sc" horiz-adv-x="391" 
d="M91 -50l-54 19l265 593l53 -23z" />
    <glyph glyph-name="bar.sc" horiz-adv-x="252" 
d="M158 -94h-64v703h64v-703z" />
    <glyph glyph-name="brokenbar.sc" horiz-adv-x="253" 
d="M156 -94h-59v285h59v-285zM156 325h-59v284h59v-284z" />
    <glyph glyph-name="aring.sc" horiz-adv-x="556" 
d="M390 702q0 -45 -32 -76.5t-78 -31.5t-78 31.5t-32 76.5q0 46 32 77.5t78 31.5t78 -32.5t32 -76.5zM281 638q26 0 45 19.5t19 45.5q0 27 -19 46t-45 19t-45 -19t-19 -46q0 -26 19 -45.5t45 -19.5zM550 0h-73l-63 126h-271l-62 -126h-74l271 546zM382 189l-105 211
l-104 -211h209z" />
    <glyph glyph-name="uni1E03.sc" horiz-adv-x="498" 
d="M275 652q0 -18 -14.5 -31.5t-34.5 -13.5q-19 0 -32.5 13.5t-13.5 31.5q0 20 13.5 33.5t32.5 13.5q20 0 34.5 -13.5t14.5 -33.5zM242 0h-155v528h121q194 0 194 -133q0 -37 -27.5 -68.5t-61.5 -42.5q50 -7 93 -42.5t43 -90.5q0 -73 -53 -112t-154 -39zM156 301h40
q66 0 100.5 23t34.5 65q0 43 -30 59.5t-87 16.5h-58v-164zM156 63h77q64 0 103.5 23.5t39.5 65.5q0 39 -34 62.5t-89 23.5h-97v-175z" />
    <glyph glyph-name="ccedilla.sc" horiz-adv-x="595" 
d="M293 -247h-67l78 170h77zM518 102l31 -47q-78 -65 -194 -65q-130 0 -217 80t-87 194t85.5 194.5t214.5 80.5q114 0 197 -71l-38 -48q-62 57 -164 57q-96 0 -158.5 -61t-62.5 -156q0 -87 67.5 -148t163.5 -61q99 0 162 51z" />
    <glyph glyph-name="eacute.sc" horiz-adv-x="462" 
d="M369 748l-155 -145l-38 27l133 163zM417 1h-330v526h307v-63l-238 1v-153h191v-63l-191 1v-187l261 1v-63z" />
    <glyph glyph-name="uni1E1F.sc" horiz-adv-x="423" 
d="M289 652q0 -18 -14.5 -31.5t-34.5 -13.5q-19 0 -32.5 13.5t-13.5 31.5q0 20 13.5 33.5t32.5 13.5q20 0 34.5 -13.5t14.5 -33.5zM156 0h-69v527h300v-62l-231 1v-159l187 1v-63h-187v-245z" />
    <glyph glyph-name="gbreve.sc" horiz-adv-x="654" 
d="M422 734h58q-3 -54 -42.5 -99t-111.5 -45q-58 0 -99.5 38t-46.5 106h61q0 -9 3 -21.5t10.5 -30.5t26 -30t44.5 -12t45 9.5t28.5 21.5t15.5 27t7 23t1 13zM542 206l-151 -1v62h223q-1 -137 -77.5 -207t-186.5 -70q-124 0 -211.5 79.5t-87.5 192.5q0 116 86 196.5t212 80.5
q59 0 113 -19t72 -32t26 -21l-36 -51q-5 6 -22 18.5t-59 27.5t-89 15q-105 0 -167 -61t-62 -155q0 -90 68.5 -150.5t154.5 -60.5q78 0 132.5 42.5t61.5 113.5z" />
    <glyph glyph-name="hcircumflex.sc" horiz-adv-x="608" 
d="M521 0h-69v238h-296v-238h-69v528h69v-227h296v227h69v-528zM463 640l-37 -36l-123 96l-122 -96l-37 36l160 134z" />
    <glyph glyph-name="iacute.sc" horiz-adv-x="243" 
d="M156 0h-69v528h69v-528zM119 585l-37 28l92 165l61 -45z" />
    <glyph glyph-name="jcircumflex.sc" horiz-adv-x="243" 
d="M-2 -181l-25 59q70 24 92 58.5t22 124.5v467h69v-471q0 -109 -32 -155.5t-126 -82.5zM281 640l-37 -36l-123 96l-121 -96l-37 36l159 134z" />
    <glyph glyph-name="kcommaaccent.sc" horiz-adv-x="533" 
d="M531 0h-101l-274 223v-223h-69v528h69v-226l241 226h90l-285 -262zM255 -232h-73l87 190h79z" />
    <glyph glyph-name="lslash.sc" horiz-adv-x="427" 
d="M403 1h-312v160l-60 -34v66l60 35v300h69v-260l131 73v-66l-131 -73v-139l243 1v-63z" />
    <glyph glyph-name="uni1E41.sc" horiz-adv-x="758" 
d="M699 0h-70l-36 330v7v11v8l-3.5 -7t-4.5 -9.5t-4 -7.5l-203 -351l-203 350q-7 12 -12 24q3 -10 1 -26l-35 -329h-70l66 542l243 -416q1 -2 5.5 -10.5t5.5 -11.5q2 10 10 22l243 416zM427 622q0 -18 -14.5 -31.5t-34.5 -13.5q-19 0 -32.5 13.5t-13.5 31.5q0 20 13.5 33.5
t32.5 13.5q20 0 34.5 -13.5t14.5 -33.5z" />
    <glyph glyph-name="ntilde.sc" horiz-adv-x="666" 
d="M471 705l24 -37q-14 -20 -43.5 -42t-62.5 -22q-19 0 -58 22.5t-60 22.5q-32 0 -81 -46l-29 36q20 23 53 44.5t61 21.5q23 0 62 -23t55 -23q37 0 79 46zM579 -18l-426 403l2 -385h-69l1 543l426 -405l-2 390h69z" />
    <glyph glyph-name="odieresis.sc" horiz-adv-x="680" 
d="M629 262q0 -113 -83.5 -192.5t-204.5 -79.5q-124 0 -207 80t-83 194q0 115 83 195t207 80t206 -79t82 -198zM557 262q0 93 -62 154t-155 61q-95 0 -156.5 -60.5t-61.5 -151.5q0 -87 61.5 -150.5t152.5 -63.5q97 0 159 60.5t62 150.5zM263 652q0 -18 -14.5 -31.5
t-34.5 -13.5q-19 0 -32.5 13.5t-13.5 31.5q0 20 13.5 33.5t32.5 13.5q20 0 34.5 -13.5t14.5 -33.5zM488 652q0 -19 -13.5 -32t-34.5 -13q-20 0 -33 13.5t-13 31.5q0 20 13 33.5t33 13.5q22 0 35 -13.5t13 -33.5z" />
    <glyph glyph-name="uni1E57.sc" horiz-adv-x="461" 
d="M279 652q0 -18 -14.5 -31.5t-34.5 -13.5q-19 0 -32.5 13.5t-13.5 31.5q0 20 13.5 33.5t32.5 13.5q20 0 34.5 -13.5t14.5 -33.5zM156 0h-69v528h117q95 0 155.5 -36.5t60.5 -119.5q0 -81 -57 -128.5t-161 -47.5h-46v-196zM156 259h46q69 0 107.5 30t38.5 81q0 47 -33 71
t-93 24h-66v-206z" />
    <glyph glyph-name="racute.sc" horiz-adv-x="505" 
d="M364 748l-155 -145l-38 27l133 163zM506 0h-102l-248 213v-213h-69v528h119q95 0 154.5 -37t59.5 -119q0 -71 -43 -115.5t-121 -56.5zM156 259h41q75 0 113 30t38 82q0 46 -33 70t-92 24h-67v-206z" />
    <glyph glyph-name="scaron.sc" horiz-adv-x="454" 
d="M385 715l-159 -134l-160 134l37 37l122 -96l123 96zM37 66l39 47q54 -63 144 -63q48 0 80 23.5t32 62.5q0 37 -27 63.5t-65 43.5t-76.5 35t-65.5 49.5t-27 75.5q0 64 50 100.5t119 36.5q91 0 147 -56l-35 -48q-49 45 -111 45q-42 0 -69.5 -19.5t-27.5 -55.5q0 -32 27 -54
t65.5 -38t77 -35t65.5 -55t27 -88q0 -58 -51 -102t-137 -44q-57 0 -108 23.5t-73 52.5z" />
    <glyph glyph-name="tcommaaccent.sc" horiz-adv-x="466" 
d="M223 -232h-73l87 190h79zM268 0h-69v466l-172 -1v62h412v-62l-171 1v-466z" />
    <glyph glyph-name="uogonek.sc" horiz-adv-x="597" 
d="M444 -155v-58q-31 -15 -79 -15q-52 0 -88.5 22.5t-36.5 69.5q0 72 88 127q-5 0 -15 -0.5t-16 -0.5q-103 0 -159 51t-56 151v336h69v-298q0 -98 36 -138.5t123 -40.5q90 0 134 36v441h69v-468q-27 -29 -96 -58q-44 -17 -78 -50t-34 -73q0 -25 19.5 -38.5t49.5 -13.5
q25 0 70 18z" />
    <glyph glyph-name="wcircumflex.sc" horiz-adv-x="796" 
d="M579 -23l-181 409l-179 -407l-207 549h75l137 -374q2 -5 4 -26q2 17 5 26l166 392l167 -392q5 -13 6 -25q0 16 4 25l133 374h73zM560 640l-37 -36l-123 96l-122 -96l-37 36l160 134z" />
    <glyph glyph-name="ygrave.sc" horiz-adv-x="472" 
d="M270 0h-69v226l-193 302h81l146 -241l151 241h80l-197 -302zM298 630l-39 -27l-154 145l60 45z" />
    <glyph glyph-name="zcaron.sc" horiz-adv-x="504" 
d="M424 726l-159 -134l-160 134l37 37l122 -96l123 96zM460 1h-445l327 464l-260 -1v63h379l-327 -464l326 1v-63z" />
    <glyph glyph-name="a.sc.semp" horiz-adv-x="556" 
d="M550 0h-73l-47 96h-302l-47 -96h-74l271 546zM403 152l-125 256l-124 -256h249z" />
    <glyph glyph-name="J.alt" horiz-adv-x="272" 
d="M-22 -277l-26 65q93 35 120.5 87.5t27.5 181.5v700h72v-709q0 -105 -21 -166.5t-59 -93.5t-114 -65z" />
    <glyph glyph-name="J.semp" horiz-adv-x="457" 
d="M291 216v476h-177v64h249v-553q0 -104 -55.5 -159.5t-141.5 -55.5q-70 0 -146 42l28 60q69 -38 119 -38q59 0 91.5 42.5t32.5 121.5z" />
    <glyph glyph-name="j.sc.semp" horiz-adv-x="370" 
d="M231 221v244h-147v62h216v-342q0 -104 -40 -150.5t-124 -46.5q-71 0 -123 38l19 58q49 -35 95 -35q61 0 82.5 40.5t21.5 131.5z" />
    <glyph glyph-name="J.semp2" horiz-adv-x="447" 
d="M281 216v541h72v-554q0 -104 -55.5 -159.5t-141.5 -55.5q-61 0 -126 34l28 61q52 -31 100 -31q59 0 91 43t32 121z" />
    <glyph glyph-name="a.alt" horiz-adv-x="573" 
d="M500 -1h-65v67q-24 -33 -68.5 -55t-98.5 -22q-97 0 -160.5 73t-63.5 180q0 118 78.5 185t187.5 67q107 0 190 -61v-434zM435 134v266q-20 14 -56 24.5t-73 10.5q-85 0 -139 -57t-54 -144q0 -85 50.5 -136.5t117.5 -51.5q50 0 92.5 27.5t61.5 60.5z" />
    <glyph glyph-name="f.alt" horiz-adv-x="312" 
d="M172 -244h-66v667h-81v57h81v134q0 101 38 152q40 52 119 52q58 0 93 -26l-28 -56q-34 21 -65 21q-91 0 -91 -128v-149h120v-57h-120v-667z" />
    <glyph glyph-name="f.semp2" horiz-adv-x="300" 
d="M141 0h-66v614q0 103 38 152q40 52 116 52q61 0 96 -26l-28 -56q-36 21 -68 21q-88 0 -88 -128v-150h140v-57h-140v-422z" />
    <glyph glyph-name="j.semp" horiz-adv-x="224" 
d="M145 -250l-66 -15v746h66v-731zM113 577q-22 0 -36.5 14.5t-14.5 36.5t14.5 36.5t35.5 14.5q22 0 36.5 -15t14.5 -36q0 -22 -14 -36.5t-36 -14.5z" />
    <glyph glyph-name="m.alt" horiz-adv-x="831" 
d="M760 0h-66v294q0 74 -27.5 107.5t-89.5 33.5q-82 0 -139 -48q11 -35 11 -78v-309h-66v294q0 74 -27.5 107.5t-89.5 33.5q-75 0 -128 -40v-395h-66v431q88 63 197 63q91 0 136 -49q81 49 175 49q180 0 180 -185v-309z" />
    <glyph glyph-name="n.alt" horiz-adv-x="548" 
d="M477 0h-66v294q0 72 -37.5 106.5t-102.5 34.5q-80 0 -133 -40v-395h-66v431q88 63 202 63q92 0 147.5 -47.5t55.5 -137.5v-309z" />
    <glyph glyph-name="germandbls.alt" horiz-adv-x="545" 
d="M212 11l14 59q53 -24 89 -24q50 0 89.5 28.5t39.5 83.5q0 20 -7 36t-24.5 30t-28.5 20.5t-37 20.5q-35 19 -56.5 35t-40 51t-18.5 82q0 14 2 26.5t7 25t8.5 20.5t13 21t13 18t16 19.5t14.5 17.5q42 51 42 96q0 51 -28 72.5t-60 21.5q-51 0 -85 -38.5t-34 -105.5v-627h-66
v617q0 96 50 153t145 57q62 0 101.5 -39.5t39.5 -102.5q0 -16 -4 -32t-8 -27.5t-14 -27.5t-15 -23t-18 -24t-16 -21q-41 -55 -41 -92q0 -25 8 -45t25 -36t30.5 -24.5t38.5 -22.5q29 -16 43.5 -26t34.5 -28.5t29 -42t9 -53.5q0 -76 -54.5 -123.5t-149.5 -47.5q-42 0 -97 22z
" />
    <glyph glyph-name="germandbls.semp" horiz-adv-x="545" 
d="M243 -245l2 57q74 12 137 72t63 147q0 61 -33.5 98.5t-97.5 37.5q-37 0 -88 -14l164 270h-218v-666h-66v666h-77v57h77v134q0 103 38 152q40 52 116 52q61 0 96 -26l-28 -56q-36 21 -68 21q-88 0 -88 -128v-149h321l-174 -268q17 3 34 3q69 0 114 -52t45 -132
q0 -62 -29.5 -114.5t-74 -85t-87.5 -52t-78 -24.5z" />
    <glyph glyph-name="t.alt" horiz-adv-x="314" 
d="M281 43l-35 -52q-69 0 -105 32t-36 118v281h-86v58h86v172h66v-172h119v-58h-119v-269q0 -67 26.5 -88t83.5 -22z" />
    <glyph glyph-name="t.alt2" horiz-adv-x="330" 
d="M198 0h-66v423h-117v57h117v172h66v-172h117v-57h-117v-423z" />
    <glyph glyph-name="numbersign.alt" horiz-adv-x="1246" 
d="M1206 472q0 -74 -56 -125t-137 -51q-82 0 -138 51t-56 125t56 125.5t138 51.5q81 0 137 -52t56 -125zM1140 472q0 54 -37.5 90.5t-89.5 36.5q-57 0 -93 -36.5t-36 -92.5q0 -53 38 -88.5t89 -35.5q58 0 93.5 35t35.5 91zM1132 130h-246l8 57h246zM743 -25l-580 616l1 -591
h-72v776l580 -618v599h72z" />
    <glyph glyph-name="numbersign.alt.sc" horiz-adv-x="978" 
d="M927 340q0 -54 -38 -91.5t-91 -37.5t-90.5 37.5t-37.5 91.5q0 53 37.5 90.5t90.5 37.5t91 -37.5t38 -90.5zM799 261q31 0 54 23t23 55t-23 55.5t-54 23.5t-53.5 -23.5t-22.5 -55.5t22.5 -55t53.5 -23zM579 -18l-426 403l2 -385h-69l1 543l426 -405l-2 390h69zM897 79
h-195l8 53h195z" />
    <glyph glyph-name="five.alt" horiz-adv-x="544" 
d="M24 65l33 57q21 -19 76 -45.5t114 -26.5q75 0 126 48.5t51 127.5q0 92 -86 154.5t-223 81.5l106 279h258l-18 -64h-191l-67 -175q132 -23 212.5 -93.5t80.5 -180.5q0 -109 -70 -174t-184 -65q-69 0 -133.5 27.5t-84.5 48.5z" />
    <glyph glyph-name="ampersand.alt" horiz-adv-x="733" 
d="M754 0h-92l-106 129q-9 -16 -26 -36.5t-46 -46t-73.5 -42.5t-94.5 -17q-115 0 -192.5 77.5t-77.5 184.5q0 98 57.5 167t129.5 89q-57 61 -57 122q0 62 42 103t109 41q77 0 134 -53l-38 -44q-43 38 -93 38q-36 0 -62 -21.5t-26 -64.5t62 -114zM514 174l-242 280
q-10 -2 -26 -8.5t-39 -22t-42.5 -37t-33.5 -56t-14 -75.5q0 -91 62 -150t138 -59q44 0 82 15.5t61 39.5t35.5 41.5t18.5 31.5z" />
    <glyph glyph-name="ampersand.alt.sc" horiz-adv-x="592" 
d="M595 0h-90l-73 82q-22 -31 -68.5 -61t-105.5 -30q-90 0 -150.5 55.5t-60.5 126.5q0 40 15.5 73.5t40 55t43.5 34t38 20.5q-1 1 -6.5 7.5t-8.5 10t-8.5 11.5t-8 14.5t-5 15.5t-2.5 18q0 41 35 72t83 31q12 0 24 -1.5t20.5 -4t17 -6.5t13.5 -7t11 -8t8.5 -7.5t6.5 -7.5
l5 -4l-39 -36q-29 31 -64 31q-24 0 -42 -17.5t-18 -39.5q0 -8 1.5 -14.5t7.5 -14.5t8 -11t12 -13l11 -11zM390 126l-174 184q-10 -2 -25 -10t-33.5 -22.5t-31 -40.5t-12.5 -57q0 -58 45.5 -96.5t94.5 -38.5q56 0 91 28t45 53z" />
    <glyph glyph-name="dollar.alt" horiz-adv-x="502" 
d="M282 -97h-50v100q-66 3 -119.5 35.5t-74.5 71.5l35 44q68 -90 159 -95v312q-37 19 -60 33.5t-48.5 37t-38 52t-12.5 65.5q0 76 45 122.5t114 54.5v97h50v-96q83 -7 152 -76l-32 -43q-55 57 -120 64v-267q40 -20 64 -35.5t52.5 -41.5t42.5 -62.5t14 -82.5
q0 -66 -47.5 -120.5t-125.5 -66.5v-103zM282 346v-285q48 9 79 43.5t31 87.5q0 56 -28.5 91.5t-81.5 62.5zM232 441v239q-42 -7 -69 -37t-27 -78q0 -43 25 -71t71 -53z" />
    <glyph glyph-name="Euro.alt" horiz-adv-x="633" 
d="M555 82l27 -50q-62 -44 -167 -44q-153 0 -256.5 113.5t-103.5 276.5t103.5 277.5t256.5 114.5q106 0 176 -49l-35 -49q-74 37 -148 37q-94 0 -167.5 -57t-103.5 -154h315v-55h-330q-6 -31 -6 -67q0 -3 3 -36h333v-55h-323q27 -105 105.5 -171t189.5 -66q74 0 131 34z" />
    <glyph glyph-name="section.alt" horiz-adv-x="397" 
d="M246 -155l-91 863q14 19 61 40.5t90 21.5q23 0 38 -13.5t15 -32.5t-13.5 -33.5t-31.5 -14.5q-21 0 -33.5 15.5t-13.5 31.5q-14 -3 -34.5 -12.5t-23.5 -14.5l91 -862q-17 -35 -77 -68t-111 -33q-21 0 -34.5 13t-13.5 33q0 19 14 32.5t32 13.5q20 0 33 -14.5t14 -29.5
q27 8 53 25t36 39zM194 -99l-43 -26l-81 776l41 31z" />
    <glyph glyph-name="longs.semp" horiz-adv-x="247" 
d="M172 -244h-66v666h-80v57h80v135q0 103 38 152q40 52 116 52q61 0 96 -26l-28 -56q-36 21 -68 21q-88 0 -88 -128v-873z" />
    <glyph glyph-name="ff.alt" horiz-adv-x="624" 
d="M172 -229h-66v652h-81v57h81v94q0 103 38 152q40 52 116 52q61 0 96 -26l-28 -56q-36 21 -68 21q-88 0 -88 -128v-109h120v-57h-120v-652zM484 -121h-66v544h-80v57h80v142q0 103 38 152q40 52 116 52q61 0 96 -26l-28 -56q-36 21 -68 21q-88 0 -88 -128v-157h120v-57
h-120v-544z" />
    <glyph glyph-name="ff.semp2" horiz-adv-x="610" 
d="M441 0h-66v622q0 103 38 152q40 52 116 52q61 0 96 -26l-28 -56q-36 21 -68 21q-88 0 -88 -128v-158h140v-57h-140v-422zM141 0h-66v575q0 103 38 152q40 52 116 52q61 0 96 -26l-28 -56q-36 21 -68 21q-88 0 -88 -128v-111h140v-57h-140v-422z" />
    <glyph glyph-name="ff.semp" horiz-adv-x="603" 
d="M141 -229h-66v804q0 103 38 152q40 52 116 52q61 0 96 -26l-28 -56q-36 21 -68 21q-88 0 -88 -128v-111h140v-57h-140v-651zM441 -121h-66v743q0 103 38 152q40 52 116 52q61 0 96 -26l-28 -56q-36 21 -68 21q-88 0 -88 -128v-158h140v-57h-140v-543z" />
    <glyph glyph-name="fi.alt" horiz-adv-x="536" 
d="M457 0h-66v481h66v-481zM476 622q0 -21 -15 -36t-36 -15t-36 15t-15 36q0 22 15 36.5t36 14.5q22 0 36.5 -15t14.5 -36zM172 -229h-66v652h-81v57h81v134q0 103 38 152q40 52 116 52q61 0 96 -26l-28 -56q-36 21 -68 21q-88 0 -88 -128v-149h120v-57h-120v-652z" />
    <glyph glyph-name="fi.semp2" horiz-adv-x="524" 
d="M141 0h-66v614q0 103 38 152q40 52 116 52q61 0 96 -26l-28 -56q-36 21 -68 21q-88 0 -88 -128v-150h140v-57h-140v-422zM445 0h-66v481h66v-481zM464 628q0 -21 -15 -36t-36 -15t-36 15t-15 36q0 22 15 36.5t36 14.5q22 0 36.5 -15t14.5 -36z" />
    <glyph glyph-name="fi.semp" horiz-adv-x="524" 
d="M445 0h-66v481h66v-481zM464 628q0 -21 -15 -36t-36 -15t-36 15t-15 36q0 22 15 36.5t36 14.5q22 0 36.5 -15t14.5 -36zM141 -229h-66v843q0 103 38 152q40 52 116 52q61 0 96 -26l-28 -56q-36 21 -68 21q-88 0 -88 -128v-150h139v-57h-139v-651z" />
    <glyph glyph-name="f_j" horiz-adv-x="536" 
d="M172 0h-66v423h-81v57h81v134q0 103 38 152q40 52 116 52q61 0 96 -26l-28 -56q-36 21 -68 21q-88 0 -88 -128v-149h120v-57h-120v-423zM318 -267l-27 53q27 11 42.5 19t28 24t17.5 26t8 42.5t3.5 56.5t0.5 83v444h66v-440q0 -69 -2 -105t-8.5 -73t-22 -57t-40.5 -38
t-66 -35zM425 571q-22 0 -36.5 14.5t-14.5 36.5t14.5 36.5t36.5 14.5t36 -14.5t14 -36.5t-14 -36.5t-36 -14.5z" />
    <glyph glyph-name="f_j.semp" horiz-adv-x="524" 
d="M141 -229h-66v843q0 103 38 152q40 52 116 52q61 0 96 -26l-28 -56q-36 21 -68 21q-88 0 -88 -128v-150h140v-57h-140v-651zM445 -250l-66 -15v746h66v-731zM413 577q-22 0 -36.5 14.5t-14.5 36.5t14.5 36.5t35.5 14.5q22 0 36.5 -15t14.5 -36q0 -22 -14 -36.5t-36 -14.5
z" />
    <glyph glyph-name="fl.alt" horiz-adv-x="540" 
d="M459 0h-66v820h66v-820zM172 -229h-66v652h-81v57h81v121q0 103 38 152q40 52 116 52q61 0 96 -26l-28 -56q-36 21 -68 21q-88 0 -88 -128v-136h120v-57h-120v-652z" />
    <glyph glyph-name="fl.semp2" horiz-adv-x="528" 
d="M447 0h-66v820h66v-820zM141 0h-66v602q0 103 38 152q40 52 116 52q61 0 96 -26l-28 -56q-36 21 -68 21q-88 0 -88 -128v-138h140v-57h-140v-422z" />
    <glyph glyph-name="fl.semp" horiz-adv-x="528" 
d="M447 0h-66v820h66v-820zM141 -229h-66v831q0 103 38 152q40 52 116 52q61 0 96 -26l-28 -56q-36 21 -68 21q-88 0 -88 -128v-138h140v-57h-140v-651z" />
    <glyph glyph-name="f_t" horiz-adv-x="588" 
d="M456 0h-66v423h-218v-423h-66v423h-81v57h81v134q0 103 38 152q40 52 116 52q61 0 96 -26l-28 -56q-36 21 -68 21q-88 0 -88 -128v-149h218v172h66v-172h117v-57h-117v-423z" />
    <glyph glyph-name="f_t.semp" horiz-adv-x="597" 
d="M141 -244h-66v858q0 103 38 152q40 52 116 52q61 0 96 -26l-28 -56q-36 21 -68 21q-88 0 -88 -128v-150h140v-57h-140v-666zM441 0h-66v659h66v-179h142v-57h-142v-423z" />
    <glyph glyph-name="ffi.alt" horiz-adv-x="848" 
d="M172 -229h-66v652h-81v57h81v94q0 103 38 152q40 52 116 52q61 0 96 -26l-28 -56q-36 21 -68 21q-88 0 -88 -128v-109h120v-57h-120v-652zM769 0h-66v481h66v-481zM788 622q0 -21 -15 -36t-36 -15t-36 15t-15 36q0 22 15 36.5t36 14.5q22 0 36.5 -15t14.5 -36zM484 -121
h-66v544h-81v57h81v134q0 103 38 152q40 52 116 52q61 0 96 -26l-28 -56q-36 21 -68 21q-88 0 -88 -128v-149h120v-57h-120v-544z" />
    <glyph glyph-name="ffi.semp2" horiz-adv-x="824" 
d="M441 0h-66v622q0 103 38 152q40 52 116 52q61 0 96 -26l-28 -56q-36 21 -68 21q-88 0 -88 -128v-158h140v-57h-140v-422zM141 0h-66v575q0 103 38 152q40 52 116 52q61 0 96 -26l-28 -56q-36 21 -68 21q-88 0 -88 -128v-111h140v-57h-140v-422zM745 0h-66v481h66v-481z
M764 628q0 -22 -14.5 -36.5t-36.5 -14.5q-21 0 -36 14.5t-15 36.5t15 36.5t36 14.5q22 0 36.5 -15t14.5 -36z" />
    <glyph glyph-name="ffi.semp" horiz-adv-x="824" 
d="M745 0h-66v481h66v-481zM764 628q0 -22 -14.5 -36.5t-36.5 -14.5q-21 0 -36 14.5t-15 36.5t15 36.5t36 14.5q22 0 36.5 -15t14.5 -36zM141 -229h-66v804q0 103 38 152q40 52 116 52q61 0 96 -26l-28 -56q-36 21 -68 21q-88 0 -88 -128v-111h140v-57h-140v-651zM441 -121
h-66v743q0 103 38 152q40 52 116 52q61 0 96 -26l-28 -56q-36 21 -68 21q-88 0 -88 -128v-158h140v-57h-140v-543z" />
    <glyph glyph-name="ffl.alt" horiz-adv-x="852" 
d="M771 0h-66v820h66v-820zM172 -229h-66v652h-81v57h81v90q0 103 38 152q40 52 116 52q61 0 96 -26l-28 -56q-36 21 -68 21q-88 0 -88 -128v-105h112v-57h-112v-652zM484 -121h-66v544h-80v57h80v127q0 103 38 152q40 52 116 52q61 0 96 -26l-28 -56q-36 21 -68 21
q-88 0 -88 -128v-142h120v-57h-120v-544z" />
    <glyph glyph-name="ffl.semp2" horiz-adv-x="828" 
d="M441 0h-66v607q0 103 38 152q40 52 116 52q61 0 96 -26l-28 -56q-36 21 -68 21q-88 0 -88 -128v-143h140v-57h-140v-422zM141 0h-66v570q0 103 38 152q40 52 116 52q61 0 96 -26l-28 -56q-36 21 -68 21q-88 0 -88 -128v-106h140v-57h-140v-422zM747 0h-66v820h66v-820z
" />
    <glyph glyph-name="ffl.semp" horiz-adv-x="828" 
d="M747 0h-66v820h66v-820zM141 -229h-66v799q0 103 38 152q40 52 116 52q61 0 96 -26l-28 -56q-36 21 -68 21q-88 0 -88 -128v-106h140v-57h-140v-651zM441 -121h-66v728q0 103 38 152q40 52 116 52q61 0 96 -26l-28 -56q-36 21 -68 21q-88 0 -88 -128v-143h140v-57h-140
v-543z" />
    <glyph glyph-name="zero_slash" horiz-adv-x="656" 
d="M327 -12q-63 0 -110.5 25t-75 63.5t-44 92.5t-22 102t-5.5 103q0 54 5.5 102t22 102.5t43.5 93t74.5 64.5t110.5 26q64 0 112 -25t75.5 -63t44.5 -91.5t22.5 -103t5.5 -105.5q0 -55 -5.5 -104t-22.5 -102.5t-44.5 -91.5t-75.5 -63t-111 -25zM196 122l221 551
q-38 27 -91 27q-185 0 -185 -326q0 -167 55 -252zM461 625l-223 -549q37 -28 89 -28q49 0 85 24t55 58t30.5 82.5t14.5 84.5t3 77q0 168 -54 251z" />
    <glyph glyph-name="zero.tab" horiz-adv-x="624" 
d="M311 -12q-63 0 -110.5 25t-75 63.5t-44 92.5t-22 102t-5.5 103q0 54 5.5 102t22 102.5t43.5 93t74.5 64.5t110.5 26q64 0 112 -25t75.5 -63t44.5 -91.5t22.5 -103t5.5 -105.5q0 -55 -5.5 -104t-22.5 -102.5t-44.5 -91.5t-75.5 -63t-111 -25zM311 48q49 0 85 24t55 58
t30.5 82.5t14.5 84.5t3 77q0 42 -3.5 80t-15 85t-31 81t-55.5 57t-84 23q-185 0 -185 -326q0 -39 3.5 -76.5t15 -85t31 -82t54.5 -58.5t82 -24z" />
    <glyph glyph-name="minus.sinf" horiz-adv-x="458" 
d="M402 -10h-346v50h346v-50z" />
    <glyph glyph-name="plus.sinf" horiz-adv-x="418" 
d="M382 -10h-146v-127h-54v127h-146v50h146v132h54v-132h146v-50z" />
    <glyph glyph-name="braceright.sinf" horiz-adv-x="237" 
d="M43 -272l-13 42q42 6 53.5 25t11.5 56v68q0 58 42 92q-42 35 -42 93v68q0 37 -11.5 56t-53.5 25l13 42q108 -7 108 -107v-77q0 -69 68 -100q-38 -17 -53 -40.5t-15 -58.5v-77q0 -100 -108 -107z" />
    <glyph glyph-name="braceleft.sinf" horiz-adv-x="237" 
d="M207 -230l-13 -42q-108 7 -108 107v77q0 35 -15 58.5t-53 40.5q68 31 68 100v77q0 100 108 107l13 -42q-42 -6 -53.5 -25t-11.5 -56v-68q0 -58 -42 -93q42 -34 42 -92v-68q0 -37 11.5 -56t53.5 -25z" />
    <glyph glyph-name="bracketright.sinf" horiz-adv-x="221" 
d="M161 -275h-128v45h74v480h-74v45h128v-570z" />
    <glyph glyph-name="bracketleft.sinf" horiz-adv-x="221" 
d="M188 -275h-128v570h128v-46h-75v-480h75v-44z" />
    <glyph glyph-name="Euro.sinf" horiz-adv-x="431" 
d="M375 -117l20 -44q-39 -26 -107 -26q-76 0 -129.5 42t-70.5 112h-60l13 41h41q-2 16 -2 25q0 8 2 24h-48l12 42h42q17 70 68 111t126 41q66 0 114 -29l-26 -42q-40 20 -93 20q-97 0 -127 -101q30 0 91 0.5t87 0.5l-12 -43h-177q-1 -6 -1 -26q0 -15 1 -23l182 1l-12 -42
h-159q35 -104 138 -104q60 0 87 20z" />
    <glyph glyph-name="yen.sinf" horiz-adv-x="449" 
d="M393 -115h-137v-64h-64v64h-137v40h137v47h-137v40h125l-150 214h71l125 -180l125 180h68l-151 -214h125v-40h-137v-47h137v-40z" />
    <glyph glyph-name="sterling.sinf" horiz-adv-x="382" 
d="M353 -126l5 -49q-32 -10 -84 -10q-15 0 -51 7.5t-56 7.5q-29 0 -72.5 -12.5t-53.5 -18.5l-19 45q37 18 87 29v108h-48v43h48v92q0 121 111 121q38 0 71 -22l-28 -42q-19 15 -41 15q-51 0 -51 -68v-96h86v-43h-86v-103h19q19 0 49.5 -8t47.5 -8q24 0 66 12z" />
    <glyph glyph-name="cent.sinf" horiz-adv-x="351" 
d="M208 -193h-42v64q-60 8 -98.5 47t-38.5 94t39.5 92t97.5 44v83h42v-82q33 -2 62 -15.5t40 -24.5l-26 -37q-33 29 -76 31v-187q48 0 89 34l20 -36q-32 -37 -109 -43v-64zM166 -82v183q-35 -6 -59.5 -29.5t-24.5 -61.5q0 -37 23.5 -61.5t60.5 -30.5z" />
    <glyph glyph-name="dollar.sinf" horiz-adv-x="353" 
d="M186 -232h-44l3 43q-37 6 -70.5 23t-47.5 34l32 42q33 -36 90 -45l13 156q-28 14 -40.5 21t-32.5 22t-28 33t-8 42q0 51 36.5 81t90.5 31l3 31h43l-3 -36q53 -13 80 -43l-30 -43q-24 22 -54 32l-10 -127q33 -15 52.5 -28t37.5 -42t18 -67q0 -46 -33.5 -80t-94.5 -38z
M204 0l-11 -136q28 4 44.5 21t16.5 43q-1 44 -50 72zM167 83l9 115q-26 -2 -43 -17t-17 -39q0 -34 51 -59z" />
    <glyph glyph-name="zero_slash.sinf" horiz-adv-x="426" 
d="M212 -188q-50 0 -85.5 20.5t-52 55t-23.5 67.5t-7 71t6.5 71.5t23.5 68t52 55t86 20.5t86.5 -19.5t52.5 -54t24 -68t7 -73.5q0 -38 -7 -71.5t-24 -68t-52.5 -54.5t-86.5 -20zM127 -79l143 250q-24 19 -58 19q-103 0 -103 -164q0 -63 18 -105zM299 132l-143 -250
q22 -19 56 -19q33 0 56 17t32.5 45t13 51.5t3.5 49.5q0 65 -18 106z" />
    <glyph glyph-name="period.dnom" horiz-adv-x="180" 
d="M130 30q0 -15 -11.5 -26t-28.5 -11q-16 0 -28 11.5t-12 25.5q0 16 11.5 27.5t28.5 11.5t28.5 -11t11.5 -28z" />
    <glyph glyph-name="hyphen.dnom" horiz-adv-x="273" 
d="M210 143h-154l7 53h154z" />
    <glyph glyph-name="comma.dnom" horiz-adv-x="188" 
d="M68 -59h-44l50 122h65z" />
    <glyph glyph-name="equal.dnom" horiz-adv-x="458" 
d="M402 100h-346v52h346v-52zM402 237h-346v51h346v-51z" />
    <glyph glyph-name="divide.dnom" horiz-adv-x="442" 
d="M394 169h-346v52h346v-52zM258 87q0 -14 -10.5 -24.5t-27.5 -10.5q-14 0 -25 10.5t-11 24.5q0 13 11 24t25 11q17 0 27.5 -10.5t10.5 -24.5zM258 301q0 -13 -10.5 -23.5t-27.5 -10.5q-14 0 -25 10.5t-11 23.5q0 14 11 24.5t25 10.5q17 0 27.5 -10.5t10.5 -24.5z" />
    <glyph glyph-name="multiply.dnom" horiz-adv-x="408" 
d="M360 87l-40 -32l-117 103l-115 -102l-42 30l120 106l-118 105l40 32l116 -103l116 103l39 -32l-118 -105z" />
    <glyph glyph-name="minus.dnom" horiz-adv-x="458" 
d="M402 169h-346v51h346v-51z" />
    <glyph glyph-name="multiply.sinf" horiz-adv-x="406" 
d="M360 -92l-40 -32l-117 103l-115 -102l-42 30l120 105l-118 105l40 32l116 -103l116 103l39 -32l-118 -105z" />
    <glyph glyph-name="divide.sinf" horiz-adv-x="444" 
d="M395 -10h-346v51h346v-51zM259 -92q0 -14 -10.5 -24.5t-27.5 -10.5q-14 0 -25 10.5t-11 24.5q0 13 11 24t25 11q17 0 27.5 -10.5t10.5 -24.5zM259 121q0 -13 -10.5 -23.5t-27.5 -10.5q-14 0 -25 10.5t-11 23.5q0 14 11 24.5t25 10.5q17 0 27.5 -10.5t10.5 -24.5z" />
    <glyph glyph-name="equal.sinf" horiz-adv-x="458" 
d="M402 -79h-346v52h346v-52zM402 57h-346v51h346v-51z" />
    <glyph glyph-name="comma.sinf" horiz-adv-x="193" 
d="M70 -239h-44l50 123h65z" />
    <glyph glyph-name="hyphen.sinf" horiz-adv-x="274" 
d="M210 -36h-154l7 52h154z" />
    <glyph glyph-name="period.sinf" horiz-adv-x="180" 
d="M130 -149q0 -15 -11.5 -26.5t-28.5 -11.5q-16 0 -28 11.5t-12 26.5q0 16 11.5 27.5t28.5 11.5t28.5 -11t11.5 -28z" />
    <glyph glyph-name="Aring.semp" horiz-adv-x="692" 
d="M457 911q0 -45 -32 -76.5t-78 -31.5t-78 31.5t-32 76.5q0 46 32 77.5t78 31.5q45 0 77.5 -32t32.5 -77zM348 847q26 0 45 19.5t19 45.5q0 27 -19 46t-45 19t-45 -19t-19 -46q0 -26 19 -45.5t45 -19.5zM698 0h-78l-69 156h-412l-68 -156h-77l353 778zM523 221l-177 402
l-178 -402h355z" />
    <glyph glyph-name="Agrave.semp" horiz-adv-x="692" 
d="M443 838l-262 45l34 66l249 -64zM698 0h-78l-69 156h-412l-68 -156h-77l353 778zM523 221l-177 402l-178 -402h355z" />
    <glyph glyph-name="Adieresis.semp" horiz-adv-x="692" 
d="M253 894q0 -19 -15 -33t-36 -14q-20 0 -34.5 14t-14.5 33q0 20 14.5 34t34.5 14q22 0 36.5 -14t14.5 -34zM517 894q0 -19 -14 -33t-37 -14q-21 0 -34.5 14t-13.5 33q0 20 13.5 34t34.5 14q23 0 37 -13.5t14 -34.5zM698 0h-78l-69 156h-412l-68 -156h-77l353 778zM523 221
l-177 402l-178 -402h355z" />
    <glyph glyph-name="Acircumflex.semp" horiz-adv-x="692" 
d="M488 815l-153 61l-157 -68l-28 37l186 102l186 -97zM698 0h-78l-69 156h-412l-68 -156h-77l353 778zM523 221l-177 402l-178 -402h355z" />
    <glyph glyph-name="Aacute.semp" horiz-adv-x="692" 
d="M476 883l-262 -45l-20 47l249 64zM698 0h-78l-69 156h-412l-68 -156h-77l353 778zM523 221l-177 402l-178 -402h355z" />
    <glyph glyph-name="fi.sc" horiz-adv-x="666" 
d="M579 0h-69v528h69v-528zM156 0h-69v527h300v-62l-231 1v-159l187 1v-63h-187v-245z" />
    <glyph glyph-name="amacron.alt" horiz-adv-x="573" 
d="M477 591h-363v58h363v-58zM500 -1h-65v67q-24 -33 -68.5 -55t-98.5 -22q-97 0 -160.5 73t-63.5 180q0 118 78.5 185t187.5 67q107 0 190 -61v-434zM435 134v266q-20 14 -56 24.5t-73 10.5q-85 0 -139 -57t-54 -144q0 -85 50.5 -136.5t117.5 -51.5q50 0 92.5 27.5
t61.5 60.5z" />
    <glyph glyph-name="uni1E1F.semp2" horiz-adv-x="300" 
d="M201 878q-20 0 -34 13.5t-14 33.5q0 19 14.5 33.5t33.5 14.5t33 -14t14 -34t-13.5 -33.5t-33.5 -13.5zM141 0h-66v614q0 103 38 152q40 52 116 52q61 0 96 -26l-28 -56q-36 21 -68 21q-88 0 -88 -128v-150h140v-57h-140v-422z" />
    <glyph glyph-name="uni1E1F.semp" horiz-adv-x="300" 
d="M201 878q-20 0 -34 13.5t-14 33.5q0 19 14.5 33.5t33.5 14.5t33 -14t14 -34t-13.5 -33.5t-33.5 -13.5zM141 -244h-66v858q0 103 38 152q40 52 116 52q61 0 96 -26l-28 -56q-36 21 -68 21q-88 0 -88 -128v-150h140v-57h-140v-666z" />
    <glyph glyph-name="abreve.alt" horiz-adv-x="573" 
d="M391 729h67q-3 -63 -48.5 -114t-128.5 -51q-66 0 -113.5 43.5t-53.5 121.5h70q0 -10 3 -24.5t12 -35t30 -34.5t51 -14q29 0 51.5 10.5t33 24.5t17 31.5t8 27t1.5 14.5zM500 -1h-65v67q-24 -33 -68.5 -55t-98.5 -22q-97 0 -160.5 73t-63.5 180q0 118 78.5 185t187.5 67
q107 0 190 -61v-434zM435 134v266q-20 14 -56 24.5t-73 10.5q-85 0 -139 -57t-54 -144q0 -85 50.5 -136.5t117.5 -51.5q50 0 92.5 27.5t61.5 60.5z" />
    <glyph glyph-name="aogonek.alt" horiz-adv-x="573" 
d="M537 -152v-58q-32 -15 -79 -15q-52 0 -88.5 22.5t-36.5 69.5q0 77 102 134v65q-24 -33 -68.5 -55t-98.5 -22q-97 0 -160.5 73t-63.5 180q0 118 78.5 185t187.5 67q107 0 190 -61v-437q-23 -12 -37 -20.5t-31.5 -22.5t-25.5 -32t-8 -39q0 -25 19.5 -38.5t49.5 -13.5
q25 0 70 18zM435 134v266q-20 14 -56 24.5t-73 10.5q-85 0 -139 -57t-54 -144q0 -85 50.5 -136.5t117.5 -51.5q50 0 92.5 27.5t61.5 60.5z" />
    <glyph glyph-name="atilde.alt" horiz-adv-x="573" 
d="M439 686l24 -37q-9 -12 -22 -24.5t-37 -26t-47 -13.5q-19 0 -58 22.5t-60 22.5q-32 0 -81 -46l-29 36q20 22 53 44t61 22q23 0 62 -23t55 -23q37 0 79 46zM500 -1h-65v67q-24 -33 -68.5 -55t-98.5 -22q-97 0 -160.5 73t-63.5 180q0 118 78.5 185t187.5 67q107 0 190 -61
v-434zM435 134v266q-20 14 -56 24.5t-73 10.5q-85 0 -139 -57t-54 -144q0 -85 50.5 -136.5t117.5 -51.5q50 0 92.5 27.5t61.5 60.5z" />
    <glyph glyph-name="aring.alt" horiz-adv-x="573" 
d="M399 690q0 -45 -32 -76.5t-78 -31.5t-78 31.5t-32 76.5q0 46 32 77.5t78 31.5q45 0 77.5 -32.5t32.5 -76.5zM290 626q26 0 45 19.5t19 45.5q0 27 -19 46t-45 19t-45 -19t-19 -46q0 -26 19 -45.5t45 -19.5zM500 -1h-65v67q-24 -33 -68.5 -55t-98.5 -22q-97 0 -160.5 73
t-63.5 180q0 118 78.5 185t187.5 67q107 0 190 -61v-434zM435 134v266q-20 14 -56 24.5t-73 10.5q-85 0 -139 -57t-54 -144q0 -85 50.5 -136.5t117.5 -51.5q50 0 92.5 27.5t61.5 60.5z" />
    <glyph glyph-name="acircumflex.alt" horiz-adv-x="573" 
d="M449 618l-37 -36l-123 96l-122 -96l-38 36l160 134h1zM500 -1h-65v67q-24 -33 -68.5 -55t-98.5 -22q-97 0 -160.5 73t-63.5 180q0 118 78.5 185t187.5 67q107 0 190 -61v-434zM435 134v266q-20 14 -56 24.5t-73 10.5q-85 0 -139 -57t-54 -144q0 -85 50.5 -136.5
t117.5 -51.5q50 0 92.5 27.5t61.5 60.5z" />
    <glyph glyph-name="adieresis.alt" horiz-adv-x="573" 
d="M220 635q0 -19 -14 -32t-34 -13q-19 0 -33 13t-14 32t14 33t33 14q20 0 34 -13.5t14 -33.5zM446 635q0 -19 -13.5 -32t-35.5 -13q-19 0 -32 13t-13 32q0 20 13 33.5t32 13.5q22 0 35.5 -13.5t13.5 -33.5zM500 -1h-65v67q-24 -33 -68.5 -55t-98.5 -22q-97 0 -160.5 73
t-63.5 180q0 118 78.5 185t187.5 67q107 0 190 -61v-434zM435 134v266q-20 14 -56 24.5t-73 10.5q-85 0 -139 -57t-54 -144q0 -85 50.5 -136.5t117.5 -51.5q50 0 92.5 27.5t61.5 60.5z" />
    <glyph glyph-name="agrave.alt" horiz-adv-x="573" 
d="M353 610l-39 -27l-154 145l60 45zM500 -1h-65v67q-24 -33 -68.5 -55t-98.5 -22q-97 0 -160.5 73t-63.5 180q0 118 78.5 185t187.5 67q107 0 190 -61v-434zM435 134v266q-20 14 -56 24.5t-73 10.5q-85 0 -139 -57t-54 -144q0 -85 50.5 -136.5t117.5 -51.5q50 0 92.5 27.5
t61.5 60.5z" />
    <glyph glyph-name="aacute.alt" horiz-adv-x="573" 
d="M402 728l-155 -145l-38 27l133 163zM500 -1h-65v67q-24 -33 -68.5 -55t-98.5 -22q-97 0 -160.5 73t-63.5 180q0 118 78.5 185t187.5 67q107 0 190 -61v-434zM435 134v266q-20 14 -56 24.5t-73 10.5q-85 0 -139 -57t-54 -144q0 -85 50.5 -136.5t117.5 -51.5
q50 0 92.5 27.5t61.5 60.5z" />
    <glyph glyph-name="Atilde.semp" horiz-adv-x="692" 
d="M495 943l31 -46q-21 -23 -54.5 -45t-65.5 -22q-20 0 -61.5 24t-64.5 24q-32 0 -87 -49l-31 41q20 22 56.5 45t65.5 23q25 0 66.5 -24t58.5 -24q24 0 48 18t38 35zM698 0h-78l-69 156h-412l-68 -156h-77l353 778zM523 221l-177 402l-178 -402h355z" />
    <glyph glyph-name="Aogonek.semp" horiz-adv-x="693" 
d="M724 -152v-58q-31 -15 -79 -15q-52 0 -88.5 22.5t-36.5 69.5q0 76 100 133l-69 156h-412l-68 -156h-77l353 778l354 -783q-55 -25 -85.5 -51t-30.5 -62q0 -25 19.5 -38.5t49.5 -13.5q25 0 70 18zM523 221l-177 402l-178 -402h355z" />
    <glyph glyph-name="Abreve.semp" horiz-adv-x="692" 
d="M452 976h67q-3 -63 -48.5 -114t-128.5 -51q-66 0 -113.5 43.5t-53.5 121.5h70q0 -10 3 -24.5t12 -35t30 -34.5t51 -14q29 0 51.5 10.5t33 24.5t17 31.5t8 27t1.5 14.5zM698 0h-78l-69 156h-412l-68 -156h-77l353 778zM523 221l-177 402l-178 -402h355z" />
    <glyph glyph-name="Jcircumflex.alt" horiz-adv-x="272" 
d="M-22 -277l-26 65q93 35 120.5 87.5t27.5 181.5v700h72v-709q0 -105 -21 -166.5t-59 -93.5t-114 -65zM287 812l-152 67l-156 -68l-28 37l184 102h1l185 -103z" />
    <glyph glyph-name="Jcircumflex.semp" horiz-adv-x="458" 
d="M291 216v476h-177v64h249v-553q0 -104 -55.5 -159.5t-141.5 -55.5q-70 0 -146 42l28 60q69 -38 119 -38q59 0 91.5 42.5t32.5 121.5zM398 809l-152 67l-157 -68l-28 37l185 102h1l185 -103z" />
    <glyph glyph-name="Jcircumflex.semp2" horiz-adv-x="448" 
d="M281 216v541h72v-554q0 -104 -55.5 -159.5t-141.5 -55.5q-61 0 -126 34l28 61q52 -31 100 -31q59 0 91 43t32 121zM466 809l-152 67l-157 -68l-28 37l185 102h1l185 -103z" />
    <glyph glyph-name="Amacron.semp" horiz-adv-x="692" 
d="M532 867h-373v58h373v-58zM698 0h-78l-69 156h-412l-68 -156h-77l353 778zM523 221l-177 402l-178 -402h355z" />
    <glyph glyph-name="Ygrave.alt" horiz-adv-x="561" 
d="M316 0h-72v327l-250 430h80l203 -355q4 -11 5 -19q1 11 6 19l204 355h79l-255 -430v-327zM396 838l-258 45l26 66l250 -64z" />
    <glyph glyph-name="Yacute.alt" horiz-adv-x="561" 
d="M316 0h-72v327l-250 430h80l203 -355q4 -11 5 -19q1 11 6 19l204 355h79l-255 -430v-327zM424 883l-258 -45l-18 47l250 64z" />
    <glyph glyph-name="IJ.alt" horiz-adv-x="544" 
d="M172 0h-72v757h72v-757zM249 -277l-26 65q93 34 121 87t28 182v700h72v-709q0 -105 -21 -166.5t-59.5 -93.5t-114.5 -65z" />
    <glyph glyph-name="IJ.semp" horiz-adv-x="729" 
d="M172 0h-72v757h72v-757zM563 216v476h-177v64h249v-553q0 -104 -55.5 -159.5t-141.5 -55.5q-70 0 -146 42l28 60q69 -38 119 -38q59 0 91.5 42.5t32.5 121.5z" />
    <glyph glyph-name="IJ.semp2" horiz-adv-x="719" 
d="M172 0h-72v757h72v-757zM553 216v541h72v-554q0 -104 -55.5 -159.5t-141.5 -55.5q-61 0 -126 34l28 61q52 -31 100 -31q59 0 91 43t32 121z" />
    <glyph glyph-name="napostrophe.alt" horiz-adv-x="699" 
d="M111 467h-73l87 190h79zM628 0h-66v294q0 72 -37.5 106.5t-102.5 34.5q-80 0 -133 -40v-395h-66v431q88 63 202 63q92 0 147.5 -47.5t55.5 -137.5v-309z" />
    <glyph glyph-name="ntilde.alt" horiz-adv-x="548" 
d="M417 690l24 -37q-9 -12 -22 -24.5t-37 -26t-47 -13.5q-19 0 -58 22.5t-60 22.5q-32 0 -81 -46l-29 36q20 22 53 44t61 22q23 0 62 -23t55 -23q37 0 79 46zM477 0h-66v294q0 72 -37.5 106.5t-102.5 34.5q-80 0 -133 -40v-395h-66v431q88 63 202 63q92 0 147.5 -47.5
t55.5 -137.5v-309z" />
    <glyph glyph-name="ncommaaccent.alt" 
d="M234 -232h-73l87 190h79zM478 0h-66v294q0 72 -37.5 106.5t-102.5 34.5q-80 0 -133 -40v-395h-66v431q88 63 202 63q92 0 147.5 -47.5t55.5 -137.5v-309z" />
    <glyph glyph-name="ncaron.alt" horiz-adv-x="548" 
d="M427 712l-159 -134l-160 134l37 37l122 -96l123 96zM477 0h-66v294q0 72 -37.5 106.5t-102.5 34.5q-80 0 -133 -40v-395h-66v431q88 63 202 63q92 0 147.5 -47.5t55.5 -137.5v-309z" />
    <glyph glyph-name="nacute.alt" horiz-adv-x="548" 
d="M393 728l-155 -145l-38 27l133 163zM477 0h-66v294q0 72 -37.5 106.5t-102.5 34.5q-80 0 -133 -40v-395h-66v431q88 63 202 63q92 0 147.5 -47.5t55.5 -137.5v-309z" />
    <glyph glyph-name="uni1E41.alt" horiz-adv-x="831" 
d="M462 630q0 -19 -13.5 -32.5t-34.5 -13.5q-19 0 -33 13.5t-14 32.5q0 20 14 34.5t33 14.5q21 0 34.5 -14t13.5 -35zM760 0h-66v294q0 74 -27.5 107.5t-89.5 33.5q-82 0 -139 -48q11 -35 11 -78v-309h-66v294q0 74 -27.5 107.5t-89.5 33.5q-75 0 -128 -40v-395h-66v431
q88 63 197 63q91 0 136 -49q81 49 175 49q180 0 180 -185v-309z" />
    <glyph glyph-name="jcircumflex.semp" horiz-adv-x="224" 
d="M145 -250l-66 -15v746h66v-731zM258 618l-37 -36l-113 96l-111 -96l-38 36l149 134h1z" />
    <glyph glyph-name="dotlessj.semp" horiz-adv-x="224" 
d="M145 -250l-66 -15v746h66v-731z" />
    <glyph glyph-name="ldot.sc" horiz-adv-x="446" 
d="M392 276q0 -18 -14.5 -31.5t-34.5 -13.5q-19 0 -32.5 13.5t-13.5 31.5q0 20 13.5 33.5t32.5 13.5q20 0 34.5 -13.5t14.5 -33.5zM396 1h-309v527h69v-465l240 1v-63z" />
    <glyph glyph-name="lcommaaccent.sc" horiz-adv-x="424" 
d="M211 -232h-73l87 190h79zM396 1h-309v527h69v-465l240 1v-63z" />
    <glyph glyph-name="lcaron.sc" horiz-adv-x="432" 
d="M329 350h-59l66 200h79zM396 1h-309v527h69v-465l240 1v-63z" />
    <glyph glyph-name="lacute.sc" horiz-adv-x="423" 
d="M264 748l-155 -145l-38 27l133 163zM396 1h-309v527h69v-465l240 1v-63z" />
    <glyph glyph-name="jcircumflex.sc.semp" horiz-adv-x="370" 
d="M351 640l-37 -36l-123 96l-122 -96l-37 36l160 134zM231 221v244h-147v62h216v-342q0 -104 -40 -150.5t-124 -46.5q-71 0 -123 38l19 58q49 -35 95 -35q61 0 82.5 40.5t21.5 131.5z" />
    <glyph glyph-name="itilde.sc" horiz-adv-x="243" 
d="M156 0h-69v528h69v-528zM265 707l24 -37q-14 -20 -43.5 -42t-62.5 -22q-19 0 -58 22.5t-60 22.5q-34 0 -80 -46l-29 36q21 23 53 44.5t60 21.5q23 0 62 -23t55 -23q37 0 79 46z" />
    <glyph glyph-name="ibreve.sc" horiz-adv-x="243" 
d="M156 0h-69v528h69v-528zM214 734h58q-3 -54 -42.5 -99t-111.5 -45q-58 0 -99 38t-46 106h60q0 -9 3 -21.5t10.5 -30.5t26 -30t44.5 -12t45 9.5t28.5 21.5t15.5 27t7 23t1 13z" />
    <glyph glyph-name="iogonek.sc" horiz-adv-x="243" 
d="M190 -152v-58q-31 -15 -79 -15q-52 0 -88 22.5t-36 69.5q0 78 100 134v527h69v-532q-49 -25 -77 -51t-28 -63q0 -25 19.5 -38.5t49.5 -13.5q25 0 70 18z" />
    <glyph glyph-name="imacron.sc" horiz-adv-x="243" 
d="M156 0h-69v528h69v-528zM293 596h-342v58h342v-58z" />
    <glyph glyph-name="idotaccent.sc" horiz-adv-x="243" 
d="M156 0h-69v528h69v-528zM170 630q0 -19 -13.5 -32.5t-34.5 -13.5q-19 0 -33 13.5t-14 32.5q0 20 14 34.5t33 14.5q21 0 34.5 -14t13.5 -35z" />
    <glyph glyph-name="igrave.sc" horiz-adv-x="243" 
d="M156 0h-69v528h69v-528zM160 612l-39 -27l-111 147l61 45z" />
    <glyph glyph-name="idieresis.sc" horiz-adv-x="243" 
d="M88 632q0 -19 -14 -32t-34 -13q-19 0 -32 13t-13 32q0 20 13 33.5t32 13.5q20 0 34 -13.5t14 -33.5zM259 632q0 -19 -13.5 -32t-34.5 -13q-20 0 -33 13t-13 32q0 20 13 33.5t33 13.5q21 0 34.5 -13.5t13.5 -33.5zM156 0h-69v528h69v-528z" />
    <glyph glyph-name="nacute.sc" horiz-adv-x="666" 
d="M579 -18l-426 403l2 -385h-69l1 543l426 -405l-2 390h69zM454 748l-155 -145l-38 27l133 163z" />
    <glyph glyph-name="ncaron.sc" horiz-adv-x="666" 
d="M579 -18l-426 403l2 -385h-69l1 543l426 -405l-2 390h69zM493 738l-159 -134l-160 134l37 36l122 -96l123 96z" />
    <glyph glyph-name="ncommaaccent.sc" horiz-adv-x="666" 
d="M579 -18l-426 403l2 -385h-69l1 543l426 -405l-2 390h69zM313 -232h-73l87 190h79z" />
    <glyph glyph-name="napostrophe.sc" horiz-adv-x="697" 
d="M610 -18l-426 403l2 -385h-69l1 543l426 -405l-2 390h69zM-7 489h-73l86 190h79z" />
    <glyph glyph-name="oacute.sc" horiz-adv-x="680" 
d="M629 262q0 -113 -83.5 -192.5t-204.5 -79.5q-124 0 -207 80t-83 194q0 115 83 195t207 80t206 -79t82 -198zM557 262q0 93 -62 154t-155 61q-95 0 -156.5 -60.5t-61.5 -151.5q0 -87 61.5 -150.5t152.5 -63.5q97 0 159 60.5t62 150.5zM470 748l-155 -145l-38 27l133 163z
" />
    <glyph glyph-name="ocircumflex.sc" horiz-adv-x="680" 
d="M629 262q0 -113 -83.5 -192.5t-204.5 -79.5q-124 0 -207 80t-83 194q0 115 83 195t207 80t206 -79t82 -198zM557 262q0 93 -62 154t-155 61q-95 0 -156.5 -60.5t-61.5 -151.5q0 -87 61.5 -150.5t152.5 -63.5q97 0 159 60.5t62 150.5zM499 640l-37 -36l-123 96l-122 -96
l-37 36l160 134z" />
    <glyph glyph-name="ograve.sc" horiz-adv-x="680" 
d="M629 262q0 -113 -83.5 -192.5t-204.5 -79.5q-124 0 -207 80t-83 194q0 115 83 195t207 80t206 -79t82 -198zM557 262q0 93 -62 154t-155 61q-95 0 -156.5 -60.5t-61.5 -151.5q0 -87 61.5 -150.5t152.5 -63.5q97 0 159 60.5t62 150.5zM406 630l-39 -27l-154 145l60 45z
" />
    <glyph glyph-name="icircumflex.sc" horiz-adv-x="243" 
d="M156 0h-69v528h69v-528zM206 609l-85 61l-91 -69l-28 38l118 108h1l119 -102z" />
    <glyph glyph-name="hbar.sc" horiz-adv-x="623" 
d="M529 0h-69v238h-296v-238h-69v390h-75v58h75v80h69v-80h296v80h69v-80h74v-58h-74v-390zM460 301v89h-296v-89h296z" />
    <glyph glyph-name="gdotaccent.sc" horiz-adv-x="654" 
d="M378 652q0 -18 -14.5 -31.5t-34.5 -13.5q-19 0 -32.5 13.5t-13.5 31.5q0 20 13.5 33.5t32.5 13.5q20 0 34.5 -13.5t14.5 -33.5zM542 206l-151 -1v62h223q-1 -137 -77.5 -207t-186.5 -70q-124 0 -211.5 79.5t-87.5 192.5q0 116 86 196.5t212 80.5q59 0 113 -19t72 -32
t26 -21l-36 -51q-5 6 -22 18.5t-59 27.5t-89 15q-105 0 -167 -61t-62 -155q0 -90 68.5 -150.5t154.5 -60.5q78 0 132.5 42.5t61.5 113.5z" />
    <glyph glyph-name="gcommaaccent.sc" horiz-adv-x="654" 
d="M336 -248h-73l87 190h79zM542 206l-151 -1v62h223q-1 -137 -77.5 -207t-186.5 -70q-124 0 -211.5 79.5t-87.5 192.5q0 116 86 196.5t212 80.5q59 0 113 -19t72 -32t26 -21l-36 -51q-5 6 -22 18.5t-59 27.5t-89 15q-105 0 -167 -61t-62 -155q0 -90 68.5 -150.5
t154.5 -60.5q78 0 132.5 42.5t61.5 113.5z" />
    <glyph glyph-name="ohungarumlaut.sc" horiz-adv-x="680" 
d="M629 262q0 -113 -83.5 -192.5t-204.5 -79.5q-124 0 -207 80t-83 194q0 115 83 195t207 80t206 -79t82 -198zM557 262q0 93 -62 154t-155 61q-95 0 -156.5 -60.5t-61.5 -151.5q0 -87 61.5 -150.5t152.5 -63.5q97 0 159 60.5t62 150.5zM367 713l-175 -115l-28 31l163 133z
M552 713l-175 -115l-28 31l163 133z" />
    <glyph glyph-name="omacron.sc" horiz-adv-x="680" 
d="M629 262q0 -113 -83.5 -192.5t-204.5 -79.5q-124 0 -207 80t-83 194q0 115 83 195t207 80t206 -79t82 -198zM557 262q0 93 -62 154t-155 61q-95 0 -156.5 -60.5t-61.5 -151.5q0 -87 61.5 -150.5t152.5 -63.5q97 0 159 60.5t62 150.5zM511 596h-343v58h343v-58z" />
    <glyph glyph-name="otilde.sc" horiz-adv-x="680" 
d="M629 262q0 -113 -83.5 -192.5t-204.5 -79.5q-124 0 -207 80t-83 194q0 115 83 195t207 80t206 -79t82 -198zM557 262q0 93 -62 154t-155 61q-95 0 -156.5 -60.5t-61.5 -151.5q0 -87 61.5 -150.5t152.5 -63.5q97 0 159 60.5t62 150.5zM483 707l24 -37q-14 -20 -43.5 -42
t-62.5 -22q-19 0 -58 22.5t-60 22.5q-32 0 -81 -46l-29 36q20 22 53 44t61 22q23 0 62 -23t55 -23q37 0 79 46z" />
    <glyph glyph-name="obreve.sc" horiz-adv-x="680" 
d="M629 262q0 -113 -83.5 -192.5t-204.5 -79.5q-124 0 -207 80t-83 194q0 115 83 195t207 80t206 -79t82 -198zM557 262q0 93 -62 154t-155 61q-95 0 -156.5 -60.5t-61.5 -151.5q0 -87 61.5 -150.5t152.5 -63.5q97 0 159 60.5t62 150.5zM431 734h58q-3 -54 -42.5 -99
t-111.5 -45q-58 0 -99.5 38t-46.5 106h61q0 -9 3 -21.5t10.5 -30.5t26 -30t44.5 -12t45 9.5t28.5 21.5t15.5 27t7 23t1 13z" />
    <glyph glyph-name="oslashacute.sc" horiz-adv-x="680" 
d="M212 -110l-54 22l47 107q-71 35 -112.5 100.5t-41.5 144.5q0 115 83 195t207 80q41 0 87 -12l44 100l56 -24l-43 -98q66 -35 105 -99.5t39 -143.5q0 -113 -83.5 -192.5t-204.5 -79.5q-38 0 -80 10zM231 78l171 391q-30 8 -62 8q-95 0 -156.5 -60.5t-61.5 -151.5
q0 -58 29.5 -108.5t79.5 -78.5zM458 444l-172 -388q27 -5 50 -5q97 0 159 60.5t62 150.5q0 58 -26.5 106t-72.5 76zM460 748l-155 -145l-38 27l133 163z" />
    <glyph glyph-name="rcaron.sc" horiz-adv-x="505" 
d="M390 738l-159 -134l-160 134l37 36l122 -96l123 96zM506 0h-102l-248 213v-213h-69v528h119q95 0 154.5 -37t59.5 -119q0 -71 -43 -115.5t-121 -56.5zM156 259h41q75 0 113 30t38 82q0 46 -33 70t-92 24h-67v-206z" />
    <glyph glyph-name="rcommaaccent.sc" horiz-adv-x="503" 
d="M239 -232h-73l87 190h79zM506 0h-102l-248 213v-213h-69v528h119q95 0 154.5 -37t59.5 -119q0 -71 -43 -115.5t-121 -56.5zM156 259h41q75 0 113 30t38 82q0 46 -33 70t-92 24h-67v-206z" />
    <glyph glyph-name="uni1E61.sc" horiz-adv-x="454" 
d="M37 66l39 47q54 -63 144 -63q48 0 80 23.5t32 62.5q0 37 -27 63.5t-65 43.5t-76.5 35t-65.5 49.5t-27 75.5q0 64 50 100.5t119 36.5q91 0 147 -56l-35 -48q-49 45 -111 45q-42 0 -69.5 -19.5t-27.5 -55.5q0 -32 27 -54t65.5 -38t77 -35t65.5 -55t27 -88q0 -58 -51 -102
t-137 -44q-57 0 -108 23.5t-73 52.5zM271 652q0 -18 -14.5 -31.5t-34.5 -13.5q-19 0 -32.5 13.5t-13.5 31.5q0 20 13.5 33.5t32.5 13.5q20 0 34.5 -13.5t14.5 -33.5z" />
    <glyph glyph-name="sacute.sc" horiz-adv-x="454" 
d="M37 66l39 47q54 -63 144 -63q48 0 80 23.5t32 62.5q0 37 -27 63.5t-65 43.5t-76.5 35t-65.5 49.5t-27 75.5q0 64 50 100.5t119 36.5q91 0 147 -56l-35 -48q-49 45 -111 45q-42 0 -69.5 -19.5t-27.5 -55.5q0 -32 27 -54t65.5 -38t77 -35t65.5 -55t27 -88q0 -58 -51 -102
t-137 -44q-57 0 -108 23.5t-73 52.5zM346 748l-155 -145l-38 27l133 163z" />
    <glyph glyph-name="scedilla.sc" horiz-adv-x="454" 
d="M37 66l39 47q54 -63 144 -63q48 0 80 23.5t32 62.5q0 37 -27 63.5t-65 43.5t-76.5 35t-65.5 49.5t-27 75.5q0 64 50 100.5t119 36.5q91 0 147 -56l-35 -48q-49 45 -111 45q-42 0 -69.5 -19.5t-27.5 -55.5q0 -32 27 -54t65.5 -38t77 -35t65.5 -55t27 -88q0 -58 -51 -102
t-137 -44q-57 0 -108 23.5t-73 52.5zM212 -202h-64l77 164h75z" />
    <glyph glyph-name="tcaron.sc" horiz-adv-x="466" 
d="M395 738l-159 -134l-160 134l37 36l122 -96l123 96zM268 0h-69v466l-172 -1v62h412v-62l-171 1v-466z" />
    <glyph glyph-name="uni1E6B.sc" horiz-adv-x="466" 
d="M280 652q0 -18 -14.5 -31.5t-34.5 -13.5q-19 0 -32.5 13.5t-13.5 31.5q0 20 13.5 33.5t32.5 13.5q20 0 34.5 -13.5t14.5 -33.5zM268 0h-69v466l-172 -1v62h412v-62l-171 1v-466z" />
    <glyph glyph-name="tbar.sc" horiz-adv-x="466" 
d="M268 0h-69v270h-117v58h117v138l-172 -1v62h412v-62l-171 1v-138h117v-58h-117v-270z" />
    <glyph glyph-name="uacute.sc" horiz-adv-x="597" 
d="M444 87v441h69v-467q-67 -71 -216 -71q-103 0 -159 51t-56 151v336h69v-298q0 -98 36 -138.5t123 -40.5q88 0 134 36zM415 748l-155 -145l-38 27l133 163z" />
    <glyph glyph-name="ucircumflex.sc" horiz-adv-x="597" 
d="M444 87v441h69v-468q-67 -70 -216 -70q-103 0 -159 51t-56 151v336h69v-298q0 -98 36 -138.5t123 -40.5q90 0 134 36zM459 640l-37 -36l-123 96l-122 -96l-37 36l160 134z" />
    <glyph glyph-name="udieresis.sc" horiz-adv-x="597" 
d="M444 87v441h69v-468q-67 -70 -216 -70q-103 0 -159 51t-56 151v336h69v-298q0 -98 36 -138.5t123 -40.5q90 0 134 36zM227 652q0 -18 -14.5 -31.5t-34.5 -13.5q-19 0 -32.5 13.5t-13.5 31.5q0 20 13.5 33.5t32.5 13.5q20 0 34.5 -13.5t14.5 -33.5zM452 652
q0 -19 -13.5 -32t-34.5 -13q-20 0 -33 13.5t-13 31.5q0 20 13 33.5t33 13.5q22 0 35 -13.5t13 -33.5z" />
    <glyph glyph-name="ugrave.sc" horiz-adv-x="597" 
d="M444 87v441h69v-467q-67 -71 -216 -71q-103 0 -159 51t-56 151v336h69v-298q0 -98 36 -138.5t123 -40.5q88 0 134 36zM364 630l-39 -27l-154 145l60 45z" />
    <glyph glyph-name="uhungarumlaut.sc" horiz-adv-x="597" 
d="M444 87v441h69v-468q-67 -70 -216 -70q-103 0 -159 51t-56 151v336h69v-298q0 -98 36 -138.5t123 -40.5q90 0 134 36zM346 713l-175 -115l-28 31l163 133zM531 713l-175 -115l-28 31l163 133z" />
    <glyph glyph-name="umacron.sc" horiz-adv-x="597" 
d="M444 87v441h69v-468q-67 -70 -216 -70q-103 0 -159 51t-56 151v336h69v-298q0 -98 36 -138.5t123 -40.5q90 0 134 36zM471 596h-343v58h343v-58z" />
    <glyph glyph-name="uring.sc" horiz-adv-x="597" 
d="M444 87v441h69v-468q-67 -70 -216 -70q-103 0 -159 51t-56 151v336h69v-298q0 -98 36 -138.5t123 -40.5q90 0 134 36zM409 698q0 -45 -32 -76.5t-78 -31.5t-78 31.5t-32 76.5q0 46 32 77.5t78 31.5q45 0 77.5 -32.5t32.5 -76.5zM300 634q26 0 45 19.5t19 45.5
q0 27 -19 46t-45 19t-45 -19t-19 -46q0 -26 19 -45.5t45 -19.5z" />
    <glyph glyph-name="ecaron.sc" horiz-adv-x="462" 
d="M403 738l-159 -134l-160 134l37 36l122 -96l123 96zM417 1h-330v526h307v-63l-238 1v-153h191v-63l-191 1v-187l261 1v-63z" />
    <glyph glyph-name="edotaccent.sc" horiz-adv-x="462" 
d="M291 652q0 -18 -14.5 -31.5t-34.5 -13.5q-19 0 -32.5 13.5t-13.5 31.5q0 20 13.5 33.5t32.5 13.5q20 0 34.5 -13.5t14.5 -33.5zM417 1h-330v526h307v-63l-238 1v-153h191v-63l-191 1v-187l261 1v-63z" />
    <glyph glyph-name="emacron.sc" horiz-adv-x="462" 
d="M411 596h-343v58h343v-58zM417 1h-330v526h307v-63l-238 1v-153h191v-63l-191 1v-187l261 1v-63z" />
    <glyph glyph-name="eogonek.sc" horiz-adv-x="462" 
d="M407 -152v-58q-31 -15 -79 -15q-52 0 -88.5 22.5t-36.5 69.5q0 78 101 134h-217v526h307v-63l-238 1v-153h191v-63l-191 1v-187l261 1v-63h-50q-99 -56 -99 -119q0 -25 19.5 -38.5t49.5 -13.5q25 0 70 18z" />
    <glyph glyph-name="gcircumflex.sc" horiz-adv-x="654" 
d="M490 640l-37 -36l-123 96l-122 -96l-37 36l160 134zM542 206l-151 -1v62h223q-1 -137 -77.5 -207t-186.5 -70q-124 0 -211.5 79.5t-87.5 192.5q0 116 86 196.5t212 80.5q59 0 113 -19t72 -32t26 -21l-36 -51q-5 6 -22 18.5t-59 27.5t-89 15q-105 0 -167 -61t-62 -155
q0 -90 68.5 -150.5t154.5 -60.5q78 0 132.5 42.5t61.5 113.5z" />
    <glyph glyph-name="utilde.sc" horiz-adv-x="597" 
d="M444 87v441h69v-468q-67 -70 -216 -70q-103 0 -159 51t-56 151v336h69v-298q0 -98 36 -138.5t123 -40.5q90 0 134 36zM442 707l24 -37q-14 -20 -43.5 -42t-62.5 -22q-19 0 -58 22.5t-60 22.5q-32 0 -81 -46l-29 36q20 22 53 44t61 22q22 0 61 -23t56 -23q37 0 79 46z" />
    <glyph glyph-name="ubreve.sc" horiz-adv-x="597" 
d="M444 87v441h69v-468q-67 -70 -216 -70q-103 0 -159 51t-56 151v336h69v-298q0 -98 36 -138.5t123 -40.5q90 0 134 36zM391 734h58q-3 -54 -42.5 -99t-111.5 -45q-58 0 -99.5 38t-46.5 106h61q0 -9 3 -21.5t10.5 -30.5t26 -30t44.5 -12t45 9.5t28.5 21.5t15.5 27t7 23
t1 13z" />
    <glyph glyph-name="wgrave.sc" horiz-adv-x="796" 
d="M579 -23l-181 409l-179 -407l-207 549h75l137 -374q2 -5 4 -26q2 17 5 26l166 392l167 -392q5 -12 6 -26q0 17 4 26l133 374h73zM487 630l-39 -27l-154 145l60 45z" />
    <glyph glyph-name="wacute.sc" horiz-adv-x="796" 
d="M579 -23l-181 409l-179 -407l-207 549h75l137 -374q2 -5 4 -26q2 17 5 26l166 392l167 -392q5 -12 6 -26q0 17 4 26l133 374h73zM507 748l-155 -145l-38 27l133 163z" />
    <glyph glyph-name="wdieresis.sc" horiz-adv-x="796" 
d="M579 -23l-181 409l-179 -407l-207 549h75l137 -374q2 -5 4 -26q2 17 5 26l166 392l167 -392q5 -13 6 -24q0 15 4 24l133 374h73zM561 652q0 -19 -13.5 -32t-34.5 -13q-20 0 -33 13.5t-13 31.5q0 20 13 33.5t33 13.5q21 0 34.5 -13.5t13.5 -33.5zM336 652
q0 -18 -14.5 -31.5t-34.5 -13.5q-19 0 -32.5 13.5t-13.5 31.5q0 20 13.5 33.5t32.5 13.5q20 0 34.5 -13.5t14.5 -33.5z" />
    <glyph glyph-name="ycircumflex.sc" horiz-adv-x="472" 
d="M270 0h-69v226l-193 302h81l146 -241l151 241h80l-197 -302zM396 640l-37 -36l-123 96l-122 -96l-37 36l160 134z" />
    <glyph glyph-name="yacute.sc" horiz-adv-x="472" 
d="M383 734l-155 -145l-38 27l133 163zM270 0h-69v226l-193 302h81l146 -241l151 241h80l-197 -302z" />
    <glyph glyph-name="ydieresis.sc" horiz-adv-x="472" 
d="M165 637q0 -18 -13.5 -31t-33.5 -13q-18 0 -31 13.5t-13 30.5q0 20 13 33.5t31 13.5q20 0 33.5 -13.5t13.5 -33.5zM408 637q0 -18 -13 -31t-34 -13q-18 0 -30.5 13t-12.5 31q0 20 12 33.5t31 13.5q21 0 34 -13t13 -34zM270 0h-69v226l-193 302h83l144 -239l149 239h82
l-197 -302z" />
    <glyph glyph-name="zacute.sc" horiz-adv-x="504" 
d="M391 748l-155 -145l-38 27l133 163zM460 1h-445l327 464l-260 -1v63h379l-327 -464l326 1v-63z" />
    <glyph glyph-name="zdotaccent.sc" horiz-adv-x="504" 
d="M309 652q0 -18 -14.5 -31.5t-34.5 -13.5q-19 0 -32.5 13.5t-13.5 31.5q0 20 13.5 33.5t32.5 13.5q20 0 34.5 -13.5t14.5 -33.5zM460 1h-445l327 464l-260 -1v63h379l-327 -464l326 1v-63z" />
    <glyph glyph-name="ae.sc" horiz-adv-x="738" 
d="M693 1h-330v126h-193l-84 -127h-86l360 526l310 1v-63l-238 1v-153h191v-63l-191 1v-187l261 1v-63zM363 190v238l-154 -238h154z" />
    <glyph glyph-name="aeacute.sc" horiz-adv-x="738" 
d="M630 748l-155 -145l-38 27l133 163zM693 1h-330v126h-193l-84 -127h-86l360 526l310 1v-63l-238 1v-153h191v-63l-191 1v-187l261 1v-63zM363 190v238l-154 -238h154z" />
    <glyph glyph-name="ij.sc" horiz-adv-x="486" 
d="M156 0h-69v528h69v-528zM240 -181l-25 59q71 24 93 58.5t22 124.5v467h69v-471q0 -109 -32.5 -155.5t-126.5 -82.5z" />
    <glyph glyph-name="eng.sc" horiz-adv-x="666" 
d="M420 -181l-25 59q68 24 91 56t24 112l-357 339l2 -385h-69l1 543l423 -402v387h69v-471q0 -109 -32.5 -155.5t-126.5 -82.5z" />
    <glyph glyph-name="oe.sc" horiz-adv-x="933" 
d="M888 1h-330v101q-37 -54 -94.5 -83t-122.5 -29q-124 0 -207 80t-83 194q0 115 83 195t207 80q149 0 217 -112v100h307v-63l-238 1v-154l191 1v-63l-191 1v-187l261 1v-63zM557 262q0 93 -62 154t-155 61q-95 0 -156.5 -60.5t-61.5 -151.5q0 -87 61.5 -150.5t152.5 -63.5
q97 0 159 60.5t62 150.5z" />
    <glyph glyph-name="ff.sc" horiz-adv-x="846" 
d="M579 0h-69v527h300v-62l-231 1v-159l187 1v-63h-187v-245zM156 0h-69v527h300v-62l-231 1v-159l187 1v-63h-187v-245z" />
    <glyph glyph-name="f_j.sc" horiz-adv-x="666" 
d="M420 -181l-25 59q71 24 93 58.5t22 124.5v467h69v-471q0 -109 -32.5 -155.5t-126.5 -82.5zM156 0h-69v527h300v-62l-231 1v-159l187 1v-63h-187v-245z" />
    <glyph glyph-name="fl.sc" horiz-adv-x="846" 
d="M156 0h-69v527h300v-62l-231 1v-159l187 1v-63h-187v-245zM819 1h-309v527h69v-465l240 1v-63z" />
    <glyph glyph-name="f_t.sc" horiz-adv-x="889" 
d="M156 0h-69v527h300v-62l-231 1v-159l187 1v-63h-187v-245zM691 0h-69v466l-172 -1v62h412v-62l-171 1v-466z" />
    <glyph glyph-name="ffi.sc" horiz-adv-x="1089" 
d="M1002 0h-69v528h69v-528zM579 0h-69v527h300v-62l-231 1v-159l187 1v-63h-187v-245zM156 0h-69v527h300v-62l-231 1v-159l187 1v-63h-187v-245z" />
    <glyph glyph-name="ffl.sc" horiz-adv-x="1269" 
d="M579 0h-69v527h300v-62l-231 1v-159l187 1v-63h-187v-245zM156 0h-69v527h300v-62l-231 1v-159l187 1v-63h-187v-245zM1242 1h-309v527h69v-465l240 1v-63z" />
    <glyph glyph-name="egrave.sc" horiz-adv-x="462" 
d="M305 630l-39 -27l-154 145l60 45zM417 1h-330v526h307v-63l-238 1v-153h191v-63l-191 1v-187l261 1v-63z" />
    <glyph glyph-name="edieresis.sc" horiz-adv-x="462" 
d="M176 652q0 -18 -14.5 -31.5t-34.5 -13.5q-19 0 -32.5 13.5t-13.5 31.5q0 20 13.5 33.5t32.5 13.5q20 0 34.5 -13.5t14.5 -33.5zM401 652q0 -19 -13.5 -32t-34.5 -13q-20 0 -33 13.5t-13 31.5q0 20 13 33.5t33 13.5q21 0 34.5 -13.5t13.5 -33.5zM417 1h-330v526h307v-63
l-238 1v-153h191v-63l-191 1v-187l261 1v-63z" />
    <glyph glyph-name="ecircumflex.sc" horiz-adv-x="462" 
d="M398 640l-37 -36l-123 96l-122 -96l-37 36l160 134zM417 1h-330v526h307v-63l-238 1v-153h191v-63l-191 1v-187l261 1v-63z" />
    <glyph glyph-name="tcaron.alt" horiz-adv-x="314" 
d="M290 575h-54l68 197h73zM281 43l-35 -52q-69 0 -105 32t-36 118v281h-86v58h86v172h66v-172h119v-58h-119v-269q0 -67 26.5 -88t83.5 -22z" />
    <glyph glyph-name="tcaron.alt2" horiz-adv-x="330" 
d="M317 575h-54l68 197h73zM198 0h-66v423h-117v57h117v172h66v-172h117v-57h-117v-423z" />
    <glyph glyph-name="tcaron.semp" horiz-adv-x="297" 
d="M280 575h-54l68 197h73zM141 0h-66v659h66v-179h142v-57h-142v-423z" />
    <glyph glyph-name="tcommaaccent.alt2" horiz-adv-x="328" 
d="M149 -232h-73l87 190h79zM197 0h-66v423h-117v57h117v172h66v-172h117v-57h-117v-423z" />
    <glyph glyph-name="tcommaaccent.semp" horiz-adv-x="295" 
d="M93 -232h-73l87 190h79zM141 0h-66v659h66v-179h142v-57h-142v-423z" />
    </font>
</defs>
</svg>
