<?xml version="1.0" standalone="no"?>
<!DOCTYPE svg PUBLIC "-//W3C//DTD SVG 1.1//EN" "http://www.w3.org/Graphics/SVG/1.1/DTD/svg11.dtd" >
<svg xmlns="http://www.w3.org/2000/svg" xmlns:xlink="http://www.w3.org/1999/xlink" version="1.1">
<metadata>
Created by FontForge 20201107 at Tue Sep  4 00:11:56 2012
 By 
Copyright (c) 2011 Canada Type. Designed by Patrick Griffin &#38; Bill Troop. All rights reserved. 
</metadata>
<defs>
<font id="SemplicitaPro-SemiBold" horiz-adv-x="600" >
  <font-face 
    font-family="Semplicita Pro SemiBold"
    font-weight="600"
    font-stretch="normal"
    units-per-em="1000"
    panose-1="0 0 0 0 0 0 0 0 0 0"
    ascent="800"
    descent="-200"
    x-height="504"
    cap-height="757"
    bbox="-165 -333 1347 1108"
    underline-thickness="50"
    underline-position="-249"
    unicode-range="U+0020-FB04"
  />
<missing-glyph horiz-adv-x="601" 
d="M556 0h-511v758h511v-758zM465 87v584h-329v-584h329z" />
    <glyph glyph-name=".notdef" horiz-adv-x="601" 
d="M556 0h-511v758h511v-758zM465 87v584h-329v-584h329z" />
    <glyph glyph-name=".null" horiz-adv-x="0" 
 />
    <glyph glyph-name="nonmarkingreturn" horiz-adv-x="333" 
 />
    <glyph glyph-name="space" unicode=" " horiz-adv-x="240" 
 />
    <glyph glyph-name="exclam" unicode="!" horiz-adv-x="279" 
d="M188 219h-96l-21 538h136zM139 -13q-30 0 -52 22.5t-22 50.5q0 31 21.5 53t52.5 22q32 0 53 -22t21 -53q0 -29 -21.5 -51t-52.5 -22z" />
    <glyph glyph-name="quotedbl" unicode="&#x22;" horiz-adv-x="449" 
d="M175 461h-98l-19 300h136zM372 461h-97l-19 300h135z" />
    <glyph glyph-name="numbersign" unicode="#" horiz-adv-x="665" 
d="M442 -6l-97 12l26 213h-112l-29 -225l-97 12l26 213h-105l2 98h115l13 100h-105l2 97h115l27 217l99 -8l-26 -209h112l27 217l100 -8l-27 -209h104l-1 -97h-115l-13 -100h103l-1 -98h-114zM383 317l13 100h-112l-13 -100h112z" />
    <glyph glyph-name="dollar" unicode="$" horiz-adv-x="604" 
d="M279 -124l-88 4l19 116q-54 12 -98 38.5t-69 52.5l67 92q50 -50 118 -70l37 229q-83 40 -129 86.5t-46 119.5q0 91 70 145.5t162 54.5h9l19 115l88 -4l-21 -129q66 -25 105 -68l-62 -95q-31 29 -62 47l-29 -180q94 -48 135.5 -99t41.5 -124q0 -107 -73.5 -163t-175.5 -58
zM347 295l-31 -194q45 4 69.5 29t24.5 65q0 59 -63 100zM287 469l26 160q-37 -3 -63 -23.5t-26 -55.5q0 -47 63 -81z" />
    <glyph glyph-name="percent" unicode="%" horiz-adv-x="787" 
d="M270 -25l-78 30l310 743l79 -32zM357 605q0 -65 -46 -110.5t-111 -45.5t-110.5 45.5t-45.5 110.5t45.5 111t110.5 46t111 -46t46 -111zM201 535q29 0 49 20.5t20 49.5t-20 50t-49 21t-49 -21t-20 -50t20 -49.5t49 -20.5zM743 145q0 -65 -46 -110t-112 -45q-65 0 -110 45
t-45 110q0 66 45 112t110 46q66 0 112 -46t46 -112zM586 74q30 0 49.5 20.5t19.5 50.5t-19.5 50.5t-49.5 20.5q-29 0 -48.5 -20.5t-19.5 -50.5t19.5 -50.5t48.5 -20.5z" />
    <glyph glyph-name="ampersand" unicode="&#x26;" horiz-adv-x="756" 
d="M775 0h-142l-92 112q-31 -47 -88.5 -85t-139.5 -38q-115 0 -194.5 79.5t-79.5 191.5q0 86 47.5 151.5t115.5 93.5q-15 23 -22 35t-13 31.5t-6 41.5q0 67 45.5 112t119.5 45q26 0 48.5 -5.5t41 -16t29 -18t23.5 -20t14 -13.5l-69 -71q-50 47 -91 47q-24 0 -42 -15t-18 -43
q0 -33 44 -85h270l-22 -95h-166zM475 188l-211 241q-14 -3 -31.5 -13.5t-39 -29t-36 -51t-14.5 -71.5q0 -78 53 -127.5t123 -49.5q59 0 100.5 34t55.5 67z" />
    <glyph glyph-name="quotesingle" unicode="'" horiz-adv-x="252" 
d="M175 461h-98l-19 300h136z" />
    <glyph glyph-name="parenleft" unicode="(" horiz-adv-x="279" 
d="M240 -224l-91 -37q-96 239 -96 539q0 310 95 558l93 -38q-31 -89 -56.5 -230t-25.5 -288q0 -220 81 -504z" />
    <glyph glyph-name="parenright" unicode=")" horiz-adv-x="279" 
d="M131 -261l-91 37q81 284 81 504q0 147 -25.5 288t-56.5 230l93 38q94 -243 94 -558q0 -306 -95 -539z" />
    <glyph glyph-name="plus" unicode="+" horiz-adv-x="674" 
d="M623 314h-227v-210h-118v210h-227v99h227v211h118v-211h227v-99z" />
    <glyph glyph-name="comma" unicode="," horiz-adv-x="272" 
d="M90 -109h-82l83 231h126z" />
    <glyph glyph-name="hyphen" unicode="-" horiz-adv-x="429" 
d="M350 196h-284l13 98h284z" />
    <glyph glyph-name="period" unicode="." horiz-adv-x="255" 
d="M127 -13q-29 0 -51.5 22.5t-22.5 50.5q0 31 22 52.5t52 21.5q32 0 53 -21.5t21 -52.5q0 -28 -21.5 -50.5t-52.5 -22.5z" />
    <glyph glyph-name="slash" unicode="/" horiz-adv-x="557" 
d="M118 -215l-85 30l406 1005l85 -37z" />
    <glyph glyph-name="zero" unicode="0" horiz-adv-x="680" 
d="M339 -15q-68 0 -119.5 25.5t-81 64.5t-47.5 93.5t-24 103t-6 102.5q0 53 5.5 101t24 103t47.5 94t80.5 65t119.5 26q69 0 121 -25t81.5 -63t48 -92t24.5 -103.5t6 -105.5q0 -45 -4.5 -86.5t-15.5 -87.5t-32 -83t-50.5 -67.5t-75 -47.5t-102.5 -17zM339 87q40 0 69.5 21.5
t45 51.5t24.5 72.5t11.5 74.5t2.5 67q0 48 -5.5 90t-20 90.5t-47.5 77.5t-81 29q-151 0 -151 -287q0 -44 5.5 -86t20 -91.5t47 -79.5t79.5 -30z" />
    <glyph glyph-name="one" unicode="1" horiz-adv-x="396" 
d="M302 -3h-124v619l-118 -53l-44 94l286 115v-775z" />
    <glyph glyph-name="two" unicode="2" horiz-adv-x="621" 
d="M570 0h-539v72q56 28 120 77t124.5 110.5t100 135.5t39.5 140q0 52 -32.5 89t-83.5 37q-88 0 -158 -82l-60 80q104 104 229 104q103 0 168.5 -65.5t65.5 -162.5q0 -59 -29 -123.5t-77.5 -122.5t-98 -104.5t-102.5 -86.5l333 6v-104z" />
    <glyph glyph-name="three" unicode="3" horiz-adv-x="568" 
d="M24 66l52 87q19 -23 66.5 -45t102.5 -22q71 0 109 39t38 94q0 66 -54.5 112.5t-137.5 46.5q-7 0 -13.5 -0.5t-9.5 -0.5v72q8 -1 22 -1q70 0 115 36t45 87q0 38 -27 62t-75 24q-70 0 -124 -36l-37 87q28 19 77 37t102 18q92 0 149 -56t57 -129q0 -103 -108 -160v-1
q69 -29 104 -88t35 -122q0 -92 -72.5 -157t-193.5 -65q-82 0 -139 26.5t-83 54.5z" />
    <glyph glyph-name="four" unicode="4" horiz-adv-x="656" 
d="M505 -4h-124v126h-357v73l405 588h76v-558h107v-103h-107v-126zM388 225v325l-222 -325h222z" />
    <glyph glyph-name="five" unicode="5" horiz-adv-x="578" 
d="M29 49l41 100q75 -59 163 -59q76 0 119 44t43 110q0 65 -42.5 108.5t-132.5 43.5q-59 0 -135 -24l100 376h322l-31 -101h-205l-47 -170q25 4 49 4q108 0 181 -67.5t73 -174.5q0 -104 -70.5 -179t-201.5 -75q-73 0 -132.5 20.5t-93.5 43.5z" />
    <glyph glyph-name="six" unicode="6" horiz-adv-x="635" 
d="M365 768l84 -75q-130 -130 -192 -232q47 16 94 16q99 0 167.5 -67.5t68.5 -176.5q0 -119 -80.5 -183t-190.5 -64q-107 0 -186.5 66.5t-79.5 177.5q0 98 75 234.5t240 303.5zM320 88q61 0 99.5 42t38.5 102t-39 104.5t-101 44.5t-102 -43.5t-40 -104.5q0 -62 42 -103.5
t102 -41.5z" />
    <glyph glyph-name="seven" unicode="7" horiz-adv-x="576" 
d="M184 -8h-138l347 650h-346v105h528z" />
    <glyph glyph-name="eight" unicode="8" horiz-adv-x="619" 
d="M444 379q46 -23 79 -66.5t33 -105.5q0 -92 -72.5 -157t-173.5 -65t-174.5 64t-73.5 153q0 61 34.5 106t79.5 70q-45 22 -76.5 68.5t-31.5 105.5q0 91 73 151.5t172 60.5q98 0 168 -61t70 -151q0 -60 -31 -106.5t-76 -66.5zM309 85q50 0 85.5 37t35.5 87t-35.5 86.5
t-85.5 36.5q-51 0 -87 -36t-36 -86q0 -51 36 -88t87 -37zM310 423q50 0 84 35t34 84t-34 84.5t-84 35.5t-85 -35t-35 -83t34.5 -84.5t85.5 -36.5z" />
    <glyph glyph-name="nine" unicode="9" horiz-adv-x="633" 
d="M272 -25l-85 75q142 160 189 237q-47 -16 -94 -16q-99 0 -167.5 67.5t-68.5 176.5q0 119 80.5 183.5t190.5 64.5q108 0 187 -62t79 -173q0 -211 -311 -553zM315 367q62 0 102 43.5t40 104.5q0 62 -42 103.5t-102 41.5q-61 0 -99.5 -42t-38.5 -102t39 -104.5t101 -44.5z
" />
    <glyph glyph-name="colon" unicode=":" horiz-adv-x="280" 
d="M140 -13q-29 0 -51.5 22.5t-22.5 50.5q0 31 22 53t52 22q31 0 52.5 -22t21.5 -53q0 -28 -21.5 -50.5t-52.5 -22.5zM214 386q0 -29 -21.5 -51t-52.5 -22q-30 0 -52 22.5t-22 50.5q0 31 22 53t52 22q31 0 52.5 -21.5t21.5 -53.5z" />
    <glyph glyph-name="semicolon" unicode=";" horiz-adv-x="294" 
d="M157 313q-29 0 -51.5 23t-22.5 51q0 31 22 52.5t52 21.5q32 0 53 -21.5t21 -52.5q0 -29 -21.5 -51.5t-52.5 -22.5zM93 -109h-82l83 231h127z" />
    <glyph glyph-name="less" unicode="&#x3c;" horiz-adv-x="645" 
d="M529 28l-484 309v68l485 289l54 -101l-385 -224l385 -243z" />
    <glyph glyph-name="equal" unicode="=" horiz-adv-x="728" 
d="M653 399h-578v102h578v-102zM653 190h-578v102h578v-102z" />
    <glyph glyph-name="greater" unicode="&#x3e;" horiz-adv-x="645" 
d="M600 335l-485 -289l-54 101l385 224l-385 243l54 98l485 -309v-68z" />
    <glyph glyph-name="question" unicode="?" horiz-adv-x="485" 
d="M376 381l59 -59q-24 -40 -79 -77t-120 -37q-69 0 -124 42t-55 111q0 21 6.5 41t14 33t24 28.5t24 22t27 20t22.5 15.5q31 22 49.5 37t35 36.5t16.5 40.5q0 18 -13.5 33t-40.5 15q-8 0 -16.5 -1.5t-17 -5t-14.5 -6t-13.5 -8t-11.5 -8t-10.5 -7.5t-7.5 -6l-46 65
q79 68 164 68q69 0 108 -42.5t39 -95.5q0 -48 -33.5 -87.5t-100.5 -87.5q-28 -20 -41.5 -31t-29 -31t-15.5 -39q0 -24 17 -42t49 -18q39 0 77 27t57 54zM229 -13q-30 0 -51.5 22.5t-21.5 52.5q0 29 21.5 50.5t51.5 21.5t51 -21.5t21 -50.5t-21.5 -52t-50.5 -23z" />
    <glyph glyph-name="at" unicode="@" horiz-adv-x="1026" 
d="M762 -88l33 -81q-125 -52 -247 -52q-133 0 -246.5 64t-179.5 174t-66 240q0 131 64.5 241t176.5 174t245 64q200 0 318 -116t118 -297q0 -58 -25 -117.5t-71 -111t-121.5 -84t-165.5 -32.5q-132 0 -201.5 59.5t-69.5 142.5q0 73 53.5 127.5t143.5 54.5q70 0 120 -39v35
q0 75 -107 75q-72 0 -131 -26l-35 74q97 46 175 46q199 0 199 -197v-160h-31q-20 40 -57.5 64t-67.5 30t-59 6q-51 0 -79 -24t-28 -59q0 -46 46.5 -81.5t129.5 -35.5q128 0 207.5 79t79.5 182q0 37 -10 76.5t-35 82t-62.5 75.5t-99 54.5t-137.5 21.5q-164 0 -276 -113.5
t-112 -282.5q0 -146 117 -259.5t277 -113.5q126 0 217 40z" />
    <glyph glyph-name="A" unicode="A" horiz-adv-x="747" 
d="M760 0h-143l-69 148h-351l-68 -148h-142l387 788zM495 264l-109 235q-12 23 -13 36q-1 -6 -15 -36l-108 -235h245z" />
    <glyph glyph-name="B" unicode="B" horiz-adv-x="642" 
d="M302 0h-217v757h179q81 0 141.5 -17t99.5 -59.5t39 -106.5q0 -113 -112 -163q69 -17 121.5 -65t52.5 -132q0 -97 -78 -155.5t-226 -58.5zM213 454h60q136 0 136 93q0 46 -33 70t-88 24h-75v-187zM213 116h112q72 0 108.5 30.5t36.5 80.5q0 53 -40 85t-109 32h-108v-228z
" />
    <glyph glyph-name="C" unicode="C" horiz-adv-x="762" 
d="M670 167l59 -83q-105 -100 -267 -100q-181 0 -300.5 115.5t-119.5 280.5q0 163 115 278.5t291 115.5q101 0 174 -36t102 -71l-68 -89q-82 80 -208 80q-123 0 -196.5 -81t-73.5 -194q0 -120 82 -202.5t208 -82.5q65 0 120.5 21.5t81.5 47.5z" />
    <glyph glyph-name="D" unicode="D" horiz-adv-x="760" 
d="M285 0h-200v757h219q177 0 293.5 -100t116.5 -279q0 -178 -116.5 -278t-312.5 -100zM213 116h89q122 0 199 65t77 200q0 117 -73 188.5t-188 71.5h-104v-525z" />
    <glyph glyph-name="E" unicode="E" horiz-adv-x="594" 
d="M555 1h-470v755h438v-116h-310v-180h250v-116h-250v-227h342v-116z" />
    <glyph glyph-name="F" unicode="F" horiz-adv-x="542" 
d="M213 0h-128v756h431v-116h-303v-184h245v-117h-245v-339z" />
    <glyph glyph-name="G" unicode="G" horiz-adv-x="850" 
d="M688 289h-194v109h328q-1 -107 -32.5 -189t-84.5 -130t-117 -72t-137 -24q-172 0 -290.5 114t-118.5 278q0 167 117.5 283t289.5 116q51 0 99.5 -10t80 -23.5t59 -30t37.5 -24.5t15 -13l-65 -96q-6 8 -28.5 24.5t-78 36.5t-117.5 20q-122 0 -197.5 -81t-75.5 -203
q0 -107 76.5 -191.5t197.5 -84.5q96 0 162.5 54t73.5 137z" />
    <glyph glyph-name="H" unicode="H" horiz-adv-x="784" 
d="M699 0h-128v328h-358v-328h-128v757h128v-313h358v313h128v-757z" />
    <glyph glyph-name="I" unicode="I" horiz-adv-x="298" 
d="M213 0h-128v757h128v-757z" />
    <glyph glyph-name="J" unicode="J" horiz-adv-x="298" 
d="M-27 -257l-46 109q67 23 99 48t45.5 70t13.5 129v658h128v-663q0 -108 -22.5 -171t-71.5 -102.5t-146 -77.5z" />
    <glyph glyph-name="K" unicode="K" horiz-adv-x="713" 
d="M734 0h-188l-333 306v-306h-128v757h128v-309l286 309h166l-364 -370z" />
    <glyph glyph-name="L" unicode="L" horiz-adv-x="546" 
d="M530 1h-445v756h128v-640h317v-116z" />
    <glyph glyph-name="M" unicode="M" horiz-adv-x="986" 
d="M937 0h-137l-38 377q-3 27 0 42q-7 -17 -22 -41l-247 -406l-247 406q-15 24 -22 41q3 -15 0 -42l-38 -377h-137l99 777l332 -548q11 -19 12 -29h1q1 8 13 29l332 548z" />
    <glyph glyph-name="N" unicode="N" horiz-adv-x="857" 
d="M772 -27l-562 506l2 -479h-128l1 778l562 -518l-2 497h128z" />
    <glyph glyph-name="O" unicode="O" horiz-adv-x="907" 
d="M865 375q0 -161 -121.5 -276t-288.5 -115q-172 0 -292.5 115.5t-120.5 278.5t120.5 279.5t292.5 116.5t291 -114.5t119 -284.5zM729 376q0 120 -80.5 201t-193.5 81q-115 0 -196 -80t-81 -196q0 -112 80 -198t190 -86q118 0 199.5 81t81.5 197z" />
    <glyph glyph-name="P" unicode="P" 
d="M213 0h-128v757h165q317 0 317 -242q0 -118 -75.5 -186.5t-223.5 -68.5h-55v-260zM213 376h52q81 0 124 38.5t43 101.5q0 58 -38 91t-109 33h-72v-264z" />
    <glyph glyph-name="Q" unicode="Q" horiz-adv-x="908" 
d="M795 -106l-146 138q-88 -48 -193 -48q-173 0 -293.5 115.5t-120.5 278.5t120.5 279.5t293.5 116.5q172 0 291 -114.5t119 -284.5q0 -79 -34 -152t-92 -128l147 -109zM730 376q0 120 -80.5 201t-193.5 81q-115 0 -196 -80t-81 -196q0 -113 80 -198.5t190 -85.5
q118 0 199.5 81t81.5 197z" />
    <glyph glyph-name="R" unicode="R" horiz-adv-x="629" 
d="M667 0h-177l-257 280h-20v-280h-128v757h160q47 0 88 -5t85 -20.5t75.5 -40.5t52 -68t20.5 -100q0 -79 -56 -143.5t-142 -80.5zM213 391h50q81 0 125 36t44 89q0 124 -160 124h-59v-249z" />
    <glyph glyph-name="S" unicode="S" horiz-adv-x="591" 
d="M25 90l68 92q85 -83 194 -83q60 0 93 27t33 74q0 18 -3 33t-13.5 28.5t-16 21.5t-25.5 20.5t-25 15.5t-32.5 16.5t-30.5 15.5q-47 24 -73 40t-58 43t-47 61t-15 76q0 94 73 148.5t172 54.5q73 0 127.5 -29.5t77.5 -55.5l-62 -95q-66 66 -142 66q-46 0 -79 -21t-33 -62
q0 -39 35 -67.5t85 -50.5t100.5 -50t85.5 -80.5t35 -126.5q0 -90 -73.5 -154t-197.5 -64q-75 0 -146.5 34t-106.5 72z" />
    <glyph glyph-name="T" unicode="T" horiz-adv-x="607" 
d="M368 0h-128v640h-223v116h573v-116h-222v-640z" />
    <glyph glyph-name="U" unicode="U" horiz-adv-x="774" 
d="M564 140v617h128v-666q-102 -107 -307 -107q-147 0 -226 74t-79 220v479h128v-409q0 -142 42.5 -197t157.5 -55q96 0 156 44z" />
    <glyph glyph-name="V" unicode="V" horiz-adv-x="711" 
d="M356 -39l-370 796h142l226 -508q4 -10 6 -35q2 23 6 35l216 508h143z" />
    <glyph glyph-name="W" unicode="W" horiz-adv-x="1071" 
d="M779 -36l-244 517l-240 -515l-302 791h141l172 -463q4 -12 6 -39q2 27 7 39l218 494l218 -494q6 -14 7 -36q2 24 6 36l168 463h140z" />
    <glyph glyph-name="X" unicode="X" horiz-adv-x="721" 
d="M718 0h-160l-198 290l-201 -290h-159l291 390l-272 367h160l185 -267l185 267h160l-278 -367z" />
    <glyph glyph-name="Y" unicode="Y" horiz-adv-x="653" 
d="M390 0h-128v313l-276 444h142l194 -321q5 -8 6 -27q1 16 8 27l194 321h142l-282 -444v-313z" />
    <glyph glyph-name="Z" unicode="Z" horiz-adv-x="682" 
d="M647 1h-648l424 639h-337v116h561l-424 -639h424v-116z" />
    <glyph glyph-name="bracketleft" unicode="[" horiz-adv-x="340" 
d="M305 -215h-229v1035h229v-93h-126v-852h126v-90z" />
    <glyph glyph-name="backslash" unicode="\" horiz-adv-x="559" 
d="M525 -185l-85 -31l-406 1000l85 36z" />
    <glyph glyph-name="bracketright" unicode="]" horiz-adv-x="340" 
d="M264 -215h-229v93h123v852h-123v90h229v-1035z" />
    <glyph glyph-name="asciicircum" unicode="^" horiz-adv-x="704" 
d="M628 404h-138l-139 262l-139 -262h-137l227 410h98z" />
    <glyph glyph-name="underscore" unicode="_" horiz-adv-x="645" 
d="M580 -48h-515v97h515v-97z" />
    <glyph glyph-name="grave" unicode="`" horiz-adv-x="368" 
d="M318 633l-76 -50l-192 163l100 73z" />
    <glyph glyph-name="a" unicode="a" horiz-adv-x="541" 
d="M371 106v88q-18 17 -51.5 30t-68.5 13q-48 0 -75 -23t-27 -55t29 -56t84 -24q66 0 109 27zM484 318v-265q-31 -28 -92.5 -47.5t-130.5 -19.5q-115 0 -175 53.5t-60 124.5q0 69 54 117t144 48q99 0 147 -45v59q0 38 -25 58t-86 20q-70 0 -141 -29l-36 86q86 41 190 41
q118 0 164.5 -51t46.5 -150z" />
    <glyph glyph-name="b" unicode="b" horiz-adv-x="601" 
d="M63 48v772h118v-346q67 45 151 45q108 0 169.5 -77.5t61.5 -185.5q0 -127 -82.5 -198.5t-201.5 -71.5q-125 0 -216 62zM181 371v-264q36 -24 96 -24q75 0 118 47t43 123q0 70 -35 118.5t-97 48.5q-35 0 -70.5 -15t-54.5 -34z" />
    <glyph glyph-name="c" unicode="c" horiz-adv-x="520" 
d="M458 140l38 -82q-72 -72 -199 -72q-97 0 -179 74t-82 192q0 113 80.5 190t192.5 77q57 0 105.5 -20.5t66.5 -38.5l-45 -89q-53 49 -122 49q-64 0 -110 -45.5t-46 -123.5q0 -73 45 -121t111 -48q92 0 144 58z" />
    <glyph glyph-name="d" unicode="d" horiz-adv-x="599" 
d="M418 109v267q-18 20 -49.5 32.5t-64.5 12.5q-65 0 -104 -48.5t-39 -126.5q0 -72 45.5 -117.5t108.5 -45.5q62 0 103 26zM418 485v335h118v-772q-97 -62 -221 -62q-114 0 -196 69t-82 191q0 121 73.5 197t190.5 76q70 0 117 -34z" />
    <glyph glyph-name="e" unicode="e" horiz-adv-x="583" 
d="M492 136l37 -84q-26 -23 -83.5 -44.5t-129.5 -21.5q-126 0 -202.5 71.5t-76.5 191.5q0 118 73 194t191 76q117 0 181.5 -75.5t64.5 -186.5v-49h-388q6 -53 52 -89t125 -36q88 0 156 53zM160 303h264q-2 52 -35.5 87.5t-89.5 35.5q-54 0 -93 -33t-46 -90z" />
    <glyph glyph-name="f" unicode="f" horiz-adv-x="372" 
d="M226 0h-117v408h-85v96h85v99q0 99 46 154q52 60 152 60q33 0 65 -8.5t47 -15.5t22 -12l-46 -91q-37 27 -82 27q-87 0 -87 -112v-101h127v-96h-127v-408z" />
    <glyph glyph-name="g" unicode="g" horiz-adv-x="593" 
d="M411 -39v84q-25 -27 -64 -43t-73 -16q-95 0 -166 73.5t-71 192.5q0 125 81 196t197 71q120 0 214 -52v-490q0 -69 -21 -119t-57 -76.5t-77 -39t-88 -12.5q-133 0 -228 61l49 90q25 -19 73 -36t103 -17q57 0 92.5 31t35.5 102zM411 145v256q-47 21 -92 21
q-67 0 -112.5 -42.5t-45.5 -127.5q0 -63 35 -115.5t100 -52.5q38 0 68.5 17t46.5 44z" />
    <glyph glyph-name="h" unicode="h" horiz-adv-x="577" 
d="M515 0h-118v275q0 72 -20 106t-78 34q-33 0 -67 -19.5t-49 -38.5v-357h-118v820h118v-367q71 66 162 66q170 0 170 -182v-337z" />
    <glyph glyph-name="i" unicode="i" horiz-adv-x="256" 
d="M187 0h-118v505h118v-505zM128 592q-32 0 -53.5 21t-21.5 55t21.5 55t53.5 21q34 0 55 -21.5t21 -54.5q0 -34 -21.5 -55t-54.5 -21z" />
    <glyph glyph-name="j" unicode="j" horiz-adv-x="256" 
d="M1 -267l-44 89q30 9 47 15t31 19t19.5 23t9.5 37t4.5 50t0.5 72v467h118v-469q0 -60 -3.5 -97.5t-13.5 -73t-31 -57.5t-54 -41t-84 -34zM129 592q-33 0 -54.5 21.5t-21.5 54.5t21.5 54.5t54.5 21.5q34 0 55 -21.5t21 -54.5q0 -34 -21.5 -55t-54.5 -21z" />
    <glyph glyph-name="k" unicode="k" horiz-adv-x="531" 
d="M533 0h-161l-189 227v-227h-118v820h118v-515l163 200h147l-207 -232z" />
    <glyph glyph-name="l" unicode="l" horiz-adv-x="252" 
d="M185 0h-118v820h118v-820z" />
    <glyph glyph-name="m" unicode="m" horiz-adv-x="873" 
d="M811 0h-118v320q0 95 -79 95q-35 0 -66.5 -17t-50.5 -39v-359h-118v325q0 90 -85 90q-31 0 -63 -18.5t-48 -37.5v-359h-118v505h118v-53q70 67 159 67q88 0 126 -76q98 76 181 76q162 0 162 -180v-339z" />
    <glyph glyph-name="n" unicode="n" horiz-adv-x="577" 
d="M515 0h-118v275q0 72 -20 106t-78 34q-33 0 -67 -19.5t-49 -38.5v-357h-118v505h118v-52q71 66 162 66q170 0 170 -182v-337z" />
    <glyph glyph-name="o" unicode="o" horiz-adv-x="617" 
d="M581 251q0 -110 -79.5 -187.5t-193.5 -77.5q-115 0 -193.5 77t-78.5 188q0 112 79.5 190t195.5 78q114 0 192 -78.5t78 -189.5zM307 83q68 0 108.5 45.5t40.5 122.5q0 74 -42.5 121.5t-103.5 47.5q-66 0 -109 -47.5t-43 -124.5q0 -71 44.5 -118t104.5 -47z" />
    <glyph glyph-name="p" unicode="p" horiz-adv-x="599" 
d="M182 -254h-118v716q102 57 224 57q114 0 194 -69.5t80 -196.5q0 -110 -66.5 -188.5t-180.5 -78.5q-33 0 -70.5 13.5t-62.5 34.5v-288zM182 396v-256q19 -25 54.5 -40.5t71.5 -15.5q54 0 92 46.5t38 121.5q0 74 -43 121t-117 47q-62 0 -96 -24z" />
    <glyph glyph-name="q" unicode="q" horiz-adv-x="605" 
d="M541 -254h-118v288q-60 -48 -141 -48q-101 0 -173.5 75.5t-72.5 189.5q0 126 86 197t202 71q124 0 217 -57v-716zM423 148v249q-44 25 -93 25q-76 0 -123.5 -50.5t-47.5 -124.5q0 -75 42.5 -119.5t101.5 -44.5q34 0 66.5 17.5t53.5 47.5z" />
    <glyph glyph-name="r" unicode="r" horiz-adv-x="388" 
d="M183 0h-118v505h118v-78q5 12 14 25t22.5 29.5t33 27t40.5 10.5q47 0 90 -25l-43 -110q-34 24 -67 24q-41 0 -65.5 -38.5t-24.5 -88.5v-281z" />
    <glyph glyph-name="s" unicode="s" horiz-adv-x="437" 
d="M20 51l44 84q25 -24 64.5 -42.5t75.5 -18.5q34 0 54.5 16.5t20.5 41.5t-23 47t-55.5 39.5t-65.5 37.5t-56 50.5t-23 69.5q0 60 48.5 102.5t127.5 42.5q54 0 98 -18.5t67 -38.5l-44 -82q-12 14 -42.5 31.5t-64.5 17.5q-29 0 -47.5 -14.5t-18.5 -36.5q0 -19 16 -36.5
t40.5 -29.5t53 -29t53 -34.5t40.5 -47t16 -65.5q0 -68 -51.5 -110t-137.5 -42q-110 0 -190 65z" />
    <glyph glyph-name="t" unicode="t" horiz-adv-x="372" 
d="M233 0h-118v408h-95v96h95v173h118v-173h124v-96h-124v-408z" />
    <glyph glyph-name="u" unicode="u" horiz-adv-x="575" 
d="M394 110v395h118v-450q-80 -69 -224 -69q-103 0 -165 50t-62 145v324h118v-295q0 -127 121 -127q57 0 94 27z" />
    <glyph glyph-name="v" unicode="v" horiz-adv-x="523" 
d="M285 -22h-43l-245 527h130l110 -258q22 -51 26 -75h2q3 25 24 75l109 258h129z" />
    <glyph glyph-name="w" unicode="w" horiz-adv-x="769" 
d="M561 -22h-46l-130 288l-131 -288h-46l-208 527h125l107 -274q11 -30 12 -38q3 15 14 40l117 256h20l118 -258q10 -22 13 -37q1 7 13 38l106 273h124z" />
    <glyph glyph-name="x" unicode="x" horiz-adv-x="546" 
d="M543 0h-140l-130 188l-128 -188h-141l203 270l-179 235h143l105 -158l103 158h138l-179 -235z" />
    <glyph glyph-name="y" unicode="y" horiz-adv-x="559" 
d="M166 -255h-133l178 320l-212 440h130l149 -319l149 319h136z" />
    <glyph glyph-name="z" unicode="z" horiz-adv-x="515" 
d="M481 1h-474l284 407h-231v96h427l-277 -407h271v-96z" />
    <glyph glyph-name="braceleft" unicode="{" horiz-adv-x="374" 
d="M346 -125l-24 -87q-112 11 -154 62.5t-42 156.5v121q0 60 -25 101t-93 75q68 34 93 75t25 101v121q0 106 42 157.5t154 62.5l24 -87q-65 -10 -88 -40.5t-23 -105.5v-120q0 -55 -13 -92t-45 -72q32 -35 45 -72t13 -92v-120q0 -74 23 -104.5t88 -40.5z" />
    <glyph glyph-name="bar" unicode="|" horiz-adv-x="260" 
d="M183 -259h-106v1079h106v-1079z" />
    <glyph glyph-name="braceright" unicode="}" horiz-adv-x="374" 
d="M52 -212l-24 87q65 10 88 40.5t23 104.5v120q0 55 13 92t45 72q-32 35 -45 72t-13 92v120q0 75 -23 105.5t-88 40.5l24 87q112 -11 154 -62.5t42 -157.5v-121q0 -60 25 -101t93 -75q-68 -34 -93 -75t-25 -101v-121q0 -105 -42 -156.5t-154 -62.5z" />
    <glyph glyph-name="asciitilde" unicode="~" horiz-adv-x="560" 
d="M474 574l41 -99q-21 -20 -60 -39.5t-80 -19.5q-26 0 -83.5 26t-88.5 26q-44 0 -116 -48l-42 97q24 22 67 43t80 21q33 0 90.5 -26.5t80.5 -26.5q54 0 111 46z" />
    <glyph glyph-name="exclamdown" unicode="&#xa1;" horiz-adv-x="264" 
d="M200 -210h-136l19 537h96zM132 411q-32 0 -53 22t-21 53q0 29 21.5 51.5t52.5 22.5q30 0 52 -23t22 -51q0 -31 -21.5 -53t-52.5 -22z" />
    <glyph glyph-name="cent" unicode="&#xa2;" horiz-adv-x="585" 
d="M360 -25h-81v110q-98 17 -161 88.5t-63 173.5q0 101 66 168t158 79v152h81v-150q52 -5 102.5 -32t69.5 -47l-56 -73q-19 16 -54 36t-62 22v-323q39 0 77.5 22.5t57.5 43.5l39 -78q-22 -29 -67.5 -52.5t-106.5 -27.5v-112zM279 186v306q-42 -16 -71.5 -53t-29.5 -96
q0 -58 30 -99.5t71 -57.5z" />
    <glyph glyph-name="sterling" unicode="&#xa3;" horiz-adv-x="653" 
d="M599 103l11 -101q-72 -15 -104 -18q-12 -1 -30 -1q-34 2 -96 14.5t-89 12.5q-45 0 -116 -22.5t-94 -34.5l-38 90q9 6 56.5 25.5t87.5 28.5v183h-75v91h75v155q0 225 186 225q62 0 123 -45l-51 -85q-1 0 -14.5 8.5t-26.5 13.5t-27 5q-38 0 -52.5 -24t-14.5 -78v-175h137
v-91h-137v-171q21 -1 77.5 -13.5t88.5 -12.5q48 0 123 20z" />
    <glyph glyph-name="currency" unicode="&#xa4;" horiz-adv-x="719" 
d="M652 155l-90 -67l-74 70q-63 -37 -130 -37t-130 37l-76 -71l-84 68l76 73q-41 59 -41 130q0 70 40 127l-76 74l84 69l76 -74q62 40 131 40q70 0 131 -39l74 71l90 -67l-77 -75q37 -53 37 -126t-40 -129q48 -43 79 -74zM492 358q0 55 -40 93.5t-94 38.5q-51 0 -91.5 -39
t-40.5 -93q0 -55 40 -94.5t92 -39.5q54 0 94 40t40 94z" />
    <glyph glyph-name="yen" unicode="&#xa5;" horiz-adv-x="777" 
d="M669 99h-219v-99h-128v99h-215v91h215v86h-215v91h181l-243 390h143l194 -321q5 -8 6 -27q1 16 8 27l194 321h142l-248 -390h185v-91h-219v-86h219v-91z" />
    <glyph glyph-name="brokenbar" unicode="&#xa6;" horiz-adv-x="264" 
d="M185 -259h-106v438h106v-438zM185 381h-106v439h106v-439z" />
    <glyph glyph-name="section" unicode="&#xa7;" horiz-adv-x="586" 
d="M374 -123l-334 521q14 39 59 77t99 63q-78 122 -80 125q6 36 127 95.5t171 57.5l24 -111q-32 0 -105 -12t-105 -22l310 -491q-26 -74 -153 -137q4 -6 100 -157q-9 -25 -69 -65.5t-131.5 -70.5t-110.5 -30l-23 111q32 -1 110.5 16t110.5 30zM427 166l-177 283
q-16 0 -40 -8q-27 -9 -58 -28l182 -287q8 -2 30 7q42 16 63 33z" />
    <glyph glyph-name="dieresis" unicode="&#xa8;" horiz-adv-x="479" 
d="M189 646q0 -26 -20.5 -45t-50.5 -19q-28 0 -48 19t-20 45q0 27 20 46t48 19q30 0 50.5 -18.5t20.5 -46.5zM429 646q0 -27 -19.5 -45.5t-50.5 -18.5q-29 0 -48.5 18.5t-19.5 45.5q0 28 19.5 46.5t48.5 18.5q32 0 51 -18.5t19 -46.5z" />
    <glyph glyph-name="copyright" unicode="&#xa9;" horiz-adv-x="909" 
d="M454 67q127 0 216 89.5t89 216.5q0 128 -88.5 217t-216.5 89t-216.5 -89t-88.5 -217q0 -127 88.5 -216.5t216.5 -89.5zM855 372q0 -164 -117.5 -280t-283.5 -116t-283 116t-117 280q0 166 116.5 282t283.5 116t284 -116t117 -282zM601 270l47 -66q-66 -58 -174 -58
q-112 0 -187 67t-75 161q0 96 71 164t182 68q106 0 178 -64l-53 -71q-49 43 -130 43q-62 0 -100 -40t-38 -101q0 -56 44.5 -96t107.5 -40q84 0 127 33z" />
    <glyph glyph-name="ordfeminine" unicode="&#xaa;" horiz-adv-x="459" 
d="M288 458v59q-30 20 -66 20q-27 0 -46 -12t-19 -31q0 -23 17.5 -36.5t49.5 -13.5q36 0 64 14zM399 593v-177q-62 -49 -180 -49q-87 0 -132 36.5t-45 92.5q0 57 47 84.5t112 27.5q46 0 86 -16v31q0 17 -20.5 28.5t-56.5 11.5q-42 0 -96 -19l-32 65q69 31 150 31
q94 0 130.5 -37t36.5 -110z" />
    <glyph glyph-name="guillemotleft" unicode="&#xab;" horiz-adv-x="609" 
d="M316 25h-129l-147 213l144 212h128l-154 -213zM570 25h-127l-148 213l144 212h125l-155 -212z" />
    <glyph glyph-name="logicalnot" unicode="&#xac;" horiz-adv-x="715" 
d="M636 110h-127v193h-443v111h570v-304z" />
    <glyph glyph-name="registered" unicode="&#xae;" horiz-adv-x="715" 
d="M651 491q0 -120 -86.5 -205.5t-206.5 -85.5q-121 0 -207.5 85.5t-86.5 205.5t86.5 205t207.5 85q120 0 206.5 -85t86.5 -205zM359 277q87 0 150 63.5t63 151.5q0 87 -63 150.5t-150 63.5q-89 0 -151.5 -61.5t-62.5 -152.5q0 -88 63 -151.5t151 -63.5zM496 337h-84
l-73 117l-11 17v-134h-77v320h92q59 0 99.5 -24.5t40.5 -78.5q0 -36 -18 -57.5t-58 -32.5zM328 510h19q67 0 67 46q0 41 -61 41h-25v-87z" />
    <glyph glyph-name="macron" unicode="&#xaf;" horiz-adv-x="525" 
d="M476 600h-427v99h427v-99z" />
    <glyph glyph-name="degree" unicode="&#xb0;" horiz-adv-x="435" 
d="M390 634q0 -66 -50.5 -111.5t-122.5 -45.5q-73 0 -122.5 45.5t-49.5 111.5t49.5 112t122.5 46q72 0 122.5 -46t50.5 -112zM217 553q31 0 51.5 23.5t20.5 57.5t-20.5 57.5t-51.5 23.5q-30 0 -50.5 -23.5t-20.5 -57.5t20.5 -57.5t50.5 -23.5z" />
    <glyph glyph-name="plusminus" unicode="&#xb1;" horiz-adv-x="708" 
d="M640 362h-227v-210h-118v210h-227v99h227v211h118v-211h227v-99zM640 1h-572v99h572v-99z" />
    <glyph glyph-name="twosuperior" unicode="&#xb2;" horiz-adv-x="457" 
d="M421 330h-404q34 23 74.5 56.5t85.5 77t75 90t30 81.5q0 28 -18 43t-44 15q-52 0 -98 -48l-53 73q77 66 167 66q72 0 117.5 -41t45.5 -102q0 -67 -54.5 -130t-112.5 -100l189 10v-91z" />
    <glyph glyph-name="threesuperior" unicode="&#xb3;" horiz-adv-x="397" 
d="M276 577v-1q41 -15 63 -50t22 -72q0 -57 -52 -96.5t-135 -39.5q-56 0 -96.5 16.5t-60.5 34.5l49 77q12 -13 45 -25t63 -12q37 0 56.5 18t19.5 43q0 32 -32.5 50t-82.5 18q-15 0 -23 -1v63q3 0 8 -0.5t11 -0.5q40 0 67 15t27 42q0 38 -51 38q-40 0 -77 -23l-33 80
q16 13 52.5 23t74.5 10q67 0 107.5 -31.5t40.5 -81.5q0 -62 -63 -94z" />
    <glyph glyph-name="acute" unicode="&#xb4;" horiz-adv-x="368" 
d="M318 746l-192 -163l-76 50l168 186z" />
    <glyph glyph-name="paragraph" unicode="&#xb6;" horiz-adv-x="585" 
d="M485 -154h-117v911h117v-911zM308 754v-495q-117 -4 -191 69t-74 168q0 99 74 178.5t191 79.5z" />
    <glyph glyph-name="periodcentered" unicode="&#xb7;" horiz-adv-x="265" 
d="M209 362q0 -27 -22.5 -48t-54.5 -21q-31 0 -53.5 20.5t-22.5 48.5q0 30 22.5 50.5t53.5 20.5q33 0 55 -20t22 -51z" />
    <glyph glyph-name="cedilla" unicode="&#xb8;" horiz-adv-x="327" 
d="M167 -243h-101l74 205h139z" />
    <glyph glyph-name="onesuperior" unicode="&#xb9;" horiz-adv-x="300" 
d="M239 328h-111v324l-75 -28l-42 85l228 81v-462z" />
    <glyph glyph-name="ordmasculine" unicode="&#xba;" horiz-adv-x="501" 
d="M460 552q0 -76 -60.5 -130.5t-148.5 -54.5q-87 0 -148 54t-61 131q0 78 61 133t148 55q88 0 148.5 -55.5t60.5 -132.5zM250 451q41 0 66.5 28t25.5 73q0 44 -26 74t-63 30q-40 0 -67 -30.5t-27 -75.5q0 -42 27.5 -70.5t63.5 -28.5z" />
    <glyph glyph-name="guillemotright" unicode="&#xbb;" horiz-adv-x="602" 
d="M167 24h-125l159 212l-155 213h125l144 -211zM416 24h-121l158 213l-155 212h122l142 -211z" />
    <glyph glyph-name="onequarter" unicode="&#xbc;" horiz-adv-x="909" 
d="M268 -38l-96 44l398 765l97 -45zM268 328h-111v324l-75 -28l-42 85l228 81v-462zM785 -4h-106v74h-239v69l271 312h74v-294h73v-87h-73v-74zM683 151v145l-126 -145h126z" />
    <glyph glyph-name="onehalf" unicode="&#xbd;" horiz-adv-x="971" 
d="M268 -38l-96 44l398 765l97 -45zM268 328h-111v324l-75 -28l-42 85l228 81v-462zM917 0h-404q34 23 74.5 56.5t85.5 77t75 90t30 81.5q0 28 -18 43t-44 15q-52 0 -98 -48l-53 73q77 66 167 66q72 0 117.5 -41t45.5 -102q0 -67 -54.5 -130t-112.5 -100l189 10v-91z" />
    <glyph glyph-name="threequarters" unicode="&#xbe;" horiz-adv-x="998" 
d="M876 -4h-106v74h-239v69l271 312h74v-294h73v-87h-73v-74zM359 -38l-96 44l398 765l97 -45zM301 577v-1q41 -15 63 -50t22 -72q0 -57 -52 -96.5t-135 -39.5q-56 0 -96.5 16.5t-60.5 34.5l49 77q12 -13 45 -25t63 -12q37 0 56.5 18t19.5 43q0 32 -32.5 50t-82.5 18
q-15 0 -23 -1v63q3 0 8 -0.5t11 -0.5q40 0 67 15t27 42q0 38 -51 38q-40 0 -77 -23l-33 80q16 13 52.5 23t74.5 10q67 0 107.5 -31.5t40.5 -81.5q0 -62 -63 -94zM774 151v145l-126 -145h126z" />
    <glyph glyph-name="questiondown" unicode="&#xbf;" horiz-adv-x="471" 
d="M348 -114l46 -65q-79 -68 -164 -68q-69 0 -108 42.5t-39 95.5q0 48 33.5 87t100.5 87q28 20 41.5 31t29 31t15.5 39q0 24 -17 42t-49 18q-39 0 -77 -27t-57 -54l-59 59q24 40 79 77t120 37q69 0 124 -42t55 -111q0 -21 -6.5 -41t-14 -33t-24 -28.5t-24 -22t-27 -20
t-22.5 -15.5q-47 -33 -74 -59.5t-27 -53.5q0 -18 13.5 -33t40.5 -15q8 0 16.5 1.5t17 5t14.5 6t13.5 8t11.5 8t10.5 7.5t7.5 6zM323 464q0 -29 -21.5 -50.5t-51.5 -21.5t-51 21.5t-21 50.5t21.5 52.5t50.5 23.5q30 0 51.5 -23t21.5 -53z" />
    <glyph glyph-name="Agrave" unicode="&#xc0;" horiz-adv-x="747" 
d="M518 825l-318 49l47 105l302 -69zM760 0h-143l-69 148h-351l-68 -148h-142l387 788zM495 264l-109 235q-12 23 -13 36q-1 -6 -15 -36l-108 -235h245z" />
    <glyph glyph-name="Aacute" unicode="&#xc1;" horiz-adv-x="747" 
d="M549 879l-318 -49l-31 84l302 69zM760 0h-143l-69 148h-351l-68 -148h-142l387 788zM495 264l-109 235q-12 23 -13 36q-1 -6 -15 -36l-108 -235h245z" />
    <glyph glyph-name="Acircumflex" unicode="&#xc2;" horiz-adv-x="747" 
d="M531 808l-160 57l-167 -65l-48 72l216 109l218 -105zM760 0h-143l-69 148h-351l-68 -148h-142l387 788zM495 264l-109 235q-12 23 -13 36q-1 -6 -15 -36l-108 -235h245z" />
    <glyph glyph-name="Atilde" unicode="&#xc3;" horiz-adv-x="747" 
d="M534 980l56 -84q-82 -73 -146 -73q-31 0 -72.5 24.5t-61.5 24.5q-34 0 -98 -50l-55 77q27 24 74 49t82 25q27 0 67.5 -25.5t59.5 -25.5q42 0 94 58zM760 0h-143l-69 148h-351l-68 -148h-142l387 788zM495 264l-109 235q-12 23 -13 36q-1 -6 -15 -36l-108 -235h245z" />
    <glyph glyph-name="Adieresis" unicode="&#xc4;" horiz-adv-x="747" 
d="M576 912q0 -29 -21.5 -49t-56.5 -20q-32 0 -53.5 20.5t-21.5 48.5q0 30 21 49.5t54 19.5q35 0 56.5 -19.5t21.5 -49.5zM312 912q0 -28 -22.5 -48.5t-55.5 -20.5q-31 0 -53.5 20.5t-22.5 48.5q0 29 22.5 49t53.5 20q33 0 55.5 -20t22.5 -49zM760 0h-143l-69 148h-351
l-68 -148h-142l387 788zM495 264l-109 235q-12 23 -13 36q-1 -6 -15 -36l-108 -235h245z" />
    <glyph glyph-name="Aring" unicode="&#xc5;" horiz-adv-x="747" 
d="M498 923q0 -50 -36 -85.5t-88 -35.5t-88.5 35.5t-36.5 85.5q0 51 36.5 86t88.5 35q51 0 87.5 -36t36.5 -85zM426 923q0 21 -15.5 37t-36.5 16t-35.5 -16t-14.5 -37t14.5 -36.5t35.5 -15.5t36.5 15.5t15.5 36.5zM760 0h-143l-69 148h-351l-68 -148h-142l387 788zM495 264
l-109 235q-12 23 -13 36q-1 -6 -15 -36l-108 -235h245z" />
    <glyph glyph-name="AE" unicode="&#xc6;" horiz-adv-x="1004" 
d="M965 1h-470v147h-258l-94 -148h-164l518 756h436v-116h-310v-180h250v-116h-250v-227h342v-116zM495 264v290l-185 -290h185z" />
    <glyph glyph-name="Ccedilla" unicode="&#xc7;" horiz-adv-x="762" 
d="M670 167l59 -83q-105 -100 -267 -100q-181 0 -300.5 115.5t-119.5 280.5q0 163 115 278.5t291 115.5q101 0 174 -36t102 -71l-68 -89q-82 80 -208 80q-123 0 -196.5 -81t-73.5 -194q0 -120 82 -202.5t208 -82.5q65 0 120.5 21.5t81.5 47.5zM415 -266h-101l74 205h139z
" />
    <glyph glyph-name="Egrave" unicode="&#xc8;" horiz-adv-x="594" 
d="M555 1h-470v755h438v-116h-310v-180h250v-116h-250v-227h342v-116zM447 826l-318 49l47 105l302 -69z" />
    <glyph glyph-name="Eacute" unicode="&#xc9;" horiz-adv-x="594" 
d="M555 1h-470v755h438v-116h-310v-180h250v-116h-250v-227h342v-116zM487 878l-318 -49l-31 84l302 69z" />
    <glyph glyph-name="Ecircumflex" unicode="&#xca;" horiz-adv-x="594" 
d="M555 1h-470v755h438v-116h-310v-180h250v-116h-250v-227h342v-116zM470 820l-160 59l-167 -59l-48 72l216 101l218 -105z" />
    <glyph glyph-name="Edieresis" unicode="&#xcb;" horiz-adv-x="594" 
d="M555 1h-470v755h438v-116h-310v-180h250v-116h-250v-227h342v-116zM255 884q0 -26 -20.5 -45t-50.5 -19q-28 0 -48 19t-20 45q0 27 20 46t48 19q30 0 50.5 -18.5t20.5 -46.5zM495 884q0 -27 -19.5 -45.5t-50.5 -18.5q-29 0 -48.5 18.5t-19.5 45.5q0 28 19.5 46.5
t48.5 18.5q32 0 51 -18.5t19 -46.5z" />
    <glyph glyph-name="Igrave" unicode="&#xcc;" horiz-adv-x="298" 
d="M213 0h-128v757h128v-757zM288 823l-317 49l46 105l302 -69z" />
    <glyph glyph-name="Iacute" unicode="&#xcd;" horiz-adv-x="298" 
d="M213 0h-128v757h128v-757zM338 878l-318 -49l-30 84l301 69z" />
    <glyph glyph-name="Icircumflex" unicode="&#xce;" horiz-adv-x="298" 
d="M213 0h-128v757h128v-757zM308 818l-160 59l-166 -59l-48 72l215 101l218 -105z" />
    <glyph glyph-name="Idieresis" unicode="&#xcf;" horiz-adv-x="298" 
d="M118 884q0 -26 -20.5 -45t-50.5 -19q-28 0 -47.5 19t-19.5 45q0 28 19.5 46.5t47.5 18.5q30 0 50.5 -18.5t20.5 -46.5zM318 884q0 -27 -19.5 -45.5t-50.5 -18.5q-29 0 -48.5 18.5t-19.5 45.5q0 28 19.5 46.5t48.5 18.5q32 0 51 -18.5t19 -46.5zM213 0h-128v757h128v-757z
" />
    <glyph glyph-name="Eth" unicode="&#xd0;" horiz-adv-x="781" 
d="M306 0h-200v323h-93v112h93v322h219q177 0 293.5 -100t116.5 -279q0 -178 -116.5 -278t-312.5 -100zM234 116h89q122 0 199 65t77 200q0 117 -73 188.5t-188 71.5h-104v-206h174v-112h-174v-207z" />
    <glyph glyph-name="Ntilde" unicode="&#xd1;" horiz-adv-x="857" 
d="M772 -27l-562 506l2 -479h-128l1 778l562 -518l-2 497h128zM578 977l56 -84q-82 -73 -146 -73q-31 0 -72.5 24.5t-61.5 24.5q-34 0 -98 -50l-55 77q27 24 74 49t82 25q27 0 67.5 -25.5t59.5 -25.5q42 0 94 58z" />
    <glyph glyph-name="Ograve" unicode="&#xd2;" horiz-adv-x="907" 
d="M865 375q0 -161 -121.5 -276t-288.5 -115q-172 0 -292.5 115.5t-120.5 278.5t120.5 279.5t292.5 116.5t291 -114.5t119 -284.5zM729 376q0 120 -80.5 201t-193.5 81q-115 0 -196 -80t-81 -196q0 -112 80 -198t190 -86q118 0 199.5 81t81.5 197zM597 829l-318 49l47 105
l302 -69z" />
    <glyph glyph-name="Oacute" unicode="&#xd3;" horiz-adv-x="907" 
d="M865 375q0 -161 -121.5 -276t-288.5 -115q-172 0 -292.5 115.5t-120.5 278.5t120.5 279.5t292.5 116.5t291 -114.5t119 -284.5zM729 376q0 120 -80.5 201t-193.5 81q-115 0 -196 -80t-81 -196q0 -112 80 -198t190 -86q118 0 199.5 81t81.5 197zM628 879l-318 -49l-31 84
l302 69z" />
    <glyph glyph-name="Ocircumflex" unicode="&#xd4;" horiz-adv-x="907" 
d="M865 375q0 -161 -121.5 -276t-288.5 -115q-172 0 -292.5 115.5t-120.5 278.5t120.5 279.5t292.5 116.5t291 -114.5t119 -284.5zM729 376q0 120 -80.5 201t-193.5 81q-115 0 -196 -80t-81 -196q0 -112 80 -198t190 -86q118 0 199.5 81t81.5 197zM611 808l-160 59l-167 -59
l-48 72l216 101l218 -105z" />
    <glyph glyph-name="Otilde" unicode="&#xd5;" horiz-adv-x="907" 
d="M865 375q0 -161 -121.5 -276t-288.5 -115q-172 0 -292.5 115.5t-120.5 278.5t120.5 279.5t292.5 116.5t291 -114.5t119 -284.5zM729 376q0 120 -80.5 201t-193.5 81q-115 0 -196 -80t-81 -196q0 -112 80 -198t190 -86q118 0 199.5 81t81.5 197zM614 980l56 -84
q-82 -73 -146 -73q-31 0 -72.5 24.5t-61.5 24.5q-34 0 -98 -50l-55 77q27 24 74 49t82 25q27 0 67.5 -25.5t59.5 -25.5q42 0 94 58z" />
    <glyph glyph-name="Odieresis" unicode="&#xd6;" horiz-adv-x="907" 
d="M308 882q0 -28 -20.5 -47.5t-51.5 -19.5q-29 0 -49.5 19.5t-20.5 47.5q0 30 20.5 50t49.5 20q31 0 51.5 -20t20.5 -50zM865 375q0 -161 -121.5 -276t-288.5 -115q-172 0 -292.5 115.5t-120.5 278.5q0 162 120 274t293 112t291.5 -110t118.5 -279zM729 376
q0 120 -80.5 201t-193.5 81q-115 0 -196 -80t-81 -196q0 -112 80 -198t190 -86q118 0 199.5 81t81.5 197zM741 882q0 -28 -20.5 -47.5t-51.5 -19.5q-29 0 -49.5 19.5t-20.5 47.5q0 30 20.5 50t49.5 20q31 0 51.5 -20t20.5 -50z" />
    <glyph glyph-name="multiply" unicode="&#xd7;" horiz-adv-x="671" 
d="M607 172l-83 -65l-188 180l-187 -178l-86 61l195 183l-192 183l82 65l190 -180l186 181l82 -66l-190 -182z" />
    <glyph glyph-name="Oslash" unicode="&#xd8;" horiz-adv-x="907" 
d="M304 -142l-112 33l60 143q-96 52 -153 143.5t-57 200.5q0 163 120.5 279.5t292.5 116.5q53 0 102 -12l51 122l110 -41l-52 -124q91 -52 145 -143t54 -201q0 -161 -121.5 -276t-288.5 -115q-44 0 -94 10zM300 147l211 505q-27 6 -56 6q-115 0 -196 -80t-81 -196
q0 -69 33 -132t89 -103zM617 604l-211 -503q21 -3 42 -3q118 0 199.5 81t81.5 197q0 70 -30 129.5t-82 98.5z" />
    <glyph glyph-name="Ugrave" unicode="&#xd9;" horiz-adv-x="774" 
d="M564 140v617h128v-666q-102 -107 -307 -107q-147 0 -226 74t-79 220v479h128v-409q0 -142 42.5 -197t157.5 -55q96 0 156 44zM531 824l-318 49l47 105l302 -69z" />
    <glyph glyph-name="Uacute" unicode="&#xda;" horiz-adv-x="774" 
d="M564 140v617h128v-666q-102 -107 -307 -107q-147 0 -226 74t-79 220v479h128v-409q0 -142 42.5 -197t157.5 -55q96 0 156 44zM569 872l-318 -49l-31 84l302 69z" />
    <glyph glyph-name="Ucircumflex" unicode="&#xdb;" horiz-adv-x="774" 
d="M564 140v617h128v-666q-102 -107 -307 -107q-147 0 -226 74t-79 220v479h128v-409q0 -142 42.5 -197t157.5 -55q96 0 156 44zM551 819l-160 59l-167 -59l-48 72l216 101l218 -105z" />
    <glyph glyph-name="Udieresis" unicode="&#xdc;" horiz-adv-x="774" 
d="M564 140v617h128v-666q-102 -107 -307 -107q-147 0 -226 74t-79 220v479h128v-409q0 -142 42.5 -197t157.5 -55q96 0 156 44zM217 884q0 -26 -20.5 -45t-50.5 -19q-28 0 -48 19t-20 45q0 27 20 46t48 19q30 0 50.5 -18.5t20.5 -46.5zM696 884q0 -27 -19.5 -45.5
t-50.5 -18.5q-29 0 -48.5 18.5t-19.5 45.5q0 28 19.5 46.5t48.5 18.5q32 0 51 -18.5t19 -46.5z" />
    <glyph glyph-name="Yacute" unicode="&#xdd;" horiz-adv-x="653" 
d="M390 0h-128v313l-276 444h142l194 -321q5 -8 6 -27q1 16 8 27l194 321h142l-282 -444v-313zM504 901l-192 -163l-76 50l168 186z" />
    <glyph glyph-name="Thorn" unicode="&#xde;" horiz-adv-x="599" 
d="M213 0h-128v757h128v-129h37q317 0 317 -242q0 -118 -75.5 -186.5t-223.5 -68.5h-55v-131zM213 247h52q81 0 124 38.5t43 101.5q0 58 -38 91t-109 33h-72v-264z" />
    <glyph glyph-name="germandbls" unicode="&#xdf;" horiz-adv-x="623" 
d="M308 -241v97q71 7 113.5 60t42.5 115q0 51 -31 86t-87 35q-36 0 -75 -17l143 273h-188v-408h-117v408h-85v96h85v99q0 99 46 154q52 60 152 60q33 0 65 -8.5t47 -15.5t22 -12l-46 -91q-37 27 -82 27q-87 0 -87 -112v-101h358l-162 -291q14 3 27 3q61 0 99.5 -53
t38.5 -128q0 -97 -70 -177.5t-209 -98.5z" />
    <glyph glyph-name="agrave" unicode="&#xe0;" horiz-adv-x="541" 
d="M371 106v88q-18 17 -51.5 30t-68.5 13q-48 0 -75 -23t-27 -55t29 -56t84 -24q66 0 109 27zM484 318v-265q-31 -28 -92.5 -47.5t-130.5 -19.5q-115 0 -175 53.5t-60 124.5q0 69 54 117t144 48q99 0 147 -45v59q0 38 -25 58t-86 20q-70 0 -141 -29l-36 86q86 41 190 41
q118 0 164.5 -51t46.5 -150zM379 633l-76 -50l-192 163l100 73z" />
    <glyph glyph-name="aacute" unicode="&#xe1;" horiz-adv-x="541" 
d="M371 106v88q-18 17 -51.5 30t-68.5 13q-48 0 -75 -23t-27 -55t29 -56t84 -24q66 0 109 27zM484 318v-265q-31 -28 -92.5 -47.5t-130.5 -19.5q-115 0 -175 53.5t-60 124.5q0 69 54 117t144 48q99 0 147 -45v59q0 38 -25 58t-86 20q-70 0 -141 -29l-36 86q86 41 190 41
q118 0 164.5 -51t46.5 -150zM447 746l-192 -163l-76 50l168 186z" />
    <glyph glyph-name="acircumflex" unicode="&#xe2;" horiz-adv-x="541" 
d="M371 106v88q-18 17 -51.5 30t-68.5 13q-48 0 -75 -23t-27 -55t29 -56t84 -24q66 0 109 27zM484 318v-265q-31 -28 -92.5 -47.5t-130.5 -19.5q-115 0 -175 53.5t-60 124.5q0 69 54 117t144 48q99 0 147 -45v59q0 38 -25 58t-86 20q-70 0 -141 -29l-36 86q86 41 190 41
q118 0 164.5 -51t46.5 -150zM405 569l-125 83l-123 -83l-64 71l188 136l186 -136z" />
    <glyph glyph-name="atilde" unicode="&#xe3;" horiz-adv-x="541" 
d="M371 106v88q-18 17 -51.5 30t-68.5 13q-48 0 -75 -23t-27 -55t29 -56t84 -24q66 0 109 27zM484 318v-265q-31 -28 -92.5 -47.5t-130.5 -19.5q-115 0 -175 53.5t-60 124.5q0 69 54 117t144 48q99 0 147 -45v59q0 38 -25 58t-86 20q-70 0 -141 -29l-36 86q86 41 190 41
q118 0 164.5 -51t46.5 -150zM431 740l49 -79q-78 -78 -139 -78q-31 0 -72.5 24.5t-61.5 24.5q-9 0 -18.5 -2.5t-19.5 -9t-16 -11t-18 -14t-16 -13.5l-58 73q31 28 73 53t76 25q27 0 67.5 -25.5t59.5 -25.5q42 0 94 58z" />
    <glyph glyph-name="adieresis" unicode="&#xe4;" horiz-adv-x="541" 
d="M371 106v88q-18 17 -51.5 30t-68.5 13q-48 0 -75 -23t-27 -55t29 -56t84 -24q66 0 109 27zM484 318v-265q-31 -28 -92.5 -47.5t-130.5 -19.5q-115 0 -175 53.5t-60 124.5q0 69 54 117t144 48q99 0 147 -45v59q0 38 -25 58t-86 20q-70 0 -141 -29l-36 86q86 41 190 41
q118 0 164.5 -51t46.5 -150zM208 653q0 -26 -20.5 -45t-50.5 -19q-28 0 -48 19t-20 45q0 27 20 46t48 19q30 0 50.5 -18.5t20.5 -46.5zM448 653q0 -27 -19.5 -45.5t-50.5 -18.5q-29 0 -48.5 18.5t-19.5 45.5q0 28 19.5 46.5t48.5 18.5q32 0 51 -18.5t19 -46.5z" />
    <glyph glyph-name="aring" unicode="&#xe5;" horiz-adv-x="541" 
d="M371 106v88q-18 17 -51.5 30t-68.5 13q-48 0 -75 -23t-27 -55t29 -56t84 -24q66 0 109 27zM484 318v-265q-31 -28 -92.5 -47.5t-130.5 -19.5q-115 0 -175 53.5t-60 124.5q0 69 54 117t144 48q99 0 147 -45v59q0 38 -25 58t-86 20q-70 0 -141 -29l-36 86q86 41 190 41
q118 0 164.5 -51t46.5 -150zM394 684q0 -50 -36 -85.5t-88 -35.5t-88.5 35.5t-36.5 85.5q0 51 36.5 86t88.5 35q51 0 87.5 -36t36.5 -85zM322 684q0 21 -15.5 37t-36.5 16t-35.5 -16t-14.5 -37t14.5 -36.5t35.5 -15.5t36.5 15.5t15.5 36.5z" />
    <glyph glyph-name="ae" unicode="&#xe6;" horiz-adv-x="909" 
d="M818 136l37 -84q-26 -23 -83.5 -44.5t-129.5 -21.5q-105 0 -178 51q-77 -51 -203 -51q-115 0 -175 53.5t-60 124.5q0 69 54 117t144 48q99 0 147 -45v59q0 38 -25 58t-86 20q-70 0 -141 -29l-36 86q86 41 190 41q146 0 176 -74q25 36 73 55t105 19q117 0 181.5 -75.5
t64.5 -186.5v-49h-388q5 -51 51 -88t125 -37q88 0 157 53zM393 119q-18 39 -20 74q-16 16 -51 30t-71 14q-47 0 -74.5 -23.5t-27.5 -54.5q0 -32 29.5 -56t82.5 -24q81 0 132 40zM486 303h264q-2 52 -35.5 87.5t-89.5 35.5q-54 0 -93 -33t-46 -90z" />
    <glyph glyph-name="ccedilla" unicode="&#xe7;" horiz-adv-x="520" 
d="M458 140l38 -82q-72 -72 -199 -72q-97 0 -179 74t-82 192q0 113 80.5 190t192.5 77q57 0 105.5 -20.5t66.5 -38.5l-45 -89q-53 49 -122 49q-64 0 -110 -45.5t-46 -123.5q0 -73 45 -121t111 -48q92 0 144 58zM273 -263h-101l74 205h139z" />
    <glyph glyph-name="egrave" unicode="&#xe8;" horiz-adv-x="583" 
d="M492 136l37 -84q-26 -23 -83.5 -44.5t-129.5 -21.5q-126 0 -202.5 71.5t-76.5 191.5q0 118 73 194t191 76q117 0 181.5 -75.5t64.5 -186.5v-49h-388q6 -53 52 -89t125 -36q88 0 156 53zM160 303h264q-2 52 -35.5 87.5t-89.5 35.5q-54 0 -93 -33t-46 -90zM402 633l-76 -50
l-192 163l100 73z" />
    <glyph glyph-name="eacute" unicode="&#xe9;" horiz-adv-x="583" 
d="M492 136l37 -84q-26 -23 -83.5 -44.5t-129.5 -21.5q-126 0 -202.5 71.5t-76.5 191.5q0 118 73 194t191 76q117 0 181.5 -75.5t64.5 -186.5v-49h-388q6 -53 52 -89t125 -36q88 0 156 53zM160 303h264q-2 52 -35.5 87.5t-89.5 35.5q-54 0 -93 -33t-46 -90zM471 746
l-192 -163l-76 50l168 186z" />
    <glyph glyph-name="ecircumflex" unicode="&#xea;" horiz-adv-x="583" 
d="M492 136l37 -84q-26 -23 -83.5 -44.5t-129.5 -21.5q-126 0 -202.5 71.5t-76.5 191.5q0 118 73 194t191 76q117 0 181.5 -75.5t64.5 -186.5v-49h-388q6 -53 52 -89t125 -36q88 0 156 53zM160 303h264q-2 52 -35.5 87.5t-89.5 35.5q-54 0 -93 -33t-46 -90zM422 572l-125 93
l-123 -93l-64 71l188 136l186 -136z" />
    <glyph glyph-name="edieresis" unicode="&#xeb;" horiz-adv-x="583" 
d="M492 136l37 -84q-26 -23 -83.5 -44.5t-129.5 -21.5q-126 0 -202.5 71.5t-76.5 191.5q0 118 73 194t191 76q117 0 181.5 -75.5t64.5 -186.5v-49h-388q6 -53 52 -89t125 -36q88 0 156 53zM160 303h264q-2 52 -35.5 87.5t-89.5 35.5q-54 0 -93 -33t-46 -90zM243 646
q0 -26 -20.5 -45t-50.5 -19q-28 0 -48 19t-20 45q0 27 20 46t48 19q30 0 50.5 -18.5t20.5 -46.5zM483 646q0 -27 -19.5 -45.5t-50.5 -18.5q-29 0 -48.5 18.5t-19.5 45.5q0 28 19.5 46.5t48.5 18.5q32 0 51 -18.5t19 -46.5z" />
    <glyph glyph-name="igrave" unicode="&#xec;" horiz-adv-x="256" 
d="M187 0h-118v505h118v-505zM218 633l-76 -50l-191 163l99 73z" />
    <glyph glyph-name="iacute" unicode="&#xed;" horiz-adv-x="256" 
d="M187 0h-118v505h118v-505zM308 746l-192 -163l-76 50l168 186z" />
    <glyph glyph-name="icircumflex" unicode="&#xee;" horiz-adv-x="256" 
d="M187 0h-118v505h118v-505zM254 572l-125 93l-123 -93l-63 71l187 136l186 -136z" />
    <glyph glyph-name="idieresis" unicode="&#xef;" horiz-adv-x="256" 
d="M187 0h-118v505h118v-505zM78 646q0 -26 -20.5 -45t-50.5 -19q-27 0 -47 19t-20 45q0 27 20 46t47 19q30 0 50.5 -18.5t20.5 -46.5zM318 646q0 -27 -19.5 -45.5t-50.5 -18.5q-29 0 -48.5 18.5t-19.5 45.5q0 28 19.5 46.5t48.5 18.5q32 0 51 -18.5t19 -46.5z" />
    <glyph glyph-name="eth" unicode="&#xf0;" horiz-adv-x="615" 
d="M521 714l-105 -62q68 -91 112 -195.5t44 -196.5q0 -121 -75 -197.5t-192 -76.5q-118 0 -193.5 76t-75.5 178q0 106 78 182t175 76q72 0 127 -46q-19 51 -91 146l-82 -49l-49 68l78 46q-94 109 -170 157h162q50 -47 99 -103l116 68zM304 83q63 0 104.5 43t41.5 111
q0 67 -41 115t-108 48t-105 -47.5t-38 -110.5q0 -64 39 -111.5t107 -47.5z" />
    <glyph glyph-name="ntilde" unicode="&#xf1;" horiz-adv-x="577" 
d="M515 0h-118v275q0 72 -20 106t-78 34q-33 0 -67 -19.5t-49 -38.5v-357h-118v505h118v-52q71 66 162 66q170 0 170 -182v-337zM441 740l49 -79q-78 -78 -139 -78q-31 0 -72.5 24.5t-61.5 24.5q-9 0 -18.5 -2.5t-19.5 -9t-16 -11t-18 -14t-16 -13.5l-58 73q31 28 73 53
t76 25q27 0 67.5 -25.5t59.5 -25.5q42 0 94 58z" />
    <glyph glyph-name="ograve" unicode="&#xf2;" horiz-adv-x="617" 
d="M581 251q0 -110 -79.5 -187.5t-193.5 -77.5q-115 0 -193.5 77t-78.5 188q0 112 79.5 190t195.5 78q114 0 192 -78.5t78 -189.5zM307 83q68 0 108.5 45.5t40.5 122.5q0 74 -42.5 121.5t-103.5 47.5q-66 0 -109 -47.5t-43 -124.5q0 -71 44.5 -118t104.5 -47zM401 633
l-76 -50l-192 163l100 73z" />
    <glyph glyph-name="oacute" unicode="&#xf3;" horiz-adv-x="617" 
d="M581 251q0 -110 -79.5 -187.5t-193.5 -77.5q-115 0 -193.5 77t-78.5 188q0 112 79.5 190t195.5 78q114 0 192 -78.5t78 -189.5zM307 83q68 0 108.5 45.5t40.5 122.5q0 74 -42.5 121.5t-103.5 47.5q-66 0 -109 -47.5t-43 -124.5q0 -71 44.5 -118t104.5 -47zM469 746
l-192 -163l-76 50l168 186z" />
    <glyph glyph-name="ocircumflex" unicode="&#xf4;" horiz-adv-x="617" 
d="M581 251q0 -110 -79.5 -187.5t-193.5 -77.5q-115 0 -193.5 77t-78.5 188q0 112 79.5 190t195.5 78q114 0 192 -78.5t78 -189.5zM307 83q68 0 108.5 45.5t40.5 122.5q0 74 -42.5 121.5t-103.5 47.5q-66 0 -109 -47.5t-43 -124.5q0 -71 44.5 -118t104.5 -47zM434 562
l-125 93l-123 -93l-64 71l188 136l186 -136z" />
    <glyph glyph-name="otilde" unicode="&#xf5;" horiz-adv-x="617" 
d="M581 251q0 -110 -79.5 -187.5t-193.5 -77.5q-115 0 -193.5 77t-78.5 188q0 112 79.5 190t195.5 78q114 0 192 -78.5t78 -189.5zM307 83q68 0 108.5 45.5t40.5 122.5q0 74 -42.5 121.5t-103.5 47.5q-66 0 -109 -47.5t-43 -124.5q0 -71 44.5 -118t104.5 -47zM469 740
l49 -79q-78 -78 -139 -78q-31 0 -72.5 24.5t-61.5 24.5q-9 0 -18.5 -2.5t-19.5 -9t-16 -11t-18 -14t-16 -13.5l-58 73q31 28 73 53t76 25q27 0 67.5 -25.5t59.5 -25.5q42 0 94 58z" />
    <glyph glyph-name="odieresis" unicode="&#xf6;" horiz-adv-x="617" 
d="M581 251q0 -110 -79.5 -187.5t-193.5 -77.5q-115 0 -193.5 77t-78.5 188q0 112 79.5 190t195.5 78q114 0 192 -78.5t78 -189.5zM307 83q68 0 108.5 45.5t40.5 122.5q0 74 -42.5 121.5t-103.5 47.5q-66 0 -109 -47.5t-43 -124.5q0 -71 44.5 -118t104.5 -47zM258 653
q0 -26 -20.5 -45t-50.5 -19q-28 0 -48 19t-20 45q0 27 20 46t48 19q30 0 50.5 -18.5t20.5 -46.5zM498 653q0 -27 -19.5 -45.5t-50.5 -18.5q-29 0 -48.5 18.5t-19.5 45.5q0 28 19.5 46.5t48.5 18.5q32 0 51 -18.5t19 -46.5z" />
    <glyph glyph-name="divide" unicode="&#xf7;" horiz-adv-x="698" 
d="M418 157q0 -27 -19 -46t-50 -19q-27 0 -46.5 19.5t-19.5 45.5t19.5 45t46.5 19q31 0 50 -18.5t19 -45.5zM418 556q0 -26 -19 -44t-50 -18q-27 0 -46.5 18.5t-19.5 43.5q0 27 19.5 46t46.5 19q32 0 50.5 -18.5t18.5 -46.5zM635 314h-572v99h572v-99z" />
    <glyph glyph-name="oslash" unicode="&#xf8;" horiz-adv-x="617" 
d="M168 -146l-90 34l69 143q-52 37 -81.5 93.5t-29.5 122.5q0 112 79.5 190t195.5 78q32 0 64 -8l64 132l93 -38l-66 -134q53 -37 84 -95t31 -125q0 -110 -79.5 -187.5t-193.5 -77.5q-35 0 -73 10zM417 365l-138 -283q13 -3 28 -3q68 0 108.5 45.5t40.5 122.5q0 69 -39 118z
M196 133l135 281q-14 2 -21 2q-66 0 -109 -47.5t-43 -124.5q0 -67 38 -111z" />
    <glyph glyph-name="ugrave" unicode="&#xf9;" horiz-adv-x="576" 
d="M394 110v395h118v-450q-80 -69 -224 -69q-103 0 -165 50t-62 145v324h118v-295q0 -127 121 -127q57 0 94 27zM386 633l-76 -50l-192 163l100 73z" />
    <glyph glyph-name="uacute" unicode="&#xfa;" horiz-adv-x="576" 
d="M394 110v395h118v-450q-80 -69 -224 -69q-103 0 -165 50t-62 145v324h118v-295q0 -127 121 -127q57 0 94 27zM491 746l-192 -163l-76 50l168 186z" />
    <glyph glyph-name="ucircumflex" unicode="&#xfb;" horiz-adv-x="576" 
d="M394 110v395h118v-450q-80 -69 -224 -69q-103 0 -165 50t-62 145v324h118v-295q0 -127 121 -127q57 0 94 27zM414 572l-125 93l-123 -93l-64 71l188 136l186 -136z" />
    <glyph glyph-name="udieresis" unicode="&#xfc;" horiz-adv-x="576" 
d="M394 110v395h118v-450q-80 -69 -224 -69q-103 0 -165 50t-62 145v324h118v-295q0 -127 121 -127q57 0 94 27zM238 646q0 -26 -20.5 -45t-50.5 -19q-28 0 -48 19t-20 45q0 27 20 46t48 19q30 0 50.5 -18.5t20.5 -46.5zM478 646q0 -27 -19.5 -45.5t-50.5 -18.5
q-29 0 -48.5 18.5t-19.5 45.5q0 28 19.5 46.5t48.5 18.5q32 0 51 -18.5t19 -46.5z" />
    <glyph glyph-name="yacute" unicode="&#xfd;" horiz-adv-x="559" 
d="M166 -255h-133l178 320l-212 440h130l149 -319l149 319h136zM474 746l-192 -163l-76 50l168 186z" />
    <glyph glyph-name="thorn" unicode="&#xfe;" 
d="M183 -254h-118v1074h118v-314q42 13 106 13q114 0 194 -69.5t80 -196.5q0 -110 -66.5 -188.5t-180.5 -78.5q-33 0 -70.5 13.5t-62.5 34.5v-288zM183 396v-256q19 -25 54.5 -40.5t71.5 -15.5q54 0 92 46.5t38 121.5q0 74 -43.5 121t-116.5 47q-62 0 -96 -24z" />
    <glyph glyph-name="ydieresis" unicode="&#xff;" horiz-adv-x="559" 
d="M166 -255h-133l178 320l-212 440h130l149 -319l149 319h136zM229 646q0 -26 -20.5 -45t-50.5 -19q-28 0 -48 19t-20 45q0 27 20 46t48 19q30 0 50.5 -18.5t20.5 -46.5zM469 646q0 -27 -19.5 -45.5t-50.5 -18.5q-29 0 -48.5 18.5t-19.5 45.5q0 28 19.5 46.5t48.5 18.5
q32 0 51 -18.5t19 -46.5z" />
    <glyph glyph-name="Amacron" unicode="&#x100;" horiz-adv-x="747" 
d="M586 852h-427v99h427v-99zM760 0h-143l-69 148h-351l-68 -148h-142l387 788zM495 264l-109 235q-12 23 -13 36q-1 -6 -15 -36l-108 -235h245z" />
    <glyph glyph-name="amacron" unicode="&#x101;" horiz-adv-x="541" 
d="M371 106v88q-18 17 -51.5 30t-68.5 13q-48 0 -75 -23t-27 -55t29 -56t84 -24q66 0 109 27zM484 318v-265q-31 -28 -92.5 -47.5t-130.5 -19.5q-115 0 -175 53.5t-60 124.5q0 69 54 117t144 48q99 0 147 -45v59q0 38 -25 58t-86 20q-70 0 -141 -29l-36 86q86 41 190 41
q118 0 164.5 -51t46.5 -150zM482 600h-427v99h427v-99z" />
    <glyph glyph-name="Abreve" unicode="&#x102;" horiz-adv-x="747" 
d="M442 1007h108q-4 -66 -51 -119t-130 -53q-69 0 -118 45.5t-55 126.5h111q0 -13 3 -29t18 -35t40 -19q31 0 49.5 21t21.5 36.5t3 25.5zM760 0h-143l-69 148h-351l-68 -148h-142l387 788zM495 264l-109 235q-12 23 -13 36q-1 -6 -15 -36l-108 -235h245z" />
    <glyph glyph-name="abreve" unicode="&#x103;" horiz-adv-x="541" 
d="M371 106v88q-18 17 -51.5 30t-68.5 13q-48 0 -75 -23t-27 -55t29 -56t84 -24q66 0 109 27zM484 318v-265q-31 -28 -92.5 -47.5t-130.5 -19.5q-115 0 -175 53.5t-60 124.5q0 69 54 117t144 48q99 0 147 -45v59q0 38 -25 58t-86 20q-70 0 -141 -29l-36 86q86 41 190 41
q118 0 164.5 -51t46.5 -150zM337 755h108q-4 -66 -51 -119t-130 -53q-69 0 -118 45.5t-55 126.5h111q0 -13 3 -29t18 -35t40 -19q31 0 49.5 21t21.5 36.5t3 25.5z" />
    <glyph glyph-name="Aogonek" unicode="&#x104;" horiz-adv-x="746" 
d="M779 -114v-78q-57 -34 -119 -34q-56 0 -88.5 28t-32.5 71q0 71 78 127l-69 148h-351l-68 -148h-142l387 788l388 -792q-122 -41 -122 -106q0 -29 45 -29q55 0 94 25zM495 264l-109 235q-12 27 -13 35q-5 -15 -15 -35l-108 -235h245z" />
    <glyph glyph-name="aogonek" unicode="&#x105;" horiz-adv-x="541" 
d="M473 -106v-78q-57 -34 -119 -34q-56 0 -88.5 28t-32.5 71q0 54 61 107q-22 -2 -33 -2q-115 0 -175 53.5t-60 124.5q0 69 54 117t144 48q99 0 147 -45v59q0 38 -25 58t-86 20q-70 0 -141 -29l-36 86q86 41 190 41q118 0 164.5 -51t46.5 -150v-265q-23 -22 -80 -44
q-28 -10 -50 -41t-22 -59q0 -40 47 -40q55 0 94 25zM371 106v88q-18 17 -51.5 30t-68.5 13q-48 0 -75 -23t-27 -55t29 -56t84 -24q66 0 109 27z" />
    <glyph glyph-name="Cacute" unicode="&#x106;" horiz-adv-x="762" 
d="M670 167l59 -83q-105 -100 -267 -100q-181 0 -300.5 115.5t-119.5 280.5q0 163 115 278.5t291 115.5q101 0 174 -36t102 -71l-68 -89q-82 80 -208 80q-123 0 -196.5 -81t-73.5 -194q0 -120 82 -202.5t208 -82.5q65 0 120.5 21.5t81.5 47.5zM600 878l-318 -49l-31 84
l302 69z" />
    <glyph glyph-name="cacute" unicode="&#x107;" horiz-adv-x="520" 
d="M458 140l38 -82q-72 -72 -199 -72q-97 0 -179 74t-82 192q0 113 80.5 190t192.5 77q57 0 105.5 -20.5t66.5 -38.5l-45 -89q-53 49 -122 49q-64 0 -110 -45.5t-46 -123.5q0 -73 45 -121t111 -48q92 0 144 58zM435 746l-192 -163l-76 50l168 186z" />
    <glyph glyph-name="Ccircumflex" unicode="&#x108;" horiz-adv-x="762" 
d="M670 167l59 -83q-105 -100 -267 -100q-181 0 -300.5 115.5t-119.5 280.5q0 163 115 278.5t291 115.5q101 0 174 -36t102 -71l-68 -89q-82 80 -208 80q-123 0 -196.5 -81t-73.5 -194q0 -120 82 -202.5t208 -82.5q65 0 120.5 21.5t81.5 47.5zM594 821l-160 59l-167 -59
l-48 72l216 101l218 -105z" />
    <glyph glyph-name="ccircumflex" unicode="&#x109;" horiz-adv-x="520" 
d="M458 140l38 -82q-72 -72 -199 -72q-97 0 -179 74t-82 192q0 113 80.5 190t192.5 77q57 0 105.5 -20.5t66.5 -38.5l-45 -89q-53 49 -122 49q-64 0 -110 -45.5t-46 -123.5q0 -73 45 -121t111 -48q92 0 144 58zM409 572l-125 93l-123 -93l-64 71l188 136l186 -136z" />
    <glyph glyph-name="Cdotaccent" unicode="&#x10a;" horiz-adv-x="762" 
d="M670 167l59 -83q-105 -100 -267 -100q-181 0 -300.5 115.5t-119.5 280.5q0 163 115 278.5t291 115.5q101 0 174 -36t102 -71l-68 -89q-82 80 -208 80q-123 0 -196.5 -81t-73.5 -194q0 -120 82 -202.5t208 -82.5q65 0 120.5 21.5t81.5 47.5zM501 892q0 -29 -21 -50
t-52 -21q-29 0 -50.5 21.5t-21.5 49.5q0 30 21.5 52t50.5 22q31 0 52 -21.5t21 -52.5z" />
    <glyph glyph-name="cdotaccent" unicode="&#x10b;" horiz-adv-x="520" 
d="M458 140l38 -82q-72 -72 -199 -72q-97 0 -179 74t-82 192q0 113 80.5 190t192.5 77q57 0 105.5 -20.5t66.5 -38.5l-45 -89q-53 49 -122 49q-64 0 -110 -45.5t-46 -123.5q0 -73 45 -121t111 -48q92 0 144 58zM347 654q0 -29 -21 -50t-52 -21q-29 0 -50.5 21.5t-21.5 49.5
q0 30 21.5 52t50.5 22q31 0 52 -21.5t21 -52.5z" />
    <glyph glyph-name="Ccaron" unicode="&#x10c;" horiz-adv-x="762" 
d="M670 167l59 -83q-105 -100 -267 -100q-181 0 -300.5 115.5t-119.5 280.5q0 163 115 278.5t291 115.5q101 0 174 -36t102 -71l-68 -89q-82 80 -208 80q-123 0 -196.5 -81t-73.5 -194q0 -120 82 -202.5t208 -82.5q65 0 120.5 21.5t81.5 47.5zM647 925l-218 -105l-216 103
l48 72l167 -62l160 60z" />
    <glyph glyph-name="ccaron" unicode="&#x10d;" horiz-adv-x="520" 
d="M458 140l38 -82q-72 -72 -199 -72q-97 0 -179 74t-82 192q0 113 80.5 190t192.5 77q57 0 105.5 -20.5t66.5 -38.5l-45 -89q-53 49 -122 49q-64 0 -110 -45.5t-46 -123.5q0 -73 45 -121t111 -48q92 0 144 58zM468 714l-186 -136l-188 136l64 71l123 -93l125 93z" />
    <glyph glyph-name="Dcaron" unicode="&#x10e;" horiz-adv-x="760" 
d="M285 0h-200v757h219q177 0 293.5 -100t116.5 -279q0 -178 -116.5 -278t-312.5 -100zM213 116h89q122 0 199 65t77 200q0 117 -73 188.5t-188 71.5h-104v-525zM561 922l-218 -105l-216 103l48 72l167 -62l160 60z" />
    <glyph glyph-name="dcaron" unicode="&#x10f;" horiz-adv-x="637" 
d="M418 109v267q-18 20 -49.5 32.5t-64.5 12.5q-65 0 -104 -48.5t-39 -126.5q0 -72 45.5 -117.5t108.5 -45.5q62 0 103 26zM418 485v335h118v-772q-97 -62 -221 -62q-114 0 -196 69t-82 191q0 121 73.5 197t190.5 76q70 0 117 -34zM687 563h-82l80 232h126z" />
    <glyph glyph-name="Dcroat" unicode="&#x110;" horiz-adv-x="781" 
d="M306 0h-200v323h-93v112h93v322h219q177 0 293.5 -100t116.5 -279q0 -178 -116.5 -278t-312.5 -100zM234 116h89q122 0 199 65t77 200q0 117 -73 188.5t-188 71.5h-104v-206h174v-112h-174v-207z" />
    <glyph glyph-name="dcroat" unicode="&#x111;" horiz-adv-x="599" 
d="M607 627h-71v-579q-97 -62 -221 -62q-114 0 -196 69t-82 191q0 121 73.5 197t190.5 76q70 0 117 -34v142h-180l13 88h167v105h118v-105h84zM418 109v267q-18 20 -49.5 32.5t-64.5 12.5q-65 0 -104 -48.5t-39 -126.5q0 -72 45.5 -117.5t108.5 -45.5q62 0 103 26z" />
    <glyph glyph-name="Emacron" unicode="&#x112;" horiz-adv-x="594" 
d="M555 1h-470v755h438v-116h-310v-180h250v-116h-250v-227h342v-116zM517 852h-427v99h427v-99z" />
    <glyph glyph-name="emacron" unicode="&#x113;" horiz-adv-x="583" 
d="M492 136l37 -84q-26 -23 -83.5 -44.5t-129.5 -21.5q-126 0 -202.5 71.5t-76.5 191.5q0 118 73 194t191 76q117 0 181.5 -75.5t64.5 -186.5v-49h-388q6 -53 52 -89t125 -36q88 0 156 53zM160 303h264q-2 52 -35.5 87.5t-89.5 35.5q-54 0 -93 -33t-46 -90zM510 600h-427v99
h427v-99z" />
    <glyph glyph-name="Edotaccent" unicode="&#x116;" horiz-adv-x="594" 
d="M555 1h-470v755h438v-116h-310v-180h250v-116h-250v-227h342v-116zM387 891q0 -29 -21 -50t-52 -21q-29 0 -50.5 21.5t-21.5 49.5q0 30 21.5 52t50.5 22q31 0 52 -21.5t21 -52.5z" />
    <glyph glyph-name="edotaccent" unicode="&#x117;" horiz-adv-x="583" 
d="M492 136l37 -84q-26 -23 -83.5 -44.5t-129.5 -21.5q-126 0 -202.5 71.5t-76.5 191.5q0 118 73 194t191 76q117 0 181.5 -75.5t64.5 -186.5v-49h-388q6 -53 52 -89t125 -36q88 0 156 53zM160 303h264q-2 52 -35.5 87.5t-89.5 35.5q-54 0 -93 -33t-46 -90zM369 654
q0 -29 -21 -50t-52 -21q-29 0 -50.5 21.5t-21.5 49.5q0 30 21.5 52t50.5 22q31 0 52 -21.5t21 -52.5z" />
    <glyph glyph-name="Eogonek" unicode="&#x118;" horiz-adv-x="594" 
d="M515 -114v-78q-57 -34 -119 -34q-56 0 -88.5 28t-32.5 71q0 73 81 128h-271v755h438v-116h-310v-180h250v-116h-250v-227h342v-116h-109q-70 -58 -70 -111q0 -29 45 -29q55 0 94 25z" />
    <glyph glyph-name="eogonek" unicode="&#x119;" horiz-adv-x="583" 
d="M505 -123v-78q-57 -34 -119 -34q-56 0 -88.5 28t-32.5 71q0 68 72 123q-7 -1 -21 -1q-126 0 -202.5 71.5t-76.5 191.5q0 118 73 194t191 76q117 0 181.5 -75.5t64.5 -186.5v-49h-388q6 -53 52 -89t125 -36q88 0 156 53l37 -84q-23 -21 -66 -39q-97 -70 -97 -132
q0 -29 45 -29q55 0 94 25zM160 303h264q-2 52 -35.5 87.5t-89.5 35.5q-54 0 -93 -33t-46 -90z" />
    <glyph glyph-name="Ecaron" unicode="&#x11a;" horiz-adv-x="594" 
d="M555 1h-470v755h438v-116h-310v-180h250v-116h-250v-227h342v-116zM524 923l-218 -105l-216 103l48 72l167 -62l160 60z" />
    <glyph glyph-name="ecaron" unicode="&#x11b;" horiz-adv-x="583" 
d="M492 136l37 -84q-26 -23 -83.5 -44.5t-129.5 -21.5q-126 0 -202.5 71.5t-76.5 191.5q0 118 73 194t191 76q117 0 181.5 -75.5t64.5 -186.5v-49h-388q6 -53 52 -89t125 -36q88 0 156 53zM160 303h264q-2 52 -35.5 87.5t-89.5 35.5q-54 0 -93 -33t-46 -90zM484 714
l-186 -136l-188 136l64 71l123 -93l125 93z" />
    <glyph glyph-name="Gcircumflex" unicode="&#x11c;" horiz-adv-x="850" 
d="M688 289h-194v109h328q-1 -107 -32.5 -189t-84.5 -130t-117 -72t-137 -24q-172 0 -290.5 114t-118.5 278q0 167 117.5 283t289.5 116q51 0 99.5 -10t80 -23.5t59 -30t37.5 -24.5t15 -13l-65 -96q-6 8 -28.5 24.5t-78 36.5t-117.5 20q-122 0 -197.5 -81t-75.5 -203
q0 -107 76.5 -191.5t197.5 -84.5q96 0 162.5 54t73.5 137zM614 817l-160 59l-167 -59l-48 72l216 101l218 -105z" />
    <glyph glyph-name="gcircumflex" unicode="&#x11d;" horiz-adv-x="593" 
d="M411 -39v84q-25 -27 -64 -43t-73 -16q-95 0 -166 73.5t-71 192.5q0 125 81 196t197 71q120 0 214 -52v-490q0 -69 -21 -119t-57 -76.5t-77 -39t-88 -12.5q-133 0 -228 61l49 90q25 -19 73 -36t103 -17q57 0 92.5 31t35.5 102zM411 145v256q-47 21 -92 21
q-67 0 -112.5 -42.5t-45.5 -127.5q0 -63 35 -115.5t100 -52.5q38 0 68.5 17t46.5 44zM421 572l-125 93l-123 -93l-64 71l188 136l186 -136z" />
    <glyph glyph-name="Gbreve" unicode="&#x11e;" horiz-adv-x="850" 
d="M688 289h-194v109h328q-1 -107 -32.5 -189t-84.5 -130t-117 -72t-137 -24q-172 0 -290.5 114t-118.5 278q0 167 117.5 283t289.5 116q51 0 99.5 -10t80 -23.5t59 -30t37.5 -24.5t15 -13l-65 -96q-6 8 -28.5 24.5t-78 36.5t-117.5 20q-122 0 -197.5 -81t-75.5 -203
q0 -107 76.5 -191.5t197.5 -84.5q96 0 162.5 54t73.5 137zM505 1007h108q-4 -66 -51 -119t-130 -53q-69 0 -118 45.5t-55 126.5h111q0 -13 3 -29t18 -35t40 -19q31 0 49.5 21t21.5 36.5t3 25.5z" />
    <glyph glyph-name="gbreve" unicode="&#x11f;" horiz-adv-x="593" 
d="M411 -39v84q-25 -27 -64 -43t-73 -16q-95 0 -166 73.5t-71 192.5q0 125 81 196t197 71q120 0 214 -52v-490q0 -69 -21 -119t-57 -76.5t-77 -39t-88 -12.5q-133 0 -228 61l49 90q25 -19 73 -36t103 -17q57 0 92.5 31t35.5 102zM411 145v256q-47 21 -92 21
q-67 0 -112.5 -42.5t-45.5 -127.5q0 -63 35 -115.5t100 -52.5q38 0 68.5 17t46.5 44zM365 755h108q-4 -66 -51 -119t-130 -53q-69 0 -118 45.5t-55 126.5h111q0 -13 3 -29t18 -35t40 -19q31 0 49.5 21t21.5 36.5t3 25.5z" />
    <glyph glyph-name="Gdotaccent" unicode="&#x120;" horiz-adv-x="850" 
d="M688 289h-194v109h328q-1 -107 -32.5 -189t-84.5 -130t-117 -72t-137 -24q-172 0 -290.5 114t-118.5 278q0 167 117.5 283t289.5 116q51 0 99.5 -10t80 -23.5t59 -30t37.5 -24.5t15 -13l-65 -96q-6 8 -28.5 24.5t-78 36.5t-117.5 20q-122 0 -197.5 -81t-75.5 -203
q0 -107 76.5 -191.5t197.5 -84.5q96 0 162.5 54t73.5 137zM508 906q0 -29 -21 -50t-52 -21q-29 0 -50.5 21.5t-21.5 49.5q0 30 21.5 52t50.5 22q31 0 52 -21.5t21 -52.5z" />
    <glyph glyph-name="gdotaccent" unicode="&#x121;" horiz-adv-x="593" 
d="M411 -39v84q-25 -27 -64 -43t-73 -16q-95 0 -166 73.5t-71 192.5q0 125 81 196t197 71q120 0 214 -52v-490q0 -69 -21 -119t-57 -76.5t-77 -39t-88 -12.5q-133 0 -228 61l49 90q25 -19 73 -36t103 -17q57 0 92.5 31t35.5 102zM411 145v256q-47 21 -92 21
q-67 0 -112.5 -42.5t-45.5 -127.5q0 -63 35 -115.5t100 -52.5q38 0 68.5 17t46.5 44zM369 654q0 -29 -21 -50t-52 -21q-29 0 -50.5 21.5t-21.5 49.5q0 30 21.5 52t50.5 22q31 0 52 -21.5t21 -52.5z" />
    <glyph glyph-name="Gcommaaccent" unicode="&#x122;" horiz-adv-x="850" 
d="M688 289h-194v109h328q-1 -107 -32.5 -189t-84.5 -130t-117 -72t-137 -24q-172 0 -290.5 114t-118.5 278q0 167 117.5 283t289.5 116q51 0 99.5 -10t80 -23.5t59 -30t37.5 -24.5t15 -13l-65 -96q-6 8 -28.5 24.5t-78 36.5t-117.5 20q-122 0 -197.5 -81t-75.5 -203
q0 -107 76.5 -191.5t197.5 -84.5q96 0 162.5 54t73.5 137zM430 -258h-101l74 205h139z" />
    <glyph glyph-name="gcommaaccent" unicode="&#x123;" horiz-adv-x="593" 
d="M411 -39v84q-25 -27 -64 -43t-73 -16q-95 0 -166 73.5t-71 192.5q0 125 81 196t197 71q120 0 214 -52v-490q0 -69 -21 -119t-57 -76.5t-77 -39t-88 -12.5q-133 0 -228 61l49 90q25 -19 73 -36t103 -17q57 0 92.5 31t35.5 102zM411 145v256q-47 21 -92 21
q-67 0 -112.5 -42.5t-45.5 -127.5q0 -63 35 -115.5t100 -52.5q38 0 68.5 17t46.5 44zM348 583h-139l112 205h101z" />
    <glyph glyph-name="Hcircumflex" unicode="&#x124;" horiz-adv-x="784" 
d="M699 0h-128v328h-358v-328h-128v757h128v-313h358v313h128v-757zM552 821l-160 59l-167 -59l-48 72l216 101l218 -105z" />
    <glyph glyph-name="hcircumflex" unicode="&#x125;" horiz-adv-x="577" 
d="M515 0h-118v275q0 72 -20 106t-78 34q-33 0 -67 -19.5t-49 -38.5v-357h-118v820h118v-367q71 66 162 66q170 0 170 -182v-337zM249 846l-125 93l-123 -93l-63 71l187 136l186 -136z" />
    <glyph glyph-name="Hbar" unicode="&#x126;" horiz-adv-x="786" 
d="M700 0h-128v328h-358v-328h-128v553h-57v99h57v105h128v-105h358v105h128v-105h56v-99h-56v-553zM572 444v109h-358v-109h358z" />
    <glyph glyph-name="hbar" unicode="&#x127;" horiz-adv-x="577" 
d="M515 0h-118v275q0 72 -20 106t-78 34q-33 0 -67 -19.5t-49 -38.5v-357h-118v627h-70l12 88h58v105h118v-105h193l-13 -88h-180v-174q71 66 162 66q170 0 170 -182v-337z" />
    <glyph glyph-name="Itilde" unicode="&#x128;" horiz-adv-x="298" 
d="M213 0h-128v757h128v-757zM310 976l56 -84q-82 -73 -146 -73q-31 0 -72.5 24.5t-61.5 24.5q-36 0 -97 -50l-55 77q27 24 73.5 49t81.5 25q27 0 67.5 -25.5t59.5 -25.5q42 0 94 58z" />
    <glyph glyph-name="itilde" unicode="&#x129;" horiz-adv-x="256" 
d="M187 0h-118v505h118v-505zM290 740l49 -79q-78 -78 -139 -78q-31 0 -72.5 24.5t-61.5 24.5q-9 0 -18 -2.5t-19.5 -9t-16 -10.5t-18 -15t-15.5 -13l-58 73q87 78 148 78q27 0 67.5 -25.5t59.5 -25.5q42 0 94 58z" />
    <glyph glyph-name="Imacron" unicode="&#x12a;" horiz-adv-x="298" 
d="M213 0h-128v757h128v-757zM362 852h-426v99h426v-99z" />
    <glyph glyph-name="imacron" unicode="&#x12b;" horiz-adv-x="256" 
d="M187 0h-118v505h118v-505zM343 600h-426v99h426v-99z" />
    <glyph glyph-name="Ibreve" unicode="&#x12c;" horiz-adv-x="298" 
d="M213 0h-128v757h128v-757zM218 991h108q-4 -66 -51 -119t-130 -53q-68 0 -117 45t-55 127h110q0 -13 3 -29t18 -35t40 -19q31 0 49.5 21t21.5 36.5t3 25.5z" />
    <glyph glyph-name="ibreve" unicode="&#x12d;" horiz-adv-x="256" 
d="M187 0h-118v505h118v-505zM199 746h108q-4 -66 -51 -119t-130 -53q-68 0 -117 45t-55 127h110q0 -13 3 -29t18 -35t40 -19q31 0 49.5 21t21.5 36.5t3 25.5z" />
    <glyph glyph-name="Iogonek" unicode="&#x12e;" horiz-adv-x="298" 
d="M243 -114v-78q-57 -34 -119 -34q-56 0 -88.5 28t-32.5 71q0 73 82 128v756h128v-761q-109 -41 -109 -106q0 -29 45 -29q55 0 94 25z" />
    <glyph glyph-name="iogonek" unicode="&#x12f;" horiz-adv-x="256" 
d="M229 -114v-78q-57 -34 -119 -34q-56 0 -88 28t-32 71q0 73 79 127v505h118v-509q-97 -47 -97 -106q0 -29 45 -29q55 0 94 25zM129 592q-33 0 -54 21t-21 55t21 55t54 21q34 0 55 -21.5t21 -54.5q0 -34 -21.5 -55t-54.5 -21z" />
    <glyph glyph-name="Idotaccent" unicode="&#x130;" horiz-adv-x="298" 
d="M213 0h-128v757h128v-757zM221 891q0 -29 -21 -50t-52 -21q-29 0 -50.5 21.5t-21.5 49.5q0 30 21.5 52t50.5 22q31 0 52 -21.5t21 -52.5z" />
    <glyph glyph-name="IJ" unicode="&#x132;" horiz-adv-x="596" 
d="M213 0h-128v757h128v-757zM270 -257l-46 109q68 23 100 48t45.5 69.5t13.5 129.5v658h128v-663q0 -157 -49 -226t-192 -125z" />
    <glyph glyph-name="ij" unicode="&#x133;" horiz-adv-x="512" 
d="M187 0h-118v505h118v-505zM128 592q-32 0 -53.5 21t-21.5 55t21.5 55t53.5 21q34 0 55 -21.5t21 -54.5q0 -34 -21.5 -55t-54.5 -21zM257 -267l-45 89q30 9 47 15t31.5 19.5t20 23t9.5 36.5t4.5 50t0.5 72v467h118v-469q0 -60 -3.5 -97.5t-13.5 -73t-31 -57.5t-54 -41
t-84 -34zM385 592q-33 0 -54.5 21.5t-21.5 54.5t21.5 54.5t54.5 21.5q34 0 55 -21.5t21 -54.5q0 -34 -21.5 -55t-54.5 -21z" />
    <glyph glyph-name="Jcircumflex" unicode="&#x134;" horiz-adv-x="298" 
d="M-27 -257l-46 109q67 23 99 48t45.5 70t13.5 129v658h128v-663q0 -108 -22.5 -171t-71.5 -102.5t-146 -77.5zM272 824l-125 93l-123 -93l-63 71l187 136l186 -136z" />
    <glyph glyph-name="jcircumflex" unicode="&#x135;" horiz-adv-x="256" 
d="M1 -267l-44 89q30 9 47 15t31 19t19.5 23t9.5 37t4.5 50t0.5 72v467h118v-469q0 -60 -3.5 -97.5t-13.5 -73t-31 -57.5t-54 -41t-84 -34zM249 572l-125 93l-123 -93l-63 71l187 136l186 -136z" />
    <glyph glyph-name="Kcommaaccent" unicode="&#x136;" horiz-adv-x="712" 
d="M734 0h-188l-333 306v-306h-128v757h128v-309l286 309h166l-364 -370zM346 -243h-101l74 205h139z" />
    <glyph glyph-name="kcommaaccent" unicode="&#x137;" horiz-adv-x="529" 
d="M533 0h-161l-189 227v-227h-118v820h118v-515l163 200h147l-207 -232zM248 -243h-101l74 205h139z" />
    <glyph glyph-name="kgreenlandic" unicode="&#x138;" horiz-adv-x="531" 
d="M533 0h-161l-189 227v-227h-118v505h118v-200l163 200h147l-207 -232z" />
    <glyph glyph-name="Lacute" unicode="&#x139;" horiz-adv-x="546" 
d="M530 1h-445v756h128v-640h317v-116zM347 871l-318 -49l-30 84l301 69z" />
    <glyph glyph-name="lacute" unicode="&#x13a;" horiz-adv-x="252" 
d="M185 0h-118v820h118v-820zM306 1035l-192 -163l-76 50l168 186z" />
    <glyph glyph-name="Lcommaaccent" unicode="&#x13b;" horiz-adv-x="546" 
d="M530 1h-445v756h128v-640h317v-116zM276 -243h-101l74 205h139z" />
    <glyph glyph-name="lcommaaccent" unicode="&#x13c;" horiz-adv-x="252" 
d="M185 0h-118v820h118v-820zM121 -243h-101l74 205h139z" />
    <glyph glyph-name="Lcaron" unicode="&#x13d;" horiz-adv-x="548" 
d="M530 1h-445v756h128v-640h317v-116zM425 588h-82l80 232h126z" />
    <glyph glyph-name="lcaron" unicode="&#x13e;" horiz-adv-x="287" 
d="M336 563h-82l80 232h126zM185 0h-118v820h118v-820z" />
    <glyph glyph-name="Ldot" unicode="&#x13f;" horiz-adv-x="575" 
d="M530 1h-445v756h128v-640h317v-116zM531 404q0 -27 -22.5 -48t-54.5 -21q-31 0 -53.5 20.5t-22.5 48.5q0 30 22.5 50.5t53.5 20.5q33 0 55 -20t22 -51z" />
    <glyph glyph-name="ldot" unicode="&#x140;" horiz-adv-x="410" 
d="M185 0h-118v820h118v-820zM408 402q0 -27 -22.5 -48t-54.5 -21q-31 0 -53.5 20.5t-22.5 48.5q0 30 22.5 50.5t53.5 20.5q33 0 55 -20t22 -51z" />
    <glyph glyph-name="Lslash" unicode="&#x141;" horiz-adv-x="556" 
d="M540 1h-445v196l-78 -46v124l78 47v435h128v-361l157 92v-124l-157 -93v-154h317v-116z" />
    <glyph glyph-name="lslash" unicode="&#x142;" horiz-adv-x="323" 
d="M215 0h-118v218l-70 -45v120l70 45v482h118v-406l79 53v-122l-79 -52v-293z" />
    <glyph glyph-name="Nacute" unicode="&#x143;" horiz-adv-x="857" 
d="M772 -27l-562 506l2 -479h-128l1 778l562 -518l-2 497h128zM612 872l-318 -49l-31 84l302 69z" />
    <glyph glyph-name="nacute" unicode="&#x144;" horiz-adv-x="577" 
d="M515 0h-118v275q0 72 -20 106t-78 34q-33 0 -67 -19.5t-49 -38.5v-357h-118v505h118v-52q71 66 162 66q170 0 170 -182v-337zM458 746l-192 -163l-76 50l168 186z" />
    <glyph glyph-name="Ncommaaccent" unicode="&#x145;" horiz-adv-x="857" 
d="M772 -27l-562 506l2 -479h-128l1 778l562 -518l-2 497h128zM423 -243h-101l74 205h139z" />
    <glyph glyph-name="ncommaaccent" unicode="&#x146;" horiz-adv-x="577" 
d="M515 0h-118v275q0 72 -20 106t-78 34q-33 0 -67 -19.5t-49 -38.5v-357h-118v505h118v-52q71 66 162 66q170 0 170 -182v-337zM284 -243h-101l74 205h139z" />
    <glyph glyph-name="Ncaron" unicode="&#x147;" horiz-adv-x="857" 
d="M772 -27l-562 506l2 -479h-128l1 778l562 -518l-2 497h128zM645 919l-218 -105l-216 103l48 72l167 -62l160 60z" />
    <glyph glyph-name="ncaron" unicode="&#x148;" horiz-adv-x="577" 
d="M515 0h-118v275q0 72 -20 106t-78 34q-33 0 -67 -19.5t-49 -38.5v-357h-118v505h118v-52q71 66 162 66q170 0 170 -182v-337zM479 714l-186 -136l-188 136l64 71l123 -93l125 93z" />
    <glyph glyph-name="napostrophe" unicode="&#x149;" horiz-adv-x="613" 
d="M551 0h-118v275q0 72 -20 106t-78 34q-33 0 -67 -19.5t-49 -38.5v-357h-118v505h118v-52q71 66 162 66q170 0 170 -182v-337zM0 467h-101l74 205h138z" />
    <glyph glyph-name="Eng" unicode="&#x14a;" horiz-adv-x="858" 
d="M532 -257l-46 109q95 32 126.5 76t32.5 158l-435 393l2 -479h-128l1 778l560 -515v494h128v-663q0 -157 -49 -226t-192 -125z" />
    <glyph glyph-name="eng" unicode="&#x14b;" horiz-adv-x="577" 
d="M329 -267l-45 89q30 9 47 15t31.5 19.5t20 23t9.5 36.5t4.5 50t0.5 72v237q0 72 -20 106t-78 34q-33 0 -67 -19.5t-49 -38.5v-357h-118v505h118v-52q71 66 162 66q170 0 170 -182v-301q0 -60 -3.5 -97.5t-13.5 -73t-31 -57.5t-54 -41t-84 -34z" />
    <glyph glyph-name="Omacron" unicode="&#x14c;" horiz-adv-x="907" 
d="M865 375q0 -161 -121.5 -276t-288.5 -115q-172 0 -292.5 115.5t-120.5 278.5t120.5 279.5t292.5 116.5t291 -114.5t119 -284.5zM729 376q0 120 -80.5 201t-193.5 81q-115 0 -196 -80t-81 -196q0 -112 80 -198t190 -86q118 0 199.5 81t81.5 197zM667 852h-427v99h427v-99z
" />
    <glyph glyph-name="omacron" unicode="&#x14d;" horiz-adv-x="617" 
d="M581 251q0 -110 -79.5 -187.5t-193.5 -77.5q-115 0 -193.5 77t-78.5 188q0 112 79.5 190t195.5 78q114 0 192 -78.5t78 -189.5zM307 83q68 0 108.5 45.5t40.5 122.5q0 74 -42.5 121.5t-103.5 47.5q-66 0 -109 -47.5t-43 -124.5q0 -71 44.5 -118t104.5 -47zM522 600h-427
v99h427v-99z" />
    <glyph glyph-name="Obreve" unicode="&#x14e;" horiz-adv-x="907" 
d="M865 375q0 -161 -121.5 -276t-288.5 -115q-172 0 -292.5 115.5t-120.5 278.5t120.5 279.5t292.5 116.5t291 -114.5t119 -284.5zM729 376q0 120 -80.5 201t-193.5 81q-115 0 -196 -80t-81 -196q0 -112 80 -198t190 -86q118 0 199.5 81t81.5 197zM523 1007h108
q-4 -66 -51 -119t-130 -53q-69 0 -118 45.5t-55 126.5h111q0 -13 3 -29t18 -35t40 -19q31 0 49.5 21t21.5 36.5t3 25.5z" />
    <glyph glyph-name="obreve" unicode="&#x14f;" horiz-adv-x="617" 
d="M581 251q0 -110 -79.5 -187.5t-193.5 -77.5q-115 0 -193.5 77t-78.5 188q0 112 79.5 190t195.5 78q114 0 192 -78.5t78 -189.5zM307 83q68 0 108.5 45.5t40.5 122.5q0 74 -42.5 121.5t-103.5 47.5q-66 0 -109 -47.5t-43 -124.5q0 -71 44.5 -118t104.5 -47zM377 755h108
q-4 -66 -51 -119t-130 -53q-69 0 -118 45.5t-55 126.5h111q0 -13 3 -29t18 -35t40 -19q31 0 49.5 21t21.5 36.5t3 25.5z" />
    <glyph glyph-name="Ohungarumlaut" unicode="&#x150;" horiz-adv-x="907" 
d="M865 375q0 -161 -121.5 -276t-288.5 -115q-172 0 -292.5 115.5t-120.5 278.5t120.5 279.5t292.5 116.5t291 -114.5t119 -284.5zM729 376q0 120 -80.5 201t-193.5 81q-115 0 -196 -80t-81 -196q0 -112 80 -198t190 -86q118 0 199.5 81t81.5 197zM499 949l-216 -131l-46 57
l191 164zM731 949l-216 -131l-46 57l191 164z" />
    <glyph glyph-name="ohungarumlaut" unicode="&#x151;" horiz-adv-x="617" 
d="M581 251q0 -110 -79.5 -187.5t-193.5 -77.5q-115 0 -193.5 77t-78.5 188q0 112 79.5 190t195.5 78q114 0 192 -78.5t78 -189.5zM307 83q68 0 108.5 45.5t40.5 122.5q0 74 -42.5 121.5t-103.5 47.5q-66 0 -109 -47.5t-43 -124.5q0 -71 44.5 -118t104.5 -47zM353 713
l-216 -131l-46 57l191 164zM585 713l-216 -131l-46 57l191 164z" />
    <glyph glyph-name="OE" unicode="&#x152;" horiz-adv-x="1239" 
d="M1200 1h-470v110q-103 -127 -275 -127t-292.5 115.5t-120.5 278.5t120.5 279.5t292.5 116.5q78 0 150.5 -31t124.5 -94v107h438v-116h-310v-180h250v-116h-250v-227h342v-116zM729 376q0 120 -80.5 201t-193.5 81q-115 0 -196 -80t-81 -196q0 -112 80 -198t190 -86
q118 0 199.5 81t81.5 197z" />
    <glyph glyph-name="oe" unicode="&#x153;" horiz-adv-x="1003" 
d="M912 136l37 -84q-26 -23 -83.5 -44.5t-129.5 -21.5q-144 0 -221 91q-81 -91 -207 -91q-115 0 -193.5 77t-78.5 188q0 112 79.5 190t195.5 78q125 0 205 -93q74 93 205 93q117 0 181.5 -75.5t64.5 -186.5v-49h-388q6 -53 52 -89t125 -36q88 0 156 53zM307 83
q68 0 108.5 45.5t40.5 122.5q0 74 -42.5 121.5t-103.5 47.5q-66 0 -109 -47.5t-43 -124.5q0 -71 44.5 -118t104.5 -47zM580 303h264q-2 52 -35.5 87.5t-89.5 35.5q-54 0 -93 -33t-46 -90z" />
    <glyph glyph-name="Racute" unicode="&#x154;" horiz-adv-x="629" 
d="M667 0h-177l-257 280h-20v-280h-128v757h160q47 0 88 -5t85 -20.5t75.5 -40.5t52 -68t20.5 -100q0 -79 -56 -143.5t-142 -80.5zM213 391h50q81 0 125 36t44 89q0 124 -160 124h-59v-249zM474 879l-318 -49l-31 84l302 69z" />
    <glyph glyph-name="racute" unicode="&#x155;" horiz-adv-x="388" 
d="M183 0h-118v505h118v-78q5 12 14 25t22.5 29.5t33 27t40.5 10.5q47 0 90 -25l-43 -110q-34 24 -67 24q-41 0 -65.5 -38.5t-24.5 -88.5v-281zM366 746l-192 -163l-76 50l168 186z" />
    <glyph glyph-name="Rcommaaccent" unicode="&#x156;" horiz-adv-x="627" 
d="M667 0h-177l-257 280h-20v-280h-128v757h160q47 0 88 -5t85 -20.5t75.5 -40.5t52 -68t20.5 -100q0 -79 -56 -143.5t-142 -80.5zM213 391h50q81 0 125 36t44 89q0 124 -160 124h-59v-249zM319 -243h-101l74 205h139z" />
    <glyph glyph-name="rcommaaccent" unicode="&#x157;" horiz-adv-x="388" 
d="M183 0h-118v505h118v-78q5 12 14 25t22.5 29.5t33 27t40.5 10.5q47 0 90 -25l-43 -110q-34 24 -67 24q-41 0 -65.5 -38.5t-24.5 -88.5v-281zM147 -243h-101l74 205h139z" />
    <glyph glyph-name="Rcaron" unicode="&#x158;" horiz-adv-x="629" 
d="M667 0h-177l-257 280h-20v-280h-128v757h160q47 0 88 -5t85 -20.5t75.5 -40.5t52 -68t20.5 -100q0 -79 -56 -143.5t-142 -80.5zM213 391h50q81 0 125 36t44 89q0 124 -160 124h-59v-249zM519 922l-218 -105l-216 103l48 72l167 -62l160 60z" />
    <glyph glyph-name="rcaron" unicode="&#x159;" horiz-adv-x="388" 
d="M183 0h-118v505h118v-78q5 12 14 25t22.5 29.5t33 27t40.5 10.5q47 0 90 -25l-43 -110q-34 24 -67 24q-41 0 -65.5 -38.5t-24.5 -88.5v-281zM390 714l-186 -136l-188 136l64 71l123 -93l125 93z" />
    <glyph glyph-name="Sacute" unicode="&#x15a;" horiz-adv-x="591" 
d="M25 90l68 92q85 -83 194 -83q60 0 93 27t33 74q0 18 -3 33t-13.5 28.5t-16 21.5t-25.5 20.5t-25 15.5t-32.5 16.5t-30.5 15.5q-47 24 -73 40t-58 43t-47 61t-15 76q0 94 73 148.5t172 54.5q73 0 127.5 -29.5t77.5 -55.5l-62 -95q-66 66 -142 66q-46 0 -79 -21t-33 -62
q0 -39 35 -67.5t85 -50.5t100.5 -50t85.5 -80.5t35 -126.5q0 -90 -73.5 -154t-197.5 -64q-75 0 -146.5 34t-106.5 72zM486 877l-318 -49l-31 84l302 69z" />
    <glyph glyph-name="sacute" unicode="&#x15b;" horiz-adv-x="437" 
d="M20 51l44 84q25 -24 64.5 -42.5t75.5 -18.5q34 0 54.5 16.5t20.5 41.5t-23 47t-55.5 39.5t-65.5 37.5t-56 50.5t-23 69.5q0 60 48.5 102.5t127.5 42.5q54 0 98 -18.5t67 -38.5l-44 -82q-12 14 -42.5 31.5t-64.5 17.5q-29 0 -47.5 -14.5t-18.5 -36.5q0 -19 16 -36.5
t40.5 -29.5t53 -29t53 -34.5t40.5 -47t16 -65.5q0 -68 -51.5 -110t-137.5 -42q-110 0 -190 65zM397 746l-192 -163l-76 50l168 186z" />
    <glyph glyph-name="Scedilla" unicode="&#x15e;" horiz-adv-x="591" 
d="M25 90l68 92q85 -83 194 -83q60 0 93 27t33 74q0 18 -3 33t-13.5 28.5t-16 21.5t-25.5 20.5t-25 15.5t-32.5 16.5t-30.5 15.5q-47 24 -73 40t-58 43t-47 61t-15 76q0 94 73 148.5t172 54.5q73 0 127.5 -29.5t77.5 -55.5l-62 -95q-66 66 -142 66q-46 0 -79 -21t-33 -62
q0 -39 35 -67.5t85 -50.5t100.5 -50t85.5 -80.5t35 -126.5q0 -90 -73.5 -154t-197.5 -64q-75 0 -146.5 34t-106.5 72zM291 -253h-101l74 205h139z" />
    <glyph glyph-name="scedilla" unicode="&#x15f;" horiz-adv-x="437" 
d="M20 51l44 84q25 -24 64.5 -42.5t75.5 -18.5q34 0 54.5 16.5t20.5 41.5t-23 47t-55.5 39.5t-65.5 37.5t-56 50.5t-23 69.5q0 60 48.5 102.5t127.5 42.5q54 0 98 -18.5t67 -38.5l-44 -82q-12 14 -42.5 31.5t-64.5 17.5q-29 0 -47.5 -14.5t-18.5 -36.5q0 -19 16 -36.5
t40.5 -29.5t53 -29t53 -34.5t40.5 -47t16 -65.5q0 -68 -51.5 -110t-137.5 -42q-110 0 -190 65zM210 -254h-101l74 205h139z" />
    <glyph glyph-name="Scaron" unicode="&#x160;" horiz-adv-x="591" 
d="M25 90l68 92q85 -83 194 -83q60 0 93 27t33 74q0 18 -3 33t-13.5 28.5t-16 21.5t-25.5 20.5t-25 15.5t-32.5 16.5t-30.5 15.5q-47 24 -73 40t-58 43t-47 61t-15 76q0 94 73 148.5t172 54.5q73 0 127.5 -29.5t77.5 -55.5l-62 -95q-66 66 -142 66q-46 0 -79 -21t-33 -62
q0 -39 35 -67.5t85 -50.5t100.5 -50t85.5 -80.5t35 -126.5q0 -90 -73.5 -154t-197.5 -64q-75 0 -146.5 34t-106.5 72zM525 912l-218 -105l-216 109l48 72l167 -68l160 60z" />
    <glyph glyph-name="scaron" unicode="&#x161;" horiz-adv-x="437" 
d="M20 51l44 84q25 -24 64.5 -42.5t75.5 -18.5q34 0 54.5 16.5t20.5 41.5t-23 47t-55.5 39.5t-65.5 37.5t-56 50.5t-23 69.5q0 60 48.5 102.5t127.5 42.5q54 0 98 -18.5t67 -38.5l-44 -82q-12 14 -42.5 31.5t-64.5 17.5q-29 0 -47.5 -14.5t-18.5 -36.5q0 -19 16 -36.5
t40.5 -29.5t53 -29t53 -34.5t40.5 -47t16 -65.5q0 -68 -51.5 -110t-137.5 -42q-110 0 -190 65zM412 708l-186 -136l-188 136l64 71l123 -93l125 93z" />
    <glyph glyph-name="Tcommaaccent" unicode="&#x162;" horiz-adv-x="605" 
d="M367 0h-128v640h-223v116h573v-116h-222v-640zM297 -243h-101l74 205h139z" />
    <glyph glyph-name="tcommaaccent" unicode="&#x163;" horiz-adv-x="370" 
d="M167 -243h-101l74 205h139zM232 0h-118v408h-95v96h95v173h118v-173h124v-96h-124v-408z" />
    <glyph glyph-name="Tcaron" unicode="&#x164;" horiz-adv-x="607" 
d="M368 0h-128v640h-223v116h573v-116h-222v-640zM520 920l-218 -105l-216 103l48 72l167 -62l160 60z" />
    <glyph glyph-name="tcaron" unicode="&#x165;" horiz-adv-x="372" 
d="M390 575h-82l80 232h126zM233 0h-118v408h-95v96h95v173h118v-173h124v-96h-124v-408z" />
    <glyph glyph-name="Tbar" unicode="&#x166;" horiz-adv-x="607" 
d="M368 0h-128v393h-150v99h150v148h-223v116h573v-116h-222v-148h149v-99h-149v-393z" />
    <glyph glyph-name="tbar" unicode="&#x167;" horiz-adv-x="372" 
d="M233 0h-118v232h-65v84h65v92h-95v96h95v173h118v-173h124v-96h-124v-92h95v-84h-95v-232z" />
    <glyph glyph-name="Utilde" unicode="&#x168;" horiz-adv-x="774" 
d="M564 140v617h128v-666q-102 -107 -307 -107q-147 0 -226 74t-79 220v479h128v-409q0 -142 42.5 -197t157.5 -55q96 0 156 44zM548 978l49 -79q-78 -78 -139 -78q-31 0 -72.5 24.5t-61.5 24.5q-9 0 -18.5 -2.5t-19.5 -9t-16 -11t-18 -14t-16 -13.5l-58 73q31 28 73 53
t76 25q27 0 67.5 -25.5t59.5 -25.5q42 0 94 58z" />
    <glyph glyph-name="utilde" unicode="&#x169;" horiz-adv-x="576" 
d="M394 110v395h118v-450q-80 -69 -224 -69q-103 0 -165 50t-62 145v324h118v-295q0 -127 121 -127q57 0 94 27zM444 740l49 -79q-78 -78 -139 -78q-31 0 -72.5 24.5t-61.5 24.5q-9 0 -18.5 -2.5t-19.5 -9t-16 -11t-18 -14t-16 -13.5l-58 73q31 28 73 53t76 25
q27 0 67.5 -25.5t59.5 -25.5q42 0 94 58z" />
    <glyph glyph-name="Umacron" unicode="&#x16a;" horiz-adv-x="774" 
d="M564 140v617h128v-666q-102 -107 -307 -107q-147 0 -226 74t-79 220v479h128v-409q0 -142 42.5 -197t157.5 -55q96 0 156 44zM601 852h-427v99h427v-99z" />
    <glyph glyph-name="umacron" unicode="&#x16b;" horiz-adv-x="576" 
d="M394 110v395h118v-450q-80 -69 -224 -69q-103 0 -165 50t-62 145v324h118v-295q0 -127 121 -127q57 0 94 27zM497 600h-427v99h427v-99z" />
    <glyph glyph-name="Ubreve" unicode="&#x16c;" horiz-adv-x="774" 
d="M564 140v617h128v-666q-102 -107 -307 -107q-147 0 -226 74t-79 220v479h128v-409q0 -142 42.5 -197t157.5 -55q96 0 156 44zM460 973h108q-4 -66 -51 -119t-130 -53q-69 0 -118 45.5t-55 126.5h111q0 -13 3 -29t18 -35t40 -19q31 0 49.5 21t21.5 36.5t3 25.5z" />
    <glyph glyph-name="ubreve" unicode="&#x16d;" horiz-adv-x="576" 
d="M394 110v395h118v-450q-80 -69 -224 -69q-103 0 -165 50t-62 145v324h118v-295q0 -127 121 -127q57 0 94 27zM353 755h108q-4 -66 -51 -119t-130 -53q-69 0 -118 45.5t-55 126.5h111q0 -13 3 -29t18 -35t40 -19q31 0 49.5 21t21.5 36.5t3 25.5z" />
    <glyph glyph-name="Uring" unicode="&#x16e;" horiz-adv-x="774" 
d="M564 140v617h128v-666q-102 -107 -307 -107q-147 0 -226 74t-79 220v479h128v-409q0 -142 42.5 -197t157.5 -55q96 0 156 44zM512 890q0 -50 -36 -85.5t-88 -35.5t-88.5 35.5t-36.5 85.5q0 51 36.5 86t88.5 35q51 0 87.5 -36t36.5 -85zM440 890q0 21 -15.5 37t-36.5 16
t-35.5 -16t-14.5 -37t14.5 -36.5t35.5 -15.5t36.5 15.5t15.5 36.5z" />
    <glyph glyph-name="uring" unicode="&#x16f;" horiz-adv-x="576" 
d="M394 110v395h118v-450q-80 -69 -224 -69q-103 0 -165 50t-62 145v324h118v-295q0 -127 121 -127q57 0 94 27zM417 704q0 -50 -36 -85.5t-88 -35.5t-88.5 35.5t-36.5 85.5q0 51 36.5 86t88.5 35q51 0 87.5 -36t36.5 -85zM345 704q0 21 -15.5 37t-36.5 16t-35.5 -16
t-14.5 -37t14.5 -36.5t35.5 -15.5t36.5 15.5t15.5 36.5z" />
    <glyph glyph-name="Uhungarumlaut" unicode="&#x170;" horiz-adv-x="774" 
d="M564 140v617h128v-666q-102 -107 -307 -107q-147 0 -226 74t-79 220v479h128v-409q0 -142 42.5 -197t157.5 -55q96 0 156 44zM452 949l-216 -131l-46 57l191 164zM684 949l-216 -131l-46 57l191 164z" />
    <glyph glyph-name="uhungarumlaut" unicode="&#x171;" horiz-adv-x="576" 
d="M394 110v395h118v-450q-80 -69 -224 -69q-103 0 -165 50t-62 145v324h118v-295q0 -127 121 -127q57 0 94 27zM340 713l-216 -131l-46 57l191 164zM572 713l-216 -131l-46 57l191 164z" />
    <glyph glyph-name="Uogonek" unicode="&#x172;" horiz-adv-x="774" 
d="M587 -129v-78q-57 -34 -119 -34q-56 0 -88.5 28t-32.5 71q0 72 79 128q-26 -2 -41 -2q-147 0 -226 74t-79 220v479h128v-409q0 -142 42.5 -197t157.5 -55q96 0 156 44v617h128v-666q-58 -62 -154 -89q-28 -7 -63 -48.5t-35 -72.5q0 -35 53 -35q55 0 94 25z" />
    <glyph glyph-name="uogonek" unicode="&#x173;" horiz-adv-x="575" 
d="M482 -125v-78q-57 -34 -119 -34q-56 0 -88.5 28t-32.5 71q0 69 75 125q-9 -1 -29 -1q-103 0 -165 50t-62 145v324h118v-295q0 -127 121 -127q57 0 94 27v395h118v-450q-31 -27 -75 -45q-94 -69 -94 -131q0 -29 45 -29q55 0 94 25z" />
    <glyph glyph-name="Wcircumflex" unicode="&#x174;" horiz-adv-x="1071" 
d="M779 -36l-244 517l-240 -515l-302 791h141l172 -463q4 -12 6 -39q2 27 7 39l218 494l218 -494q6 -14 7 -36q2 24 6 36l168 463h140zM695 811l-160 59l-167 -59l-48 72l216 101l218 -105z" />
    <glyph glyph-name="wcircumflex" unicode="&#x175;" horiz-adv-x="769" 
d="M561 -22h-46l-130 288l-131 -288h-46l-208 527h125l107 -274q11 -30 12 -38q3 15 14 40l117 256h20l118 -258q10 -22 13 -37q1 7 13 38l106 273h124zM509 572l-125 93l-123 -93l-64 71l188 136l186 -136z" />
    <glyph glyph-name="Ycircumflex" unicode="&#x176;" horiz-adv-x="653" 
d="M390 0h-128v313l-276 444h142l194 -321q5 -8 6 -27q1 16 8 27l194 321h142l-282 -444v-313zM487 818l-160 59l-167 -59l-48 72l216 101l218 -105z" />
    <glyph glyph-name="ycircumflex" unicode="&#x177;" horiz-adv-x="559" 
d="M166 -255h-133l178 320l-212 440h130l149 -319l149 319h136zM405 572l-125 93l-123 -93l-64 71l188 136l186 -136z" />
    <glyph glyph-name="Ydieresis" unicode="&#x178;" horiz-adv-x="653" 
d="M390 0h-128v313l-276 444h142l194 -321q5 -8 6 -27q1 16 8 27l194 321h142l-282 -444v-313zM656 883q0 -27 -19.5 -45.5t-50.5 -18.5q-29 0 -48.5 18.5t-19.5 45.5q0 28 19.5 46.5t48.5 18.5q32 0 51 -18.5t19 -46.5zM136 883q0 -26 -20.5 -45t-50.5 -19q-28 0 -47.5 19
t-19.5 45q0 28 19.5 46.5t47.5 18.5q30 0 50.5 -18.5t20.5 -46.5z" />
    <glyph glyph-name="Zacute" unicode="&#x179;" horiz-adv-x="682" 
d="M647 1h-648l424 639h-337v116h561l-424 -639h424v-116zM538 878l-318 -49l-31 84l302 69z" />
    <glyph glyph-name="zacute" unicode="&#x17a;" horiz-adv-x="515" 
d="M481 1h-474l284 407h-231v96h427l-277 -407h271v-96zM429 746l-192 -163l-76 50l168 186z" />
    <glyph glyph-name="Zdotaccent" unicode="&#x17b;" horiz-adv-x="682" 
d="M647 1h-648l424 639h-337v116h561l-424 -639h424v-116zM420 891q0 -29 -21 -50t-52 -21q-29 0 -50.5 21.5t-21.5 49.5q0 30 21.5 52t50.5 22q31 0 52 -21.5t21 -52.5z" />
    <glyph glyph-name="zdotaccent" unicode="&#x17c;" horiz-adv-x="515" 
d="M481 1h-474l284 407h-231v96h427l-277 -407h271v-96zM323 654q0 -29 -21 -50t-52 -21q-29 0 -50.5 21.5t-21.5 49.5q0 30 21.5 52t50.5 22q31 0 52 -21.5t21 -52.5z" />
    <glyph glyph-name="Zcaron" unicode="&#x17d;" horiz-adv-x="682" 
d="M647 1h-648l424 639h-337v116h561l-424 -639h424v-116zM577 921l-218 -105l-216 103l48 72l167 -62l160 60z" />
    <glyph glyph-name="zcaron" unicode="&#x17e;" horiz-adv-x="515" 
d="M481 1h-474l284 407h-231v96h427l-277 -407h271v-96zM438 714l-186 -136l-188 136l64 71l123 -93l125 93z" />
    <glyph glyph-name="longs" unicode="&#x17f;" horiz-adv-x="291" 
d="M226 0h-117v408h-85v96h85v99q0 99 46 154q52 60 152 60q33 0 65 -8.5t47 -15.5t22 -12l-46 -91q-37 27 -82 27q-87 0 -87 -112v-605z" />
    <glyph glyph-name="florin" unicode="&#x192;" horiz-adv-x="371" 
d="M-104 -243l15 94q43 -10 50 -10q31 0 49 34t31 103l83 431h-90l16 95h93l15 79q12 63 27 108t39 83.5t61 57.5t88 19q31 0 76 -15l-22 -93q-18 5 -50 5q-27 0 -46.5 -17.5t-31.5 -51t-21 -74t-19 -93.5q-1 -5 -1 -8h104l-16 -95h-106l-92 -478q-17 -86 -67 -139.5
t-115 -53.5q-37 0 -70 19z" />
    <glyph glyph-name="uni01C0" unicode="&#x1c0;" horiz-adv-x="290" 
d="M209 0h-128v757h128v-757z" />
    <glyph glyph-name="uni01C1" unicode="&#x1c1;" horiz-adv-x="526" 
d="M209 0h-128v757h128v-757zM445 0h-128v757h128v-757z" />
    <glyph glyph-name="uni01C2" unicode="&#x1c2;" horiz-adv-x="608" 
d="M358 0h-128v211h-180v114h180v141h-180v115h180v176h128v-176h199v-115h-199v-141h199v-114h-199v-211z" />
    <glyph glyph-name="uni01C3" unicode="&#x1c3;" horiz-adv-x="254" 
d="M191 214h-128v542h128v-542zM126 -13q-29 0 -50.5 21.5t-21.5 51.5q0 28 21.5 49.5t50.5 21.5q31 0 52 -21t21 -50q0 -31 -21 -52t-52 -21z" />
    <glyph glyph-name="AEacute" unicode="&#x1fc;" horiz-adv-x="1004" 
d="M965 1h-470v147h-258l-94 -148h-164l518 756h436v-116h-310v-180h250v-116h-250v-227h342v-116zM495 264v290l-185 -290h185zM899 868l-318 -49l-31 84l302 69z" />
    <glyph glyph-name="aeacute" unicode="&#x1fd;" horiz-adv-x="909" 
d="M818 136l37 -84q-26 -23 -83.5 -44.5t-129.5 -21.5q-105 0 -178 51q-77 -51 -203 -51q-115 0 -175 53.5t-60 124.5q0 69 54 117t144 48q99 0 147 -45v59q0 38 -25 58t-86 20q-70 0 -141 -29l-36 86q86 41 190 41q146 0 176 -74q25 36 73 55t105 19q117 0 181.5 -75.5
t64.5 -186.5v-49h-388q5 -51 51 -88t125 -37q88 0 157 53zM393 119q-18 39 -20 74q-16 16 -51 30t-71 14q-47 0 -74.5 -23.5t-27.5 -54.5q0 -32 29.5 -56t82.5 -24q81 0 132 40zM486 303h264q-2 52 -35.5 87.5t-89.5 35.5q-54 0 -93 -33t-46 -90zM645 746l-192 -163l-76 50
l168 186z" />
    <glyph glyph-name="Oslashacute" unicode="&#x1fe;" horiz-adv-x="907" 
d="M304 -142l-112 33l60 143q-96 52 -153 143.5t-57 200.5q0 163 120.5 279.5t292.5 116.5q53 0 102 -12l51 122l110 -41l-52 -124q91 -52 145 -143t54 -201q0 -161 -121.5 -276t-288.5 -115q-44 0 -94 10zM300 147l211 505q-27 6 -56 6q-115 0 -196 -80t-81 -196
q0 -69 33 -132t89 -103zM617 604l-211 -503q21 -3 42 -3q118 0 199.5 81t81.5 197q0 70 -30 129.5t-82 98.5zM548 867l-238 -37l-31 84l238 54z" />
    <glyph glyph-name="oslashacute" unicode="&#x1ff;" horiz-adv-x="617" 
d="M168 -146l-90 34l69 143q-52 37 -81.5 93.5t-29.5 122.5q0 112 79.5 190t195.5 78q32 0 64 -8l64 132l93 -38l-66 -134q53 -37 84 -95t31 -125q0 -110 -79.5 -187.5t-193.5 -77.5q-35 0 -73 10zM449 746l-192 -163l-76 50l168 186zM417 365l-138 -283q13 -3 28 -3
q68 0 108.5 45.5t40.5 122.5q0 69 -39 118zM196 133l135 281q-14 2 -21 2q-66 0 -109 -47.5t-43 -124.5q0 -67 38 -111z" />
    <glyph glyph-name="dotlessj" unicode="&#x237;" horiz-adv-x="256" 
d="M1 -267l-44 89q30 9 47 15t31 19t19.5 23t9.5 37t4.5 50t0.5 72v467h118v-469q0 -60 -3.5 -97.5t-13.5 -73t-31 -57.5t-54 -41t-84 -34z" />
    <glyph glyph-name="schwa" unicode="&#x259;" horiz-adv-x="583" 
d="M36 247v49h388q-6 53 -52 89t-125 36q-88 0 -156 -53l-37 84q27 24 84.5 45.5t128.5 21.5q126 0 202.5 -72t76.5 -192q0 -118 -73 -193.5t-191 -75.5t-182 75t-64 186zM423 201h-264q2 -52 35.5 -87.5t89.5 -35.5q54 0 93 33t46 90z" />
    <glyph glyph-name="circumflex" unicode="&#x2c6;" horiz-adv-x="474" 
d="M362 572l-125 93l-123 -93l-64 71l188 136l186 -136z" />
    <glyph glyph-name="caron" unicode="&#x2c7;" horiz-adv-x="473" 
d="M424 714l-186 -136l-188 136l64 71l123 -93l125 93z" />
    <glyph glyph-name="breve" unicode="&#x2d8;" horiz-adv-x="454" 
d="M296 755h108q-4 -66 -51 -119t-130 -53q-69 0 -118 45.5t-55 126.5h111q0 -13 3 -29t18 -35t40 -19q31 0 49.5 21t21.5 36.5t3 25.5z" />
    <glyph glyph-name="dotaccent" unicode="&#x2d9;" horiz-adv-x="245" 
d="M195 654q0 -29 -21 -50t-52 -21q-29 0 -50.5 21.5t-21.5 49.5q0 30 21.5 52t50.5 22q31 0 52 -21.5t21 -52.5z" />
    <glyph glyph-name="ring" unicode="&#x2da;" horiz-adv-x="349" 
d="M299 704q0 -50 -36 -85.5t-88 -35.5t-88.5 35.5t-36.5 85.5q0 51 36.5 86t88.5 35q51 0 87.5 -36t36.5 -85zM227 704q0 21 -15.5 37t-36.5 16t-35.5 -16t-14.5 -37t14.5 -36.5t35.5 -15.5t36.5 15.5t15.5 36.5z" />
    <glyph glyph-name="ogonek" unicode="&#x2db;" horiz-adv-x="458" 
d="M428 -114v-78q-57 -34 -119 -34q-56 0 -88.5 28t-32.5 71q0 40 30.5 81t90.5 70h79q-99 -72 -99 -134q0 -29 45 -29q55 0 94 25z" />
    <glyph glyph-name="tilde" unicode="&#x2dc;" horiz-adv-x="519" 
d="M420 740l49 -79q-78 -78 -139 -78q-31 0 -72.5 24.5t-61.5 24.5q-9 0 -18.5 -2.5t-19.5 -9t-16 -11t-18 -14t-16 -13.5l-58 73q31 28 73 53t76 25q27 0 67.5 -25.5t59.5 -25.5q42 0 94 58z" />
    <glyph glyph-name="hungarumlaut" unicode="&#x2dd;" horiz-adv-x="594" 
d="M312 713l-216 -131l-46 57l191 164zM544 713l-216 -131l-46 57l191 164z" />
    <glyph glyph-name="pi" unicode="&#x3c0;" horiz-adv-x="609" 
d="M535 0h-117v408h-227v-408h-117v504h461v-504z" />
    <glyph glyph-name="uni1E02" unicode="&#x1e02;" horiz-adv-x="642" 
d="M302 0h-217v757h179q81 0 141.5 -17t99.5 -59.5t39 -106.5q0 -113 -112 -163q69 -17 121.5 -65t52.5 -132q0 -97 -78 -155.5t-226 -58.5zM213 454h60q136 0 136 93q0 46 -33 70t-88 24h-75v-187zM213 116h112q72 0 108.5 30.5t36.5 80.5q0 53 -40 85t-109 32h-108v-228z
M382 890q0 -29 -21 -50t-52 -21q-29 0 -50.5 21.5t-21.5 49.5q0 30 21.5 52t50.5 22q31 0 52 -21.5t21 -52.5z" />
    <glyph glyph-name="uni1E03" unicode="&#x1e03;" horiz-adv-x="601" 
d="M63 48v772h118v-346q67 45 151 45q108 0 169.5 -77.5t61.5 -185.5q0 -127 -82.5 -198.5t-201.5 -71.5q-125 0 -216 62zM181 371v-264q36 -24 96 -24q75 0 118 47t43 123q0 70 -35 118.5t-97 48.5q-35 0 -70.5 -15t-54.5 -34zM435 683q0 -29 -21 -50t-52 -21
q-29 0 -50.5 21.5t-21.5 49.5q0 30 21.5 52t50.5 22q31 0 52 -21.5t21 -52.5z" />
    <glyph glyph-name="uni1E0A" unicode="&#x1e0a;" horiz-adv-x="760" 
d="M285 0h-200v757h219q177 0 293.5 -100t116.5 -279q0 -178 -116.5 -278t-312.5 -100zM213 116h89q122 0 199 65t77 200q0 117 -73 188.5t-188 71.5h-104v-525zM440 891q0 -29 -21 -50t-52 -21q-29 0 -50.5 21.5t-21.5 49.5q0 30 21.5 52t50.5 22q31 0 52 -21.5t21 -52.5z
" />
    <glyph glyph-name="uni1E0B" unicode="&#x1e0b;" horiz-adv-x="599" 
d="M418 109v267q-18 20 -49.5 32.5t-64.5 12.5q-65 0 -104 -48.5t-39 -126.5q0 -72 45.5 -117.5t108.5 -45.5q62 0 103 26zM418 485v335h118v-772q-97 -62 -221 -62q-114 0 -196 69t-82 191q0 121 73.5 197t190.5 76q70 0 117 -34zM300 684q0 -29 -21 -50t-52 -21
q-29 0 -50.5 21.5t-21.5 49.5q0 30 21.5 52t50.5 22q31 0 52 -21.5t21 -52.5z" />
    <glyph glyph-name="uni1E1E" unicode="&#x1e1e;" horiz-adv-x="542" 
d="M213 0h-128v756h431v-116h-303v-184h245v-117h-245v-339zM385 891q0 -29 -21 -50t-52 -21q-29 0 -50.5 21.5t-21.5 49.5q0 30 21.5 52t50.5 22q31 0 52 -21.5t21 -52.5z" />
    <glyph glyph-name="uni1E1F" unicode="&#x1e1f;" horiz-adv-x="372" 
d="M226 0h-117v408h-85v96h85v99q0 99 46 154q52 60 152 60q33 0 65 -8.5t47 -15.5t22 -12l-46 -91q-37 27 -82 27q-87 0 -87 -112v-101h127v-96h-127v-408zM353 946q0 -29 -21 -50t-52 -21q-29 0 -50.5 21.5t-21.5 49.5q0 30 21.5 52t50.5 22q31 0 52 -21.5t21 -52.5z" />
    <glyph glyph-name="uni1E40" unicode="&#x1e40;" horiz-adv-x="986" 
d="M937 0h-137l-38 377q-3 27 0 42q-7 -17 -22 -41l-247 -406l-247 406q-15 24 -22 41q3 -15 0 -42l-38 -377h-137l99 777l332 -548q11 -19 12 -29h1q1 8 13 29l332 548zM566 756q0 -29 -21 -50t-52 -21q-29 0 -50.5 21.5t-21.5 49.5q0 30 21.5 52t50.5 22q31 0 52 -21.5
t21 -52.5z" />
    <glyph glyph-name="uni1E41" unicode="&#x1e41;" horiz-adv-x="873" 
d="M811 0h-118v320q0 95 -79 95q-35 0 -66.5 -17t-50.5 -39v-359h-118v325q0 90 -85 90q-31 0 -63 -18.5t-48 -37.5v-359h-118v505h118v-53q70 67 159 67q88 0 126 -76q98 76 181 76q162 0 162 -180v-339zM509 654q0 -29 -21 -50t-52 -21q-29 0 -50.5 21.5t-21.5 49.5
q0 30 21.5 52t50.5 22q31 0 52 -21.5t21 -52.5z" />
    <glyph glyph-name="uni1E56" unicode="&#x1e56;" 
d="M213 0h-128v757h165q317 0 317 -242q0 -118 -75.5 -186.5t-223.5 -68.5h-55v-260zM213 376h52q81 0 124 38.5t43 101.5q0 58 -38 91t-109 33h-72v-264zM380 901q0 -29 -21 -50t-52 -21q-29 0 -50.5 21.5t-21.5 49.5q0 30 21.5 52t50.5 22q31 0 52 -21.5t21 -52.5z" />
    <glyph glyph-name="uni1E57" unicode="&#x1e57;" horiz-adv-x="599" 
d="M182 -254h-118v716q102 57 224 57q114 0 194 -69.5t80 -196.5q0 -110 -66.5 -188.5t-180.5 -78.5q-33 0 -70.5 13.5t-62.5 34.5v-288zM182 396v-256q19 -25 54.5 -40.5t71.5 -15.5q54 0 92 46.5t38 121.5q0 74 -43 121t-117 47q-62 0 -96 -24zM369 654q0 -29 -21 -50
t-52 -21q-29 0 -50.5 21.5t-21.5 49.5q0 30 21.5 52t50.5 22q31 0 52 -21.5t21 -52.5z" />
    <glyph glyph-name="uni1E60" unicode="&#x1e60;" horiz-adv-x="591" 
d="M25 90l68 92q85 -83 194 -83q60 0 93 27t33 74q0 18 -3 33t-13.5 28.5t-16 21.5t-25.5 20.5t-25 15.5t-32.5 16.5t-30.5 15.5q-47 24 -73 40t-58 43t-47 61t-15 76q0 94 73 148.5t172 54.5q73 0 127.5 -29.5t77.5 -55.5l-62 -95q-66 66 -142 66q-46 0 -79 -21t-33 -62
q0 -39 35 -67.5t85 -50.5t100.5 -50t85.5 -80.5t35 -126.5q0 -90 -73.5 -154t-197.5 -64q-75 0 -146.5 34t-106.5 72zM379 892q0 -29 -21 -50t-52 -21q-29 0 -50.5 21.5t-21.5 49.5q0 30 21.5 52t50.5 22q31 0 52 -21.5t21 -52.5z" />
    <glyph glyph-name="uni1E61" unicode="&#x1e61;" horiz-adv-x="437" 
d="M20 51l44 84q25 -24 64.5 -42.5t75.5 -18.5q34 0 54.5 16.5t20.5 41.5t-23 47t-55.5 39.5t-65.5 37.5t-56 50.5t-23 69.5q0 60 48.5 102.5t127.5 42.5q54 0 98 -18.5t67 -38.5l-44 -82q-12 14 -42.5 31.5t-64.5 17.5q-29 0 -47.5 -14.5t-18.5 -36.5q0 -19 16 -36.5
t40.5 -29.5t53 -29t53 -34.5t40.5 -47t16 -65.5q0 -68 -51.5 -110t-137.5 -42q-110 0 -190 65zM293 654q0 -29 -21 -50t-52 -21q-29 0 -50.5 21.5t-21.5 49.5q0 30 21.5 52t50.5 22q31 0 52 -21.5t21 -52.5z" />
    <glyph glyph-name="uni1E6A" unicode="&#x1e6a;" horiz-adv-x="607" 
d="M368 0h-128v640h-223v116h573v-116h-222v-640zM376 906q0 -29 -21 -50t-52 -21q-29 0 -50.5 21.5t-21.5 49.5q0 30 21.5 52t50.5 22q31 0 52 -21.5t21 -52.5z" />
    <glyph glyph-name="uni1E6B" unicode="&#x1e6b;" horiz-adv-x="372" 
d="M246 804q0 -29 -21 -50t-52 -21q-29 0 -50.5 21.5t-21.5 49.5q0 30 21.5 52t50.5 22q31 0 52 -21.5t21 -52.5zM233 0h-118v408h-95v96h95v173h118v-173h124v-96h-124v-408z" />
    <glyph glyph-name="Wgrave" unicode="&#x1e80;" horiz-adv-x="1071" 
d="M779 -36l-244 517l-240 -515l-302 791h141l172 -463q4 -12 6 -39q2 27 7 39l218 494l218 -494q6 -14 7 -36q2 24 6 36l168 463h140zM680 830l-318 49l47 105l302 -69z" />
    <glyph glyph-name="wgrave" unicode="&#x1e81;" horiz-adv-x="769" 
d="M561 -22h-46l-130 288l-131 -288h-46l-208 527h125l107 -274q11 -30 12 -38q3 15 14 40l117 256h20l118 -258q10 -22 13 -37q1 7 13 38l106 273h124zM478 633l-76 -50l-192 163l100 73z" />
    <glyph glyph-name="Wacute" unicode="&#x1e82;" horiz-adv-x="1071" 
d="M779 -36l-244 517l-240 -515l-302 791h141l172 -463q4 -12 6 -39q2 27 7 39l218 494l218 -494q6 -14 7 -39q2 27 6 39l168 463h140zM711 883l-318 -49l-31 84l302 69z" />
    <glyph glyph-name="wacute" unicode="&#x1e83;" horiz-adv-x="769" 
d="M561 -22h-46l-130 288l-131 -288h-46l-208 527h125l107 -274q11 -30 12 -38q3 15 14 40l117 256h20l118 -258q10 -22 13 -37q1 7 13 38l106 273h124zM548 746l-192 -163l-76 50l168 186z" />
    <glyph glyph-name="Wdieresis" unicode="&#x1e84;" horiz-adv-x="1071" 
d="M779 -36l-244 517l-240 -515l-302 791h141l172 -463q4 -12 6 -36q2 24 7 36l218 494l218 -494q6 -14 7 -36q2 24 6 36l168 463h140zM815 758q0 -27 -19.5 -45.5t-50.5 -18.5q-29 0 -48.5 18.5t-19.5 45.5q0 28 19.5 46.5t48.5 18.5q32 0 51 -18.5t19 -46.5zM395 758
q0 -26 -20.5 -45t-50.5 -19q-28 0 -48 19t-20 45q0 27 20 46t48 19q30 0 50.5 -18.5t20.5 -46.5z" />
    <glyph glyph-name="wdieresis" unicode="&#x1e85;" horiz-adv-x="769" 
d="M561 -22h-46l-130 288l-131 -288h-46l-208 527h125l107 -274q11 -30 12 -38q3 15 14 40l117 256h20l118 -258q10 -22 13 -37q1 7 13 38l106 273h124zM574 646q0 -27 -19.5 -45.5t-50.5 -18.5q-29 0 -48.5 18.5t-19.5 45.5q0 28 19.5 46.5t48.5 18.5q32 0 51 -18.5
t19 -46.5zM334 646q0 -26 -20.5 -45t-50.5 -19q-28 0 -48 19t-20 45q0 27 20 46t48 19q30 0 50.5 -18.5t20.5 -46.5z" />
    <glyph glyph-name="Ygrave" unicode="&#x1ef2;" horiz-adv-x="653" 
d="M390 0h-128v313l-276 444h142l194 -321q5 -8 6 -27q1 16 8 27l194 321h142l-282 -444v-313zM423 788l-76 -50l-192 163l100 73z" />
    <glyph glyph-name="ygrave" unicode="&#x1ef3;" horiz-adv-x="559" 
d="M166 -255h-133l178 320l-212 440h130l149 -319l149 319h136zM374 633l-76 -50l-192 163l100 73z" />
    <glyph glyph-name="emdash" unicode="&#x2014;" horiz-adv-x="937" 
d="M855 196h-789l16 98h788z" />
    <glyph glyph-name="quoteleft" unicode="&#x2018;" horiz-adv-x="278" 
d="M165 525h-126l125 232h82z" />
    <glyph glyph-name="quoteright" unicode="&#x2019;" horiz-adv-x="272" 
d="M126 525h-82l80 232h126z" />
    <glyph glyph-name="quotesinglbase" unicode="&#x201a;" horiz-adv-x="266" 
d="M90 -112h-82l80 231h126z" />
    <glyph glyph-name="quotedblleft" unicode="&#x201c;" horiz-adv-x="457" 
d="M349 525h-111l103 232h82zM151 525h-112l125 232h82z" />
    <glyph glyph-name="quotedblright" unicode="&#x201d;" horiz-adv-x="451" 
d="M304 525h-82l95 232h112zM127 525h-82l73 232h112z" />
    <glyph glyph-name="quotedblbase" unicode="&#x201e;" horiz-adv-x="454" 
d="M273 -111h-82l95 231h112zM96 -111h-82l73 231h112z" />
    <glyph glyph-name="dagger" unicode="&#x2020;" horiz-adv-x="507" 
d="M310 56h-117v476h-147v97h147v186h117v-186h151v-97h-151v-476z" />
    <glyph glyph-name="daggerdbl" unicode="&#x2021;" horiz-adv-x="536" 
d="M324 57h-117v176h-147v97h147v225h-147v96h147v169h117v-169h151v-96h-151v-225h151v-97h-151v-176z" />
    <glyph glyph-name="bullet" unicode="&#x2022;" horiz-adv-x="429" 
d="M215 150q-64 0 -109 44.5t-45 108.5t45 109t109 45q63 0 108 -45t45 -109t-45 -108.5t-108 -44.5z" />
    <glyph glyph-name="onedotenleader" unicode="&#x2024;" horiz-adv-x="255" 
d="M127 -13q-29 0 -51.5 22.5t-22.5 50.5q0 31 22 52.5t52 21.5q32 0 53 -21.5t21 -52.5q0 -28 -21.5 -50.5t-52.5 -22.5z" />
    <glyph glyph-name="twodotenleader" unicode="&#x2025;" horiz-adv-x="512" 
d="M127 -13q-29 0 -51.5 22.5t-22.5 50.5q0 31 22 52.5t52 21.5q32 0 53 -21.5t21 -52.5q0 -28 -21.5 -50.5t-52.5 -22.5zM384 -13q-29 0 -51.5 22.5t-22.5 50.5q0 31 22 52.5t52 21.5q32 0 53 -21.5t21 -52.5q0 -28 -21.5 -50.5t-52.5 -22.5z" />
    <glyph glyph-name="ellipsis" unicode="&#x2026;" horiz-adv-x="769" 
d="M127 -13q-29 0 -51.5 22.5t-22.5 50.5q0 31 22 52.5t52 21.5q32 0 53 -21.5t21 -52.5q0 -28 -21.5 -50.5t-52.5 -22.5zM384 -13q-29 0 -51.5 22.5t-22.5 50.5q0 31 22 52.5t52 21.5q32 0 53 -21.5t21 -52.5q0 -28 -21.5 -50.5t-52.5 -22.5zM641 -13q-29 0 -51.5 22.5
t-22.5 50.5q0 31 22 52.5t52 21.5q32 0 53 -21.5t21 -52.5q0 -28 -21.5 -50.5t-52.5 -22.5z" />
    <glyph glyph-name="perthousand" unicode="&#x2030;" horiz-adv-x="1170" 
d="M271 -25l-78 30l310 743l79 -32zM358 605q0 -65 -46 -110.5t-111 -45.5t-110.5 45.5t-45.5 110.5t45.5 111t110.5 46t111 -46t46 -111zM202 535q29 0 49 20.5t20 49.5t-20 50t-49 21t-49 -21t-20 -50t20 -49.5t49 -20.5zM744 145q0 -65 -46 -110t-112 -45q-65 0 -110 45
t-45 110q0 66 45 112t110 46q66 0 112 -46t46 -112zM587 74q30 0 49.5 20.5t19.5 50.5t-19.5 50.5t-49.5 20.5q-29 0 -48.5 -20.5t-19.5 -50.5t19.5 -50.5t48.5 -20.5zM1127 145q0 -65 -46 -110t-112 -45q-65 0 -110 45t-45 110q0 66 45 112t110 46q66 0 112 -46t46 -112z
M970 74q30 0 49.5 20.5t19.5 50.5t-19.5 50.5t-49.5 20.5q-29 0 -48.5 -20.5t-19.5 -50.5t19.5 -50.5t48.5 -20.5z" />
    <glyph glyph-name="guilsinglleft" unicode="&#x2039;" horiz-adv-x="354" 
d="M313 26h-126l-147 212l144 212h125l-155 -213z" />
    <glyph glyph-name="guilsinglright" unicode="&#x203a;" horiz-adv-x="354" 
d="M167 25h-126l159 211l-155 213h125l144 -211z" />
    <glyph glyph-name="fraction" unicode="&#x2044;" horiz-adv-x="163" 
d="M-69 -38l-96 44l397 765l97 -45z" />
    <glyph glyph-name="zero.sinf" unicode="&#x2080;" horiz-adv-x="468" 
d="M233 -201q-58 0 -99 22.5t-60.5 60t-27 73.5t-7.5 77q0 32 4 60.5t16.5 61t33 56t56.5 39t84 15.5q196 0 196 -232q0 -42 -8 -78.5t-27.5 -73.5t-60.5 -59t-100 -22zM233 -109q79 0 79 141q0 142 -79 142q-77 0 -77 -142q0 -21 2.5 -41.5t10 -45t24 -39.5t40.5 -15z" />
    <glyph glyph-name="one.sinf" unicode="&#x2081;" horiz-adv-x="300" 
d="M239 -191h-111v323l-75 -28l-42 85l228 81v-461z" />
    <glyph glyph-name="two.sinf" unicode="&#x2082;" horiz-adv-x="450" 
d="M416 -189h-404q49 33 104 80t108 113t53 111q0 28 -18 43t-44 15q-52 0 -98 -48l-53 73q77 66 167 66q72 0 117.5 -41t45.5 -102q0 -46 -32 -96t-66.5 -80.5t-68.5 -52.5l189 10v-91z" />
    <glyph glyph-name="three.sinf" unicode="&#x2083;" horiz-adv-x="396" 
d="M275 57v-1q41 -15 63 -50t22 -71q0 -57 -52 -96.5t-135 -39.5q-56 0 -96.5 16.5t-60.5 34.5l49 77q12 -13 45 -25t63 -12q37 0 56.5 18t19.5 43q0 32 -32 49.5t-83 17.5q-15 0 -23 -1v63q3 0 8 -0.5t11 -0.5q40 0 67 15t27 42q0 38 -51 38q-40 0 -77 -23l-33 80
q16 13 52.5 23t74.5 10q67 0 107.5 -31.5t40.5 -81.5q0 -62 -63 -94z" />
    <glyph glyph-name="four.sinf" unicode="&#x2084;" horiz-adv-x="467" 
d="M367 -194h-106v75h-239v69l271 311h74v-293h73v-87h-73v-75zM265 -38v144l-126 -144h126z" />
    <glyph glyph-name="five.sinf" unicode="&#x2085;" horiz-adv-x="402" 
d="M19 -157l35 91q50 -39 108 -39q39 0 61.5 17.5t22.5 49.5q0 68 -94 68q-38 0 -98 -17l68 241h234l-29 -87h-131l-23 -67q22 2 30 2q69 0 117.5 -43t48.5 -107q0 -62 -47 -107t-138 -45q-94 0 -165 43z" />
    <glyph glyph-name="six.sinf" unicode="&#x2086;" horiz-adv-x="425" 
d="M242 284l75 -62q-33 -26 -75 -67.5t-57 -60.5q29 13 62 13q62 0 109 -42.5t47 -105.5q0 -67 -53 -113.5t-133 -46.5q-81 0 -132.5 48t-51.5 121q0 47 29.5 104.5t68 101.5t70 74t41.5 36zM287 -44q0 27 -19.5 46.5t-51.5 19.5q-31 0 -51 -19t-20 -47t21 -46.5t51 -18.5
t50 19t20 46z" />
    <glyph glyph-name="seven.sinf" unicode="&#x2087;" horiz-adv-x="425" 
d="M157 -196h-130l227 352h-213v95h381z" />
    <glyph glyph-name="eight.sinf" unicode="&#x2088;" horiz-adv-x="448" 
d="M335 42q73 -35 73 -102q0 -58 -53.5 -99t-128.5 -41t-130.5 40.5t-55.5 94.5q0 36 23 63.5t50 41.5q-5 2 -15 9t-22.5 19.5t-22 33t-9.5 42.5q0 55 52.5 94t128.5 39q75 0 127 -38.5t52 -94.5q0 -37 -21.5 -65t-47.5 -37zM291 -53q0 21 -19.5 37t-47.5 16t-48.5 -15.5
t-20.5 -37.5q0 -23 20 -39.5t48 -16.5t48 17t20 39zM291 133q0 22 -19 37.5t-48 15.5q-28 0 -48 -15.5t-20 -36.5t20 -37.5t49 -16.5q28 0 47 16t19 37z" />
    <glyph glyph-name="nine.sinf" unicode="&#x2089;" horiz-adv-x="425" 
d="M183 -221l-75 62q33 26 75 67.5t57 60.5q-29 -13 -62 -13q-62 0 -109 42.5t-47 105.5q0 67 53 113.5t133 46.5t132 -46t52 -113q0 -47 -29.5 -106t-68 -105t-70 -77.5t-41.5 -37.5zM280 107q0 28 -21 46.5t-51 18.5t-50 -19t-20 -46t19.5 -47t51.5 -20q31 0 51 19.5
t20 47.5z" />
    <glyph glyph-name="parenleft.sinf" unicode="&#x208d;" horiz-adv-x="222" 
d="M192 -301l-84 -32q-70 151 -70 318q0 173 69 330l86 -34q-21 -52 -39 -133.5t-18 -160.5q0 -120 56 -288z" />
    <glyph glyph-name="parenright.sinf" unicode="&#x208e;" horiz-adv-x="220" 
d="M114 -333l-84 32q56 168 56 288q0 149 -57 294l86 34q67 -150 67 -330q0 -171 -68 -318z" />
    <glyph glyph-name="Euro" unicode="&#x20ac;" horiz-adv-x="723" 
d="M625 128l45 -96q-9 -6 -29 -15t-66.5 -19.5t-95.5 -10.5q-48 0 -96 13.5t-95 42t-84.5 81t-54.5 121.5h-102l20 92h70q-1 9 -1 28q0 32 1 48h-79l21 91h73q29 116 108.5 186.5t209.5 70.5q111 0 201 -57l-54 -86q-76 38 -155 38q-64 0 -115 -39t-76 -113h279l-19 -91
h-279q-1 -14 -1 -42q0 -23 1 -34h285l-20 -92h-244q26 -69 77.5 -112.5t129.5 -43.5q67 0 145 39z" />
    <glyph glyph-name="uni2117" unicode="&#x2117;" horiz-adv-x="909" 
d="M454 67q127 0 216 89.5t89 216.5q0 128 -88.5 217t-216.5 89t-216.5 -89t-88.5 -217q0 -127 88.5 -216.5t216.5 -89.5zM855 372q0 -164 -117.5 -280t-283.5 -116t-283 116t-117 280q0 166 116.5 282t283.5 116t284 -116t117 -282zM429 148h-100v439h107q215 0 215 -145
q0 -72 -49.5 -114.5t-142.5 -42.5h-30v-137zM429 375h29q43 0 64.5 17.5t21.5 45.5q0 59 -79 59h-36v-122z" />
    <glyph glyph-name="trademark" unicode="&#x2122;" horiz-adv-x="1037" 
d="M309 370h-110v287h-130v101h370v-101h-130v-287zM973 370h-111l-26 176l-118 -191l-118 190l-23 -175h-111l69 399l184 -239l183 238z" />
    <glyph glyph-name="estimated" unicode="&#x212e;" horiz-adv-x="888" 
d="M839 318h-638q19 -98 90.5 -159t176.5 -61q62 0 117.5 20t78 36.5t28.5 24.5l65 -96q-5 -5 -15 -13t-37.5 -24.5t-59 -29.5t-80 -23t-99.5 -10q-172 0 -289.5 115.5t-117.5 282.5q0 165 114 279t285 114q74 0 139 -25t120 -76.5t88 -142.5t34 -212zM198 427h507
q-7 109 -76 170t-170 61q-107 0 -176.5 -67.5t-84.5 -163.5z" />
    <glyph glyph-name="arrowleft" unicode="&#x2190;" horiz-adv-x="861" 
d="M811 317h-615l68 -88l-98 -48l-116 195l116 195l98 -50l-68 -86h615v-118z" />
    <glyph glyph-name="arrowup" unicode="&#x2191;" horiz-adv-x="490" 
d="M304 -3h-118v614l-88 -68l-48 98l195 116l195 -116l-50 -98l-86 68v-614z" />
    <glyph glyph-name="arrowright" unicode="&#x2192;" horiz-adv-x="861" 
d="M695 181l-98 48l68 88h-615v118h615l-68 86l98 50l116 -195z" />
    <glyph glyph-name="arrowdown" unicode="&#x2193;" horiz-adv-x="490" 
d="M440 112l-195 -115l-195 115l48 98l88 -68v615h118v-615l86 68z" />
    <glyph glyph-name="arrowboth" unicode="&#x2194;" horiz-adv-x="861" 
d="M695 181l-98 48l68 88h-469l68 -88l-98 -48l-116 195l116 195l98 -50l-68 -86h469l-68 86l98 50l116 -195z" />
    <glyph glyph-name="arrowupdn" unicode="&#x2195;" horiz-adv-x="490" 
d="M440 111l-195 -115l-195 115l48 98l88 -68v469l-88 -68l-48 98l195 116l195 -116l-50 -98l-86 68v-469l86 68z" />
    <glyph glyph-name="uni2196" unicode="&#x2196;" horiz-adv-x="749" 
d="M705 149l-83 -83l-435 434l-14 -110l-103 35l56 220l220 56l33 -104l-108 -13z" />
    <glyph glyph-name="uni2197" unicode="&#x2197;" horiz-adv-x="749" 
d="M705 425l-103 -35l-14 110l-435 -434l-83 83l434 435l-108 13l33 104l220 -56z" />
    <glyph glyph-name="uni2198" unicode="&#x2198;" horiz-adv-x="749" 
d="M649 122l-220 -56l-33 104l108 13l-434 435l83 83l435 -434l14 110l103 -35z" />
    <glyph glyph-name="uni2199" unicode="&#x2199;" horiz-adv-x="749" 
d="M346 66l-220 56l-56 220l103 35l14 -110l435 434l83 -83l-434 -435l108 -13z" />
    <glyph glyph-name="partialdiff" unicode="&#x2202;" horiz-adv-x="642" 
d="M182 768l94 51q55 -50 103.5 -107t97 -131.5t77.5 -162t29 -174.5q0 -108 -76 -184.5t-190 -76.5q-119 0 -194.5 76t-75.5 177q0 107 78 183t175 76q72 0 127 -46q-22 59 -95 155t-150 164zM316 80q62 0 103.5 43.5t41.5 112.5q0 65 -41 113t-105 48q-70 0 -108 -47
t-38 -116q0 -59 39.5 -106.5t107.5 -47.5z" />
    <glyph glyph-name="Delta" unicode="&#x2206;" horiz-adv-x="842" 
d="M808 0h-774l388 788zM611 116l-177 383q-12 26 -13 38q-8 -24 -15 -38l-176 -383h381z" />
    <glyph glyph-name="product" unicode="&#x220f;" horiz-adv-x="802" 
d="M708 0h-128v640h-358v-640h-128v756h614v-756z" />
    <glyph glyph-name="summation" unicode="&#x2211;" horiz-adv-x="702" 
d="M645 1h-600l310 377l-310 378h568v-115h-323l222 -263l-223 -262h356v-115z" />
    <glyph glyph-name="minus" unicode="&#x2212;" horiz-adv-x="722" 
d="M647 314h-572v99h572v-99z" />
    <glyph glyph-name="radical" unicode="&#x221a;" horiz-adv-x="730" 
d="M264 -290l-259 589h125l135 -321l346 818h130z" />
    <glyph glyph-name="infinity" unicode="&#x221e;" horiz-adv-x="967" 
d="M470 151q-85 -114 -194 -114q-89 0 -152.5 60.5t-63.5 164.5q0 105 64 165t153 60q71 0 117.5 -39t89.5 -110q44 71 93.5 110t127.5 39q88 0 144.5 -54.5t56.5 -161.5q0 -118 -67.5 -176t-159.5 -58q-120 0 -209 114zM537 250q32 -48 66.5 -74t83.5 -26q52 0 81.5 30
t29.5 80q0 53 -30.5 84.5t-76.5 31.5q-45 0 -79.5 -32t-74.5 -94zM416 229q-55 89 -77 112q-34 35 -70 35t-68 -27.5t-32 -83.5q0 -58 35 -86.5t83 -28.5q72 0 129 79z" />
    <glyph glyph-name="integral" unicode="&#x222b;" horiz-adv-x="541" 
d="M212 -38v641q0 99 46 154q52 60 152 60q33 0 65 -8.5t47 -15.5t22 -12l-46 -91q-37 27 -82 27q-87 0 -87 -112v-641q0 -99 -46 -154q-52 -60 -152 -60q-33 0 -65 8t-47.5 15.5t-20.5 12.5l45 91q37 -27 82 -27q87 0 87 112z" />
    <glyph glyph-name="approxequal" unicode="&#x2248;" horiz-adv-x="716" 
d="M523 269l125 -10q-7 -85 -45 -123.5t-95 -38.5q-51 0 -96 14.5t-71 31.5t-55.5 31.5t-53.5 14.5q-34 0 -35 -76l-121 10q0 74 39.5 119t100.5 45q43 0 83.5 -14.5t67 -32t61 -32t66.5 -14.5q17 0 23 15t6 60zM523 529l125 -10q-7 -85 -45 -123.5t-95 -38.5
q-51 0 -96 14.5t-71 31.5t-55.5 31.5t-53.5 14.5q-34 0 -35 -76l-121 10q0 74 39.5 119t100.5 45q43 0 83.5 -14.5t67 -32t61 -32t66.5 -14.5q17 0 23 15t6 60z" />
    <glyph glyph-name="notequal" unicode="&#x2260;" horiz-adv-x="694" 
d="M635 190h-282l-86 -233l-88 25l76 208h-198v102h237l37 107h-274v102h313l88 236l86 -32l-75 -204h166v-102h-206l-36 -107h242v-102z" />
    <glyph glyph-name="lessequal" unicode="&#x2264;" horiz-adv-x="688" 
d="M559 130l-490 267v59l491 251l56 -88l-382 -194l383 -209zM631 1h-577v99h577v-99z" />
    <glyph glyph-name="greaterequal" unicode="&#x2265;" horiz-adv-x="689" 
d="M619 397l-489 -267l-58 86l382 209l-381 194l56 88l490 -251v-59zM635 1h-578v99h578v-99z" />
    <glyph glyph-name="triagup" unicode="&#x25b2;" horiz-adv-x="669" 
d="M679 0h-688l336 578z" />
    <glyph glyph-name="triagrt" unicode="&#x25ba;" horiz-adv-x="632" 
d="M632 360l-533 -364v723z" />
    <glyph glyph-name="triagdn" unicode="&#x25bc;" horiz-adv-x="669" 
d="M327 10l-336 579h688z" />
    <glyph glyph-name="triaglf" unicode="&#x25c4;" horiz-adv-x="632" 
d="M533 -4l-533 364l533 359v-723z" />
    <glyph glyph-name="lozenge" unicode="&#x25ca;" horiz-adv-x="630" 
d="M316 -51l-272 445l273 445l267 -446zM317 161l137 233l-137 232l-139 -232z" />
    <glyph glyph-name="ff" unicode="&#xfb00;" horiz-adv-x="744" 
d="M226 0h-117v408h-85v96h85v72q0 99 46 154q52 60 152 60q33 0 65 -8.5t47 -15.5t22 -12l-46 -91q-37 27 -82 27q-87 0 -87 -112v-74h127v-96h-127v-408zM598 0h-117v408h-85v96h85v119q0 99 46 154q52 60 152 60q33 0 65 -8.5t47 -15.5t22 -12l-46 -91q-37 27 -82 27
q-87 0 -87 -112v-121h127v-96h-127v-408z" />
    <glyph glyph-name="fi" unicode="&#xfb01;" horiz-adv-x="629" 
d="M226 0h-117v408h-85v96h85v113q0 99 46 154q52 60 152 60q61 0 115 -26l-46 -89q-28 15 -62 15q-88 0 -88 -112v-115h127v-96h-127v-408zM559 0h-118v505h118v-505zM501 572q-33 0 -54 21t-21 55t21.5 55t54.5 21t54 -21.5t21 -54.5q0 -34 -21.5 -55t-54.5 -21z" />
    <glyph glyph-name="fl" unicode="&#xfb02;" horiz-adv-x="624" 
d="M226 0h-117v408h-85v96h85v98q0 99 46 154q52 60 152 60q48 0 99 -19l-30 -96q-28 15 -62 15q-88 0 -88 -112v-100h127v-96h-127v-408zM557 0h-118v820h118v-820z" />
    <glyph glyph-name="ffi" unicode="&#xfb03;" horiz-adv-x="1002" 
d="M226 0h-117v408h-85v96h85v72q0 99 46 154q52 60 152 60q33 0 65 -8.5t47 -15.5t22 -12l-46 -91q-37 27 -82 27q-87 0 -87 -112v-74h127v-96h-127v-408zM598 0h-117v408h-85v96h85v118q0 99 46 154q52 60 152 60q61 0 115 -26l-46 -89q-28 15 -62 15q-88 0 -88 -112v-120
h127v-96h-127v-408zM932 0h-118v505h118v-505zM874 572q-32 0 -53.5 21t-21.5 55t21.5 55t54.5 21t54 -21.5t21 -54.5q0 -34 -21.5 -55t-54.5 -21z" />
    <glyph glyph-name="ffl" unicode="&#xfb04;" horiz-adv-x="996" 
d="M226 0h-117v408h-85v96h85v67q0 99 46 154q52 60 152 60q33 0 65 -8.5t47 -15.5t22 -12l-46 -91q-37 27 -82 27q-87 0 -87 -112v-69h127v-96h-127v-408zM598 0h-117v408h-85v96h85v103q0 99 46 154q52 60 152 60q48 0 99 -19l-30 -96q-28 15 -62 15q-88 0 -88 -112v-105
h127v-96h-127v-408zM929 0h-118v820h118v-820z" />
    <glyph glyph-name="tcommaaccent.semp" horiz-adv-x="331" 
d="M118 -243h-101l74 205h139zM183 0h-118v675h118v-171h134v-96h-134v-408z" />
    <glyph glyph-name="d.sc" horiz-adv-x="620" 
d="M248 0h-174v538h161q157 0 248 -70t91 -202q0 -127 -86 -196.5t-240 -69.5zM197 111h62q84 0 133.5 37.5t49.5 115.5q0 75 -46 119t-120 44h-79v-316z" />
    <glyph glyph-name="c.sc" horiz-adv-x="614" 
d="M522 150l56 -87q-87 -76 -213 -76q-140 0 -231.5 83t-91.5 201q0 116 88 198.5t224 82.5q62 0 116 -19.5t76 -36.5t27 -25l-64 -84q-63 55 -152 55q-87 0 -138 -49t-51 -122q0 -76 55 -125.5t141 -49.5q52 0 94 17t64 37z" />
    <glyph glyph-name="Amacron.semp" horiz-adv-x="747" 
d="M760 0h-143l-56 120h-377l-55 -120h-142l387 788zM507 236l-121 263q-12 27 -13 35q-5 -15 -15 -35l-121 -263h270zM586 852h-427v99h427v-99z" />
    <glyph glyph-name="Abreve.semp" horiz-adv-x="747" 
d="M760 0h-143l-56 120h-377l-55 -120h-142l387 788zM507 236l-121 263q-12 27 -13 35q-5 -15 -15 -35l-121 -263h270zM442 1007h108q-4 -66 -51 -119t-130 -53q-69 0 -118 45.5t-55 126.5h111q0 -13 3 -29t18 -35t40 -19q31 0 49.5 21t21.5 36.5t3 25.5z" />
    <glyph glyph-name="Aogonek.semp" horiz-adv-x="746" 
d="M779 -114v-78q-57 -34 -119 -34q-56 0 -88.5 28t-32.5 71q0 71 78 127l-56 120h-377l-55 -120h-142l387 788l388 -792q-122 -41 -122 -106q0 -29 45 -29q55 0 94 25zM507 236l-121 263q-12 27 -13 35q-5 -15 -15 -35l-121 -263h270z" />
    <glyph glyph-name="Atilde.semp" horiz-adv-x="747" 
d="M534 980l56 -84q-82 -73 -146 -73q-31 0 -72.5 24.5t-61.5 24.5q-34 0 -98 -50l-55 77q27 24 74 49t82 25q27 0 67.5 -25.5t59.5 -25.5q42 0 94 58zM760 0h-143l-56 120h-377l-55 -120h-142l387 788zM507 236l-121 263q-12 27 -13 35q-5 -15 -15 -35l-121 -263h270z" />
    <glyph glyph-name="Aring.semp" horiz-adv-x="747" 
d="M498 923q0 -50 -36 -85.5t-88 -35.5t-88.5 35.5t-36.5 85.5q0 51 36.5 86t88.5 35q51 0 87.5 -36t36.5 -85zM426 923q0 21 -15.5 37t-36.5 16t-35.5 -16t-14.5 -37t14.5 -36.5t35.5 -15.5t36.5 15.5t15.5 36.5zM760 0h-143l-56 120h-377l-55 -120h-142l387 788zM507 236
l-121 263q-12 27 -13 35q-5 -15 -15 -35l-121 -263h270z" />
    <glyph glyph-name="Agrave.semp" horiz-adv-x="747" 
d="M518 825l-318 49l47 105l302 -69zM760 0h-143l-56 120h-377l-55 -120h-142l387 788zM507 236l-121 263q-12 27 -13 35q-5 -15 -15 -35l-121 -263h270z" />
    <glyph glyph-name="Adieresis.semp" horiz-adv-x="747" 
d="M312 912q0 -28 -22.5 -48.5t-55.5 -20.5q-31 0 -53.5 20.5t-22.5 48.5q0 29 22.5 49t53.5 20q33 0 55.5 -20t22.5 -49zM576 912q0 -29 -21.5 -49t-56.5 -20q-32 0 -53.5 20.5t-21.5 48.5q0 30 21 49.5t54 19.5q35 0 56.5 -19.5t21.5 -49.5zM760 0h-143l-56 120h-377
l-55 -120h-142l387 788zM507 236l-121 263q-12 27 -13 35q-5 -15 -15 -35l-121 -263h270z" />
    <glyph glyph-name="Acircumflex.semp" horiz-adv-x="747" 
d="M760 0h-143l-56 120h-377l-55 -120h-142l387 788zM531 808l-160 57l-167 -65l-48 72l216 109l218 -105zM507 236l-121 263q-12 27 -13 35q-5 -15 -15 -35l-121 -263h270z" />
    <glyph glyph-name="Aacute.semp" horiz-adv-x="747" 
d="M549 879l-318 -49l-31 84l302 69zM760 0h-143l-56 120h-377l-55 -120h-142l387 788zM507 236l-121 263q-12 27 -13 35q-5 -15 -15 -35l-121 -263h270z" />
    <glyph glyph-name="J.semp2" horiz-adv-x="485" 
d="M276 225v532h128v-548q0 -108 -66 -166.5t-165 -58.5q-73 0 -156 45l50 103q67 -38 110 -38q45 0 72 32t27 99z" />
    <glyph glyph-name="J.semp" horiz-adv-x="510" 
d="M301 227v413h-177v116h305v-547q0 -108 -66 -166.5t-165 -58.5q-83 0 -176 52l50 105q76 -45 127 -45q48 0 75 34t27 97z" />
    <glyph glyph-name="J.alt" horiz-adv-x="298" 
d="M-42 -269l-25 111q95 33 123.5 79.5t28.5 156.5v679h128v-687q0 -80 -13 -133t-46.5 -91t-76.5 -62t-119 -53z" />
    <glyph glyph-name="A.semp" horiz-adv-x="747" 
d="M760 0h-143l-56 120h-377l-55 -120h-142l387 788zM507 236l-121 263q-12 27 -13 35q-5 -15 -15 -35l-121 -263h270z" />
    <glyph glyph-name="i.sc" horiz-adv-x="271" 
d="M197 0h-123v538h123v-538z" />
    <glyph glyph-name="dotlessj.semp" horiz-adv-x="255" 
d="M186 -240l-117 -26v771h117v-745z" />
    <glyph glyph-name="jcircumflex.semp" horiz-adv-x="255" 
d="M186 -240l-117 -26v771h117v-745zM249 572l-125 93l-123 -93l-63 71l187 136l186 -136z" />
    <glyph glyph-name="uni1E1F.semp" horiz-adv-x="328" 
d="M182 -244h-117v847q0 99 46 154q52 60 152 60q33 0 65 -8.5t47 -15.5t22 -12l-46 -91q-37 27 -82 27q-87 0 -87 -112v-101h127v-96h-127v-652zM306 959q0 -29 -21 -50t-52 -21q-29 0 -50.5 21.5t-21.5 49.5q0 30 21.5 52t50.5 22q31 0 52 -21.5t21 -52.5z" />
    <glyph glyph-name="uni1E1F.semp2" horiz-adv-x="328" 
d="M182 0h-117v603q0 99 46 154q52 60 152 60q33 0 65 -8.5t47 -15.5t22 -12l-46 -91q-37 27 -82 27q-87 0 -87 -112v-101h127v-96h-127v-408zM306 959q0 -29 -21 -50t-52 -21q-29 0 -50.5 21.5t-21.5 49.5q0 30 21.5 52t50.5 22q31 0 52 -21.5t21 -52.5z" />
    <glyph glyph-name="Jcircumflex.alt" horiz-adv-x="298" 
d="M272 824l-125 93l-123 -93l-63 71l187 136l186 -136zM-42 -269l-25 111q95 33 123.5 79.5t28.5 156.5v679h128v-687q0 -80 -13 -133t-46.5 -91t-76.5 -62t-119 -53z" />
    <glyph glyph-name="Jcircumflex.semp" horiz-adv-x="510" 
d="M301 227v413h-177v116h305v-547q0 -108 -66 -166.5t-165 -58.5q-83 0 -176 52l50 105q76 -45 127 -45q48 0 75 34t27 97zM445 808l-160 59l-167 -59l-48 72l216 101l218 -105z" />
    <glyph glyph-name="Jcircumflex.semp2" horiz-adv-x="482" 
d="M273 225v532h128v-548q0 -108 -66 -166.5t-165 -58.5q-74 0 -156 45l50 103q67 -38 110 -38q45 0 72 32t27 99zM493 808l-160 59l-167 -59l-48 72l216 101l218 -105z" />
    <glyph glyph-name="Ygrave.alt" horiz-adv-x="653" 
d="M390 0h-128v313l-276 444h142l194 -321q5 -8 6 -27q1 16 8 27l194 321h142l-282 -444v-313zM472 824l-318 49l47 105l302 -69z" />
    <glyph glyph-name="Yacute.alt" horiz-adv-x="653" 
d="M390 0h-128v313l-276 444h142l194 -321q5 -8 6 -27q1 16 8 27l194 321h142l-282 -444v-313zM504 873l-318 -49l-31 85l302 69z" />
    <glyph glyph-name="IJ.alt" horiz-adv-x="596" 
d="M213 0h-128v757h128v-757zM255 -269l-25 111q95 33 124 79.5t29 156.5v679h128v-687q0 -80 -13 -133t-46.5 -91t-77 -62t-119.5 -53z" />
    <glyph glyph-name="IJ.semp" horiz-adv-x="808" 
d="M213 0h-128v757h128v-757zM599 227v413h-177v116h305v-547q0 -108 -66 -166.5t-165 -58.5q-83 0 -176 52l50 105q76 -45 127 -45q48 0 75 34t27 97z" />
    <glyph glyph-name="IJ.semp2" horiz-adv-x="783" 
d="M213 0h-128v757h128v-757zM574 225v532h128v-548q0 -108 -66 -166.5t-165 -58.5q-73 0 -156 45l50 103q67 -38 110 -38q45 0 72 32t27 99z" />
    <glyph glyph-name="a.alt" horiz-adv-x="593" 
d="M529 -1h-99l-11 57q-25 -34 -66.5 -52t-78.5 -18q-95 0 -166 73.5t-71 192.5q0 125 81 196t197 71q120 0 214 -52v-468zM411 145v256q-47 21 -92 21q-67 0 -112.5 -42.5t-45.5 -127.5q0 -63 35 -115.5t100 -52.5q38 0 68.5 17t46.5 44z" />
    <glyph glyph-name="f.semp2" horiz-adv-x="328" 
d="M182 0h-117v603q0 99 46 154q52 60 152 60q33 0 65 -8.5t47 -15.5t22 -12l-46 -91q-37 27 -82 27q-87 0 -87 -112v-101h127v-96h-127v-408z" />
    <glyph glyph-name="f.alt" horiz-adv-x="372" 
d="M226 -244h-117v652h-85v96h85v99q0 99 46 154q52 60 152 60q33 0 65 -8.5t47 -15.5t22 -12l-46 -91q-37 27 -82 27q-87 0 -87 -112v-101h127v-96h-127v-652z" />
    <glyph glyph-name="f.semp" horiz-adv-x="328" 
d="M182 -244h-117v847q0 99 46 154q52 60 152 60q33 0 65 -8.5t47 -15.5t22 -12l-46 -91q-37 27 -82 27q-87 0 -87 -112v-101h127v-96h-127v-652z" />
    <glyph glyph-name="j.semp" horiz-adv-x="255" 
d="M186 -240l-117 -26v771h117v-745zM128 592q-33 0 -54.5 21t-21.5 55t21.5 55t54.5 21q34 0 55 -21.5t21 -54.5q0 -34 -21.5 -55t-54.5 -21z" />
    <glyph glyph-name="m.alt" horiz-adv-x="872" 
d="M810 0h-118v294q0 70 -29.5 98t-82.5 28q-52 0 -93 -30q9 -31 9 -68v-322h-118v294q0 70 -29.5 98t-82.5 28q-50 0 -84 -25v-395h-118v462q110 57 211 57q94 0 145 -47q76 47 169 47q105 0 163 -50t58 -147v-322z" />
    <glyph glyph-name="n.alt" horiz-adv-x="577" 
d="M515 0h-118v294q0 126 -121 126q-60 0 -94 -25v-395h-118v462q110 57 221 57q106 0 168 -50.5t62 -146.5v-322z" />
    <glyph glyph-name="longs.semp" horiz-adv-x="291" 
d="M226 -244h-117v652h-85v96h85v99q0 99 46 154q52 60 152 60q33 0 65 -8.5t47 -15.5t22 -12l-46 -91q-37 27 -82 27q-87 0 -87 -112v-849z" />
    <glyph glyph-name="t.alt" horiz-adv-x="375" 
d="M341 78l-47 -90q-96 0 -142 38t-46 140v242h-88v96h88v173h118v-173h129v-96h-129v-227q0 -36 6.5 -57t24.5 -30.5t34.5 -12t51.5 -3.5z" />
    <glyph glyph-name="t.alt2" horiz-adv-x="396" 
d="M257 0h-118v408h-124v96h124v173h118v-173h124v-96h-124v-408z" />
    <glyph glyph-name="t.semp" horiz-adv-x="332" 
d="M183 0h-118v675h118v-171h134v-96h-134v-408z" />
    <glyph glyph-name="aacute.alt" horiz-adv-x="593" 
d="M466 746l-192 -163l-76 50l168 186zM529 -1h-99l-11 57q-25 -34 -66.5 -52t-78.5 -18q-95 0 -166 73.5t-71 192.5q0 125 81 196t197 71q120 0 214 -52v-468zM411 145v256q-47 21 -92 21q-67 0 -112.5 -42.5t-45.5 -127.5q0 -63 35 -115.5t100 -52.5q38 0 68.5 17t46.5 44
z" />
    <glyph glyph-name="acircumflex.alt" horiz-adv-x="593" 
d="M422 572l-125 93l-123 -93l-64 71l188 136l186 -136zM529 -1h-99l-11 57q-25 -34 -66.5 -52t-78.5 -18q-95 0 -166 73.5t-71 192.5q0 125 81 196t197 71q120 0 214 -52v-468zM411 145v256q-47 21 -92 21q-67 0 -112.5 -42.5t-45.5 -127.5q0 -63 35 -115.5t100 -52.5
q38 0 68.5 17t46.5 44z" />
    <glyph glyph-name="adieresis.alt" horiz-adv-x="593" 
d="M255 646q0 -26 -20.5 -45t-50.5 -19q-28 0 -48 19t-20 45q0 27 20 46t48 19q30 0 50.5 -18.5t20.5 -46.5zM495 646q0 -27 -19.5 -45.5t-50.5 -18.5q-29 0 -48.5 18.5t-19.5 45.5q0 28 19.5 46.5t48.5 18.5q32 0 51 -18.5t19 -46.5zM529 -1h-99l-11 57q-25 -34 -66.5 -52
t-78.5 -18q-95 0 -166 73.5t-71 192.5q0 125 81 196t197 71q120 0 214 -52v-468zM411 145v256q-47 21 -92 21q-67 0 -112.5 -42.5t-45.5 -127.5q0 -63 35 -115.5t100 -52.5q38 0 68.5 17t46.5 44z" />
    <glyph glyph-name="agrave.alt" horiz-adv-x="593" 
d="M417 633l-76 -50l-192 163l100 73zM529 -1h-99l-11 57q-25 -34 -66.5 -52t-78.5 -18q-95 0 -166 73.5t-71 192.5q0 125 81 196t197 71q120 0 214 -52v-468zM411 145v256q-47 21 -92 21q-67 0 -112.5 -42.5t-45.5 -127.5q0 -63 35 -115.5t100 -52.5q38 0 68.5 17t46.5 44z
" />
    <glyph glyph-name="aring.alt" horiz-adv-x="593" 
d="M423 704q0 -50 -36 -85.5t-88 -35.5t-88.5 35.5t-36.5 85.5q0 51 36.5 86t88.5 35q51 0 87.5 -36t36.5 -85zM351 704q0 21 -15.5 37t-36.5 16t-35.5 -16t-14.5 -37t14.5 -36.5t35.5 -15.5t36.5 15.5t15.5 36.5zM529 -1h-99l-11 57q-25 -34 -66.5 -52t-78.5 -18
q-95 0 -166 73.5t-71 192.5q0 125 81 196t197 71q120 0 214 -52v-468zM411 145v256q-47 21 -92 21q-67 0 -112.5 -42.5t-45.5 -127.5q0 -63 35 -115.5t100 -52.5q38 0 68.5 17t46.5 44z" />
    <glyph glyph-name="atilde.alt" horiz-adv-x="593" 
d="M456 740l49 -79q-78 -78 -139 -78q-31 0 -72.5 24.5t-61.5 24.5q-9 0 -18.5 -2.5t-19.5 -9t-16 -11t-18 -14t-16 -13.5l-58 73q31 28 73 53t76 25q27 0 67.5 -25.5t59.5 -25.5q42 0 94 58zM529 -1h-99l-11 57q-25 -34 -66.5 -52t-78.5 -18q-95 0 -166 73.5t-71 192.5
q0 125 81 196t197 71q120 0 214 -52v-468zM411 145v256q-47 21 -92 21q-67 0 -112.5 -42.5t-45.5 -127.5q0 -63 35 -115.5t100 -52.5q38 0 68.5 17t46.5 44z" />
    <glyph glyph-name="aogonek.alt" horiz-adv-x="593" 
d="M573 -114v-78q-57 -34 -119 -34q-56 0 -88.5 28t-32.5 71q0 81 96 127l-10 56q-25 -34 -66.5 -52t-78.5 -18q-95 0 -166 73.5t-71 192.5q0 125 81 196t197 71q120 0 214 -52v-471q-53 -23 -74 -51t-21 -52q0 -32 44 -32q56 0 95 25zM411 145v256q-47 21 -92 21
q-67 0 -112.5 -42.5t-45.5 -127.5q0 -63 35 -115.5t100 -52.5q38 0 68.5 17t46.5 44z" />
    <glyph glyph-name="abreve.alt" horiz-adv-x="593" 
d="M368 755h108q-4 -66 -51 -119t-130 -53q-69 0 -118 45.5t-55 126.5h111q0 -13 3 -29t18 -35t40 -19q31 0 49.5 21t21.5 36.5t3 25.5zM529 -1h-99l-11 57q-25 -34 -66.5 -52t-78.5 -18q-95 0 -166 73.5t-71 192.5q0 125 81 196t197 71q120 0 214 -52v-468zM411 145v256
q-47 21 -92 21q-67 0 -112.5 -42.5t-45.5 -127.5q0 -63 35 -115.5t100 -52.5q38 0 68.5 17t46.5 44z" />
    <glyph glyph-name="amacron.alt" horiz-adv-x="593" 
d="M510 600h-427v99h427v-99zM529 -1h-99l-11 57q-25 -34 -66.5 -52t-78.5 -18q-95 0 -166 73.5t-71 192.5q0 125 81 196t197 71q120 0 214 -52v-468zM411 145v256q-47 21 -92 21q-67 0 -112.5 -42.5t-45.5 -127.5q0 -63 35 -115.5t100 -52.5q38 0 68.5 17t46.5 44z" />
    <glyph glyph-name="tcommaaccent.alt2" horiz-adv-x="394" 
d="M191 -243h-101l74 205h139zM256 0h-118v408h-124v96h124v173h118v-173h124v-96h-124v-408z" />
    <glyph glyph-name="tcommaaccent.alt" horiz-adv-x="375" 
d="M185 -243h-101l74 205h139zM341 78l-47 -90q-96 0 -142 38t-46 140v242h-88v96h88v173h118v-173h129v-96h-129v-227q0 -36 6.5 -57t24.5 -30.5t34.5 -12t51.5 -3.5z" />
    <glyph glyph-name="tcaron.semp" horiz-adv-x="332" 
d="M340 575h-82l80 232h126zM183 0h-118v675h118v-171h134v-96h-134v-408z" />
    <glyph glyph-name="tcaron.alt2" horiz-adv-x="396" 
d="M414 575h-82l80 232h126zM257 0h-118v408h-124v96h124v173h118v-173h124v-96h-124v-408z" />
    <glyph glyph-name="tcaron.alt" horiz-adv-x="375" 
d="M381 575h-82l80 232h126zM341 78l-47 -90q-96 0 -142 38t-46 140v242h-88v96h88v173h118v-173h129v-96h-129v-227q0 -36 6.5 -57t24.5 -30.5t34.5 -12t51.5 -3.5z" />
    <glyph glyph-name="napostrophe.alt" horiz-adv-x="614" 
d="M552 0h-118v294q0 126 -121 126q-60 0 -94 -25v-395h-118v462q110 57 221 57q106 0 168 -50.5t62 -146.5v-322zM0 467h-101l74 205h138z" />
    <glyph glyph-name="ntilde.alt" horiz-adv-x="577" 
d="M515 0h-118v294q0 126 -121 126q-60 0 -94 -25v-395h-118v462q110 57 221 57q106 0 168 -50.5t62 -146.5v-322zM427 740l49 -79q-78 -78 -139 -78q-31 0 -72.5 24.5t-61.5 24.5q-9 0 -18.5 -2.5t-19.5 -9t-16 -11t-18 -14t-16 -13.5l-58 73q31 28 73 53t76 25
q27 0 67.5 -25.5t59.5 -25.5q42 0 94 58z" />
    <glyph glyph-name="ncommaaccent.alt" horiz-adv-x="576" 
d="M514 0h-118v294q0 126 -121 126q-60 0 -94 -25v-395h-118v462q110 57 221 57q106 0 168 -50.5t62 -146.5v-322zM254 -243h-101l74 205h139z" />
    <glyph glyph-name="ncaron.alt" horiz-adv-x="577" 
d="M515 0h-118v294q0 126 -121 126q-60 0 -94 -25v-395h-118v462q110 57 221 57q106 0 168 -50.5t62 -146.5v-322zM457 714l-186 -136l-188 136l64 71l123 -93l125 93z" />
    <glyph glyph-name="nacute.alt" horiz-adv-x="577" 
d="M515 0h-118v294q0 126 -121 126q-60 0 -94 -25v-395h-118v462q110 57 221 57q106 0 168 -50.5t62 -146.5v-322zM434 746l-192 -163l-76 50l168 186z" />
    <glyph glyph-name="uni1E41.alt" horiz-adv-x="872" 
d="M810 0h-118v294q0 70 -29.5 98t-82.5 28q-52 0 -93 -30q9 -31 9 -68v-322h-118v294q0 70 -29.5 98t-82.5 28q-50 0 -84 -25v-395h-118v462q110 57 211 57q94 0 145 -47q76 47 169 47q105 0 163 -50t58 -147v-322zM508 654q0 -29 -21 -50t-52 -21q-29 0 -50.5 21.5
t-21.5 49.5q0 30 21.5 52t50.5 22q31 0 52 -21.5t21 -52.5z" />
    <glyph glyph-name="ncaron.sc" horiz-adv-x="676" 
d="M602 -19l-408 324l2 -305h-123l2 554l408 -328l-2 312h122zM515 734l-186 -136l-188 136l64 71l123 -93l125 93z" />
    <glyph glyph-name="nacute.sc" horiz-adv-x="676" 
d="M602 -19l-408 324l2 -305h-123l2 554l408 -328l-2 312h122zM502 766l-192 -163l-76 50l168 186z" />
    <glyph glyph-name="uni1E41.sc" horiz-adv-x="783" 
d="M739 0h-124l-31 232q-2 14 0 39q-3 -11 -22 -40l-171 -251l-172 250q-12 17 -21 40q4 -16 1 -39l-30 -231h-124l82 552l257 -364q6 -12 7 -18q2 11 7 18l258 364zM464 654q0 -29 -21 -50t-52 -21q-29 0 -50.5 21.5t-21.5 49.5q0 30 21.5 52t50.5 22q31 0 52 -21.5
t21 -52.5z" />
    <glyph glyph-name="ldot.sc" horiz-adv-x="507" 
d="M437 1h-362v537h123v-427h239v-110zM473 332q0 -29 -21 -50t-52 -21q-29 0 -50.5 21.5t-21.5 49.5q0 30 21.5 52t50.5 22q31 0 52 -21.5t21 -52.5z" />
    <glyph glyph-name="lcommaaccent.sc" horiz-adv-x="459" 
d="M437 1h-362v537h123v-427h239v-110zM236 -243h-101l74 205h139z" />
    <glyph glyph-name="lcaron.sc" horiz-adv-x="486" 
d="M437 1h-362v537h123v-427h239v-110zM397 386h-101l74 205h139z" />
    <glyph glyph-name="lacute.sc" horiz-adv-x="460" 
d="M437 1h-362v537h123v-427h239v-110zM332 766l-192 -163l-76 50l168 186z" />
    <glyph glyph-name="lslash.sc" horiz-adv-x="469" 
d="M446 1h-362v139l-60 -31v118l60 32v279h123v-210l118 60v-118l-118 -61v-98h239v-110z" />
    <glyph glyph-name="kcommaaccent.sc" horiz-adv-x="602" 
d="M609 0h-181l-230 197v-197h-124v538h124v-194l193 194h160l-276 -262zM279 -243h-101l74 205h139z" />
    <glyph glyph-name="jcircumflex.sc.semp" horiz-adv-x="422" 
d="M237 207v220h-157v111h280v-390q0 -76 -54.5 -118.5t-127.5 -42.5q-98 0 -168 40l39 103q54 -38 100 -38q49 0 68.5 27t19.5 88zM347 602l-125 93l-123 -93l-64 71l188 136l186 -136z" />
    <glyph glyph-name="jcircumflex.sc" horiz-adv-x="272" 
d="M-4 -180l-44 103q76 20 99.5 49.5t23.5 109.5v456h123v-459q0 -112 -41.5 -164t-160.5 -95zM261 572l-125 93l-123 -93l-63 71l187 136l186 -136z" />
    <glyph glyph-name="itilde.sc" horiz-adv-x="271" 
d="M197 0h-123v538h123v-538zM296 740l49 -79q-78 -78 -139 -78q-31 0 -72.5 24.5t-61.5 24.5q-9 0 -18 -2.5t-19.5 -9t-16 -10.5t-18 -15t-15.5 -13l-58 73q87 78 148 78q27 0 67.5 -25.5t59.5 -25.5q42 0 94 58z" />
    <glyph glyph-name="ibreve.sc" horiz-adv-x="271" 
d="M197 0h-123v538h123v-538zM204 755h108q-4 -66 -51 -119t-130 -53q-68 0 -117 45t-55 127h110q0 -13 3 -29t18 -35t40 -19q31 0 49.5 21t21.5 36.5t3 25.5z" />
    <glyph glyph-name="iogonek.sc" horiz-adv-x="272" 
d="M233 -114v-78q-57 -34 -119 -34q-56 0 -88 28t-32 71q0 74 81 128v537h123v-542q-58 -23 -81 -51t-23 -52q0 -32 44 -32q56 0 95 25z" />
    <glyph glyph-name="imacron.sc" horiz-adv-x="271" 
d="M197 0h-123v538h123v-538zM329 600h-386v99h386v-99z" />
    <glyph glyph-name="ncommaaccent.sc" horiz-adv-x="676" 
d="M602 -19l-408 324l2 -305h-123l2 554l408 -328l-2 312h122zM333 -243h-101l74 205h139z" />
    <glyph glyph-name="ntilde.sc" horiz-adv-x="676" 
d="M479 752l41 -62q-10 -15 -24.5 -32t-45 -37t-60.5 -20q-23 0 -61 20t-57 20q-35 0 -86 -51l-56 64q88 85 146 85q24 0 61 -21t56 -21q35 0 86 55zM602 -19l-408 324l2 -305h-123l2 554l408 -328l-2 312h122z" />
    <glyph glyph-name="napostrophe.sc" horiz-adv-x="746" 
d="M672 -19l-408 324l2 -305h-123l2 554l408 -328l-2 312h122zM20 482h-100l74 205h138z" />
    <glyph glyph-name="oacute.sc" horiz-adv-x="687" 
d="M645 266q0 -114 -89.5 -196.5t-211.5 -82.5q-126 0 -214 83t-88 199t88 199.5t214 83.5t213.5 -82t87.5 -204zM518 268q0 73 -50.5 123.5t-124.5 50.5t-124 -50t-50 -123q0 -71 50 -122t123 -51q75 0 125.5 50t50.5 122zM534 765l-194 -163l-77 52l167 184z" />
    <glyph glyph-name="ocircumflex.sc" horiz-adv-x="687" 
d="M645 266q0 -114 -89.5 -196.5t-211.5 -82.5q-126 0 -214 83t-88 199t88 199.5t214 83.5t213.5 -82t87.5 -204zM518 268q0 73 -50.5 123.5t-124.5 50.5t-124 -50t-50 -123q0 -71 50 -122t123 -51q75 0 125.5 50t50.5 122zM468 599l-125 83l-123 -83l-64 70l188 136
l186 -136z" />
    <glyph glyph-name="odieresis.sc" horiz-adv-x="687" 
d="M645 266q0 -114 -89.5 -196.5t-211.5 -82.5q-126 0 -214 83t-88 199t88 199.5t214 83.5t213.5 -82t87.5 -204zM518 268q0 73 -50.5 123.5t-124.5 50.5t-124 -50t-50 -123q0 -71 50 -122t123 -51q75 0 125.5 50t50.5 122zM289 681q0 -26 -20.5 -45t-50.5 -19q-28 0 -48 19
t-20 45q0 27 20 46t48 19q30 0 50.5 -18.5t20.5 -46.5zM529 681q0 -27 -19.5 -45.5t-50.5 -18.5q-29 0 -48.5 18.5t-19.5 45.5q0 28 19.5 46.5t48.5 18.5q32 0 51 -18.5t19 -46.5z" />
    <glyph glyph-name="ograve.sc" horiz-adv-x="687" 
d="M645 266q0 -114 -89.5 -196.5t-211.5 -82.5q-126 0 -214 83t-88 199t88 199.5t214 83.5t213.5 -82t87.5 -204zM518 268q0 73 -50.5 123.5t-124.5 50.5t-124 -50t-50 -123q0 -71 50 -122t123 -51q75 0 125.5 50t50.5 122zM462 652l-81 -50l-192 163l105 73z" />
    <glyph glyph-name="ohungarumlaut.sc" horiz-adv-x="687" 
d="M645 266q0 -114 -89.5 -196.5t-211.5 -82.5q-126 0 -214 83t-88 199t88 199.5t214 83.5t213.5 -82t87.5 -204zM518 268q0 73 -50.5 123.5t-124.5 50.5t-124 -50t-50 -123q0 -71 50 -122t123 -51q75 0 125.5 50t50.5 122zM388 733l-216 -131l-46 57l191 164zM620 733
l-216 -131l-46 57l191 164z" />
    <glyph glyph-name="omacron.sc" horiz-adv-x="687" 
d="M645 266q0 -114 -89.5 -196.5t-211.5 -82.5q-126 0 -214 83t-88 199t88 199.5t214 83.5t213.5 -82t87.5 -204zM518 268q0 73 -50.5 123.5t-124.5 50.5t-124 -50t-50 -123q0 -71 50 -122t123 -51q75 0 125.5 50t50.5 122zM537 620h-387v99h387v-99z" />
    <glyph glyph-name="otilde.sc" horiz-adv-x="687" 
d="M645 266q0 -114 -89.5 -196.5t-211.5 -82.5q-126 0 -214 83t-88 199t88 199.5t214 83.5t213.5 -82t87.5 -204zM518 268q0 73 -50.5 123.5t-124.5 50.5t-124 -50t-50 -123q0 -71 50 -122t123 -51q75 0 125.5 50t50.5 122zM498 759l41 -62q-10 -15 -24.5 -32t-45 -37
t-60.5 -20q-23 0 -61 20t-57 20q-35 0 -86 -51l-56 64q88 85 146 85q24 0 61 -21t56 -21q35 0 86 55z" />
    <glyph glyph-name="idotaccent.sc" horiz-adv-x="271" 
d="M197 0h-123v538h123v-538zM207 672q0 -29 -21 -50t-52 -21q-29 0 -50.5 21.5t-21.5 49.5q0 30 21.5 52t50.5 22q31 0 52 -21.5t21 -52.5z" />
    <glyph glyph-name="igrave.sc" horiz-adv-x="271" 
d="M197 0h-123v538h123v-538zM239 633l-76 -50l-191 163l99 73z" />
    <glyph glyph-name="idieresis.sc" horiz-adv-x="271" 
d="M197 0h-123v538h123v-538zM115 646q0 -26 -20.5 -45t-50.5 -19q-28 0 -47.5 19t-19.5 45q0 28 19.5 46.5t47.5 18.5q30 0 50.5 -18.5t20.5 -46.5zM295 646q0 -27 -19.5 -45.5t-50.5 -18.5q-29 0 -48.5 18.5t-19.5 45.5q0 28 19.5 46.5t48.5 18.5q32 0 51 -18.5t19 -46.5z
" />
    <glyph glyph-name="icircumflex.sc" horiz-adv-x="271" 
d="M197 0h-123v538h123v-538zM260 572l-125 93l-123 -93l-63 71l187 136l186 -136z" />
    <glyph glyph-name="iacute.sc" horiz-adv-x="271" 
d="M197 0h-123v538h123v-538zM309 746l-192 -163l-76 50l168 186z" />
    <glyph glyph-name="hbar.sc" horiz-adv-x="653" 
d="M573 0h-123v220h-246v-220h-123v389h-58v89h58v60h123v-60h246v60h123v-60h57v-89h-57v-389zM450 330v59h-246v-59h246z" />
    <glyph glyph-name="hcircumflex.sc" horiz-adv-x="640" 
d="M566 0h-123v220h-246v-220h-123v538h123v-208h246v208h123v-538zM444 592l-125 93l-123 -93l-64 71l188 136l186 -136z" />
    <glyph glyph-name="obreve.sc" horiz-adv-x="687" 
d="M645 266q0 -114 -89.5 -196.5t-211.5 -82.5q-126 0 -214 83t-88 199t88 199.5t214 83.5t213.5 -82t87.5 -204zM518 268q0 73 -50.5 123.5t-124.5 50.5t-124 -50t-50 -123q0 -71 50 -122t123 -51q75 0 125.5 50t50.5 122zM412 775h108q-4 -66 -51 -119t-130 -53
q-69 0 -118 45.5t-55 126.5h111q0 -13 3 -29t18 -35t40 -19q31 0 49.5 21t21.5 36.5t3 25.5z" />
    <glyph glyph-name="oslash.sc" horiz-adv-x="687" 
d="M229 -120l-100 42l49 110q-63 39 -99.5 102t-36.5 135q0 116 88 199.5t214 83.5q27 0 59 -5l50 113l103 -46l-48 -107q63 -38 100 -101.5t37 -139.5q0 -114 -89.5 -196.5t-211.5 -82.5q-28 0 -65 7zM326 96h16q75 0 125.5 50t50.5 122q0 79 -58 130zM225 141l132 300
q-5 1 -14 1q-74 0 -124 -50t-50 -123q0 -77 56 -128z" />
    <glyph glyph-name="oslashacute.sc" horiz-adv-x="687" 
d="M229 -120l-100 42l49 110q-63 39 -99.5 102t-36.5 135q0 116 88 199.5t214 83.5q27 0 59 -5l50 113l103 -46l-48 -107q63 -38 100 -101.5t37 -139.5q0 -114 -89.5 -196.5t-211.5 -82.5q-28 0 -65 7zM326 96h16q75 0 125.5 50t50.5 122q0 79 -58 130zM225 141l132 300
q-5 1 -14 1q-74 0 -124 -50t-50 -123q0 -77 56 -128zM484 765l-194 -163l-77 52l167 184z" />
    <glyph glyph-name="uni1E57.sc" horiz-adv-x="501" 
d="M197 0h-123v538h132q262 0 262 -178q0 -88 -59.5 -140t-174.5 -52h-37v-168zM197 278h35q53 0 79.5 21t26.5 56q0 32 -23 52.5t-74 20.5h-44v-150zM321 674q0 -29 -21 -50t-52 -21q-29 0 -50.5 21.5t-21.5 49.5q0 30 21.5 52t50.5 22q31 0 52 -21.5t21 -52.5z" />
    <glyph glyph-name="racute.sc" horiz-adv-x="563" 
d="M423 766l-192 -163l-76 50l168 186zM585 0h-174l-189 187l-25 24v-211h-123v538h132q262 0 262 -171q0 -56 -39 -100.5t-96 -58.5zM197 278h34q53 0 80 24.5t27 59.5q0 33 -25 54.5t-71 21.5h-45v-160z" />
    <glyph glyph-name="rcaron.sc" horiz-adv-x="563" 
d="M435 734l-186 -136l-188 136l64 71l123 -93l125 93zM585 0h-174l-189 187l-25 24v-211h-123v538h132q262 0 262 -171q0 -56 -39 -100.5t-96 -58.5zM197 278h34q53 0 80 24.5t27 59.5q0 33 -25 54.5t-71 21.5h-45v-160z" />
    <glyph glyph-name="rcommaaccent.sc" horiz-adv-x="560" 
d="M276 -243h-101l74 205h139zM585 0h-174l-189 187l-25 24v-211h-123v538h132q262 0 262 -171q0 -56 -39 -100.5t-96 -58.5zM197 278h34q53 0 80 24.5t27 59.5q0 33 -25 54.5t-71 21.5h-45v-160z" />
    <glyph glyph-name="uni1E61.sc" horiz-adv-x="499" 
d="M440 485l-57 -84q-54 49 -116 49q-69 0 -69 -47q0 -24 27 -42t65 -32.5t76.5 -33.5t65.5 -56.5t27 -91.5q0 -65 -60 -112.5t-162 -47.5q-64 0 -123 28t-87 62l62 82q25 -26 66 -46t81 -20q41 0 65.5 14t24.5 41q0 28 -27 48t-65 35t-76 33.5t-65 53.5t-27 85
q0 69 59 108.5t140 39.5q105 0 175 -66zM315 674q0 -29 -21 -50t-52 -21q-29 0 -50.5 21.5t-21.5 49.5q0 30 21.5 52t50.5 22q31 0 52 -21.5t21 -52.5z" />
    <glyph glyph-name="scaron.sc" horiz-adv-x="499" 
d="M440 485l-57 -84q-54 49 -116 49q-69 0 -69 -47q0 -24 27 -42t65 -32.5t76.5 -33.5t65.5 -56.5t27 -91.5q0 -65 -60 -112.5t-162 -47.5q-64 0 -123 28t-87 62l62 82q25 -26 66 -46t81 -20q41 0 65.5 14t24.5 41q0 28 -27 48t-65 35t-76 33.5t-65 53.5t-27 85
q0 69 59 108.5t140 39.5q105 0 175 -66zM445 725l-186 -136l-188 136l64 71l123 -93l125 93z" />
    <glyph glyph-name="sacute.sc" horiz-adv-x="499" 
d="M440 485l-57 -84q-54 49 -116 49q-69 0 -69 -47q0 -24 27 -42t65 -32.5t76.5 -33.5t65.5 -56.5t27 -91.5q0 -65 -60 -112.5t-162 -47.5q-64 0 -123 28t-87 62l62 82q25 -26 66 -46t81 -20q41 0 65.5 14t24.5 41q0 28 -27 48t-65 35t-76 33.5t-65 53.5t-27 85
q0 69 59 108.5t140 39.5q105 0 175 -66zM413 766l-192 -163l-76 50l168 186z" />
    <glyph glyph-name="scedilla.sc" horiz-adv-x="499" 
d="M440 485l-57 -84q-54 49 -116 49q-69 0 -69 -47q0 -24 27 -42t65 -32.5t76.5 -33.5t65.5 -56.5t27 -91.5q0 -65 -60 -112.5t-162 -47.5q-64 0 -123 28t-87 62l62 82q25 -26 66 -46t81 -20q41 0 65.5 14t24.5 41q0 28 -27 48t-65 35t-76 33.5t-65 53.5t-27 85
q0 69 59 108.5t140 39.5q105 0 175 -66zM244 -253h-101l74 205h139z" />
    <glyph glyph-name="tcaron.sc" horiz-adv-x="514" 
d="M319 0h-123v427h-173v110h468v-110h-172v-427zM444 724l-186 -136l-188 136l64 71l123 -93l125 93z" />
    <glyph glyph-name="tcommaaccent.sc" horiz-adv-x="514" 
d="M319 0h-123v427h-173v110h468v-110h-172v-427zM251 -243h-101l74 205h139z" />
    <glyph glyph-name="uni1E6B.sc" horiz-adv-x="514" 
d="M319 0h-123v427h-173v110h468v-110h-172v-427zM329 674q0 -29 -21 -50t-52 -21q-29 0 -50.5 21.5t-21.5 49.5q0 30 21.5 52t50.5 22q31 0 52 -21.5t21 -52.5z" />
    <glyph glyph-name="tbar.sc" horiz-adv-x="514" 
d="M319 0h-123v223h-128v99h128v105h-173v110h468v-110h-172v-105h126v-99h-126v-223z" />
    <glyph glyph-name="uacute.sc" horiz-adv-x="626" 
d="M496 765l-194 -163l-77 52l167 184zM430 122v416h123v-474q-80 -77 -242 -77q-240 0 -240 213v338h123v-256q0 -107 23 -147t98 -40q72 0 115 27z" />
    <glyph glyph-name="ucircumflex.sc" horiz-adv-x="626" 
d="M430 122v416h123v-474q-80 -77 -242 -77q-240 0 -240 213v338h123v-256q0 -107 23 -147t98 -40q72 0 115 27zM439 599l-125 83l-123 -83l-64 70l188 136l186 -136z" />
    <glyph glyph-name="udieresis.sc" horiz-adv-x="626" 
d="M430 122v416h123v-474q-80 -77 -242 -77q-240 0 -240 213v338h123v-256q0 -107 23 -147t98 -40q72 0 115 27zM258 681q0 -26 -20.5 -45t-50.5 -19q-28 0 -48 19t-20 45q0 27 20 46t48 19q30 0 50.5 -18.5t20.5 -46.5zM498 681q0 -27 -19.5 -45.5t-50.5 -18.5
q-29 0 -48.5 18.5t-19.5 45.5q0 28 19.5 46.5t48.5 18.5q32 0 51 -18.5t19 -46.5z" />
    <glyph glyph-name="ugrave.sc" horiz-adv-x="626" 
d="M409 652l-81 -50l-192 163l105 73zM430 122v416h123v-474q-80 -77 -242 -77q-240 0 -240 213v338h123v-256q0 -107 23 -147t98 -40q72 0 115 27z" />
    <glyph glyph-name="uogonek.sc" horiz-adv-x="625" 
d="M496 -122v-78q-57 -34 -119 -34q-56 0 -88.5 28t-32.5 71q0 67 72 122h-18q-240 0 -240 213v338h123v-256q0 -107 23 -147t98 -40q72 0 115 27v416h123v-474q-46 -43 -114 -62q-81 -63 -81 -120q0 -29 45 -29q55 0 94 25z" />
    <glyph glyph-name="uhungarumlaut.sc" horiz-adv-x="626" 
d="M430 122v416h123v-474q-80 -77 -242 -77q-240 0 -240 213v338h123v-256q0 -107 23 -147t98 -40q72 0 115 27zM369 733l-216 -131l-46 57l191 164zM601 733l-216 -131l-46 57l191 164z" />
    <glyph glyph-name="umacron.sc" horiz-adv-x="626" 
d="M430 122v416h123v-474q-80 -77 -242 -77q-240 0 -240 213v338h123v-256q0 -107 23 -147t98 -40q72 0 115 27zM508 620h-387v99h387v-99z" />
    <glyph glyph-name="uring.sc" horiz-adv-x="626" 
d="M430 122v416h123v-474q-80 -77 -242 -77q-240 0 -240 213v338h123v-256q0 -107 23 -147t98 -40q72 0 115 27zM439 724q0 -50 -36 -85.5t-88 -35.5t-88.5 35.5t-36.5 85.5q0 51 36.5 86t88.5 35q51 0 87.5 -36t36.5 -85zM367 724q0 21 -15.5 37t-36.5 16t-35.5 -16
t-14.5 -37t14.5 -36.5t35.5 -15.5t36.5 15.5t15.5 36.5z" />
    <glyph glyph-name="utilde.sc" horiz-adv-x="626" 
d="M430 122v416h123v-474q-80 -77 -242 -77q-240 0 -240 213v338h123v-256q0 -107 23 -147t98 -40q72 0 115 27zM475 760l49 -79q-78 -78 -139 -78q-31 0 -72.5 24.5t-61.5 24.5q-9 0 -18.5 -2.5t-19.5 -9t-16 -11t-18 -14t-16 -13.5l-58 73q31 28 73 53t76 25
q27 0 67.5 -25.5t59.5 -25.5q42 0 94 58z" />
    <glyph glyph-name="ubreve.sc" horiz-adv-x="626" 
d="M430 122v416h123v-474q-80 -77 -242 -77q-240 0 -240 213v338h123v-256q0 -107 23 -147t98 -40q72 0 115 27zM383 775h108q-4 -66 -51 -119t-130 -53q-69 0 -118 45.5t-55 126.5h111q0 -13 3 -29t18 -35t40 -19q31 0 49.5 21t21.5 36.5t3 25.5z" />
    <glyph glyph-name="wcircumflex.sc" horiz-adv-x="854" 
d="M613 -29l-186 340l-184 -338l-246 565h135l122 -306q2 -6 4 -30q1 21 6 30l164 329l166 -329q5 -11 6 -30q0 21 4 30l119 306h133zM552 592l-125 93l-123 -93l-64 71l188 136l186 -136z" />
    <glyph glyph-name="eogonek.sc" horiz-adv-x="497" 
d="M433 -114v-78q-57 -34 -119 -34q-56 0 -88.5 28t-32.5 71q0 73 81 128h-199v536h355v-110h-232v-98l187 1v-110l-187 1v-110h255v-110h-89q-70 -58 -70 -111q0 -29 45 -29q55 0 94 25z" />
    <glyph glyph-name="uni1E1F.sc" horiz-adv-x="455" 
d="M197 0h-123v537h348v-110h-225v-107l183 1v-109l-183 1v-213zM317 674q0 -29 -21 -50t-52 -21q-29 0 -50.5 21.5t-21.5 49.5q0 30 21.5 52t50.5 22q31 0 52 -21.5t21 -52.5z" />
    <glyph glyph-name="gcircumflex.sc" horiz-adv-x="669" 
d="M509 202l-138 -1v105h267q-1 -84 -25 -147.5t-64.5 -100t-89 -54.5t-104.5 -18q-133 0 -223 80.5t-90 199.5q0 120 87.5 202.5t217.5 82.5q40 0 77 -7t62 -16t44.5 -19.5t28.5 -17t11 -9.5l-59 -91q-4 6 -18.5 16.5t-50.5 23t-79 12.5q-87 0 -140.5 -47t-53.5 -122
q0 -74 52.5 -127t134.5 -53q63 0 106 33t47 75zM455 592l-125 93l-123 -93l-64 71l188 136l186 -136z" />
    <glyph glyph-name="gbreve.sc" horiz-adv-x="669" 
d="M509 202l-138 -1v105h267q-1 -84 -25 -147.5t-64.5 -100t-89 -54.5t-104.5 -18q-133 0 -223 80.5t-90 199.5q0 120 87.5 202.5t217.5 82.5q40 0 77 -7t62 -16t44.5 -19.5t28.5 -17t11 -9.5l-59 -91q-4 6 -18.5 16.5t-50.5 23t-79 12.5q-87 0 -140.5 -47t-53.5 -122
q0 -74 52.5 -127t134.5 -53q63 0 106 33t47 75zM409 765h108q-4 -66 -51 -119t-130 -53q-69 0 -118 45.5t-55 126.5h111q0 -13 3 -29t18 -35t40 -19q31 0 49.5 21t21.5 36.5t3 25.5z" />
    <glyph glyph-name="gcommaaccent.sc" horiz-adv-x="669" 
d="M509 202l-138 -1v105h267q-1 -84 -25 -147.5t-64.5 -100t-89 -54.5t-104.5 -18q-133 0 -223 80.5t-90 199.5q0 120 87.5 202.5t217.5 82.5q40 0 77 -7t62 -16t44.5 -19.5t28.5 -17t11 -9.5l-59 -91q-4 6 -18.5 16.5t-50.5 23t-79 12.5q-87 0 -140.5 -47t-53.5 -122
q0 -74 52.5 -127t134.5 -53q63 0 106 33t47 75zM335 -253h-101l74 205h139z" />
    <glyph glyph-name="gdotaccent.sc" horiz-adv-x="669" 
d="M509 202l-138 -1v105h267q-1 -84 -25 -147.5t-64.5 -100t-89 -54.5t-104.5 -18q-133 0 -223 80.5t-90 199.5q0 120 87.5 202.5t217.5 82.5q40 0 77 -7t62 -16t44.5 -19.5t28.5 -17t11 -9.5l-59 -91q-4 6 -18.5 16.5t-50.5 23t-79 12.5q-87 0 -140.5 -47t-53.5 -122
q0 -74 52.5 -127t134.5 -53q63 0 106 33t47 75zM412 674q0 -29 -21 -50t-52 -21q-29 0 -50.5 21.5t-21.5 49.5q0 30 21.5 52t50.5 22q31 0 52 -21.5t21 -52.5z" />
    <glyph glyph-name="wgrave.sc" horiz-adv-x="854" 
d="M613 -29l-186 340l-184 -338l-246 565h135l122 -306q2 -6 4 -30q1 21 6 30l164 329l166 -329q5 -11 6 -30q0 21 4 30l119 306h133zM561 653l-76 -50l-192 163l100 73z" />
    <glyph glyph-name="wacute.sc" horiz-adv-x="854" 
d="M613 -29l-186 340l-184 -338l-246 565h135l122 -306q2 -6 4 -30q1 21 6 30l164 329l166 -329q5 -11 6 -27q0 18 4 27l119 306h133zM561 766l-192 -163l-76 50l168 186z" />
    <glyph glyph-name="wdieresis.sc" horiz-adv-x="854" 
d="M613 -29l-186 340l-184 -338l-246 565h135l122 -306q2 -6 4 -30q1 21 6 30l164 329l166 -329q5 -11 6 -30q0 21 4 30l119 306h133zM377 666q0 -26 -20.5 -45t-50.5 -19q-28 0 -48 19t-20 45q0 27 20 46t48 19q30 0 50.5 -18.5t20.5 -46.5zM617 666q0 -27 -19.5 -45.5
t-50.5 -18.5q-29 0 -48.5 18.5t-19.5 45.5q0 28 19.5 46.5t48.5 18.5q32 0 51 -18.5t19 -46.5z" />
    <glyph glyph-name="ygrave.sc" horiz-adv-x="545" 
d="M334 0h-123v217l-220 321h150l131 -220l132 220h151l-221 -321v-217zM366 653l-76 -50l-192 163l100 73z" />
    <glyph glyph-name="ycircumflex.sc" horiz-adv-x="545" 
d="M334 0h-123v217l-220 321h150l131 -220l132 220h151l-221 -321v-217zM397 592l-125 93l-123 -93l-64 71l188 136l186 -136z" />
    <glyph glyph-name="yacute.sc" horiz-adv-x="545" 
d="M334 0h-123v217l-220 321h150l131 -220l132 220h151l-221 -321v-217zM455 766l-192 -163l-76 50l168 186z" />
    <glyph glyph-name="ydieresis.sc" horiz-adv-x="545" 
d="M334 0h-123v217l-220 321h150l131 -220l132 220h151l-221 -321v-217zM222 666q0 -26 -20.5 -45t-50.5 -19q-28 0 -48 19t-20 45q0 27 20 46t48 19q30 0 50.5 -18.5t20.5 -46.5zM462 666q0 -27 -19.5 -45.5t-50.5 -18.5q-29 0 -48.5 18.5t-19.5 45.5q0 28 19.5 46.5
t48.5 18.5q32 0 51 -18.5t19 -46.5z" />
    <glyph glyph-name="zcaron.sc" horiz-adv-x="590" 
d="M548 1h-540l318 426h-240v110h465l-317 -426h314v-110zM486 734l-186 -136l-188 136l64 71l123 -93l125 93z" />
    <glyph glyph-name="zacute.sc" horiz-adv-x="590" 
d="M548 1h-540l318 426h-240v110h465l-317 -426h314v-110zM464 766l-192 -163l-76 50l168 186z" />
    <glyph glyph-name="zdotaccent.sc" horiz-adv-x="590" 
d="M548 1h-540l318 426h-240v110h465l-317 -426h314v-110zM368 674q0 -29 -21 -50t-52 -21q-29 0 -50.5 21.5t-21.5 49.5q0 30 21.5 52t50.5 22q31 0 52 -21.5t21 -52.5z" />
    <glyph glyph-name="ae.sc" horiz-adv-x="803" 
d="M759 1h-378v82h-194l-54 -83h-144l371 537h376v-110h-232v-98l187 1v-110l-187 1v-110h255v-110zM381 186v191l-126 -191h126z" />
    <glyph glyph-name="aeacute.sc" horiz-adv-x="803" 
d="M759 1h-378v82h-194l-54 -83h-144l371 537h376v-110h-232v-98l187 1v-110l-187 1v-110h255v-110zM381 186v191l-126 -191h126zM712 766l-192 -163l-76 50l168 186z" />
    <glyph glyph-name="ij.sc" horiz-adv-x="543" 
d="M197 0h-123v538h123v-538zM266 -180l-44 103q77 20 100.5 49.5t23.5 109.5v456h123v-459q0 -112 -41.5 -164t-161.5 -95z" />
    <glyph glyph-name="eng.sc" horiz-adv-x="677" 
d="M400 -180l-44 103q76 20 99.5 49t24.5 104l-286 229l2 -305h-123l2 554l405 -326v310h123v-459q0 -112 -41.5 -164t-161.5 -95z" />
    <glyph glyph-name="oe.sc" horiz-adv-x="941" 
d="M897 1h-378v52q-70 -66 -175 -66q-126 0 -214 83t-88 199t88 199.5t214 83.5q106 0 175 -65v50h355v-110h-232v-98l187 1v-110l-187 1v-110h255v-110zM518 268q0 73 -50.5 123.5t-124.5 50.5t-124 -50t-50 -123q0 -71 50 -122t123 -51q75 0 125.5 50t50.5 122z" />
    <glyph glyph-name="ff.sc" horiz-adv-x="910" 
d="M197 0h-123v537h348v-110h-225v-107l183 1v-109l-183 1v-213zM652 0h-123v537h348v-110h-225v-107l183 1v-109l-183 1v-213z" />
    <glyph glyph-name="fi.sc" horiz-adv-x="726" 
d="M197 0h-123v537h348v-110h-225v-107l183 1v-109l-183 1v-213zM652 0h-123v538h123v-538z" />
    <glyph glyph-name="f_j.sc" horiz-adv-x="727" 
d="M197 0h-123v537h348v-110h-225v-107l183 1v-109l-183 1v-213zM450 -180l-44 103q77 20 100.5 49.5t23.5 109.5v456h123v-459q0 -112 -41.5 -164t-161.5 -95z" />
    <glyph glyph-name="fl.sc" horiz-adv-x="915" 
d="M197 0h-123v537h348v-110h-225v-107l183 1v-109l-183 1v-213zM892 1h-362v537h123v-427h239v-110z" />
    <glyph glyph-name="f_t.sc" horiz-adv-x="969" 
d="M197 0h-123v537h348v-110h-225v-107l183 1v-109l-183 1v-213zM774 0h-123v427h-173v110h468v-110h-172v-427z" />
    <glyph glyph-name="ffi.sc" horiz-adv-x="1181" 
d="M197 0h-123v537h348v-110h-225v-107l183 1v-109l-183 1v-213zM652 0h-123v537h348v-110h-225v-107l183 1v-109l-183 1v-213zM1107 0h-123v538h123v-538z" />
    <glyph glyph-name="ffl.sc" horiz-adv-x="1370" 
d="M197 0h-123v537h348v-110h-225v-107l183 1v-109l-183 1v-213zM652 0h-123v537h348v-110h-225v-107l183 1v-109l-183 1v-213zM1347 1h-362v537h123v-427h239v-110z" />
    <glyph glyph-name="zero_slash" horiz-adv-x="680" 
d="M339 -15q-68 0 -119.5 25.5t-81 64.5t-47.5 93.5t-24 103t-6 102.5q0 53 5.5 101t24 103t47.5 94t80.5 65t119.5 26q69 0 121 -25t81.5 -63t48 -92t24.5 -103.5t6 -105.5q0 -45 -4.5 -86.5t-15.5 -87.5t-32 -83t-50.5 -67.5t-75 -47.5t-102.5 -17zM213 177l191 472
q-29 17 -66 17q-156 0 -156 -292q0 -122 31 -197zM469 565l-190 -468q25 -15 60 -15q158 0 158 292q0 118 -28 191z" />
    <glyph glyph-name="emacron.sc" horiz-adv-x="497" 
d="M453 1h-378v536h355v-110h-232v-98l187 1v-110l-187 1v-110h255v-110zM446 620h-387v99h387v-99z" />
    <glyph glyph-name="edotaccent.sc" horiz-adv-x="497" 
d="M453 1h-378v536h355v-110h-232v-98l187 1v-110l-187 1v-110h255v-110zM329 674q0 -29 -21 -50t-52 -21q-29 0 -50.5 21.5t-21.5 49.5q0 30 21.5 52t50.5 22q31 0 52 -21.5t21 -52.5z" />
    <glyph glyph-name="ecaron.sc" horiz-adv-x="497" 
d="M453 1h-378v536h355v-110h-232v-98l187 1v-110l-187 1v-110h255v-110zM439 734l-186 -136l-188 136l64 71l123 -93l125 93z" />
    <glyph glyph-name="egrave.sc" horiz-adv-x="497" 
d="M356 652l-81 -50l-192 163l105 73zM453 1h-378v536h355v-110h-232v-98l187 1v-110l-187 1v-110h255v-110z" />
    <glyph glyph-name="uni1E6B.alt" horiz-adv-x="375" 
d="M237 804q0 -29 -21 -50t-52 -21q-29 0 -50.5 21.5t-21.5 49.5q0 30 21.5 52t50.5 22q31 0 52 -21.5t21 -52.5zM341 78l-47 -90q-96 0 -142 38t-46 140v242h-88v96h88v173h118v-173h129v-96h-129v-227q0 -36 6.5 -57t24.5 -30.5t34.5 -12t51.5 -3.5z" />
    <glyph glyph-name="uni1E6B.alt2" horiz-adv-x="396" 
d="M270 804q0 -29 -21 -50t-52 -21q-29 0 -50.5 21.5t-21.5 49.5q0 30 21.5 52t50.5 22q31 0 52 -21.5t21 -52.5zM257 0h-118v408h-124v96h124v173h118v-173h124v-96h-124v-408z" />
    <glyph glyph-name="uni1E6B.semp" horiz-adv-x="332" 
d="M196 804q0 -29 -21 -50t-52 -21q-29 0 -50.5 21.5t-21.5 49.5q0 30 21.5 52t50.5 22q31 0 52 -21.5t21 -52.5zM183 0h-118v675h118v-171h134v-96h-134v-408z" />
    <glyph glyph-name="tbar.alt" horiz-adv-x="375" 
d="M341 78l-47 -90q-96 0 -142 38t-46 140v66h-64v84h64v92h-88v96h88v173h118v-173h129v-96h-129v-92h95v-84h-95v-51q0 -36 6.5 -57t24.5 -30.5t34.5 -12t51.5 -3.5z" />
    <glyph glyph-name="ff.semp2" horiz-adv-x="656" 
d="M510 408v-408h-117v623q0 99 46 154q52 60 152 60q33 0 65 -8.5t47 -15.5t22 -12l-46 -91q-37 27 -82 27q-87 0 -87 -112v-121h127v-96h-127zM182 408v-408h-117v576q0 99 46 154q52 60 152 60q33 0 65 -8.5t47 -15.5t22 -12l-46 -91q-37 27 -82 27q-87 0 -87 -112v-74
h127v-96h-127z" />
    <glyph glyph-name="ff.alt" horiz-adv-x="744" 
d="M226 -229h-117v637h-85v96h85v72q0 99 46 154q52 60 152 60q33 0 65 -8.5t47 -15.5t22 -12l-46 -91q-37 27 -82 27q-87 0 -87 -112v-74h127v-96h-127v-637zM598 -120h-117v528h-85v96h85v119q0 99 46 154q52 60 152 60q33 0 65 -8.5t47 -15.5t22 -12l-46 -91
q-37 27 -82 27q-87 0 -87 -112v-121h127v-96h-127v-528z" />
    <glyph glyph-name="ff.semp" horiz-adv-x="656" 
d="M182 -229h-117v805q0 99 46 154q52 60 152 60q33 0 65 -8.5t47 -15.5t22 -12l-46 -91q-37 27 -82 27q-87 0 -87 -112v-74h127v-96h-127v-637zM510 -120h-117v743q0 99 46 154q52 60 152 60q33 0 65 -8.5t47 -15.5t22 -12l-46 -91q-37 27 -82 27q-87 0 -87 -112v-121h127
v-96h-127v-528z" />
    <glyph glyph-name="fi.semp2" horiz-adv-x="585" 
d="M182 408v-408h-117v617q0 99 46 154q52 60 152 60q61 0 115 -26l-46 -89q-28 15 -63 15q-87 0 -87 -112v-115h127v-96h-127zM515 0h-118v505h118v-505zM457 572q-33 0 -54 21t-21 55t21 55t54 21q34 0 55 -21.5t21 -54.5q0 -34 -21.5 -55t-54.5 -21z" />
    <glyph glyph-name="fi.alt" horiz-adv-x="629" 
d="M226 -245h-117v653h-85v96h85v113q0 99 46 154q52 60 152 60q61 0 115 -26l-46 -89q-28 15 -62 15q-88 0 -88 -112v-115h127v-96h-127v-653zM559 0h-118v505h118v-505zM501 572q-33 0 -54 21t-21 55t21.5 55t54.5 21t54 -21.5t21 -54.5q0 -34 -21.5 -55t-54.5 -21z" />
    <glyph glyph-name="fi.semp" horiz-adv-x="585" 
d="M182 -245h-117v862q0 99 46 154q52 60 152 60q61 0 115 -26l-46 -89q-28 15 -63 15q-87 0 -87 -112v-115h127v-96h-127v-653zM515 0h-118v505h118v-505zM457 572q-33 0 -54 21t-21 55t21 55t54 21q34 0 55 -21.5t21 -54.5q0 -34 -21.5 -55t-54.5 -21z" />
    <glyph glyph-name="f_j" horiz-adv-x="628" 
d="M226 0h-117v408h-85v96h85v113q0 99 46 154q52 60 152 60q61 0 115 -26l-46 -89q-28 15 -62 15q-88 0 -88 -112v-115h127v-96h-127v-408zM501 572q-33 0 -54 21t-21 55t21.5 55t54.5 21t54 -21.5t21 -54.5q0 -34 -21.5 -55t-54.5 -21zM373 -267l-45 89q30 9 47 15
t31.5 19.5t20 23t9.5 36.5t4.5 50t0.5 72v467h118v-469q0 -60 -3.5 -97.5t-13.5 -73t-31 -57.5t-54 -41t-84 -34z" />
    <glyph glyph-name="tbar.alt2" horiz-adv-x="396" 
d="M257 0h-118v232h-92v84h92v92h-124v96h124v173h118v-173h124v-96h-124v-92h95v-84h-95v-232z" />
    <glyph glyph-name="f_j.semp" horiz-adv-x="584" 
d="M182 -243h-117v860q0 99 46 154q52 60 152 60q61 0 115 -26l-46 -89q-28 15 -63 15q-87 0 -87 -112v-115h127v-96h-127v-651zM515 505v-745l-118 -27v772h118zM457 572q-33 0 -54 21t-21 55t21 55t54 21q34 0 55 -21.5t21 -54.5q0 -34 -21.5 -55t-54.5 -21z" />
    <glyph glyph-name="tbar.semp" horiz-adv-x="363" 
d="M214 0h-118v232h-84v84h84v359h118v-171h134v-96h-134v-92h95v-84h-95v-232z" />
    <glyph glyph-name="fl.semp2" horiz-adv-x="580" 
d="M182 408v-408h-117v602q0 99 46 154q52 60 152 60q48 0 99 -19l-30 -96q-28 15 -63 15q-87 0 -87 -112v-100h127v-96h-127zM513 0h-118v820h118v-820z" />
    <glyph glyph-name="fl.alt" horiz-adv-x="624" 
d="M226 -244h-117v652h-85v96h85v98q0 99 46 154q52 60 152 60q48 0 99 -19l-30 -96q-28 15 -62 15q-88 0 -88 -112v-100h127v-96h-127v-652zM557 0h-118v820h118v-820z" />
    <glyph glyph-name="fl.semp" horiz-adv-x="580" 
d="M182 -244h-117v846q0 99 46 154q52 60 152 60q48 0 99 -19l-30 -96q-28 15 -63 15q-87 0 -87 -112v-100h127v-96h-127v-652zM513 0h-118v820h118v-820z" />
    <glyph glyph-name="f_t" horiz-adv-x="682" 
d="M543 0h-118v408h-199v-408h-117v408h-85v96h85v113q0 99 46 154q52 60 152 60q61 0 115 -26l-46 -89q-28 15 -62 15q-88 0 -88 -112v-115h199v173h118v-173h124v-96h-124v-408z" />
    <glyph glyph-name="f_t.semp" horiz-adv-x="660" 
d="M182 -244h-117v861q0 99 46 154q52 60 152 60q61 0 115 -26l-46 -89q-28 15 -63 15q-87 0 -87 -112v-115h127v-96h-127v-652zM511 0h-118v677h118v-173h134v-96h-134v-408z" />
    <glyph glyph-name="ffi.semp2" horiz-adv-x="913" 
d="M510 408v-408h-117v622q0 99 46 154q52 60 152 60q61 0 115 -26l-46 -89q-28 15 -63 15q-87 0 -87 -112v-120h127v-96h-127zM182 408v-408h-117v576q0 99 46 154q52 60 152 60q33 0 65 -8.5t47 -15.5t22 -12l-46 -91q-37 27 -82 27q-87 0 -87 -112v-74h127v-96h-127z
M843 0h-118v505h118v-505zM785 572q-33 0 -54 21t-21 55t21 55t54 21q34 0 55 -21.5t21 -54.5q0 -34 -21.5 -55t-54.5 -21z" />
    <glyph glyph-name="ffi.alt" horiz-adv-x="1002" 
d="M226 -229h-117v637h-85v96h85v72q0 99 46 154q52 60 152 60q33 0 65 -8.5t47 -15.5t22 -12l-46 -91q-37 27 -82 27q-87 0 -87 -112v-74h127v-96h-127v-637zM598 -120h-117v528h-85v96h85v118q0 99 46 154q52 60 152 60q61 0 115 -26l-46 -89q-28 15 -62 15
q-88 0 -88 -112v-120h127v-96h-127v-528zM932 0h-118v505h118v-505zM874 572q-32 0 -53.5 21t-21.5 55t21.5 55t54.5 21t54 -21.5t21 -54.5q0 -34 -21.5 -55t-54.5 -21z" />
    <glyph glyph-name="ffi.semp" horiz-adv-x="913" 
d="M182 -229h-117v805q0 99 46 154q52 60 152 60q33 0 65 -8.5t47 -15.5t22 -12l-46 -91q-37 27 -82 27q-87 0 -87 -112v-74h127v-96h-127v-637zM510 -120h-117v742q0 99 46 154q52 60 152 60q61 0 115 -26l-46 -89q-28 15 -63 15q-87 0 -87 -112v-120h127v-96h-127v-528z
M843 0h-118v505h118v-505zM785 572q-33 0 -54 21t-21 55t21 55t54 21q34 0 55 -21.5t21 -54.5q0 -34 -21.5 -55t-54.5 -21z" />
    <glyph glyph-name="ffl.semp2" horiz-adv-x="908" 
d="M510 408v-408h-117v607q0 99 46 154q52 60 152 60q48 0 99 -19l-30 -96q-28 15 -63 15q-87 0 -87 -112v-105h127v-96h-127zM182 408v-408h-117v571q0 99 46 154q52 60 152 60q33 0 65 -8.5t47 -15.5t22 -12l-46 -91q-37 27 -82 27q-87 0 -87 -112v-69h127v-96h-127z
M841 0h-118v820h118v-820z" />
    <glyph glyph-name="ffl.alt" horiz-adv-x="996" 
d="M226 -229h-117v637h-85v96h85v67q0 99 46 154q52 60 152 60q33 0 65 -8.5t47 -15.5t22 -12l-46 -91q-37 27 -82 27q-87 0 -87 -112v-69h127v-96h-127v-637zM598 -120h-117v528h-85v96h85v103q0 99 46 154q52 60 152 60q48 0 99 -19l-30 -96q-28 15 -62 15q-88 0 -88 -112
v-105h127v-96h-127v-528zM929 0h-118v820h118v-820z" />
    <glyph glyph-name="ffl.semp" horiz-adv-x="908" 
d="M182 -229h-117v800q0 99 46 154q52 60 152 60q33 0 65 -8.5t47 -15.5t22 -12l-46 -91q-37 27 -82 27q-87 0 -87 -112v-69h127v-96h-127v-637zM510 -121h-117v728q0 99 46 154q52 60 152 60q48 0 99 -19l-30 -96q-28 15 -63 15q-87 0 -87 -112v-105h127v-96h-127v-529z
M841 0h-118v820h118v-820z" />
    <glyph glyph-name="ij.semp" horiz-adv-x="511" 
d="M187 0h-118v505h118v-505zM128 592q-32 0 -53.5 21t-21.5 55t21.5 55t53.5 21q34 0 55 -21.5t21 -54.5q0 -34 -21.5 -55t-54.5 -21zM442 -240l-117 -26v771h117v-745zM384 592q-33 0 -54.5 21t-21.5 55t21.5 55t54.5 21q34 0 55 -21.5t21 -54.5q0 -34 -21.5 -55
t-54.5 -21z" />
    <glyph glyph-name="eng.alt" horiz-adv-x="577" 
d="M329 -267l-45 89q30 9 47 15t31.5 19.5t20 23t9.5 36.5t4.5 50t0.5 72v256q0 126 -121 126q-60 0 -94 -25v-395h-118v462q110 57 221 57q106 0 168 -50.5t62 -146.5v-286q0 -60 -3.5 -97.5t-13.5 -73t-31 -57.5t-54 -41t-84 -34z" />
    <glyph glyph-name="germandbls.alt" horiz-adv-x="593" 
d="M219 19l23 101q55 -33 97 -33q40 0 72 21t32 60q0 26 -16 45t-56 39q-20 10 -30 15.5t-33 22.5t-35.5 33.5t-23.5 43.5t-11 58q0 40 17.5 75.5t38.5 57t38.5 49.5t17.5 55q0 29 -18.5 48.5t-52.5 19.5q-45 0 -70.5 -32t-25.5 -85v-613h-118v612q0 98 58.5 156t155.5 58
q88 0 131 -45.5t43 -108.5q0 -38 -17 -73t-37 -56.5t-37 -50t-17 -55.5q0 -18 6.5 -32.5t21 -26.5t26 -19t33.5 -19q32 -17 49.5 -28t40 -31.5t32.5 -46.5t10 -60q0 -82 -58.5 -134.5t-155.5 -52.5q-71 0 -131 32z" />
    <glyph glyph-name="germandbls.semp" horiz-adv-x="577" 
d="M262 -241v97q71 7 113.5 60t42.5 115q0 51 -31 86t-87 35q-36 0 -75 -17l143 273h-188v-652h-117v847q0 99 46 154q52 60 152 60q33 0 65 -8.5t47 -15.5t22 -12l-46 -91q-37 27 -82 27q-87 0 -87 -112v-101h358l-162 -291q14 3 27 3q61 0 99.5 -53t38.5 -128
q0 -97 -70 -177.5t-209 -98.5z" />
    <glyph glyph-name="a.sc" 
d="M607 0h-133l-42 83h-264l-42 -83h-132l306 564zM379 186l-79 156l-80 -156h159z" />
    <glyph glyph-name="a.sc.semp" 
d="M607 0h-133l-34 67h-280l-34 -67h-132l306 564zM387 170l-87 172l-88 -172h175z" />
    <glyph glyph-name="b.sc" horiz-adv-x="538" 
d="M258 0h-184v538h148q102 0 165.5 -31.5t63.5 -100.5q0 -78 -80 -111q51 -15 88.5 -48.5t37.5 -93.5q0 -71 -61 -112t-178 -41zM197 321h43q84 0 84 56q0 57 -90 57h-37v-113zM197 104h85q40 0 62 16.5t22 44.5q0 29 -24 46t-67 17h-78v-124z" />
    <glyph glyph-name="e.sc" horiz-adv-x="497" 
d="M453 1h-378v536h355v-110h-232v-98l187 1v-110l-187 1v-110h255v-110z" />
    <glyph glyph-name="f.sc" horiz-adv-x="455" 
d="M197 0h-123v537h348v-110h-225v-107l183 1v-109l-183 1v-213z" />
    <glyph glyph-name="g.sc" horiz-adv-x="669" 
d="M509 202l-138 -1v105h267q-1 -84 -25 -147.5t-64.5 -100t-89 -54.5t-104.5 -18q-133 0 -223 80.5t-90 199.5q0 120 87.5 202.5t217.5 82.5q40 0 77 -7t62 -16t44.5 -19.5t28.5 -17t11 -9.5l-59 -91q-4 6 -18.5 16.5t-50.5 23t-79 12.5q-87 0 -140.5 -47t-53.5 -122
q0 -74 52.5 -127t134.5 -53q63 0 106 33t47 75z" />
    <glyph glyph-name="h.sc" horiz-adv-x="640" 
d="M566 0h-123v220h-246v-220h-123v538h123v-208h246v208h123v-538z" />
    <glyph glyph-name="j.sc" horiz-adv-x="272" 
d="M-4 -180l-44 103q76 20 99.5 49.5t23.5 109.5v456h123v-459q0 -112 -41.5 -164t-160.5 -95z" />
    <glyph glyph-name="j.sc.semp" horiz-adv-x="422" 
d="M237 207v220h-157v111h280v-390q0 -76 -54.5 -118.5t-127.5 -42.5q-98 0 -168 40l39 103q54 -38 100 -38q49 0 68.5 27t19.5 88z" />
    <glyph glyph-name="k.sc" horiz-adv-x="605" 
d="M609 0h-181l-230 197v-197h-124v538h124v-194l193 194h160l-277 -262z" />
    <glyph glyph-name="l.sc" horiz-adv-x="460" 
d="M437 1h-362v537h123v-427h239v-110z" />
    <glyph glyph-name="m.sc" horiz-adv-x="784" 
d="M739 0h-124l-31 232q-2 14 0 39q-3 -11 -22 -40l-171 -251l-172 250q-12 17 -21 40q4 -16 1 -39l-30 -231h-124l82 552l257 -364q6 -12 7 -18q2 11 7 18l258 364z" />
    <glyph glyph-name="n.sc" horiz-adv-x="676" 
d="M602 -19l-408 324l2 -305h-123l2 554l408 -328l-2 312h122z" />
    <glyph glyph-name="o.sc" horiz-adv-x="687" 
d="M645 266q0 -114 -89.5 -196.5t-211.5 -82.5q-126 0 -214 83t-88 199t88 199.5t214 83.5t213.5 -82t87.5 -204zM518 268q0 73 -50.5 123.5t-124.5 50.5t-124 -50t-50 -123q0 -71 50 -122t123 -51q75 0 125.5 50t50.5 122z" />
    <glyph glyph-name="p.sc" horiz-adv-x="501" 
d="M197 0h-123v538h132q262 0 262 -178q0 -88 -59.5 -140t-174.5 -52h-37v-168zM197 278h35q53 0 79.5 21t26.5 56q0 32 -23 52.5t-74 20.5h-44v-150z" />
    <glyph glyph-name="q.sc" horiz-adv-x="688" 
d="M666 2l-88 -86l-102 102q-67 -31 -132 -31q-126 0 -214 83t-88 199t88 199.5t213 83.5q127 0 214.5 -82t87.5 -204q0 -108 -84 -188zM518 268q0 74 -50.5 124t-124.5 50t-124 -50t-50 -123q0 -71 50 -122t123 -51q75 0 125.5 50t50.5 122z" />
    <glyph glyph-name="r.sc" horiz-adv-x="563" 
d="M585 0h-174l-189 187l-25 24v-211h-123v538h132q262 0 262 -171q0 -56 -39 -100.5t-96 -58.5zM197 278h34q53 0 80 24.5t27 59.5q0 33 -25 54.5t-71 21.5h-45v-160z" />
    <glyph glyph-name="s.sc" horiz-adv-x="499" 
d="M440 485l-57 -84q-54 49 -116 49q-69 0 -69 -47q0 -24 27 -42t65 -32.5t76.5 -33.5t65.5 -56.5t27 -91.5q0 -65 -60 -112.5t-162 -47.5q-64 0 -123 28t-87 62l62 82q25 -26 66 -46t81 -20q41 0 65.5 14t24.5 41q0 28 -27 48t-65 35t-76 33.5t-65 53.5t-27 85
q0 69 59 108.5t140 39.5q105 0 175 -66z" />
    <glyph glyph-name="t.sc" horiz-adv-x="514" 
d="M319 0h-123v427h-173v110h468v-110h-172v-427z" />
    <glyph glyph-name="u.sc" horiz-adv-x="625" 
d="M429 122v416h123v-474q-80 -77 -242 -77q-240 0 -240 213v338h123v-256q0 -107 23 -147t98 -40q72 0 115 27z" />
    <glyph glyph-name="v.sc" horiz-adv-x="594" 
d="M297 -32l-304 570h136l166 -328q4 -6 6 -22q0 12 5 22l157 328h138z" />
    <glyph glyph-name="w.sc" horiz-adv-x="854" 
d="M613 -29l-186 340l-184 -338l-246 565h135l122 -306q2 -6 4 -30q1 21 6 30l164 329l166 -329q5 -11 6 -27q0 18 4 27l119 306h133z" />
    <glyph glyph-name="x.sc" horiz-adv-x="625" 
d="M611 0h-158l-142 183l-142 -183h-158l232 276l-217 262h158l131 -166l131 166h158l-222 -262z" />
    <glyph glyph-name="y.sc" horiz-adv-x="545" 
d="M334 0h-123v217l-220 321h150l131 -220l132 220h151l-221 -321v-217z" />
    <glyph glyph-name="z.sc" horiz-adv-x="590" 
d="M548 1h-540l318 426h-240v110h465l-317 -426h314v-110z" />
    <glyph glyph-name="eth.sc" horiz-adv-x="643" 
d="M271 0h-174v220h-76v99h76v219h161q157 0 248 -70t91 -202q0 -127 -86 -196.5t-240 -69.5zM335 220h-115v-109h62q84 0 133.5 37.5t49.5 115.5q0 75 -46 119t-120 44h-79v-108h115v-99z" />
    <glyph glyph-name="thorn.sc" horiz-adv-x="500" 
d="M197 0h-123v538h123v-84h9q262 0 262 -178q0 -88 -59.5 -140t-174.5 -52h-37v-84zM197 194h35q53 0 79.5 21t26.5 56q0 32 -23 52.5t-74 20.5h-44v-150z" />
    <glyph glyph-name="aacute.sc" 
d="M607 0h-133l-42 83h-264l-42 -83h-132l306 564zM456 765l-194 -163l-77 52l167 184zM379 186l-79 156l-80 -156h159z" />
    <glyph glyph-name="aacute.sc.semp" 
d="M607 0h-133l-34 67h-280l-34 -67h-132l306 564zM430 765l-194 -163l-77 52l167 184zM387 170l-87 172l-88 -172h175z" />
    <glyph glyph-name="acircumflex.sc" 
d="M607 0h-133l-42 83h-264l-42 -83h-132l306 564zM423 599l-125 83l-123 -83l-64 70l188 136l186 -136zM379 186l-79 156l-80 -156h159z" />
    <glyph glyph-name="acircumflex.sc.semp" 
d="M607 0h-133l-34 67h-280l-34 -67h-132l306 564zM425 599l-125 83l-123 -83l-64 70l188 136l186 -136zM387 170l-87 172l-88 -172h175z" />
    <glyph glyph-name="adieresis.sc" 
d="M607 0h-133l-42 83h-264l-42 -83h-132l306 564zM488 681q0 -27 -19.5 -45.5t-50.5 -18.5q-29 0 -48.5 18.5t-19.5 45.5q0 28 19.5 46.5t48.5 18.5q32 0 51 -18.5t19 -46.5zM248 681q0 -26 -20.5 -45t-50.5 -19q-28 0 -48 19t-20 45q0 27 20 46t48 19q30 0 50.5 -18.5
t20.5 -46.5zM379 186l-79 156l-80 -156h159z" />
    <glyph glyph-name="adieresis.sc.semp" 
d="M607 0h-133l-34 67h-280l-34 -67h-132l306 564zM387 170l-87 172l-88 -172h175zM490 681q0 -27 -19.5 -45.5t-50.5 -18.5q-29 0 -48.5 18.5t-19.5 45.5q0 28 19.5 46.5t48.5 18.5q32 0 51 -18.5t19 -46.5zM250 681q0 -26 -20.5 -45t-50.5 -19q-28 0 -48 19t-20 45
q0 27 20 46t48 19q30 0 50.5 -18.5t20.5 -46.5z" />
    <glyph glyph-name="agrave.sc" 
d="M607 0h-133l-42 83h-264l-42 -83h-132l306 564zM411 652l-81 -50l-192 163l105 73zM379 186l-79 156l-80 -156h159z" />
    <glyph glyph-name="agrave.sc.semp" 
d="M607 0h-133l-34 67h-280l-34 -67h-132l306 564zM428 652l-81 -50l-192 163l105 73zM387 170l-87 172l-88 -172h175z" />
    <glyph glyph-name="aring.sc" 
d="M607 0h-133l-42 83h-264l-42 -83h-132l306 564zM423 704q0 -50 -36 -85.5t-88 -35.5t-88.5 35.5t-36.5 85.5q0 51 36.5 86t88.5 35q51 0 87.5 -36t36.5 -85zM379 186l-79 156l-80 -156h159zM351 704q0 21 -15.5 37t-36.5 16t-35.5 -16t-14.5 -37t14.5 -36.5t35.5 -15.5
t36.5 15.5t15.5 36.5z" />
    <glyph glyph-name="aring.sc.semp" 
d="M607 0h-133l-34 67h-280l-34 -67h-132l306 564zM423 704q0 -50 -36 -85.5t-88 -35.5t-88.5 35.5t-36.5 85.5q0 51 36.5 86t88.5 35q51 0 87.5 -36t36.5 -85zM387 170l-87 172l-88 -172h175zM351 704q0 21 -15.5 37t-36.5 16t-35.5 -16t-14.5 -37t14.5 -36.5t35.5 -15.5
t36.5 15.5t15.5 36.5z" />
    <glyph glyph-name="atilde.sc" 
d="M607 0h-133l-42 83h-264l-42 -83h-132l306 564zM452 759l41 -62q-10 -15 -24.5 -32t-45 -37t-60.5 -20q-23 0 -61 20t-57 20q-35 0 -86 -51l-56 64q88 85 146 85q24 0 61 -21t56 -21q35 0 86 55zM379 186l-79 156l-80 -156h159z" />
    <glyph glyph-name="atilde.sc.semp" 
d="M607 0h-133l-34 67h-280l-34 -67h-132l306 564zM449 759l41 -62q-10 -15 -24.5 -32t-45 -37t-60.5 -20q-23 0 -61 20t-57 20q-35 0 -86 -51l-56 64q88 85 146 85q24 0 61 -21t56 -21q35 0 86 55zM387 170l-87 172l-88 -172h175z" />
    <glyph glyph-name="aogonek.sc" 
d="M633 -114v-78q-57 -34 -119 -34q-56 0 -88.5 28t-32.5 71q0 73 81 127l-42 83h-264l-42 -83h-132l306 564l309 -565q-64 -23 -89.5 -52.5t-25.5 -54.5q0 -31 44 -31q56 0 95 25zM379 186l-79 156l-80 -156h159z" />
    <glyph glyph-name="aogonek.sc.semp" 
d="M633 -114v-78q-57 -34 -119 -34q-56 0 -88.5 28t-32.5 71q0 73 81 127l-34 67h-280l-34 -67h-132l306 564l307 -564q-64 -23 -88.5 -52.5t-24.5 -54.5q0 -32 44 -32q56 0 95 25zM387 170l-87 172l-88 -172h175z" />
    <glyph glyph-name="abreve.sc" 
d="M607 0h-133l-42 83h-264l-42 -83h-132l306 564zM369 755h108q-4 -66 -51 -119t-130 -53q-69 0 -118 45.5t-55 126.5h111q0 -13 3 -29t18 -35t40 -19q31 0 49.5 21t21.5 36.5t3 25.5zM379 186l-79 156l-80 -156h159z" />
    <glyph glyph-name="abreve.sc.semp" 
d="M607 0h-133l-34 67h-280l-34 -67h-132l306 564zM369 755h108q-4 -66 -51 -119t-130 -53q-69 0 -118 45.5t-55 126.5h111q0 -13 3 -29t18 -35t40 -19q31 0 49.5 21t21.5 36.5t3 25.5zM387 170l-87 172l-88 -172h175z" />
    <glyph glyph-name="amacron.sc" 
d="M607 0h-133l-42 83h-264l-42 -83h-132l306 564zM493 600h-387v99h387v-99zM379 186l-79 156l-80 -156h159z" />
    <glyph glyph-name="amacron.sc.semp" 
d="M607 0h-133l-34 67h-280l-34 -67h-132l306 564zM513 600h-427v99h427v-99zM387 170l-87 172l-88 -172h175z" />
    <glyph glyph-name="uni1E03.sc" horiz-adv-x="538" 
d="M258 0h-184v538h148q102 0 165.5 -31.5t63.5 -100.5q0 -78 -80 -111q51 -15 88.5 -48.5t37.5 -93.5q0 -71 -61 -112t-178 -41zM197 321h43q84 0 84 56q0 57 -90 57h-37v-113zM197 104h85q40 0 62 16.5t22 44.5q0 29 -24 46t-67 17h-78v-124zM309 674q0 -29 -21 -50
t-52 -21q-29 0 -50.5 21.5t-21.5 49.5q0 30 21.5 52t50.5 22q31 0 52 -21.5t21 -52.5z" />
    <glyph glyph-name="ccedilla.sc" horiz-adv-x="614" 
d="M320 -251h-126l101 199h140zM522 150l56 -87q-87 -76 -213 -76q-140 0 -231.5 83t-91.5 201q0 116 88 198.5t224 82.5q62 0 116 -19.5t76 -36.5t27 -25l-64 -84q-63 55 -152 55q-87 0 -138 -49t-51 -122q0 -76 55 -125.5t141 -49.5q52 0 94 17t64 37z" />
    <glyph glyph-name="cacute.sc" horiz-adv-x="614" 
d="M522 150l56 -87q-87 -76 -213 -76q-140 0 -231.5 83t-91.5 201q0 116 88 198.5t224 82.5q62 0 116 -19.5t76 -36.5t27 -25l-64 -84q-63 55 -152 55q-87 0 -138 -49t-51 -122q0 -76 55 -125.5t141 -49.5q52 0 94 17t64 37zM468 766l-192 -163l-76 50l168 186z" />
    <glyph glyph-name="ccaron.sc" horiz-adv-x="614" 
d="M522 150l56 -87q-87 -76 -213 -76q-140 0 -231.5 83t-91.5 201q0 116 88 198.5t224 82.5q62 0 116 -19.5t76 -36.5t27 -25l-64 -84q-63 55 -152 55q-87 0 -138 -49t-51 -122q0 -76 55 -125.5t141 -49.5q52 0 94 17t64 37zM501 734l-186 -136l-188 136l64 71l123 -93
l125 93z" />
    <glyph glyph-name="ccircumflex.sc" horiz-adv-x="614" 
d="M522 150l56 -87q-87 -76 -213 -76q-140 0 -231.5 83t-91.5 201q0 116 88 198.5t224 82.5q62 0 116 -19.5t76 -36.5t27 -25l-64 -84q-63 55 -152 55q-87 0 -138 -49t-51 -122q0 -76 55 -125.5t141 -49.5q52 0 94 17t64 37zM439 592l-125 93l-123 -93l-64 71l188 136
l186 -136z" />
    <glyph glyph-name="cdotaccent.sc" horiz-adv-x="614" 
d="M522 150l56 -87q-87 -76 -213 -76q-140 0 -231.5 83t-91.5 201q0 116 88 198.5t224 82.5q62 0 116 -19.5t76 -36.5t27 -25l-64 -84q-63 55 -152 55q-87 0 -138 -49t-51 -122q0 -76 55 -125.5t141 -49.5q52 0 94 17t64 37zM396 674q0 -29 -21 -50t-52 -21
q-29 0 -50.5 21.5t-21.5 49.5q0 30 21.5 52t50.5 22q31 0 52 -21.5t21 -52.5z" />
    <glyph glyph-name="dcaron.sc" horiz-adv-x="620" 
d="M248 0h-174v538h161q157 0 248 -70t91 -202q0 -127 -86 -196.5t-240 -69.5zM197 111h62q84 0 133.5 37.5t49.5 115.5q0 75 -46 119t-120 44h-79v-316zM463 732l-186 -136l-188 136l64 71l123 -93l125 93z" />
    <glyph glyph-name="dcroat.sc" horiz-adv-x="643" 
d="M271 0h-174v220h-76v99h76v219h161q157 0 248 -70t91 -202q0 -127 -86 -196.5t-240 -69.5zM335 220h-115v-109h62q84 0 133.5 37.5t49.5 115.5q0 75 -46 119t-120 44h-79v-108h115v-99z" />
    <glyph glyph-name="uni1E0B.sc" horiz-adv-x="620" 
d="M248 0h-174v538h161q157 0 248 -70t91 -202q0 -127 -86 -196.5t-240 -69.5zM197 111h62q84 0 133.5 37.5t49.5 115.5q0 75 -46 119t-120 44h-79v-316zM356 674q0 -29 -21 -50t-52 -21q-29 0 -50.5 21.5t-21.5 49.5q0 30 21.5 52t50.5 22q31 0 52 -21.5t21 -52.5z" />
    <glyph glyph-name="eacute.sc" horiz-adv-x="497" 
d="M414 765l-194 -163l-77 52l167 184zM453 1h-378v536h355v-110h-232v-98l187 1v-110l-187 1v-110h255v-110z" />
    <glyph glyph-name="ecircumflex.sc" horiz-adv-x="497" 
d="M453 1h-378v536h355v-110h-232v-98l187 1v-110l-187 1v-110h255v-110zM372 598l-125 83l-123 -83l-64 70l188 136l186 -136z" />
    <glyph glyph-name="edieresis.sc" horiz-adv-x="497" 
d="M453 1h-378v536h355v-110h-232v-98l187 1v-110l-187 1v-110h255v-110zM200 681q0 -26 -20.5 -45t-50.5 -19q-28 0 -48 19t-20 45q0 27 20 46t48 19q30 0 50.5 -18.5t20.5 -46.5zM440 681q0 -27 -19.5 -45.5t-50.5 -18.5q-29 0 -48.5 18.5t-19.5 45.5q0 28 19.5 46.5
t48.5 18.5q32 0 51 -18.5t19 -46.5z" />
    <glyph glyph-name="four.sc" horiz-adv-x="529" 
d="M411 -3h-119v83h-271v63l312 419h78v-391h83v-91h-83v-83zM300 168l2 194l-145 -194h143z" />
    <glyph glyph-name="three.sc" horiz-adv-x="458" 
d="M19 47l50 81q14 -16 52 -31t77 -15q48 0 74.5 24t26.5 57q0 40 -37.5 67.5t-94.5 27.5q-11 0 -33 -2v70q3 0 8 -0.5t12 -0.5q47 0 82 18.5t35 53.5q0 49 -67 49q-44 0 -95 -24l-33 82q16 15 57.5 27.5t83.5 12.5q76 0 123.5 -42t47.5 -95q0 -70 -80 -111
q54 -21 79.5 -59.5t25.5 -84.5q0 -72 -58.5 -118t-154.5 -46q-115 0 -181 59z" />
    <glyph glyph-name="two.sc" horiz-adv-x="500" 
d="M457 0h-426l3 72q85 31 183.5 125.5t98.5 175.5q0 38 -22.5 59.5t-59.5 21.5q-61 0 -118 -57l-55 74q87 79 186 79q82 0 135.5 -49.5t53.5 -122.5q0 -44 -19.5 -86.5t-56.5 -81.5t-67.5 -65.5t-74.5 -58.5l239 10v-96z" />
    <glyph glyph-name="one.sc" horiz-adv-x="337" 
d="M263 -3h-123v409l-81 -27l-44 90l248 88v-560z" />
    <glyph glyph-name="zero_slash.sc.alt" horiz-adv-x="714" 
d="M671 266q0 -114 -92.5 -196.5t-220.5 -82.5q-132 0 -223.5 83t-91.5 199t91.5 199.5t223.5 83.5t222.5 -82t90.5 -204zM225 150l194 282q-32 10 -61 10q-77 0 -131 -50t-54 -121q0 -69 52 -121zM489 388l-195 -282q26 -10 59 -10q80 0 133.5 49.5t53.5 121.5
q0 70 -51 121z" />
    <glyph glyph-name="zero.sc.alt" horiz-adv-x="715" 
d="M672 266q0 -114 -93 -196.5t-221 -82.5q-132 0 -223.5 83t-91.5 199t91.5 199.5t223.5 83.5t223 -82t91 -204zM540 267q0 74 -53 124.5t-129 50.5q-77 0 -130.5 -50t-53.5 -121q0 -69 52.5 -122t126.5 -53q80 0 133.5 49.5t53.5 121.5z" />
    <glyph glyph-name="zero_slash.sc" horiz-adv-x="547" 
d="M273 -7q-55 0 -97 18.5t-65.5 46t-38.5 66.5t-19.5 73.5t-4.5 73.5q0 38 4.5 72.5t19.5 73.5t38.5 67t65 46.5t96.5 18.5t97 -18t66.5 -45t39 -66t19.5 -74t5 -75q0 -50 -9 -94t-32 -88t-70 -70t-115 -26zM171 163l154 287q-23 14 -53 14q-114 0 -114 -193q0 -65 13 -108
zM376 374l-153 -285q21 -13 50 -13q115 0 115 195q0 62 -12 103z" />
    <glyph glyph-name="zero.sc" horiz-adv-x="547" 
d="M273 -7q-55 0 -97 18.5t-65.5 46t-38.5 66.5t-19.5 73.5t-4.5 73.5q0 38 4.5 72.5t19.5 73.5t38.5 67t65 46.5t96.5 18.5t97 -18t66.5 -45t39 -66t19.5 -74t5 -75q0 -50 -9 -94t-32 -88t-70 -70t-115 -26zM273 86q105 0 105 185q0 183 -106 183q-104 0 -104 -183
q0 -29 3.5 -56t13.5 -58.5t32.5 -51t55.5 -19.5z" />
    <glyph glyph-name="nine.osf" horiz-adv-x="590" 
d="M263 -267l-85 76q142 160 189 236q-47 -16 -94 -16q-99 0 -167.5 67.5t-68.5 176.5q0 119 80.5 183.5t190.5 64.5q108 0 187 -62t79 -173q0 -210 -311 -553zM306 125q62 0 102 43.5t40 104.5q0 62 -42 103.5t-102 41.5q-61 0 -99.5 -42t-38.5 -102t39 -104.5t101 -44.5z
" />
    <glyph glyph-name="eight.osf" horiz-adv-x="621" 
d="M445 364q48 -23 80.5 -65t32.5 -100q0 -88 -72.5 -151t-173.5 -63t-175 62.5t-74 147.5q0 59 35 102t80 67q-45 20 -76.5 64.5t-31.5 101.5q0 87 72.5 145.5t171.5 58.5q98 0 168 -58.5t70 -145.5q0 -57 -31 -102t-76 -64zM431 202q0 46 -35.5 81t-85.5 35t-86 -34
t-36 -81q0 -48 36 -83t86 -35t85.5 35t35.5 82zM429 520q0 47 -34 80.5t-84 33.5t-85 -33.5t-35 -79.5q0 -45 35 -79t86 -34q50 0 83.5 33t33.5 79z" />
    <glyph glyph-name="seven.osf" horiz-adv-x="554" 
d="M167 -211h-136l345 628h-328v105h511z" />
    <glyph glyph-name="six.osf" horiz-adv-x="635" 
d="M366 768l84 -75q-130 -130 -192 -232q47 16 94 16q99 0 167.5 -67.5t68.5 -176.5q0 -119 -80.5 -183t-190.5 -64q-107 0 -186.5 66.5t-79.5 177.5q0 98 75 234.5t240 303.5zM321 88q61 0 99.5 42t38.5 102t-39 104.5t-101 44.5t-102 -43.5t-40 -104.5q0 -62 42 -103.5
t102 -41.5z" />
    <glyph glyph-name="five.osf" horiz-adv-x="531" 
d="M19 -157l48 93q18 -25 68.5 -52.5t101.5 -27.5q56 0 96 35.5t40 93.5q0 77 -73.5 130.5t-202.5 81.5l100 308h279l-25 -105h-186l-44 -135q114 -27 189.5 -100t75.5 -175q0 -103 -74 -170t-180 -67q-74 0 -133 31t-80 59z" />
    <glyph glyph-name="four.osf" horiz-adv-x="691" 
d="M529 -210h-117v211h-400v18l503 581h14v-496h125v-103h-125v-211zM412 104v224l-198 -224h198z" />
    <glyph glyph-name="three.osf" horiz-adv-x="553" 
d="M18 -150l52 87q19 -23 66.5 -45t102.5 -22q71 0 109 39t38 93q0 66 -54.5 112.5t-137.5 46.5q-7 0 -13.5 -0.5t-9.5 -0.5v72q8 -1 22 -1q70 0 115 36t45 87q0 38 -27 62t-75 24q-70 0 -124 -36l-37 87q28 19 77 37t102 18q92 0 149 -56t57 -129q0 -103 -108 -160v-1
q69 -29 104 -88t35 -121q0 -93 -72.5 -158t-193.5 -65q-81 0 -138 27t-84 55z" />
    <glyph glyph-name="two.osf" horiz-adv-x="564" 
d="M516 0h-492v52q46 24 74.5 39.5t74 42t73.5 48.5t57.5 49.5t43.5 56.5t14 57q0 43 -31 74.5t-76 31.5q-42 0 -83.5 -25.5t-66.5 -55.5l-62 75q22 24 49 45t78 43.5t103 22.5q89 0 148 -56.5t59 -136.5q0 -47 -23 -92t-60.5 -79.5t-76 -59.5t-78.5 -43l275 14v-103z" />
    <glyph glyph-name="one.osf" horiz-adv-x="478" 
d="M446 0h-395l1 99l143 -1v303l-95 -35l-35 90l247 89v-446l134 1v-100z" />
    <glyph glyph-name="zero_slash.osf" horiz-adv-x="664" 
d="M612 260q0 -115 -82 -196t-198 -81t-198 81t-82 196q0 116 82 197.5t198 81.5t198 -81.5t82 -197.5zM458 369l-184 -266q26 -10 59 -10q70 0 119 48.5t49 117.5q0 62 -43 110zM207 149l182 266q-28 10 -56 10q-70 0 -119 -48.5t-49 -117.5q0 -63 42 -110z" />
    <glyph glyph-name="zero.osf" horiz-adv-x="664" 
d="M612 260q0 -115 -82 -196t-198 -81t-198 81t-82 196q0 116 82 197.5t198 81.5t198 -81.5t82 -197.5zM501 259q0 69 -49 117.5t-119 48.5t-119 -48.5t-49 -117.5t49 -117.5t119 -48.5t119 48.5t49 117.5z" />
    <glyph glyph-name="nine.tab" horiz-adv-x="660" 
d="M280 -25l-85 75q142 160 189 237q-47 -16 -94 -16q-99 0 -167.5 67.5t-68.5 176.5q0 119 80.5 183.5t190.5 64.5q108 0 187 -62t79 -173q0 -211 -311 -553zM323 367q62 0 102 43.5t40 104.5q0 62 -42 103.5t-102 41.5q-61 0 -99.5 -42t-38.5 -102t39 -104.5t101 -44.5z
" />
    <glyph glyph-name="eight.tab" horiz-adv-x="660" 
d="M464 379q46 -23 79 -66.5t33 -105.5q0 -92 -72.5 -157t-173.5 -65t-174.5 64t-73.5 153q0 61 34.5 106t79.5 70q-45 22 -76.5 68.5t-31.5 105.5q0 91 73 151.5t172 60.5q98 0 168 -61t70 -151q0 -60 -31 -106.5t-76 -66.5zM329 85q50 0 85.5 37t35.5 87t-35.5 86.5
t-85.5 36.5q-51 0 -87 -36t-36 -86q0 -51 36 -88t87 -37zM330 423q50 0 84 35t34 84t-34 84.5t-84 35.5t-85 -35t-35 -83t34.5 -84.5t85.5 -36.5z" />
    <glyph glyph-name="seven.tab" horiz-adv-x="660" 
d="M221 -8h-138l347 650h-346v105h528z" />
    <glyph glyph-name="six.tab" horiz-adv-x="660" 
d="M383 768l84 -75q-130 -130 -192 -232q47 16 94 16q99 0 167.5 -67.5t68.5 -176.5q0 -119 -80.5 -183t-190.5 -64q-107 0 -186.5 66.5t-79.5 177.5q0 98 75 234.5t240 303.5zM338 88q61 0 99.5 42t38.5 102t-39 104.5t-101 44.5t-102 -43.5t-40 -104.5q0 -62 42 -103.5
t102 -41.5z" />
    <glyph glyph-name="five.tab" horiz-adv-x="660" 
d="M71 49l41 100q75 -59 163 -59q76 0 119 44t43 110q0 65 -42.5 108.5t-132.5 43.5q-59 0 -135 -24l100 376h322l-31 -101h-205l-47 -170q25 4 49 4q108 0 181 -67.5t73 -174.5q0 -104 -70.5 -179t-201.5 -75q-73 0 -132.5 20.5t-93.5 43.5z" />
    <glyph glyph-name="four.tab" horiz-adv-x="660" 
d="M512 -4h-124v126h-357v73l405 588h76v-558h107v-103h-107v-126zM395 225v325l-222 -325h222z" />
    <glyph glyph-name="three.tab" horiz-adv-x="660" 
d="M70 66l52 87q19 -23 66.5 -45t102.5 -22q71 0 109 39t38 94q0 66 -54.5 112.5t-137.5 46.5q-7 0 -13.5 -0.5t-9.5 -0.5v72q8 -1 22 -1q70 0 115 36t45 87q0 38 -27 62t-75 24q-70 0 -124 -36l-37 87q28 19 77 37t102 18q92 0 149 -56t57 -129q0 -103 -108 -160v-1
q69 -29 104 -88t35 -122q0 -92 -72.5 -157t-193.5 -65q-82 0 -139 26.5t-83 54.5z" />
    <glyph glyph-name="two.tab" horiz-adv-x="660" 
d="M591 0h-539v72q56 28 120 77t124.5 110.5t100 135.5t39.5 140q0 52 -32.5 89t-83.5 37q-88 0 -158 -82l-60 80q104 104 229 104q103 0 168.5 -65.5t65.5 -162.5q0 -59 -29 -123.5t-77.5 -122.5t-98 -104.5t-102.5 -86.5l333 6v-104z" />
    <glyph glyph-name="one.tab" horiz-adv-x="660" 
d="M624 1h-576v116h234v499l-157 -71l-44 94l325 133v-655h218v-116z" />
    <glyph glyph-name="zero_slash.tab" horiz-adv-x="660" 
d="M329 -15q-68 0 -119.5 25.5t-81 64.5t-47.5 93.5t-24 103t-6 102.5q0 53 5.5 101t24 103t47.5 94t80.5 65t119.5 26q69 0 121 -25t81.5 -63t48 -92t24.5 -103.5t6 -105.5q0 -45 -4.5 -86.5t-15.5 -87.5t-32 -83t-50.5 -67.5t-75 -47.5t-102.5 -17zM203 177l191 472
q-29 17 -66 17q-156 0 -156 -292q0 -122 31 -197zM459 565l-190 -468q25 -15 60 -15q158 0 158 292q0 118 -28 191z" />
    <glyph glyph-name="zero.tab" horiz-adv-x="660" 
d="M329 -15q-68 0 -119.5 25.5t-81 64.5t-47.5 93.5t-24 103t-6 102.5q0 53 5.5 101t24 103t47.5 94t80.5 65t119.5 26q69 0 121 -25t81.5 -63t48 -92t24.5 -103.5t6 -105.5q0 -45 -4.5 -86.5t-15.5 -87.5t-32 -83t-50.5 -67.5t-75 -47.5t-102.5 -17zM329 87q40 0 69.5 21.5
t45 51.5t24.5 72.5t11.5 74.5t2.5 67q0 48 -5.5 90t-20 90.5t-47.5 77.5t-81 29q-151 0 -151 -287q0 -44 5.5 -86t20 -91.5t47 -79.5t79.5 -30z" />
    <glyph glyph-name="five.alt" horiz-adv-x="576" 
d="M16 80l56 91q16 -13 38.5 -28t68 -33.5t85.5 -18.5q61 0 100.5 38.5t39.5 98.5q0 85 -80.5 144t-218.5 79l114 290h305l-33 -105h-187l-50 -126q125 -27 201 -97.5t76 -179.5t-75 -176t-188 -67q-81 0 -151.5 31t-100.5 59z" />
    <glyph glyph-name="question.sc" horiz-adv-x="384" 
d="M290 319l53 -54q-22 -32 -64 -59.5t-95 -27.5t-95 31.5t-42 80.5q0 21 9 39.5t27 34t29.5 24t32.5 20.5q65 40 65 68q0 24 -30 24q-41 0 -78 -32l-43 59q70 53 135 53q57 0 89 -32t32 -75q0 -54 -103 -118q-61 -39 -61 -64q0 -13 10 -22.5t25 -9.5q31 0 60 20.5t44 39.5z
M257 64q0 -31 -22 -52t-53 -21t-52.5 21t-21.5 52t21.5 53t52.5 22t53 -22t22 -53z" />
    <glyph glyph-name="questiondown.sc" horiz-adv-x="385" 
d="M282 78l43 -59q-68 -52 -135 -52q-57 0 -89 31.5t-32 74.5q0 54 103 118q61 39 61 64q0 13 -10 22.5t-25 9.5q-31 0 -60 -20.5t-44 -39.5l-53 54q22 32 64 59.5t95 27.5t95 -31.5t42 -80.5q0 -21 -8.5 -39t-27 -34t-29.5 -24t-33 -21q-65 -40 -65 -68q0 -24 30 -24
q41 0 78 32zM202 407q-31 0 -53 22t-22 53t22 52.5t53 21.5t52.5 -21.5t21.5 -52.5t-21.5 -53t-52.5 -22z" />
    <glyph glyph-name="exclam.sc" horiz-adv-x="269" 
d="M188 205h-107l-15 353h137zM134 -9q-30 0 -52 21.5t-22 51.5q0 31 22 52.5t52 21.5q31 0 52.5 -21.5t21.5 -52.5q0 -30 -21.5 -51.5t-52.5 -21.5z" />
    <glyph glyph-name="exclamdown.sc" horiz-adv-x="265" 
d="M201 -9h-137l15 352h107zM133 410q-31 0 -52.5 21.5t-21.5 52.5q0 30 21.5 52t52.5 22q30 0 52 -22t22 -52q0 -31 -22 -52.5t-52 -21.5z" />
    <glyph glyph-name="periodcentered.sc" horiz-adv-x="274" 
d="M213 324q0 -27 -22 -47.5t-54 -20.5q-31 0 -53.5 20.5t-22.5 47.5q0 30 22 50.5t54 20.5t54 -20t22 -51z" />
    <glyph glyph-name="commaaccent" horiz-adv-x="327" 
d="M167 -243h-101l74 205h139z" />
    <glyph glyph-name="plus.sc" horiz-adv-x="524" 
d="M480 194h-170v-145h-97v145h-169v94h169v146h97v-146h170v-94z" />
    <glyph glyph-name="plus.dnom" horiz-adv-x="474" 
d="M443 159h-158v-134h-96v134h-158v90h158v137h96v-137h158v-90z" />
    <glyph glyph-name="plus.sup" horiz-adv-x="474" 
d="M443 489h-158v-134h-96v134h-158v90h158v137h96v-137h158v-90z" />
    <glyph glyph-name="plus.sinf" horiz-adv-x="474" 
d="M443 -30h-158v-134h-96v134h-158v89h158v137h96v-137h158v-89z" />
    <glyph glyph-name="minus.sc" horiz-adv-x="568" 
d="M502 194h-436v94h436v-94z" />
    <glyph glyph-name="minus.dnom" horiz-adv-x="518" 
d="M465 159h-412v90h412v-90z" />
    <glyph glyph-name="minus.sup" horiz-adv-x="518" 
d="M465 489h-412v90h412v-90z" />
    <glyph glyph-name="minus.sinf" horiz-adv-x="518" 
d="M465 -30h-412v89h412v-89z" />
    <glyph glyph-name="multiply.sc" horiz-adv-x="508" 
d="M458 123l-72 -62l-130 133l-132 -133l-75 61l140 135l-138 139l72 64l134 -138l129 139l72 -64l-136 -138z" />
    <glyph glyph-name="multiply.dnom" horiz-adv-x="442" 
d="M404 86l-66 -52l-116 103l-114 -102l-70 50l121 107l-118 106l66 53l115 -103l116 102l65 -52l-119 -106z" />
    <glyph glyph-name="multiply.sup" horiz-adv-x="443" 
d="M404 416l-66 -52l-116 103l-114 -102l-70 50l121 107l-118 106l66 53l115 -103l116 102l65 -52l-119 -106z" />
    <glyph glyph-name="multiply.sinf" horiz-adv-x="441" 
d="M403 -103l-66 -52l-116 103l-114 -102l-70 50l121 106l-118 106l66 53l115 -103l116 102l65 -52l-119 -106z" />
    <glyph glyph-name="divide.sc" horiz-adv-x="530" 
d="M483 194h-436v93h436v-93zM324 390q0 -22 -17 -40t-43 -18q-23 0 -41 18t-18 40q0 24 17.5 42.5t41.5 18.5q27 0 43.5 -18t16.5 -43zM324 90q0 -23 -17 -41t-43 -18q-24 0 -41.5 18.5t-17.5 40.5q0 24 17.5 42t41.5 18q27 0 43.5 -17.5t16.5 -42.5z" />
    <glyph glyph-name="divide.dnom" horiz-adv-x="484" 
d="M448 159h-412v90h412v-90zM300 71q0 -22 -16.5 -37.5t-42.5 -15.5q-23 0 -40 15.5t-17 37.5q0 21 17 36.5t40 15.5q26 0 42.5 -15t16.5 -37zM300 337q0 -21 -16.5 -36t-42.5 -15q-23 0 -40 15.5t-17 35.5q0 22 17 38t40 16q27 0 43 -15.5t16 -38.5z" />
    <glyph glyph-name="divide.sup" horiz-adv-x="484" 
d="M448 489h-412v90h412v-90zM300 401q0 -22 -16.5 -37.5t-42.5 -15.5q-23 0 -40 15.5t-17 37.5q0 21 17 36.5t40 15.5q26 0 42.5 -15t16.5 -37zM300 667q0 -21 -16.5 -36t-42.5 -15q-23 0 -40 15.5t-17 35.5q0 22 17 38t40 16q27 0 43 -15.5t16 -38.5z" />
    <glyph glyph-name="divide.sinf" horiz-adv-x="484" 
d="M448 -30h-412v89h412v-89zM300 -118q0 -22 -16.5 -37.5t-42.5 -15.5q-23 0 -40 15.5t-17 37.5q0 21 17 36.5t40 15.5q26 0 42.5 -15t16.5 -37zM300 147q0 -21 -16.5 -36t-42.5 -15q-23 0 -40 15.5t-17 35.5q0 22 17 38t40 16q27 0 43 -15.5t16 -38.5z" />
    <glyph glyph-name="equal.sc" horiz-adv-x="568" 
d="M502 73h-436v95h436v-95zM502 291h-436v95h436v-95z" />
    <glyph glyph-name="equal.dnom" horiz-adv-x="518" 
d="M465 75h-412v91h412v-91zM465 243h-412v90h412v-90z" />
    <glyph glyph-name="equal.sup" horiz-adv-x="518" 
d="M465 405h-412v91h412v-91zM465 573h-412v90h412v-90z" />
    <glyph glyph-name="equal.sinf" horiz-adv-x="518" 
d="M465 -114h-412v91h412v-91zM465 53h-412v90h412v-90z" />
    <glyph glyph-name="notequal.sc" horiz-adv-x="526" 
d="M481 74h-201l-45 -183l-96 27l39 156h-133v94h156l30 123h-186v95h208l45 181l96 -24l-39 -157h126v-95h-148l-31 -123h179v-94z" />
    <glyph glyph-name="plusminus.sc" horiz-adv-x="548" 
d="M492 1h-436v93h436v-93zM492 275h-170v-146h-97v146h-169v93h169v150h97v-150h170v-93z" />
    <glyph glyph-name="less.sc" horiz-adv-x="541" 
d="M430 28l-390 186v54l391 175l54 -83l-282 -121l284 -131z" />
    <glyph glyph-name="greater.sc" horiz-adv-x="540" 
d="M500 213l-390 -175l-55 82l283 121l-284 131l56 81l390 -185v-55z" />
    <glyph glyph-name="section.alt" horiz-adv-x="436" 
d="M249 -142l-88 837q14 19 79 47t108 28q23 0 38 -13.5t15 -32.5t-13.5 -33.5t-31.5 -14.5q-21 0 -33.5 15.5t-13.5 31.5q-12 -3 -32.5 -18.5t-24.5 -21.5l89 -836q-17 -34 -94.5 -74t-129.5 -40q-21 0 -34.5 13t-13.5 33q0 19 14 32.5t32 13.5q20 0 33 -14.5t14 -29.5
q24 7 50 30t37 47zM116 672l83 -776q-4 -2 -10 -4.5t-19 -8t-21 -9.5l-8 -4l-20 192l-40 386l-20 193q54 31 55 31z" />
    <glyph glyph-name="five.sc" horiz-adv-x="463" 
d="M24 37l36 93q62 -44 125 -44q50 0 78.5 25t28.5 67q0 40 -27.5 66t-90.5 26q-46 0 -107 -19l77 280h260l-29 -89h-155l-30 -98q14 2 40 2q78 0 134 -50.5t56 -126.5q0 -74 -55 -127.5t-159 -53.5q-105 0 -182 49z" />
    <glyph glyph-name="two.dnom" horiz-adv-x="452" 
d="M418 0h-404q34 23 74.5 56.5t85.5 77t75 90t30 81.5q0 28 -18 43t-44 15q-52 0 -98 -48l-53 73q77 66 167 66q72 0 117.5 -41t45.5 -102q0 -67 -54.5 -130t-112.5 -100l189 10v-91z" />
    <glyph glyph-name="six.sc" horiz-adv-x="499" 
d="M283 554l80 -69q-1 -1 -27 -25t-45.5 -42.5t-44.5 -45.5t-39 -47q18 16 62 16q76 0 135.5 -51t59.5 -123q0 -73 -61.5 -126t-150.5 -53q-90 0 -151.5 53.5t-61.5 125.5q0 50 33.5 117t79.5 124.5t80.5 95t50.5 50.5zM341 168q0 36 -25 62t-65 26t-66 -25.5t-26 -62.5
q0 -36 27 -60.5t66 -24.5q40 0 64.5 24.5t24.5 60.5z" />
    <glyph glyph-name="three.dnom" horiz-adv-x="396" 
d="M275 247v-1q41 -15 63 -50t22 -72q0 -57 -51.5 -96t-135.5 -39q-56 0 -96.5 16t-60.5 34l49 77q12 -13 45 -25t63 -12q37 0 56.5 18t19.5 43q0 32 -32.5 50t-82.5 18q-15 0 -23 -1v63q3 0 8 -0.5t11 -0.5q40 0 67 15t27 42q0 38 -51 38q-40 0 -77 -23l-33 80
q16 13 52.5 23t74.5 10q67 0 107.5 -31.5t40.5 -81.5q0 -62 -63 -94z" />
    <glyph glyph-name="four.dnom" horiz-adv-x="466" 
d="M366 -4h-106v74h-239v69l271 312h74v-294h73v-87h-73v-74zM264 151v145l-126 -145h126z" />
    <glyph glyph-name="five.dnom" horiz-adv-x="404" 
d="M21 32l35 91q50 -39 108 -39q39 0 61.5 17.5t22.5 49.5q0 30 -22 49.5t-72 19.5q-38 0 -98 -17l68 241h234l-29 -87h-131l-23 -67q22 2 30 2q69 0 117.5 -43t48.5 -108q0 -62 -47 -106.5t-138 -44.5q-96 0 -165 42z" />
    <glyph glyph-name="six.dnom" horiz-adv-x="425" 
d="M242 474l75 -62q-33 -26 -75 -67.5t-57 -60.5q29 13 62 13q62 0 109 -43t47 -106q0 -67 -53 -113t-133 -46q-81 0 -132.5 47.5t-51.5 120.5q0 48 29.5 105.5t68 101.5t70 74t41.5 36zM287 145q0 27 -19.5 47t-51.5 20q-31 0 -51 -19.5t-20 -47.5t21 -46.5t51 -18.5t50 19
t20 46z" />
    <glyph glyph-name="seven.dnom" horiz-adv-x="426" 
d="M157 -6h-130l227 352h-213v95h381z" />
    <glyph glyph-name="eight.dnom" horiz-adv-x="448" 
d="M335 232q73 -35 73 -103q0 -58 -53.5 -98.5t-128.5 -40.5q-76 0 -131 40t-55 94q0 35 23.5 63.5t49.5 42.5q-5 2 -15 9t-22.5 19.5t-22 33t-9.5 42.5q0 55 52.5 94t128.5 39q75 0 127 -38.5t52 -94.5q0 -37 -21.5 -65t-47.5 -37zM291 136q0 21 -19.5 37t-47.5 16
t-48.5 -15.5t-20.5 -37.5q0 -23 20 -39.5t48 -16.5t48 17t20 39zM291 323q0 22 -19 37.5t-48 15.5q-28 0 -48 -15.5t-20 -36.5t20 -37.5t49 -16.5q28 0 47 16t19 37z" />
    <glyph glyph-name="nine.dnom" horiz-adv-x="425" 
d="M183 -31l-75 61q33 26 75 67.5t57 60.5q-29 -13 -62 -13q-62 0 -109 43t-47 106q0 67 53 113.5t133 46.5t132 -46t52 -113q0 -48 -29.5 -107t-68 -104.5t-70 -77t-41.5 -37.5zM280 297q0 28 -21 46.5t-51 18.5t-50 -19t-20 -46t19.5 -47t51.5 -20q31 0 51 19.5t20 47.5z
" />
    <glyph glyph-name="zero_slash.sinf" horiz-adv-x="468" 
d="M233 -201q-58 0 -99 22.5t-60.5 60t-27 73.5t-7.5 77q0 32 4 60.5t16.5 61t33 56t56.5 39t84 15.5q196 0 196 -232q0 -42 -8 -78.5t-27.5 -73.5t-60.5 -59t-100 -22zM166 -63l96 236q-13 6 -29 6q-82 0 -82 -147q0 -59 15 -95zM303 125l-95 -235q9 -4 25 -4q84 0 84 146
q0 55 -14 93z" />
    <glyph glyph-name="seven.sc" horiz-adv-x="471" 
d="M168 -6h-133l265 439h-255v97h427z" />
    <glyph glyph-name="eight.sc" horiz-adv-x="492" 
d="M361 270q81 -42 81 -121q0 -66 -57.5 -113.5t-137.5 -47.5t-138.5 46.5t-58.5 110.5q0 42 26 75t56 48q-31 16 -54 49t-23 73q0 63 56 108t137 45q79 0 134 -44t55 -110q0 -42 -23 -75t-53 -44zM322 154q0 28 -22 50t-54 22t-55 -21.5t-23 -49.5q0 -29 23 -51t55 -22
q31 0 53.5 22t22.5 50zM321 380q0 28 -21.5 48.5t-53.5 20.5t-54 -20.5t-22 -48.5q0 -27 22 -48.5t54 -21.5t53.5 20.5t21.5 49.5z" />
    <glyph glyph-name="nine.sc" horiz-adv-x="500" 
d="M216 -22l-80 68q1 1 27 25t45.5 42.5t44.5 45.5t39 47q-18 -16 -62 -16q-76 0 -135.5 51t-59.5 123q0 73 61.5 126.5t150.5 53.5q90 0 151.5 -54t61.5 -126q0 -50 -33.5 -117t-80 -124t-80.5 -94.5t-50 -50.5zM340 363q0 36 -27 60.5t-66 24.5q-40 0 -64.5 -24.5
t-24.5 -60.5t25 -62t65 -26t66 25.5t26 62.5z" />
    <glyph glyph-name="zero.sup" horiz-adv-x="468" 
d="M233 318q-58 0 -99 22.5t-60.5 60t-27 74t-7.5 77.5q0 32 4 60.5t16.5 61t33 56t56.5 39t84 15.5q196 0 196 -232q0 -42 -8 -78.5t-27.5 -74t-60.5 -59.5t-100 -22zM233 410q79 0 79 142t-79 142q-77 0 -77 -142q0 -22 2.5 -42.5t10 -45t24 -39.5t40.5 -15z" />
    <glyph glyph-name="zero_slash.sup" horiz-adv-x="468" 
d="M233 318q-58 0 -99 22.5t-60.5 60t-27 74t-7.5 77.5q0 32 4 60.5t16.5 61t33 56t56.5 39t84 15.5q196 0 196 -232q0 -42 -8 -78.5t-27.5 -74t-60.5 -59.5t-100 -22zM166 456l96 237q-13 6 -29 6q-82 0 -82 -147q0 -60 15 -96zM303 645l-95 -236q9 -4 25 -4q84 0 84 147
q0 55 -14 93z" />
    <glyph glyph-name="one.sup" horiz-adv-x="300" 
d="M239 328h-111v324l-75 -28l-42 85l228 81v-462z" />
    <glyph glyph-name="two.sup" horiz-adv-x="457" 
d="M421 330h-404q34 23 74.5 56.5t85.5 77t75 90t30 81.5q0 28 -18 43t-44 15q-52 0 -98 -48l-53 73q77 66 167 66q72 0 117.5 -41t45.5 -102q0 -67 -54.5 -130t-112.5 -100l189 10v-91z" />
    <glyph glyph-name="three.sup" horiz-adv-x="397" 
d="M276 577v-1q41 -15 63 -50t22 -72q0 -57 -52 -96.5t-135 -39.5q-56 0 -96.5 16.5t-60.5 34.5l49 77q12 -13 45 -25t63 -12q37 0 56.5 18t19.5 43q0 32 -32.5 50t-82.5 18q-15 0 -23 -1v63q3 0 8 -0.5t11 -0.5q40 0 67 15t27 42q0 38 -51 38q-40 0 -77 -23l-33 80
q16 13 52.5 23t74.5 10q67 0 107.5 -31.5t40.5 -81.5q0 -62 -63 -94z" />
    <glyph glyph-name="four.sup" horiz-adv-x="467" 
d="M367 325h-106v75h-239v69l271 312h74v-294h73v-87h-73v-75zM265 481v145l-126 -145h126z" />
    <glyph glyph-name="zero.dnom" horiz-adv-x="468" 
d="M233 -11q-47 0 -83 15.5t-56.5 39t-33.5 56t-17 61.5t-4 61t4 60.5t16.5 61t33 56t56.5 39t84 15.5q196 0 196 -232q0 -33 -4 -62.5t-17 -61.5t-34 -55.5t-57 -38.5t-84 -15zM233 80q79 0 79 142t-79 142q-77 0 -77 -142q0 -22 2.5 -42.5t10 -45t24 -39.5t40.5 -15z" />
    <glyph glyph-name="five.sup" horiz-adv-x="403" 
d="M21 362l35 91q50 -39 108 -39q39 0 61.5 17.5t22.5 49.5q0 30 -22 49.5t-72 19.5q-38 0 -98 -17l68 241h234l-29 -87h-131l-23 -67q22 2 30 2q69 0 117.5 -43t48.5 -108q0 -62 -47 -107t-138 -45q-94 0 -165 43z" />
    <glyph glyph-name="six.sup" horiz-adv-x="425" 
d="M242 804l75 -62q-33 -26 -75 -67.5t-57 -60.5q29 13 62 13q62 0 109 -43t47 -106q0 -67 -53 -113.5t-133 -46.5q-81 0 -132.5 48t-51.5 121q0 48 29.5 105.5t68 101.5t70 74t41.5 36zM287 475q0 27 -19.5 47t-51.5 20q-31 0 -51 -19.5t-20 -47.5t21 -46.5t51 -18.5t50 19
t20 46z" />
    <glyph glyph-name="zero_slash.dnom" horiz-adv-x="468" 
d="M233 -11q-47 0 -83 15.5t-56.5 39t-33.5 56t-17 61.5t-4 61t4 60.5t16.5 61t33 56t56.5 39t84 15.5q196 0 196 -232q0 -33 -4 -62.5t-17 -61.5t-34 -55.5t-57 -38.5t-84 -15zM166 126l96 237q-13 6 -29 6q-82 0 -82 -147q0 -60 15 -96zM303 315l-95 -236q9 -4 25 -4
q84 0 84 147q0 55 -14 93z" />
    <glyph glyph-name="seven.sup" horiz-adv-x="422" 
d="M159 323h-130l227 353h-213v95h381z" />
    <glyph glyph-name="eight.sup" horiz-adv-x="448" 
d="M335 562q73 -35 73 -103q0 -58 -53.5 -99t-128.5 -41t-130.5 40.5t-55.5 94.5q0 35 23.5 63.5t49.5 42.5q-5 2 -15 9t-22.5 19.5t-22 33t-9.5 42.5q0 55 52.5 94t128.5 39q75 0 127 -38.5t52 -94.5q0 -37 -21.5 -65t-47.5 -37zM291 466q0 21 -19.5 37t-47.5 16
t-48.5 -15.5t-20.5 -37.5q0 -23 20 -39.5t48 -16.5t48 17t20 39zM291 653q0 22 -19 37.5t-48 15.5q-28 0 -48 -15.5t-20 -36.5t20 -37.5t49 -16.5q28 0 47 16t19 37z" />
    <glyph glyph-name="nine.sup" horiz-adv-x="425" 
d="M183 298l-75 62q33 26 75 67.5t57 60.5q-29 -13 -62 -13q-62 0 -109 43t-47 106q0 67 53 113.5t133 46.5t132 -46t52 -113q0 -48 -29.5 -107t-68 -105t-70 -77.5t-41.5 -37.5zM280 627q0 28 -21 46.5t-51 18.5t-50 -19t-20 -46t19.5 -47t51.5 -20q31 0 51 19.5t20 47.5z
" />
    <glyph glyph-name="percent.sc" horiz-adv-x="724" 
d="M268 -19l-75 21l250 556l77 -22zM162 314q-52 0 -89 37t-37 89t37 89t89 37t89 -37t37 -89t-37 -89t-89 -37zM162 383q22 0 38.5 17.5t16.5 39.5q0 23 -16.5 40t-38.5 17t-38.5 -17t-16.5 -40q0 -22 16.5 -39.5t38.5 -17.5zM562 -11q-53 0 -89.5 36.5t-36.5 88.5t37 89
t89 37t89 -37t37 -89t-37 -88.5t-89 -36.5zM562 57q22 0 38.5 17t16.5 40q0 22 -16.5 39.5t-38.5 17.5t-38.5 -17.5t-16.5 -39.5q0 -23 16.5 -40t38.5 -17z" />
    <glyph glyph-name="perthousand.sc" horiz-adv-x="1064" 
d="M284 -19l-74 21l250 556l77 -22zM161 314q-53 0 -89.5 37t-36.5 89t36.5 89t89.5 37t89.5 -37t36.5 -89t-37 -89t-89 -37zM161 383q22 0 38.5 17.5t16.5 39.5q0 23 -16.5 40t-38.5 17t-38.5 -17t-16.5 -40q0 -22 16.5 -39.5t38.5 -17.5zM561 -11q-53 0 -89.5 36.5
t-36.5 88.5t36.5 89t89.5 37t89.5 -37t36.5 -89t-37 -88.5t-89 -36.5zM561 57q22 0 38.5 17t16.5 40q0 22 -16.5 39.5t-38.5 17.5t-38.5 -17.5t-16.5 -39.5q0 -23 16.5 -40t38.5 -17zM903 -11q-53 0 -89.5 36.5t-36.5 88.5t36.5 89t89.5 37t89.5 -37t36.5 -89t-37 -88.5
t-89 -36.5zM903 57q22 0 38.5 17t16.5 40q0 22 -16.5 39.5t-38.5 17.5t-38.5 -17.5t-16.5 -39.5q0 -23 16.5 -40t38.5 -17z" />
    <glyph glyph-name="dollar.alt" horiz-adv-x="583" 
d="M358 -103h-107v91q-71 7 -129 37t-87 62l67 92q84 -79 185 -79q54 0 84.5 25.5t30.5 69.5q0 27 -10 48t-32.5 38t-40.5 27t-52 26q-88 42 -136.5 88.5t-48.5 121.5q0 74 48 124.5t121 67.5v84h107v-80q94 -15 156 -82l-62 -95q-69 67 -135 67q-40 0 -70.5 -21t-30.5 -59
q0 -12 3 -22.5t11.5 -20t14 -15.5t20.5 -14.5t20.5 -11.5t25 -12t23.5 -11q109 -52 156.5 -105.5t47.5 -130.5q0 -88 -51 -142t-129 -71v-97z" />
    <glyph glyph-name="dollar.sc" horiz-adv-x="505" 
d="M219 -97l-60 4l18 91q-79 19 -134 67l63 88q40 -35 93 -49l26 125q-67 32 -105.5 69.5t-38.5 95.5q0 67 54 109t127 42q10 0 28 -2l16 77l60 -4l-18 -88q60 -24 83 -51l-57 -89q-23 20 -48 33l-20 -97q85 -42 114 -79.5t29 -96.5q0 -66 -57.5 -112t-154.5 -46zM281 203
l-22 -105q30 3 45.5 16.5t15.5 32.5q0 35 -39 56zM250 348l18 91h-4q-24 0 -41.5 -11t-17.5 -31q0 -27 45 -49z" />
    <glyph glyph-name="dollar.dnom" horiz-adv-x="403" 
d="M171 -88l-66 4l19 84q-62 17 -104 57l55 76q28 -25 70 -39l26 114q-29 13 -43.5 21t-35.5 24t-30.5 37t-9.5 49q0 61 47 97.5t110 36.5q8 0 22 -2l18 78l65 -3l-21 -92q40 -18 64 -42l-50 -80q-18 16 -36 26l-18 -82q27 -12 44 -22t36.5 -27t29.5 -41t10 -54
q0 -70 -50.5 -106.5t-121.5 -36.5q-2 0 -6.5 0.5t-6.5 0.5zM230 176l-20 -92q48 3 48 42q0 29 -28 50zM193 304l17 74q-19 -1 -32 -10t-13 -25q0 -21 28 -39z" />
    <glyph glyph-name="dollar.sup" horiz-adv-x="403" 
d="M171 241l-66 4l19 85q-62 17 -104 57l55 76q28 -25 70 -39l26 114q-29 13 -43.5 21t-35.5 24t-30.5 37t-9.5 49q0 61 47 97.5t110 36.5q8 0 22 -2l18 78l65 -3l-21 -92q40 -18 64 -42l-50 -80q-18 16 -36 26l-18 -82q27 -12 44 -22t36.5 -27t29.5 -41t10 -54
q0 -70 -50.5 -107t-121.5 -37q-2 0 -6.5 0.5t-6.5 0.5zM230 506l-20 -92q48 3 48 42q0 29 -28 50zM193 634l17 74q-19 -1 -32 -10t-13 -25q0 -21 28 -39z" />
    <glyph glyph-name="dollar.sinf" horiz-adv-x="403" 
d="M171 -278l-66 4l19 85q-62 17 -104 57l55 76q28 -25 70 -39l26 113q-29 13 -43.5 21t-35.5 24t-30.5 37t-9.5 49q0 61 47 97.5t110 36.5q8 0 22 -2l18 78l65 -3l-21 -92q40 -18 64 -42l-50 -80q-18 16 -36 26l-18 -82q27 -12 44 -22t36.5 -27t29.5 -40.5t10 -53.5
q0 -70 -50.5 -107t-121.5 -37q-2 0 -6.5 0.5t-6.5 0.5zM230 -13l-20 -92q48 3 48 42q0 29 -28 50zM193 114l17 74q-19 -1 -32 -10t-13 -25q0 -21 28 -39z" />
    <glyph glyph-name="one.dnom" horiz-adv-x="301" 
d="M240 -1h-111v323l-75 -28l-42 85l228 81v-461z" />
    <glyph glyph-name="cent.sc" horiz-adv-x="463" 
d="M287 -18h-91q0 16 0.5 49.5t0.5 50.5q-66 16 -109.5 64t-43.5 113q0 66 42.5 114t110.5 65q0 18 -0.5 55t-0.5 48h91q0 -16 -0.5 -50.5t-0.5 -50.5q41 -6 79 -26t51 -35l-51 -71q-28 28 -79 36v-169q57 3 89 34l48 -64q-59 -59 -137 -67q0 -18 0.5 -52t0.5 -44zM204 179
v162q-27 -8 -46 -29t-19 -53q0 -30 19.5 -50.5t45.5 -29.5z" />
    <glyph glyph-name="cent.dnom" horiz-adv-x="392" 
d="M248 1h-71v54q-67 13 -110 57.5t-43 106.5t46 100.5t107 46.5v93h71v-92q31 -5 64 -20.5t45 -26.5l-39 -67q-41 31 -70 32v-145q44 0 77 26l32 -65q-35 -32 -109 -43v-57zM177 142v144q-27 -3 -45 -23.5t-18 -47.5q0 -30 16 -49.5t47 -23.5z" />
    <glyph glyph-name="cent.sup" horiz-adv-x="399" 
d="M255 330h-71v54q-67 13 -110 57.5t-43 106.5t46 100.5t107 46.5v93h71v-92q31 -5 64 -20.5t45 -26.5l-39 -67q-41 31 -70 32v-145q44 0 77 26l32 -65q-35 -32 -109 -43v-57zM184 471v144q-27 -3 -45 -23.5t-18 -47.5q0 -30 16 -49.5t47 -23.5z" />
    <glyph glyph-name="cent.sinf" horiz-adv-x="399" 
d="M255 -189h-71v54q-67 13 -110 57.5t-43 105.5q0 62 46 100.5t107 46.5v93h71v-92q31 -5 64 -20.5t45 -26.5l-39 -67q-41 31 -70 32v-144q44 0 77 26l32 -65q-35 -32 -109 -43v-57zM184 -48v143q-27 -3 -45 -23.5t-18 -47.5q0 -29 16.5 -48.5t46.5 -23.5z" />
    <glyph glyph-name="sterling.sc" horiz-adv-x="521" 
d="M475 95l10 -91q-61 -16 -106 -16q-23 0 -70 9.5t-66 9.5q-38 0 -94 -19.5t-70 -28.5l-42 86q9 6 45.5 19.5t66.5 21.5v119h-64v92h64v83q0 163 153 163q58 0 109 -36l-48 -81q-32 23 -59 23q-43 0 -43 -52v-100h110v-92h-113v-113q9 1 33 1q7 0 41 -7.5t50 -7.5
q40 0 93 17z" />
    <glyph glyph-name="sterling.dnom" horiz-adv-x="455" 
d="M422 98l9 -86q-42 -21 -111 -21q-19 0 -56.5 8t-58.5 8q-27 0 -78 -15.5t-68 -23.5l-36 80q42 24 96 37v79h-65v76h65v79q0 66 40.5 99t105.5 33q61 0 107 -43l-50 -69q-19 26 -45 26q-43 0 -43 -47v-78h110v-76h-110v-71q5 1 27 1q14 0 42.5 -8.5t44.5 -8.5q29 0 74 21z
" />
    <glyph glyph-name="sterling.sup" horiz-adv-x="455" 
d="M420 428l9 -86q-44 -22 -111 -22q-19 0 -56.5 8.5t-58.5 8.5q-27 0 -77.5 -16t-68.5 -24l-36 81q42 24 96 37v79h-65v76h65v79q0 66 40.5 99t105.5 33q61 0 107 -43l-50 -69q-19 26 -45 26q-43 0 -43 -47v-78h110v-76h-110v-71q5 1 27 1q14 0 42.5 -8.5t44.5 -8.5
q29 0 74 21z" />
    <glyph glyph-name="sterling.sinf" horiz-adv-x="453" 
d="M420 -91l9 -86q-44 -22 -111 -22q-19 0 -56.5 8.5t-58.5 8.5q-27 0 -77.5 -16t-68.5 -24l-36 81q42 24 96 37v79h-65v75h65v79q0 66 40.5 99t105.5 33q61 0 107 -43l-50 -69q-19 26 -45 26q-43 0 -43 -47v-78h110v-75h-110v-71q5 1 27 1q14 0 42.5 -8.5t44.5 -8.5
q29 0 74 21z" />
    <glyph glyph-name="Euro.alt" horiz-adv-x="650" 
d="M560 121l42 -76q-80 -56 -187 -56q-155 0 -259 113.5t-104 276.5q0 164 104 277.5t259 113.5q52 0 108.5 -19.5t87.5 -42.5l-55 -79q-19 11 -62 26t-86 15q-77 0 -137.5 -42t-90.5 -115h313v-88h-335q-3 -18 -3 -37q0 -20 2 -30h336v-88h-322q25 -79 89 -130.5t150 -51.5
q71 0 150 33z" />
    <glyph glyph-name="Euro.sc" horiz-adv-x="567" 
d="M483 110l40 -87q-66 -33 -151 -33q-92 0 -156 48.5t-89 134.5h-89l25 78h50q-2 6 -2 24q0 15 2 25h-64l21 78h57q26 85 87 133t156 48q73 0 153 -42l-44 -73q-76 27 -118 27q-89 0 -124 -93l207 2l-24 -80h-206q-2 -9 -2 -25t2 -24l223 1l-24 -79h-175q40 -98 135 -98
q57 0 110 35z" />
    <glyph glyph-name="Euro.alt.sc" horiz-adv-x="530" 
d="M445 108l38 -69q-66 -47 -151 -47q-122 0 -203 84t-81 204t81 201.5t203 81.5q39 0 86.5 -16.5t72.5 -35.5l-51 -73q-68 31 -114 31q-51 0 -93 -23.5t-66 -65.5h180v-70h-205q-2 -9 -2 -25t2 -25h205v-69h-188q23 -49 70 -78.5t102 -29.5t114 25z" />
    <glyph glyph-name="Euro.dnom" horiz-adv-x="485" 
d="M415 107l40 -81q-8 -5 -23 -11.5t-48.5 -15t-65.5 -8.5q-81 0 -139 41.5t-80 113.5h-75l24 66h39l-1 21q0 13 1 19h-58l24 66h46q22 72 77.5 113t135.5 41q73 0 145 -43l-48 -73q-59 27 -102 27q-68 0 -99 -65q30 0 94 0.5t84 0.5l-22 -67h-174q-2 -6 -2 -20t2 -20h184
l-21 -66h-144q33 -67 109 -67q10 0 21.5 2t21.5 5t20 6.5t16.5 6.5t12.5 5z" />
    <glyph glyph-name="Euro.sup" horiz-adv-x="485" 
d="M414 437l40 -81q-58 -36 -137 -36q-81 0 -139 42t-80 114h-75l24 66h39l-1 21q0 13 1 19h-58l24 66h46q22 72 77.5 113t135.5 41q73 0 145 -43l-48 -73q-59 27 -102 27q-68 0 -99 -65q29 0 93 0.5t85 0.5l-22 -67h-174q-2 -6 -2 -20t2 -20h184l-21 -66h-144
q33 -67 109 -67q10 0 21.5 2t21.5 5t20 6.5t16.5 6.5t11.5 5z" />
    <glyph glyph-name="Euro.sinf" horiz-adv-x="484" 
d="M414 -82l40 -81q-58 -36 -137 -36q-81 0 -139 42t-80 114h-75l24 65h39l-1 21q0 13 1 19h-58l24 66h46q22 72 77.5 113t135.5 41q73 0 145 -43l-48 -73q-59 27 -102 27q-68 0 -99 -65q29 0 93 0.5t85 0.5l-22 -67h-174q-2 -6 -2 -20t2 -20h184l-21 -65h-144
q33 -67 109 -67q10 0 21.5 2t21.5 5t20 6.5t16.5 6.5t11.5 6z" />
    <glyph glyph-name="yen.sc" horiz-adv-x="624" 
d="M540 60h-168v-51h-119v51h-170v74h170v51h-170v74h142l-186 270h146l127 -213l128 213h146l-187 -270h141v-74h-168v-51h168v-74z" />
    <glyph glyph-name="yen.dnom" horiz-adv-x="533" 
d="M466 41h-144v-44h-113v44h-141v72h141v43h-141v72h103l-149 205h126l115 -156q3 -4 4 -17q0 12 4 17l115 156h125l-152 -205h107v-72h-144v-43h144v-72z" />
    <glyph glyph-name="yen.sup" horiz-adv-x="531" 
d="M465 371h-144v-45h-113v45h-141v72h141v43h-141v72h103l-149 205h126l115 -156q3 -4 4 -17q0 12 4 17l115 156h125l-152 -205h107v-72h-144v-43h144v-72z" />
    <glyph glyph-name="yen.sinf" horiz-adv-x="532" 
d="M465 -148h-144v-45h-113v45h-141v72h141v43h-141v71h103l-149 205h126l115 -156q3 -4 4 -17q0 12 4 17l115 156h125l-152 -205h107v-71h-144v-43h144v-72z" />
    <glyph glyph-name="florin.sc" horiz-adv-x="388" 
d="M-66 -146l18 75q25 -9 48 -9q15 0 25.5 20t14.5 41l60 285h-64l20 93h64l7 39q16 89 56 139.5t119 50.5q40 0 79 -23l-26 -83q-33 14 -48 14q-17 0 -29.5 -10.5t-21 -33.5t-12.5 -41.5t-10 -51.5h82l-19 -93h-81q-41 -197 -66 -304q-14 -63 -53 -96.5t-97 -33.5
q-26 0 -66 22z" />
    <glyph glyph-name="currency.sc" horiz-adv-x="557" 
d="M505 90l-64 -57l-60 58q-47 -30 -104 -30q-56 0 -104 30l-61 -60l-60 62l59 60q-34 48 -34 107t33 104l-59 62l60 61l62 -61q49 31 104 31q58 0 105 -30l59 59l65 -58l-60 -65q31 -45 31 -103q0 -61 -33 -107zM387 260q0 43 -33 74.5t-77 31.5q-42 0 -75.5 -31.5
t-33.5 -74.5q0 -44 33 -76t76 -32q44 0 77 32t33 76z" />
    <glyph glyph-name="quotesingle.sc" horiz-adv-x="241" 
d="M159 414h-77l-19 233h115z" />
    <glyph glyph-name="quotedbl.sc" horiz-adv-x="396" 
d="M159 424h-77l-19 233h115zM314 424h-77l-19 233h115z" />
    <glyph glyph-name="quoteleft.sc" horiz-adv-x="279" 
d="M172 337h-126l125 232h82z" />
    <glyph glyph-name="quoteright.sc" horiz-adv-x="268" 
d="M132 337h-82l81 232h126z" />
    <glyph glyph-name="quotedblleft.sc" horiz-adv-x="442" 
d="M158 337h-112l125 232h82zM326 337h-111l125 232h82z" />
    <glyph glyph-name="quotedblright.sc" horiz-adv-x="435" 
d="M299 337h-82l95 232h112zM130 337h-82l96 232h111z" />
    <glyph glyph-name="guilsinglleft.sc" horiz-adv-x="371" 
d="M323 47h-131l-147 213l143 212h131l-144 -212z" />
    </font>
</defs>
</svg>
