<?xml version="1.0" standalone="no"?>
<!DOCTYPE svg PUBLIC "-//W3C//DTD SVG 1.1//EN" "http://www.w3.org/Graphics/SVG/1.1/DTD/svg11.dtd" >
<svg xmlns="http://www.w3.org/2000/svg" xmlns:xlink="http://www.w3.org/1999/xlink" version="1.1">
<metadata>
Created by FontForge 20201107 at Tue Sep  4 00:06:48 2012
 By 
Copyright (c) 2011 Canada Type. Designed by Patrick Griffin &#38; Bill Troop. All rights reserved. 
</metadata>
<defs>
<font id="SemplicitaPro-Italic" horiz-adv-x="534" >
  <font-face 
    font-family="Semplicita Pro"
    font-weight="400"
    font-style="italic"
    font-stretch="normal"
    units-per-em="1000"
    panose-1="0 0 0 0 0 0 0 0 0 0"
    ascent="800"
    descent="-200"
    x-height="480"
    cap-height="757"
    bbox="-169 -301 1192 1079"
    underline-thickness="50"
    underline-position="-249"
    unicode-range="U+0020-FB04"
  />
<missing-glyph horiz-adv-x="563" 
d="M501 0h-459l120 758h459zM454 52l104 654h-349l-104 -654h349z" />
    <glyph glyph-name=".notdef" horiz-adv-x="563" 
d="M501 0h-459l120 758h459zM454 52l104 654h-349l-104 -654h349z" />
    <glyph glyph-name=".null" horiz-adv-x="0" 
 />
    <glyph glyph-name="nonmarkingreturn" horiz-adv-x="333" 
 />
    <glyph glyph-name="space" unicode=" " horiz-adv-x="239" 
 />
    <glyph glyph-name="exclam" unicode="!" horiz-adv-x="255" 
d="M130 197h-46l70 560h93zM140 49q0 -24 -18 -42t-43 -18q-19 0 -31.5 13t-12.5 32q0 25 18.5 43.5t42.5 18.5q21 0 32.5 -13t11.5 -34z" />
    <glyph glyph-name="quotedbl" unicode="&#x22;" horiz-adv-x="364" 
d="M160 480h-54l33 281h78zM312 480h-54l33 281h77z" />
    <glyph glyph-name="numbersign" unicode="#" horiz-adv-x="632" 
d="M348 -10l-57 6l68 243h-140l-69 -249l-57 6l69 243h-116l15 58h117l40 151h-113l14 58h115l70 247l58 -5l-68 -242h139l68 247l59 -5l-68 -242h115l-12 -58h-119l-42 -151h114l-12 -58h-118zM376 297l41 151h-139l-43 -151h141z" />
    <glyph glyph-name="dollar" unicode="$" horiz-adv-x="547" 
d="M247 -109l-55 2l16 97q-64 1 -117 31.5t-72 64.5l49 52q52 -78 150 -83l48 310q-68 42 -101.5 81t-33.5 102q0 81 54.5 133.5t140.5 60.5l16 103h56l-16 -101q50 -5 86 -27.5t52 -45.5l-46 -51q-44 52 -102 58l-42 -262q32 -21 50.5 -35.5t42.5 -39t35.5 -56t11.5 -69.5
q0 -85 -57 -147.5t-150 -74.5zM318 336l-44 -276q117 24 117 142q0 87 -73 134zM279 443l36 233q-46 -7 -76.5 -36.5t-30.5 -78.5q0 -74 71 -118z" />
    <glyph glyph-name="percent" unicode="%" horiz-adv-x="784" 
d="M202 -21l-42 18l427 766l41 -18zM386 633q0 -68 -51.5 -118.5t-117.5 -50.5q-53 0 -86 36.5t-33 91.5q0 69 50.5 119.5t116.5 50.5q53 0 87 -37t34 -92zM227 515q42 0 74.5 33.5t32.5 78.5q0 36 -21 60t-55 24q-42 0 -74 -33.5t-32 -78.5q0 -36 21 -60t54 -24zM541 -11
q-53 0 -86 36t-33 91q0 69 50 119.5t116 50.5q53 0 87 -36.5t34 -91.5q0 -69 -51 -119t-117 -50zM550 38q42 0 74 33.5t32 79.5q0 36 -21 60t-54 24q-43 0 -75 -33.5t-32 -79.5q0 -36 21 -60t55 -24z" />
    <glyph glyph-name="ampersand" unicode="&#x26;" horiz-adv-x="697" 
d="M670 0h-89l-83 129q-9 -15 -28 -36t-49.5 -46t-75.5 -42t-92 -17q-97 0 -157 65.5t-60 163.5q0 106 68 185.5t149 101.5q-39 62 -39 115q0 64 45 107.5t117 43.5q35 0 64.5 -12.5t39.5 -21t26 -24.5l-50 -43q-12 15 -37 28.5t-53 13.5q-36 0 -62 -23.5t-26 -66.5
q0 -46 41 -106l249 1l-22 -55l-189 -1zM466 177l-182 279q-14 -2 -40 -15t-60 -38t-58 -71.5t-24 -103.5q0 -82 46 -131t117 -49q73 0 129 46t72 83z" />
    <glyph glyph-name="quotesingle" unicode="'" horiz-adv-x="213" 
d="M160 480h-54l33 281h78z" />
    <glyph glyph-name="parenleft" unicode="(" horiz-adv-x="246" 
d="M113 -243l-54 -22q-21 101 -21 289q0 229 56 438.5t137 373.5l51 -22q-181 -391 -181 -771q0 -152 12 -286z" />
    <glyph glyph-name="parenright" unicode=")" horiz-adv-x="247" 
d="M9 -265l-49 22q48 117 72.5 185t53.5 170t41.5 206t12.5 226q0 186 -13 270l56 22q18 -98 18 -287q0 -222 -52 -432.5t-140 -381.5z" />
    <glyph glyph-name="plus" unicode="+" horiz-adv-x="613" 
d="M560 334h-216l-36 -230h-66l36 230h-216l10 60h216l36 230h66l-36 -230h216z" />
    <glyph glyph-name="comma" unicode="," horiz-adv-x="236" 
d="M11 -106h-52l101 196h74z" />
    <glyph glyph-name="hyphen" unicode="-" horiz-adv-x="384" 
d="M291 218h-234l17 57h234z" />
    <glyph glyph-name="period" unicode="." horiz-adv-x="234" 
d="M128 49q0 -23 -18 -41t-42 -18q-18 0 -31 13.5t-13 31.5q0 24 19 42t42 18q20 0 31.5 -12.5t11.5 -33.5z" />
    <glyph glyph-name="slash" unicode="/" horiz-adv-x="529" 
d="M13 -215l-48 19l548 1016l50 -24z" />
    <glyph glyph-name="zero" unicode="0" horiz-adv-x="645" 
d="M274 -12q-199 0 -199 288q0 128 34.5 236.5t108 179t173.5 70.5q200 0 200 -291q0 -129 -35.5 -237t-109 -177t-172.5 -69zM285 48q72 0 127 63.5t81 157t26 197.5q0 234 -140 234q-72 0 -126 -61.5t-80 -154.5t-26 -199q0 -237 138 -237z" />
    <glyph glyph-name="one" unicode="1" horiz-adv-x="344" 
d="M186 -3h-69l107 677l-127 -54l-12 54l223 95z" />
    <glyph glyph-name="two" unicode="2" horiz-adv-x="575" 
d="M471 0h-488l-3 14q5 5 60.5 48.5t123 101.5t137.5 127t116.5 144.5t46.5 134.5q0 56 -30.5 93.5t-82.5 37.5q-48 0 -92 -26t-72 -57l-29 47q103 97 208 97q79 0 125 -51t46 -131q0 -70 -34 -140.5t-100.5 -140t-127 -120t-150.5 -118.5l356 2z" />
    <glyph glyph-name="three" unicode="3" horiz-adv-x="549" 
d="M-1 65l39 54q11 -23 51.5 -47.5t101.5 -24.5q90 0 143 55t53 128q0 68 -48 118t-133 51l6 36q93 5 150.5 55.5t57.5 112.5q0 41 -28 68t-79 27q-69 0 -128 -41l-15 50q19 18 66.5 36.5t96.5 18.5q73 0 115 -44.5t42 -107.5q0 -56 -35 -106.5t-108 -82.5v-2
q54 -25 82.5 -75t28.5 -111q0 -102 -75 -173.5t-197 -71.5q-130 0 -187 77z" />
    <glyph glyph-name="four" unicode="4" horiz-adv-x="605" 
d="M408 -3h-67l24 150h-359l-2 19l521 609h6l-89 -566h96l-10 -62h-96zM375 209l60 377l-307 -377h247z" />
    <glyph glyph-name="five" unicode="5" horiz-adv-x="545" 
d="M0 45l36 58q64 -54 148 -54q98 0 156.5 66t58.5 149q0 65 -40.5 109.5t-122.5 44.5q-49 0 -115 -21l148 352h264l-27 -60h-200l-90 -220q27 4 52 4q93 0 149.5 -54t56.5 -145q0 -111 -79.5 -198.5t-210.5 -87.5q-63 0 -112.5 19t-71.5 38z" />
    <glyph glyph-name="six" unicode="6" horiz-adv-x="587" 
d="M415 766l40 -45q-49 -48 -123 -134.5t-125 -161.5q43 42 122 42q86 0 141.5 -61.5t55.5 -149.5q0 -108 -80.5 -188.5t-191.5 -80.5q-95 0 -152.5 59.5t-57.5 142.5q0 198 371 577zM262 49q79 0 135.5 60.5t56.5 142.5q0 65 -38 109.5t-104 44.5q-79 0 -137 -62t-58 -143
q0 -66 40 -109t105 -43z" />
    <glyph glyph-name="seven" unicode="7" horiz-adv-x="515" 
d="M91 -6h-79l439 693l-342 -1l10 63h449z" />
    <glyph glyph-name="eight" unicode="8" horiz-adv-x="587" 
d="M408 378q90 -49 90 -152q0 -100 -77 -169.5t-175 -69.5q-84 0 -137.5 53t-53.5 135q0 76 45 128t105 76q-88 46 -88 155q0 102 77.5 165.5t171.5 63.5q80 0 132.5 -49t52.5 -129q0 -72 -42 -127t-101 -80zM254 46q67 0 119.5 52.5t52.5 120.5q0 55 -35.5 93.5t-91.5 38.5
q-67 0 -119.5 -52t-52.5 -121q0 -56 36 -94t91 -38zM313 408q65 0 114.5 49t49.5 117q0 56 -33.5 92.5t-87.5 36.5q-65 0 -116.5 -50.5t-51.5 -117.5q0 -53 34.5 -90t90.5 -37z" />
    <glyph glyph-name="nine" unicode="9" horiz-adv-x="587" 
d="M194 -17l-40 44q49 48 123 134.5t125 161.5q-43 -42 -122 -42q-85 0 -141 61.5t-56 151.5q0 110 82.5 189t195.5 79q96 0 150 -59t54 -141q0 -208 -371 -579zM298 342q80 0 137.5 62t57.5 143q0 66 -40 109t-105 43q-79 0 -135 -61t-56 -143q0 -65 37.5 -109t103.5 -44z
" />
    <glyph glyph-name="colon" unicode=":" horiz-adv-x="247" 
d="M134 49q0 -23 -18.5 -41t-42.5 -18q-18 0 -30.5 13.5t-12.5 31.5q0 25 18 43t42 18q20 0 32 -13t12 -34zM191 405q0 -24 -18 -41.5t-43 -17.5q-19 0 -31.5 13t-12.5 32q0 25 18.5 42.5t42.5 17.5q19 0 31.5 -13t12.5 -33z" />
    <glyph glyph-name="semicolon" unicode=";" horiz-adv-x="269" 
d="M210 406q0 -24 -18 -41.5t-44 -17.5q-18 0 -30 13t-12 31q0 25 17.5 42.5t41.5 17.5q21 0 33 -12.5t12 -32.5zM21 -106h-52l102 196h74z" />
    <glyph glyph-name="less" unicode="&#x3c;" horiz-adv-x="590" 
d="M446 64l-385 286l6 40l473 269l22 -56l-416 -233l339 -252z" />
    <glyph glyph-name="equal" unicode="=" horiz-adv-x="669" 
d="M568 215h-498l10 60h498zM604 440h-498l9 61h498z" />
    <glyph glyph-name="greater" unicode="&#x3e;" horiz-adv-x="590" 
d="M544 350l-473 -269l-21 56l415 233l-338 252l38 54l385 -286z" />
    <glyph glyph-name="question" unicode="?" horiz-adv-x="462" 
d="M372 328l30 -37q-22 -33 -79 -67.5t-115 -34.5q-56 0 -96.5 34.5t-40.5 95.5q0 41 21 76.5t52 58.5t67.5 47t67.5 43.5t52 47.5t21 59q0 29 -16.5 46.5t-46.5 17.5q-47 0 -106 -43l-21 43q75 58 147 58q55 0 82.5 -32.5t27.5 -80.5t-29 -88.5t-70.5 -68t-83 -53.5
t-70.5 -58t-29 -68q0 -34 23 -56.5t61 -22.5q43 0 85 26.5t66 56.5zM166 -10q-20 0 -32 13.5t-12 32.5q0 24 18 41.5t42 17.5q19 0 31 -13t12 -32q0 -24 -18 -42t-41 -18z" />
    <glyph glyph-name="at" unicode="@" horiz-adv-x="1016" 
d="M686 -150l11 -51q-116 -47 -228 -47q-183 0 -300 125.5t-117 312.5q0 150 77 281.5t207.5 210t280.5 78.5q89 0 159 -29t113 -78t65 -109.5t22 -128.5q0 -81 -31.5 -160t-87 -142t-139.5 -101.5t-182 -38.5q-115 0 -170 49t-55 121q0 80 58.5 142t154.5 62q77 0 130 -51
l10 61q8 49 -12 75.5t-90 26.5q-64 0 -136 -27l-16 46q82 38 163 38q99 0 130 -45.5t17 -134.5l-25 -158h-18q-13 44 -42.5 70.5t-56 34t-55.5 7.5q-68 0 -109 -40t-41 -94q0 -53 43 -90t132 -37q81 0 152 33.5t117.5 87t73 120.5t26.5 135q0 79 -33.5 145t-106.5 109.5
t-174 43.5q-131 0 -245.5 -69.5t-181.5 -186t-67 -248.5q0 -106 43.5 -194t130 -142.5t201.5 -54.5q111 0 202 42z" />
    <glyph glyph-name="A" unicode="A" horiz-adv-x="668" 
d="M624 0h-78l-53 202h-346l-117 -202h-79l462 780zM475 267l-79 312q-9 32 -10 45q-4 -17 -21 -45l-179 -312h289z" />
    <glyph glyph-name="B" unicode="B" horiz-adv-x="606" 
d="M240 0h-187l120 757h145q211 0 211 -151q0 -74 -44 -127t-101 -74q58 -9 103.5 -52.5t45.5 -124.5q0 -99 -76 -163.5t-217 -64.5zM192 421h58q90 0 146.5 46.5t56.5 120.5q0 104 -133 104h-85zM135 65h122q95 0 147 46t52 114q0 61 -40 96t-108 35h-127z" />
    <glyph glyph-name="C" unicode="C" horiz-adv-x="722" 
d="M619 129l26 -48q-114 -94 -257 -94q-147 0 -236.5 96.5t-89.5 246.5q0 122 60.5 224t162.5 159.5t220 57.5q151 0 232 -98l-48 -52q-64 84 -194 84q-146 0 -251.5 -108t-105.5 -263q0 -127 74 -205t191 -78q62 0 120.5 22t95.5 56z" />
    <glyph glyph-name="D" unicode="D" horiz-adv-x="718" 
d="M222 0h-169l120 757h168q150 0 242.5 -83.5t92.5 -244.5q0 -189 -125.5 -309t-328.5 -120zM135 65h86q165 0 272 95t107 261q0 137 -74.5 204t-197.5 67h-93z" />
    <glyph glyph-name="E" unicode="E" horiz-adv-x="544" 
d="M460 1h-407l120 755h376l-11 -64h-304l-40 -254h245l-10 -65h-245l-49 -308h335z" />
    <glyph glyph-name="F" unicode="F" horiz-adv-x="503" 
d="M125 0h-72l120 756h370l-10 -64h-298l-41 -256h240l-10 -64h-240z" />
    <glyph glyph-name="G" unicode="G" horiz-adv-x="809" 
d="M693 296h-196l10 65h272q-16 -100 -57 -175t-97.5 -117t-116.5 -62t-123 -20q-144 0 -233.5 95.5t-89.5 248.5q0 126 63 228t164.5 157t217.5 55q48 0 91 -10.5t69.5 -23.5t50 -31t31 -26t12.5 -15l-48 -53q-5 6 -12 13.5t-27 23t-42.5 27t-59.5 20.5t-77 9
q-151 0 -254 -110t-103 -260q0 -122 71 -203t185 -81q103 0 187 66t112 179z" />
    <glyph glyph-name="H" unicode="H" horiz-adv-x="738" 
d="M588 0h-72l56 353h-391l-56 -353h-72l120 757h72l-54 -339h391l54 339h72z" />
    <glyph glyph-name="I" unicode="I" horiz-adv-x="275" 
d="M125 0h-72l120 757h72z" />
    <glyph glyph-name="J" unicode="J" horiz-adv-x="274" 
d="M-107 -262l-17 64q65 25 99 53t54.5 78t35.5 144l108 680h71l-108 -685q-17 -107 -45 -168.5t-72 -96.5t-126 -69z" />
    <glyph glyph-name="K" unicode="K" horiz-adv-x="624" 
d="M593 0h-103l-310 350l-55 -350h-72l120 757h72l-53 -336l370 336h96l-414 -376z" />
    <glyph glyph-name="L" unicode="L" horiz-adv-x="496" 
d="M431 1h-378l120 756h72l-110 -692h306z" />
    <glyph glyph-name="M" unicode="M" horiz-adv-x="933" 
d="M818 0h-76l36 516q0 16 4 32q-2 -2 -8.5 -13.5t-7.5 -13.5l-352 -548l-183 548q-5 13 -8 27q0 -5 -6 -32l-125 -516h-75l203 778l210 -609q9 -27 8 -37q8 21 19 37l404 609z" />
    <glyph glyph-name="N" unicode="N" horiz-adv-x="822" 
d="M669 -25l-452 616l-93 -591h-72l123 776l452 -618l95 599h72z" />
    <glyph glyph-name="O" unicode="O" horiz-adv-x="873" 
d="M391 -13q-146 0 -238 96.5t-92 247.5q0 123 64 225.5t166 158.5t216 56q148 0 237.5 -95t89.5 -246q0 -95 -38.5 -179.5t-100.5 -141t-142 -89.5t-162 -33zM400 51q90 0 172.5 49t134 136.5t51.5 188.5q0 123 -72.5 201.5t-188.5 78.5q-90 0 -173 -48.5t-134.5 -134
t-51.5 -184.5q0 -120 72 -203.5t190 -83.5z" />
    <glyph glyph-name="P" unicode="P" horiz-adv-x="550" 
d="M125 0h-72l120 757h145q100 0 165.5 -45t65.5 -149q0 -111 -78 -188t-227 -77h-72zM182 363h61q104 0 166 53.5t62 138.5q0 69 -40 103t-105 34h-91z" />
    <glyph glyph-name="Q" unicode="Q" horiz-adv-x="874" 
d="M770 -39l-61 -55l-120 134q-95 -53 -201 -53q-143 0 -234.5 98t-91.5 247q0 122 63.5 224t166 158.5t216.5 56.5q148 0 237.5 -95t89.5 -246q0 -112 -50.5 -203t-134.5 -149zM401 51q90 0 173 49.5t134.5 137t51.5 188.5q0 122 -73 200.5t-189 78.5q-140 0 -249.5 -108
t-109.5 -259q0 -121 71.5 -204t190.5 -83z" />
    <glyph glyph-name="R" unicode="R" horiz-adv-x="583" 
d="M553 0h-97l-236 300h-47l-48 -300h-72l120 757h141q45 0 83 -8.5t74 -28.5t57 -59.5t21 -95.5q0 -103 -67 -175.5t-179 -86.5zM182 363h56q115 0 174.5 56.5t59.5 138.5q0 134 -157 134h-80z" />
    <glyph glyph-name="S" unicode="S" 
d="M1 86l50 52q21 -32 63 -59t103 -27q76 0 126 44.5t50 116.5q0 50 -28.5 85.5t-68.5 58.5t-80.5 47t-69 65.5t-28.5 98.5q0 66 36 114t88.5 69.5t111.5 21.5q66 0 108.5 -24.5t61.5 -51.5l-47 -51q-50 62 -126 62q-62 0 -109 -36t-47 -96q0 -43 28.5 -75t69 -54.5
t81 -47.5t69 -68.5t28.5 -103.5q0 -104 -75.5 -172t-185.5 -68q-75 0 -131.5 30.5t-77.5 68.5z" />
    <glyph glyph-name="T" unicode="T" horiz-adv-x="530" 
d="M251 0h-72l110 692h-209l10 64h490l-10 -64h-209z" />
    <glyph glyph-name="U" unicode="U" horiz-adv-x="728" 
d="M528 109l103 648h72l-107 -673q-43 -44 -117 -70.5t-159 -26.5q-135 0 -193.5 72.5t-36.5 214.5l76 483h73l-72 -453q-22 -137 17 -195t153 -58q124 0 191 58z" />
    <glyph glyph-name="V" unicode="V" horiz-adv-x="620" 
d="M253 -31l-185 788h83l130 -584q2 -7 -1 -36q8 28 12 36l315 584h85z" />
    <glyph glyph-name="W" unicode="W" horiz-adv-x="975" 
d="M662 -30l-130 567q-5 23 -4 44q-5 -22 -17 -44l-305 -566l-128 786h79l84 -563q2 -8 -1 -36q8 28 12 36l307 587l126 -586q2 -2 0.5 -20t-1.5 -20q6 25 13 40l258 562h79z" />
    <glyph glyph-name="X" unicode="X" horiz-adv-x="609" 
d="M544 0h-86l-150 326l-258 -326h-85l312 393l-174 364h86l139 -305l241 305h87l-296 -369z" />
    <glyph glyph-name="Y" unicode="Y" horiz-adv-x="545" 
d="M257 0h-72l52 327l-172 430h80l135 -350q3 -8 2 -16q2 7 9 16l252 350h78l-312 -430z" />
    <glyph glyph-name="Z" unicode="Z" horiz-adv-x="577" 
d="M497 1h-537l517 691h-336l11 64h459l-518 -691h414z" />
    <glyph glyph-name="bracketleft" unicode="[" horiz-adv-x="292" 
d="M171 -215h-168l164 1035h168l-9 -57h-108l-146 -924h108z" />
    <glyph glyph-name="backslash" unicode="\" horiz-adv-x="519" 
d="M401 -196l-56 -19l-228 1012l57 23z" />
    <glyph glyph-name="bracketright" unicode="]" horiz-adv-x="291" 
d="M124 -215h-167l9 57h106l147 924h-107l8 54h168z" />
    <glyph glyph-name="asciicircum" unicode="^" horiz-adv-x="607" 
d="M592 410h-77l-95 327l-200 -327h-76l257 404h62z" />
    <glyph glyph-name="underscore" unicode="_" horiz-adv-x="588" 
d="M478 -28h-470l9 56h470z" />
    <glyph glyph-name="grave" unicode="`" horiz-adv-x="312" 
d="M349 610l-43 -27l-126 145l67 45z" />
    <glyph glyph-name="a" unicode="a" horiz-adv-x="497" 
d="M331 83l20 125q-46 57 -124 57q-57 0 -102.5 -31.5t-45.5 -91.5q0 -48 32 -74t87 -26q78 0 133 41zM433 313l-41 -258q-78 -67 -206 -67q-90 0 -133.5 41.5t-43.5 105.5q0 60 37 103.5t84.5 61.5t95.5 18q38 0 75.5 -13.5t57.5 -40.5l11 67q8 48 -17 77t-89 29
q-67 0 -133 -29l-17 50q79 36 160 36q188 0 159 -181z" />
    <glyph glyph-name="b" unicode="b" horiz-adv-x="566" 
d="M34 52l122 768h66l-63 -393q82 67 175 67q86 0 132 -58.5t46 -153.5q0 -71 -26 -128.5t-69 -92.5t-95.5 -54t-107.5 -19q-109 0 -180 64zM149 360l-44 -276q17 -16 50.5 -28t71.5 -12q87 0 150.5 64t63.5 168q0 75 -34.5 117.5t-92.5 42.5q-45 0 -91.5 -23t-73.5 -53z
" />
    <glyph glyph-name="c" unicode="c" horiz-adv-x="501" 
d="M408 107l25 -39q-33 -38 -85.5 -59t-107.5 -21q-95 0 -150.5 59.5t-55.5 159.5q0 126 83.5 206.5t197.5 80.5q101 0 158 -65l-42 -44q-10 15 -42 33t-77 18q-79 0 -144 -61t-65 -163q0 -79 41.5 -123t113.5 -44q86 0 150 62z" />
    <glyph glyph-name="d" unicode="d" horiz-adv-x="564" 
d="M390 85l44 282q-14 31 -49.5 50t-81.5 19q-86 0 -143 -66t-57 -162q0 -81 43 -122.5t111 -41.5q72 0 133 41zM446 442l60 378h66l-122 -768q-93 -64 -202 -64q-93 0 -154 53t-61 161q0 125 80.5 208.5t195.5 83.5q88 0 137 -52z" />
    <glyph glyph-name="e" unicode="e" horiz-adv-x="532" 
d="M413 107l24 -40q-27 -33 -82.5 -56t-117.5 -23q-96 0 -150.5 57.5t-54.5 155.5q0 122 80 207.5t195 85.5q71 0 115 -36t57 -89t2 -115l-3 -18h-375q-15 -92 24.5 -142t124.5 -50q98 0 161 63zM114 289h304q5 62 -24.5 105t-93.5 43q-60 0 -113 -39.5t-73 -108.5z" />
    <glyph glyph-name="f" unicode="f" horiz-adv-x="309" 
d="M124 0h-66l67 423h-77l9 57h77l21 134q15 101 60 152q46 52 123 52q57 0 87 -26l-36 -56q-34 21 -60 21q-84 0 -106 -136l-23 -141h115l-9 -57h-115z" />
    <glyph glyph-name="g" unicode="g" horiz-adv-x="563" 
d="M370 -31l15 96q-33 -35 -78.5 -56t-91.5 -21q-75 0 -128 57.5t-53 160.5q0 91 44.5 158t111 98.5t142.5 31.5q111 0 177 -61l-73 -459q-37 -236 -249 -236q-111 0 -181 56l37 51q59 -49 151 -49q149 0 176 173zM396 134l42 266q-50 36 -116 36q-87 0 -152 -60t-65 -163
q0 -73 35.5 -120t96.5 -47q46 0 89.5 25.5t69.5 62.5z" />
    <glyph glyph-name="h" unicode="h" horiz-adv-x="535" 
d="M414 0h-66l45 284q12 77 -4 112.5t-83 35.5q-82 0 -154 -64l-58 -368h-66l130 820h66l-62 -390q82 64 168 64q77 0 113 -44.5t21 -134.5z" />
    <glyph glyph-name="i" unicode="i" horiz-adv-x="226" 
d="M98 0h-66l76 481h66zM216 635q0 -24 -17.5 -41t-41.5 -17q-18 0 -30 12.5t-12 31.5q0 24 18 41t41 17q19 0 30.5 -12t11.5 -32z" />
    <glyph glyph-name="j" unicode="j" horiz-adv-x="227" 
d="M-78 -267l-19 53q21 9 34 14.5t26 16t20 16.5t14.5 23.5t11.5 28t10 39.5t9 48.5t10 64.5l70 444h67l-70 -440q-25 -159 -55.5 -214t-127.5 -94zM157 577q-19 0 -30.5 12.5t-11.5 30.5q0 25 17 42t42 17q18 0 29.5 -12.5t11.5 -31.5q0 -24 -17.5 -41t-40.5 -17z" />
    <glyph glyph-name="k" unicode="k" horiz-adv-x="454" 
d="M409 0h-79l-196 245l-40 -245h-66l130 820h66l-84 -533l205 194h86l-235 -215z" />
    <glyph glyph-name="l" unicode="l" horiz-adv-x="231" 
d="M100 0h-66l130 820h66z" />
    <glyph glyph-name="m" unicode="m" horiz-adv-x="806" 
d="M685 0h-66l50 314q10 62 -6.5 90t-68.5 28q-79 0 -149 -65q0 -14 -4 -44l-51 -323h-66l50 315q10 63 -8 90t-68 27q-75 0 -146 -63l-58 -369h-66l76 481h66l-8 -51q81 64 163 64q85 0 112 -74q88 74 183 74q68 0 99 -43.5t17 -130.5z" />
    <glyph glyph-name="n" unicode="n" horiz-adv-x="535" 
d="M414 0h-66l45 284q12 77 -4 112.5t-83 35.5q-82 0 -154 -64l-58 -368h-66l76 481h66l-8 -51q82 64 168 64q77 0 113 -44.5t21 -134.5z" />
    <glyph glyph-name="o" unicode="o" horiz-adv-x="583" 
d="M245 -12q-95 0 -153.5 61t-58.5 161q0 124 85.5 204t199.5 80q98 0 154.5 -62.5t56.5 -159.5q0 -123 -85.5 -203.5t-198.5 -80.5zM255 45q82 0 142.5 64t60.5 158q0 75 -41 122t-109 47q-84 0 -145.5 -66t-61.5 -158q0 -74 43 -120.5t111 -46.5z" />
    <glyph glyph-name="p" unicode="p" horiz-adv-x="564" 
d="M51 -254h-65l108 685q94 63 202 63q93 0 153.5 -55.5t60.5 -161.5q0 -120 -75.5 -204.5t-185.5 -84.5q-96 0 -149 64zM154 395l-43 -270q17 -34 55 -57t83 -23q76 0 133 63t57 158q0 80 -42 124.5t-112 44.5q-74 0 -131 -40z" />
    <glyph glyph-name="q" unicode="q" horiz-adv-x="567" 
d="M404 -254h-66l49 310q-30 -29 -76.5 -48t-94.5 -19q-82 0 -132.5 57.5t-50.5 156.5q0 70 27.5 127.5t72 92t97.5 53t108 18.5q97 0 175 -63zM399 131l42 264q-42 40 -113 40q-95 0 -160 -67t-65 -163q0 -74 40 -117t97 -43q44 0 88 24.5t71 61.5z" />
    <glyph glyph-name="r" unicode="r" horiz-adv-x="332" 
d="M94 0h-66l76 481h66l-11 -69q11 23 44 52.5t67 29.5q42 0 75 -22l-40 -63q-26 20 -51 20q-38 0 -70.5 -36t-38.5 -71z" />
    <glyph glyph-name="s" unicode="s" horiz-adv-x="398" 
d="M-9 57l39 46q43 -62 118 -62q52 0 81.5 28.5t29.5 67.5q0 29 -19 51t-46 37t-54.5 31t-46.5 42.5t-19 61.5q0 59 46 97t115 38q47 0 81 -17t50 -39l-37 -48q-6 9 -16 19t-33 20.5t-49 10.5q-43 0 -65.5 -24t-22.5 -52q0 -23 19 -40.5t46.5 -31.5t54.5 -30.5t46 -46
t19 -68.5q0 -70 -53 -115.5t-133 -45.5q-56 0 -94 21t-57 49z" />
    <glyph glyph-name="t" unicode="t" horiz-adv-x="302" 
d="M126 0h-66l67 423h-85l9 57h85l27 172h66l-27 -172h111l-9 -57h-111z" />
    <glyph glyph-name="u" unicode="u" 
d="M359 83l63 398h66l-67 -427q-79 -66 -199 -66q-92 0 -138.5 46t-32.5 138l49 309h67l-47 -294q-12 -74 13.5 -108t94.5 -34q75 0 131 38z" />
    <glyph glyph-name="v" unicode="v" horiz-adv-x="457" 
d="M187 -16h-20l-131 497h72l75 -302q13 -53 13 -78h1q18 46 36 77l169 303h74z" />
    <glyph glyph-name="w" unicode="w" horiz-adv-x="699" 
d="M450 -16h-19l-78 350l-189 -350h-19l-106 497h72l71 -353l195 366h8l77 -366l184 353h70z" />
    <glyph glyph-name="x" unicode="x" horiz-adv-x="468" 
d="M407 0h-78l-109 206l-177 -206h-76l221 261l-121 220h79l89 -171l146 171h76l-192 -224z" />
    <glyph glyph-name="y" unicode="y" horiz-adv-x="480" 
d="M30 -258h-75l201 311l-120 428h74l95 -360l219 360h77z" />
    <glyph glyph-name="z" unicode="z" horiz-adv-x="445" 
d="M357 1h-389l350 422h-238l9 57h353l-347 -422h271z" />
    <glyph glyph-name="braceleft" unicode="{" horiz-adv-x="314" 
d="M203 -162l-20 -48q-79 6 -103 54.5t-10 134.5l22 139q11 68 -1.5 112.5t-59.5 74.5q56 30 83 74t38 113l22 140q14 87 53 135t120 54l4 -48q-28 -4 -48 -15.5t-31 -23t-19.5 -37t-11 -40.5l-8.5 -51l-20 -127q-9 -58 -30 -97.5t-64 -76.5q32 -37 40 -77.5t-2 -96.5
l-20 -127q-13 -83 -9 -107q9 -49 75 -59z" />
    <glyph glyph-name="bar" unicode="|" horiz-adv-x="230" 
d="M56 -259h-60l170 1079h61z" />
    <glyph glyph-name="braceright" unicode="}" horiz-adv-x="311" 
d="M-33 -210l-4 48q33 5 54 16.5t33 34.5t16.5 41t10.5 56l3 18l21 127q10 60 30 98.5t64 75.5q-32 37 -40.5 77.5t1.5 96.5l20 127q5 31 6.5 43t3 35.5t-2.5 33.5t-12 24t-23 20.5t-38 10.5l20 48q79 -6 103 -54.5t10 -134.5l-22 -140q-11 -68 1.5 -112.5t59.5 -74.5
q-56 -30 -82.5 -74t-37.5 -113l-23 -139q-14 -87 -53 -135t-119 -54z" />
    <glyph glyph-name="asciitilde" unicode="~" horiz-adv-x="554" 
d="M505 554l22 -49q-23 -20 -63 -39.5t-79 -19.5q-25 0 -75.5 26t-79.5 26q-43 0 -118 -48l-24 47q26 22 70.5 43t79.5 21q31 0 82 -26.5t72 -26.5q49 0 113 46z" />
    <glyph glyph-name="exclamdown" unicode="&#xa1;" horiz-adv-x="255" 
d="M90 -210h-92l116 559h47zM149 450q-21 0 -33 13t-12 34q0 24 18.5 42.5t43.5 18.5q18 0 30.5 -13.5t12.5 -32.5q0 -25 -18 -43.5t-42 -18.5z" />
    <glyph glyph-name="cent" unicode="&#xa2;" horiz-adv-x="547" 
d="M269 -12h-49l21 131q-77 11 -123 69t-46 143q0 121 71.5 197.5t177.5 90.5l21 140h49l-21 -138q54 -4 93.5 -28.5t51.5 -44.5l-41 -43q-48 53 -114 56l-61 -388q82 0 150 64l26 -37q-66 -77 -185 -82zM250 177l60 379q-68 -14 -118.5 -71.5t-50.5 -149.5
q0 -63 30.5 -104.5t78.5 -53.5z" />
    <glyph glyph-name="sterling" unicode="&#xa3;" horiz-adv-x="584" 
d="M490 54l-2 -58q-53 -14 -89 -14q-45 0 -103 14.5t-83 14.5q-33 0 -81 -12t-75 -22t-39 -16l-12 53q4 2 24 10t54 19.5t62 17.5l37 229h-71l9 56h71l29 183q19 121 62 169.5t124 48.5q50 0 86 -26l-40 -55q-30 19 -60 19q-49 0 -70.5 -35.5t-32.5 -107.5l-31 -196h131
l-9 -56h-131l-35 -221q28 0 49 -3q7 -1 54 -14t96 -13q14 0 27 2.5t29 7t20 5.5z" />
    <glyph glyph-name="currency" unicode="&#xa4;" horiz-adv-x="680" 
d="M573 147l-54 -39l-62 75q-74 -49 -145 -49q-75 0 -129 49l-87 -76l-38 40l86 77q-30 55 -30 116q0 94 75 174l-61 80l50 40l64 -79q72 52 145 52q76 0 129 -51l87 78l42 -40l-88 -80q28 -44 28 -109q0 -100 -77 -180zM322 197q73 0 134.5 60t61.5 137q0 64 -41 107
t-100 43q-72 0 -133.5 -58.5t-61.5 -136.5q0 -63 41 -107.5t99 -44.5z" />
    <glyph glyph-name="yen" unicode="&#xa5;" horiz-adv-x="660" 
d="M527 156h-186l-25 -156h-72l25 156h-197l8 50h197l12 79h-197l8 50h192l-168 422h80l135 -349q3 -8 2 -18q2 7 9 18l252 349h78l-306 -422h181l-8 -50h-186l-12 -79h186z" />
    <glyph glyph-name="brokenbar" unicode="&#xa6;" horiz-adv-x="240" 
d="M61 -259h-61l70 438h61zM163 381h-61l69 439h61z" />
    <glyph glyph-name="section" unicode="&#xa7;" horiz-adv-x="541" 
d="M299 -127l-237 527q20 39 79.5 77.5t97.5 47.5l-61 140q13 31 126 82.5t192 52.5l-29 -73q-40 0 -120 -21t-98 -31l219 -497q-20 -39 -77 -76.5t-96 -47.5l75 -170q-11 -23 -69.5 -58t-134 -61.5t-127.5 -26.5l32 73q40 0 125 25.5t103 36.5zM395 162l-133 308
q-57 0 -128 -54l136 -307q26 0 66 17t59 36z" />
    <glyph glyph-name="dieresis" unicode="&#xa8;" horiz-adv-x="337" 
d="M213 641q0 -21 -16 -36t-39 -15q-16 0 -27.5 11.5t-11.5 28.5q0 21 17 36.5t37 15.5q18 0 29 -11.5t11 -29.5zM429 642q0 -22 -16 -37t-40 -15q-17 0 -27 11t-10 28q0 21 15.5 37t36.5 16q19 0 30 -11.5t11 -28.5z" />
    <glyph glyph-name="copyright" unicode="&#xa9;" horiz-adv-x="881" 
d="M401 36q95 0 181.5 52.5t139.5 143.5t53 195q0 125 -75.5 208t-196.5 83q-147 0 -261 -115.5t-114 -273.5q0 -125 75.5 -209t197.5 -84zM393 -16q-142 0 -232 97.5t-90 241.5q0 119 63 223t164.5 164.5t212.5 60.5q142 0 231.5 -97t89.5 -241q0 -89 -37 -172.5
t-97.5 -144t-141 -96.5t-163.5 -36zM584 236l21 -44q-69 -54 -167 -54q-101 0 -159.5 58t-58.5 151q0 114 83 194.5t203 80.5q99 0 156 -59l-42 -46q-38 46 -122 46q-92 0 -150 -61t-58 -147q0 -71 42 -115t118 -44q83 0 134 40z" />
    <glyph glyph-name="ordfeminine" unicode="&#xaa;" horiz-adv-x="419" 
d="M314 456l12 79q-30 34 -83 34q-39 0 -70 -19t-31 -56q0 -30 22 -46.5t60 -16.5q51 0 90 25zM401 608l-28 -176q-60 -48 -159 -48q-70 0 -103 29.5t-33 76.5q0 61 48 92.5t114 31.5q53 0 94 -30l7 42q5 29 -13 46.5t-63 17.5t-98 -19l-14 40q61 26 124 26q144 0 124 -129z
" />
    <glyph glyph-name="guillemotleft" unicode="&#xab;" horiz-adv-x="483" 
d="M201 25h-67l-93 210l156 210h66l-159 -210zM386 25h-67l-93 210l155 210h67l-160 -210z" />
    <glyph glyph-name="logicalnot" unicode="&#xac;" horiz-adv-x="668" 
d="M547 109h-66l36 228h-432l9 57h498z" />
    <glyph glyph-name="registered" unicode="&#xae;" horiz-adv-x="688" 
d="M330 215q-98 0 -162.5 71t-64.5 173q0 126 96.5 220.5t219.5 94.5q97 0 161.5 -69.5t64.5 -171.5q0 -127 -96.5 -222.5t-218.5 -95.5zM338 262q98 0 178.5 80.5t80.5 183.5q0 84 -53.5 143t-132.5 59q-99 0 -178.5 -79.5t-79.5 -183.5q0 -84 53 -143.5t132 -59.5z
M499 344h-62l-102 124l-14 17l-22 -141h-46l50 319h78q49 0 82 -20t33 -62q0 -46 -30.5 -75.5t-85.5 -29.5zM324 504h27q48 0 73.5 19t25.5 51q0 22 -18 35t-49 13h-40z" />
    <glyph glyph-name="macron" unicode="&#xaf;" horiz-adv-x="499" 
d="M517 591h-347l9 58h347z" />
    <glyph glyph-name="degree" unicode="&#xb0;" horiz-adv-x="398" 
d="M397 639q0 -68 -52 -118t-120 -50q-56 0 -91 36.5t-35 91.5q0 69 52 119.5t121 50.5q55 0 90 -37t35 -93zM234 524q40 0 70.5 32.5t30.5 77.5q0 35 -19.5 58t-51.5 23q-41 0 -71 -32.5t-30 -78.5q0 -34 19.5 -57t51.5 -23z" />
    <glyph glyph-name="plusminus" unicode="&#xb1;" horiz-adv-x="652" 
d="M586 353h-216l-37 -230h-66l37 230h-216l9 60h216l37 230h66l-37 -230h216zM530 1h-498l9 59h498z" />
    <glyph glyph-name="twosuperior" unicode="&#xb2;" horiz-adv-x="391" 
d="M360 347h-331q8 6 58 41t81.5 60t73 62.5t63.5 73.5t22 67q0 27 -18.5 46t-46.5 19q-54 0 -101 -45l-24 40q71 56 140 56q53 0 84 -31t31 -77q0 -123 -226 -262l202 2z" />
    <glyph glyph-name="threesuperior" unicode="&#xb3;" horiz-adv-x="359" 
d="M273 577v-1q70 -27 70 -102q0 -54 -51.5 -95.5t-130.5 -41.5q-48 0 -80 15t-45 30l35 45q9 -12 36 -24.5t62 -12.5q52 0 81.5 25.5t29.5 59.5q0 35 -32 58t-88 23l5 34q56 0 92 23.5t36 54.5q0 21 -16.5 34t-46.5 13q-44 0 -79 -23l-14 45q13 11 45.5 21t66.5 10
q51 0 80 -26t29 -61q0 -69 -85 -104z" />
    <glyph glyph-name="acute" unicode="&#xb4;" horiz-adv-x="318" 
d="M369 728l-172 -145l-35 27l155 163z" />
    <glyph glyph-name="paragraph" unicode="&#xb6;" horiz-adv-x="540" 
d="M373 754l-79 -495q-104 0 -160.5 60t-56.5 146q0 67 37.5 133.5t107 111t151.5 44.5zM351 -164h-68l146 921h68z" />
    <glyph glyph-name="periodcentered" unicode="&#xb7;" horiz-adv-x="237" 
d="M181 384q0 -23 -18.5 -41t-43.5 -18q-19 0 -31.5 13.5t-12.5 31.5q0 24 18.5 41.5t42.5 17.5q19 0 32 -13t13 -32z" />
    <glyph glyph-name="cedilla" unicode="&#xb8;" horiz-adv-x="556" 
d="M274 -202h-64l101 164h74z" />
    <glyph glyph-name="onesuperior" unicode="&#xb9;" horiz-adv-x="238" 
d="M180 345h-64l55 348l-75 -30l-14 49l165 59z" />
    <glyph glyph-name="ordmasculine" unicode="&#xba;" horiz-adv-x="470" 
d="M461 580q0 -84 -63 -140t-148 -56q-73 0 -117.5 43.5t-44.5 112.5q0 85 63.5 141t148.5 56q73 0 117 -44.5t44 -112.5zM258 434q56 0 96.5 41.5t40.5 100.5q0 49 -28 80t-74 31q-56 0 -98 -43t-42 -102q0 -48 29 -78t76 -30z" />
    <glyph glyph-name="guillemotright" unicode="&#xbb;" horiz-adv-x="477" 
d="M74 25h-66l163 210l-92 210h65l89 -210zM257 25h-65l162 210l-92 210h66l86 -210z" />
    <glyph glyph-name="onequarter" unicode="&#xbc;" horiz-adv-x="728" 
d="M559 -4h-62l13 84h-221l7 44l285 290h44l-45 -283h63l-8 -51h-63zM138 -3l-42 19l461 747l41 -20zM212 345h-64l55 348l-75 -30l-14 49l166 59zM520 129l31 196l-186 -196h155z" />
    <glyph glyph-name="onehalf" unicode="&#xbd;" horiz-adv-x="760" 
d="M138 -3l-42 19l461 747l41 -20zM212 345h-64l55 348l-75 -30l-14 49l166 59zM653 0h-330q8 6 58 41t81.5 60t73 62.5t63.5 73.5t22 67q0 28 -18 46.5t-47 18.5q-55 0 -100 -45l-25 40q71 56 139 56q53 0 85 -31t32 -78q0 -121 -227 -261l202 2z" />
    <glyph glyph-name="threequarters" unicode="&#xbe;" horiz-adv-x="829" 
d="M662 -4h-62l13 84h-221l7 44l285 290h44l-45 -283h63l-8 -51h-63zM299 577v-1q70 -27 70 -102q0 -54 -51.5 -95.5t-130.5 -41.5q-48 0 -80 15t-45 30l35 45q9 -12 36 -24.5t62 -12.5q52 0 81.5 25.5t29.5 59.5q0 35 -32 58t-88 23l5 34q56 0 92 23.5t36 54.5
q0 21 -16.5 34t-46.5 13q-44 0 -79 -23l-14 45q13 11 45.5 21t66.5 10q51 0 80 -26t29 -61q0 -69 -85 -104zM240 -3l-41 19l461 747l41 -20zM623 129l31 196l-186 -196h155z" />
    <glyph glyph-name="questiondown" unicode="&#xbf;" horiz-adv-x="449" 
d="M260 -145l21 -43q-72 -58 -147 -58q-55 0 -82.5 32.5t-27.5 80.5t29 87.5t70.5 67.5t83.5 54t71 57.5t29 67.5q0 34 -23 57t-61 23q-42 0 -84.5 -26.5t-67.5 -56.5l-30 37q23 34 80 68t115 34q56 0 96 -34.5t40 -95.5q0 -49 -29 -89t-70 -66.5t-82 -51.5t-70 -56.5
t-29 -68.5q0 -29 16 -46t46 -17q47 0 106 43zM322 491q0 -24 -18.5 -42t-42.5 -18q-19 0 -31 13t-12 32q0 24 18 42.5t42 18.5q20 0 32 -13.5t12 -32.5z" />
    <glyph glyph-name="Agrave" unicode="&#xc0;" horiz-adv-x="668" 
d="M624 0h-78l-53 202h-346l-117 -202h-79l462 780zM475 267l-79 312q-9 32 -10 45q-4 -17 -21 -45l-179 -312h289zM513 838l-246 45l44 66l230 -64z" />
    <glyph glyph-name="Aacute" unicode="&#xc1;" horiz-adv-x="668" 
d="M624 0h-78l-53 202h-346l-117 -202h-79l462 780zM475 267l-79 312q-9 32 -10 45q-4 -17 -21 -45l-179 -312h289zM530 883l-259 -45l-14 47l250 64z" />
    <glyph glyph-name="Acircumflex" unicode="&#xc2;" horiz-adv-x="668" 
d="M624 0h-78l-53 202h-346l-117 -202h-79l462 780zM475 267l-79 312q-9 32 -10 45q-4 -17 -21 -45l-179 -312h289zM591 850l-41 -35l-135 61l-161 -68l-23 37l196 102z" />
    <glyph glyph-name="Atilde" unicode="&#xc3;" horiz-adv-x="668" 
d="M624 0h-78l-53 202h-346l-117 -202h-79l462 780zM475 267l-79 312q-9 32 -10 45q-4 -17 -21 -45l-179 -312h289zM577 943l25 -46q-24 -23 -60 -45t-67 -22q-20 0 -55 24t-57 24q-30 0 -91 -49l-24 41q22 22 61.5 45t67.5 23q23 0 58.5 -24t51.5 -24q23 0 49 18t41 35z
" />
    <glyph glyph-name="Adieresis" unicode="&#xc4;" horiz-adv-x="668" 
d="M624 0h-78l-53 202h-346l-117 -202h-79l462 780zM475 267l-79 312q-9 32 -10 45q-4 -17 -21 -45l-179 -312h289zM592 901q0 -22 -17 -38t-41 -16q-18 0 -29 12t-11 29q0 22 16 38t39 16q20 0 31.5 -11.5t11.5 -29.5zM341 900q0 -21 -17 -37t-41 -16q-17 0 -29 12.5
t-12 29.5q0 21 17.5 37t38.5 16q19 0 31 -12t12 -30z" />
    <glyph glyph-name="Aring" unicode="&#xc5;" horiz-adv-x="668" 
d="M624 0h-78l-53 202h-346l-117 -202h-79l462 780zM475 267l-79 312q-9 32 -10 45q-4 -17 -21 -45l-179 -312h289zM540 925q0 -49 -37.5 -85.5t-86.5 -36.5q-40 0 -65 26.5t-25 66.5q0 51 37.5 87.5t87.5 36.5q38 0 63.5 -27.5t25.5 -67.5zM424 847q26 0 48.5 23t22.5 51
q0 24 -14 40t-36 16q-27 0 -49 -22t-22 -51q0 -24 14 -40.5t36 -16.5z" />
    <glyph glyph-name="AE" unicode="&#xc6;" horiz-adv-x="884" 
d="M799 1h-406l35 217h-239l-160 -218h-83l557 756h386l-10 -64h-304l-41 -254h245l-10 -65h-245l-49 -308h334zM438 281l57 363l-258 -363h201z" />
    <glyph glyph-name="Ccedilla" unicode="&#xc7;" horiz-adv-x="722" 
d="M294 -230h-64l100 164h75zM619 129l26 -48q-114 -94 -257 -94q-147 0 -236.5 96.5t-89.5 246.5q0 122 60.5 224t162.5 159.5t220 57.5q151 0 232 -98l-48 -52q-64 84 -194 84q-146 0 -251.5 -108t-105.5 -263q0 -127 74 -205t191 -78q62 0 120.5 22t95.5 56z" />
    <glyph glyph-name="Egrave" unicode="&#xc8;" horiz-adv-x="544" 
d="M492 838l-249 35l44 68l232 -54zM460 1h-407l120 755h376l-11 -64h-304l-40 -254h245l-10 -65h-245l-49 -308h335z" />
    <glyph glyph-name="Eacute" unicode="&#xc9;" horiz-adv-x="544" 
d="M516 883l-260 -45l-14 47l251 64zM460 1h-407l120 755h376l-11 -64h-304l-40 -254h245l-10 -65h-245l-49 -308h335z" />
    <glyph glyph-name="Ecircumflex" unicode="&#xca;" horiz-adv-x="544" 
d="M559 852l-40 -37l-136 66l-161 -73l-22 38l195 104zM460 1h-407l120 755h376l-11 -64h-304l-40 -254h245l-10 -65h-245l-49 -308h335z" />
    <glyph glyph-name="Edieresis" unicode="&#xcb;" horiz-adv-x="544" 
d="M306 884q0 -22 -16.5 -37.5t-39.5 -15.5q-16 0 -27 11.5t-11 28.5q0 22 16.5 38.5t37.5 16.5q18 0 29 -12t11 -30zM552 885q0 -22 -16.5 -37.5t-38.5 -15.5q-17 0 -28 11.5t-11 27.5q0 23 15.5 39t38.5 16q18 0 29 -11.5t11 -29.5zM460 1h-407l120 755h376l-11 -64h-304
l-40 -254h245l-10 -65h-245l-49 -308h335z" />
    <glyph glyph-name="Igrave" unicode="&#xcc;" horiz-adv-x="275" 
d="M313 835l-199 36l44 68l184 -55zM125 0h-72l120 757h72z" />
    <glyph glyph-name="Iacute" unicode="&#xcd;" horiz-adv-x="275" 
d="M340 871l-211 -36l-13 49l202 55zM125 0h-72l120 757h72z" />
    <glyph glyph-name="Icircumflex" unicode="&#xce;" horiz-adv-x="275" 
d="M125 0h-72l120 757h72zM351 850l-40 -36l-83 61l-108 -69l-23 38l142 108h1z" />
    <glyph glyph-name="Idieresis" unicode="&#xcf;" horiz-adv-x="275" 
d="M203 859q0 -22 -17 -37.5t-40 -15.5q-16 0 -27.5 12t-11.5 29q0 22 17 38t37 16q19 0 30.5 -12t11.5 -30zM346 860q0 -22 -16.5 -38t-40.5 -16q-18 0 -28.5 11.5t-10.5 28.5q0 23 15.5 39t38.5 16q19 0 30.5 -11.5t11.5 -29.5zM125 0h-72l120 757h72z" />
    <glyph glyph-name="Eth" unicode="&#xd0;" horiz-adv-x="719" 
d="M223 0h-169l55 348h-74l9 58h74l56 351h168q150 0 242.5 -83.5t92.5 -244.5q0 -189 -125.5 -309t-328.5 -120zM136 65h86q165 0 272 95t107 261q0 137 -74.5 204t-197.5 67h-93l-46 -286h193l-9 -58h-193z" />
    <glyph glyph-name="Ntilde" unicode="&#xd1;" horiz-adv-x="822" 
d="M649 943l24 -46q-23 -23 -59 -45t-68 -22q-19 0 -54.5 24t-57.5 24q-27 0 -91 -49l-25 41q23 22 62.5 45t67.5 23q24 0 59.5 -24t51.5 -24q37 0 90 53zM669 -25l-452 616l-93 -591h-72l123 776l452 -618l95 599h72z" />
    <glyph glyph-name="Ograve" unicode="&#xd2;" horiz-adv-x="873" 
d="M606 838l-246 45l44 66l230 -64zM391 -13q-146 0 -238 96.5t-92 247.5q0 123 64 225.5t166 158.5t216 56q148 0 237.5 -95t89.5 -246q0 -95 -38.5 -179.5t-100.5 -141t-142 -89.5t-162 -33zM400 51q90 0 172.5 49t134 136.5t51.5 188.5q0 123 -72.5 201.5t-188.5 78.5
q-90 0 -173 -48.5t-134.5 -134t-51.5 -184.5q0 -120 72 -203.5t190 -83.5z" />
    <glyph glyph-name="Oacute" unicode="&#xd3;" horiz-adv-x="873" 
d="M659 883l-259 -45l-15 47l252 64zM391 -13q-146 0 -238 96.5t-92 247.5q0 123 64 225.5t166 158.5t216 56q148 0 237.5 -95t89.5 -246q0 -95 -38.5 -179.5t-100.5 -141t-142 -89.5t-162 -33zM400 51q90 0 172.5 49t134 136.5t51.5 188.5q0 123 -72.5 201.5t-188.5 78.5
q-90 0 -173 -48.5t-134.5 -134t-51.5 -184.5q0 -120 72 -203.5t190 -83.5z" />
    <glyph glyph-name="Ocircumflex" unicode="&#xd4;" horiz-adv-x="873" 
d="M697 850l-41 -35l-134 61l-161 -68l-23 37l195 102zM391 -13q-146 0 -238 96.5t-92 247.5q0 123 64 225.5t166 158.5t216 56q148 0 237.5 -95t89.5 -246q0 -95 -38.5 -179.5t-100.5 -141t-142 -89.5t-162 -33zM400 51q90 0 172.5 49t134 136.5t51.5 188.5
q0 123 -72.5 201.5t-188.5 78.5q-90 0 -173 -48.5t-134.5 -134t-51.5 -184.5q0 -120 72 -203.5t190 -83.5z" />
    <glyph glyph-name="Otilde" unicode="&#xd5;" horiz-adv-x="873" 
d="M680 943l23 -46q-23 -23 -58.5 -45t-67.5 -22q-19 0 -55 24t-57 24q-32 0 -90 -49l-27 41q25 23 63.5 45.5t66.5 22.5q24 0 59.5 -24t51.5 -24q38 0 91 53zM391 -13q-146 0 -238 96.5t-92 247.5q0 123 64 225.5t166 158.5t216 56q148 0 237.5 -95t89.5 -246
q0 -95 -38.5 -179.5t-100.5 -141t-142 -89.5t-162 -33zM400 51q90 0 172.5 49t134 136.5t51.5 188.5q0 123 -72.5 201.5t-188.5 78.5q-90 0 -173 -48.5t-134.5 -134t-51.5 -184.5q0 -120 72 -203.5t190 -83.5z" />
    <glyph glyph-name="Odieresis" unicode="&#xd6;" horiz-adv-x="873" 
d="M364 885q0 -22 -16.5 -37.5t-39.5 -15.5q-16 0 -27.5 12t-11.5 29q0 21 17 37t37 16q18 0 29.5 -11.5t11.5 -29.5zM767 885q0 -21 -16 -37t-40 -16q-18 0 -28.5 11.5t-10.5 28.5q0 22 16 38t38 16q19 0 30 -11.5t11 -29.5zM391 -13q-146 0 -238 96.5t-92 247.5
q0 123 64 225.5t166 158.5t216 56q148 0 237.5 -95t89.5 -246q0 -95 -38.5 -179.5t-100.5 -141t-142 -89.5t-162 -33zM400 51q90 0 172.5 49t134 136.5t51.5 188.5q0 123 -72.5 201.5t-188.5 78.5q-90 0 -173 -48.5t-134.5 -134t-51.5 -184.5q0 -120 72 -203.5t190 -83.5z
" />
    <glyph glyph-name="multiply" unicode="&#xd7;" horiz-adv-x="627" 
d="M527 163l-53 -41l-158 197l-219 -197l-43 40l227 199l-161 198l53 42l158 -198l219 198l39 -42l-221 -197z" />
    <glyph glyph-name="Oslash" unicode="&#xd8;" horiz-adv-x="873" 
d="M201 -146l-56 19l83 152q-78 42 -122.5 122.5t-44.5 183.5q0 123 64 225.5t166 158.5t216 56q60 0 117 -19l72 133l56 -24l-73 -134q73 -42 114 -120t41 -177q0 -95 -38.5 -179.5t-100.5 -141t-142 -89.5t-162 -33q-52 0 -109 15zM263 89l326 600q-45 16 -92 16
q-90 0 -173 -48.5t-134.5 -134t-51.5 -184.5q0 -79 33 -145.5t92 -103.5zM643 662l-327 -598q38 -13 84 -13q90 0 172.5 49t134 136.5t51.5 188.5q0 77 -30.5 139t-84.5 98z" />
    <glyph glyph-name="Ugrave" unicode="&#xd9;" horiz-adv-x="728" 
d="M540 838l-246 45l43 66l231 -64zM528 109l103 648h72l-107 -673q-43 -44 -117 -70.5t-159 -26.5q-135 0 -193.5 72.5t-36.5 214.5l76 483h73l-72 -453q-22 -137 17 -195t153 -58q124 0 191 58z" />
    <glyph glyph-name="Uacute" unicode="&#xda;" horiz-adv-x="728" 
d="M597 883l-259 -45l-14 47l251 64zM528 109l103 648h72l-107 -673q-43 -44 -117 -70.5t-159 -26.5q-135 0 -193.5 72.5t-36.5 214.5l76 483h73l-72 -453q-22 -137 17 -195t153 -58q124 0 191 58z" />
    <glyph glyph-name="Ucircumflex" unicode="&#xdb;" horiz-adv-x="728" 
d="M608 850l-41 -35l-135 61l-162 -68l-22 37l195 102h1zM528 109l103 648h72l-107 -673q-43 -44 -117 -70.5t-159 -26.5q-135 0 -193.5 72.5t-36.5 214.5l76 483h73l-72 -453q-22 -137 17 -195t153 -58q124 0 191 58z" />
    <glyph glyph-name="Udieresis" unicode="&#xdc;" horiz-adv-x="728" 
d="M280 886q0 -21 -17 -36.5t-40 -15.5q-16 0 -27.5 12t-11.5 29q0 21 17 37t37 16q19 0 30.5 -12t11.5 -30zM746 887q0 -22 -16 -37.5t-40 -15.5q-17 0 -28 11.5t-11 28.5q0 22 16 38t38 16q20 0 30.5 -11.5t10.5 -29.5zM528 109l103 648h72l-107 -673q-43 -44 -117 -70.5
t-159 -26.5q-135 0 -193.5 72.5t-36.5 214.5l76 483h73l-72 -453q-22 -137 17 -195t153 -58q124 0 191 58z" />
    <glyph glyph-name="Yacute" unicode="&#xdd;" horiz-adv-x="545" 
d="M496 888l-173 -146l-34 28l154 163zM257 0h-72l52 327l-172 430h80l135 -350q3 -8 2 -16q2 7 9 16l252 350h78l-312 -430z" />
    <glyph glyph-name="Thorn" unicode="&#xde;" horiz-adv-x="547" 
d="M125 0h-72l120 757h72l-24 -148h73q64 0 113 -16t83.5 -61t34.5 -115q0 -112 -79.5 -189.5t-229.5 -77.5h-67zM159 215h61q104 0 166 53.5t62 138.5q0 69 -40.5 103t-105.5 34h-91z" />
    <glyph glyph-name="germandbls" unicode="&#xdf;" horiz-adv-x="531" 
d="M153 -245l11 56q78 13 150.5 81.5t72.5 162.5q0 49 -26 79t-78 30q-35 0 -85 -14l197 273h-205l-67 -423h-66l67 423h-72l9 57h72l21 134q16 103 60 152q47 52 120 52q60 0 90 -26l-36 -56q-33 21 -63 21q-81 0 -102 -128l-24 -149h307l-206 -270q18 3 31 3
q55 0 89.5 -42.5t34.5 -110.5q0 -56 -23.5 -106t-58.5 -83.5t-77.5 -59.5t-78.5 -39t-64 -17z" />
    <glyph glyph-name="agrave" unicode="&#xe0;" horiz-adv-x="497" 
d="M357 610l-44 -27l-126 145l67 45zM331 83l20 125q-46 57 -124 57q-57 0 -102.5 -31.5t-45.5 -91.5q0 -48 32 -74t87 -26q78 0 133 41zM433 313l-41 -258q-78 -67 -206 -67q-90 0 -133.5 41.5t-43.5 105.5q0 60 37 103.5t84.5 61.5t95.5 18q38 0 75.5 -13.5t57.5 -40.5
l11 67q8 48 -17 77t-89 29q-67 0 -133 -29l-17 50q79 36 160 36q188 0 159 -181z" />
    <glyph glyph-name="aacute" unicode="&#xe1;" horiz-adv-x="497" 
d="M433 728l-172 -145l-34 27l153 163zM331 83l20 125q-46 57 -124 57q-57 0 -102.5 -31.5t-45.5 -91.5q0 -48 32 -74t87 -26q78 0 133 41zM433 313l-41 -258q-78 -67 -206 -67q-90 0 -133.5 41.5t-43.5 105.5q0 60 37 103.5t84.5 61.5t95.5 18q38 0 75.5 -13.5t57.5 -40.5
l11 67q8 48 -17 77t-89 29q-67 0 -133 -29l-17 50q79 36 160 36q188 0 159 -181z" />
    <glyph glyph-name="acircumflex" unicode="&#xe2;" horiz-adv-x="497" 
d="M453 610l-43 -36l-102 96l-131 -96l-32 36l175 134h1zM331 83l20 125q-46 57 -124 57q-57 0 -102.5 -31.5t-45.5 -91.5q0 -48 32 -74t87 -26q78 0 133 41zM433 313l-41 -258q-78 -67 -206 -67q-90 0 -133.5 41.5t-43.5 105.5q0 60 37 103.5t84.5 61.5t95.5 18
q38 0 75.5 -13.5t57.5 -40.5l11 67q8 48 -17 77t-89 29q-67 0 -133 -29l-17 50q79 36 160 36q188 0 159 -181z" />
    <glyph glyph-name="atilde" unicode="&#xe3;" horiz-adv-x="497" 
d="M444 686l18 -37q-60 -64 -113 -64q-18 0 -51.5 22.5t-53.5 22.5q-30 0 -85 -46l-23 36q23 22 58.5 44t62.5 22q21 0 54 -23t49 -23q34 0 84 46zM331 83l20 125q-46 57 -124 57q-57 0 -102.5 -31.5t-45.5 -91.5q0 -48 32 -74t87 -26q78 0 133 41zM433 313l-41 -258
q-78 -67 -206 -67q-90 0 -133.5 41.5t-43.5 105.5q0 60 37 103.5t84.5 61.5t95.5 18q38 0 75.5 -13.5t57.5 -40.5l11 67q8 48 -17 77t-89 29q-67 0 -133 -29l-17 50q79 36 160 36q188 0 159 -181z" />
    <glyph glyph-name="adieresis" unicode="&#xe4;" horiz-adv-x="497" 
d="M236 643q0 -21 -16.5 -36t-37.5 -15q-17 0 -28.5 11.5t-11.5 28.5q0 21 17 36.5t37 15.5q18 0 29 -11.5t11 -29.5zM452 644q0 -22 -15.5 -37t-39.5 -15q-18 0 -28 11t-10 28q0 21 15.5 37t36.5 16q19 0 30 -11.5t11 -28.5zM331 83l20 125q-46 57 -124 57
q-57 0 -102.5 -31.5t-45.5 -91.5q0 -48 32 -74t87 -26q78 0 133 41zM433 313l-41 -258q-78 -67 -206 -67q-90 0 -133.5 41.5t-43.5 105.5q0 60 37 103.5t84.5 61.5t95.5 18q38 0 75.5 -13.5t57.5 -40.5l11 67q8 48 -17 77t-89 29q-67 0 -133 -29l-17 50q79 36 160 36
q188 0 159 -181z" />
    <glyph glyph-name="aring" unicode="&#xe5;" horiz-adv-x="497" 
d="M423 676q0 -49 -37.5 -85.5t-86.5 -36.5q-39 0 -64.5 27t-25.5 66q0 50 37.5 87t86.5 37q39 0 64.5 -27.5t25.5 -67.5zM307 598q27 0 49 23t22 51q0 24 -14.5 40t-36.5 16q-27 0 -49 -22t-22 -51q0 -24 14.5 -40.5t36.5 -16.5zM331 83l20 125q-46 57 -124 57
q-57 0 -102.5 -31.5t-45.5 -91.5q0 -48 32 -74t87 -26q78 0 133 41zM433 313l-41 -258q-78 -67 -206 -67q-90 0 -133.5 41.5t-43.5 105.5q0 60 37 103.5t84.5 61.5t95.5 18q38 0 75.5 -13.5t57.5 -40.5l11 67q8 48 -17 77t-89 29q-67 0 -133 -29l-17 50q79 36 160 36
q188 0 159 -181z" />
    <glyph glyph-name="ae" unicode="&#xe6;" horiz-adv-x="852" 
d="M734 107l24 -40q-29 -34 -83.5 -56.5t-117.5 -22.5q-107 0 -161 69q-82 -69 -210 -69q-90 0 -133 42t-43 107q0 59 35 102t82 61t97 18q41 0 79 -13.5t57 -40.5l11 67q8 48 -17 77t-89 29q-67 0 -133 -29l-17 50q79 36 159 36q67 0 107.5 -24t50.5 -66q29 41 84 65.5
t114 24.5q69 0 112.5 -36t56.5 -89t2 -115l-3 -18h-376q-15 -92 25.5 -142t126.5 -50q97 0 160 63zM369 103q-20 43 -17 105q-48 57 -124 57q-57 0 -102.5 -32t-45.5 -91q0 -48 32 -74t87 -26q83 0 170 61zM434 289h305q3 64 -27 106t-93 42q-60 0 -113 -39t-72 -109z" />
    <glyph glyph-name="ccedilla" unicode="&#xe7;" horiz-adv-x="501" 
d="M151 -222h-64l101 164h74zM408 107l25 -39q-33 -38 -85.5 -59t-107.5 -21q-95 0 -150.5 59.5t-55.5 159.5q0 126 83.5 206.5t197.5 80.5q101 0 158 -65l-42 -44q-10 15 -42 33t-77 18q-79 0 -144 -61t-65 -163q0 -79 41.5 -123t113.5 -44q86 0 150 62z" />
    <glyph glyph-name="egrave" unicode="&#xe8;" horiz-adv-x="532" 
d="M373 610l-44 -27l-126 145l67 45zM413 107l24 -40q-27 -33 -82.5 -56t-117.5 -23q-96 0 -150.5 57.5t-54.5 155.5q0 122 80 207.5t195 85.5q71 0 115 -36t57 -89t2 -115l-3 -18h-375q-15 -92 24.5 -142t124.5 -50q98 0 161 63zM114 289h304q5 62 -24.5 105t-93.5 43
q-60 0 -113 -39.5t-73 -108.5z" />
    <glyph glyph-name="eacute" unicode="&#xe9;" horiz-adv-x="532" 
d="M463 728l-173 -145l-35 27l155 163zM413 107l24 -40q-27 -33 -82.5 -56t-117.5 -23q-96 0 -150.5 57.5t-54.5 155.5q0 122 80 207.5t195 85.5q71 0 115 -36t57 -89t2 -115l-3 -18h-375q-15 -92 24.5 -142t124.5 -50q98 0 161 63zM114 289h304q5 62 -24.5 105t-93.5 43
q-60 0 -113 -39.5t-73 -108.5z" />
    <glyph glyph-name="ecircumflex" unicode="&#xea;" horiz-adv-x="532" 
d="M473 618l-43 -36l-101 96l-132 -96l-32 36l175 134h1zM413 107l24 -40q-27 -33 -82.5 -56t-117.5 -23q-96 0 -150.5 57.5t-54.5 155.5q0 122 80 207.5t195 85.5q71 0 115 -36t57 -89t2 -115l-3 -18h-375q-15 -92 24.5 -142t124.5 -50q98 0 161 63zM114 289h304
q5 62 -24.5 105t-93.5 43q-60 0 -113 -39.5t-73 -108.5z" />
    <glyph glyph-name="edieresis" unicode="&#xeb;" horiz-adv-x="532" 
d="M261 641q0 -21 -16.5 -36t-37.5 -15q-17 0 -28.5 11t-11.5 28q0 21 16.5 37t37.5 16q17 0 28.5 -12t11.5 -29zM478 642q0 -22 -16 -37t-40 -15q-17 0 -28 11t-11 28q0 21 16 37t37 16q19 0 30.5 -11.5t11.5 -28.5zM413 107l24 -40q-27 -33 -82.5 -56t-117.5 -23
q-96 0 -150.5 57.5t-54.5 155.5q0 122 80 207.5t195 85.5q71 0 115 -36t57 -89t2 -115l-3 -18h-375q-15 -92 24.5 -142t124.5 -50q98 0 161 63zM114 289h304q5 62 -24.5 105t-93.5 43q-60 0 -113 -39.5t-73 -108.5z" />
    <glyph glyph-name="igrave" unicode="&#xec;" horiz-adv-x="226" 
d="M220 604l-44 -26l-112 136l67 45zM98 0h-66l76 481h66z" />
    <glyph glyph-name="iacute" unicode="&#xed;" horiz-adv-x="226" 
d="M280 715l-155 -137l-34 27l136 155zM98 0h-66l76 481h66z" />
    <glyph glyph-name="icircumflex" unicode="&#xee;" horiz-adv-x="226" 
d="M98 0h-66l76 481h66zM320 618l-43 -36l-104 96l-135 -96l-32 36l178 134h1z" />
    <glyph glyph-name="idieresis" unicode="&#xef;" horiz-adv-x="226" 
d="M146 642q0 -21 -16 -36t-39 -15q-17 0 -28 11.5t-11 27.5q0 21 16.5 37t36.5 16q18 0 29.5 -11.5t11.5 -29.5zM280 643q0 -21 -15 -36.5t-39 -15.5q-17 0 -28.5 11t-11.5 28q0 21 16.5 37t37.5 16q19 0 29.5 -11.5t10.5 -28.5zM98 0h-66l76 481h66z" />
    <glyph glyph-name="eth" unicode="&#xf0;" horiz-adv-x="585" 
d="M546 729l-120 -68q101 -218 101 -369q0 -135 -82.5 -220t-200.5 -85q-100 0 -156 62.5t-56 154.5q0 116 83.5 199.5t197.5 83.5q89 0 134 -61q-21 95 -80 203l-110 -65l-22 42l111 64q-56 111 -103 150h93q31 -42 66 -120l126 72zM251 43q80 0 142.5 61.5t62.5 155.5
q0 73 -40 121.5t-112 48.5q-86 0 -144.5 -67.5t-58.5 -152.5q0 -68 39.5 -117.5t110.5 -49.5z" />
    <glyph glyph-name="ntilde" unicode="&#xf1;" horiz-adv-x="535" 
d="M470 690l18 -37q-17 -20 -49 -42t-63 -22q-18 0 -51.5 22.5t-53.5 22.5q-29 0 -84 -46l-24 36q24 23 59 44.5t62 21.5q21 0 54.5 -23t49.5 -23q36 0 82 46zM414 0h-66l45 284q12 77 -4 112.5t-83 35.5q-82 0 -154 -64l-58 -368h-66l76 481h66l-8 -51q82 64 168 64
q77 0 113 -44.5t21 -134.5z" />
    <glyph glyph-name="ograve" unicode="&#xf2;" horiz-adv-x="583" 
d="M419 610l-44 -27l-126 145l67 45zM245 -12q-95 0 -153.5 61t-58.5 161q0 124 85.5 204t199.5 80q98 0 154.5 -62.5t56.5 -159.5q0 -123 -85.5 -203.5t-198.5 -80.5zM255 45q82 0 142.5 64t60.5 158q0 75 -41 122t-109 47q-84 0 -145.5 -66t-61.5 -158q0 -74 43 -120.5
t111 -46.5z" />
    <glyph glyph-name="oacute" unicode="&#xf3;" horiz-adv-x="583" 
d="M460 728l-173 -145l-35 27l155 163zM245 -12q-95 0 -153.5 61t-58.5 161q0 124 85.5 204t199.5 80q98 0 154.5 -62.5t56.5 -159.5q0 -123 -85.5 -203.5t-198.5 -80.5zM255 45q82 0 142.5 64t60.5 158q0 75 -41 122t-109 47q-84 0 -145.5 -66t-61.5 -158q0 -74 43 -120.5
t111 -46.5z" />
    <glyph glyph-name="ocircumflex" unicode="&#xf4;" horiz-adv-x="583" 
d="M505 608l-43 -36l-102 96l-131 -96l-32 36l175 134h1zM245 -12q-95 0 -153.5 61t-58.5 161q0 124 85.5 204t199.5 80q98 0 154.5 -62.5t56.5 -159.5q0 -123 -85.5 -203.5t-198.5 -80.5zM255 45q82 0 142.5 64t60.5 158q0 75 -41 122t-109 47q-84 0 -145.5 -66t-61.5 -158
q0 -74 43 -120.5t111 -46.5z" />
    <glyph glyph-name="otilde" unicode="&#xf5;" horiz-adv-x="583" 
d="M489 686l18 -37q-11 -12 -25.5 -24.5t-40 -26t-47.5 -13.5q-18 0 -51.5 22.5t-53.5 22.5q-32 0 -84 -46l-23 36q22 22 57.5 44t62.5 22q22 0 55 -23t49 -23q33 0 83 46zM245 -12q-95 0 -153.5 61t-58.5 161q0 124 85.5 204t199.5 80q98 0 154.5 -62.5t56.5 -159.5
q0 -123 -85.5 -203.5t-198.5 -80.5zM255 45q82 0 142.5 64t60.5 158q0 75 -41 122t-109 47q-84 0 -145.5 -66t-61.5 -158q0 -74 43 -120.5t111 -46.5z" />
    <glyph glyph-name="odieresis" unicode="&#xf6;" horiz-adv-x="583" 
d="M283 643q0 -21 -16 -36t-39 -15q-17 0 -28 11.5t-11 28.5q0 21 17 36.5t37 15.5q18 0 29 -11.5t11 -29.5zM499 644q0 -22 -15.5 -37t-40.5 -15q-16 0 -26.5 11t-10.5 28q0 21 15.5 37t36.5 16q19 0 30 -11.5t11 -28.5zM245 -12q-95 0 -153.5 61t-58.5 161q0 124 85.5 204
t199.5 80q98 0 154.5 -62.5t56.5 -159.5q0 -123 -85.5 -203.5t-198.5 -80.5zM255 45q82 0 142.5 64t60.5 158q0 75 -41 122t-109 47q-84 0 -145.5 -66t-61.5 -158q0 -74 43 -120.5t111 -46.5z" />
    <glyph glyph-name="divide" unicode="&#xf7;" horiz-adv-x="680" 
d="M366 174q0 -20 -16 -35.5t-38 -15.5q-16 0 -27 11.5t-11 27.5q0 20 16 36t36 16q18 0 29 -11.5t11 -28.5zM427 558q0 -21 -16 -36t-39 -15q-16 0 -26.5 11.5t-10.5 27.5q0 21 15.5 36t36.5 15q18 0 29 -11t11 -28zM594 334h-498l9 59h498z" />
    <glyph glyph-name="oslash" unicode="&#xf8;" horiz-adv-x="583" 
d="M81 -145l-47 20l89 146q-90 60 -90 189q0 124 85.5 204t199.5 80q46 0 82 -15l89 147l48 -23l-90 -149q82 -60 82 -182q0 -123 -85.5 -203.5t-198.5 -80.5q-41 0 -76 12zM158 78l209 347q-27 11 -59 11q-84 0 -145.5 -66t-61.5 -158q0 -86 57 -134zM411 395l-209 -342
q26 -8 53 -8q82 0 142.5 64t60.5 158q0 81 -47 128z" />
    <glyph glyph-name="ugrave" unicode="&#xf9;" 
d="M380 610l-44 -27l-125 145l66 45zM359 83l63 398h66l-67 -427q-79 -66 -199 -66q-92 0 -138.5 46t-32.5 138l49 309h67l-47 -294q-12 -74 13.5 -108t94.5 -34q75 0 131 38z" />
    <glyph glyph-name="uacute" unicode="&#xfa;" 
d="M449 728l-173 -145l-35 27l155 163zM359 83l63 398h66l-67 -427q-79 -66 -199 -66q-92 0 -138.5 46t-32.5 138l49 309h67l-47 -294q-12 -74 13.5 -108t94.5 -34q75 0 131 38z" />
    <glyph glyph-name="ucircumflex" unicode="&#xfb;" 
d="M474 610l-43 -36l-102 96l-131 -96l-32 36l175 134h1zM359 83l63 398h66l-67 -427q-79 -66 -199 -66q-92 0 -138.5 46t-32.5 138l49 309h67l-47 -294q-12 -74 13.5 -108t94.5 -34q75 0 131 38z" />
    <glyph glyph-name="udieresis" unicode="&#xfc;" 
d="M259 641q0 -21 -16.5 -36t-37.5 -15q-17 0 -29 11.5t-12 28.5q0 21 17 36.5t38 15.5q17 0 28.5 -12t11.5 -29zM474 642q0 -22 -15.5 -37t-39.5 -15q-17 0 -27.5 11t-10.5 28q0 21 16 37t36 16q19 0 30 -11.5t11 -28.5zM359 83l63 398h66l-67 -427q-79 -66 -199 -66
q-92 0 -138.5 46t-32.5 138l49 309h67l-47 -294q-12 -74 13.5 -108t94.5 -34q75 0 131 38z" />
    <glyph glyph-name="yacute" unicode="&#xfd;" horiz-adv-x="480" 
d="M436 728l-172 -145l-34 27l153 163zM30 -258h-75l201 311l-120 428h74l95 -360l219 360h77z" />
    <glyph glyph-name="thorn" unicode="&#xfe;" horiz-adv-x="567" 
d="M54 -254h-65l169 1074h65l-57 -359q60 33 135 33q91 0 151.5 -56.5t60.5 -160.5q0 -118 -75.5 -203.5t-185.5 -85.5q-96 0 -149 64zM157 395l-43 -270q17 -34 55 -57t83 -23q76 0 133 63t57 158q0 80 -42 124.5t-112 44.5q-76 0 -131 -40z" />
    <glyph glyph-name="ydieresis" unicode="&#xff;" horiz-adv-x="480" 
d="M226 641q0 -21 -16.5 -36t-38.5 -15q-16 0 -27.5 11.5t-11.5 28.5q0 21 17 36.5t37 15.5q18 0 29 -11.5t11 -29.5zM442 642q0 -22 -16 -37t-40 -15q-17 0 -27 11t-10 28q0 21 15.5 37t36.5 16q19 0 30 -11.5t11 -28.5zM30 -258h-75l201 311l-120 428h74l95 -360l219 360
h77z" />
    <glyph glyph-name="Amacron" unicode="&#x100;" horiz-adv-x="668" 
d="M624 0h-78l-53 202h-346l-117 -202h-79l462 780zM475 267l-79 312q-9 32 -10 45q-4 -17 -21 -45l-179 -312h289zM603 867h-358l10 58h358z" />
    <glyph glyph-name="amacron" unicode="&#x101;" horiz-adv-x="497" 
d="M471 591h-358l9 58h358zM331 83l20 125q-46 57 -124 57q-57 0 -102.5 -31.5t-45.5 -91.5q0 -48 32 -74t87 -26q78 0 133 41zM433 313l-41 -258q-78 -67 -206 -67q-90 0 -133.5 41.5t-43.5 105.5q0 60 37 103.5t84.5 61.5t95.5 18q38 0 75.5 -13.5t57.5 -40.5l11 67
q8 48 -17 77t-89 29q-67 0 -133 -29l-17 50q79 36 160 36q188 0 159 -181z" />
    <glyph glyph-name="Abreve" unicode="&#x102;" horiz-adv-x="668" 
d="M624 0h-78l-53 202h-346l-117 -202h-79l462 780zM475 267l-79 312q-9 32 -10 45q-4 -17 -21 -45l-179 -312h289zM542 976h67q-14 -63 -66 -114t-131 -51q-64 0 -102.5 43.5t-30.5 121.5h70q-3 -6 -1.5 -24t5.5 -36.5t21.5 -33t45.5 -14.5t50.5 11t34.5 24t21.5 32
t11.5 26t4 15z" />
    <glyph glyph-name="abreve" unicode="&#x103;" horiz-adv-x="497" 
d="M414 729h67q-13 -63 -65 -114t-131 -51q-64 0 -102.5 43.5t-32.5 121.5h71q-3 -6 -1 -24t6 -36.5t21.5 -33t45.5 -14.5q34 0 59.5 15t38 36.5t17.5 35.5t6 21zM331 83l20 125q-46 57 -124 57q-57 0 -102.5 -31.5t-45.5 -91.5q0 -48 32 -74t87 -26q78 0 133 41zM433 313
l-41 -258q-78 -67 -206 -67q-90 0 -133.5 41.5t-43.5 105.5q0 60 37 103.5t84.5 61.5t95.5 18q38 0 75.5 -13.5t57.5 -40.5l11 67q8 48 -17 77t-89 29q-67 0 -133 -29l-17 50q79 36 160 36q188 0 159 -181z" />
    <glyph glyph-name="Aogonek" unicode="&#x104;" horiz-adv-x="668" 
d="M625 -152l-9 -58q-33 -15 -80 -15q-44 0 -75 19.5t-31 59.5q0 83 116 146l-53 202h-345l-118 -202h-79l462 780l213 -785q-62 -27 -95.5 -54.5t-33.5 -65.5q0 -21 16 -33t41 -12q24 0 71 18zM475 267l-79 312q-10 42 -10 45q-4 -15 -21 -45l-178 -312h288z" />
    <glyph glyph-name="aogonek" unicode="&#x105;" horiz-adv-x="497" 
d="M337 -140l-10 -58q-33 -15 -79 -15q-45 0 -76.5 19.5t-31.5 59.5q0 65 79 124q-26 -2 -39 -2q-85 0 -128 42t-43 106q0 59 37 102.5t85 61.5t95 18q38 0 75.5 -13.5t57.5 -40.5l11 67q8 48 -17 77t-90 29q-66 0 -132 -29l-17 50q79 36 159 36q189 0 160 -181l-41 -258
q-15 -14 -75.5 -49.5t-85.5 -65.5q-17 -20 -23 -46q-5 -25 11.5 -38.5t46.5 -13.5q22 0 71 18zM331 83l20 125q-46 57 -126 57q-55 0 -100.5 -31.5t-45.5 -90.5q0 -48 31.5 -74.5t82.5 -26.5q82 0 138 41z" />
    <glyph glyph-name="Cacute" unicode="&#x106;" horiz-adv-x="722" 
d="M638 882l-255 -45l-11 47l252 64zM619 129l26 -48q-114 -94 -257 -94q-147 0 -236.5 96.5t-89.5 246.5q0 122 60.5 224t162.5 159.5t220 57.5q151 0 232 -98l-48 -52q-64 84 -194 84q-146 0 -251.5 -108t-105.5 -263q0 -127 74 -205t191 -78q62 0 120.5 22t95.5 56z" />
    <glyph glyph-name="cacute" unicode="&#x107;" horiz-adv-x="501" 
d="M466 728l-172 -145l-35 27l154 163zM408 107l25 -39q-33 -38 -85.5 -59t-107.5 -21q-95 0 -150.5 59.5t-55.5 159.5q0 126 83.5 206.5t197.5 80.5q101 0 158 -65l-42 -44q-10 15 -42 33t-77 18q-79 0 -144 -61t-65 -163q0 -79 41.5 -123t113.5 -44q86 0 150 62z" />
    <glyph glyph-name="Ccircumflex" unicode="&#x108;" horiz-adv-x="722" 
d="M680 873l-40 -35l-134 67l-161 -68l-23 37l195 102h1zM619 129l26 -48q-114 -94 -257 -94q-147 0 -236.5 96.5t-89.5 246.5q0 122 60.5 224t162.5 159.5t220 57.5q151 0 232 -98l-48 -52q-64 84 -194 84q-146 0 -251.5 -108t-105.5 -263q0 -127 74 -205t191 -78
q62 0 120.5 22t95.5 56z" />
    <glyph glyph-name="ccircumflex" unicode="&#x109;" horiz-adv-x="501" 
d="M485 618l-43 -36l-102 96l-131 -96l-32 36l175 134h1zM408 107l25 -39q-33 -38 -85.5 -59t-107.5 -21q-95 0 -150.5 59.5t-55.5 159.5q0 126 83.5 206.5t197.5 80.5q101 0 158 -65l-42 -44q-10 15 -42 33t-77 18q-79 0 -144 -61t-65 -163q0 -79 41.5 -123t113.5 -44
q86 0 150 62z" />
    <glyph glyph-name="Cdotaccent" unicode="&#x10a;" horiz-adv-x="722" 
d="M551 890q0 -22 -16 -37.5t-39 -15.5q-16 0 -27.5 12t-11.5 29q0 21 17 37.5t37 16.5q18 0 29 -12t11 -30zM619 129l26 -48q-114 -94 -257 -94q-147 0 -236.5 96.5t-89.5 246.5q0 122 60.5 224t162.5 159.5t220 57.5q151 0 232 -98l-48 -52q-64 84 -194 84
q-146 0 -251.5 -108t-105.5 -263q0 -127 74 -205t191 -78q62 0 120.5 22t95.5 56z" />
    <glyph glyph-name="cdotaccent" unicode="&#x10b;" horiz-adv-x="501" 
d="M363 637q0 -22 -16 -37.5t-39 -15.5q-17 0 -28 11.5t-11 28.5q0 22 16.5 38.5t37.5 16.5q18 0 29 -12t11 -30zM408 107l25 -39q-33 -38 -85.5 -59t-107.5 -21q-95 0 -150.5 59.5t-55.5 159.5q0 126 83.5 206.5t197.5 80.5q101 0 158 -65l-42 -44q-10 15 -42 33t-77 18
q-79 0 -144 -61t-65 -163q0 -79 41.5 -123t113.5 -44q86 0 150 62z" />
    <glyph glyph-name="Ccaron" unicode="&#x10c;" horiz-adv-x="722" 
d="M691 929l-193 -101l-160 101l34 33l138 -69l150 67zM619 129l26 -48q-114 -94 -257 -94q-147 0 -236.5 96.5t-89.5 246.5q0 122 60.5 224t162.5 159.5t220 57.5q151 0 232 -98l-48 -52q-64 84 -194 84q-146 0 -251.5 -108t-105.5 -263q0 -127 74 -205t191 -78
q62 0 120.5 22t95.5 56z" />
    <glyph glyph-name="ccaron" unicode="&#x10d;" horiz-adv-x="501" 
d="M408 107l25 -39q-33 -38 -85.5 -59t-107.5 -21q-95 0 -150.5 59.5t-55.5 159.5q0 126 83.5 206.5t197.5 80.5q101 0 158 -65l-42 -44q-10 15 -42 33t-77 18q-79 0 -144 -61t-65 -163q0 -79 41.5 -123t113.5 -44q86 0 150 62zM490 712l-174 -134l-132 134l42 37l101 -96
l132 96z" />
    <glyph glyph-name="Dcaron" unicode="&#x10e;" horiz-adv-x="718" 
d="M588 938l-193 -101l-160 101l35 33l138 -69l150 67zM222 0h-169l120 757h168q150 0 242.5 -83.5t92.5 -244.5q0 -189 -125.5 -309t-328.5 -120zM135 65h86q165 0 272 95t107 261q0 137 -74.5 204t-197.5 67h-93z" />
    <glyph glyph-name="dcaron" unicode="&#x10f;" horiz-adv-x="589" 
d="M650 570h-53l98 197h72zM390 85l44 282q-14 31 -49.5 50t-81.5 19q-86 0 -143 -66t-57 -162q0 -81 43 -122.5t111 -41.5q72 0 133 41zM446 442l60 378h66l-122 -768q-93 -64 -202 -64q-93 0 -154 53t-61 161q0 125 80.5 208.5t195.5 83.5q88 0 137 -52z" />
    <glyph glyph-name="Dcroat" unicode="&#x110;" horiz-adv-x="719" 
d="M223 0h-169l55 348h-74l9 58h74l56 351h168q150 0 242.5 -83.5t92.5 -244.5q0 -189 -125.5 -309t-328.5 -120zM136 65h86q165 0 272 95t107 261q0 137 -74.5 204t-197.5 67h-93l-46 -286h193l-9 -58h-193z" />
    <glyph glyph-name="dcroat" unicode="&#x111;" horiz-adv-x="564" 
d="M446 442l32 201h-165l17 57h157l19 120h66l-19 -120h70l-18 -57h-61l-94 -591q-93 -64 -202 -64q-93 0 -154 53t-61 161q0 125 80.5 208.5t195.5 83.5q88 0 137 -52zM390 85l44 282q-14 31 -49.5 50t-81.5 19q-86 0 -143 -66t-57 -162q0 -81 43 -122.5t111 -41.5
q72 0 133 41z" />
    <glyph glyph-name="Emacron" unicode="&#x112;" horiz-adv-x="544" 
d="M460 1h-407l120 755h376l-11 -64h-304l-40 -254h245l-10 -65h-245l-49 -308h335zM550 867h-347l9 58h347z" />
    <glyph glyph-name="emacron" unicode="&#x113;" horiz-adv-x="532" 
d="M489 591h-347l9 58h347zM413 107l24 -40q-27 -33 -82.5 -56t-117.5 -23q-96 0 -150.5 57.5t-54.5 155.5q0 122 80 207.5t195 85.5q71 0 115 -36t57 -89t2 -115l-3 -18h-375q-15 -92 24.5 -142t124.5 -50q98 0 161 63zM114 289h304q5 62 -24.5 105t-93.5 43
q-60 0 -113 -39.5t-73 -108.5z" />
    <glyph glyph-name="Edotaccent" unicode="&#x116;" horiz-adv-x="544" 
d="M435 873q0 -22 -16.5 -37.5t-38.5 -15.5q-17 0 -28.5 11.5t-11.5 28.5q0 22 17 38.5t38 16.5q18 0 29 -12t11 -30zM460 1h-407l120 755h376l-11 -64h-304l-40 -254h245l-10 -65h-245l-49 -308h335z" />
    <glyph glyph-name="edotaccent" unicode="&#x117;" horiz-adv-x="532" 
d="M369 637q0 -22 -16 -37.5t-39 -15.5q-17 0 -28 11.5t-11 28.5q0 22 16.5 38.5t37.5 16.5q18 0 29 -12t11 -30zM413 107l24 -40q-27 -33 -82.5 -56t-117.5 -23q-96 0 -150.5 57.5t-54.5 155.5q0 122 80 207.5t195 85.5q71 0 115 -36t57 -89t2 -115l-3 -18h-375
q-15 -92 24.5 -142t124.5 -50q98 0 161 63zM114 289h304q5 62 -24.5 105t-93.5 43q-60 0 -113 -39.5t-73 -108.5z" />
    <glyph glyph-name="Eogonek" unicode="&#x118;" horiz-adv-x="545" 
d="M384 -140l-10 -58q-33 -15 -79 -15q-45 0 -76.5 19.5t-31.5 59.5q0 73 95 135h-229l120 755h376l-11 -64h-304l-40 -254h245l-10 -65h-245l-49 -308h335l-10 -64h-113q-91 -54 -91 -114q0 -21 15.5 -33t41.5 -12q22 0 71 18z" />
    <glyph glyph-name="eogonek" unicode="&#x119;" horiz-adv-x="531" 
d="M361 -146l-9 -58q-33 -15 -79 -15q-45 0 -76 19.5t-31 60.5q0 69 86 128q-3 0 -9 -0.5t-13 -0.5q-89 0 -143.5 58.5t-54.5 155.5q0 121 80 206.5t196 85.5q104 0 146.5 -70t26.5 -170l-3 -18h-375q-15 -92 24.5 -142t124.5 -50q98 0 161 63l24 -40q-13 -17 -49 -38.5
t-68.5 -39t-59 -45.5t-26.5 -59q0 -49 55 -49q25 0 72 18zM114 289h304q5 62 -24.5 105t-93.5 43q-60 0 -113 -39.5t-73 -108.5z" />
    <glyph glyph-name="Ecaron" unicode="&#x11a;" horiz-adv-x="544" 
d="M460 1h-407l120 755h376l-11 -64h-304l-40 -254h245l-10 -65h-245l-49 -308h335zM574 920l-196 -101l-163 101l33 33l143 -69l154 67z" />
    <glyph glyph-name="ecaron" unicode="&#x11b;" horiz-adv-x="532" 
d="M488 712l-174 -134l-133 134l43 37l101 -96l132 96zM413 107l24 -40q-27 -33 -82.5 -56t-117.5 -23q-96 0 -150.5 57.5t-54.5 155.5q0 122 80 207.5t195 85.5q71 0 115 -36t57 -89t2 -115l-3 -18h-375q-15 -92 24.5 -142t124.5 -50q98 0 161 63zM114 289h304
q5 62 -24.5 105t-93.5 43q-60 0 -113 -39.5t-73 -108.5z" />
    <glyph glyph-name="Gcircumflex" unicode="&#x11c;" horiz-adv-x="809" 
d="M685 874l-39 -35l-135 67l-161 -68l-22 37l194 102h1zM693 296h-196l10 65h272q-16 -100 -57 -175t-97.5 -117t-116.5 -62t-123 -20q-144 0 -233.5 95.5t-89.5 248.5q0 126 63 228t164.5 157t217.5 55q48 0 91 -10.5t69.5 -23.5t50 -31t31 -26t12.5 -15l-48 -53
q-5 6 -12 13.5t-27 23t-42.5 27t-59.5 20.5t-77 9q-151 0 -254 -110t-103 -260q0 -122 71 -203t185 -81q103 0 187 66t112 179z" />
    <glyph glyph-name="gcircumflex" unicode="&#x11d;" horiz-adv-x="563" 
d="M486 618l-42 -36l-102 96l-131 -96l-32 36l175 134h1zM370 -31l15 96q-33 -35 -78.5 -56t-91.5 -21q-75 0 -128 57.5t-53 160.5q0 91 44.5 158t111 98.5t142.5 31.5q111 0 177 -61l-73 -459q-37 -236 -249 -236q-111 0 -181 56l37 51q59 -49 151 -49q149 0 176 173z
M396 134l42 266q-50 36 -116 36q-87 0 -152 -60t-65 -163q0 -73 35.5 -120t96.5 -47q46 0 89.5 25.5t69.5 62.5z" />
    <glyph glyph-name="Gbreve" unicode="&#x11e;" horiz-adv-x="809" 
d="M619 998h67q-14 -63 -65.5 -114t-130.5 -51q-64 0 -102.5 43.5t-32.5 121.5h71q-3 -6 -1 -24t5.5 -36.5t21.5 -33t46 -14.5t50.5 11t34 24t21 32.5t11.5 25.5t4 15zM693 296h-196l10 65h272q-16 -100 -57 -175t-97.5 -117t-116.5 -62t-123 -20q-144 0 -233.5 95.5
t-89.5 248.5q0 126 63 228t164.5 157t217.5 55q48 0 91 -10.5t69.5 -23.5t50 -31t31 -26t12.5 -15l-48 -53q-5 6 -12 13.5t-27 23t-42.5 27t-59.5 20.5t-77 9q-151 0 -254 -110t-103 -260q0 -122 71 -203t185 -81q103 0 187 66t112 179z" />
    <glyph glyph-name="gbreve" unicode="&#x11f;" horiz-adv-x="563" 
d="M448 729h67q-13 -63 -65 -114t-131 -51q-64 0 -102.5 43.5t-32.5 121.5h71q-3 -6 -1 -24t6 -36.5t21.5 -33t45.5 -14.5q34 0 59.5 15t38 36.5t17.5 35.5t6 21zM370 -31l15 96q-33 -35 -78.5 -56t-91.5 -21q-75 0 -128 57.5t-53 160.5q0 91 44.5 158t111 98.5t142.5 31.5
q111 0 177 -61l-73 -459q-37 -236 -249 -236q-111 0 -181 56l37 51q59 -49 151 -49q149 0 176 173zM396 134l42 266q-50 36 -116 36q-87 0 -152 -60t-65 -163q0 -73 35.5 -120t96.5 -47q46 0 89.5 25.5t69.5 62.5z" />
    <glyph glyph-name="Gdotaccent" unicode="&#x120;" horiz-adv-x="809" 
d="M551 913q0 -22 -16 -37.5t-39 -15.5q-16 0 -27.5 12t-11.5 29q0 21 17 37.5t37 16.5q18 0 29 -12t11 -30zM693 296h-196l10 65h272q-16 -100 -57 -175t-97.5 -117t-116.5 -62t-123 -20q-144 0 -233.5 95.5t-89.5 248.5q0 126 63 228t164.5 157t217.5 55q48 0 91 -10.5
t69.5 -23.5t50 -31t31 -26t12.5 -15l-48 -53q-5 6 -12 13.5t-27 23t-42.5 27t-59.5 20.5t-77 9q-151 0 -254 -110t-103 -260q0 -122 71 -203t185 -81q103 0 187 66t112 179z" />
    <glyph glyph-name="gdotaccent" unicode="&#x121;" horiz-adv-x="563" 
d="M376 637q0 -22 -16 -37.5t-39 -15.5q-16 0 -27.5 12t-11.5 29q0 21 17 37.5t37 16.5q18 0 29 -12t11 -30zM370 -31l15 96q-33 -35 -78.5 -56t-91.5 -21q-75 0 -128 57.5t-53 160.5q0 91 44.5 158t111 98.5t142.5 31.5q111 0 177 -61l-73 -459q-37 -236 -249 -236
q-111 0 -181 56l37 51q59 -49 151 -49q149 0 176 173zM396 134l42 266q-50 36 -116 36q-87 0 -152 -60t-65 -163q0 -73 35.5 -120t96.5 -47q46 0 89.5 25.5t69.5 62.5z" />
    <glyph glyph-name="Gcommaaccent" unicode="&#x122;" horiz-adv-x="809" 
d="M310 -242h-73l114 190h79zM693 296h-196l10 65h272q-16 -100 -57 -175t-97.5 -117t-116.5 -62t-123 -20q-144 0 -233.5 95.5t-89.5 248.5q0 126 63 228t164.5 157t217.5 55q48 0 91 -10.5t69.5 -23.5t50 -31t31 -26t12.5 -15l-48 -53q-5 6 -12 13.5t-27 23t-42.5 27
t-59.5 20.5t-77 9q-151 0 -254 -110t-103 -260q0 -122 71 -203t185 -81q103 0 187 66t112 179z" />
    <glyph glyph-name="gcommaaccent" unicode="&#x123;" horiz-adv-x="563" 
d="M356 599h-73l117 197h53zM370 -31l15 96q-33 -35 -78.5 -56t-91.5 -21q-75 0 -128 57.5t-53 160.5q0 91 44.5 158t111 98.5t142.5 31.5q111 0 177 -61l-73 -459q-37 -236 -249 -236q-111 0 -181 56l37 51q59 -49 151 -49q149 0 176 173zM396 134l42 266q-50 36 -116 36
q-87 0 -152 -60t-65 -163q0 -73 35.5 -120t96.5 -47q46 0 89.5 25.5t69.5 62.5z" />
    <glyph glyph-name="Hcircumflex" unicode="&#x124;" horiz-adv-x="738" 
d="M588 0h-72l56 353h-391l-56 -353h-72l120 757h72l-54 -339h391l54 339h72zM634 850l-40 -35l-134 67l-161 -68l-23 37l195 102h1z" />
    <glyph glyph-name="hcircumflex" unicode="&#x125;" horiz-adv-x="535" 
d="M357 903l-43 -36l-101 96l-132 -96l-32 36l175 134h1zM414 0h-66l45 284q12 77 -4 112.5t-83 35.5q-82 0 -154 -64l-58 -368h-66l130 820h66l-62 -390q82 64 168 64q77 0 113 -44.5t21 -134.5z" />
    <glyph glyph-name="Hbar" unicode="&#x126;" horiz-adv-x="738" 
d="M589 0h-72l56 353h-391l-56 -353h-72l90 571h-69l10 58h69l20 128h72l-20 -128h391l20 128h72l-20 -128h68l-10 -58h-68zM583 418l24 153h-391l-24 -153h391z" />
    <glyph glyph-name="hbar" unicode="&#x127;" 
d="M413 0h-66l45 284q13 79 -4.5 113.5t-81.5 34.5q-86 0 -154 -64l-58 -368h-66l102 643h-68l17 57h60l19 120h66l-19 -120h166l-17 -57h-158l-34 -213q80 64 168 64q77 0 112.5 -44t20.5 -135z" />
    <glyph glyph-name="Itilde" unicode="&#x128;" horiz-adv-x="275" 
d="M125 0h-72l120 757h72zM381 945l23 -46q-70 -67 -126 -67q-19 0 -55 24t-58 24q-29 0 -90 -49l-26 41q23 22 62.5 45t67.5 23q24 0 59.5 -24t51.5 -24q34 0 91 53z" />
    <glyph glyph-name="itilde" unicode="&#x129;" horiz-adv-x="226" 
d="M98 0h-66l76 481h66zM310 686l19 -37q-60 -64 -113 -64q-19 0 -52 22.5t-53 22.5q-30 0 -85 -46l-23 36q22 22 57.5 44t62.5 22q21 0 55 -23t49 -23q33 0 83 46z" />
    <glyph glyph-name="Imacron" unicode="&#x12a;" horiz-adv-x="275" 
d="M125 0h-72l120 757h72zM400 867h-347l10 58h347z" />
    <glyph glyph-name="imacron" unicode="&#x12b;" horiz-adv-x="227" 
d="M98 0h-66l77 481h66zM333 591h-346l9 58h346z" />
    <glyph glyph-name="Ibreve" unicode="&#x12c;" horiz-adv-x="275" 
d="M125 0h-72l120 757h72zM343 985h68q-13 -63 -65 -114t-131 -51q-64 0 -102.5 43.5t-32.5 121.5h70q-3 -6 -1 -24t6 -36.5t22 -33t46 -14.5q34 0 59.5 15t37.5 36.5t17 35.5t6 21z" />
    <glyph glyph-name="ibreve" unicode="&#x12d;" horiz-adv-x="226" 
d="M98 0h-66l76 481h66zM278 729h68q-13 -63 -65 -114t-131 -51q-64 0 -102.5 43.5t-32.5 121.5h70q-3 -6 -1 -24t6 -36.5t22 -33t46 -14.5q34 0 59.5 15t37.5 36.5t17 35.5t6 21z" />
    <glyph glyph-name="Iogonek" unicode="&#x12e;" horiz-adv-x="274" 
d="M127 -152l-9 -58q-33 -15 -79 -15q-44 0 -75 19.5t-31 59.5q0 82 120 147l119 756h72l-120 -759q-124 -56 -124 -123q0 -21 16 -33t41 -12t70 18z" />
    <glyph glyph-name="iogonek" unicode="&#x12f;" horiz-adv-x="226" 
d="M107 -152l-9 -58q-33 -15 -79 -15q-44 0 -75 19.5t-31 59.5q0 81 119 147l76 480h66l-77 -483q-116 -59 -116 -123q0 -21 15.5 -33t40.5 -12t70 18zM216 635q0 -24 -17.5 -41t-41.5 -17q-19 0 -31 12.5t-12 31.5q0 24 18 41t41 17q20 0 31.5 -12t11.5 -32z" />
    <glyph glyph-name="Idotaccent" unicode="&#x130;" horiz-adv-x="275" 
d="M125 0h-72l120 757h72zM274 878q0 -22 -16 -37.5t-39 -15.5q-17 0 -28.5 12t-11.5 29q0 21 17.5 37.5t37.5 16.5q18 0 29 -12t11 -30z" />
    <glyph glyph-name="IJ" unicode="&#x132;" horiz-adv-x="549" 
d="M125 0h-72l120 757h72zM167 -262l-17 64q66 25 99.5 53t54.5 78.5t36 143.5l108 680h71l-108 -685q-17 -107 -45 -168.5t-72 -96.5t-127 -69z" />
    <glyph glyph-name="ij" unicode="&#x133;" horiz-adv-x="453" 
d="M98 0h-66l76 481h66zM216 635q0 -24 -17.5 -41t-41.5 -17q-18 0 -30 12.5t-12 31.5q0 24 18 41t41 17q19 0 30.5 -12t11.5 -32zM147 -267l-19 53q24 10 38.5 18t27.5 16t21.5 24t14.5 27t12 41.5t10 52t12 72.5l70 444h67l-70 -440q-25 -159 -55.5 -214t-128.5 -94z
M383 577q-19 0 -30.5 12.5t-11.5 30.5q0 25 17 42t42 17q18 0 29.5 -12.5t11.5 -31.5q0 -24 -17.5 -41t-40.5 -17z" />
    <glyph glyph-name="Jcircumflex" unicode="&#x134;" horiz-adv-x="274" 
d="M-107 -262l-17 64q65 25 99 53t54.5 78t35.5 144l108 680h71l-108 -685q-17 -107 -45 -168.5t-72 -96.5t-126 -69zM401 847l-40 -35l-134 67l-161 -68l-22 37l194 102h1z" />
    <glyph glyph-name="jcircumflex" unicode="&#x135;" horiz-adv-x="227" 
d="M-78 -267l-19 53q21 9 34 14.5t26 16t20 16.5t14.5 23.5t11.5 28t10 39.5t9 48.5t10 64.5l70 444h67l-70 -440q-9 -57 -15 -89t-16 -67t-21.5 -53.5t-30 -38.5t-42 -33t-58.5 -27zM302 618l-43 -36l-91 96l-120 -96l-32 36l164 134h1z" />
    <glyph glyph-name="Kcommaaccent" unicode="&#x136;" horiz-adv-x="623" 
d="M217 -232h-73l114 190h79zM593 0h-103l-310 350l-55 -350h-72l120 757h72l-53 -336l370 336h96l-414 -376z" />
    <glyph glyph-name="kcommaaccent" unicode="&#x137;" horiz-adv-x="452" 
d="M122 -232h-72l114 190h78zM409 0h-79l-196 245l-40 -245h-66l130 820h66l-84 -533l205 194h86l-235 -215z" />
    <glyph glyph-name="kgreenlandic" unicode="&#x138;" horiz-adv-x="454" 
d="M409 0h-79l-196 245l-40 -245h-66l76 481h66l-30 -194l205 194h86l-235 -215z" />
    <glyph glyph-name="Lacute" unicode="&#x139;" horiz-adv-x="496" 
d="M431 1h-378l120 756h72l-110 -692h306zM387 881l-255 -45l-10 47l251 64z" />
    <glyph glyph-name="lacute" unicode="&#x13a;" horiz-adv-x="231" 
d="M100 0h-66l130 820h66zM360 1034l-172 -145l-35 27l155 163z" />
    <glyph glyph-name="Lcommaaccent" unicode="&#x13b;" horiz-adv-x="497" 
d="M431 1h-378l120 756h72l-110 -692h306zM167 -232h-72l114 190h78z" />
    <glyph glyph-name="lcommaaccent" unicode="&#x13c;" horiz-adv-x="231" 
d="M100 0h-66l130 820h66zM23 -232h-72l113 190h79z" />
    <glyph glyph-name="Lcaron" unicode="&#x13d;" horiz-adv-x="498" 
d="M431 1h-378l120 756h72l-110 -692h306zM435 615h-53l96 197h73z" />
    <glyph glyph-name="lcaron" unicode="&#x13e;" horiz-adv-x="250" 
d="M100 0h-66l130 820h66zM309 570h-54l97 197h72z" />
    <glyph glyph-name="Ldot" unicode="&#x13f;" horiz-adv-x="522" 
d="M431 1h-378l120 756h72l-110 -692h306zM491 391q0 -23 -18.5 -41t-42.5 -18q-19 0 -31.5 13.5t-12.5 31.5q0 24 18.5 41.5t42.5 17.5q19 0 31.5 -13t12.5 -32z" />
    <glyph glyph-name="ldot" unicode="&#x140;" horiz-adv-x="365" 
d="M100 0h-66l130 820h66zM363 390q0 -23 -18.5 -41t-43.5 -18q-19 0 -31.5 13.5t-12.5 32.5q0 24 18.5 41t42.5 17q19 0 32 -13t13 -32z" />
    <glyph glyph-name="Lslash" unicode="&#x141;" horiz-adv-x="498" 
d="M437 1h-382l37 232l-82 -49l11 70l82 50l72 453h72l-65 -409l142 86l-11 -70l-142 -86l-34 -215h310z" />
    <glyph glyph-name="lslash" unicode="&#x142;" horiz-adv-x="264" 
d="M114 0h-66l38 240l-75 -50l11 69l75 50l81 511h66l-74 -466l84 58l-11 -69l-84 -58z" />
    <glyph glyph-name="Nacute" unicode="&#x143;" horiz-adv-x="822" 
d="M652 865l-256 -45l-11 47l251 64zM669 -25l-452 616l-93 -591h-72l123 776l452 -618l95 599h72z" />
    <glyph glyph-name="nacute" unicode="&#x144;" horiz-adv-x="535" 
d="M453 728l-173 -145l-34 27l154 163zM414 0h-66l45 284q12 77 -4 112.5t-83 35.5q-82 0 -154 -64l-58 -368h-66l76 481h66l-8 -51q82 64 168 64q77 0 113 -44.5t21 -134.5z" />
    <glyph glyph-name="Ncommaaccent" unicode="&#x145;" horiz-adv-x="822" 
d="M295 -232h-72l114 190h78zM669 -25l-452 616l-93 -591h-72l123 776l452 -618l95 599h72z" />
    <glyph glyph-name="ncommaaccent" unicode="&#x146;" horiz-adv-x="535" 
d="M142 -232h-73l114 190h79zM414 0h-66l45 284q12 77 -4 112.5t-83 35.5q-82 0 -154 -64l-58 -368h-66l76 481h66l-8 -51q82 64 168 64q77 0 113 -44.5t21 -134.5z" />
    <glyph glyph-name="Ncaron" unicode="&#x147;" horiz-adv-x="822" 
d="M695 901l-193 -101l-160 101l34 33l139 -69l150 67zM669 -25l-452 616l-93 -591h-72l123 776l452 -618l95 599h72z" />
    <glyph glyph-name="ncaron" unicode="&#x148;" horiz-adv-x="535" 
d="M481 712l-173 -134l-133 134l43 37l100 -96l133 96zM414 0h-66l45 284q12 77 -4 112.5t-83 35.5q-82 0 -154 -64l-58 -368h-66l76 481h66l-8 -51q82 64 168 64q77 0 113 -44.5t21 -134.5z" />
    <glyph glyph-name="napostrophe" unicode="&#x149;" horiz-adv-x="673" 
d="M136 467h-74l116 190h80zM552 0h-66l45 284q12 77 -4 112.5t-83 35.5q-82 0 -154 -64l-58 -368h-66l76 481h66l-8 -51q82 64 168 64q77 0 113 -44.5t21 -134.5z" />
    <glyph glyph-name="Eng" unicode="&#x14a;" horiz-adv-x="823" 
d="M441 -262l-17 64q93 36 129.5 83t57.5 168l-395 538l-92 -591h-72l123 776l452 -618l95 599h71l-108 -685q-17 -107 -45 -168.5t-72 -96.5t-127 -69z" />
    <glyph glyph-name="eng" unicode="&#x14b;" horiz-adv-x="535" 
d="M237 -267l-19 53q24 10 38.5 18t27.5 16t21.5 24t14.5 27t12 41.5t10 52t12 72.5l39 247q13 83 -4.5 115.5t-92.5 32.5q-42 0 -81 -20.5t-63 -43.5l-58 -368h-66l76 481h66l-8 -51q80 64 164 64q167 0 138 -179l-44 -274q-9 -57 -15 -89t-16 -67t-21.5 -53.5t-30 -38.5
t-42 -33t-58.5 -27z" />
    <glyph glyph-name="Omacron" unicode="&#x14c;" horiz-adv-x="873" 
d="M700 867h-347l9 58h347zM391 -13q-146 0 -238 96.5t-92 247.5q0 123 64 225.5t166 158.5t216 56q148 0 237.5 -95t89.5 -246q0 -95 -38.5 -179.5t-100.5 -141t-142 -89.5t-162 -33zM400 51q90 0 172.5 49t134 136.5t51.5 188.5q0 123 -72.5 201.5t-188.5 78.5
q-90 0 -173 -48.5t-134.5 -134t-51.5 -184.5q0 -120 72 -203.5t190 -83.5z" />
    <glyph glyph-name="omacron" unicode="&#x14d;" horiz-adv-x="583" 
d="M510 591h-347l9 58h347zM245 -12q-95 0 -153.5 61t-58.5 161q0 124 85.5 204t199.5 80q98 0 154.5 -62.5t56.5 -159.5q0 -123 -85.5 -203.5t-198.5 -80.5zM255 45q82 0 142.5 64t60.5 158q0 75 -41 122t-109 47q-84 0 -145.5 -66t-61.5 -158q0 -74 43 -120.5t111 -46.5z
" />
    <glyph glyph-name="Obreve" unicode="&#x14e;" horiz-adv-x="873" 
d="M641 980h67q-13 -63 -65 -114t-131 -51q-64 0 -102.5 43.5t-32.5 121.5h71q-3 -6 -1 -24t6 -36.5t21.5 -33t45.5 -14.5q34 0 59.5 15t38 36.5t17.5 35.5t6 21zM391 -13q-146 0 -238 96.5t-92 247.5q0 123 64 225.5t166 158.5t216 56q148 0 237.5 -95t89.5 -246
q0 -95 -38.5 -179.5t-100.5 -141t-142 -89.5t-162 -33zM400 51q90 0 172.5 49t134 136.5t51.5 188.5q0 123 -72.5 201.5t-188.5 78.5q-90 0 -173 -48.5t-134.5 -134t-51.5 -184.5q0 -120 72 -203.5t190 -83.5z" />
    <glyph glyph-name="obreve" unicode="&#x14f;" horiz-adv-x="583" 
d="M456 729h67q-12 -63 -64 -114t-131 -51q-64 0 -102.5 43.5t-32.5 121.5h70q-3 -6 -1 -24t6 -36.5t22 -33t46 -14.5q34 0 59.5 15t37.5 36.5t17 35.5t6 21zM245 -12q-95 0 -153.5 61t-58.5 161q0 124 85.5 204t199.5 80q98 0 154.5 -62.5t56.5 -159.5q0 -123 -85.5 -203.5
t-198.5 -80.5zM255 45q82 0 142.5 64t60.5 158q0 75 -41 122t-109 47q-84 0 -145.5 -66t-61.5 -158q0 -74 43 -120.5t111 -46.5z" />
    <glyph glyph-name="Ohungarumlaut" unicode="&#x150;" horiz-adv-x="873" 
d="M584 935l-196 -115l-23 31l178 133zM767 935l-196 -115l-23 31l178 133zM391 -13q-146 0 -238 96.5t-92 247.5q0 123 64 225.5t166 158.5t216 56q148 0 237.5 -95t89.5 -246q0 -95 -38.5 -179.5t-100.5 -141t-142 -89.5t-162 -33zM400 51q90 0 172.5 49t134 136.5
t51.5 188.5q0 123 -72.5 201.5t-188.5 78.5q-90 0 -173 -48.5t-134.5 -134t-51.5 -184.5q0 -120 72 -203.5t190 -83.5z" />
    <glyph glyph-name="ohungarumlaut" unicode="&#x151;" horiz-adv-x="583" 
d="M381 694l-196 -115l-23 31l178 133zM564 694l-196 -115l-23 31l178 133zM245 -12q-95 0 -153.5 61t-58.5 161q0 124 85.5 204t199.5 80q98 0 154.5 -62.5t56.5 -159.5q0 -123 -85.5 -203.5t-198.5 -80.5zM255 45q82 0 142.5 64t60.5 158q0 75 -41 122t-109 47
q-84 0 -145.5 -66t-61.5 -158q0 -74 43 -120.5t111 -46.5z" />
    <glyph glyph-name="OE" unicode="&#x152;" horiz-adv-x="1187" 
d="M1102 1h-407l25 155q-58 -86 -146 -127.5t-185 -41.5q-143 0 -235 97.5t-92 241.5q0 127 64 230t166.5 159t220.5 56q94 0 169.5 -48t106.5 -133l26 166h377l-11 -64h-305l-39 -254h244l-10 -65h-245l-48 -308h335zM392 51q148 0 257.5 109.5t109.5 264.5
q0 122 -72.5 201t-183.5 79q-145 0 -254.5 -108t-109.5 -259q0 -118 72 -202.5t181 -84.5z" />
    <glyph glyph-name="oe" unicode="&#x153;" horiz-adv-x="951" 
d="M832 107l24 -40q-27 -33 -82.5 -56t-117.5 -23q-141 0 -188 115q-41 -54 -100 -84.5t-123 -30.5q-95 0 -153.5 61t-58.5 161q0 124 85.5 204t199.5 80q66 0 114.5 -31t73.5 -84q38 54 95.5 84.5t124.5 30.5q71 0 115 -36t57 -89t2 -115l-3 -18h-375q-15 -92 24.5 -142
t124.5 -50q98 0 161 63zM255 45q82 0 142.5 64t60.5 158q0 75 -41 122t-109 47q-84 0 -145.5 -66t-61.5 -158q0 -74 43 -120.5t111 -46.5zM533 289h304q5 62 -24.5 105t-93.5 43q-60 0 -113 -39.5t-73 -108.5z" />
    <glyph glyph-name="Racute" unicode="&#x154;" horiz-adv-x="583" 
d="M508 882l-255 -45l-11 47l251 64zM553 0h-97l-236 300h-47l-48 -300h-72l120 757h141q45 0 83 -8.5t74 -28.5t57 -59.5t21 -95.5q0 -103 -67 -175.5t-179 -86.5zM182 363h56q115 0 174.5 56.5t59.5 138.5q0 134 -157 134h-80z" />
    <glyph glyph-name="racute" unicode="&#x155;" horiz-adv-x="332" 
d="M368 728l-173 -145l-34 27l154 163zM94 0h-66l76 481h66l-11 -69q11 23 44 52.5t67 29.5q42 0 75 -22l-40 -63q-26 20 -51 20q-38 0 -70.5 -36t-38.5 -71z" />
    <glyph glyph-name="Rcommaaccent" unicode="&#x156;" horiz-adv-x="584" 
d="M194 -232h-73l115 190h78zM553 0h-97l-236 300h-47l-48 -300h-72l120 757h141q45 0 83 -8.5t74 -28.5t57 -59.5t21 -95.5q0 -103 -67 -175.5t-179 -86.5zM182 363h56q115 0 174.5 56.5t59.5 138.5q0 134 -157 134h-80z" />
    <glyph glyph-name="rcommaaccent" unicode="&#x157;" horiz-adv-x="330" 
d="M37 -232h-72l113 190h79zM94 0h-66l76 481h66l-11 -69q11 23 44 52.5t67 29.5q42 0 75 -22l-40 -63q-26 20 -51 20q-38 0 -70.5 -36t-38.5 -71z" />
    <glyph glyph-name="Rcaron" unicode="&#x158;" horiz-adv-x="583" 
d="M550 938l-193 -101l-160 101l35 33l138 -69l150 67zM553 0h-97l-236 300h-47l-48 -300h-72l120 757h141q45 0 83 -8.5t74 -28.5t57 -59.5t21 -95.5q0 -103 -67 -175.5t-179 -86.5zM182 363h56q115 0 174.5 56.5t59.5 138.5q0 134 -157 134h-80z" />
    <glyph glyph-name="rcaron" unicode="&#x159;" horiz-adv-x="332" 
d="M94 0h-66l76 481h66l-11 -69q11 23 44 52.5t67 29.5q42 0 75 -22l-40 -63q-26 20 -51 20q-38 0 -70.5 -36t-38.5 -71zM400 712l-174 -134l-133 134l43 37l100 -96l133 96z" />
    <glyph glyph-name="Sacute" unicode="&#x15a;" 
d="M502 882l-255 -45l-11 47l252 64zM1 86l50 52q21 -32 63 -59t103 -27q76 0 126 44.5t50 116.5q0 50 -28.5 85.5t-68.5 58.5t-80.5 47t-69 65.5t-28.5 98.5q0 66 36 114t88.5 69.5t111.5 21.5q66 0 108.5 -24.5t61.5 -51.5l-47 -51q-50 62 -126 62q-62 0 -109 -36t-47 -96
q0 -43 28.5 -75t69 -54.5t81 -47.5t69 -68.5t28.5 -103.5q0 -104 -75.5 -172t-185.5 -68q-75 0 -131.5 30.5t-77.5 68.5z" />
    <glyph glyph-name="sacute" unicode="&#x15b;" horiz-adv-x="398" 
d="M385 728l-173 -145l-33 27l153 163zM-9 57l39 46q43 -62 118 -62q52 0 81.5 28.5t29.5 67.5q0 29 -19 51t-46 37t-54.5 31t-46.5 42.5t-19 61.5q0 59 46 97t115 38q47 0 81 -17t50 -39l-37 -48q-6 9 -16 19t-33 20.5t-49 10.5q-43 0 -65.5 -24t-22.5 -52q0 -23 19 -40.5
t46.5 -31.5t54.5 -30.5t46 -46t19 -68.5q0 -70 -53 -115.5t-133 -45.5q-56 0 -94 21t-57 49z" />
    <glyph glyph-name="Scedilla" unicode="&#x15e;" 
d="M166 -212h-64l101 164h75zM1 86l50 52q21 -32 63 -59t103 -27q76 0 126 44.5t50 116.5q0 50 -28.5 85.5t-68.5 58.5t-80.5 47t-69 65.5t-28.5 98.5q0 66 36 114t88.5 69.5t111.5 21.5q66 0 108.5 -24.5t61.5 -51.5l-47 -51q-50 62 -126 62q-62 0 -109 -36t-47 -96
q0 -43 28.5 -75t69 -54.5t81 -47.5t69 -68.5t28.5 -103.5q0 -104 -75.5 -172t-185.5 -68q-75 0 -131.5 30.5t-77.5 68.5z" />
    <glyph glyph-name="scedilla" unicode="&#x15f;" horiz-adv-x="398" 
d="M98 -212h-64l100 164h75zM-9 57l39 46q43 -62 118 -62q52 0 81.5 28.5t29.5 67.5q0 29 -19 51t-46 37t-54.5 31t-46.5 42.5t-19 61.5q0 59 46 97t115 38q47 0 81 -17t50 -39l-37 -48q-6 9 -16 19t-33 20.5t-49 10.5q-43 0 -65.5 -24t-22.5 -52q0 -23 19 -40.5t46.5 -31.5
t54.5 -30.5t46 -46t19 -68.5q0 -70 -53 -115.5t-133 -45.5q-56 0 -94 21t-57 49z" />
    <glyph glyph-name="Scaron" unicode="&#x160;" 
d="M543 914l-193 -101l-160 101l35 33l138 -69l151 67zM1 86l50 52q21 -32 63 -59t103 -27q76 0 126 44.5t50 116.5q0 50 -28.5 85.5t-68.5 58.5t-80.5 47t-69 65.5t-28.5 98.5q0 66 36 114t88.5 69.5t111.5 21.5q66 0 108.5 -24.5t61.5 -51.5l-47 -51q-50 62 -126 62
q-62 0 -109 -36t-47 -96q0 -43 28.5 -75t69 -54.5t81 -47.5t69 -68.5t28.5 -103.5q0 -104 -75.5 -172t-185.5 -68q-75 0 -131.5 30.5t-77.5 68.5z" />
    <glyph glyph-name="scaron" unicode="&#x161;" horiz-adv-x="398" 
d="M422 710l-174 -134l-132 134l42 37l101 -96l132 96zM-9 57l39 46q43 -62 118 -62q52 0 81.5 28.5t29.5 67.5q0 29 -19 51t-46 37t-54.5 31t-46.5 42.5t-19 61.5q0 59 46 97t115 38q47 0 81 -17t50 -39l-37 -48q-6 9 -16 19t-33 20.5t-49 10.5q-43 0 -65.5 -24t-22.5 -52
q0 -23 19 -40.5t46.5 -31.5t54.5 -30.5t46 -46t19 -68.5q0 -70 -53 -115.5t-133 -45.5q-56 0 -94 21t-57 49z" />
    <glyph glyph-name="Tcommaaccent" unicode="&#x162;" horiz-adv-x="530" 
d="M251 0h-72l110 692h-209l10 64h490l-10 -64h-209zM153 -232h-73l116 190h78z" />
    <glyph glyph-name="tcommaaccent" unicode="&#x163;" horiz-adv-x="302" 
d="M35 -232h-72l114 190h78zM127 0h-66l67 423h-85l9 57h85l27 172h66l-27 -172h111l-9 -57h-111z" />
    <glyph glyph-name="Tcaron" unicode="&#x164;" horiz-adv-x="530" 
d="M251 0h-72l110 692h-209l10 64h490l-10 -64h-209zM540 921l-194 -101l-160 101l35 33l139 -69l150 67z" />
    <glyph glyph-name="tcaron" unicode="&#x165;" horiz-adv-x="302" 
d="M331 575h-53l97 197h72zM126 0h-66l67 423h-85l9 57h85l27 172h66l-27 -172h111l-9 -57h-111z" />
    <glyph glyph-name="Tbar" unicode="&#x166;" horiz-adv-x="531" 
d="M252 0h-72l71 444h-140l9 58h140l30 190h-209l10 64h490l-10 -64h-209l-30 -190h142l-9 -58h-142z" />
    <glyph glyph-name="tbar" unicode="&#x167;" horiz-adv-x="303" 
d="M128 0h-66l43 274h-57l9 52h57l15 97h-85l9 57h85l27 172h66l-27 -172h111l-9 -57h-111l-15 -97h84l-9 -52h-84z" />
    <glyph glyph-name="Utilde" unicode="&#x168;" horiz-adv-x="728" 
d="M610 944l23 -46q-23 -23 -58.5 -45t-67.5 -22q-19 0 -55 24t-58 24q-27 0 -91 -49l-25 41q23 22 62.5 45t67.5 23q24 0 59.5 -24t51.5 -24q34 0 91 53zM528 109l103 648h72l-107 -673q-43 -44 -117 -70.5t-159 -26.5q-135 0 -193.5 72.5t-36.5 214.5l76 483h73l-72 -453
q-22 -137 17 -195t153 -58q124 0 191 58z" />
    <glyph glyph-name="utilde" unicode="&#x169;" 
d="M462 686l17 -37q-11 -12 -25 -24.5t-39.5 -26t-47.5 -13.5q-18 0 -51.5 22.5t-53.5 22.5q-32 0 -84 -46l-24 36q24 23 59 44.5t62 21.5q21 0 55 -23t49 -23q33 0 83 46zM359 83l63 398h66l-67 -427q-79 -66 -199 -66q-92 0 -138.5 46t-32.5 138l49 309h67l-47 -294
q-12 -74 13.5 -108t94.5 -34q75 0 131 38z" />
    <glyph glyph-name="Umacron" unicode="&#x16a;" horiz-adv-x="728" 
d="M626 867h-347l10 58h347zM528 109l103 648h72l-107 -673q-43 -44 -117 -70.5t-159 -26.5q-135 0 -193.5 72.5t-36.5 214.5l76 483h73l-72 -453q-22 -137 17 -195t153 -58q124 0 191 58z" />
    <glyph glyph-name="umacron" unicode="&#x16b;" 
d="M483 591h-347l9 58h347zM359 83l63 398h66l-67 -427q-79 -66 -199 -66q-92 0 -138.5 46t-32.5 138l49 309h67l-47 -294q-12 -74 13.5 -108t94.5 -34q75 0 131 38z" />
    <glyph glyph-name="Ubreve" unicode="&#x16c;" horiz-adv-x="728" 
d="M568 985h67q-12 -63 -64 -114t-132 -51q-63 0 -101.5 43.5t-32.5 121.5h70q-3 -6 -1 -24t5.5 -36.5t21.5 -33t46 -14.5t50.5 10.5t35 25t21 31.5t11 26.5t3.5 14.5zM528 109l103 648h72l-107 -673q-43 -44 -117 -70.5t-159 -26.5q-135 0 -193.5 72.5t-36.5 214.5l76 483
h73l-72 -453q-22 -137 17 -195t153 -58q124 0 191 58z" />
    <glyph glyph-name="ubreve" unicode="&#x16d;" 
d="M424 729h67q-13 -63 -64.5 -114t-131.5 -51q-63 0 -101.5 43.5t-32.5 121.5h70q-3 -6 -1 -24t6 -36.5t22 -33t46 -14.5q93 0 120 108zM359 83l63 398h66l-67 -427q-79 -66 -199 -66q-92 0 -138.5 46t-32.5 138l49 309h67l-47 -294q-12 -74 13.5 -108t94.5 -34
q75 0 131 38z" />
    <glyph glyph-name="Uring" unicode="&#x16e;" horiz-adv-x="728" 
d="M565 923q0 -49 -37.5 -85.5t-85.5 -36.5q-40 0 -65 26.5t-25 66.5q0 50 37.5 87t86.5 37q38 0 63.5 -27.5t25.5 -67.5zM450 845q26 0 48.5 23t22.5 51q0 23 -14.5 39.5t-36.5 16.5q-27 0 -49 -22t-22 -51q0 -24 14.5 -40.5t36.5 -16.5zM528 109l103 648h72l-107 -673
q-43 -44 -117 -70.5t-159 -26.5q-135 0 -193.5 72.5t-36.5 214.5l76 483h73l-72 -453q-22 -137 17 -195t153 -58q124 0 191 58z" />
    <glyph glyph-name="uring" unicode="&#x16f;" 
d="M431 704q0 -49 -37.5 -85.5t-86.5 -36.5q-39 0 -64.5 27t-25.5 66q0 50 38 87t87 37q38 0 63.5 -27.5t25.5 -67.5zM315 626q27 0 49.5 23t22.5 51q0 23 -14.5 39.5t-36.5 16.5q-27 0 -49 -22t-22 -51q0 -24 14.5 -40.5t35.5 -16.5zM359 83l63 398h66l-67 -427
q-79 -66 -199 -66q-92 0 -138.5 46t-32.5 138l49 309h67l-47 -294q-12 -74 13.5 -108t94.5 -34q75 0 131 38z" />
    <glyph glyph-name="Uhungarumlaut" unicode="&#x170;" horiz-adv-x="728" 
d="M527 932l-197 -115l-23 31l178 133zM707 932l-197 -115l-23 31l178 133zM528 109l103 648h72l-107 -673q-43 -44 -117 -70.5t-159 -26.5q-135 0 -193.5 72.5t-36.5 214.5l76 483h73l-72 -453q-22 -137 17 -195t153 -58q124 0 191 58z" />
    <glyph glyph-name="uhungarumlaut" unicode="&#x171;" 
d="M364 694l-196 -115l-23 31l178 133zM544 694l-196 -115l-23 31l178 133zM359 83l63 398h66l-67 -427q-79 -66 -199 -66q-92 0 -138.5 46t-32.5 138l49 309h67l-47 -294q-12 -74 13.5 -108t94.5 -34q75 0 131 38z" />
    <glyph glyph-name="Uogonek" unicode="&#x172;" horiz-adv-x="728" 
d="M419 -157l-9 -58q-33 -15 -80 -15q-44 0 -75 19.5t-31 59.5q0 75 103 138h-15q-128 0 -186.5 72.5t-36.5 214.5l76 483h73l-72 -453q-23 -140 16.5 -196.5t161.5 -56.5q118 0 183 58l103 648h72l-107 -673q-71 -71 -192 -89q-111 -65 -111 -125q0 -21 15.5 -33t41.5 -12
q23 0 70 18z" />
    <glyph glyph-name="uogonek" unicode="&#x173;" 
d="M336 -154l-9 -58q-33 -15 -80 -15q-45 0 -76 19.5t-31 59.5q0 75 98 137q-7 -1 -22 -1q-88 0 -133.5 47t-31.5 137l49 309h67l-47 -294q-12 -74 13.5 -108t95.5 -34q74 0 130 38l63 398h66l-67 -427q-41 -33 -87 -49q-35 -19 -58 -34.5t-45.5 -42.5t-22.5 -55
q0 -21 16 -33t41 -12q24 0 71 18z" />
    <glyph glyph-name="Wcircumflex" unicode="&#x174;" horiz-adv-x="975" 
d="M751 849l-41 -35l-134 67l-160 -68l-23 37l194 102h1zM662 -30l-130 567q-5 23 -4 44q-5 -22 -17 -44l-305 -566l-128 786h79l84 -563q2 -8 -1 -36q8 28 12 36l307 587l126 -586q2 -2 0.5 -20t-1.5 -20q6 25 13 40l258 562h79z" />
    <glyph glyph-name="wcircumflex" unicode="&#x175;" horiz-adv-x="699" 
d="M553 618l-43 -36l-102 96l-130 -96l-32 36l174 134h1zM450 -16h-19l-78 350l-189 -350h-19l-106 497h72l71 -353l195 366h8l77 -366l184 353h70z" />
    <glyph glyph-name="Ycircumflex" unicode="&#x176;" horiz-adv-x="545" 
d="M539 855l-40 -35l-134 67l-161 -68l-22 37l194 102h1zM257 0h-72l52 327l-172 430h80l135 -350q3 -8 2 -16q2 7 9 16l252 350h78l-312 -430z" />
    <glyph glyph-name="ycircumflex" unicode="&#x177;" horiz-adv-x="480" 
d="M437 618l-42 -36l-102 96l-131 -96l-32 36l175 134h1zM30 -258h-75l201 311l-120 428h74l95 -360l219 360h77z" />
    <glyph glyph-name="Ydieresis" unicode="&#x178;" horiz-adv-x="545" 
d="M603 886q0 -22 -16 -37.5t-39 -15.5q-17 0 -27.5 11.5t-10.5 27.5q0 23 15.5 39t37.5 16q18 0 29 -11.5t11 -29.5zM220 886q0 -21 -17 -37t-38 -16q-17 0 -27.5 11.5t-10.5 28.5q0 22 16 38t37 16q17 0 28.5 -12t11.5 -29zM257 0h-72l52 327l-172 430h80l135 -350
q3 -8 2 -16q2 7 9 16l252 350h78l-312 -430z" />
    <glyph glyph-name="Zacute" unicode="&#x179;" horiz-adv-x="577" 
d="M543 882l-257 -45l-10 47l251 64zM497 1h-537l517 691h-336l11 64h459l-518 -691h414z" />
    <glyph glyph-name="zacute" unicode="&#x17a;" horiz-adv-x="445" 
d="M426 728l-173 -145l-34 27l154 163zM357 1h-389l350 422h-238l9 57h353l-347 -422h271z" />
    <glyph glyph-name="Zdotaccent" unicode="&#x17b;" horiz-adv-x="577" 
d="M440 890q0 -22 -16 -37.5t-39 -15.5q-16 0 -27.5 12t-11.5 29q0 21 17 37.5t37 16.5q18 0 29 -12t11 -30zM497 1h-537l517 691h-336l11 64h459l-518 -691h414z" />
    <glyph glyph-name="zdotaccent" unicode="&#x17c;" horiz-adv-x="445" 
d="M317 637q0 -22 -16 -37.5t-39 -15.5q-16 0 -27.5 12t-11.5 29q0 21 17 37.5t37 16.5q18 0 29 -12t11 -30zM357 1h-389l350 422h-238l9 57h353l-347 -422h271z" />
    <glyph glyph-name="Zcaron" unicode="&#x17d;" horiz-adv-x="577" 
d="M566 914l-193 -101l-160 101l34 33l138 -69l151 67zM497 1h-537l517 691h-336l11 64h459l-518 -691h414z" />
    <glyph glyph-name="zcaron" unicode="&#x17e;" horiz-adv-x="445" 
d="M451 712l-174 -134l-132 134l42 37l101 -96l132 96zM357 1h-389l350 422h-238l9 57h353l-347 -422h271z" />
    <glyph glyph-name="longs" unicode="&#x17f;" horiz-adv-x="249" 
d="M124 0h-66l67 423h-77l9 57h77l21 134q15 101 60 152q46 52 123 52q57 0 87 -26l-36 -56q-34 21 -60 21q-84 0 -106 -136z" />
    <glyph glyph-name="florin" unicode="&#x192;" horiz-adv-x="286" 
d="M-89 -256l9 54q15 -6 33 -6q21 0 37 12.5t26.5 37.5t17.5 50.5t13 62.5l83 474h-83l9 55h84l9 66q21 157 61 227t130 70q7 0 47 -8l-11 -57q-24 4 -37 4q-20 0 -36 -7t-28 -25.5t-20 -34t-16 -49.5t-11.5 -54t-11 -65t-11.5 -67h88l-9 -55h-88l-87 -490q-17 -99 -53 -152
t-102 -53q-23 0 -43 10z" />
    <glyph glyph-name="uni01C0" unicode="&#x1c0;" horiz-adv-x="253" 
d="M114 0h-72l120 757h72z" />
    <glyph glyph-name="uni01C1" unicode="&#x1c1;" horiz-adv-x="463" 
d="M324 0h-72l120 757h72zM114 0h-72l120 757h72z" />
    <glyph glyph-name="uni01C2" unicode="&#x1c2;" horiz-adv-x="550" 
d="M254 0h-72l41 262h-180l10 63h180l22 141h-180l10 64h180l36 227h72l-36 -227h197l-10 -64h-197l-22 -141h197l-10 -63h-197z" />
    <glyph glyph-name="uni01C3" unicode="&#x1c3;" horiz-adv-x="241" 
d="M147 243h-72l82 514h72zM70 -10q-16 0 -27 12t-11 29q0 21 16.5 37t36.5 16q18 0 28.5 -11.5t10.5 -28.5q0 -22 -16 -38t-38 -16z" />
    <glyph glyph-name="AEacute" unicode="&#x1fc;" horiz-adv-x="884" 
d="M867 881l-256 -45l-10 47l251 64zM799 1h-406l35 217h-239l-160 -218h-83l557 756h386l-10 -64h-304l-41 -254h245l-10 -65h-245l-49 -308h334zM438 281l57 363l-258 -363h201z" />
    <glyph glyph-name="aeacute" unicode="&#x1fd;" horiz-adv-x="852" 
d="M625 728l-172 -145l-34 27l153 163zM734 107l24 -40q-29 -34 -83.5 -56.5t-117.5 -22.5q-107 0 -161 69q-82 -69 -210 -69q-90 0 -133 42t-43 107q0 59 35 102t82 61t97 18q41 0 79 -13.5t57 -40.5l11 67q8 48 -17 77t-89 29q-67 0 -133 -29l-17 50q79 36 159 36
q67 0 107.5 -24t50.5 -66q29 41 84 65.5t114 24.5q69 0 112.5 -36t56.5 -89t2 -115l-3 -18h-376q-15 -92 25.5 -142t126.5 -50q97 0 160 63zM369 103q-20 43 -17 105q-48 57 -124 57q-57 0 -102.5 -32t-45.5 -91q0 -48 32 -74t87 -26q83 0 170 61zM434 289h305q3 64 -27 106
t-93 42q-60 0 -113 -39t-72 -109z" />
    <glyph glyph-name="Oslashacute" unicode="&#x1fe;" horiz-adv-x="873" 
d="M648 883l-260 -45l-14 47l252 64zM201 -146l-56 19l83 152q-78 42 -122.5 122.5t-44.5 183.5q0 123 64 225.5t166 158.5t216 56q60 0 117 -19l72 133l56 -24l-73 -134q73 -42 114 -120t41 -177q0 -95 -38.5 -179.5t-100.5 -141t-142 -89.5t-162 -33q-52 0 -109 15z
M263 89l326 600q-45 16 -92 16q-90 0 -173 -48.5t-134.5 -134t-51.5 -184.5q0 -79 33 -145.5t92 -103.5zM643 662l-327 -598q38 -13 84 -13q90 0 172.5 49t134 136.5t51.5 188.5q0 77 -30.5 139t-84.5 98z" />
    <glyph glyph-name="oslashacute" unicode="&#x1ff;" horiz-adv-x="583" 
d="M459 728l-173 -145l-35 27l155 163zM81 -145l-47 20l89 146q-90 60 -90 189q0 124 85.5 204t199.5 80q46 0 82 -15l89 147l48 -23l-90 -149q82 -60 82 -182q0 -123 -85.5 -203.5t-198.5 -80.5q-41 0 -76 12zM158 78l209 347q-27 11 -59 11q-84 0 -145.5 -66t-61.5 -158
q0 -86 57 -134zM411 395l-209 -342q26 -8 53 -8q82 0 142.5 64t60.5 158q0 81 -47 128z" />
    <glyph glyph-name="dotlessj" unicode="&#x237;" horiz-adv-x="227" 
d="M-78 -267l-19 53q21 9 34 14.5t26 16t20 16.5t14.5 23.5t11.5 28t10 39.5t9 48.5t10 64.5l70 444h67l-70 -440q-25 -159 -55.5 -214t-127.5 -94z" />
    <glyph glyph-name="schwa" unicode="&#x259;" horiz-adv-x="531" 
d="M29 227l3 18h375q14 89 -27.5 140.5t-126.5 51.5q-93 0 -156 -63l-24 40q28 35 83 57.5t121 22.5q90 0 145.5 -58.5t55.5 -152.5q0 -126 -79.5 -210.5t-199.5 -84.5q-101 0 -143.5 70t-26.5 169zM396 192h-304q-5 -64 25 -106t93 -42q61 0 113 39t73 109z" />
    <glyph glyph-name="circumflex" unicode="&#x2c6;" horiz-adv-x="423" 
d="M467 618l-43 -36l-101 96l-132 -96l-32 36l175 134h1z" />
    <glyph glyph-name="caron" unicode="&#x2c7;" horiz-adv-x="423" 
d="M477 712l-174 -134l-133 134l43 37l101 -96l132 96z" />
    <glyph glyph-name="breve" unicode="&#x2d8;" horiz-adv-x="382" 
d="M406 729h68q-13 -63 -65 -114t-131 -51q-64 0 -102.5 43.5t-32.5 121.5h70q-3 -6 -1 -24t6 -36.5t22 -33t46 -14.5q34 0 59.5 15t37.5 36.5t17 35.5t6 21z" />
    <glyph glyph-name="dotaccent" unicode="&#x2d9;" horiz-adv-x="238" 
d="M265 637q0 -22 -16 -37.5t-39 -15.5q-16 0 -27.5 12t-11.5 29q0 21 17 37.5t38 16.5q18 0 28.5 -12t10.5 -30z" />
    <glyph glyph-name="ring" unicode="&#x2da;" horiz-adv-x="344" 
d="M400 704q0 -49 -38 -85.5t-87 -36.5q-39 0 -64 26.5t-25 66.5q0 50 37.5 87t86.5 37q39 0 64.5 -27.5t25.5 -67.5zM283 626q27 0 49 23t22 51q0 24 -14 40t-36 16q-27 0 -49 -22t-22 -51q0 -23 14.5 -40t35.5 -17z" />
    <glyph glyph-name="ogonek" unicode="&#x2db;" horiz-adv-x="568" 
d="M358 -152l-9 -58q-33 -15 -79 -15q-45 0 -76 19.5t-31 59.5q0 89 137 156h64q-37 -19 -61 -34.5t-48 -43.5t-24 -57q0 -21 16 -33t41 -12t70 18z" />
    <glyph glyph-name="tilde" unicode="&#x2dc;" horiz-adv-x="352" 
d="M437 686l19 -37q-60 -64 -113 -64q-19 0 -52 22.5t-53 22.5q-30 0 -85 -46l-23 36q22 22 57.5 44t62.5 22q22 0 55 -23t49 -23q33 0 83 46z" />
    <glyph glyph-name="hungarumlaut" unicode="&#x2dd;" horiz-adv-x="545" 
d="M390 694l-196 -115l-23 31l178 133zM570 694l-196 -115l-23 31l178 133z" />
    <glyph glyph-name="pi" unicode="&#x3c0;" horiz-adv-x="546" 
d="M416 0h-69l66 417h-245l-66 -417h-69l76 480h383z" />
    <glyph glyph-name="uni1E02" unicode="&#x1e02;" horiz-adv-x="606" 
d="M407 891q0 -21 -16.5 -37.5t-38.5 -16.5q-17 0 -28.5 11.5t-11.5 28.5q0 22 17 38.5t38 16.5q18 0 29 -11.5t11 -29.5zM240 0h-187l120 757h145q211 0 211 -151q0 -74 -44 -127t-101 -74q58 -9 103.5 -52.5t45.5 -124.5q0 -99 -76 -163.5t-217 -64.5zM192 421h58
q90 0 146.5 46.5t56.5 120.5q0 104 -133 104h-85zM135 65h122q95 0 147 46t52 114q0 61 -40 96t-108 35h-127z" />
    <glyph glyph-name="uni1E03" unicode="&#x1e03;" horiz-adv-x="566" 
d="M410 637q0 -22 -16 -37.5t-39 -15.5q-16 0 -27.5 12t-11.5 29q0 21 17 37.5t37 16.5q18 0 29 -12t11 -30zM34 52l122 768h66l-63 -393q82 67 175 67q86 0 132 -58.5t46 -153.5q0 -71 -26 -128.5t-69 -92.5t-95.5 -54t-107.5 -19q-109 0 -180 64zM149 360l-44 -276
q17 -16 50.5 -28t71.5 -12q87 0 150.5 64t63.5 168q0 75 -34.5 117.5t-92.5 42.5q-45 0 -91.5 -23t-73.5 -53z" />
    <glyph glyph-name="uni1E0A" unicode="&#x1e0a;" horiz-adv-x="718" 
d="M448 890q0 -22 -16.5 -37.5t-38.5 -15.5q-17 0 -28.5 11.5t-11.5 28.5q0 22 17 38.5t38 16.5q18 0 29 -12t11 -30zM222 0h-169l120 757h168q150 0 242.5 -83.5t92.5 -244.5q0 -189 -125.5 -309t-328.5 -120zM135 65h86q165 0 272 95t107 261q0 137 -74.5 204t-197.5 67
h-93z" />
    <glyph glyph-name="uni1E0B" unicode="&#x1e0b;" horiz-adv-x="564" 
d="M351 637q0 -22 -16 -37.5t-39 -15.5q-17 0 -28.5 11.5t-11.5 28.5q0 22 17 38.5t38 16.5q18 0 29 -12t11 -30zM390 85l44 282q-14 31 -49.5 50t-81.5 19q-86 0 -143 -66t-57 -162q0 -81 43 -122.5t111 -41.5q72 0 133 41zM446 442l60 378h66l-122 -768q-93 -64 -202 -64
q-93 0 -154 53t-61 161q0 125 80.5 208.5t195.5 83.5q88 0 137 -52z" />
    <glyph glyph-name="uni1E1E" unicode="&#x1e1e;" horiz-adv-x="503" 
d="M125 0h-72l120 756h370l-10 -64h-298l-41 -256h240l-10 -64h-240zM425 890q0 -22 -16 -37.5t-39 -15.5q-17 0 -28.5 12t-11.5 29q0 21 17.5 37.5t37.5 16.5q18 0 29 -12t11 -30z" />
    <glyph glyph-name="uni1E1F" unicode="&#x1e1f;" horiz-adv-x="309" 
d="M373 931q0 -22 -16 -37.5t-39 -15.5q-16 0 -27.5 12t-11.5 29q0 21 17 37.5t37 16.5q18 0 29 -12t11 -30zM124 0h-66l67 423h-77l9 57h77l21 134q15 101 60 152q46 52 123 52q57 0 87 -26l-36 -56q-34 21 -60 21q-84 0 -106 -136l-23 -141h115l-9 -57h-115z" />
    <glyph glyph-name="uni1E40" unicode="&#x1e40;" horiz-adv-x="933" 
d="M578 762q0 -22 -16 -37.5t-39 -15.5q-17 0 -28.5 12t-11.5 29q0 21 17 37.5t38 16.5q18 0 29 -12t11 -30zM818 0h-76l36 516q0 16 4 32q-2 -2 -8.5 -13.5t-7.5 -13.5l-352 -548l-183 548q-5 13 -8 27q0 -5 -6 -32l-125 -516h-75l203 778l210 -609q9 -27 8 -37q8 21 19 37
l404 609z" />
    <glyph glyph-name="uni1E41" unicode="&#x1e41;" horiz-adv-x="806" 
d="M502 637q0 -22 -16 -37.5t-39 -15.5q-16 0 -27.5 11.5t-11.5 28.5q0 22 17 38.5t38 16.5q18 0 28.5 -12t10.5 -30zM685 0h-66l50 314q10 62 -6.5 90t-68.5 28q-79 0 -149 -65q0 -14 -4 -44l-51 -323h-66l50 315q10 63 -8 90t-68 27q-75 0 -146 -63l-58 -369h-66l76 481
h66l-8 -51q81 64 163 64q85 0 112 -74q88 74 183 74q68 0 99 -43.5t17 -130.5z" />
    <glyph glyph-name="uni1E56" unicode="&#x1e56;" horiz-adv-x="550" 
d="M417 890q0 -22 -16.5 -37.5t-38.5 -15.5q-17 0 -28.5 11.5t-11.5 28.5q0 22 17 38.5t38 16.5q18 0 29 -12t11 -30zM125 0h-72l120 757h145q100 0 165.5 -45t65.5 -149q0 -111 -78 -188t-227 -77h-72zM182 363h61q104 0 166 53.5t62 138.5q0 69 -40 103t-105 34h-91z" />
    <glyph glyph-name="uni1E57" unicode="&#x1e57;" horiz-adv-x="564" 
d="M378 637q0 -22 -16 -37.5t-39 -15.5q-17 0 -28 11.5t-11 28.5q0 22 16.5 38.5t37.5 16.5q18 0 29 -12t11 -30zM51 -254h-65l108 685q94 63 202 63q93 0 153.5 -55.5t60.5 -161.5q0 -120 -75.5 -204.5t-185.5 -84.5q-96 0 -149 64zM154 395l-43 -270q17 -34 55 -57t83 -23
q76 0 133 63t57 158q0 80 -42 124.5t-112 44.5q-74 0 -131 -40z" />
    <glyph glyph-name="uni1E60" unicode="&#x1e60;" 
d="M421 890q0 -22 -16 -37.5t-39 -15.5q-16 0 -27.5 12t-11.5 29q0 21 17 37.5t37 16.5q18 0 29 -12t11 -30zM1 86l50 52q21 -32 63 -59t103 -27q76 0 126 44.5t50 116.5q0 50 -28.5 85.5t-68.5 58.5t-80.5 47t-69 65.5t-28.5 98.5q0 66 36 114t88.5 69.5t111.5 21.5
q66 0 108.5 -24.5t61.5 -51.5l-47 -51q-50 62 -126 62q-62 0 -109 -36t-47 -96q0 -43 28.5 -75t69 -54.5t81 -47.5t69 -68.5t28.5 -103.5q0 -104 -75.5 -172t-185.5 -68q-75 0 -131.5 30.5t-77.5 68.5z" />
    <glyph glyph-name="uni1E61" unicode="&#x1e61;" horiz-adv-x="398" 
d="M303 637q0 -22 -16 -37.5t-39 -15.5q-17 0 -28 11.5t-11 28.5q0 22 17 38.5t38 16.5q18 0 28.5 -12t10.5 -30zM-9 57l39 46q43 -62 118 -62q52 0 81.5 28.5t29.5 67.5q0 29 -19 51t-46 37t-54.5 31t-46.5 42.5t-19 61.5q0 59 46 97t115 38q47 0 81 -17t50 -39l-37 -48
q-6 9 -16 19t-33 20.5t-49 10.5q-43 0 -65.5 -24t-22.5 -52q0 -23 19 -40.5t46.5 -31.5t54.5 -30.5t46 -46t19 -68.5q0 -70 -53 -115.5t-133 -45.5q-56 0 -94 21t-57 49z" />
    <glyph glyph-name="uni1E6A" unicode="&#x1e6a;" horiz-adv-x="530" 
d="M251 0h-72l110 692h-209l10 64h490l-10 -64h-209zM403 890q0 -22 -16 -37.5t-39 -15.5q-16 0 -27.5 12t-11.5 29q0 21 17 37.5t37 16.5q18 0 29 -12t11 -30z" />
    <glyph glyph-name="uni1E6B" unicode="&#x1e6b;" horiz-adv-x="302" 
d="M210 742q-17 0 -28.5 11.5t-11.5 28.5q0 22 17 38.5t38 16.5q18 0 29 -11.5t11 -28.5q0 -22 -16 -38.5t-39 -16.5zM126 0h-66l67 423h-85l9 57h85l27 172h66l-27 -172h111l-9 -57h-111z" />
    <glyph glyph-name="Wgrave" unicode="&#x1e80;" horiz-adv-x="975" 
d="M667 837l-240 45l34 66l231 -64zM662 -30l-130 567q-5 23 -4 44q-5 -22 -17 -44l-305 -566l-128 786h79l84 -563q2 -8 -1 -36q8 28 12 36l307 587l126 -586q2 -2 0.5 -20t-1.5 -20q6 25 13 40l258 562h79z" />
    <glyph glyph-name="wgrave" unicode="&#x1e81;" horiz-adv-x="699" 
d="M458 610l-44 -27l-126 145l67 45zM450 -16h-19l-78 350l-189 -350h-19l-106 497h72l71 -353l195 366h8l77 -366l184 353h70z" />
    <glyph glyph-name="Wacute" unicode="&#x1e82;" horiz-adv-x="975" 
d="M721 882l-255 -45l-11 47l251 64zM662 -30l-130 567q-5 23 -4 44q-5 -22 -17 -44l-305 -566l-128 786h79l84 -563q2 -8 -1 -36q8 28 12 36l307 587l126 -586q2 -2 0.5 -20t-1.5 -20q6 25 13 40l258 562h79z" />
    <glyph glyph-name="wacute" unicode="&#x1e83;" horiz-adv-x="699" 
d="M537 728l-172 -145l-35 27l154 163zM450 -16h-19l-78 350l-189 -350h-19l-106 497h72l71 -353l195 366h8l77 -366l184 353h70z" />
    <glyph glyph-name="Wdieresis" unicode="&#x1e84;" horiz-adv-x="975" 
d="M804 764q0 -21 -16 -36.5t-40 -15.5q-17 0 -27.5 11t-10.5 28q0 21 16 37t36 16t31 -11.5t11 -28.5zM405 763q0 -21 -17 -36t-38 -15q-17 0 -28.5 11t-11.5 28q0 21 16.5 37t37.5 16q18 0 29.5 -12t11.5 -29zM662 -30l-130 567q-5 23 -4 44q-5 -22 -17 -44l-305 -566
l-128 786h79l84 -563q2 -8 -1 -36q8 28 12 36l307 587l126 -586q2 -2 0.5 -20t-1.5 -20q6 25 13 40l258 562h79z" />
    <glyph glyph-name="wdieresis" unicode="&#x1e85;" horiz-adv-x="699" 
d="M556 642q0 -22 -15.5 -37t-40.5 -15q-16 0 -26.5 11t-10.5 28q0 21 15.5 37t36.5 16q19 0 30 -11.5t11 -28.5zM340 641q0 -21 -16 -36t-38 -15q-17 0 -28.5 11.5t-11.5 28.5q0 21 17 36.5t38 15.5q17 0 28 -12t11 -29zM450 -16h-19l-78 350l-189 -350h-19l-106 497h72
l71 -353l195 366h8l77 -366l184 353h70z" />
    <glyph glyph-name="Ygrave" unicode="&#x1ef2;" horiz-adv-x="545" 
d="M408 770l-43 -27l-126 145l67 45zM257 0h-72l52 327l-172 430h80l135 -350q3 -8 2 -16q2 7 9 16l252 350h78l-312 -430z" />
    <glyph glyph-name="ygrave" unicode="&#x1ef3;" horiz-adv-x="480" 
d="M331 610l-45 -27l-126 145l67 45zM30 -258h-75l201 311l-120 428h74l95 -360l219 360h77z" />
    <glyph glyph-name="emdash" unicode="&#x2014;" horiz-adv-x="847" 
d="M754 218h-697l17 57h697z" />
    <glyph glyph-name="quoteleft" unicode="&#x2018;" horiz-adv-x="235" 
d="M165 560h-73l117 197h53z" />
    <glyph glyph-name="quoteright" unicode="&#x2019;" horiz-adv-x="232" 
d="M148 560h-53l96 197h73z" />
    <glyph glyph-name="quotesinglbase" unicode="&#x201a;" horiz-adv-x="231" 
d="M24 -77h-52l95 196h73z" />
    <glyph glyph-name="quotedblleft" unicode="&#x201c;" horiz-adv-x="384" 
d="M160 560h-68l117 197h53zM316 560h-69l110 197h53z" />
    <glyph glyph-name="quotedblright" unicode="&#x201d;" horiz-adv-x="381" 
d="M296 560h-53l102 197h68zM148 560h-53l94 197h69z" />
    <glyph glyph-name="quotedblbase" unicode="&#x201e;" horiz-adv-x="385" 
d="M174 -76h-53l102 196h68zM26 -76h-52l93 196h69z" />
    <glyph glyph-name="dagger" unicode="&#x2020;" horiz-adv-x="461" 
d="M220 55h-63l79 497h-140l9 57h140l33 206h63l-33 -206h144l-9 -57h-144z" />
    <glyph glyph-name="daggerdbl" unicode="&#x2021;" horiz-adv-x="480" 
d="M229 56h-63l31 193h-140l9 56h140l43 272h-140l9 56h140l29 187h63l-29 -187h144l-9 -56h-144l-43 -272h144l-9 -56h-144z" />
    <glyph glyph-name="bullet" unicode="&#x2022;" horiz-adv-x="454" 
d="M397 304q0 -56 -44 -98.5t-100 -42.5q-45 0 -75.5 31.5t-30.5 77.5q0 56 44.5 99t101.5 43q45 0 74.5 -32t29.5 -78z" />
    <glyph glyph-name="onedotenleader" unicode="&#x2024;" horiz-adv-x="234" 
d="M128 49q0 -23 -18 -41t-42 -18q-18 0 -31 13.5t-13 31.5q0 24 19 42t42 18q20 0 31.5 -12.5t11.5 -33.5z" />
    <glyph glyph-name="twodotenleader" unicode="&#x2025;" horiz-adv-x="464" 
d="M128 49q0 -23 -18 -41t-42 -18q-18 0 -31 13.5t-13 31.5q0 24 19 42t42 18q20 0 31.5 -12.5t11.5 -33.5zM358 49q0 -23 -18 -41t-42 -18q-18 0 -31 13.5t-13 31.5q0 24 19 42t42 18q20 0 31.5 -12.5t11.5 -33.5z" />
    <glyph glyph-name="ellipsis" unicode="&#x2026;" horiz-adv-x="661" 
d="M128 49q0 -23 -18 -41t-42 -18q-18 0 -31 13.5t-13 31.5q0 24 19 42t42 18q20 0 31.5 -12.5t11.5 -33.5zM342 49q0 -23 -18 -41t-42 -18q-18 0 -31 13.5t-13 31.5q0 24 18.5 42t42.5 18q20 0 31.5 -12.5t11.5 -33.5zM556 49q0 -24 -18 -41.5t-43 -17.5q-18 0 -30.5 13.5
t-12.5 31.5q0 24 18.5 42t41.5 18q21 0 32.5 -12.5t11.5 -33.5z" />
    <glyph glyph-name="perthousand" unicode="&#x2030;" horiz-adv-x="1159" 
d="M1086 157q0 -68 -51.5 -118t-117.5 -50q-52 0 -85.5 36.5t-33.5 90.5q0 69 50.5 119.5t115.5 50.5q53 0 87.5 -37t34.5 -92zM926 38q43 0 74.5 33.5t31.5 79.5q0 36 -20.5 60t-54.5 24q-42 0 -74 -34t-32 -79q0 -36 21 -60t54 -24zM203 -21l-42 18l427 766l41 -18z
M387 633q0 -68 -51.5 -118.5t-117.5 -50.5q-53 0 -86 36.5t-33 91.5q0 69 50.5 119.5t116.5 50.5q53 0 87 -37t34 -92zM228 515q42 0 74.5 33.5t32.5 78.5q0 36 -21 60t-55 24q-42 0 -74 -33.5t-32 -78.5q0 -36 21 -60t54 -24zM542 -11q-53 0 -86 36t-33 91q0 69 50 119.5
t116 50.5q53 0 87 -36.5t34 -91.5q0 -69 -51 -119t-117 -50zM551 38q42 0 74 33.5t32 79.5q0 36 -21 60t-54 24q-43 0 -75 -33.5t-32 -79.5q0 -36 21 -60t55 -24z" />
    <glyph glyph-name="guilsinglleft" unicode="&#x2039;" horiz-adv-x="297" 
d="M200 26h-66l-93 209l156 210h65l-159 -210z" />
    <glyph glyph-name="guilsinglright" unicode="&#x203a;" horiz-adv-x="298" 
d="M77 26h-68l163 209l-93 210h66l90 -210z" />
    <glyph glyph-name="fraction" unicode="&#x2044;" horiz-adv-x="136" 
d="M-128 -3l-41 19l460 747l41 -20z" />
    <glyph glyph-name="zero.sinf" unicode="&#x2080;" horiz-adv-x="418" 
d="M129 -188q-72 0 -101.5 48t-29.5 116q0 19 2 39.5t8 53.5t20 61t35 54t55.5 41.5t78.5 15.5q74 0 105 -47t31 -115q0 -27 -3 -55t-16 -68t-33.5 -70.5t-60 -52t-91.5 -21.5zM137 -137q62 0 95.5 63t33.5 149q0 29 -5.5 52.5t-24 43t-47.5 19.5q-61 0 -94 -61t-33 -149
q0 -46 17.5 -81.5t57.5 -35.5z" />
    <glyph glyph-name="one.sinf" unicode="&#x2081;" horiz-adv-x="238" 
d="M96 -180h-64l55 347l-75 -30l-13 49l164 59z" />
    <glyph glyph-name="two.sinf" unicode="&#x2082;" horiz-adv-x="390" 
d="M276 -179h-330q10 7 57.5 40.5t80.5 59.5t74 63t63 73t22 67q0 27 -18.5 46t-46.5 19q-54 0 -101 -45l-24 40q71 56 140 56q53 0 84 -31t31 -77q0 -122 -226 -261l202 2z" />
    <glyph glyph-name="three.sinf" unicode="&#x2083;" horiz-adv-x="360" 
d="M190 50v-1q70 -27 70 -101q0 -54 -51.5 -95.5t-130.5 -41.5q-48 0 -79.5 15t-44.5 30l35 45q9 -12 35.5 -24.5t61.5 -12.5q52 0 81.5 25.5t29.5 59.5q0 35 -32 57.5t-88 22.5l5 34q56 0 92 23.5t36 54.5q0 21 -16.5 34t-46.5 13q-45 0 -79 -23l-14 45q13 11 45.5 21
t66.5 10q51 0 80 -26t29 -61q0 -69 -85 -104z" />
    <glyph glyph-name="four.sinf" unicode="&#x2084;" horiz-adv-x="401" 
d="M232 -184h-62l13 85h-220l7 44l284 289h44l-45 -282h63l-8 -51h-63zM193 -50l31 195l-186 -195h155z" />
    <glyph glyph-name="five.sinf" unicode="&#x2085;" horiz-adv-x="359" 
d="M-45 -152l31 51q42 -32 89 -32q57 0 89.5 29t32.5 70q0 32 -23.5 53.5t-70.5 21.5q-37 0 -81 -13l91 205h183l-24 -50h-124l-47 -100q24 2 34 2q56 0 93 -32t37 -81q0 -64 -49.5 -111.5t-138.5 -47.5q-40 0 -73.5 11.5t-48.5 23.5z" />
    <glyph glyph-name="six.sinf" unicode="&#x2086;" horiz-adv-x="385" 
d="M225 280l37 -39q-123 -114 -157 -160q26 21 77 21q52 0 87.5 -35t35.5 -89q0 -69 -55.5 -117.5t-129.5 -48.5q-60 0 -99.5 38.5t-39.5 92.5q0 44 36.5 104t76.5 103t86 86zM241 -28q0 35 -25 57.5t-62 22.5q-41 0 -74.5 -30.5t-33.5 -72.5q0 -33 24 -58t60 -25
q44 0 77.5 31t33.5 75z" />
    <glyph glyph-name="seven.sinf" unicode="&#x2087;" horiz-adv-x="351" 
d="M32 -184h-69l261 361h-209l9 55h303z" />
    <glyph glyph-name="eight.sinf" unicode="&#x2088;" horiz-adv-x="394" 
d="M232 36q60 -28 60 -85q0 -56 -52.5 -97.5t-120.5 -41.5q-57 0 -95 32t-38 80q0 39 28 67.5t63 43.5q-25 10 -41 34.5t-16 50.5q0 60 52.5 97.5t116.5 37.5q57 0 93.5 -30t36.5 -79q0 -35 -26.5 -66.5t-60.5 -43.5zM225 -53q0 27 -22 46t-54 19q-39 0 -68.5 -24t-29.5 -57
q0 -28 21.5 -47t53.5 -19q39 0 69 24.5t30 57.5zM254 137q0 28 -21 46.5t-53 18.5q-38 0 -67 -23.5t-29 -55.5q0 -26 21 -45t54 -19q37 0 66 23.5t29 54.5z" />
    <glyph glyph-name="nine.sinf" unicode="&#x2089;" horiz-adv-x="388" 
d="M80 -221l-37 38q93 77 153 154q-27 -21 -72 -21q-56 0 -93.5 37t-37.5 91q0 64 55.5 113.5t129.5 49.5q63 0 101.5 -37.5t38.5 -91.5q0 -114 -230 -325zM252 107q0 33 -23.5 56.5t-59.5 23.5q-46 0 -78 -31.5t-32 -73.5q0 -35 22 -58.5t60 -23.5q47 0 79 31.5t32 75.5z
" />
    <glyph glyph-name="parenleft.sinf" unicode="&#x208d;" horiz-adv-x="185" 
d="M56 -283l-50 -18q-18 75 -18 185q0 221 114 419l44 -18q-38 -71 -70 -174.5t-32 -214.5q0 -90 12 -179z" />
    <glyph glyph-name="parenright.sinf" unicode="&#x208e;" horiz-adv-x="183" 
d="M-13 -301l-43 18q35 80 52.5 126t33 120t15.5 152q0 114 -13 170l50 18q16 -64 16 -183q0 -225 -111 -421z" />
    <glyph glyph-name="Euro" unicode="&#x20ac;" horiz-adv-x="673" 
d="M549 80l18 -59q-6 -4 -22.5 -11t-57 -14.5t-85.5 -7.5t-88 14.5t-83.5 45.5t-66 87.5t-27.5 131.5h-89l22 56h69q2 43 18 107h-72l21 55h68q42 123 128 200t214 77q101 0 160 -43l-40 -53q-57 33 -138 33q-92 0 -157 -59t-101 -155h288l-22 -55h-284q-15 -50 -18 -107
h288l-22 -56h-267q2 -63 24 -108.5t55 -68t65 -32.5t65 -10q36 0 69.5 7.5t48 14t19.5 10.5z" />
    <glyph glyph-name="uni2117" unicode="&#x2117;" horiz-adv-x="881" 
d="M401 36q95 0 181.5 52.5t139.5 143.5t53 195q0 125 -75.5 208t-196.5 83q-147 0 -261 -115.5t-114 -273.5q0 -125 75.5 -209t197.5 -84zM393 -16q-142 0 -232 97.5t-90 241.5q0 119 63 223t164.5 164.5t212.5 60.5q142 0 231.5 -97t89.5 -241q0 -89 -37 -172.5
t-97.5 -144t-141 -96.5t-163.5 -36zM377 111h-69l83 521h90q185 0 185 -137q0 -83 -61.5 -137.5t-171.5 -54.5h-26zM489 572h-39l-33 -209q85 0 130.5 30.5t45.5 90.5q0 88 -104 88z" />
    <glyph glyph-name="trademark" unicode="&#x2122;" horiz-adv-x="945" 
d="M266 387h-61l50 316q-19 0 -59 -0.5t-59 -0.5l9 55h297l-9 -55q-20 0 -59.5 0.5t-58.5 0.5zM876 387h-61l8 225l-179 -239l-104 239l-58 -225h-62l109 381l129 -295l226 294z" />
    <glyph glyph-name="estimated" unicode="&#x212e;" horiz-adv-x="840" 
d="M652 145l32 -53q-4 -4 -15.5 -13t-39.5 -26t-59.5 -31t-77.5 -24.5t-93 -10.5q-142 0 -232.5 94.5t-90.5 241.5q0 120 59.5 224t159 164t212.5 60q69 0 126 -23.5t99.5 -71.5t59 -130t0.5 -189h-638q-14 -135 54.5 -220t202.5 -85q38 0 77 9.5t65.5 21.5t50.5 27t34 23
t14 12zM166 423h561q13 140 -53 211.5t-176 71.5q-114 0 -206 -81t-126 -202z" />
    <glyph glyph-name="arrowleft" unicode="&#x2190;" horiz-adv-x="819" 
d="M826 343h-632l44 -105l-54 -22l-76 160l126 160l47 -20l-77 -107h632z" />
    <glyph glyph-name="arrowup" unicode="&#x2191;" horiz-adv-x="400" 
d="M232 -3h-66l106 668l-109 -65l-12 51l169 106l135 -106l-30 -52l-87 66z" />
    <glyph glyph-name="arrowright" unicode="&#x2192;" horiz-adv-x="819" 
d="M704 216l-48 22l78 105h-632l10 66h632l-43 107l54 20l75 -160z" />
    <glyph glyph-name="arrowdown" unicode="&#x2193;" horiz-adv-x="400" 
d="M368 102l-169 -105l-135 105l28 51l89 -65l106 669h66l-106 -669l107 66z" />
    <glyph glyph-name="arrowboth" unicode="&#x2194;" horiz-adv-x="838" 
d="M724 216l-48 22l78 105h-560l44 -105l-54 -22l-76 160l126 160l47 -20l-77 -107h560l-43 107l53 20l76 -160z" />
    <glyph glyph-name="arrowupdn" unicode="&#x2195;" horiz-adv-x="400" 
d="M366 91l-169 -105l-135 105l30 52l87 -66l94 597l-107 -66l-14 52l169 106l135 -106l-28 -51l-89 65l-94 -597l109 65z" />
    <glyph glyph-name="uni2196" unicode="&#x2196;" horiz-adv-x="678" 
d="M658 132l-54 -47l-371 473l-47 -122l-47 22l67 188l185 39l12 -53l-116 -27z" />
    <glyph glyph-name="uni2197" unicode="&#x2197;" horiz-adv-x="678" 
d="M710 458l-54 -22l-9 122l-520 -473l-40 47l521 473l-107 27l29 53l172 -39z" />
    <glyph glyph-name="uni2198" unicode="&#x2198;" horiz-adv-x="678" 
d="M620 124l-186 -39l-11 53l115 27l-371 473l54 47l372 -473l47 122l46 -22z" />
    <glyph glyph-name="uni2199" unicode="&#x2199;" horiz-adv-x="678" 
d="M295 85l-173 39l-7 188l53 22l9 -122l521 473l40 -47l-521 -473l106 -27z" />
    <glyph glyph-name="partialdiff" unicode="&#x2202;" horiz-adv-x="607" 
d="M272 775l65 31q74 -82 137.5 -240t63.5 -282q0 -122 -86 -209.5t-201 -87.5q-98 0 -154.5 62.5t-56.5 151.5q0 111 84.5 198.5t202.5 87.5q83 0 126 -61q-22 85 -74 190.5t-107 158.5zM259 43q79 0 142.5 62t63.5 161q0 70 -38 117t-108 47q-95 0 -153 -67t-58 -155
q0 -66 39.5 -115.5t111.5 -49.5z" />
    <glyph glyph-name="Delta" unicode="&#x2206;" horiz-adv-x="760" 
d="M671 0h-673l461 778zM574 65l-141 563l-320 -563h461z" />
    <glyph glyph-name="product" unicode="&#x220f;" horiz-adv-x="756" 
d="M597 0h-72l110 692h-391l-110 -692h-72l120 757h535z" />
    <glyph glyph-name="summation" unicode="&#x2211;" horiz-adv-x="635" 
d="M528 1h-524l348 377l-228 378h494l-10 -63h-362l197 -315l-297 -314h392z" />
    <glyph glyph-name="minus" unicode="&#x2212;" horiz-adv-x="670" 
d="M587 334h-498l9 59h498z" />
    <glyph glyph-name="radical" unicode="&#x221a;" horiz-adv-x="648" 
d="M133 -277l-126 559h73l84 -387l490 933h75z" />
    <glyph glyph-name="infinity" unicode="&#x221e;" horiz-adv-x="894" 
d="M418 181q-100 -144 -204 -144q-69 0 -112.5 56t-43.5 133q0 107 70 184t157 77q27 0 50 -11.5t37.5 -26.5t29 -44.5t22 -49.5t19.5 -57q27 44 47 71t50.5 57.5t66.5 45.5t78 15q60 0 99 -48.5t39 -129.5q0 -61 -22.5 -114t-57 -86.5t-74 -52.5t-76.5 -19q-63 0 -104 38
t-71 106zM463 244q25 -69 57 -106.5t87 -37.5q64 0 110 48.5t46 145.5q0 58 -27 95t-75 37q-28 0 -54 -13.5t-53 -44.5t-43.5 -54t-47.5 -70zM399 228q-4 10 -14.5 40.5t-15.5 42.5t-15 35.5t-17.5 33.5t-18.5 23t-23.5 18t-27.5 5q-53 0 -101 -53.5t-48 -137.5
q0 -70 34 -102.5t84 -32.5q48 0 86 33t77 95z" />
    <glyph glyph-name="integral" unicode="&#x222b;" horiz-adv-x="441" 
d="M135 -23l101 637q15 101 61 152q47 52 121 52q31 0 55.5 -9.5t31.5 -16.5l-36 -56q-29 21 -59 21q-85 0 -106 -128l-101 -637q-15 -100 -62 -152t-121 -52q-56 0 -86 26l37 56q25 -21 59 -21q84 0 105 128z" />
    <glyph glyph-name="approxequal" unicode="&#x2248;" horiz-adv-x="670" 
d="M512 273l68 -7q-30 -130 -127 -130q-47 0 -86 16t-61 35t-52 35t-61 16q-23 0 -40.5 -22t-22.5 -59l-65 6q10 60 46 96t84 36q41 0 77 -16t58 -35.5t54.5 -35.5t68.5 -16q46 0 59 81zM551 518l68 -7q-31 -130 -127 -130q-47 0 -86 16t-61 35t-52 35t-61 16
q-23 0 -40.5 -22t-22.5 -59l-65 6q10 60 46 96t84 36q42 0 77.5 -16t57 -35.5t54 -35.5t68.5 -16q47 0 60 81z" />
    <glyph glyph-name="notequal" unicode="&#x2260;" horiz-adv-x="644" 
d="M554 214h-256l-93 -214l-58 6l91 208h-184l10 61h204l71 165h-249l10 62h269l94 205l53 -10l-87 -195h171l-10 -62h-192l-69 -165h235z" />
    <glyph glyph-name="lessequal" unicode="&#x2264;" horiz-adv-x="628" 
d="M478 101l-389 274l6 37l474 257l23 -52l-414 -224l340 -242zM520 1h-500l9 59h500z" />
    <glyph glyph-name="greaterequal" unicode="&#x2265;" horiz-adv-x="621" 
d="M563 375l-475 -274l-24 50l416 242l-341 224l38 52l392 -257zM513 1h-500l9 59h500z" />
    <glyph glyph-name="triagup" unicode="&#x25b2;" horiz-adv-x="635" 
d="M645 0h-654l411 578z" />
    <glyph glyph-name="triagrt" unicode="&#x25ba;" horiz-adv-x="600" 
d="M657 360l-564 -364l115 723z" />
    <glyph glyph-name="triagdn" unicode="&#x25bc;" horiz-adv-x="635" 
d="M311 10l-228 579h655z" />
    <glyph glyph-name="triaglf" unicode="&#x25c4;" horiz-adv-x="600" 
d="M505 -4l-448 364l563 359z" />
    <glyph glyph-name="lozenge" unicode="&#x25ca;" horiz-adv-x="569" 
d="M234 -29h-1l-163 438l303 440h1l158 -440zM257 105l202 304l-106 305l-206 -305z" />
    <glyph glyph-name="ff" unicode="&#xfb00;" horiz-adv-x="619" 
d="M124 0h-66l67 423h-77l9 57h77l15 94q16 103 60 152q47 52 119 52q61 0 91 -26l-37 -56q-33 21 -62 21q-82 0 -103 -128l-17 -109h111l-9 -57h-111zM433 0h-66l67 423h-73l9 57h74l22 142q17 105 59 152q47 52 120 52q34 0 58 -9t32 -17l-36 -56q-33 21 -63 21
q-81 0 -102 -128l-25 -157h114l-9 -57h-114z" />
    <glyph glyph-name="fi" unicode="&#xfb01;" 
d="M407 0h-66l76 481h66zM524 629q0 -24 -18 -41t-41 -17q-17 0 -29.5 12.5t-12.5 31.5q0 24 17.5 41t41.5 17q18 0 30 -13t12 -31zM124 0h-66l67 423h-77l9 57h77l21 134q16 103 60 152q47 52 120 52q60 0 90 -26l-36 -56q-33 21 -63 21q-81 0 -102 -128l-24 -149h115
l-9 -57h-115z" />
    <glyph glyph-name="fl" unicode="&#xfb02;" horiz-adv-x="540" 
d="M409 0h-66l130 820h66zM124 0h-66l67 423h-77l9 57h77l19 121q16 103 60 152q47 52 120 52q60 0 90 -26l-36 -56q-33 21 -63 21q-81 0 -102 -128l-22 -136h110l-9 -57h-110z" />
    <glyph glyph-name="ffi" unicode="&#xfb03;" horiz-adv-x="842" 
d="M716 0h-66l76 481h66zM774 571q-19 0 -30.5 12.5t-11.5 31.5q0 23 18 40.5t41 17.5q18 0 29.5 -13t11.5 -31q0 -24 -17.5 -41t-40.5 -17zM124 0h-66l67 423h-77l9 57h77l15 94q16 103 60 152q47 52 119 52q61 0 91 -26l-37 -56q-33 21 -62 21q-82 0 -103 -128l-17 -109
h111l-9 -57h-111zM433 0h-66l67 423h-73l9 57h74l22 142q17 105 59 152q47 52 120 52q34 0 58 -9t32 -17l-36 -56q-33 21 -63 21q-81 0 -102 -128l-25 -157h114l-9 -57h-114z" />
    <glyph glyph-name="ffl" unicode="&#xfb04;" horiz-adv-x="849" 
d="M718 0h-66l130 820h66zM124 0h-66l67 423h-77l9 57h77l14 90q16 103 60 152q47 52 120 52q60 0 90 -26l-36 -56q-33 21 -63 21q-81 0 -102 -128l-17 -105h111l-9 -57h-111zM433 0h-66l67 423h-73l9 57h73l20 127q17 105 59 152q47 52 120 52q34 0 58 -9t32 -17l-36 -56
q-30 21 -62 21q-83 0 -102 -128l-22 -142h110l-9 -57h-111z" />
    <glyph glyph-name="o.sc" horiz-adv-x="660" 
d="M602 300q0 -131 -96.5 -220.5t-223.5 -89.5q-108 0 -173 67.5t-65 172.5q0 129 95.5 219t224.5 90q108 0 173 -66.5t65 -172.5zM292 51q96 0 166.5 71.5t70.5 171.5q0 81 -48 132t-128 51q-96 0 -166.5 -71t-70.5 -170q0 -78 47 -131.5t129 -53.5z" />
    <glyph glyph-name="n.sc" horiz-adv-x="647" 
d="M507 -18l-340 406l-59 -388h-69l87 543l340 -408l60 393h69z" />
    <glyph glyph-name="h.sc" horiz-adv-x="593" 
d="M456 0h-69l38 238h-278l-38 -238h-69l84 528h69l-36 -227h278l36 227h69z" />
    <glyph glyph-name="f_t.sc" horiz-adv-x="865" 
d="M109 0h-69l83 527h288l-9 -62l-219 1l-25 -159l177 1l-10 -63h-177zM626 0h-69l74 466l-164 -1l10 62h395l-10 -62l-162 1z" />
    <glyph glyph-name="f_j.sc" horiz-adv-x="662" 
d="M109 0h-69l83 527h288l-9 -62l-219 1l-25 -159l177 1l-10 -63h-177zM342 -181l-16 59q72 24 98.5 58.5t40.5 124.5l74 467h70l-75 -471q-18 -109 -56.5 -155.5t-135.5 -82.5z" />
    <glyph glyph-name="f.sc" horiz-adv-x="415" 
d="M109 0h-69l83 527h288l-9 -62l-219 1l-25 -159l177 1l-10 -63h-177z" />
    <glyph glyph-name="f.semp2" horiz-adv-x="297" 
d="M94 0h-66l97 614q16 103 60 152q47 52 120 52q60 0 90 -26l-36 -56q-33 21 -63 21q-81 0 -102 -128l-24 -150h133l-9 -57h-133z" />
    <glyph glyph-name="f_t.semp" horiz-adv-x="590" 
d="M55 -244h-65l135 858q16 103 60 152q47 52 119 52q61 0 91 -26l-37 -56q-33 21 -62 21q-82 0 -103 -128l-24 -150h134l-9 -57h-133zM391 0h-66l104 659h66l-28 -179h134l-9 -57h-134z" />
    <glyph glyph-name="f_j.semp" horiz-adv-x="523" 
d="M58 -229h-65l133 843q16 103 60 152q47 52 119 52q61 0 91 -26l-37 -56q-33 21 -63 21q-81 0 -102 -128l-24 -150h133l-9 -57h-133zM355 -250l-69 -15l119 746h66zM454 577q-20 0 -32 12.5t-12 31.5q0 24 17.5 41t40.5 17q20 0 32 -12.5t12 -31.5q0 -24 -17.5 -41
t-40.5 -17z" />
    <glyph glyph-name="five.osf" horiz-adv-x="500" 
d="M-43 -165l38 56q8 -21 53 -46t97 -25q72 0 127 50.5t55 129.5t-61 135.5t-172 79.5l134 284h240l-26 -63l-181 2l-85 -181q97 -23 157 -87t60 -160q0 -110 -77 -180.5t-181 -70.5q-65 0 -115 26.5t-63 49.5z" />
    <glyph glyph-name="seven.osf" horiz-adv-x="511" 
d="M31 -208h-76l464 651l-342 -1l10 63h447z" />
    <glyph glyph-name="zero.osf" horiz-adv-x="633" 
d="M264 -17q-94 0 -154.5 65.5t-60.5 163.5q0 123 91 213.5t209 90.5q94 0 155.5 -66.5t61.5 -164.5q0 -122 -91.5 -212t-210.5 -90zM276 47q89 0 156.5 68t67.5 161q0 73 -45.5 123t-115.5 50q-88 0 -155 -68.5t-67 -160.5q0 -74 44.5 -123.5t114.5 -49.5z" />
    <glyph glyph-name="three.osf" horiz-adv-x="526" 
d="M-46 -171l39 54q11 -23 51 -47t100 -24q90 0 144 56.5t54 128.5q0 67 -49 119.5t-131 56.5l6 37q94 6 150 55t56 105q0 38 -27.5 64t-79.5 26q-70 0 -127 -41l-16 51q21 18 68.5 36t96.5 18q73 0 114.5 -41.5t41.5 -101.5q0 -53 -35 -103.5t-106 -81.5v-2
q53 -25 80.5 -77.5t27.5 -113.5q0 -104 -76.5 -178t-197.5 -74q-122 0 -184 78z" />
    <glyph glyph-name="two.osf" horiz-adv-x="533" 
d="M429 0h-442l-7 28q4 2 41 18t85.5 39t88.5 45q89 50 140 103t51 118q0 49 -29 80t-77 31q-43 0 -87 -23.5t-69 -50.5l-29 44q19 18 43.5 36t70 36.5t88.5 18.5q73 0 116.5 -45.5t43.5 -118.5q0 -126 -152 -223q-79 -50 -150 -78l283 3z" />
    <glyph glyph-name="one.osf" horiz-adv-x="414" 
d="M331 0h-319l10 56l135 1l60 372l-114 -43l-11 54l207 76l-75 -458l116 1z" />
    <glyph glyph-name="Aogonek.semp" horiz-adv-x="669" 
d="M626 -152l-9 -58q-33 -15 -80 -15q-44 0 -75 19.5t-31 59.5q0 83 116 146l-40 156h-386l-90 -156h-80l461 778l215 -783q-62 -27 -95.5 -54.5t-33.5 -65.5q0 -21 16 -33t41 -12q24 0 71 18zM491 221l-103 399l-229 -399h332z" />
    <glyph glyph-name="Atilde.semp" horiz-adv-x="669" 
d="M578 943l24 -46q-23 -23 -59 -45t-68 -22q-19 0 -54.5 24t-57.5 24q-29 0 -90 -49l-25 41q23 22 62 45t67 23q24 0 59.5 -24t51.5 -24q22 0 49 18t41 35zM625 0h-78l-40 156h-386l-90 -156h-80l461 778zM491 221l-103 399l-229 -399h332z" />
    <glyph glyph-name="Aring.semp" horiz-adv-x="669" 
d="M541 925q0 -49 -38 -85.5t-87 -36.5q-39 0 -64 26.5t-25 66.5q0 50 37.5 87t86.5 37q39 0 64.5 -27.5t25.5 -67.5zM424 847q27 0 49 23t22 51q0 24 -14 40t-36 16q-27 0 -49 -22t-22 -51q0 -24 14 -40.5t36 -16.5zM625 0h-78l-40 156h-386l-90 -156h-80l461 778zM491 221
l-103 399l-229 -399h332z" />
    <glyph glyph-name="Agrave.semp" horiz-adv-x="669" 
d="M513 838l-245 45l44 66l230 -64zM625 0h-78l-40 156h-386l-90 -156h-80l461 778zM491 221l-103 399l-229 -399h332z" />
    <glyph glyph-name="Adieresis.semp" horiz-adv-x="669" 
d="M342 900q0 -21 -17.5 -37t-40.5 -16q-18 0 -30 12.5t-12 29.5q0 21 17.5 37t39.5 16q19 0 31 -12t12 -30zM593 901q0 -22 -17 -38t-41 -16q-18 0 -29.5 12t-11.5 29q0 22 16.5 38t39.5 16q20 0 31.5 -11.5t11.5 -29.5zM625 0h-78l-40 156h-386l-90 -156h-80l461 778z
M491 221l-103 399l-229 -399h332z" />
    <glyph glyph-name="Acircumflex.semp" horiz-adv-x="669" 
d="M592 850l-41 -35l-136 61l-161 -68l-22 37l195 102zM625 0h-78l-40 156h-386l-90 -156h-80l461 778zM491 221l-103 399l-229 -399h332z" />
    <glyph glyph-name="Aacute.semp" horiz-adv-x="669" 
d="M553 883l-260 -45l-13 47l250 64zM625 0h-78l-40 156h-386l-90 -156h-80l461 778zM491 221l-103 399l-229 -399h332z" />
    <glyph glyph-name="J.semp2" horiz-adv-x="437" 
d="M255 216l86 541h72l-88 -554q-18 -110 -79 -162.5t-145 -52.5q-59 0 -115 34l37 61q43 -31 91 -31q55 0 92 43t49 121z" />
    <glyph glyph-name="J.semp" horiz-adv-x="455" 
d="M273 216l75 476h-167l10 64h240l-88 -553q-18 -113 -78 -164t-145 -51q-67 0 -133 42l37 60q59 -38 107 -38q55 0 92 42.5t50 121.5z" />
    <glyph glyph-name="J.alt" horiz-adv-x="274" 
d="M-105 -277l-17 65q93 35 128 87.5t56 181.5l111 700h71l-112 -709q-13 -80 -30.5 -132t-48 -88.5t-65.5 -58t-93 -46.5z" />
    <glyph glyph-name="A.semp" horiz-adv-x="669" 
d="M625 0h-78l-40 156h-386l-90 -156h-80l461 778zM491 221l-103 399l-229 -399h332z" />
    <glyph glyph-name="g.sc" horiz-adv-x="634" 
d="M502 206l-142 -1l10 62h215q-10 -60 -32.5 -108t-51 -79t-64.5 -52t-71.5 -29.5t-73.5 -8.5q-109 0 -178.5 68t-69.5 175q0 129 98.5 217.5t232.5 88.5q118 0 190 -72l-44 -51q-7 8 -19 19t-50.5 26.5t-84.5 15.5q-108 0 -178 -71.5t-70 -166.5q0 -83 53.5 -136
t129.5 -53q69 0 127 44t73 112z" />
    <glyph glyph-name="a.sc" horiz-adv-x="537" 
d="M482 0h-73l-40 126h-252l-78 -126h-76l345 546zM349 189l-65 208l-128 -208h193z" />
    <glyph glyph-name="fl.sc" horiz-adv-x="824" 
d="M109 0h-69l83 527h288l-9 -62l-219 1l-25 -159l177 1l-10 -63h-177zM752 1h-297l83 527h69l-73 -465l228 1z" />
    <glyph glyph-name="ampersand.sc" horiz-adv-x="569" 
d="M524 0h-86l-61 85q-16 -28 -66.5 -61t-112.5 -33q-72 0 -121 47.5t-49 120.5q0 78 52.5 132t104.5 64q-26 35 -26 73q0 44 34 76.5t87 32.5q39 0 64.5 -16t34.5 -31l-46 -37q-20 32 -57 32q-23 0 -38 -16t-15 -39q0 -29 27 -67l192 1l-23 -51l-132 1zM348 127l-131 184
q-32 -4 -76.5 -43.5t-44.5 -102.5q0 -54 34.5 -87t82.5 -33q46 0 84.5 29.5t50.5 52.5z" />
    <glyph glyph-name="j.sc" horiz-adv-x="247" 
d="M-72 -181l-16 59q71 24 97.5 58.5t40.5 124.5l74 467h70l-75 -471q-18 -109 -56.5 -155.5t-134.5 -82.5z" />
    <glyph glyph-name="c.sc" horiz-adv-x="575" 
d="M466 102l24 -47q-84 -65 -193 -65q-114 0 -183.5 68.5t-69.5 174.5q0 127 97 216.5t232 89.5q117 0 181 -71l-46 -48q-49 57 -142 57q-103 0 -175.5 -70t-72.5 -169q0 -83 53 -135t138 -52q94 0 157 51z" />
    <glyph glyph-name="r.sc" horiz-adv-x="490" 
d="M444 0h-90l-211 212l-34 -212h-69l84 528h114q183 0 183 -137q0 -74 -49 -127t-136 -60zM150 259h39q77 0 118 34.5t41 88.5q0 83 -102 83h-63z" />
    <glyph glyph-name="m.sc" horiz-adv-x="733" 
d="M623 0h-69l18 324q0 1 1.5 11.5t2.5 14.5q-1 -2 -6.5 -11t-8.5 -13l-247 -345l-137 345q-6 16 -8 24q1 -8 -3 -26l-84 -324h-70l150 542l169 -409q4 -12 4 -20q2 12 9 20l301 409z" />
    <glyph glyph-name="i.sc" horiz-adv-x="246" 
d="M109 0h-69l84 528h69z" />
    <glyph glyph-name="l.sc" horiz-adv-x="409" 
d="M337 1h-297l83 527h69l-73 -465l228 1z" />
    <glyph glyph-name="d.sc" horiz-adv-x="576" 
d="M176 0h-136l84 528h127q120 0 192.5 -58.5t72.5 -165.5q0 -145 -93 -224.5t-247 -79.5zM119 63h60q120 0 191.5 59.5t71.5 173.5q0 79 -52 124t-136 45h-71z" />
    <glyph glyph-name="s.sc" horiz-adv-x="443" 
d="M1 66l46 47q16 -25 49 -44t77 -19q51 0 86 27t35 71q0 32 -21.5 55.5t-52 40t-61 34t-52 47.5t-21.5 71q0 69 53 106.5t127 37.5q93 0 137 -56l-41 -48q-41 45 -99 45q-42 0 -72.5 -22t-30.5 -59q0 -28 21.5 -49t52 -36.5t61 -33.5t52 -50t21.5 -76q0 -76 -57 -120.5
t-141 -44.5q-63 0 -107 23.5t-62 52.5z" />
    <glyph glyph-name="e.sc" horiz-adv-x="450" 
d="M357 1h-317l83 526h295l-10 -63l-226 1l-24 -153h181l-10 -63l-181 1l-29 -187l248 1z" />
    <glyph glyph-name="t.sc" horiz-adv-x="450" 
d="M211 0h-69l74 466l-164 -1l10 62h395l-10 -62l-162 1z" />
    <glyph glyph-name="u.sc" horiz-adv-x="582" 
d="M394 87l70 441h69l-75 -468q-75 -70 -218 -70q-99 0 -144.5 51t-29.5 151l53 336h69l-47 -298q-16 -104 10.5 -141.5t110.5 -37.5q85 0 132 36z" />
    <glyph glyph-name="q.sc" horiz-adv-x="659" 
d="M561 -24l-55 -50l-89 98q-65 -34 -140 -34q-103 0 -168 68t-65 169q0 132 95 222t227 90q106 0 171 -66.5t65 -170.5q0 -66 -32 -132.5t-99 -112.5zM529 294q0 81 -48 132t-125 51q-99 0 -169.5 -70.5t-70.5 -170.5q0 -77 47 -131t123 -54q102 0 172.5 71t70.5 172z" />
    <glyph glyph-name="uni1E1F.semp2" horiz-adv-x="297" 
d="M343 931q0 -21 -16 -37t-38 -16q-18 0 -29 11.5t-11 29.5q0 21 17 37.5t38 16.5q17 0 28 -12t11 -30zM94 0h-66l97 614q16 103 60 152q47 52 120 52q60 0 90 -26l-36 -56q-33 21 -63 21q-81 0 -102 -128l-24 -150h133l-9 -57h-133z" />
    <glyph glyph-name="uni1E1F.semp" horiz-adv-x="297" 
d="M343 931q0 -21 -16 -37t-38 -16q-18 0 -29 11.5t-11 29.5q0 21 17 37.5t38 16.5q17 0 28 -12t11 -30zM55 -244h-65l135 858q16 103 60 152q47 52 119 52q61 0 91 -26l-37 -56q-33 21 -62 21q-82 0 -103 -128l-24 -150h134l-9 -57h-133z" />
    <glyph glyph-name="amacron.alt" horiz-adv-x="557" 
d="M509 591h-347l10 58h347zM435 -1h-65l10 67q-27 -33 -73.5 -55t-96.5 -22q-82 0 -129.5 59.5t-47.5 155.5q0 70 26 126.5t69 91.5t94.5 53.5t105.5 18.5q98 0 175 -61zM391 134l42 266q-43 35 -116 35q-91 0 -153 -68t-62 -162q0 -74 39 -116.5t93 -42.5q45 0 90.5 28
t66.5 60z" />
    <glyph glyph-name="abreve.alt" horiz-adv-x="557" 
d="M446 729h67q-12 -63 -64 -114t-132 -51q-63 0 -101.5 43.5t-32.5 121.5h70q-3 -6 -1 -24t6 -36.5t21.5 -33t45.5 -14.5t50.5 10.5t35 25t21 31.5t11 26.5t3.5 14.5zM435 -1h-65l10 67q-27 -33 -73.5 -55t-96.5 -22q-82 0 -129.5 59.5t-47.5 155.5q0 70 26 126.5t69 91.5
t94.5 53.5t105.5 18.5q98 0 175 -61zM391 134l42 266q-43 35 -116 35q-91 0 -153 -68t-62 -162q0 -74 39 -116.5t93 -42.5q45 0 90.5 28t66.5 60z" />
    <glyph glyph-name="aogonek.alt" horiz-adv-x="557" 
d="M447 -152l-10 -58q-31 -15 -78 -15q-46 0 -77 19.5t-31 60.5q0 82 119 146l10 65q-27 -33 -73.5 -55t-96.5 -22q-82 0 -129.5 59.5t-47.5 155.5q0 70 26 126.5t69 91.5t94.5 53.5t105.5 18.5q98 0 175 -61l-69 -437q-25 -13 -37 -20t-34.5 -23t-33 -34.5t-10.5 -39.5
q0 -49 56 -49q25 0 72 18zM391 134l42 266q-43 35 -116 35q-91 0 -153 -68t-62 -162q0 -74 39 -116.5t93 -42.5q45 0 90.5 28t66.5 60z" />
    <glyph glyph-name="agrave.alt" horiz-adv-x="557" 
d="M392 610l-44 -27l-126 145l67 45zM435 -1h-65l10 67q-27 -33 -73.5 -55t-96.5 -22q-82 0 -129.5 59.5t-47.5 155.5q0 70 26 126.5t69 91.5t94.5 53.5t105.5 18.5q98 0 175 -61zM391 134l42 266q-43 35 -116 35q-91 0 -153 -68t-62 -162q0 -74 39 -116.5t93 -42.5
q45 0 90.5 28t66.5 60z" />
    <glyph glyph-name="aring.alt" horiz-adv-x="557" 
d="M452 704q0 -49 -38 -85.5t-87 -36.5q-39 0 -64 26.5t-25 66.5q0 50 37 87t86 37q39 0 65 -27.5t26 -67.5zM335 626q27 0 49 23t22 51q0 24 -14 40t-36 16q-28 0 -49.5 -22t-21.5 -51q0 -24 14 -40.5t36 -16.5zM435 -1h-65l10 67q-27 -33 -73.5 -55t-96.5 -22
q-82 0 -129.5 59.5t-47.5 155.5q0 70 26 126.5t69 91.5t94.5 53.5t105.5 18.5q98 0 175 -61zM391 134l42 266q-43 35 -116 35q-91 0 -153 -68t-62 -162q0 -74 39 -116.5t93 -42.5q45 0 90.5 28t66.5 60z" />
    <glyph glyph-name="atilde.alt" horiz-adv-x="557" 
d="M489 686l18 -37q-60 -64 -113 -64q-18 0 -51.5 22.5t-53.5 22.5q-30 0 -85 -46l-23 36q23 22 58.5 44t62.5 22q22 0 55 -23t48 -23q31 0 84 46zM435 -1h-65l10 67q-27 -33 -73.5 -55t-96.5 -22q-82 0 -129.5 59.5t-47.5 155.5q0 70 26 126.5t69 91.5t94.5 53.5
t105.5 18.5q98 0 175 -61zM391 134l42 266q-43 35 -116 35q-91 0 -153 -68t-62 -162q0 -74 39 -116.5t93 -42.5q45 0 90.5 28t66.5 60z" />
    <glyph glyph-name="adieresis.alt" horiz-adv-x="557" 
d="M271 641q0 -21 -17 -36t-38 -15q-17 0 -28.5 11.5t-11.5 28.5q0 21 17 36.5t38 15.5q17 0 28.5 -12t11.5 -29zM486 642q0 -22 -15.5 -37t-40.5 -15q-16 0 -26.5 11t-10.5 28q0 21 15.5 37t36.5 16q19 0 30 -11.5t11 -28.5zM435 -1h-65l10 67q-27 -33 -73.5 -55t-96.5 -22
q-82 0 -129.5 59.5t-47.5 155.5q0 70 26 126.5t69 91.5t94.5 53.5t105.5 18.5q98 0 175 -61zM391 134l42 266q-43 35 -116 35q-91 0 -153 -68t-62 -162q0 -74 39 -116.5t93 -42.5q45 0 90.5 28t66.5 60z" />
    <glyph glyph-name="acircumflex.alt" horiz-adv-x="557" 
d="M486 618l-42 -36l-102 96l-131 -96l-32 36l175 134h1zM435 -1h-65l10 67q-27 -33 -73.5 -55t-96.5 -22q-82 0 -129.5 59.5t-47.5 155.5q0 70 26 126.5t69 91.5t94.5 53.5t105.5 18.5q98 0 175 -61zM391 134l42 266q-43 35 -116 35q-91 0 -153 -68t-62 -162
q0 -74 39 -116.5t93 -42.5q45 0 90.5 28t66.5 60z" />
    <glyph glyph-name="Abreve.semp" horiz-adv-x="669" 
d="M542 976h68q-14 -63 -66 -114t-131 -51q-64 0 -102.5 43.5t-31.5 121.5h70q-3 -6 -1 -24t5.5 -36.5t21.5 -33t46 -14.5t50.5 11t34 24t21 32.5t11.5 25.5t4 15zM625 0h-78l-40 156h-386l-90 -156h-80l461 778zM491 221l-103 399l-229 -399h332z" />
    <glyph glyph-name="Amacron.semp" horiz-adv-x="669" 
d="M604 867h-358l10 58h358zM625 0h-78l-40 156h-386l-90 -156h-80l461 778zM491 221l-103 399l-229 -399h332z" />
    <glyph glyph-name="Jcircumflex.alt" horiz-adv-x="274" 
d="M-104 -277l-17 65q93 34 127.5 87t55.5 182l111 700h71l-112 -709q-13 -80 -30.5 -132t-48 -88.5t-65 -58t-92.5 -46.5zM402 847l-41 -35l-134 67l-160 -68l-23 37l194 102h1z" />
    <glyph glyph-name="Jcircumflex.semp" horiz-adv-x="454" 
d="M272 216l75 476h-167l10 64h240l-88 -553q-34 -215 -223 -215q-67 0 -133 42l37 60q59 -38 107 -38q55 0 92 42.5t50 121.5zM509 844l-41 -35l-133 67l-161 -68l-23 37l195 102h1z" />
    <glyph glyph-name="Jcircumflex.semp2" horiz-adv-x="437" 
d="M255 216l86 541h72l-88 -554q-18 -111 -78.5 -163t-145.5 -52q-59 0 -115 34l37 61q43 -31 91 -31q55 0 92 43t49 121zM566 844l-40 -35l-135 67l-160 -68l-23 37l195 102h1z" />
    <glyph glyph-name="Ygrave.alt" horiz-adv-x="545" 
d="M466 838l-241 45l35 66l231 -64zM257 0h-72l52 327l-172 430h80l135 -350q3 -8 2 -16q2 7 9 16l252 350h78l-312 -430z" />
    <glyph glyph-name="Yacute.alt" horiz-adv-x="545" 
d="M501 883l-255 -45l-11 47l250 64zM257 0h-72l52 327l-172 430h80l135 -350q3 -8 2 -16q2 7 9 16l252 350h78l-312 -430z" />
    <glyph glyph-name="IJ.alt" horiz-adv-x="549" 
d="M125 0h-72l120 757h72zM169 -277l-17 65q94 35 129 87.5t56 181.5l111 700h71l-112 -709q-13 -80 -30.5 -132t-48 -88.5t-65.5 -58t-94 -46.5z" />
    <glyph glyph-name="IJ.semp" horiz-adv-x="730" 
d="M125 0h-72l120 757h72zM548 216l75 476h-167l10 64h240l-88 -553q-18 -113 -78 -164t-145 -51q-67 0 -134 42l38 60q59 -38 107 -38q55 0 92 42.5t50 121.5z" />
    <glyph glyph-name="IJ.semp2" horiz-adv-x="712" 
d="M125 0h-72l120 757h72zM530 216l86 541h72l-88 -554q-18 -110 -79 -162.5t-145 -52.5q-58 0 -116 34l38 61q43 -31 91 -31q55 0 92 43t49 121z" />
    <glyph glyph-name="a.alt" horiz-adv-x="557" 
d="M435 -1h-65l10 67q-27 -33 -73.5 -55t-96.5 -22q-82 0 -129.5 59.5t-47.5 155.5q0 70 26 126.5t69 91.5t94.5 53.5t105.5 18.5q98 0 175 -61zM391 134l42 266q-43 35 -116 35q-91 0 -153 -68t-62 -162q0 -74 39 -116.5t93 -42.5q45 0 90.5 28t66.5 60z" />
    <glyph glyph-name="f.alt" horiz-adv-x="309" 
d="M85 -244h-66l106 667h-77l9 57h77l21 134q15 101 60 152q46 52 123 52q57 0 87 -26l-36 -56q-34 21 -60 21q-84 0 -106 -136l-23 -141h115l-9 -57h-115z" />
    <glyph glyph-name="f.semp" horiz-adv-x="297" 
d="M55 -244h-65l135 858q16 103 60 152q47 52 119 52q61 0 91 -26l-37 -56q-33 21 -62 21q-82 0 -103 -128l-24 -150h134l-9 -57h-133z" />
    <glyph glyph-name="j.semp" horiz-adv-x="226" 
d="M58 -250l-67 -15l117 746h66zM158 577q-19 0 -31 12t-12 31q0 25 17 42t41 17q19 0 30.5 -12.5t11.5 -31.5q0 -24 -16.5 -41t-40.5 -17z" />
    <glyph glyph-name="m.alt" horiz-adv-x="804" 
d="M683 0h-66l47 294q12 76 -6 108.5t-78 32.5q-79 0 -141 -48q5 -37 -2 -78l-49 -309h-66l47 294q12 74 -7 107.5t-80 33.5q-73 0 -127 -40l-63 -395h-66l68 431q95 63 198 63q89 0 122 -49q86 49 174 49q173 0 144 -185z" />
    <glyph glyph-name="n.alt" 
d="M414 0h-66l47 294q23 141 -107 141q-80 0 -133 -40l-63 -395h-66l68 431q95 63 202 63q91 0 136 -48.5t31 -136.5z" />
    <glyph glyph-name="longs.semp" horiz-adv-x="248" 
d="M85 -244h-66l106 666h-76l9 57h76l21 135q16 103 60 152q47 52 119 52q61 0 91 -26l-37 -56q-33 21 -62 21q-82 0 -103 -128z" />
    <glyph glyph-name="t.alt" horiz-adv-x="306" 
d="M231 43l-42 -52q-67 0 -97.5 32t-16.5 118l45 281h-82l9 58h82l27 172h66l-27 -172h113l-9 -58h-113l-43 -269q-4 -23 -3.5 -40.5t2.5 -29t9.5 -19.5t13 -12t19 -6t21.5 -2.5t26 -0.5z" />
    <glyph glyph-name="t.alt2" horiz-adv-x="321" 
d="M145 0h-66l67 423h-112l9 57h112l27 172h66l-27 -172h111l-9 -57h-111z" />
    <glyph glyph-name="t.semp" horiz-adv-x="293" 
d="M94 0h-66l104 659h66l-28 -179h134l-9 -57h-134z" />
    <glyph glyph-name="aacute.alt" horiz-adv-x="557" 
d="M457 728l-172 -145l-35 27l155 163zM435 -1h-65l10 67q-27 -33 -73.5 -55t-96.5 -22q-82 0 -129.5 59.5t-47.5 155.5q0 70 26 126.5t69 91.5t94.5 53.5t105.5 18.5q98 0 175 -61zM391 134l42 266q-43 35 -116 35q-91 0 -153 -68t-62 -162q0 -74 39 -116.5t93 -42.5
q45 0 90.5 28t66.5 60z" />
    <glyph glyph-name="napostrophe.alt" horiz-adv-x="674" 
d="M136 467h-74l116 190h80zM554 0h-66l47 294q23 141 -107 141q-80 0 -133 -40l-63 -395h-66l68 431q95 63 202 63q91 0 136 -48.5t31 -136.5z" />
    <glyph glyph-name="ntilde.alt" 
d="M466 690l18 -37q-17 -20 -49 -42t-63 -22q-19 0 -52 22.5t-53 22.5q-27 0 -85 -46l-23 36q24 23 58.5 44.5t61.5 21.5q21 0 55 -23t50 -23q36 0 82 46zM414 0h-66l47 294q23 141 -107 141q-80 0 -133 -40l-63 -395h-66l68 431q95 63 202 63q91 0 136 -48.5t31 -136.5z
" />
    <glyph glyph-name="ncommaaccent.alt" horiz-adv-x="535" 
d="M140 -232h-73l114 190h79zM414 0h-66l47 294q23 141 -107 141q-80 0 -133 -40l-63 -395h-66l68 431q95 63 202 63q91 0 136 -48.5t31 -136.5z" />
    <glyph glyph-name="ncaron.alt" 
d="M479 712l-173 -134l-133 134l43 37l100 -96l133 96zM414 0h-66l47 294q23 141 -107 141q-80 0 -133 -40l-63 -395h-66l68 431q95 63 202 63q91 0 136 -48.5t31 -136.5z" />
    <glyph glyph-name="nacute.alt" 
d="M451 728l-173 -145l-34 27l154 163zM414 0h-66l47 294q23 141 -107 141q-80 0 -133 -40l-63 -395h-66l68 431q95 63 202 63q91 0 136 -48.5t31 -136.5z" />
    <glyph glyph-name="uni1E41.alt" horiz-adv-x="804" 
d="M500 637q0 -22 -16 -37.5t-39 -15.5q-16 0 -27.5 11.5t-11.5 28.5q0 22 17 38.5t38 16.5q18 0 28.5 -12t10.5 -30zM683 0h-66l47 294q12 76 -6 108.5t-78 32.5q-79 0 -141 -48q5 -37 -2 -78l-49 -309h-66l47 294q12 74 -7 107.5t-80 33.5q-73 0 -127 -40l-63 -395h-66
l68 431q95 63 198 63q89 0 122 -49q86 49 174 49q173 0 144 -185z" />
    <glyph glyph-name="jcircumflex.semp" horiz-adv-x="226" 
d="M58 -250l-67 -15l117 746h66zM305 618l-43 -36l-93 96l-124 -96l-32 36l167 134h1z" />
    <glyph glyph-name="dotlessj.semp" horiz-adv-x="226" 
d="M58 -250l-67 -15l117 746h66z" />
    <glyph glyph-name="ldot.sc" horiz-adv-x="433" 
d="M377 282q0 -20 -17 -35.5t-38 -15.5q-16 0 -26.5 11.5t-10.5 27.5q0 22 15.5 37.5t36.5 15.5q17 0 28.5 -11.5t11.5 -29.5zM337 1h-297l83 527h69l-73 -465q38 0 114 0.5t114 0.5z" />
    <glyph glyph-name="lcommaaccent.sc" horiz-adv-x="410" 
d="M123 -232h-72l114 190h78zM337 1h-297l83 527h69l-73 -465q38 0 114 0.5t114 0.5z" />
    <glyph glyph-name="lcaron.sc" horiz-adv-x="421" 
d="M328 350h-58l94 200h79zM337 1h-297l83 527h69l-73 -465l228 1z" />
    <glyph glyph-name="lacute.sc" horiz-adv-x="408" 
d="M329 748l-173 -145l-34 27l154 163zM336 1h-296l83 527h69l-73 -465q38 0 113.5 0.5t113.5 0.5z" />
    <glyph glyph-name="lslash.sc" horiz-adv-x="412" 
d="M343 1h-300l25 160l-62 -34l10 66l63 35l48 300h69l-42 -260l139 73l-11 -66l-138 -73l-22 -139l231 1z" />
    <glyph glyph-name="kcommaaccent.sc" horiz-adv-x="517" 
d="M166 -232h-73l114 190h79zM468 0h-92l-231 228l-36 -228h-69l84 528h69l-36 -223l260 223h92l-313 -262z" />
    <glyph glyph-name="jcircumflex.sc.semp" horiz-adv-x="362" 
d="M391 640l-41 -36l-102 96l-131 -96l-32 36l175 134zM209 221l39 244h-140l9 62h209l-54 -342q-17 -108 -62 -152.5t-127 -44.5q-66 0 -111 38l27 58q40 -35 84 -35q58 0 84.5 40.5t41.5 131.5z" />
    <glyph glyph-name="jcircumflex.sc" horiz-adv-x="247" 
d="M-72 -181l-16 59q71 24 97.5 58.5t40.5 124.5l74 467h70l-75 -471q-18 -109 -56.5 -155.5t-134.5 -82.5zM330 640l-43 -36l-102 96l-131 -96l-31 36l175 134z" />
    <glyph glyph-name="itilde.sc" horiz-adv-x="246" 
d="M109 0h-69l84 528h69zM324 707l19 -37q-16 -20 -49 -42t-64 -22q-19 0 -52 22.5t-53 22.5q-27 0 -85 -46l-23 36q22 22 57.5 44t62.5 22q22 0 55.5 -23t48.5 -23q33 0 83 46z" />
    <glyph glyph-name="ibreve.sc" horiz-adv-x="246" 
d="M109 0h-69l84 528h69zM275 734h57q-11 -54 -55.5 -99t-111.5 -45q-55 0 -88 38t-27 106h60q1 -10 0 -30.5t15 -42t47 -21.5q28 0 50 13t32.5 32t15 31t5.5 18z" />
    <glyph glyph-name="iogonek.sc" horiz-adv-x="246" 
d="M117 -152l-9 -58q-33 -15 -79 -15q-44 0 -75 19.5t-31 59.5q0 82 117 147l83 527h70l-84 -532q-55 -26 -86.5 -54.5t-31.5 -66.5q0 -21 15.5 -33t40.5 -12t70 18z" />
    <glyph glyph-name="imacron.sc" horiz-adv-x="245" 
d="M109 0h-69l83 528h69zM336 596h-335l9 58h335z" />
    <glyph glyph-name="idotaccent.sc" horiz-adv-x="246" 
d="M109 0h-69l84 528h69zM222 637q0 -22 -16 -37.5t-39 -15.5q-16 0 -27.5 12t-11.5 29q0 21 17 37.5t38 16.5q18 0 28.5 -12t10.5 -30z" />
    <glyph glyph-name="igrave.sc" horiz-adv-x="246" 
d="M109 0h-69l84 528h69zM208 612l-44 -27l-79 147l68 45z" />
    <glyph glyph-name="idieresis.sc" horiz-adv-x="247" 
d="M145 638q0 -21 -17 -36t-38 -15q-16 0 -27 11t-11 28q0 21 16.5 37t36.5 16q17 0 28.5 -12t11.5 -29zM309 639q0 -22 -16 -37t-39 -15q-18 0 -28.5 11t-10.5 28q0 21 16 37t38 16q18 0 29 -11.5t11 -28.5zM110 0h-70l84 528h70z" />
    <glyph glyph-name="uni1E41.sc" horiz-adv-x="733" 
d="M623 0h-69l18 324q0 1 1.5 11.5t2.5 14.5q-1 -2 -6.5 -11t-8.5 -13l-247 -345l-137 344q-6 16 -8 24q1 -8 -3 -26l-84 -323h-70l150 542l169 -409q4 -12 4 -20q2 12 9 20l301 409zM464 628q0 -20 -17 -35.5t-39 -15.5q-16 0 -27 11.5t-11 27.5q0 22 16 37.5t37 15.5
q18 0 29.5 -11.5t11.5 -29.5z" />
    <glyph glyph-name="nacute.sc" horiz-adv-x="647" 
d="M511 748l-172 -145l-35 27l155 163zM507 -18l-340 406l-59 -388h-69l87 543l340 -408l60 393h69z" />
    <glyph glyph-name="ncaron.sc" horiz-adv-x="647" 
d="M546 738l-174 -134l-133 134l43 36l100 -96l133 96zM507 -18l-340 406l-59 -388h-69l87 543l340 -408l60 393h69z" />
    <glyph glyph-name="ncommaaccent.sc" horiz-adv-x="647" 
d="M220 -232h-73l114 190h79zM507 -18l-340 406l-59 -388h-69l87 543l340 -408l60 393h69z" />
    <glyph glyph-name="ntilde.sc" horiz-adv-x="647" 
d="M519 705l18 -37q-11 -12 -25.5 -24.5t-40 -26t-47.5 -13.5q-18 0 -51.5 22.5t-53.5 22.5q-32 0 -84 -46l-24 36q23 22 58.5 44t62.5 22q21 0 54 -23t49 -23q34 0 84 46zM507 -18l-340 406l-59 -388h-69l87 543l340 -408l60 393h69z" />
    <glyph glyph-name="napostrophe.sc" horiz-adv-x="667" 
d="M19 489h-72l113 190h79zM527 -18l-340 406l-59 -388h-69l87 543l340 -408l60 393h69z" />
    <glyph glyph-name="oacute.sc" horiz-adv-x="660" 
d="M527 748l-173 -145l-34 27l154 163zM602 300q0 -131 -96.5 -220.5t-223.5 -89.5q-108 0 -173 67.5t-65 172.5q0 129 95.5 219t224.5 90q108 0 173 -66.5t65 -172.5zM292 51q96 0 166.5 71.5t70.5 171.5q0 81 -48 132t-128 51q-96 0 -166.5 -71t-70.5 -170
q0 -78 47 -131.5t129 -53.5z" />
    <glyph glyph-name="ocircumflex.sc" horiz-adv-x="660" 
d="M535 640l-43 -36l-101 96l-132 -96l-30 36l174 134zM602 300q0 -131 -96.5 -220.5t-223.5 -89.5q-108 0 -173 67.5t-65 172.5q0 129 95.5 219t224.5 90q108 0 173 -66.5t65 -172.5zM292 51q96 0 166.5 71.5t70.5 171.5q0 81 -48 132t-128 51q-96 0 -166.5 -71t-70.5 -170
q0 -78 47 -131.5t129 -53.5z" />
    <glyph glyph-name="odieresis.sc" horiz-adv-x="660" 
d="M314 658q0 -20 -17.5 -35.5t-38.5 -15.5q-17 0 -27.5 11.5t-10.5 27.5q0 22 15.5 37.5t36.5 15.5q18 0 30 -11.5t12 -29.5zM528 659q0 -21 -16 -36.5t-39 -15.5q-17 0 -28 11.5t-11 27.5q0 22 16 37.5t37 15.5q19 0 30 -11t11 -29zM602 300q0 -131 -96.5 -220.5
t-223.5 -89.5q-108 0 -173 67.5t-65 172.5q0 129 95.5 219t224.5 90q108 0 173 -66.5t65 -172.5zM292 51q96 0 166.5 71.5t70.5 171.5q0 81 -48 132t-128 51q-96 0 -166.5 -71t-70.5 -170q0 -78 47 -131.5t129 -53.5z" />
    <glyph glyph-name="ograve.sc" horiz-adv-x="660" 
d="M444 630l-45 -27l-125 145l66 45zM602 300q0 -131 -96.5 -220.5t-223.5 -89.5q-108 0 -173 67.5t-65 172.5q0 129 95.5 219t224.5 90q108 0 173 -66.5t65 -172.5zM292 51q96 0 166.5 71.5t70.5 171.5q0 81 -48 132t-128 51q-96 0 -166.5 -71t-70.5 -170q0 -78 47 -131.5
t129 -53.5z" />
    <glyph glyph-name="icircumflex.sc" horiz-adv-x="246" 
d="M109 0h-69l84 528h69zM290 645l-41 -36l-69 61l-96 -69l-23 38l130 108h1z" />
    <glyph glyph-name="iacute.sc" horiz-adv-x="246" 
d="M109 0h-69l84 528h69zM169 585l-34 28l110 165l54 -45z" />
    <glyph glyph-name="hbar.sc" horiz-adv-x="613" 
d="M467 0h-69l38 238h-278l-38 -238h-69l62 392h-74l9 56h74l13 80h69l-13 -80h278l13 80h69l-13 -80h73l-9 -56h-73zM446 301l14 91h-278l-14 -91h278z" />
    <glyph glyph-name="hcircumflex.sc" horiz-adv-x="593" 
d="M456 0h-69l38 238h-278l-38 -238h-69l84 528h69l-36 -227h278l36 227h69zM502 640l-42 -36l-102 96l-130 -96l-32 36l175 134z" />
    <glyph glyph-name="gdotaccent.sc" horiz-adv-x="634" 
d="M423 658q0 -20 -17.5 -35.5t-38.5 -15.5q-17 0 -27.5 11.5t-10.5 27.5q0 22 16 37.5t37 15.5q18 0 29.5 -11.5t11.5 -29.5zM502 206l-142 -1l10 62h215q-10 -60 -32.5 -108t-51 -79t-64.5 -52t-71.5 -29.5t-73.5 -8.5q-109 0 -178.5 68t-69.5 175q0 129 98.5 217.5
t232.5 88.5q118 0 190 -72l-44 -51q-7 8 -19 19t-50.5 26.5t-84.5 15.5q-108 0 -178 -71.5t-70 -166.5q0 -83 53.5 -136t129.5 -53q69 0 127 44t73 112z" />
    <glyph glyph-name="gcommaaccent.sc" horiz-adv-x="634" 
d="M238 -248h-73l114 190h79zM502 206l-142 -1l10 62h215q-10 -60 -32.5 -108t-51 -79t-64.5 -52t-71.5 -29.5t-73.5 -8.5q-109 0 -178.5 68t-69.5 175q0 129 98.5 217.5t232.5 88.5q118 0 190 -72l-44 -51q-7 8 -19 19t-50.5 26.5t-84.5 15.5q-108 0 -178 -71.5t-70 -166.5
q0 -83 53.5 -136t129.5 -53q69 0 127 44t73 112z" />
    <glyph glyph-name="gbreve.sc" horiz-adv-x="634" 
d="M471 734h58q-11 -54 -56 -99t-112 -45q-55 0 -88 38t-26 106h60q1 -10 -0.5 -30.5t14.5 -42t47 -21.5q29 0 50.5 13t32 32t15 30.5t5.5 18.5zM502 206l-142 -1l10 62h215q-10 -60 -32.5 -108t-51 -79t-64.5 -52t-71.5 -29.5t-73.5 -8.5q-109 0 -178.5 68t-69.5 175
q0 129 98.5 217.5t232.5 88.5q118 0 190 -72l-44 -51q-7 8 -19 19t-50.5 26.5t-84.5 15.5q-108 0 -178 -71.5t-70 -166.5q0 -83 53.5 -136t129.5 -53q69 0 127 44t73 112z" />
    <glyph glyph-name="ohungarumlaut.sc" horiz-adv-x="660" 
d="M419 713l-186 -115l-23 31l178 133zM599 713l-186 -115l-23 31l178 133zM602 300q0 -131 -96.5 -220.5t-223.5 -89.5q-108 0 -173 67.5t-65 172.5q0 129 95.5 219t224.5 90q108 0 173 -66.5t65 -172.5zM292 51q96 0 166.5 71.5t70.5 171.5q0 81 -48 132t-128 51
q-96 0 -166.5 -71t-70.5 -170q0 -78 47 -131.5t129 -53.5z" />
    <glyph glyph-name="omacron.sc" horiz-adv-x="660" 
d="M542 596h-335l9 58h335zM602 300q0 -131 -96.5 -220.5t-223.5 -89.5q-108 0 -173 67.5t-65 172.5q0 129 95.5 219t224.5 90q108 0 173 -66.5t65 -172.5zM292 51q96 0 166.5 71.5t70.5 171.5q0 81 -48 132t-128 51q-96 0 -166.5 -71t-70.5 -170q0 -78 47 -131.5t129 -53.5
z" />
    <glyph glyph-name="otilde.sc" horiz-adv-x="660" 
d="M530 707l18 -37q-11 -12 -25.5 -24.5t-40 -26t-47.5 -13.5q-18 0 -51.5 22.5t-53.5 22.5q-32 0 -84 -46l-24 36q23 22 58.5 44t62.5 22q21 0 54 -23t49 -23q34 0 84 46zM602 300q0 -131 -96.5 -220.5t-223.5 -89.5q-108 0 -173 67.5t-65 172.5q0 129 95.5 219t224.5 90
q108 0 173 -66.5t65 -172.5zM292 51q96 0 166.5 71.5t70.5 171.5q0 81 -48 132t-128 51q-96 0 -166.5 -71t-70.5 -170q0 -78 47 -131.5t129 -53.5z" />
    <glyph glyph-name="obreve.sc" horiz-adv-x="660" 
d="M480 734h57q-10 -54 -55 -99t-112 -45q-55 0 -88 38t-27 106h61q1 -10 -0.5 -30.5t14.5 -42t47 -21.5q29 0 50.5 13t32 32t15 30.5t5.5 18.5zM602 300q0 -131 -96.5 -220.5t-223.5 -89.5q-108 0 -173 67.5t-65 172.5q0 129 95.5 219t224.5 90q108 0 173 -66.5t65 -172.5z
M292 51q96 0 166.5 71.5t70.5 171.5q0 81 -48 132t-128 51q-96 0 -166.5 -71t-70.5 -170q0 -78 47 -131.5t129 -53.5z" />
    <glyph glyph-name="oslash.sc" horiz-adv-x="659" 
d="M142 -110l-50 22l63 108q-52 29 -81.5 84.5t-29.5 122.5q0 132 95 222t228 90q38 0 79 -12l58 100l52 -24l-57 -100q48 -30 75.5 -83.5t27.5 -118.5q0 -133 -96.5 -222t-225.5 -89q-35 0 -73 10zM190 80l221 389q-26 8 -55 8q-99 0 -169.5 -71t-70.5 -172q0 -49 19.5 -90
t54.5 -64zM463 442l-222 -386q23 -5 45 -5q102 0 172.5 71t70.5 172q0 98 -66 148z" />
    <glyph glyph-name="oslashacute.sc" horiz-adv-x="659" 
d="M516 748l-173 -145l-34 27l154 163zM142 -110l-50 22l63 108q-52 29 -81.5 84.5t-29.5 122.5q0 132 95 222t228 90q38 0 79 -12l58 100l52 -24l-57 -100q48 -30 75.5 -83.5t27.5 -118.5q0 -133 -96.5 -222t-225.5 -89q-35 0 -73 10zM190 80l221 389q-26 8 -55 8
q-99 0 -169.5 -71t-70.5 -172q0 -49 19.5 -90t54.5 -64zM463 442l-222 -386q23 -5 45 -5q102 0 172.5 71t70.5 172q0 98 -66 148z" />
    <glyph glyph-name="uni1E57.sc" horiz-adv-x="452" 
d="M330 659q0 -21 -16.5 -36.5t-37.5 -15.5q-18 0 -29 11.5t-11 28.5q0 21 16.5 36.5t36.5 15.5q18 0 29.5 -11.5t11.5 -28.5zM109 0h-69l84 528h112q185 0 185 -139q0 -83 -60 -138t-169 -55h-52zM150 259h43q71 0 113 35t42 89q0 82 -104 82h-61z" />
    <glyph glyph-name="racute.sc" horiz-adv-x="490" 
d="M426 748l-171 -145l-35 27l155 163zM444 0h-90l-211 212l-34 -212h-69l84 528h114q183 0 183 -137q0 -74 -49 -127t-136 -60zM150 259h39q77 0 118 34.5t41 88.5q0 83 -102 83h-63z" />
    <glyph glyph-name="rcaron.sc" horiz-adv-x="490" 
d="M449 738l-174 -134l-133 134l43 36l100 -96l133 96zM444 0h-90l-211 212l-34 -212h-69l84 528h114q183 0 183 -137q0 -74 -49 -127t-136 -60zM150 259h39q77 0 118 34.5t41 88.5q0 83 -102 83h-63z" />
    <glyph glyph-name="rcommaaccent.sc" horiz-adv-x="489" 
d="M151 -232h-73l114 190h79zM444 0h-90l-211 212l-34 -212h-69l84 528h114q183 0 183 -137q0 -74 -49 -127t-136 -60zM150 259h39q77 0 118 34.5t41 88.5q0 83 -102 83h-63z" />
    <glyph glyph-name="uni1E61.sc" horiz-adv-x="443" 
d="M319 658q0 -20 -16.5 -35.5t-38.5 -15.5q-16 0 -27.5 11.5t-11.5 28.5q0 21 16.5 36.5t36.5 15.5q18 0 29.5 -11.5t11.5 -29.5zM1 66l46 47q16 -25 49 -44t77 -19q51 0 86 27t35 71q0 32 -21.5 55.5t-52 40t-61 34t-52 47.5t-21.5 71q0 69 53 106.5t127 37.5
q93 0 137 -56l-41 -48q-41 45 -99 45q-42 0 -72.5 -22t-30.5 -59q0 -28 21.5 -49t52 -36.5t61 -33.5t52 -50t21.5 -76q0 -76 -57 -120.5t-141 -44.5q-63 0 -107 23.5t-62 52.5z" />
    <glyph glyph-name="scaron.sc" horiz-adv-x="443" 
d="M439 715l-174 -134l-133 134l43 37l100 -96l133 96zM1 66l46 47q16 -25 49 -44t77 -19q51 0 86 27t35 71q0 32 -21.5 55.5t-52 40t-61 34t-52 47.5t-21.5 71q0 69 53 106.5t127 37.5q93 0 137 -56l-41 -48q-41 45 -99 45q-42 0 -72.5 -22t-30.5 -59q0 -28 21.5 -49
t52 -36.5t61 -33.5t52 -50t21.5 -76q0 -76 -57 -120.5t-141 -44.5q-63 0 -107 23.5t-62 52.5z" />
    <glyph glyph-name="sacute.sc" horiz-adv-x="443" 
d="M407 748l-172 -145l-35 27l155 163zM1 66l46 47q16 -25 49 -44t77 -19q51 0 86 27t35 71q0 32 -21.5 55.5t-52 40t-61 34t-52 47.5t-21.5 71q0 69 53 106.5t127 37.5q93 0 137 -56l-41 -48q-41 45 -99 45q-42 0 -72.5 -22t-30.5 -59q0 -28 21.5 -49t52 -36.5t61 -33.5
t52 -50t21.5 -76q0 -76 -57 -120.5t-141 -44.5q-63 0 -107 23.5t-62 52.5z" />
    <glyph glyph-name="scedilla.sc" horiz-adv-x="443" 
d="M128 -202h-64l101 164h75zM1 66l46 47q16 -25 49 -44t77 -19q51 0 86 27t35 71q0 32 -21.5 55.5t-52 40t-61 34t-52 47.5t-21.5 71q0 69 53 106.5t127 37.5q93 0 137 -56l-41 -48q-41 45 -99 45q-42 0 -72.5 -22t-30.5 -59q0 -28 21.5 -49t52 -36.5t61 -33.5t52 -50
t21.5 -76q0 -76 -57 -120.5t-141 -44.5q-63 0 -107 23.5t-62 52.5z" />
    <glyph glyph-name="tcaron.sc" horiz-adv-x="450" 
d="M449 738l-174 -134l-133 134l43 36l101 -96l132 96zM211 0h-70l74 466q-27 0 -81.5 -0.5t-81.5 -0.5l10 62h395l-10 -62q-27 0 -81 0.5t-81 0.5z" />
    <glyph glyph-name="tcommaaccent.sc" horiz-adv-x="451" 
d="M134 -232h-73l116 190h78zM212 0h-70l74 466l-163 -1l10 62h395l-10 -62l-162 1z" />
    <glyph glyph-name="uni1E6B.sc" horiz-adv-x="450" 
d="M326 658q0 -20 -17.5 -35.5t-38.5 -15.5q-17 0 -28 11.5t-11 28.5q0 21 16.5 36.5t37.5 15.5q18 0 29.5 -11.5t11.5 -29.5zM211 0h-70l74 466l-163 -1l10 62h395l-10 -62l-162 1z" />
    <glyph glyph-name="tbar.sc" horiz-adv-x="451" 
d="M212 0h-70l43 270h-110l9 58h110l22 138l-163 -1l10 62h395l-10 -62l-162 1l-22 -138h111l-9 -58h-111z" />
    <glyph glyph-name="uacute.sc" horiz-adv-x="582" 
d="M475 748l-172 -145l-34 27l154 163zM394 87l70 441h69l-75 -468q-75 -70 -218 -70q-99 0 -144.5 51t-29.5 151l53 336h69l-47 -298q-16 -104 10.5 -141.5t110.5 -37.5q85 0 132 36z" />
    <glyph glyph-name="ucircumflex.sc" horiz-adv-x="582" 
d="M394 87l70 441h69l-75 -468q-75 -70 -218 -70q-99 0 -144.5 51t-29.5 151l53 336h69l-47 -298q-16 -104 10.5 -141.5t110.5 -37.5q85 0 132 36zM498 640l-41 -36l-102 96l-131 -96l-32 36l176 134z" />
    <glyph glyph-name="udieresis.sc" horiz-adv-x="582" 
d="M281 658q0 -20 -17.5 -35.5t-38.5 -15.5q-17 0 -27.5 11.5t-10.5 27.5q0 22 16 37.5t37 15.5q18 0 29.5 -11.5t11.5 -29.5zM495 659q0 -21 -16 -36.5t-39 -15.5q-17 0 -27.5 11.5t-10.5 27.5q0 22 15.5 37.5t37.5 15.5q18 0 29 -11t11 -29zM394 87l70 441h69l-75 -468
q-75 -70 -218 -70q-99 0 -144.5 51t-29.5 151l53 336h69l-47 -298q-16 -104 10.5 -141.5t110.5 -37.5q85 0 132 36z" />
    <glyph glyph-name="ugrave.sc" horiz-adv-x="582" 
d="M406 630l-45 -27l-126 145l68 45zM394 87l70 441h69l-75 -468q-75 -70 -218 -70q-99 0 -144.5 51t-29.5 151l53 336h69l-47 -298q-16 -104 10.5 -141.5t110.5 -37.5q85 0 132 36z" />
    <glyph glyph-name="uogonek.sc" horiz-adv-x="582" 
d="M356 -155l-9 -58q-33 -15 -79 -15t-77 19.5t-31 59.5q0 76 105 140q-5 0 -13 -0.5t-12 -0.5q-99 0 -144.5 51t-29.5 151l53 336h69l-47 -298q-16 -100 9 -139.5t112 -39.5q85 0 132 36l70 441h69l-75 -468q-29 -27 -100 -58q-50 -20 -89.5 -54.5t-39.5 -75.5
q0 -21 15.5 -33t40.5 -12q24 0 71 18z" />
    <glyph glyph-name="uhungarumlaut.sc" horiz-adv-x="582" 
d="M401 713l-185 -115l-23 31l178 133zM581 713l-185 -115l-23 31l178 133zM394 87l70 441h69l-75 -468q-75 -70 -218 -70q-99 0 -144.5 51t-29.5 151l53 336h69l-47 -298q-16 -104 10.5 -141.5t110.5 -37.5q85 0 132 36z" />
    <glyph glyph-name="umacron.sc" horiz-adv-x="582" 
d="M506 596h-335l10 58h335zM394 87l70 441h69l-75 -468q-75 -70 -218 -70q-99 0 -144.5 51t-29.5 151l53 336h69l-47 -298q-16 -104 10.5 -141.5t110.5 -37.5q85 0 132 36z" />
    <glyph glyph-name="uring.sc" horiz-adv-x="582" 
d="M461 712q0 -49 -37 -85.5t-87 -36.5q-39 0 -64 26.5t-25 66.5q0 50 37.5 87t86.5 37q39 0 64 -27.5t25 -67.5zM345 634q28 0 50 22.5t22 51.5q0 24 -14.5 40t-36.5 16q-27 0 -49 -22t-22 -51q0 -24 14.5 -40.5t35.5 -16.5zM394 87l70 441h69l-75 -468q-75 -70 -218 -70
q-99 0 -144.5 51t-29.5 151l53 336h69l-47 -298q-16 -104 10.5 -141.5t110.5 -37.5q85 0 132 36z" />
    <glyph glyph-name="ecaron.sc" horiz-adv-x="450" 
d="M357 1h-316l83 526h295l-10 -63q-37 0 -113 0.5t-113 0.5l-24 -153h181l-10 -63q-30 0 -90 0.5t-91 0.5l-29 -187q41 0 123.5 0.5t123.5 0.5zM462 738l-174 -134l-133 134l42 36l101 -96l132 96z" />
    <glyph glyph-name="edotaccent.sc" horiz-adv-x="451" 
d="M341 658q0 -20 -17 -35.5t-39 -15.5q-16 0 -27 11.5t-11 28.5q0 21 16.5 36.5t36.5 15.5q18 0 29.5 -11.5t11.5 -29.5zM358 1h-317l83 526h295l-10 -63l-226 1l-24 -153h181l-10 -63l-181 1l-29 -187l248 1z" />
    <glyph glyph-name="emacron.sc" horiz-adv-x="450" 
d="M357 1h-316l83 526h294l-10 -63q-38 0 -112.5 0.5t-112.5 0.5l-24 -153h181l-10 -63q-31 0 -91 0.5t-90 0.5l-29 -187q41 0 123.5 0.5t123.5 0.5zM449 596h-335l9 58h335z" />
    <glyph glyph-name="eogonek.sc" horiz-adv-x="451" 
d="M324 -152l-10 -58q-32 -15 -79 -15q-45 0 -76 19.5t-31 59.5q0 83 118 147h-205l83 526h295l-10 -63l-226 1l-24 -153h181l-10 -63l-181 1l-29 -187l248 1l-10 -63h-47q-115 -62 -115 -126q0 -21 16 -33t41 -12q24 0 71 18z" />
    <glyph glyph-name="uni1E1F.sc" horiz-adv-x="415" 
d="M109 0h-69l83 527h288l-9 -62q-36 0 -109 0.5t-110 0.5l-25 -159q30 0 89 0.5t88 0.5l-10 -63h-177zM340 658q0 -20 -17.5 -35.5t-39.5 -15.5q-16 0 -27 11.5t-11 28.5q0 21 16.5 36.5t36.5 15.5q18 0 30 -11.5t12 -29.5z" />
    <glyph glyph-name="gcircumflex.sc" horiz-adv-x="634" 
d="M527 640l-43 -36l-101 96l-132 -96l-31 36l175 134zM502 206l-142 -1l10 62h215q-10 -60 -32.5 -108t-51 -79t-64.5 -52t-71.5 -29.5t-73.5 -8.5q-109 0 -178.5 68t-69.5 175q0 129 98.5 217.5t232.5 88.5q118 0 190 -72l-44 -51q-7 8 -19 19t-50.5 26.5t-84.5 15.5
q-108 0 -178 -71.5t-70 -166.5q0 -83 53.5 -136t129.5 -53q69 0 127 44t73 112z" />
    <glyph glyph-name="utilde.sc" horiz-adv-x="582" 
d="M492 707l18 -37q-17 -20 -48.5 -42t-63.5 -22q-18 0 -51.5 22.5t-53.5 22.5q-32 0 -84 -46l-24 36q24 23 59 44.5t62 21.5q22 0 55.5 -23t48.5 -23q36 0 82 46zM394 87l70 441h69l-75 -468q-75 -70 -218 -70q-99 0 -144.5 51t-29.5 151l53 336h69l-47 -298
q-16 -104 10.5 -141.5t110.5 -37.5q85 0 132 36z" />
    <glyph glyph-name="ubreve.sc" horiz-adv-x="582" 
d="M444 734h57q-11 -54 -56 -99t-112 -45q-54 0 -87 38t-27 106h60q1 -10 -0.5 -30.5t14.5 -42t47 -21.5q23 0 42.5 9.5t30 21.5t18 27t10 23.5t3.5 12.5zM394 87l70 441h69l-75 -468q-75 -70 -218 -70q-99 0 -144.5 51t-29.5 151l53 336h69l-47 -298q-16 -104 10.5 -141.5
t110.5 -37.5q85 0 132 36z" />
    <glyph glyph-name="wcircumflex.sc" horiz-adv-x="768" 
d="M592 640l-43 -36l-102 96l-131 -96l-31 36l175 134zM503 -23l-108 399l-235 -397l-112 549h75l70 -368v-25q1 12 8 25l221 386l99 -387q1 -3 1 -8.5v-8.5l1 -4q5 16 7 21l183 369h72z" />
    <glyph glyph-name="wgrave.sc" horiz-adv-x="768" 
d="M521 630l-43 -27l-126 145l67 45zM503 -23l-108 399l-235 -397l-112 549h75l70 -368v-25q1 12 8 25l221 386l99 -387q1 -3 1 -8.5v-8.5l1 -4q5 16 7 21l183 369h72z" />
    <glyph glyph-name="wacute.sc" horiz-adv-x="768" 
d="M559 748l-172 -145l-35 27l154 163zM503 -23l-108 399l-235 -397l-112 549h75l70 -368v-25q1 12 8 25l221 386l99 -387q1 -3 1 -8.5v-8.5l1 -4q5 16 7 21l183 369h72z" />
    <glyph glyph-name="wdieresis.sc" horiz-adv-x="768" 
d="M595 659q0 -21 -16 -36.5t-38 -15.5q-17 0 -28 11.5t-11 27.5q0 22 15.5 37.5t37.5 15.5q18 0 29 -11t11 -29zM380 658q0 -20 -16.5 -35.5t-38.5 -15.5q-16 0 -27.5 11.5t-11.5 28.5q0 21 16.5 36.5t36.5 15.5q18 0 29.5 -11.5t11.5 -29.5zM503 -23l-108 399l-235 -397
l-112 549h75l70 -368v-25q1 12 8 25l221 386l99 -387q1 -3 1 -8.5v-8.5l1 -4q5 16 7 21l183 369h72z" />
    <glyph glyph-name="ygrave.sc" horiz-adv-x="459" 
d="M339 630l-44 -27l-126 145l67 45zM213 0h-69l36 226l-137 302h81l98 -238l183 238h80l-237 -303z" />
    <glyph glyph-name="ycircumflex.sc" horiz-adv-x="459" 
d="M435 640l-43 -36l-102 96l-131 -96l-31 36l175 134zM213 0h-69l36 226l-137 302h81l98 -238l183 238h80l-237 -303z" />
    <glyph glyph-name="yacute.sc" horiz-adv-x="459" 
d="M438 734l-172 -145l-35 27l154 163zM213 0h-69l36 226l-137 302h81l98 -238l183 238h80l-237 -303z" />
    <glyph glyph-name="ydieresis.sc" horiz-adv-x="459" 
d="M213 644q0 -20 -16 -35.5t-38 -15.5q-15 0 -25.5 11.5t-10.5 27.5q0 21 15.5 36.5t35.5 15.5q18 0 28.5 -11t10.5 -29zM448 644q0 -21 -15.5 -36t-38.5 -15q-16 0 -25.5 11t-9.5 27q0 22 14.5 37.5t35.5 15.5q18 0 28.5 -11t10.5 -29zM213 0h-69l36 226l-137 302h81
l98 -238l183 238h80l-237 -303z" />
    <glyph glyph-name="zcaron.sc" horiz-adv-x="491" 
d="M480 726l-174 -134l-133 134l43 37l100 -96l133 96zM399 1h-428l379 464l-243 -1l10 63h366l-381 -464l307 1z" />
    <glyph glyph-name="zacute.sc" horiz-adv-x="491" 
d="M452 748l-173 -145l-33 27l153 163zM399 1h-428l379 464l-243 -1l10 63h366l-381 -464l307 1z" />
    <glyph glyph-name="zdotaccent.sc" horiz-adv-x="491" 
d="M358 658q0 -20 -17 -35.5t-38 -15.5q-17 0 -28 11.5t-11 28.5q0 21 16.5 36.5t37.5 15.5q17 0 28.5 -11.5t11.5 -29.5zM399 1h-428l379 464l-243 -1l10 63h366l-381 -464l307 1z" />
    <glyph glyph-name="ae.sc" horiz-adv-x="714" 
d="M621 1h-317l20 126h-182l-98 -127h-86l416 526l308 1l-10 -63l-225 1l-25 -153h182l-10 -63l-181 1l-30 -187l248 1zM334 190l38 238l-181 -238h143z" />
    <glyph glyph-name="aeacute.sc" horiz-adv-x="714" 
d="M681 748l-172 -145l-35 27l155 163zM621 1h-317l20 126h-182l-98 -127h-86l416 526l308 1l-10 -63l-225 1l-25 -153h182l-10 -63l-181 1l-30 -187l248 1zM334 190l38 238l-181 -238h143z" />
    <glyph glyph-name="ij.sc" horiz-adv-x="493" 
d="M109 0h-69l84 528h69zM173 -181l-16 59q72 24 98.5 58.5t40.5 124.5l74 467h70l-75 -471q-18 -109 -56.5 -155.5t-135.5 -82.5z" />
    <glyph glyph-name="eng.sc" horiz-adv-x="647" 
d="M327 -181l-15 59q67 23 95 58t41 116l-281 333l-59 -385h-69l87 543l340 -407l59 392h69l-75 -471q-18 -109 -56.5 -155.5t-135.5 -82.5z" />
    <glyph glyph-name="oe.sc" horiz-adv-x="895" 
d="M802 1h-317l15 91q-84 -102 -221 -102q-105 0 -170.5 68t-65.5 169q0 126 96 219t227 93q63 0 113 -26t74 -76l15 90h295l-10 -63l-226 1l-24 -154l181 1l-10 -63l-181 1l-29 -187l248 1zM528 294q0 80 -48 131.5t-125 51.5q-99 0 -169.5 -70.5t-70.5 -170.5
q0 -77 47 -131t123 -54q102 0 172.5 71t70.5 172z" />
    <glyph glyph-name="ff.sc" horiz-adv-x="830" 
d="M109 0h-69l83 527h288l-9 -62l-219 1l-25 -159l177 1l-10 -63h-177zM524 0h-69l83 527h288l-9 -62l-219 1l-25 -159l177 1l-10 -63h-177z" />
    <glyph glyph-name="fi.sc" horiz-adv-x="661" 
d="M109 0h-69l83 527h288l-9 -62l-219 1l-25 -159l177 1l-10 -63h-177zM524 0h-69l84 528h69z" />
    <glyph glyph-name="ffi.sc" horiz-adv-x="1076" 
d="M109 0h-69l83 527h288l-9 -62l-219 1l-25 -159l177 1l-10 -63h-177zM524 0h-69l83 527h288l-9 -62l-219 1l-25 -159l177 1l-10 -63h-177zM939 0h-69l84 528h69z" />
    <glyph glyph-name="ffl.sc" horiz-adv-x="1239" 
d="M109 0h-69l83 527h288l-9 -62l-219 1l-25 -159l177 1l-10 -63h-177zM524 0h-69l83 527h288l-9 -62l-219 1l-25 -159l177 1l-10 -63h-177zM1167 1h-297l83 527h69l-73 -465l228 1z" />
    <glyph glyph-name="zero_slash" horiz-adv-x="645" 
d="M274 -12q-199 0 -199 288q0 128 34.5 236.5t108 179t173.5 70.5q200 0 200 -291q0 -129 -35.5 -237t-109 -177t-172.5 -69zM169 122l294 551q-30 27 -80 27q-74 0 -129 -60.5t-81 -154.5t-26 -205q0 -110 22 -158zM499 625l-297 -549q30 -28 79 -28q76 0 132 64.5
t81.5 158.5t25.5 201t-21 153z" />
    <glyph glyph-name="egrave.sc" horiz-adv-x="451" 
d="M353 630l-45 -27l-126 145l67 45zM358 1h-317l83 526h295l-10 -63l-226 1l-24 -153h181l-10 -63l-181 1l-29 -187l248 1z" />
    <glyph glyph-name="edieresis.sc" horiz-adv-x="450" 
d="M357 1h-316l83 526h294l-10 -63q-38 0 -113 0.5t-112 0.5l-24 -153h181l-10 -63q-31 0 -91 0.5t-90 0.5l-29 -187q41 0 123.5 0.5t123.5 0.5zM447 659q0 -21 -16.5 -36.5t-38.5 -15.5q-17 0 -27.5 11.5t-10.5 27.5q0 22 15 37.5t38 15.5q18 0 29 -11t11 -29zM232 658
q0 -20 -17.5 -35.5t-38.5 -15.5q-16 0 -27 11.5t-11 28.5q0 21 16.5 36.5t36.5 15.5q18 0 29.5 -11.5t11.5 -29.5z" />
    <glyph glyph-name="ecircumflex.sc" horiz-adv-x="451" 
d="M358 1h-317l83 526h295l-10 -63q-37 0 -113 0.5t-113 0.5l-24 -153h181l-10 -63q-30 0 -90 0.5t-91 0.5l-29 -187q42 0 124 0.5t124 0.5zM442 640l-42 -36l-102 96l-131 -96l-32 36l175 134z" />
    <glyph glyph-name="eacute.sc" horiz-adv-x="451" 
d="M433 748l-173 -145l-34 27l154 163zM358 1h-317l83 526h295l-10 -63l-226 1l-24 -153h181l-10 -63l-181 1l-29 -187l248 1z" />
    <glyph glyph-name="tcaron.alt2" horiz-adv-x="321" 
d="M350 575h-53l96 197h73zM145 0h-66l67 423h-112l9 57h112l27 172h66l-27 -172h111l-9 -57h-111z" />
    <glyph glyph-name="tcaron.semp" horiz-adv-x="293" 
d="M319 575h-54l97 197h72zM94 0h-66l104 659h66l-28 -179h134l-9 -57h-134z" />
    <glyph glyph-name="tcommaaccent.alt" horiz-adv-x="304" 
d="M53 -232h-71l113 190h78zM231 43l-42 -52q-67 0 -97.5 32t-16.5 118l45 281h-82l9 58h82l27 172h66l-27 -172h113l-9 -58h-113l-43 -269q-4 -23 -3.5 -40.5t2.5 -29t9.5 -19.5t13 -12t19 -6t21.5 -2.5t26 -0.5z" />
    <glyph glyph-name="tcommaaccent.alt2" horiz-adv-x="319" 
d="M60 -232h-72l113 190h79zM144 0h-66l67 423h-112l9 57h112l27 172h66l-27 -172h111l-9 -57h-111z" />
    <glyph glyph-name="tcommaaccent.semp" horiz-adv-x="292" 
d="M10 -232h-72l113 190h79zM94 0h-66l104 659h66l-28 -179h134l-9 -57h-134z" />
    <glyph glyph-name="uni1E6B.alt" horiz-adv-x="306" 
d="M258 795q0 -22 -16.5 -37.5t-38.5 -15.5q-17 0 -29 12t-12 29q0 21 17.5 37.5t38.5 16.5q18 0 29 -12t11 -30zM231 43l-42 -52q-67 0 -97.5 32t-16.5 118l45 281h-82l9 58h82l27 172h66l-27 -172h113l-9 -58h-113l-43 -269q-4 -23 -3.5 -40.5t2.5 -29t9.5 -19.5t13 -12
t19 -6t21.5 -2.5t26 -0.5z" />
    <glyph glyph-name="uni1E6B.alt2" horiz-adv-x="321" 
d="M283 795q0 -22 -16 -37.5t-38 -15.5q-17 0 -28.5 11.5t-11.5 28.5q0 22 17 38.5t38 16.5q18 0 28.5 -12t10.5 -30zM145 0h-66l67 423h-112l9 57h112l27 172h66l-27 -172h111l-9 -57h-111z" />
    <glyph glyph-name="uni1E6B.semp" horiz-adv-x="293" 
d="M233 795q0 -22 -16 -37.5t-39 -15.5q-17 0 -28.5 12t-11.5 29q0 21 17 37.5t38 16.5q18 0 29 -12t11 -30zM94 0h-66l104 659h66l-28 -179h134l-9 -57h-134z" />
    <glyph glyph-name="tbar.alt" horiz-adv-x="307" 
d="M232 43l-42 -52q-67 0 -96.5 32t-16.5 118l21 133h-70l8 52h70l15 96h-82l10 58h82l27 172h66l-27 -172h113l-10 -58h-113l-15 -96h84l-8 -52h-84l-19 -121q-4 -23 -3.5 -40t2.5 -28.5t9.5 -19.5t13 -12t18.5 -6.5t21.5 -3t25.5 -0.5z" />
    <glyph glyph-name="tbar.alt2" horiz-adv-x="321" 
d="M146 0h-66l43 274h-84l9 52h84l15 97h-112l9 57h112l27 172h66l-27 -172h111l-9 -57h-111l-15 -97h84l-9 -52h-84z" />
    <glyph glyph-name="tbar.semp" horiz-adv-x="299" 
d="M101 0h-66l43 274h-68l8 52h68l53 333h66l-28 -179h134l-9 -57h-134l-16 -97h84l-8 -52h-84z" />
    <glyph glyph-name="ff.semp2" horiz-adv-x="595" 
d="M457 422l-67 -422h-66l99 622q16 103 60 152q47 52 119 52q61 0 91 -26l-37 -56q-33 21 -62 21q-82 0 -103 -128l-25 -158h136l-9 -57h-136zM161 422l-67 -422h-66l91 575q16 102 61 152q47 52 119 52q61 0 91 -26l-37 -56q-33 21 -63 21q-81 0 -102 -128l-18 -111h132
l-9 -57h-132z" />
    <glyph glyph-name="ff.alt" horiz-adv-x="619" 
d="M88 -229h-66l103 652h-77l9 57h77l15 94q16 103 60 152q47 52 119 52q61 0 91 -26l-37 -56q-33 21 -62 21q-82 0 -103 -128l-17 -109h111l-9 -57h-111zM415 -121h-66l85 544h-73l9 57h74l22 142q17 105 59 152q47 52 120 52q34 0 58 -9t32 -17l-36 -56q-33 21 -63 21
q-81 0 -102 -128l-25 -157h114l-9 -57h-114z" />
    <glyph glyph-name="ff.semp" horiz-adv-x="595" 
d="M58 -229h-65l126 804q16 102 61 152q47 52 119 52q61 0 91 -26l-37 -56q-33 21 -63 21q-81 0 -102 -128l-18 -111h132l-9 -57h-132zM371 -121h-66l118 743q16 103 60 152q47 52 119 52q61 0 91 -26l-37 -56q-33 21 -62 21q-82 0 -103 -128l-25 -158h136l-9 -57h-136z" />
    <glyph glyph-name="fi.semp2" horiz-adv-x="523" 
d="M161 422l-67 -422h-66l98 614q16 103 60 152q47 52 119 52q61 0 91 -26l-37 -56q-33 21 -63 21q-81 0 -102 -128l-24 -150h133l-9 -57h-133zM394 0h-66l77 481h66zM513 635q0 -23 -18.5 -40.5t-40.5 -17.5q-19 0 -31.5 12.5t-12.5 31.5q0 24 18 41t42 17q18 0 30.5 -13
t12.5 -31z" />
    <glyph glyph-name="fi.alt" 
d="M407 0h-66l76 481h66zM524 629q0 -24 -18 -41t-41 -17q-17 0 -29.5 12.5t-12.5 31.5q0 24 17.5 41t41.5 17q18 0 30 -13t12 -31zM88 -229h-66l103 652h-77l9 57h77l21 134q16 103 60 152q47 52 120 52q60 0 90 -26l-36 -56q-33 21 -63 21q-81 0 -102 -128l-24 -149h115
l-9 -57h-115z" />
    <glyph glyph-name="fi.semp" horiz-adv-x="523" 
d="M394 0h-66l77 481h66zM513 635q0 -23 -18.5 -40.5t-40.5 -17.5q-19 0 -31.5 12.5t-12.5 31.5q0 24 18 41t42 17q18 0 30.5 -13t12.5 -31zM58 -229h-65l133 843q16 103 60 152q47 52 119 52q61 0 91 -26l-37 -56q-33 21 -63 21q-81 0 -102 -128l-24 -150h133l-9 -57h-133z
" />
    <glyph glyph-name="tcaron.alt" horiz-adv-x="306" 
d="M324 575h-53l96 197h73zM231 43l-42 -52q-67 0 -97.5 32t-16.5 118l45 281h-82l9 58h82l27 172h66l-27 -172h113l-9 -58h-113l-43 -269q-4 -23 -3.5 -40.5t2.5 -29t9.5 -19.5t13 -12t19 -6t21.5 -2.5t26 -0.5z" />
    <glyph glyph-name="f_j" horiz-adv-x="536" 
d="M124 0h-66l67 423h-77l9 57h77l21 134q16 103 60 152q47 52 120 52q60 0 90 -26l-36 -56q-33 21 -63 21q-81 0 -102 -128l-24 -149h115l-9 -57h-115zM231 -267l-19 53q24 10 38.5 18t27.5 16t21.5 24t14.5 27t12 41.5t10 52t12 72.5l70 444h66l-70 -440
q-11 -70 -18.5 -105t-20 -73t-30.5 -57.5t-45 -37.5t-69 -35zM466 571q-19 0 -30.5 12.5t-11.5 31.5q0 24 17.5 41t41.5 17q18 0 29.5 -12.5t11.5 -31.5q0 -24 -17 -41t-41 -17z" />
    <glyph glyph-name="fl.semp2" horiz-adv-x="528" 
d="M161 422l-67 -422h-66l96 602q16 103 60 152q47 52 119 52q61 0 91 -26l-37 -56q-33 21 -63 21q-81 0 -102 -128l-22 -138h132l-9 -57h-132zM397 0h-66l130 820h66z" />
    <glyph glyph-name="fl.alt" horiz-adv-x="540" 
d="M409 0h-66l130 820h66zM88 -229h-66l103 652h-77l9 57h77l19 121q16 103 60 152q47 52 120 52q60 0 90 -26l-36 -56q-33 21 -63 21q-81 0 -102 -128l-22 -136h110l-9 -57h-110z" />
    <glyph glyph-name="fl.semp" horiz-adv-x="528" 
d="M397 0h-66l130 820h66zM58 -229h-65l131 831q16 103 60 152q47 52 119 52q61 0 91 -26l-37 -56q-33 21 -63 21q-81 0 -102 -128l-22 -138h132l-9 -57h-132z" />
    <glyph glyph-name="f_t" horiz-adv-x="573" 
d="M396 0h-66l67 423h-206l-67 -423h-66l67 423h-77l9 57h77l21 134q16 103 60 152q47 52 120 52q60 0 90 -26l-36 -56q-33 21 -63 21q-81 0 -102 -128l-24 -149h206l27 172h66l-27 -172h112l-9 -57h-112z" />
    <glyph glyph-name="ffi.semp2" horiz-adv-x="820" 
d="M457 422l-67 -422h-66l99 622q16 103 60 152q47 52 119 52q61 0 91 -26l-37 -56q-33 21 -62 21q-82 0 -103 -128l-25 -158h134l-9 -57h-134zM161 422l-67 -422h-66l91 575q16 102 61 152q47 52 119 52q61 0 91 -26l-37 -56q-33 21 -63 21q-81 0 -102 -128l-18 -111h133
l-9 -57h-133zM691 0h-66l77 481h66zM810 635q0 -24 -17.5 -41t-41.5 -17q-19 0 -31 12.5t-12 31.5q0 24 17.5 41t41.5 17q19 0 31 -13t12 -31z" />
    <glyph glyph-name="ffi.alt" horiz-adv-x="842" 
d="M716 0h-66l76 481h66zM774 571q-19 0 -30.5 12.5t-11.5 31.5q0 23 18 40.5t41 17.5q18 0 29.5 -13t11.5 -31q0 -24 -17.5 -41t-40.5 -17zM88 -229h-66l103 652h-77l9 57h77l15 94q16 103 60 152q47 52 119 52q61 0 91 -26l-37 -56q-33 21 -62 21q-82 0 -103 -128
l-17 -109h111l-9 -57h-111zM415 -121h-66l85 544h-73l9 57h74l22 142q17 105 59 152q47 52 120 52q34 0 58 -9t32 -17l-36 -56q-33 21 -63 21q-81 0 -102 -128l-25 -157h114l-9 -57h-114z" />
    <glyph glyph-name="ffi.semp" horiz-adv-x="820" 
d="M58 -229h-65l126 804q16 102 61 152q47 52 119 52q61 0 91 -26l-37 -56q-33 21 -63 21q-81 0 -102 -128l-18 -111h133l-9 -57h-133zM371 -121h-66l118 743q16 103 60 152q47 52 119 52q61 0 91 -26l-37 -56q-33 21 -62 21q-82 0 -103 -128l-25 -158h134l-9 -57h-134z
M691 0h-66l77 481h66zM810 635q0 -24 -17.5 -41t-41.5 -17q-19 0 -31 12.5t-12 31.5q0 24 17.5 41t41.5 17q19 0 31 -13t12 -31z" />
    <glyph glyph-name="ffl.semp2" horiz-adv-x="825" 
d="M458 422l-67 -422h-65l96 607q16 103 60 152q47 52 119 52q61 0 91 -26l-37 -56q-33 21 -63 21q-81 0 -102 -128l-23 -143h133l-9 -57h-133zM161 422l-67 -422h-66l91 570q16 103 60 152q47 52 119 52q61 0 91 -26l-37 -56q-33 21 -63 21q-81 0 -102 -128l-17 -106h133
l-9 -57h-133zM694 0h-66l130 820h66z" />
    <glyph glyph-name="ffl.alt" horiz-adv-x="849" 
d="M718 0h-66l130 820h66zM88 -229h-66l103 652h-77l9 57h77l14 90q16 103 60 152q47 52 120 52q60 0 90 -26l-36 -56q-33 21 -63 21q-81 0 -102 -128l-17 -105h111l-9 -57h-111zM415 -121h-66l85 544h-73l9 57h73l20 127q17 105 59 152q47 52 120 52q34 0 58 -9t32 -17
l-36 -56q-30 21 -62 21q-83 0 -102 -128l-22 -142h110l-9 -57h-111z" />
    <glyph glyph-name="ffl.semp" horiz-adv-x="825" 
d="M694 0h-66l130 820h66zM58 -229h-65l126 799q16 103 60 152q47 52 119 52q61 0 91 -26l-37 -56q-33 21 -63 21q-81 0 -102 -128l-17 -106h133l-9 -57h-133zM372 -121h-65l115 728q16 103 60 152q47 52 119 52q61 0 91 -26l-37 -56q-33 21 -63 21q-81 0 -102 -128
l-23 -143h133l-9 -57h-133z" />
    <glyph glyph-name="ij.semp" horiz-adv-x="452" 
d="M98 0h-66l76 481h66zM216 635q0 -24 -17.5 -41t-41.5 -17q-18 0 -30 12.5t-12 31.5q0 24 18 41t41 17q19 0 30.5 -12t11.5 -32zM284 -250l-68 -15l118 746h66zM384 577q-19 0 -31 12t-12 31q0 25 17 42t41 17q19 0 30.5 -12.5t11.5 -31.5q0 -24 -16.5 -41t-40.5 -17z" />
    <glyph glyph-name="eng.alt" 
d="M237 -267l-19 53q24 10 38.5 18t27.5 16t21.5 24t14.5 27t12 41.5t10 52t12 72.5l41 257q23 141 -107 141q-80 0 -133 -40l-63 -395h-66l68 431q95 63 202 63q89 0 135.5 -47.5t31.5 -137.5l-43 -268q-9 -58 -15 -88.5t-16 -66.5t-21 -54t-29.5 -38.5t-42.5 -33.5
t-59 -27z" />
    <glyph glyph-name="germandbls.alt" horiz-adv-x="532" 
d="M161 11l23 59q46 -24 78 -24q54 0 98.5 32.5t44.5 89.5q0 24 -11 42t-23.5 28t-40.5 27q-26 17 -41.5 30t-30 42t-14.5 67q0 18 2.5 33.5t9.5 31t11 25t16.5 25t16.5 20.5t20.5 22t19.5 20q57 61 57 115q0 41 -21.5 58t-50.5 17q-46 0 -84 -39.5t-48 -104.5l-99 -627h-66
l98 617q34 210 204 210q67 0 99.5 -32t32.5 -87q0 -12 -1.5 -23.5t-5.5 -23.5t-6.5 -20t-10.5 -20t-11.5 -18t-14.5 -19t-14.5 -17t-17 -19t-16.5 -18q-18 -21 -27.5 -33t-18.5 -34t-9 -44q0 -26 12.5 -48t26.5 -34t38 -27q31 -20 46.5 -32.5t29.5 -38.5t14 -60
q0 -81 -62 -135.5t-159 -54.5q-43 0 -94 22z" />
    <glyph glyph-name="germandbls.semp" horiz-adv-x="532" 
d="M153 -245l11 57q81 13 153 80.5t72 163.5q0 50 -26.5 80.5t-78.5 30.5q-35 0 -85 -14l198 270h-206l-106 -666h-66l106 666h-73l9 57h73l21 134q16 103 60 152q47 52 120 52q34 0 58 -9t32 -17l-36 -56q-36 21 -63 21q-82 0 -103 -128l-24 -149h308l-208 -268q18 3 34 3
q55 0 89 -42.5t34 -109.5q0 -56 -23 -106t-58 -84t-77.5 -60t-79 -40t-65.5 -18z" />
    <glyph glyph-name="a.sc.semp" horiz-adv-x="537" 
d="M482 0h-73l-29 96h-281l-60 -96h-76l345 546zM363 152l-77 251l-154 -251h231z" />
    <glyph glyph-name="b.sc" horiz-adv-x="489" 
d="M189 0h-149l84 528h117q167 0 167 -108q0 -50 -32 -86.5t-72 -49.5q42 -8 75.5 -38t33.5 -86q0 -71 -59 -115.5t-165 -44.5zM157 301h38q68 0 104 27t36 75q0 36 -24 49t-84 13h-44zM119 63h70q75 0 113 25.5t38 70.5q0 38 -27.5 58.5t-74.5 20.5h-91z" />
    <glyph glyph-name="j.sc.semp" horiz-adv-x="362" 
d="M209 221l39 244h-140l9 62h209l-54 -342q-17 -108 -62 -152.5t-127 -44.5q-66 0 -111 38l27 58q40 -35 84 -35q58 0 84.5 40.5t41.5 131.5z" />
    <glyph glyph-name="k.sc" horiz-adv-x="520" 
d="M468 0h-92l-231 228l-36 -228h-69l84 528h69l-36 -223l260 223h92l-313 -262z" />
    <glyph glyph-name="p.sc" horiz-adv-x="452" 
d="M109 0h-69l84 528h112q185 0 185 -139q0 -83 -60 -138t-169 -55h-52zM150 259h43q71 0 113 35t42 89q0 82 -104 82h-61z" />
    <glyph glyph-name="v.sc" horiz-adv-x="514" 
d="M203 -24l-160 552h75l106 -388q3 -14 2 -20q7 18 8 20l226 388h77z" />
    <glyph glyph-name="w.sc" horiz-adv-x="768" 
d="M503 -23l-108 399l-235 -397l-112 549h75l70 -368v-25q1 12 8 25l221 386l99 -387q1 -3 1 -8.5v-8.5l1 -4q5 16 7 21l183 369h72z" />
    <glyph glyph-name="x.sc" horiz-adv-x="519" 
d="M444 0h-89l-109 217l-184 -217h-86l240 273l-143 255h88l103 -202l168 202h89l-229 -257z" />
    <glyph glyph-name="y.sc" horiz-adv-x="459" 
d="M213 0h-69l36 226l-137 302h81l98 -238l183 238h80l-237 -303z" />
    <glyph glyph-name="z.sc" horiz-adv-x="491" 
d="M399 1h-428l379 464l-243 -1l10 63h366l-381 -464l307 1z" />
    <glyph glyph-name="eth.sc" horiz-adv-x="579" 
d="M179 0h-136l37 234h-61l9 56h61l38 238h127q120 0 192.5 -58.5t72.5 -165.5q0 -145 -93 -224.5t-247 -79.5zM122 63h60q120 0 191.5 59.5t71.5 173.5q0 79 -52 124t-136 45h-71l-28 -175h139l-9 -56h-139z" />
    <glyph glyph-name="thorn.sc" horiz-adv-x="450" 
d="M109 0h-69l84 528h69l-16 -98h53q176 0 176 -138q0 -84 -59.5 -139t-168.5 -55h-53zM134 161h43q71 0 113.5 35t42.5 89q0 82 -105 82h-61z" />
    <glyph glyph-name="aacute.sc" horiz-adv-x="537" 
d="M436 748l-172 -145l-35 27l155 163zM482 0h-73l-40 126h-252l-78 -126h-76l345 546zM349 189l-65 208l-128 -208h193z" />
    <glyph glyph-name="aacute.sc.semp" horiz-adv-x="537" 
d="M436 748l-172 -145l-35 27l155 163zM482 0h-73l-29 96h-281l-60 -96h-76l345 546zM363 152l-77 251l-154 -251h231z" />
    <glyph glyph-name="acircumflex.sc" horiz-adv-x="537" 
d="M477 640l-42 -36l-102 96l-131 -96l-32 36l176 134zM482 0h-73l-40 126h-252l-78 -126h-76l345 546zM349 189l-65 208l-128 -208h193z" />
    <glyph glyph-name="acircumflex.sc.semp" horiz-adv-x="537" 
d="M477 640l-42 -36l-102 96l-131 -96l-32 36l176 134zM482 0h-73l-29 96h-281l-60 -96h-76l345 546zM363 152l-77 251l-154 -251h231z" />
    <glyph glyph-name="adieresis.sc" horiz-adv-x="537" 
d="M264 658q0 -20 -17.5 -35.5t-38.5 -15.5q-16 0 -27 11.5t-11 28.5q0 21 16.5 36.5t36.5 15.5q18 0 29.5 -11.5t11.5 -29.5zM479 659q0 -21 -16 -36.5t-39 -15.5q-17 0 -27.5 11.5t-10.5 27.5q0 22 15 37.5t38 15.5q18 0 29 -11t11 -29zM482 0h-73l-40 126h-252l-78 -126
h-76l345 546zM349 189l-65 208l-128 -208h193z" />
    <glyph glyph-name="adieresis.sc.semp" horiz-adv-x="537" 
d="M264 658q0 -20 -17 -35.5t-39 -15.5q-16 0 -27 11.5t-11 28.5q0 21 16.5 36.5t36.5 15.5q18 0 29.5 -11.5t11.5 -29.5zM479 659q0 -21 -16 -36.5t-39 -15.5q-17 0 -27.5 11.5t-10.5 27.5q0 22 15 37.5t38 15.5q18 0 29 -11t11 -29zM482 0h-73l-29 96h-281l-60 -96h-76
l345 546zM363 152l-77 251l-154 -251h231z" />
    <glyph glyph-name="agrave.sc" horiz-adv-x="537" 
d="M387 629l-45 -27l-126 145l67 45zM482 0h-73l-40 126h-252l-78 -126h-76l345 546zM349 189l-65 208l-128 -208h193z" />
    <glyph glyph-name="agrave.sc.semp" horiz-adv-x="537" 
d="M387 629l-45 -27l-126 145l67 45zM482 0h-73l-29 96h-281l-60 -96h-76l345 546zM363 152l-77 251l-154 -251h231z" />
    <glyph glyph-name="aring.sc" horiz-adv-x="537" 
d="M442 716q0 -49 -37.5 -85.5t-86.5 -36.5q-40 0 -64.5 26.5t-24.5 66.5q0 51 37 87.5t86 36.5q39 0 64.5 -27.5t25.5 -67.5zM326 638q27 0 49 23t22 51q0 24 -14 40t-36 16q-28 0 -49.5 -22t-21.5 -51q0 -24 14 -40.5t36 -16.5zM482 0h-73l-40 126h-252l-78 -126h-76
l345 546zM349 189l-65 208l-128 -208h193z" />
    <glyph glyph-name="aring.sc.semp" horiz-adv-x="537" 
d="M442 716q0 -49 -37.5 -85.5t-86.5 -36.5q-39 0 -64 26.5t-25 66.5q0 50 37 87t86 37q39 0 64.5 -27.5t25.5 -67.5zM326 638q27 0 49 23t22 51q0 24 -14 40t-36 16q-28 0 -49.5 -22t-21.5 -51q0 -24 14 -40.5t36 -16.5zM482 0h-73l-29 96h-281l-60 -96h-76l345 546z
M363 152l-77 251l-154 -251h231z" />
    <glyph glyph-name="atilde.sc" horiz-adv-x="537" 
d="M470 707l18 -37q-17 -20 -49 -42t-63 -22q-19 0 -52 22.5t-53 22.5q-30 0 -85 -46l-23 36q24 23 59 44.5t62 21.5q21 0 54.5 -23t49.5 -23q36 0 82 46zM482 0h-73l-40 126h-252l-78 -126h-76l345 546zM349 189l-65 208l-128 -208h193z" />
    <glyph glyph-name="atilde.sc.semp" horiz-adv-x="537" 
d="M470 707l18 -37q-17 -20 -48.5 -42t-63.5 -22q-18 0 -51.5 22.5t-53.5 22.5q-32 0 -84 -46l-24 36q24 23 59 44.5t62 21.5q21 0 54.5 -23t49.5 -23q36 0 82 46zM482 0h-73l-29 96h-281l-60 -96h-76l345 546zM363 152l-77 251l-154 -251h231z" />
    <glyph glyph-name="aogonek.sc" horiz-adv-x="537" 
d="M488 -152l-9 -58q-33 -15 -80 -15q-45 0 -76 19.5t-31 59.5q0 83 117 146l-40 126h-252l-78 -126h-76l345 546l177 -553q-60 -27 -92.5 -53t-32.5 -65q0 -21 15.5 -33t41.5 -12q22 0 71 18zM349 189l-65 208l-128 -208h193z" />
    <glyph glyph-name="aogonek.sc.semp" horiz-adv-x="537" 
d="M488 -152l-9 -58q-33 -15 -80 -15q-45 0 -76 19.5t-31 59.5q0 83 117 146l-29 96h-281l-60 -96h-76l345 546l177 -553q-60 -27 -92.5 -53t-32.5 -65q0 -21 15.5 -33t41.5 -12q22 0 71 18zM363 152l-77 251l-154 -251h231z" />
    <glyph glyph-name="abreve.sc" horiz-adv-x="537" 
d="M422 734h58q-11 -54 -56 -99t-112 -45q-55 0 -88 38t-26 106h60q1 -10 -0.5 -30.5t14.5 -42t47 -21.5q29 0 50.5 13t32 32t15 30.5t5.5 18.5zM482 0h-73l-40 126h-252l-78 -126h-76l345 546zM349 189l-65 208l-128 -208h193z" />
    <glyph glyph-name="abreve.sc.semp" horiz-adv-x="537" 
d="M422 734h58q-11 -54 -56 -99t-112 -45q-55 0 -88 38t-26 106h60q1 -10 -0.5 -30.5t14.5 -42t47 -21.5q29 0 50.5 13t32 32t15 30.5t5.5 18.5zM482 0h-73l-29 96h-281l-60 -96h-76l345 546zM363 152l-77 251l-154 -251h231z" />
    <glyph glyph-name="amacron.sc" horiz-adv-x="537" 
d="M485 596h-335l10 58h335zM482 0h-73l-40 126h-252l-78 -126h-76l345 546zM349 189l-65 208l-128 -208h193z" />
    <glyph glyph-name="amacron.sc.semp" horiz-adv-x="537" 
d="M485 596h-335l10 58h335zM482 0h-73l-29 96h-281l-60 -96h-76l345 546zM363 152l-77 251l-154 -251h231z" />
    <glyph glyph-name="uni1E03.sc" horiz-adv-x="489" 
d="M327 658q0 -20 -17.5 -35.5t-38.5 -15.5q-17 0 -27.5 11.5t-10.5 27.5q0 22 16 37.5t37 15.5q18 0 29.5 -11.5t11.5 -29.5zM189 0h-149l84 528h117q167 0 167 -108q0 -50 -32 -86.5t-72 -49.5q42 -8 75.5 -38t33.5 -86q0 -71 -59 -115.5t-165 -44.5zM157 301h38
q68 0 104 27t36 75q0 36 -24 49t-84 13h-44zM119 63h70q75 0 113 25.5t38 70.5q0 38 -27.5 58.5t-74.5 20.5h-91z" />
    <glyph glyph-name="ccedilla.sc" horiz-adv-x="575" 
d="M198 -247h-67l102 170h77zM466 102l24 -47q-84 -65 -193 -65q-114 0 -183.5 68.5t-69.5 174.5q0 127 97 216.5t232 89.5q117 0 181 -71l-46 -48q-49 57 -142 57q-103 0 -175.5 -70t-72.5 -169q0 -83 53 -135t138 -52q94 0 157 51z" />
    <glyph glyph-name="cacute.sc" horiz-adv-x="575" 
d="M485 748l-173 -145l-35 27l155 163zM466 102l24 -47q-84 -65 -193 -65q-114 0 -183.5 68.5t-69.5 174.5q0 127 97 216.5t232 89.5q117 0 181 -71l-46 -48q-49 57 -142 57q-103 0 -175.5 -70t-72.5 -169q0 -83 53 -135t138 -52q94 0 157 51z" />
    <glyph glyph-name="ccaron.sc" horiz-adv-x="575" 
d="M534 738l-174 -134l-132 134l42 36l101 -96l132 96zM466 102l24 -47q-84 -65 -193 -65q-114 0 -183.5 68.5t-69.5 174.5q0 127 97 216.5t232 89.5q117 0 181 -71l-46 -48q-49 57 -142 57q-103 0 -175.5 -70t-72.5 -169q0 -83 53 -135t138 -52q94 0 157 51z" />
    <glyph glyph-name="ccircumflex.sc" horiz-adv-x="575" 
d="M509 640l-43 -36l-102 96l-131 -96l-31 36l175 134zM466 102l24 -47q-84 -65 -193 -65q-114 0 -183.5 68.5t-69.5 174.5q0 127 97 216.5t232 89.5q117 0 181 -71l-46 -48q-49 57 -142 57q-103 0 -175.5 -70t-72.5 -169q0 -83 53 -135t138 -52q94 0 157 51z" />
    <glyph glyph-name="cdotaccent.sc" horiz-adv-x="575" 
d="M413 658q0 -20 -16.5 -35.5t-38.5 -15.5q-16 0 -27.5 11.5t-11.5 28.5q0 21 16.5 36.5t36.5 15.5q18 0 29.5 -11.5t11.5 -29.5zM466 102l24 -47q-84 -65 -193 -65q-114 0 -183.5 68.5t-69.5 174.5q0 127 97 216.5t232 89.5q117 0 181 -71l-46 -48q-49 57 -142 57
q-103 0 -175.5 -70t-72.5 -169q0 -83 53 -135t138 -52q94 0 157 51z" />
    <glyph glyph-name="dcaron.sc" horiz-adv-x="576" 
d="M492 736l-174 -134l-132 134l42 36l100 -96l132 96zM176 0h-136l84 528h127q120 0 192.5 -58.5t72.5 -165.5q0 -145 -93 -224.5t-247 -79.5zM119 63h60q120 0 191.5 59.5t71.5 173.5q0 79 -52 124t-136 45h-71z" />
    <glyph glyph-name="dcroat.sc" horiz-adv-x="579" 
d="M179 0h-136l37 234h-61l9 56h61l38 238h127q120 0 192.5 -58.5t72.5 -165.5q0 -145 -93 -224.5t-247 -79.5zM122 63h60q120 0 191.5 59.5t71.5 173.5q0 79 -52 124t-136 45h-71l-28 -175h139l-9 -56h-139z" />
    <glyph glyph-name="uni1E0B.sc" horiz-adv-x="576" 
d="M372 658q0 -20 -17 -35.5t-39 -15.5q-16 0 -27 11.5t-11 28.5q0 21 16.5 36.5t36.5 15.5q18 0 29.5 -11.5t11.5 -29.5zM176 0h-136l84 528h127q120 0 192.5 -58.5t72.5 -165.5q0 -145 -93 -224.5t-247 -79.5zM119 63h60q120 0 191.5 59.5t71.5 173.5q0 79 -52 124
t-136 45h-71z" />
    <glyph glyph-name="four.sc" horiz-adv-x="482" 
d="M314 -4h-66l16 98h-270l4 17l382 436h22l-63 -396h73l-9 -57h-73zM276 149l39 241l-211 -241h172z" />
    <glyph glyph-name="three.sc" horiz-adv-x="429" 
d="M262 293v-1q83 -36 83 -128q0 -73 -55.5 -123t-149.5 -50q-42 0 -76 11.5t-48 22t-23 21.5l36 48q8 -16 39.5 -32.5t75.5 -16.5q63 0 99 35t36 82q0 46 -36 77.5t-101 31.5l5 37q67 1 109.5 32.5t42.5 72.5q0 28 -20.5 45t-55.5 17q-52 0 -94 -28l-14 47q16 13 52.5 26
t73.5 13q58 0 91.5 -33.5t33.5 -78.5q0 -83 -104 -128z" />
    <glyph glyph-name="two.sc" horiz-adv-x="464" 
d="M367 1h-381l1 27q18 9 54.5 33t89.5 65t99 84.5t79 94.5t33 92q0 36 -22 60t-59 24q-65 0 -122 -55l-26 42q80 71 163 71q62 0 98.5 -38t36.5 -96q0 -163 -292 -348q43 0 129 0.5t128 0.5z" />
    <glyph glyph-name="one.sc" horiz-adv-x="289" 
d="M153 0h-67l72 453l-95 -34l-12 49l187 72z" />
    <glyph glyph-name="zero_slash.sc.alt" horiz-adv-x="662" 
d="M604 303q0 -128 -96 -220.5t-224 -92.5q-107 0 -172.5 68t-65.5 173q0 129 96 218.5t224 89.5q107 0 172.5 -66.5t65.5 -169.5zM174 92l258 370q-32 15 -75 15q-97 0 -168 -71t-71 -170q0 -94 56 -144zM477 434l-257 -370q29 -13 68 -13q102 0 172.5 71t70.5 173
q0 91 -54 139z" />
    <glyph glyph-name="zero.sc.alt" horiz-adv-x="662" 
d="M604 303q0 -128 -96 -220.5t-224 -92.5q-107 0 -172.5 68t-65.5 173q0 129 96 218.5t224 89.5q107 0 172.5 -66.5t65.5 -169.5zM294 51q96 0 166.5 71.5t70.5 171.5q0 81 -48 132t-128 51q-96 0 -166.5 -71t-70.5 -170q0 -78 47 -131.5t129 -53.5z" />
    <glyph glyph-name="zero_slash.sc" horiz-adv-x="522" 
d="M218 -8q-50 0 -85.5 17.5t-53 48.5t-25 63.5t-7.5 70.5q0 33 4 69.5t19.5 88.5t40 91.5t71.5 68t108 28.5q50 0 85.5 -18t53 -49t25 -63.5t7.5 -70.5q0 -25 -3 -54t-11 -71t-25.5 -78.5t-42.5 -69.5t-67 -52.5t-94 -19.5zM135 92l202 378q-22 11 -50 11q-56 0 -96 -40
t-58 -100.5t-18 -131.5q0 -81 20 -117zM374 434l-203 -376q19 -11 48 -11q57 0 98 43.5t58.5 103.5t17.5 128q0 75 -19 112z" />
    <glyph glyph-name="zero.sc" horiz-adv-x="522" 
d="M218 -8q-50 0 -85.5 17.5t-53 48.5t-25 63.5t-7.5 70.5q0 33 4 69.5t19.5 88.5t40 91.5t71.5 68t108 28.5q50 0 85.5 -18t53 -49t25 -63.5t7.5 -70.5q0 -25 -3 -54t-11 -71t-25.5 -78.5t-42.5 -69.5t-67 -52.5t-94 -19.5zM223 47q79 0 124.5 83t45.5 190q0 161 -109 161
q-54 0 -93.5 -40.5t-57.5 -100t-18 -128.5q0 -165 108 -165z" />
    <glyph glyph-name="nine.osf" horiz-adv-x="540" 
d="M146 -265l-40 45q49 47 123 133.5t125 161.5q-43 -42 -122 -42q-85 0 -141 61.5t-56 151.5q0 110 82.5 189t195.5 79q96 0 150 -59t54 -141q0 -204 -371 -579zM250 94q80 0 137.5 62t57.5 143q0 66 -40 109t-105 43q-79 0 -135 -61t-56 -143q0 -65 37.5 -109t103.5 -44z
" />
    <glyph glyph-name="eight.osf" horiz-adv-x="589" 
d="M406 363q92 -48 92 -148q0 -96 -76.5 -162t-174.5 -66q-85 0 -138.5 52t-53.5 130q0 72 45 122t103 73q-88 43 -88 150q0 100 76.5 159.5t169.5 59.5q81 0 134 -47.5t53 -124.5q0 -68 -40.5 -122t-101.5 -76zM425 209q0 53 -36 90t-92 37q-66 0 -118 -49.5t-52 -114.5
q0 -53 36 -89.5t91 -36.5q66 0 118.5 49.5t52.5 113.5zM474 550q0 53 -34 88t-88 35q-64 0 -115.5 -48t-51.5 -111q0 -51 35 -86.5t91 -35.5q65 0 114 46.5t49 111.5z" />
    <glyph glyph-name="six.osf" horiz-adv-x="587" 
d="M415 766l40 -45q-49 -48 -123 -134.5t-125 -161.5q43 42 122 42q86 0 141.5 -61.5t55.5 -149.5q0 -108 -80.5 -188.5t-191.5 -80.5q-95 0 -152.5 59.5t-57.5 142.5q0 198 371 577zM262 49q79 0 135.5 60.5t56.5 142.5q0 65 -38 109.5t-104 44.5q-79 0 -137 -62t-58 -143
q0 -66 40 -109t105 -43z" />
    <glyph glyph-name="four.osf" horiz-adv-x="627" 
d="M375 -235h-66l38 238h-368l-3 19l519 530h5l-78 -489q22 0 65 0.5t64 0.5l-10 -61h-128zM356 62l51 319l-311 -321z" />
    <glyph glyph-name="zero_slash.osf" horiz-adv-x="633" 
d="M264 -17q-94 0 -154.5 65.5t-60.5 163.5q0 123 91 213.5t209 90.5q94 0 155.5 -66.5t61.5 -164.5q0 -122 -91.5 -212t-210.5 -90zM449 406l-241 -345q31 -14 68 -14q89 0 156.5 68t67.5 160q0 82 -51 131zM162 90l241 345q-30 14 -64 14q-88 0 -155.5 -68.5t-67.5 -162.5
q0 -82 46 -128z" />
    <glyph glyph-name="nine.tab" horiz-adv-x="624" 
d="M208 -17l-40 44q49 48 123 134.5t125 161.5q-43 -42 -122 -42q-85 0 -141 61.5t-56 151.5q0 110 82.5 189t195.5 79q96 0 150 -59t54 -141q0 -208 -371 -579zM312 342q80 0 137.5 62t57.5 143q0 66 -40 109t-105 43q-79 0 -135 -61t-56 -143q0 -65 37.5 -109t103.5 -44z
" />
    <glyph glyph-name="eight.tab" horiz-adv-x="625" 
d="M427 378q90 -49 90 -152q0 -100 -77 -169.5t-175 -69.5q-84 0 -137.5 53t-53.5 135q0 76 45 128t105 76q-88 46 -88 155q0 102 77.5 165.5t171.5 63.5q80 0 132.5 -49t52.5 -129q0 -72 -42 -127t-101 -80zM273 46q67 0 119.5 52.5t52.5 120.5q0 55 -35.5 93.5t-91.5 38.5
q-67 0 -119.5 -52t-52.5 -121q0 -56 36 -94t91 -38zM332 408q65 0 114.5 49t49.5 117q0 56 -33.5 92.5t-87.5 36.5q-65 0 -116.5 -50.5t-51.5 -117.5q0 -53 34.5 -90t90.5 -37z" />
    <glyph glyph-name="seven.tab" horiz-adv-x="623" 
d="M141 -6h-79l439 693l-342 -1l10 63h449z" />
    <glyph glyph-name="six.tab" horiz-adv-x="624" 
d="M437 766l40 -45q-49 -48 -123 -134.5t-125 -161.5q43 42 122 42q86 0 141.5 -61.5t55.5 -149.5q0 -108 -80.5 -188.5t-191.5 -80.5q-95 0 -152.5 59.5t-57.5 142.5q0 198 371 577zM284 49q79 0 135.5 60.5t56.5 142.5q0 65 -38 109.5t-104 44.5q-79 0 -137 -62t-58 -143
q0 -66 40 -109t105 -43z" />
    <glyph glyph-name="five.tab" horiz-adv-x="623" 
d="M40 45l36 58q64 -54 144 -54q102 0 160.5 65.5t58.5 149.5q0 65 -41 109.5t-121 44.5q-50 0 -116 -21l148 352h264l-27 -60h-200l-90 -220q27 4 56 4q89 0 145.5 -54.5t56.5 -141.5q0 -73 -32.5 -137.5t-101 -108t-160.5 -43.5q-58 0 -109 19.5t-71 37.5z" />
    <glyph glyph-name="four.tab" horiz-adv-x="623" 
d="M423 -3h-67l24 150h-359l-2 19l521 609h6l-89 -566h96l-10 -62h-96zM390 209l60 377l-307 -377h247z" />
    <glyph glyph-name="three.tab" horiz-adv-x="624" 
d="M39 65l40 54q11 -23 51.5 -47.5t101.5 -24.5q90 0 143 55t53 128q0 68 -48 118t-133 51l6 36q93 5 150.5 55.5t57.5 112.5q0 41 -28 68t-79 27q-69 0 -128 -41l-15 50q19 18 66.5 36.5t96.5 18.5q73 0 115 -44.5t42 -107.5q0 -56 -35 -106.5t-108 -82.5v-2
q54 -25 82.5 -75t28.5 -111q0 -102 -75 -173.5t-197 -71.5q-128 0 -188 77z" />
    <glyph glyph-name="two.tab" horiz-adv-x="623" 
d="M497 0h-489l-3 14q5 5 61 48.5t123.5 101.5t137.5 127t116.5 144.5t46.5 134.5q0 56 -30.5 93.5t-82.5 37.5q-48 0 -92 -26t-72 -57l-29 47q103 97 208 97q79 0 125 -51t46 -131q0 -70 -34 -140.5t-100.5 -140t-127 -120t-150.5 -118.5l356 2z" />
    <glyph glyph-name="one.tab" horiz-adv-x="623" 
d="M510 1h-480l10 64h212l97 609l-158 -69l-13 54l255 110l-112 -704h199z" />
    <glyph glyph-name="zero_slash.tab" horiz-adv-x="624" 
d="M263 -12q-199 0 -199 288q0 128 34.5 236.5t108 179t173.5 70.5q200 0 200 -291q0 -129 -35.5 -237t-109 -177t-172.5 -69zM158 122l294 551q-30 27 -80 27q-74 0 -129 -60.5t-81 -154.5t-26 -205q0 -110 22 -158zM488 625l-297 -549q30 -28 79 -28q76 0 132 64.5
t81.5 158.5t25.5 201t-21 153z" />
    <glyph glyph-name="zero.tab" horiz-adv-x="624" 
d="M263 -12q-199 0 -199 288q0 128 34.5 236.5t108 179t173.5 70.5q200 0 200 -291q0 -129 -35.5 -237t-109 -177t-172.5 -69zM274 48q72 0 127 63.5t81 157t26 197.5q0 234 -140 234q-72 0 -126 -61.5t-80 -154.5t-26 -199q0 -237 138 -237z" />
    <glyph glyph-name="five.alt" horiz-adv-x="527" 
d="M-13 65l41 57q16 -19 64.5 -45.5t104.5 -26.5q79 0 137.5 56.5t58.5 138.5q0 86 -69.5 142t-188.5 75l145 279h249l-28 -64h-182l-90 -175q108 -21 172.5 -81.5t64.5 -162.5q0 -117 -80 -193t-197 -76q-74 0 -130 27.5t-72 48.5z" />
    <glyph glyph-name="question.sc" horiz-adv-x="365" 
d="M276 258l26 -32q-18 -25 -60.5 -50t-89.5 -25q-41 0 -72 25t-31 66q0 31 18.5 57.5t36.5 39t48 30.5q31 19 48.5 31t34 30.5t16.5 36.5q0 17 -11.5 28t-29.5 11q-38 0 -82 -31l-20 37q59 43 118 43q42 0 63.5 -24t21.5 -58q0 -16 -7 -31.5t-14.5 -26.5t-24 -25t-25 -20
t-28.5 -19t-24 -16q-5 -3 -22.5 -14t-23 -15.5t-16 -14.5t-14 -20t-3.5 -22q0 -21 15 -35t39 -14q58 0 113 58zM181 50q0 -24 -18.5 -41.5t-42.5 -17.5q-18 0 -30.5 13t-12.5 31q0 25 18 43t42 18q19 0 31.5 -13t12.5 -33z" />
    <glyph glyph-name="questiondown.sc" horiz-adv-x="364" 
d="M224 57l20 -37q-55 -42 -118 -42q-42 0 -63.5 23.5t-21.5 57.5q0 16 7 31.5t14.5 26.5t24 25t25 20t28.5 19t24 16q5 3 22.5 14t23 15.5t16 14.5t14 20t3.5 22q0 21 -15 35t-39 14q-60 0 -112 -58l-27 32q19 25 61 50t90 25q41 0 71.5 -25t30.5 -66q0 -31 -18.5 -57.5
t-36.5 -39t-48 -30.5q-31 -18 -48.5 -30.5t-33.5 -31t-16 -36.5q0 -17 11 -28t29 -11q41 0 82 31zM276 496q0 -24 -18.5 -42t-42.5 -18q-19 0 -31.5 13t-12.5 33q0 24 18.5 42t42.5 18q19 0 31.5 -13.5t12.5 -32.5z" />
    <glyph glyph-name="exclam.sc" horiz-adv-x="243" 
d="M119 152h-46l49 396h80zM133 49q0 -23 -18.5 -40.5t-41.5 -17.5q-19 0 -31.5 13t-12.5 31q0 25 18.5 43t42.5 18q18 0 30.5 -13.5t12.5 -33.5z" />
    <glyph glyph-name="exclamdown.sc" horiz-adv-x="245" 
d="M114 -9h-80l77 395h46zM145 442q-18 0 -31 13.5t-13 33.5q0 23 18.5 41t41.5 18q19 0 32 -13.5t13 -31.5q0 -25 -18.5 -43t-42.5 -18z" />
    <glyph glyph-name="commaaccent" horiz-adv-x="301" 
d="M85 -232h-73l114 190h79z" />
    <glyph glyph-name="periodcentered.sc" horiz-adv-x="256" 
d="M176 280q0 -24 -18.5 -41t-42.5 -17q-20 0 -32.5 13t-12.5 31q0 24 18.5 41.5t42.5 17.5q20 0 32.5 -12.5t12.5 -32.5z" />
    <glyph glyph-name="plus.sc" horiz-adv-x="466" 
d="M405 224h-156l-25 -158h-59l25 158h-156l9 56h156l25 159h59l-25 -159h156z" />
    <glyph glyph-name="plus.dnom" horiz-adv-x="403" 
d="M346 169h-140l-20 -127h-54l20 127h-139l8 51h139l21 132h54l-21 -132h140z" />
    <glyph glyph-name="plus.sup" horiz-adv-x="405" 
d="M403 516h-141l-20 -127h-53l20 127h-141l8 51h141l21 132h53l-21 -132h141z" />
    <glyph glyph-name="plus.sinf" horiz-adv-x="406" 
d="M320 -10h-141l-20 -127h-53l20 127h-140l8 50h140l21 132h53l-21 -132h141z" />
    <glyph glyph-name="minus.sc" horiz-adv-x="523" 
d="M434 224h-371l9 56h371z" />
    <glyph glyph-name="minus.dnom" horiz-adv-x="448" 
d="M369 169h-333l8 51h333z" />
    <glyph glyph-name="minus.sup" horiz-adv-x="448" 
d="M424 516h-333l8 51h333z" />
    <glyph glyph-name="minus.sinf" horiz-adv-x="449" 
d="M341 -10h-333l8 50h333z" />
    <glyph glyph-name="multiply.sc" horiz-adv-x="466" 
d="M374 124l-50 -38l-102 135l-148 -135l-39 37l152 135l-109 138l50 39l107 -140l144 140l38 -39l-148 -137z" />
    <glyph glyph-name="multiply.dnom" horiz-adv-x="394" 
d="M313 87l-45 -32l-95 103l-125 -102l-37 30l131 106l-96 105l45 32l94 -103l126 103l34 -32l-128 -105z" />
    <glyph glyph-name="multiply.sup" horiz-adv-x="393" 
d="M368 434l-45 -32l-95 103l-125 -102l-37 30l131 106l-96 105l45 32l94 -103l126 103l34 -32l-128 -105z" />
    <glyph glyph-name="multiply.sinf" horiz-adv-x="392" 
d="M284 -92l-45 -32l-95 103l-125 -102l-36 30l130 105l-96 105l45 32l94 -103l126 103l34 -32l-128 -105z" />
    <glyph glyph-name="divide.sc" horiz-adv-x="503" 
d="M424 223h-371l9 56h371zM310 398q0 -18 -15.5 -33.5t-36.5 -15.5q-15 0 -25.5 12t-10.5 27q0 19 16 34.5t34 15.5t28 -11.5t10 -28.5zM266 115q0 -18 -16 -34t-37 -16q-15 0 -25 12t-10 27q0 19 15.5 34.5t33.5 15.5t28.5 -11.5t10.5 -27.5z" />
    <glyph glyph-name="divide.dnom" horiz-adv-x="428" 
d="M359 169h-333l8 52h333zM216 91q0 -15 -13 -27t-30 -12q-12 0 -21 9.5t-9 21.5q0 14 13.5 26.5t28.5 12.5q14 0 22.5 -9t8.5 -22zM250 305q0 -15 -12.5 -26.5t-29.5 -11.5q-13 0 -22 9.5t-9 21.5q0 14 13 26t28 12q14 0 23 -9t9 -22z" />
    <glyph glyph-name="divide.sup" horiz-adv-x="429" 
d="M414 516h-333l8 52h333zM271 438q0 -15 -13 -27t-30 -12q-12 0 -21 9.5t-9 21.5q0 14 13.5 26.5t28.5 12.5q14 0 22.5 -9t8.5 -22zM305 652q0 -15 -12.5 -26.5t-29.5 -11.5q-13 0 -22 9.5t-9 21.5q0 14 13 26t28 12q14 0 23 -9t9 -22z" />
    <glyph glyph-name="divide.sinf" horiz-adv-x="429" 
d="M331 -10h-332l7 51h333zM188 -88q0 -15 -12.5 -27t-30.5 -12q-12 0 -21 9.5t-9 21.5q0 14 13.5 26.5t28.5 12.5q14 0 22.5 -9t8.5 -22zM222 125q0 -15 -12.5 -26.5t-29.5 -11.5q-13 0 -22 9.5t-9 21.5q0 14 13 26t28 12q14 0 23 -9t9 -22z" />
    <glyph glyph-name="equal.sc" horiz-adv-x="523" 
d="M447 304h-371l9 57h371zM422 148h-371l9 56h371z" />
    <glyph glyph-name="equal.dnom" horiz-adv-x="448" 
d="M358 100h-333l8 52h333zM380 237h-333l8 51h333z" />
    <glyph glyph-name="equal.sup" horiz-adv-x="449" 
d="M413 447h-333l8 52h333zM435 584h-333l8 51h333z" />
    <glyph glyph-name="equal.sinf" horiz-adv-x="449" 
d="M330 -79h-332l7 52h333zM352 57h-333l8 51h333z" />
    <glyph glyph-name="notequal.sc" horiz-adv-x="475" 
d="M396 138h-182l-81 -194l-52 16l74 178h-130l9 55h144l44 107h-171l9 57h185l82 198l51 -20l-74 -178h127l-9 -57h-141l-44 -107h168z" />
    <glyph glyph-name="plusminus.sc" horiz-adv-x="501" 
d="M390 1h-371l9 54h371zM431 261h-156l-25 -159h-59l25 159h-156l9 56h156l25 159h59l-25 -159h156z" />
    <glyph glyph-name="less.sc" horiz-adv-x="472" 
d="M335 46l-303 190l5 33l361 177l24 -48l-302 -147l253 -158z" />
    <glyph glyph-name="greater.sc" horiz-adv-x="473" 
d="M419 235l-361 -177l-24 47l303 147l-255 159l39 46l303 -188z" />
    <glyph glyph-name="section.alt" horiz-adv-x="388" 
d="M165 -155l51 863q15 19 64.5 40.5t90.5 21.5q20 0 32 -11.5t12 -28.5q0 -20 -16 -37t-35 -17q-20 0 -30 15.5t-8 31.5q-13 -3 -34 -12.5t-25 -14.5l-51 -862q-21 -34 -84 -67.5t-112 -33.5q-17 0 -27.5 11t-10.5 28q0 22 16 37.5t35 15.5t28.5 -14.5t8.5 -29.5
q67 19 95 64zM125 -99l-46 -26l46 776l45 31z" />
    <glyph glyph-name="five.sc" horiz-adv-x="431" 
d="M-5 33l31 53q48 -39 107 -39q70 0 111.5 41t41.5 96q0 43 -29 72t-86 29q-42 0 -93 -16l111 254h209l-26 -54h-148l-61 -139q21 3 41 3q66 0 109.5 -40t43.5 -102q0 -80 -59.5 -140t-162.5 -60q-46 0 -85 14.5t-55 27.5z" />
    <glyph glyph-name="two.dnom" horiz-adv-x="388" 
d="M303 0h-330q9 7 57.5 41t81 60t73.5 63t63 73t22 67q0 27 -18.5 46t-46.5 19q-54 0 -101 -45l-24 40q71 56 140 56q53 0 84 -31t31 -77q0 -123 -226 -262l202 2z" />
    <glyph glyph-name="six.sc" horiz-adv-x="464" 
d="M302 536l39 -40q-29 -25 -89 -89t-90 -105q37 26 90 26q63 0 103.5 -41.5t40.5 -104.5q0 -80 -63.5 -135.5t-147.5 -55.5q-74 0 -116.5 43t-42.5 102q0 143 276 400zM330 175q0 44 -29 72t-74 28q-52 0 -93 -37.5t-41 -90.5q0 -42 26.5 -71t73.5 -29q55 0 96 37.5
t41 90.5z" />
    <glyph glyph-name="three.dnom" horiz-adv-x="359" 
d="M218 230v-1q70 -27 70 -102q0 -54 -51 -95t-131 -41q-48 0 -79.5 14.5t-44.5 29.5l34 45q9 -12 36 -24.5t62 -12.5q52 0 81.5 25.5t29.5 59.5q0 35 -32 58t-88 23l5 34q56 0 92 23.5t36 54.5q0 21 -16.5 34t-46.5 13q-45 0 -79 -23l-14 45q13 11 45.5 21t66.5 10
q51 0 80 -26t29 -61q0 -69 -85 -104z" />
    <glyph glyph-name="four.dnom" horiz-adv-x="401" 
d="M260 -4h-62l13 84h-220l7 44l284 290h44l-45 -283h63l-8 -51h-63zM221 129l31 196l-186 -196h155z" />
    <glyph glyph-name="five.dnom" horiz-adv-x="358" 
d="M-17 27l30 51q44 -32 90 -32q57 0 89.5 29t32.5 70q0 33 -23.5 54.5t-70.5 21.5q-37 0 -81 -13l91 205h183l-24 -50h-124l-47 -100q24 2 34 2q56 0 93 -32.5t37 -81.5q0 -64 -49.5 -111t-138.5 -47q-40 0 -74 11.5t-48 22.5z" />
    <glyph glyph-name="six.dnom" horiz-adv-x="386" 
d="M250 460l37 -39q-30 -26 -79.5 -77t-73.5 -83q26 21 77 21q53 0 88 -35.5t35 -89.5q0 -69 -55.5 -117t-129.5 -48q-60 0 -100 38t-40 92q0 121 235 333q2 2 3.5 3t2.5 2zM270 151q0 36 -25 58.5t-62 22.5q-41 0 -74.5 -30.5t-33.5 -73.5q0 -33 24 -58t60 -25
q44 0 77.5 31t33.5 75z" />
    <glyph glyph-name="seven.dnom" horiz-adv-x="351" 
d="M60 -4h-69l261 361h-209l9 55h303z" />
    <glyph glyph-name="eight.dnom" horiz-adv-x="395" 
d="M261 216q25 -12 42.5 -34.5t17.5 -51.5q0 -56 -52.5 -97t-120.5 -41q-58 0 -96 32t-38 79q0 39 28.5 68t63.5 44q-25 10 -41 34.5t-16 50.5q0 60 52.5 97.5t116.5 37.5q57 0 93.5 -30t36.5 -79q0 -35 -26.5 -66.5t-60.5 -43.5zM254 126q0 27 -22 46.5t-54 19.5
q-39 0 -68.5 -24.5t-29.5 -57.5q0 -28 21.5 -47t53.5 -19q39 0 69 24.5t30 57.5zM283 317q0 28 -21 46.5t-53 18.5q-38 0 -67 -23.5t-29 -55.5q0 -26 21 -45t54 -19q38 0 66.5 23.5t28.5 54.5z" />
    <glyph glyph-name="nine.dnom" horiz-adv-x="387" 
d="M110 -41l-37 38q91 76 152 153q-27 -21 -72 -21q-56 0 -94 37.5t-38 91.5q0 64 56 113.5t130 49.5q62 0 101 -38t39 -91q0 -123 -237 -333zM281 287q0 33 -23.5 56.5t-59.5 23.5q-46 0 -78 -31.5t-32 -73.5q0 -34 22 -58t60 -24q47 0 79 31.5t32 75.5z" />
    <glyph glyph-name="zero_slash.sinf" horiz-adv-x="418" 
d="M129 -188q-72 0 -101.5 48t-29.5 116q0 19 2 39.5t8 53.5t20 61t35 54t55.5 41.5t78.5 15.5q74 0 105 -47t31 -115q0 -27 -3 -55t-16 -68t-33.5 -70.5t-60 -52t-91.5 -21.5zM64 -79l179 250q-21 19 -54 19q-61 0 -94 -62t-33 -156q0 -27 2 -51zM264 132l-178 -250
q17 -19 51 -19q63 0 96.5 64.5t33.5 153.5q0 33 -3 51z" />
    <glyph glyph-name="seven.sc" horiz-adv-x="414" 
d="M77 -5h-77l325 471l-253 -1l9 57h351z" />
    <glyph glyph-name="eight.sc" horiz-adv-x="462" 
d="M308 264q68 -33 68 -105q0 -73 -58.5 -120.5t-135.5 -47.5q-63 0 -105.5 38t-42.5 95q0 50 32 87.5t75 52.5q-28 14 -46 42.5t-18 61.5q0 77 58.5 120.5t132.5 43.5q62 0 102 -35t40 -94q0 -46 -30 -86t-72 -53zM306 154q0 35 -24.5 60t-60.5 25q-47 0 -83 -32.5
t-36 -76.5q0 -36 25 -61t63 -25q51 0 83.5 33t32.5 77zM342 394q0 36 -23.5 60t-59.5 24q-52 0 -83.5 -31t-31.5 -75q0 -34 24 -58t61 -24q45 0 79 31t34 73z" />
    <glyph glyph-name="nine.sc" horiz-adv-x="462" 
d="M146 -14l-38 40q120 110 181 195q-30 -27 -88 -27q-64 0 -106 43.5t-42 108.5q0 79 62 133t147 54q73 0 117 -41.5t44 -101.5q0 -147 -277 -404zM221 246q55 0 94.5 40t39.5 95q0 45 -27.5 70t-72.5 25q-56 0 -94.5 -37.5t-38.5 -91.5q0 -43 26.5 -72t72.5 -29z" />
    <glyph glyph-name="zero.sup" horiz-adv-x="418" 
d="M212 337q-72 0 -102 48t-30 116q0 19 2 40t8.5 54t20.5 61t34.5 54t55.5 41.5t79 15.5q74 0 105 -47t31 -115q0 -27 -3 -55t-16 -68.5t-33.5 -70.5t-60 -52t-91.5 -22zM220 388q62 0 95.5 63.5t33.5 149.5q0 29 -5.5 52.5t-24 43t-47.5 19.5q-61 0 -94 -61t-33 -150
q0 -46 17.5 -81.5t57.5 -35.5z" />
    <glyph glyph-name="zero_slash.sup" horiz-adv-x="418" 
d="M212 338q-72 0 -102 48t-30 116q0 19 2 40t8.5 54t20.5 61t34.5 54t55.5 41.5t79 15.5q74 0 105 -47t31 -115q0 -27 -3 -55t-16 -68.5t-33.5 -70.5t-60 -52t-91.5 -22zM147 447l179 251q-21 19 -54 19q-61 0 -94 -62.5t-33 -156.5q0 -27 2 -51zM347 659l-178 -251
q17 -19 51 -19q63 0 96.5 64.5t33.5 154.5q0 33 -3 51z" />
    <glyph glyph-name="one.sup" horiz-adv-x="238" 
d="M180 345h-64l55 348l-75 -30l-14 49l165 59z" />
    <glyph glyph-name="two.sup" horiz-adv-x="391" 
d="M360 347h-331q8 6 58 41t81.5 60t73 62.5t63.5 73.5t22 67q0 27 -18.5 46t-46.5 19q-54 0 -101 -45l-24 40q71 56 140 56q53 0 84 -31t31 -77q0 -123 -226 -262l202 2z" />
    <glyph glyph-name="three.sup" horiz-adv-x="359" 
d="M273 577v-1q70 -27 70 -102q0 -54 -51.5 -95.5t-130.5 -41.5q-48 0 -80 15t-45 30l35 45q9 -12 36 -24.5t62 -12.5q52 0 81.5 25.5t29.5 59.5q0 35 -32 58t-88 23l5 34q56 0 92 23.5t36 54.5q0 21 -16.5 34t-46.5 13q-44 0 -79 -23l-14 45q13 11 45.5 21t66.5 10
q51 0 80 -26t29 -61q0 -69 -85 -104z" />
    <glyph glyph-name="four.sup" horiz-adv-x="401" 
d="M315 342h-62l13 85h-221l7 44l285 290h44l-45 -283h63l-8 -51h-63zM276 476l31 196l-186 -196h155z" />
    <glyph glyph-name="zero.dnom" horiz-adv-x="417" 
d="M157 -8q-72 0 -102 47.5t-30 115.5q0 19 2 40t8.5 54t20.5 61t34.5 54t55.5 41.5t79 15.5q74 0 105 -47t31 -115q0 -27 -3 -55t-16 -68t-33.5 -70.5t-60 -52t-91.5 -21.5zM165 42q62 0 95.5 63.5t33.5 149.5q0 29 -5.5 52.5t-24 43t-47.5 19.5q-61 0 -94 -61t-33 -150
q0 -46 17.5 -81.5t57.5 -35.5z" />
    <glyph glyph-name="five.sup" horiz-adv-x="359" 
d="M38 374l31 51q44 -32 90 -32q57 0 89.5 29t32.5 70q0 33 -23.5 54.5t-70.5 21.5q-37 0 -81 -13l91 205h183l-24 -50h-124l-47 -100q24 2 34 2q56 0 93 -32.5t37 -81.5q0 -64 -49.5 -111.5t-138.5 -47.5q-40 0 -74 12t-49 23z" />
    <glyph glyph-name="six.sup" horiz-adv-x="387" 
d="M309 807l37 -39q-123 -114 -157 -160q26 21 77 21q53 0 88 -35.5t35 -89.5q0 -69 -55.5 -117.5t-129.5 -48.5q-60 0 -100 38.5t-40 92.5q0 44 36.5 104.5t77 103.5t86.5 87zM325 498q0 36 -25 58.5t-62 22.5q-41 0 -74.5 -30.5t-33.5 -73.5q0 -33 24 -58t60 -25
q44 0 77.5 31t33.5 75z" />
    <glyph glyph-name="zero_slash.dnom" horiz-adv-x="417" 
d="M157 -8q-72 0 -102 47.5t-30 115.5q0 19 2 40t8.5 54t20.5 61t34.5 54t55.5 41.5t79 15.5q74 0 105 -47t31 -115q0 -27 -3 -55t-16 -68t-33.5 -70.5t-60 -52t-91.5 -21.5zM92 100l179 251q-21 19 -54 19q-61 0 -94 -62.5t-33 -156.5q0 -27 2 -51zM292 312l-178 -251
q17 -19 51 -19q63 0 96.5 64.5t33.5 154.5q0 33 -3 51z" />
    <glyph glyph-name="seven.sup" horiz-adv-x="348" 
d="M116 342h-70l262 362h-209l9 55h303z" />
    <glyph glyph-name="eight.sup" horiz-adv-x="394" 
d="M316 563q25 -12 42.5 -34.5t17.5 -51.5q0 -56 -52.5 -97.5t-120.5 -41.5q-57 0 -95.5 32.5t-38.5 79.5q0 39 28.5 68t63.5 44q-25 10 -41 34.5t-16 50.5q0 60 52.5 97.5t116.5 37.5q57 0 93.5 -30t36.5 -79q0 -35 -26.5 -66.5t-60.5 -43.5zM309 473q0 27 -22 46.5
t-54 19.5q-39 0 -68.5 -24.5t-29.5 -57.5q0 -28 21.5 -47t53.5 -19q39 0 69 24.5t30 57.5zM338 664q0 28 -21 46.5t-53 18.5q-38 0 -67 -23.5t-29 -55.5q0 -26 21 -45t54 -19q37 0 66 23.5t29 54.5z" />
    <glyph glyph-name="nine.sup" horiz-adv-x="387" 
d="M163 305l-37 38q93 77 153 154q-27 -21 -72 -21q-56 0 -94 37.5t-38 91.5q0 64 56 113.5t130 49.5q62 0 101 -38t39 -91q0 -115 -234 -330zM335 634q0 33 -23.5 56.5t-59.5 23.5q-46 0 -78 -31.5t-32 -73.5q0 -35 22 -58.5t60 -23.5q47 0 79 31.5t32 75.5z" />
    <glyph glyph-name="percent.sc" horiz-adv-x="632" 
d="M161 -19l-43 14l326 553l42 -15zM279 445q0 -52 -39 -90t-89 -38q-40 0 -66 28t-26 69q0 53 38.5 91.5t89.5 38.5q40 0 66 -28.5t26 -70.5zM158 361q29 0 52 24t23 54q0 25 -15 43t-38 18q-28 0 -51.5 -24.5t-23.5 -54.5q0 -25 15 -42.5t38 -17.5zM434 -10
q-40 0 -66.5 28t-26.5 70q0 52 39.5 90t89.5 38q40 0 65.5 -28t25.5 -69q0 -52 -38.5 -90.5t-88.5 -38.5zM441 33q28 0 51.5 24.5t23.5 54.5q0 24 -15.5 42t-37.5 18q-29 0 -52.5 -24t-23.5 -54q0 -25 15.5 -43t38.5 -18z" />
    <glyph glyph-name="perthousand.sc" horiz-adv-x="937" 
d="M166 -19l-42 14l325 553l44 -15zM279 445q0 -52 -39 -90t-89 -38q-40 0 -66 28t-26 69q0 53 38.5 91.5t89.5 38.5q40 0 66 -28.5t26 -70.5zM158 361q29 0 52 24t23 54q0 25 -15 43t-38 18q-28 0 -51.5 -24.5t-23.5 -54.5q0 -25 15 -42.5t38 -17.5zM434 -10
q-40 0 -66.5 28t-26.5 70q0 52 39.5 90t89.5 38q40 0 65.5 -28t25.5 -69q0 -52 -38.5 -90.5t-88.5 -38.5zM441 33q28 0 51.5 24.5t23.5 54.5q0 24 -15.5 42t-37.5 18q-29 0 -52.5 -24t-23.5 -54q0 -25 15.5 -43t38.5 -18zM739 -10q-41 0 -67 27.5t-26 69.5q0 53 38.5 91
t90.5 38q40 0 66 -28t26 -70q0 -52 -39 -90t-89 -38zM746 33q27 0 51 24t24 54q0 25 -15.5 43t-37.5 18q-29 0 -52 -24t-23 -54q0 -25 15 -43t38 -18z" />
    <glyph glyph-name="dollar.alt" horiz-adv-x="487" 
d="M209 -97h-49l16 100q-62 3 -108 35.5t-60 71.5l42 44q52 -90 135 -95l49 312q-123 73 -123 174q0 82 52 132t129 59l16 97h49l-16 -96q78 -7 133 -76l-39 -43q-39 57 -102 64l-43 -267q134 -76 134 -196q0 -82 -55.5 -140.5t-142.5 -72.5zM279 346l-45 -285q54 9 90 50.5
t36 104.5q0 82 -81 130zM245 441l38 239q-46 -8 -77.5 -42.5t-31.5 -89.5q0 -60 71 -107z" />
    <glyph glyph-name="dollar.sc" horiz-adv-x="457" 
d="M185 -77l-51 2l17 75q-46 3 -86 26t-54 49l46 47q36 -56 108 -62l42 191q-50 25 -79.5 55.5t-29.5 75.5q0 67 49.5 106t121.5 42l17 78h51l-18 -80q59 -14 94 -53l-42 -48q-30 33 -65 41l-37 -169q30 -18 48.5 -32.5t35.5 -43.5t17 -64q0 -60 -45 -105.5t-124 -53.5z
M223 322l34 149q-39 -3 -63 -22.5t-24 -54.5q0 -47 53 -72zM251 227l-36 -165q83 17 83 86q0 49 -47 79z" />
    <glyph glyph-name="dollar.dnom" horiz-adv-x="344" 
d="M123 -52h-44l10 43q-34 6 -63 22.5t-39 33.5l38 42q23 -35 78 -45l38 157q-23 13 -32.5 19t-26 20t-23 29.5t-6.5 35.5q0 57 43 91t102 35l8 31h43l-10 -36q25 -7 43.5 -20.5t23.5 -22.5l-37 -43q-19 22 -43 32l-31 -127q39 -20 61.5 -46t22.5 -70q0 -55 -39 -94.5
t-107 -44.5zM179 179l-34 -136q32 5 50 24.5t18 49.5q0 35 -34 62zM156 263l28 115q-27 -2 -46.5 -19t-19.5 -44q0 -31 38 -52z" />
    <glyph glyph-name="dollar.sup" horiz-adv-x="347" 
d="M181 294h-44l10 43q-34 5 -63 22t-40 35l39 42q23 -35 78 -45l38 157q-23 13 -32.5 19t-26 20t-23 29.5t-6.5 35.5q0 57 43 91t102 35l8 31h43l-10 -36q25 -7 43.5 -20.5t23.5 -22.5l-37 -43q-19 22 -43 32l-31 -127q39 -20 61.5 -46t22.5 -70q0 -55 -39 -95t-107 -46z
M237 526l-34 -136q31 4 49.5 24t18.5 49q0 37 -34 63zM214 610l28 115q-27 -2 -46.5 -19t-19.5 -44q0 -31 38 -52z" />
    <glyph glyph-name="dollar.sinf" horiz-adv-x="345" 
d="M95 -232h-44l10 43q-34 6 -62.5 23t-39.5 34l39 42q8 -14 29.5 -27t47.5 -18l38 156q-23 13 -32.5 19t-26 20t-23 29.5t-6.5 35.5q0 57 43 91t102 35l8 31h43l-10 -36q25 -7 43.5 -20.5t23.5 -22.5l-37 -43q-19 22 -43 32l-31 -127q39 -20 61.5 -45.5t22.5 -69.5
q0 -54 -39 -94.5t-107 -45.5zM151 0l-34 -136q31 4 49.5 24t18.5 49q0 39 -34 63zM128 83l28 115q-27 -2 -46.5 -19t-19.5 -44q0 -31 38 -52z" />
    <glyph glyph-name="one.dnom" horiz-adv-x="238" 
d="M125 0h-64l55 347l-75 -30l-14 49l165 59z" />
    <glyph glyph-name="cent.sc" horiz-adv-x="425" 
d="M200 -18h-53l18 103q-54 9 -88.5 49t-34.5 100q0 77 48.5 133.5t130.5 70.5l15 103h52l-16 -101q62 -5 110 -53l-39 -41q-32 36 -80 39l-39 -248q61 3 108 46l25 -37q-58 -60 -142 -63zM175 140l39 242q-51 -10 -82.5 -51t-31.5 -93q0 -40 22 -65t53 -33z" />
    <glyph glyph-name="cent.dnom" horiz-adv-x="343" 
d="M156 -13h-42l10 63q-49 8 -79.5 41.5t-30.5 81.5q0 62 45.5 104.5t108.5 50.5l14 83h42l-13 -82q31 -2 56.5 -16t33.5 -24l-31 -37q-29 29 -67 31l-29 -188q46 0 89 34l13 -36q-34 -37 -110 -43zM132 97l29 184q-38 -7 -66 -34.5t-28 -70.5q0 -32 17.5 -53t47.5 -26z" />
    <glyph glyph-name="cent.sup" horiz-adv-x="344" 
d="M212 333h-42l10 64q-49 8 -79.5 41.5t-30.5 81.5q0 62 45.5 104.5t108.5 50.5l14 83h42l-13 -82q31 -2 56.5 -16t33.5 -24l-31 -37q-29 29 -67 31l-29 -188q46 0 89 34l13 -36q-34 -37 -110 -43zM188 444l29 184q-38 -7 -66 -34.5t-28 -70.5q0 -32 17.5 -53t47.5 -26z
" />
    <glyph glyph-name="cent.sinf" horiz-adv-x="343" 
d="M127 -193h-42l10 64q-49 8 -79 41.5t-30 81.5q0 62 45 104t108 50l14 83h42l-13 -82q31 -2 56.5 -16t33.5 -24l-31 -37q-29 29 -67 31l-29 -187q46 0 89 34l13 -36q-34 -37 -110 -43zM103 -82l29 183q-38 -7 -66 -34t-28 -70q0 -32 17.5 -53t47.5 -26z" />
    <glyph glyph-name="sterling.sc" horiz-adv-x="458" 
d="M372 52l-1 -53q-36 -12 -82 -12q-28 0 -67 10.5t-61 10.5q-36 0 -86.5 -16t-62.5 -24l-13 50q6 4 40.5 15t64.5 16l26 164h-61l8 54h61l21 131q12 77 49 108t95 31q38 0 73 -22l-38 -50q-22 16 -47 16q-56 0 -68 -80l-21 -134h104l-8 -54h-106l-25 -155q6 1 17 1
q19 0 55 -10t55 -10q37 0 78 13z" />
    <glyph glyph-name="sterling.dnom" horiz-adv-x="370" 
d="M303 53l-3 -49q-32 -9 -84 -9q-15 0 -47.5 7t-51.5 7q-27 0 -70 -12t-55 -18l-12 44q37 18 87 29l17 108h-46l7 44h45l15 92q19 121 127 121q38 0 67 -22l-35 -42q-15 15 -37 15q-49 0 -59 -68l-15 -96h82l-7 -44h-82l-17 -103h19q19 0 46 -8t44 -8q20 0 65 12z" />
    </font>
</defs>
</svg>
