<?xml version="1.0" standalone="no"?>
<!DOCTYPE svg PUBLIC "-//W3C//DTD SVG 1.1//EN" "http://www.w3.org/Graphics/SVG/1.1/DTD/svg11.dtd" >
<svg xmlns="http://www.w3.org/2000/svg" xmlns:xlink="http://www.w3.org/1999/xlink" version="1.1">
<metadata>
Created by FontForge 20201107 at Tue Sep  4 00:07:47 2012
 By 
Copyright (c) 2011 Canada Type. Designed by Patrick Griffin &#38; Bill Troop. All rights reserved. 
</metadata>
<defs>
<font id="SemplicitaPro-Light" horiz-adv-x="537" >
  <font-face 
    font-family="Semplicita Pro Light"
    font-weight="300"
    font-stretch="normal"
    units-per-em="1000"
    panose-1="0 0 0 0 0 0 0 0 0 0"
    ascent="800"
    descent="-200"
    x-height="470"
    cap-height="757"
    bbox="-151 -292 1257 1042"
    underline-thickness="50"
    underline-position="-249"
    unicode-range="U+0020-FB04"
  />
<missing-glyph horiz-adv-x="570" 
d="M520 0h-470v757h470v-757zM475 41v675h-380v-675h380z" />
    <glyph glyph-name=".notdef" horiz-adv-x="570" 
d="M520 0h-470v757h470v-757zM475 41v675h-380v-675h380z" />
    <glyph glyph-name=".null" horiz-adv-x="0" 
 />
    <glyph glyph-name="nonmarkingreturn" horiz-adv-x="333" 
 />
    <glyph glyph-name="space" unicode=" " horiz-adv-x="240" 
 />
    <glyph glyph-name="exclam" unicode="!" horiz-adv-x="245" 
d="M141 188h-37l-16 569h69zM168 33q0 -18 -13.5 -30.5t-32.5 -12.5q-18 0 -31 12.5t-13 30.5q0 19 13 32.5t31 13.5q21 0 33.5 -13t12.5 -33z" />
    <glyph glyph-name="quotedbl" unicode="&#x22;" horiz-adv-x="336" 
d="M116 488h-36l-9 273h54zM256 488h-36l-9 273h54z" />
    <glyph glyph-name="numbersign" unicode="#" horiz-adv-x="653" 
d="M401 -11l-41 3l32 256h-165l-32 -259l-41 3l32 256h-130l7 41h128l21 172h-128l7 41h126l33 260l42 -3l-33 -257h165l33 260l42 -3l-33 -257h131l-6 -41h-130l-22 -172h129l-4 -41h-130zM397 289l22 172h-165l-22 -172h165z" />
    <glyph glyph-name="dollar" unicode="$" horiz-adv-x="550" 
d="M306 -100h-39v92q-70 0 -129.5 29t-82.5 64l30 35q61 -83 182 -84v337q-40 20 -63 33.5t-52.5 37t-43.5 54t-14 67.5q0 78 49.5 125.5t123.5 53.5v99h39v-99q50 -3 90 -23.5t62 -43.5l-29 -33q-53 51 -123 56v-292q40 -21 61.5 -34t47 -33t38 -40t21 -49.5t8.5 -66.5
q0 -68 -47.5 -123t-128.5 -67v-95zM306 353v-314q55 10 89.5 48.5t34.5 96.5q0 60 -26 95t-98 74zM267 428v272q-53 -6 -88 -39t-35 -89q0 -30 9 -52.5t30 -40t36.5 -26.5t47.5 -25z" />
    <glyph glyph-name="percent" unicode="%" horiz-adv-x="832" 
d="M259 -19l-30 12l325 777l31 -13zM343 616q0 -61 -42.5 -103t-103.5 -42t-103 42t-42 103t42 103.5t103 42.5t103.5 -42.5t42.5 -103.5zM198 506q46 0 77 32t31 78t-31 78t-77 32t-77 -32t-31 -78t31 -78t77 -32zM780 133q0 -61 -42.5 -102.5t-103.5 -41.5t-103 41.5
t-42 102.5t42 103.5t103 42.5t103.5 -42.5t42.5 -103.5zM635 23q46 0 77 32t31 78t-31 78t-77 32t-77 -32t-31 -78t31 -78t77 -32z" />
    <glyph glyph-name="ampersand" unicode="&#x26;" horiz-adv-x="723" 
d="M739 0h-68l-114 138q-4 -14 -20.5 -36.5t-45 -49t-76 -45.5t-101.5 -19q-112 0 -188 76t-76 184q0 100 59 170t132 86q-60 70 -60 124q0 62 39.5 102t103.5 40q16 0 30 -2t25.5 -6t20 -7.5t17 -9.5t12.5 -9.5t10.5 -9.5t7.5 -7l-31 -32q-43 40 -92 40q-40 0 -68.5 -23.5
t-28.5 -71.5q0 -23 11 -47.5t21.5 -38t31.5 -37.5l259 1l-10 -38l-216 -1zM525 172l-254 295q-9 -1 -26.5 -7.5t-43 -23t-47.5 -39.5t-38 -61t-16 -83q0 -97 66.5 -159.5t148.5 -62.5q40 0 75 12.5t57.5 29.5t40.5 38t26 36t11 25z" />
    <glyph glyph-name="quotesingle" unicode="'" horiz-adv-x="196" 
d="M116 488h-36l-9 273h54z" />
    <glyph glyph-name="parenleft" unicode="(" horiz-adv-x="232" 
d="M184 -251l-36 -16q-79 219 -79 542q0 330 79 561l36 -15q-28 -87 -51 -234.5t-23 -309.5q0 -236 74 -528z" />
    <glyph glyph-name="parenright" unicode=")" horiz-adv-x="231" 
d="M84 -267l-36 16q74 292 74 528q0 162 -23 309.5t-51 234.5l36 15q78 -228 78 -561q0 -326 -78 -542z" />
    <glyph glyph-name="asterisk" unicode="*" horiz-adv-x="494" 
d="M198 635l-129 40l11 40l127 -50zM262 680h-29l-6 142h41zM369 503l-31 -27l-79 114l24 19zM158 476l-33 23l84 107l22 -14zM425 676l-130 -41l-10 29l127 52z" />
    <glyph glyph-name="plus" unicode="+" horiz-adv-x="620" 
d="M333 104h-46v238h-227v44h227v238h46v-238h227v-44h-227v-238z" />
    <glyph glyph-name="comma" unicode="," horiz-adv-x="217" 
d="M64 -105h-42l71 181h53z" />
    <glyph glyph-name="hyphen" unicode="-" horiz-adv-x="394" 
d="M317 227h-245l5 40h245z" />
    <glyph glyph-name="period" unicode="." horiz-adv-x="228" 
d="M158 33q0 -17 -12.5 -29.5t-31.5 -12.5q-18 0 -31 12.5t-13 29.5q0 19 13 32t31 13q19 0 31.5 -13t12.5 -32z" />
    <glyph glyph-name="slash" unicode="/" horiz-adv-x="534" 
d="M82 -215l-40 15l411 1020l40 -18z" />
    <glyph glyph-name="zero" unicode="0" horiz-adv-x="648" 
d="M324 -11q-61 0 -107 25t-72.5 63t-42.5 92t-21.5 102.5t-5.5 102.5t5 102t21.5 102.5t42.5 93t72 64.5t107 26t107.5 -25t73 -63t43 -91.5t22 -103t5.5 -105.5q0 -55 -5.5 -104t-22 -102.5t-43 -91t-72.5 -62.5t-107 -25zM324 32q44 0 78.5 16.5t55.5 46.5t35.5 63.5
t21 75.5t9 73.5t2.5 66.5q0 44 -3.5 84t-16 89.5t-33.5 85t-59.5 60t-90.5 24.5q-200 0 -200 -343q0 -41 3.5 -80.5t16.5 -89t33.5 -86t59 -61.5t88.5 -25z" />
    <glyph glyph-name="one" unicode="1" horiz-adv-x="329" 
d="M215 -3h-46v705l-122 -60l-15 39l183 87v-771z" />
    <glyph glyph-name="two" unicode="2" horiz-adv-x="584" 
d="M524 0h-502q157 134 275 257q156 163 156 294q0 69 -44.5 118t-112.5 49q-51 0 -94 -26.5t-65 -56.5l-28 32q85 95 191 95q89 0 145 -60t56 -151q0 -145 -167 -320q-122 -126 -210 -188l400 3v-46z" />
    <glyph glyph-name="three" unicode="3" horiz-adv-x="553" 
d="M40 65l21 39q10 -13 28 -28t58.5 -30t87.5 -15q94 0 145 49.5t51 120.5q0 78 -60 140t-164 67l1 21q96 10 147 57.5t51 106.5q0 51 -38.5 87t-104.5 36q-74 0 -131 -43l-18 34q15 17 60.5 36t94.5 19q83 0 133.5 -50.5t50.5 -119.5q0 -52 -32 -97.5t-95 -72.5v-2
q74 -30 114 -88.5t40 -126.5q0 -89 -64.5 -152.5t-179.5 -63.5q-52 0 -98 16.5t-66 31t-32 28.5z" />
    <glyph glyph-name="four" unicode="4" horiz-adv-x="611" 
d="M460 -3h-46v158h-387l433 617v-573h99v-44h-99v-158zM414 199v432l-302 -432h302z" />
    <glyph glyph-name="five" unicode="5" horiz-adv-x="550" 
d="M41 43l23 41q75 -52 160 -52q104 0 158.5 60t54.5 143q0 79 -55.5 135.5t-158.5 56.5q-52 0 -109 -19l95 342h258l-12 -44h-213l-64 -241q33 5 59 5q107 0 177.5 -62.5t70.5 -163.5q0 -107 -67.5 -181t-189.5 -74q-58 0 -110.5 18.5t-76.5 35.5z" />
    <glyph glyph-name="six" unicode="6" horiz-adv-x="591" 
d="M353 766l31 -33q-48 -50 -114.5 -144.5t-109.5 -178.5q23 26 66 39.5t80 13.5q104 0 172 -71.5t68 -171.5q0 -94 -69.5 -163t-170.5 -69q-104 0 -173.5 69t-69.5 163q0 65 32.5 149t83 162t93.5 135t81 100zM496 220q0 82 -53 140.5t-139 58.5q-85 0 -139 -57t-54 -142
q0 -78 57 -132.5t138 -54.5q83 0 136.5 55t53.5 132z" />
    <glyph glyph-name="seven" unicode="7" horiz-adv-x="506" 
d="M124 -5h-49l347 711l-374 -1v45h445z" />
    <glyph glyph-name="eight" unicode="8" horiz-adv-x="597" 
d="M392 378q128 -59 128 -179q0 -87 -66 -149t-156 -62q-92 0 -157 61.5t-65 149.5q0 115 131 180q-58 25 -91.5 71t-33.5 104q0 94 66 151.5t151 57.5q90 0 153.5 -57.5t63.5 -151.5q0 -56 -34.5 -103t-89.5 -73zM470 194q0 68 -50.5 116.5t-121.5 48.5q-72 0 -122.5 -48.5
t-50.5 -116.5t50.5 -116.5t122.5 -48.5t122 48.5t50 116.5zM465 554q0 71 -47.5 118.5t-118.5 47.5q-70 0 -119 -47.5t-49 -115.5q0 -64 49 -110t120 -46q69 0 117 45t48 108z" />
    <glyph glyph-name="nine" unicode="9" horiz-adv-x="592" 
d="M240 -14l-31 32q48 51 114 144t109 177q-23 -26 -66 -39t-80 -13q-104 0 -172 71t-68 171q0 94 69.5 163.5t170.5 69.5q103 0 173 -69.5t70 -163.5q0 -65 -32.5 -148.5t-83 -161t-93 -134.5t-80.5 -99zM288 331q85 0 139 57t54 141q0 78 -57 132.5t-138 54.5
q-83 0 -136.5 -55t-53.5 -132q0 -82 53 -140t139 -58z" />
    <glyph glyph-name="colon" unicode=":" horiz-adv-x="232" 
d="M160 33q0 -17 -13 -29.5t-32 -12.5q-17 0 -30 12.5t-13 29.5q0 20 12.5 33t30.5 13q20 0 32.5 -13t12.5 -33zM160 402q0 -18 -13 -30t-32 -12q-18 0 -30.5 12t-12.5 30q0 20 12.5 32.5t30.5 12.5q20 0 32.5 -12.5t12.5 -32.5z" />
    <glyph glyph-name="semicolon" unicode=";" horiz-adv-x="257" 
d="M181 403q0 -18 -12.5 -30t-32.5 -12q-17 0 -29.5 12t-12.5 30q0 19 12.5 31.5t30.5 12.5q19 0 31.5 -12.5t12.5 -31.5zM80 -105h-42l71 181h53z" />
    <glyph glyph-name="less" unicode="&#x3c;" horiz-adv-x="597" 
d="M489 79l-436 277v28l436 260l20 -37l-406 -237l406 -256z" />
    <glyph glyph-name="equal" unicode="=" horiz-adv-x="674" 
d="M587 224h-500v44h500v-44zM587 458h-500v44h500v-44z" />
    <glyph glyph-name="greater" unicode="&#x3e;" horiz-adv-x="595" 
d="M542 356l-436 -260l-20 37l406 237l-406 256l20 35l436 -277v-28z" />
    <glyph glyph-name="question" unicode="?" horiz-adv-x="469" 
d="M382 305l26 -27q-18 -32 -69.5 -64.5t-115.5 -32.5q-60 0 -108 39.5t-48 101.5q0 31 9 56t30 46t34.5 32.5t41.5 30.5q36 25 52.5 37.5t41 34.5t34.5 42.5t10 42.5q0 37 -24.5 61t-62.5 24q-58 0 -114 -44l-20 34q56 53 139 53q60 0 93 -37.5t33 -89.5q0 -21 -8.5 -42
t-16 -34t-30 -33.5t-30 -27t-37 -27.5t-31.5 -23q-7 -5 -26 -19t-25.5 -19t-19.5 -17.5t-17.5 -22t-9 -25t-4.5 -32.5q0 -42 35 -71.5t84 -29.5q88 0 154 83zM256 33q0 -17 -12.5 -29.5t-31.5 -12.5q-18 0 -31 12.5t-13 29.5q0 19 13 32t31 13q19 0 31.5 -13t12.5 -32z" />
    <glyph glyph-name="at" unicode="@" horiz-adv-x="1067" 
d="M805 -177l13 -37q-106 -45 -234 -45q-105 0 -201 40.5t-165.5 109.5t-111 164t-41.5 199q0 140 65 258.5t180 188t254 69.5q208 0 328.5 -123t120.5 -315q0 -61 -26.5 -123t-74.5 -116t-125.5 -88t-170.5 -34q-121 0 -192 64.5t-71 147.5q0 67 49.5 112.5t142.5 45.5
q86 0 158 -57v68q0 52 -38 85t-105 33t-132 -28l-20 35q70 34 150 34q106 0 147.5 -44.5t41.5 -127.5v-157h-13q-58 118 -188 118q-73 0 -111 -33.5t-38 -83.5q0 -66 60.5 -119t159.5 -53q158 0 257 100t99 230q0 47 -11.5 96t-41.5 102.5t-75 95t-118.5 68.5t-165.5 27
q-195 0 -325 -140t-130 -349q0 -88 38 -172t102 -147.5t152 -102t183 -38.5q131 0 224 42z" />
    <glyph glyph-name="A" unicode="A" horiz-adv-x="671" 
d="M673 0h-50l-97 224h-381l-97 -224h-50l338 777zM507 268l-151 352q-18 42 -20 50l-20 -50l-152 -352h343z" />
    <glyph glyph-name="B" unicode="B" horiz-adv-x="600" 
d="M291 0h-185v757h139q110 0 172 -42t62 -145q0 -56 -38.5 -103t-89.5 -64q71 -7 132 -59t61 -136q0 -97 -66 -152.5t-187 -55.5zM154 410h61q97 0 156 45.5t59 115.5q0 142 -178 142h-98v-303zM154 44h138q99 0 150.5 44t51.5 119q0 68 -56 113.5t-138 45.5h-146v-322z
" />
    <glyph glyph-name="C" unicode="C" horiz-adv-x="746" 
d="M675 113l23 -33q-106 -92 -248 -92q-169 0 -282 113.5t-113 276.5q0 164 113 278t282 114q142 0 248 -94l-29 -36q-81 85 -228 85q-143 0 -239.5 -98.5t-96.5 -253.5q0 -144 101.5 -243t244.5 -99q137 0 224 82z" />
    <glyph glyph-name="D" unicode="D" horiz-adv-x="727" 
d="M271 0h-165v757h155q175 0 291.5 -100t116.5 -279q0 -173 -110.5 -275.5t-287.5 -102.5zM154 44h92q170 0 271.5 86t101.5 251q0 110 -52 186.5t-134 111t-185 34.5h-94v-669z" />
    <glyph glyph-name="E" unicode="E" horiz-adv-x="547" 
d="M512 1h-406v755h373v-43h-325v-284h261v-44h-261v-341h358v-43z" />
    <glyph glyph-name="F" unicode="F" horiz-adv-x="500" 
d="M154 0h-48v756h366v-43h-318v-284h256v-44h-256v-385z" />
    <glyph glyph-name="G" unicode="G" horiz-adv-x="831" 
d="M741 299h-214v43h263q-1 -87 -30 -156t-78.5 -111.5t-110.5 -64.5t-129 -22q-159 0 -273 114.5t-114 273.5q0 166 112.5 280t283.5 114q48 0 94 -11t76.5 -25.5t56.5 -31.5t36.5 -26.5t13.5 -13.5l-30 -35q-3 4 -13.5 13t-33.5 24t-50.5 28t-67 23t-80.5 10
q-158 0 -253 -99t-95 -251q0 -134 96.5 -239t241.5 -105q118 0 202.5 70.5t95.5 197.5z" />
    <glyph glyph-name="H" unicode="H" horiz-adv-x="749" 
d="M643 0h-48v363h-441v-363h-48v757h48v-350h441v350h48v-757z" />
    <glyph glyph-name="I" unicode="I" horiz-adv-x="260" 
d="M154 0h-48v757h48v-757z" />
    <glyph glyph-name="J" unicode="J" horiz-adv-x="260" 
d="M-24 -264l-19 44q91 39 120 93t29 195v689h48v-694q0 -107 -17.5 -167.5t-53 -94t-107.5 -65.5z" />
    <glyph glyph-name="K" unicode="K" horiz-adv-x="617" 
d="M630 0h-80l-396 355v-355h-48v757h48v-358l354 358h70l-383 -379z" />
    <glyph glyph-name="L" unicode="L" horiz-adv-x="505" 
d="M480 1h-374v756h48v-713h326v-43z" />
    <glyph glyph-name="M" unicode="M" horiz-adv-x="963" 
d="M892 0h-49l-55 588l-1 26l-8 -20l-298 -621l-298 621l-8 20q0 -20 -1 -26l-54 -588h-49l76 778l319 -661q14 -27 16 -40q2 13 16 40l317 661z" />
    <glyph glyph-name="N" unicode="N" horiz-adv-x="847" 
d="M742 -24l-588 671v-647h-48v775l588 -669v651h48v-781z" />
    <glyph glyph-name="O" unicode="O" horiz-adv-x="903" 
d="M848 375q0 -161 -116 -274t-279 -113q-167 0 -282.5 113.5t-115.5 276.5q0 164 115.5 278t282.5 114t281 -112.5t114 -282.5zM798 376q0 151 -100.5 250t-244.5 99q-147 0 -247.5 -98t-100.5 -245q0 -142 100 -246.5t241 -104.5q150 0 251 99t101 246z" />
    <glyph glyph-name="P" unicode="P" horiz-adv-x="544" 
d="M154 0h-48v757h134q72 0 129.5 -20.5t96.5 -70t39 -123.5q0 -104 -71.5 -169t-209.5 -65h-70v-309zM154 353h72q107 0 168.5 49.5t61.5 139.5q0 82 -56.5 126.5t-149.5 44.5h-96v-360z" />
    <glyph glyph-name="Q" unicode="Q" horiz-adv-x="903" 
d="M811 -89l-152 133q-93 -56 -206 -56q-167 0 -282.5 113.5t-115.5 276.5q0 164 115.5 278t282.5 114t281 -112.5t114 -282.5q0 -91 -40 -170.5t-110 -133.5l148 -120zM798 376q0 151 -100.5 250t-244.5 99q-147 0 -247.5 -98t-100.5 -245q0 -142 100 -246.5t241 -104.5
q150 0 251 99t101 246z" />
    <glyph glyph-name="R" unicode="R" horiz-adv-x="579" 
d="M586 0h-71l-318 309h-43v-309h-48v757h145q46 0 88.5 -11t81 -34.5t61.5 -67t23 -101.5q0 -100 -67 -164t-183 -69zM154 353h60q116 0 179 49t63 140q0 82 -57 126.5t-148 44.5h-97v-360z" />
    <glyph glyph-name="S" unicode="S" horiz-adv-x="533" 
d="M37 84l31 35q67 -87 194 -87q73 0 121.5 42.5t48.5 112.5q0 46 -19.5 81t-50.5 57.5t-69 42t-76 38.5t-69 41.5t-50.5 57.5t-19.5 80q0 87 59.5 137t144.5 50q59 0 105.5 -22t71.5 -49l-30 -33q-60 60 -147 60q-64 0 -109 -35.5t-45 -100.5q0 -39 19.5 -69t51 -49.5
t69.5 -37.5t76 -38.5t69.5 -46.5t51 -67.5t19.5 -95.5q0 -79 -62 -139.5t-164 -60.5q-72 0 -134.5 30t-86.5 66z" />
    <glyph glyph-name="T" unicode="T" horiz-adv-x="530" 
d="M289 0h-48v713h-219v43h486v-43h-219v-713z" />
    <glyph glyph-name="U" unicode="U" horiz-adv-x="740" 
d="M590 95v662h48v-676q-35 -42 -104.5 -67.5t-165.5 -25.5q-127 0 -198 72t-71 212v485h48v-472q0 -136 59.5 -195t184.5 -59q56 0 112 16t87 48z" />
    <glyph glyph-name="V" unicode="V" horiz-adv-x="615" 
d="M308 -27l-308 784h59l245 -637q3 -8 6 -35q3 27 6 35l240 637h58z" />
    <glyph glyph-name="W" unicode="W" horiz-adv-x="991" 
d="M737 -27l-241 662l-238 -662l-246 784h56l189 -617q4 -11 6 -34q2 19 7 34l228 638l231 -638q4 -11 6 -34q2 19 6 34l183 617h54z" />
    <glyph glyph-name="X" unicode="X" horiz-adv-x="589" 
d="M569 0h-55l-220 345l-224 -345h-55l254 391l-234 366h55l207 -324l208 324h55l-239 -366z" />
    <glyph glyph-name="Y" unicode="Y" horiz-adv-x="523" 
d="M285 0h-48v328l-239 429h56l204 -365q4 -6 5 -15q1 9 5 15l206 365h54l-243 -429v-328z" />
    <glyph glyph-name="Z" unicode="Z" horiz-adv-x="557" 
d="M527 1h-523l429 712h-358v43h441l-429 -712h440v-43z" />
    <glyph glyph-name="bracketleft" unicode="[" horiz-adv-x="275" 
d="M237 -215h-150v1035h150v-42h-108v-954h108v-39z" />
    <glyph glyph-name="backslash" unicode="\" horiz-adv-x="532" 
d="M491 -201l-40 -14l-410 1018l40 17z" />
    <glyph glyph-name="bracketright" unicode="]" horiz-adv-x="276" 
d="M189 -215h-150v42h108v954h-108v39h150v-1035z" />
    <glyph glyph-name="asciicircum" unicode="^" horiz-adv-x="605" 
d="M517 413h-51l-164 354l-164 -354h-50l190 401h48z" />
    <glyph glyph-name="underscore" unicode="_" horiz-adv-x="609" 
d="M552 -19h-495v39h495v-39z" />
    <glyph glyph-name="grave" unicode="`" horiz-adv-x="329" 
d="M247 600l-21 -17l-138 138l41 33z" />
    <glyph glyph-name="a" unicode="a" horiz-adv-x="503" 
d="M391 76v133q-69 64 -157 64q-57 0 -104.5 -30t-47.5 -85q0 -62 44.5 -95.5t108.5 -33.5q97 0 156 47zM391 254v70q0 52 -38 85t-105 33t-132 -28l-20 35q70 34 150 34q106 0 147.5 -44.5t41.5 -127.5v-254q-71 -68 -202 -68q-96 0 -146.5 48.5t-50.5 120.5t62.5 113.5
t133.5 41.5q98 0 159 -59z" />
    <glyph glyph-name="b" unicode="b" horiz-adv-x="573" 
d="M76 53v767h44v-413q24 27 74 51.5t106 24.5q111 0 168 -70t57 -175q0 -119 -75 -184t-181 -65q-112 0 -193 64zM120 354v-279q20 -17 64.5 -31.5t84.5 -14.5q90 0 150 55t60 155q0 88 -48.5 145.5t-135.5 57.5q-49 0 -100 -28t-75 -60z" />
    <glyph glyph-name="c" unicode="c" horiz-adv-x="511" 
d="M457 97l23 -27q-61 -81 -189 -81q-104 0 -174 69.5t-70 175.5q0 108 69.5 178.5t177.5 70.5q60 0 103.5 -22.5t59.5 -42.5l-26 -30q-8 9 -23 19.5t-48.5 22.5t-69.5 12q-78 0 -137.5 -54t-59.5 -154q0 -95 58.5 -150t143.5 -55q98 0 162 68z" />
    <glyph glyph-name="d" unicode="d" horiz-adv-x="573" 
d="M453 76v287q-20 35 -66 57t-99 22q-88 0 -141 -56.5t-53 -157.5q0 -96 60 -147.5t150 -51.5q83 0 149 47zM453 423v397h44v-767q-80 -64 -193 -64q-107 0 -181.5 61t-74.5 178q0 116 66.5 185.5t173.5 69.5q103 0 165 -60z" />
    <glyph glyph-name="e" unicode="e" 
d="M455 100l25 -26q-62 -85 -194 -85q-103 0 -170.5 67.5t-67.5 175.5q0 113 64 182t173 69q101 0 154 -67.5t53 -162.5v-9h-398q0 -8 0.5 -19t0.5 -12q6 -88 62.5 -136t137.5 -48q57 0 97.5 21.5t62.5 49.5zM97 284h348q-8 68 -50 113t-114 45q-70 0 -117 -37.5t-62 -94.5
q-4 -16 -5 -26z" />
    <glyph glyph-name="f" unicode="f" horiz-adv-x="285" 
d="M149 0h-44v429h-80v41h80v149q0 100 40 149q39 47 109 47q49 0 73 -18l-21 -42q-22 16 -58 16q-49 0 -74 -38t-25 -104v-159h117v-41h-117v-429z" />
    <glyph glyph-name="g" unicode="g" horiz-adv-x="574" 
d="M453 -26v100q-31 -39 -78.5 -62t-97.5 -23q-91 0 -160 66t-69 178q0 117 75.5 183.5t180.5 66.5q65 0 116.5 -20.5t76.5 -44.5v-445q0 -123 -63 -177.5t-154 -54.5q-98 0 -182 54l23 36q72 -48 163 -48q169 0 169 191zM453 129v270q-63 43 -151 43q-86 0 -147 -55
t-61 -154q0 -36 11.5 -71t34.5 -65t62 -48.5t88 -18.5q43 0 91 29t72 70z" />
    <glyph glyph-name="h" unicode="h" horiz-adv-x="538" 
d="M463 0h-44v288q0 81 -33 116t-108 35q-50 0 -90.5 -20.5t-64.5 -45.5v-373h-44v820h44v-400q71 63 162 63q178 0 178 -177v-306z" />
    <glyph glyph-name="i" unicode="i" horiz-adv-x="210" 
d="M127 0h-44v471h44v-471zM145 610q0 -16 -11.5 -27.5t-28.5 -11.5q-16 0 -28 11.5t-12 27.5q0 18 11.5 29.5t28.5 11.5t28.5 -11.5t11.5 -29.5z" />
    <glyph glyph-name="j" unicode="j" horiz-adv-x="210" 
d="M8 -267l-18 38q19 9 31 15.5t23 17.5t16.5 17.5t10.5 25t7 29.5t3.5 42t1.5 51.5v67.5v434h44v-428q0 -64 -0.5 -92.5t-4 -66.5t-10.5 -54t-21 -37t-33.5 -33.5t-49.5 -26.5zM146 610q0 -16 -11.5 -27.5t-28.5 -11.5q-16 0 -28 11.5t-12 27.5q0 18 11.5 29.5t28.5 11.5
t28.5 -11.5t11.5 -29.5z" />
    <glyph glyph-name="k" unicode="k" horiz-adv-x="443" 
d="M445 0h-71l-251 249v-249h-44v820h44v-551l201 202h61l-213 -208z" />
    <glyph glyph-name="l" unicode="l" horiz-adv-x="218" 
d="M131 0h-44v820h44v-820z" />
    <glyph glyph-name="m" unicode="m" horiz-adv-x="818" 
d="M743 0h-44v308q0 68 -28 99.5t-93 31.5q-79 0 -151 -70q6 -24 6 -54v-315h-44v308q0 68 -28 99.5t-93 31.5q-44 0 -83 -21t-62 -45v-373h-44v471h44v-51q26 23 68 43t84 20q105 0 140 -76q37 34 83.5 55t86.5 21q158 0 158 -168v-315z" />
    <glyph glyph-name="n" unicode="n" horiz-adv-x="538" 
d="M463 0h-44v288q0 81 -33 116t-108 35q-50 0 -90.5 -20.5t-64.5 -45.5v-373h-44v471h44v-51q71 63 162 63q178 0 178 -177v-306z" />
    <glyph glyph-name="o" unicode="o" horiz-adv-x="593" 
d="M546 235q0 -104 -72 -175t-177 -71t-177.5 70.5t-72.5 175.5t72.5 176.5t177.5 71.5t177 -72t72 -176zM500 235q0 88 -60.5 147t-144.5 59q-90 0 -146.5 -59t-56.5 -150q0 -86 60.5 -144t142.5 -58q91 0 148 57t57 148z" />
    <glyph glyph-name="p" unicode="p" horiz-adv-x="573" 
d="M121 -254h-44v672q79 65 193 65q106 0 181 -65.5t75 -184.5q0 -102 -62 -173t-168 -71q-51 0 -99 20.5t-76 49.5v-313zM121 399v-280q26 -39 73.5 -64.5t101.5 -25.5q78 0 131 54.5t53 148.5q0 92 -58.5 151t-157.5 59q-40 0 -81.5 -13.5t-61.5 -29.5z" />
    <glyph glyph-name="q" unicode="q" horiz-adv-x="574" 
d="M497 -254h-44v328q-31 -39 -78.5 -62t-97.5 -23q-91 0 -160 66t-69 178q0 117 75.5 183.5t180.5 66.5q65 0 116.5 -20.5t76.5 -44.5v-672zM453 129v270q-63 43 -151 43q-86 0 -147 -55t-61 -154q0 -36 11.5 -71t34.5 -65t62 -48.5t88 -18.5q43 0 91 29t72 70z" />
    <glyph glyph-name="r" unicode="r" horiz-adv-x="310" 
d="M123 0h-44v471h44v-65q3 20 33.5 48.5t66.5 28.5q40 0 77 -21l-26 -42q-27 18 -52 18q-37 0 -65.5 -31.5t-33.5 -63.5v-343z" />
    <glyph glyph-name="s" unicode="s" horiz-adv-x="393" 
d="M29 60l29 30q53 -63 131 -63q51 0 82.5 27.5t31.5 77.5q0 31 -24 53.5t-58.5 37.5t-69.5 30.5t-59 43t-24 65.5q0 53 38 87.5t100 34.5q38 0 74.5 -16.5t55.5 -39.5l-23 -33q-14 16 -44.5 33t-65.5 17q-48 0 -70 -24t-22 -54q0 -28 24.5 -49.5t59.5 -36.5t70 -32.5
t59.5 -47t24.5 -69.5q0 -64 -46 -104t-115 -40q-55 0 -96 21.5t-63 50.5z" />
    <glyph glyph-name="t" unicode="t" horiz-adv-x="280" 
d="M152 0h-44v429h-87v41h87v171h44v-171h114v-41h-114v-429z" />
    <glyph glyph-name="u" unicode="u" horiz-adv-x="536" 
d="M416 73v398h44v-417q-68 -65 -192 -65q-89 0 -141.5 46t-52.5 133v303h44v-293q0 -73 39.5 -111t109.5 -38q87 0 149 44z" />
    <glyph glyph-name="v" unicode="v" horiz-adv-x="447" 
d="M224 -21h-2l-212 492h49l139 -326q21 -47 27 -76h1q2 16 27 75l136 327h48z" />
    <glyph glyph-name="w" unicode="w" horiz-adv-x="707" 
d="M503 -21h-1l-149 403l-148 -403h-1l-191 492h49l144 -377l146 402h1l151 -402l144 377h46z" />
    <glyph glyph-name="x" unicode="x" horiz-adv-x="451" 
d="M438 0h-54l-159 216l-160 -216h-51l186 254l-159 217h54l131 -179l133 179h51l-159 -216z" />
    <glyph glyph-name="y" unicode="y" horiz-adv-x="466" 
d="M101 -259h-46l146 296l-192 434h49l168 -389l186 389h48z" />
    <glyph glyph-name="z" unicode="z" horiz-adv-x="432" 
d="M392 1h-377l309 428h-264v41h343l-308 -428h297v-41z" />
    <glyph glyph-name="braceleft" unicode="{" horiz-adv-x="291" 
d="M255 -185l-8 -31q-76 20 -101 61t-25 133v131q0 76 -17 113t-71 80q50 29 69 74.5t19 118.5v132q0 92 26 140t100 54l8 -31q-90 -14 -90 -120v-188q0 -61 -16.5 -101t-61.5 -79q41 -31 59.5 -72.5t18.5 -107.5v-180q0 -112 90 -127z" />
    <glyph glyph-name="bar" unicode="|" horiz-adv-x="214" 
d="M128 -259h-42v1079h42v-1079z" />
    <glyph glyph-name="braceright" unicode="}" horiz-adv-x="291" 
d="M44 -216l-8 31q90 15 90 127v180q0 66 18.5 107.5t59.5 72.5q-45 39 -61.5 79t-16.5 101v188q0 106 -90 120l8 31q74 -6 100 -54t26 -140v-132q0 -73 19 -118.5t69 -74.5q-54 -43 -71 -80t-17 -113v-131q0 -92 -25 -133t-101 -61z" />
    <glyph glyph-name="asciitilde" unicode="~" horiz-adv-x="582" 
d="M494 554l25 -29q-21 -20 -60 -39.5t-80 -19.5q-26 0 -83.5 26t-88.5 26q-44 0 -116 -48l-26 27q24 22 67 43t80 21q33 0 90.5 -26.5t80.5 -26.5q54 0 111 46z" />
    <glyph glyph-name="exclamdown" unicode="&#xa1;" horiz-adv-x="243" 
d="M156 -210h-69l16 568h37zM122 467q-21 0 -33.5 13t-12.5 33q0 18 13.5 31t32.5 13q18 0 31 -13t13 -31q0 -19 -13 -32.5t-31 -13.5z" />
    <glyph glyph-name="cent" unicode="&#xa2;" horiz-adv-x="554" 
d="M314 -12h-38v134q-93 11 -152 78.5t-59 165.5q0 99 58 167t153 80v146h38v-144q59 -1 102.5 -23.5t58.5 -41.5l-26 -30q-52 52 -135 54v-415q95 0 161 70l23 -27q-61 -80 -184 -82v-132zM276 162v409q-69 -11 -117 -63.5t-48 -141.5q0 -84 46.5 -138t118.5 -66z" />
    <glyph glyph-name="sterling" unicode="&#xa3;" horiz-adv-x="580" 
d="M525 33l5 -40q-36 -12 -83 -12q-38 0 -99.5 15t-94.5 15q-36 0 -82 -11t-72.5 -21t-34.5 -15l-14 37q3 2 22.5 9.5t53 18.5t62.5 17v248h-75v41h75v214q0 100 40 149q40 47 109 47q49 0 73 -18l-21 -42q-22 16 -57 16q-50 0 -75 -37.5t-25 -104.5v-224h137v-41h-137v-242
q7 1 20 1q31 -1 95 -17t100 -16q23 0 78 13z" />
    <glyph glyph-name="currency" unicode="&#xa4;" horiz-adv-x="694" 
d="M607 143l-30 -27l-79 78q-70 -54 -152 -54q-83 0 -151 54l-80 -78l-27 27l79 80q-59 71 -59 154q0 85 58 150l-80 82l28 28l81 -81q71 57 151 57q84 0 152 -56l80 80l30 -28l-79 -82q56 -65 56 -150q0 -87 -59 -154zM543 377q0 79 -59 134.5t-138 55.5q-76 0 -135 -56
t-59 -134t59 -135t135 -57q78 0 137.5 57t59.5 135z" />
    <glyph glyph-name="yen" unicode="&#xa5;" horiz-adv-x="639" 
d="M538 173h-196v-173h-48v173h-196v36h196v84h-196v36h195l-239 428h55l206 -370q4 -6 5 -13q1 7 5 13l208 370h52l-243 -428h196v-36h-196v-84h196v-36z" />
    <glyph glyph-name="brokenbar" unicode="&#xa6;" horiz-adv-x="224" 
d="M133 -259h-42v438h42v-438zM133 381h-42v439h42v-439z" />
    <glyph glyph-name="section" unicode="&#xa7;" horiz-adv-x="545" 
d="M386 -128l-339 529q15 39 78.5 78t90.5 40l-91 147q9 28 109.5 77t183.5 50l-16 -57q-28 0 -83 -13.5t-97.5 -27.5t-44.5 -18l314 -500q-15 -40 -76 -78.5t-89 -39.5l112 -176q-13 -35 -120.5 -86t-183.5 -51l17 57q28 0 85.5 16t102.5 32.5t47 20.5zM439 161l-194 311
q-37 0 -82 -18t-64 -37l197 -311q42 1 82.5 18t60.5 37z" />
    <glyph glyph-name="dieresis" unicode="&#xa8;" horiz-adv-x="355" 
d="M111 630q0 -15 -11.5 -26t-27.5 -11q-15 0 -26 11t-11 26q0 16 11 27.5t26 11.5q16 0 27.5 -11.5t11.5 -27.5zM330 630q0 -16 -11 -26.5t-28 -10.5q-15 0 -25.5 11t-10.5 26q0 17 10 28t26 11q18 0 28.5 -11t10.5 -28z" />
    <glyph glyph-name="copyright" unicode="&#xa9;" horiz-adv-x="918" 
d="M459 20q149 0 252 104.5t103 254.5q0 151 -102.5 255t-252.5 104t-252.5 -104t-102.5 -255q0 -150 102.5 -254.5t252.5 -104.5zM459 -12q-164 0 -278 114.5t-114 276.5q0 164 114 278t278 114t278 -114t114 -278q0 -162 -114 -276.5t-278 -114.5zM621 218l18 -32
q-63 -52 -168 -52q-113 0 -186.5 69.5t-73.5 171.5q0 103 73.5 177.5t185.5 74.5q101 0 169 -55l-24 -34q-50 48 -151 48q-91 0 -147 -58.5t-56 -151.5q0 -86 60 -143.5t151 -57.5q97 0 149 43z" />
    <glyph glyph-name="ordfeminine" unicode="&#xaa;" horiz-adv-x="419" 
d="M311 455v88q-47 40 -111 40q-40 0 -73.5 -19t-33.5 -54q0 -40 31 -62t77 -22q69 0 110 29zM352 614v-175q-54 -48 -153 -48q-73 0 -111 34t-38 85q0 50 46.5 78.5t100.5 28.5q61 0 114 -36v46q0 32 -27.5 53.5t-75.5 21.5q-53 0 -97 -20l-17 30q55 24 115 24
q80 0 111.5 -31.5t31.5 -90.5z" />
    <glyph glyph-name="guillemotleft" unicode="&#xab;" horiz-adv-x="435" 
d="M219 25h-41l-124 209l121 209h40l-121 -209zM382 25h-41l-125 209l122 209h40l-122 -209z" />
    <glyph glyph-name="logicalnot" unicode="&#xac;" horiz-adv-x="676" 
d="M587 104h-45v238h-455v44h500v-282z" />
    <glyph glyph-name="registered" unicode="&#xae;" horiz-adv-x="710" 
d="M355 220q-113 0 -194 81.5t-81 194.5t81 193.5t194 80.5t194 -80.5t81 -193.5t-81 -194.5t-194 -81.5zM355 251q97 0 169.5 73.5t72.5 171.5t-72.5 170.5t-169.5 72.5q-98 0 -170 -72.5t-72 -170.5q0 -99 72 -172t170 -73zM505 353h-54l-145 124h-19v-124h-35v313h75
q54 0 92 -22t38 -70q0 -39 -30.5 -65t-81.5 -30zM287 507h29q104 0 104 67q0 27 -24 43.5t-63 16.5h-46v-127z" />
    <glyph glyph-name="macron" unicode="&#xaf;" horiz-adv-x="525" 
d="M437 596h-349v41h349v-41z" />
    <glyph glyph-name="degree" unicode="&#xb0;" horiz-adv-x="397" 
d="M344 619q0 -61 -42.5 -103t-103.5 -42t-103 42t-42 103t42 103.5t103 42.5t103.5 -42.5t42.5 -103.5zM199 509q46 0 77 32t31 78t-31 78t-77 32t-77 -32t-31 -78t31 -78t77 -32z" />
    <glyph glyph-name="plusminus" unicode="&#xb1;" horiz-adv-x="666" 
d="M356 111h-46v238h-227v44h227v238h46v-238h227v-44h-227v-238zM583 1h-500v42h500v-42z" />
    <glyph glyph-name="twosuperior" unicode="&#xb2;" horiz-adv-x="436" 
d="M370 352h-318q92 65 170 139q92 86 92 150q0 34 -26 58.5t-65 24.5q-57 0 -96 -44l-22 26q59 52 122 52q57 0 93 -33.5t36 -83.5q0 -78 -101 -168q-59 -52 -116 -89l231 3v-35z" />
    <glyph glyph-name="threesuperior" unicode="&#xb3;" horiz-adv-x="394" 
d="M243 574v-1q47 -15 71.5 -46.5t24.5 -68.5q0 -47 -43 -81.5t-117 -34.5q-49 0 -82.5 14t-47.5 28l19 32q10 -12 39.5 -25t70.5 -13q57 0 87.5 24t30.5 58q0 41 -38.5 70.5t-103.5 30.5v22q59 1 92 24.5t33 53.5q0 26 -22.5 42.5t-63.5 16.5q-46 0 -82 -22l-15 30
q10 10 40.5 20t63.5 10q54 0 87.5 -28t33.5 -65q0 -62 -78 -91z" />
    <glyph glyph-name="acute" unicode="&#xb4;" horiz-adv-x="335" 
d="M247 721l-139 -138l-20 17l118 154z" />
    <glyph glyph-name="mu" unicode="&#xb5;" horiz-adv-x="552" 
d="M482 0h-44v63q-39 -74 -150 -74q-95 0 -148 42v-285h-44v725h44v-398q62 -44 149 -44q69 0 109 36t40 105v301h44v-471z" />
    <glyph glyph-name="paragraph" unicode="&#xb6;" horiz-adv-x="540" 
d="M316 754v-495q-117 -4 -191 69t-74 168q0 99 74 178.5t191 79.5zM421 -154h-46v911h46v-911z" />
    <glyph glyph-name="periodcentered" unicode="&#xb7;" horiz-adv-x="230" 
d="M115 339q-18 0 -31 13t-13 31t13 31t31 13t31 -13t13 -31t-13 -31t-31 -13z" />
    <glyph glyph-name="cedilla" unicode="&#xb8;" horiz-adv-x="585" 
d="M316 -195h-42l68 157h51z" />
    <glyph glyph-name="onesuperior" unicode="&#xb9;" horiz-adv-x="243" 
d="M164 350h-40v359l-74 -31l-14 33l128 50v-411z" />
    <glyph glyph-name="ordmasculine" unicode="&#xba;" horiz-adv-x="477" 
d="M426 563q0 -72 -54 -122t-133 -50t-133.5 49.5t-54.5 122.5t54.5 123t133.5 50t133 -50.5t54 -122.5zM382 563q0 58 -42.5 97.5t-101.5 39.5q-64 0 -104 -39t-40 -100q0 -57 43 -95.5t100 -38.5q65 0 105 37.5t40 98.5z" />
    <glyph glyph-name="guillemotright" unicode="&#xbb;" horiz-adv-x="434" 
d="M94 25h-41l125 209l-121 209h40l121 -209zM257 25h-40l124 209l-121 209h40l120 -209z" />
    <glyph glyph-name="onequarter" unicode="&#xbc;" horiz-adv-x="709" 
d="M181 350h-40v359l-74 -31l-14 33l128 50v-411zM140 -14l-28 14l398 765l29 -15zM586 -2h-43v89h-229v33l242 281h30v-278h64v-36h-64v-89zM544 122l1 218l-184 -218h183z" />
    <glyph glyph-name="onehalf" unicode="&#xbd;" horiz-adv-x="748" 
d="M181 350h-40v359l-74 -31l-14 33l128 50v-411zM140 -14l-28 14l398 765l29 -15zM690 0h-318q92 65 170 139q92 86 92 150q0 34 -26 58.5t-65 24.5q-57 0 -96 -44l-22 26q59 52 122 52q57 0 93 -33.5t36 -83.5q0 -78 -101 -168q-59 -52 -116 -89l231 3v-35z" />
    <glyph glyph-name="threequarters" unicode="&#xbe;" horiz-adv-x="840" 
d="M717 -2h-43v89h-229v33l242 281h30v-278h64v-36h-64v-89zM248 574v-1q47 -15 71.5 -46.5t24.5 -68.5q0 -47 -43 -81.5t-117 -34.5q-49 0 -82.5 14t-47.5 28l19 32q10 -12 39.5 -25t70.5 -13q57 0 87.5 24t30.5 58q0 41 -38.5 70.5t-103.5 30.5v22q59 1 92 24.5t33 53.5
q0 26 -22.5 42.5t-63.5 16.5q-46 0 -82 -22l-15 30q10 10 40.5 20t63.5 10q54 0 87.5 -28t33.5 -65q0 -62 -78 -91zM271 -14l-28 14l398 765l29 -15zM675 122l1 218l-184 -218h183z" />
    <glyph glyph-name="questiondown" unicode="&#xbf;" horiz-adv-x="457" 
d="M344 -158l20 -34q-56 -53 -139 -53q-60 0 -93 37.5t-33 89.5q0 21 8 41.5t16.5 34.5t29.5 33.5t30.5 26.5t37 27t31.5 23q7 5 26 19t25.5 19t19.5 17.5t17.5 22t9 25t4.5 32.5q0 42 -35 71.5t-84 29.5q-88 0 -154 -83l-26 27q18 32 69.5 64.5t115.5 32.5q60 0 108 -39.5
t48 -101.5q0 -31 -9 -56t-30 -46t-34.5 -32.5t-41.5 -30.5q-35 -24 -52.5 -37t-41 -34.5t-34 -42t-10.5 -42.5q0 -37 24.5 -61t62.5 -24q58 0 114 44zM251 448q-19 0 -31.5 13t-12.5 32q0 17 12.5 30t31.5 13q18 0 31 -13t13 -30q0 -19 -13 -32t-31 -13z" />
    <glyph glyph-name="Agrave" unicode="&#xc0;" horiz-adv-x="671" 
d="M673 0h-50l-97 224h-381l-97 -224h-50l338 777zM507 268l-151 352q-18 42 -20 50l-20 -50l-152 -352h343zM432 842l-238 43l23 49l227 -61z" />
    <glyph glyph-name="Aacute" unicode="&#xc1;" horiz-adv-x="671" 
d="M673 0h-50l-97 224h-381l-97 -224h-50l338 777zM507 268l-151 352q-18 42 -20 50l-20 -50l-152 -352h343zM459 885l-238 -43l-12 31l227 61z" />
    <glyph glyph-name="Acircumflex" unicode="&#xc2;" horiz-adv-x="671" 
d="M673 0h-50l-97 224h-381l-97 -224h-50l338 777zM507 268l-151 352q-18 42 -20 50l-20 -50l-152 -352h343zM484 818l-149 62l-153 -69l-15 23l168 98h1l167 -92z" />
    <glyph glyph-name="Atilde" unicode="&#xc3;" horiz-adv-x="671" 
d="M673 0h-50l-97 224h-381l-97 -224h-50l338 777zM507 268l-151 352q-18 42 -20 50l-20 -50l-152 -352h343zM489 923l18 -30q-15 -19 -46 -40t-59 -21q-19 0 -61 25t-65 25q-33 0 -85 -46l-19 27q18 21 49.5 41.5t58.5 20.5q24 0 66 -25.5t59 -25.5q39 0 84 49z" />
    <glyph glyph-name="Adieresis" unicode="&#xc4;" horiz-adv-x="671" 
d="M673 0h-50l-97 224h-381l-97 -224h-50l338 777zM507 268l-151 352q-18 42 -20 50l-20 -50l-152 -352h343zM505 886q0 -16 -10.5 -26.5t-28.5 -10.5q-15 0 -25.5 11t-10.5 26q0 17 10 28t26 11q18 0 28.5 -11t10.5 -28zM241 886q0 -15 -11.5 -26t-27.5 -11q-15 0 -26 11
t-11 26q0 16 11 27.5t26 11.5q16 0 27.5 -11.5t11.5 -27.5z" />
    <glyph glyph-name="Aring" unicode="&#xc5;" horiz-adv-x="671" 
d="M673 0h-50l-97 224h-381l-97 -224h-50l338 777zM507 268l-151 352q-18 42 -20 50l-20 -50l-152 -352h343zM439 900q0 -43 -30.5 -73t-73.5 -30t-73.5 30t-30.5 73t30.5 73.5t73.5 30.5t73.5 -31t30.5 -73zM406 901q0 29 -20.5 49.5t-49.5 20.5t-49 -20.5t-20 -49.5
q0 -28 20.5 -49t48.5 -21q29 0 49.5 21t20.5 49z" />
    <glyph glyph-name="AE" unicode="&#xc6;" horiz-adv-x="881" 
d="M847 1h-407v223h-268l-131 -224h-50l439 756h383v-43h-325v-284h261v-44h-261v-341h359v-43zM440 268v414l-243 -414h243z" />
    <glyph glyph-name="Ccedilla" unicode="&#xc7;" horiz-adv-x="746" 
d="M675 113l23 -33q-106 -92 -248 -92q-169 0 -282 113.5t-113 276.5q0 164 113 278t282 114q142 0 248 -94l-29 -36q-81 85 -228 85q-143 0 -239.5 -98.5t-96.5 -253.5q0 -144 101.5 -243t244.5 -99q137 0 224 82zM388 -225h-42l68 157h51z" />
    <glyph glyph-name="Egrave" unicode="&#xc8;" horiz-adv-x="547" 
d="M408 847l-238 33l23 49l227 -51zM512 1h-406v755h373v-43h-325v-284h261v-44h-261v-341h358v-43z" />
    <glyph glyph-name="Eacute" unicode="&#xc9;" horiz-adv-x="547" 
d="M420 885l-238 -43l-12 31l227 61zM512 1h-406v755h373v-43h-325v-284h261v-44h-261v-341h358v-43z" />
    <glyph glyph-name="Ecircumflex" unicode="&#xca;" horiz-adv-x="547" 
d="M512 1h-406v755h373v-43h-325v-284h261v-44h-261v-341h358v-43zM441 812l-149 68l-153 -69l-15 23l168 98h1l167 -98z" />
    <glyph glyph-name="Edieresis" unicode="&#xcb;" horiz-adv-x="547" 
d="M195 876q0 -15 -11.5 -26t-27.5 -11q-15 0 -26 11t-11 26q0 16 11 27.5t26 11.5q16 0 27.5 -11.5t11.5 -27.5zM449 876q0 -16 -10.5 -26.5t-28.5 -10.5q-15 0 -25.5 11t-10.5 26q0 17 10 28t26 11q18 0 28.5 -11t10.5 -28zM512 1h-406v755h373v-43h-325v-284h261v-44
h-261v-341h358v-43z" />
    <glyph glyph-name="Igrave" unicode="&#xcc;" horiz-adv-x="260" 
d="M216 847l-188 33l23 49l177 -51zM154 0h-48v757h48v-757z" />
    <glyph glyph-name="Iacute" unicode="&#xcd;" horiz-adv-x="260" 
d="M228 880l-188 -33l-12 31l177 51zM154 0h-48v757h48v-757z" />
    <glyph glyph-name="Icircumflex" unicode="&#xce;" horiz-adv-x="260" 
d="M212 814l-83 66l-88 -69l-15 23l103 98h1l101 -96zM154 0h-48v757h48v-757z" />
    <glyph glyph-name="Idieresis" unicode="&#xcf;" horiz-adv-x="260" 
d="M101 846q0 -15 -11.5 -26t-27.5 -11q-15 0 -26 11t-11 26q0 16 11 27.5t26 11.5q16 0 27.5 -11.5t11.5 -27.5zM235 846q0 -16 -10.5 -26.5t-28.5 -10.5q-15 0 -25.5 11t-10.5 26q0 17 10 28t26 11q18 0 28.5 -11t10.5 -28zM154 0h-48v757h48v-757z" />
    <glyph glyph-name="Eth" unicode="&#xd0;" horiz-adv-x="727" 
d="M271 0h-165v358h-70v39h70v360h155q175 0 291.5 -100t116.5 -279q0 -173 -110.5 -275.5t-287.5 -102.5zM154 44h92q170 0 271.5 86t101.5 251q0 110 -52 186.5t-134 111t-185 34.5h-94v-316h209v-39h-209v-314z" />
    <glyph glyph-name="Ntilde" unicode="&#xd1;" horiz-adv-x="847" 
d="M581 923l18 -30q-15 -19 -46 -40t-59 -21q-19 0 -61 25t-65 25q-33 0 -85 -46l-19 27q18 21 49.5 41.5t58.5 20.5q24 0 66 -25.5t59 -25.5q39 0 84 49zM742 -24l-588 671v-647h-48v775l588 -669v651h48v-781z" />
    <glyph glyph-name="Ograve" unicode="&#xd2;" horiz-adv-x="903" 
d="M536 842l-238 43l23 49l227 -61zM848 375q0 -161 -116 -274t-279 -113q-167 0 -282.5 113.5t-115.5 276.5q0 164 115.5 278t282.5 114t281 -112.5t114 -282.5zM798 376q0 151 -100.5 250t-244.5 99q-147 0 -247.5 -98t-100.5 -245q0 -142 100 -246.5t241 -104.5
q150 0 251 99t101 246z" />
    <glyph glyph-name="Oacute" unicode="&#xd3;" horiz-adv-x="903" 
d="M573 885l-238 -43l-12 31l227 61zM848 375q0 -161 -116 -274t-279 -113q-167 0 -282.5 113.5t-115.5 276.5q0 164 115.5 278t282.5 114t281 -112.5t114 -282.5zM798 376q0 151 -100.5 250t-244.5 99q-147 0 -247.5 -98t-100.5 -245q0 -142 100 -246.5t241 -104.5
q150 0 251 99t101 246z" />
    <glyph glyph-name="Ocircumflex" unicode="&#xd4;" horiz-adv-x="903" 
d="M848 375q0 -161 -116 -274t-279 -113q-167 0 -282.5 113.5t-115.5 276.5q0 164 115.5 278t282.5 114t281 -112.5t114 -282.5zM798 376q0 151 -100.5 250t-244.5 99q-147 0 -247.5 -98t-100.5 -245q0 -142 100 -246.5t241 -104.5q150 0 251 99t101 246zM598 818l-149 62
l-153 -69l-15 23l168 98h1l167 -92z" />
    <glyph glyph-name="Otilde" unicode="&#xd5;" horiz-adv-x="903" 
d="M602 923l18 -30q-15 -19 -46 -40t-59 -21q-19 0 -61 25t-65 25q-33 0 -85 -46l-19 27q18 21 49.5 41.5t58.5 20.5q24 0 66 -25.5t59 -25.5q39 0 84 49zM848 375q0 -161 -116 -274t-279 -113q-167 0 -282.5 113.5t-115.5 276.5q0 164 115.5 278t282.5 114t281 -112.5
t114 -282.5zM798 376q0 151 -100.5 250t-244.5 99q-147 0 -247.5 -98t-100.5 -245q0 -142 100 -246.5t241 -104.5q150 0 251 99t101 246z" />
    <glyph glyph-name="Odieresis" unicode="&#xd6;" horiz-adv-x="903" 
d="M272 882q0 -15 -11.5 -26t-27.5 -11q-15 0 -26 11t-11 26q0 16 11 27.5t26 11.5q17 0 28 -11.5t11 -27.5zM691 882q0 -16 -10.5 -26.5t-28.5 -10.5q-15 0 -25.5 11t-10.5 26q0 17 10 28t26 11q18 0 28.5 -11t10.5 -28zM848 375q0 -161 -116 -274t-279 -113
q-167 0 -282.5 113.5t-115.5 276.5q0 164 115.5 278t282.5 114t281 -112.5t114 -282.5zM798 376q0 151 -100.5 250t-244.5 99q-147 0 -247.5 -98t-100.5 -245q0 -142 100 -246.5t241 -104.5q150 0 251 99t101 246z" />
    <glyph glyph-name="multiply" unicode="&#xd7;" horiz-adv-x="642" 
d="M558 159l-33 -31l-203 205l-205 -205l-33 31l210 205l-207 205l30 32l207 -205l201 205l30 -32l-203 -204z" />
    <glyph glyph-name="Oslash" unicode="&#xd8;" horiz-adv-x="903" 
d="M267 -148l-37 13l62 154q-107 46 -172 143t-65 216q0 164 115.5 278t282.5 114q67 0 133 -22l55 137l37 -16l-55 -135q102 -47 163.5 -142t61.5 -217q0 -161 -116 -274t-279 -113q-60 0 -124 18zM309 61l260 645q-59 19 -116 19q-147 0 -247.5 -98t-100.5 -245
q0 -104 56.5 -191.5t147.5 -129.5zM606 690l-260 -643q44 -16 100 -16q150 0 251 99t101 246q0 106 -52.5 189t-139.5 125z" />
    <glyph glyph-name="Ugrave" unicode="&#xd9;" horiz-adv-x="740" 
d="M467 842l-238 43l23 49l227 -61zM590 95v662h48v-676q-35 -42 -104.5 -67.5t-165.5 -25.5q-127 0 -198 72t-71 212v485h48v-472q0 -136 59.5 -195t184.5 -59q56 0 112 16t87 48z" />
    <glyph glyph-name="Uacute" unicode="&#xda;" horiz-adv-x="740" 
d="M509 885l-238 -43l-12 31l227 61zM590 95v662h48v-676q-35 -42 -104.5 -67.5t-165.5 -25.5q-127 0 -198 72t-71 212v485h48v-472q0 -136 59.5 -195t184.5 -59q56 0 112 16t87 48z" />
    <glyph glyph-name="Ucircumflex" unicode="&#xdb;" horiz-adv-x="740" 
d="M590 95v662h48v-676q-35 -42 -104.5 -67.5t-165.5 -25.5q-127 0 -198 72t-71 212v485h48v-472q0 -136 59.5 -195t184.5 -59q56 0 112 16t87 48zM521 818l-149 62l-153 -69l-15 23l168 98h1l167 -92z" />
    <glyph glyph-name="Udieresis" unicode="&#xdc;" horiz-adv-x="740" 
d="M172 881q0 -15 -11.5 -26t-27.5 -11q-15 0 -26 11t-11 26q0 16 11 27.5t26 11.5q17 0 28 -11t11 -28zM643 881q0 -15 -10.5 -26t-28.5 -11q-15 0 -25.5 11t-10.5 26q0 17 10 28t26 11q18 0 28.5 -11t10.5 -28zM590 95v662h48v-676q-35 -42 -104.5 -67.5t-165.5 -25.5
q-127 0 -198 72t-71 212v485h48v-472q0 -136 59.5 -195t184.5 -59q56 0 112 16t87 48z" />
    <glyph glyph-name="Yacute" unicode="&#xdd;" horiz-adv-x="523" 
d="M386 872l-139 -138l-20 17l118 154zM285 0h-48v328l-239 429h56l204 -365q4 -6 5 -15q1 9 5 15l206 365h54l-243 -429v-328z" />
    <glyph glyph-name="Thorn" unicode="&#xde;" horiz-adv-x="542" 
d="M154 0h-48v757h48v-154h86q72 0 129.5 -20.5t96.5 -70t39 -123.5q0 -104 -71.5 -169t-209.5 -65h-70v-155zM154 199h72q107 0 168.5 49.5t61.5 139.5q0 82 -56.5 126.5t-149.5 44.5h-96v-360z" />
    <glyph glyph-name="germandbls" unicode="&#xdf;" horiz-adv-x="516" 
d="M216 -245l2 37q46 8 93.5 35.5t86 82t38.5 120.5q0 63 -34.5 101t-104.5 38q-42 0 -91 -13l173 273h-231v-429h-44v429h-76v41h76v149q0 100 40 149q40 47 109 47q49 0 73 -18l-21 -42q-22 16 -58 16q-49 0 -74 -38t-25 -104v-159h310l-177 -261q17 3 33 3
q74 0 120.5 -52.5t46.5 -132.5q0 -60 -29 -112t-72 -84t-86 -51.5t-78 -24.5z" />
    <glyph glyph-name="agrave" unicode="&#xe0;" horiz-adv-x="503" 
d="M391 76v133q-69 64 -157 64q-57 0 -104.5 -30t-47.5 -85q0 -62 44.5 -95.5t108.5 -33.5q97 0 156 47zM391 254v70q0 52 -38 85t-105 33t-132 -28l-20 35q70 34 150 34q106 0 147.5 -44.5t41.5 -127.5v-254q-71 -68 -202 -68q-96 0 -146.5 48.5t-50.5 120.5t62.5 113.5
t133.5 41.5q98 0 159 -59zM319 600l-21 -17l-138 138l41 33z" />
    <glyph glyph-name="aacute" unicode="&#xe1;" horiz-adv-x="503" 
d="M391 76v133q-69 64 -157 64q-57 0 -104.5 -30t-47.5 -85q0 -62 44.5 -95.5t108.5 -33.5q97 0 156 47zM391 254v70q0 52 -38 85t-105 33t-132 -28l-20 35q70 34 150 34q106 0 147.5 -44.5t41.5 -127.5v-254q-71 -68 -202 -68q-96 0 -146.5 48.5t-50.5 120.5t62.5 113.5
t133.5 41.5q98 0 159 -59zM359 721l-139 -138l-20 17l118 154z" />
    <glyph glyph-name="acircumflex" unicode="&#xe2;" horiz-adv-x="503" 
d="M391 254v70q0 52 -38 85t-105 33t-132 -28l-20 35q70 34 150 34q106 0 147.5 -44.5t41.5 -127.5v-254q-71 -68 -202 -68q-96 0 -146.5 48.5t-50.5 120.5t62.5 113.5t133.5 41.5q98 0 159 -59zM391 76v133q-69 64 -157 64q-57 0 -104.5 -30t-47.5 -85q0 -62 44.5 -95.5
t108.5 -33.5q97 0 156 47zM403 598l-26 -22l-122 102l-122 -102l-26 22l148 133h1z" />
    <glyph glyph-name="atilde" unicode="&#xe3;" horiz-adv-x="503" 
d="M391 76v133q-69 64 -157 64q-57 0 -104.5 -30t-47.5 -85q0 -62 44.5 -95.5t108.5 -33.5q97 0 156 47zM391 254v70q0 52 -38 85t-105 33t-132 -28l-20 35q70 34 150 34q106 0 147.5 -44.5t41.5 -127.5v-254q-71 -68 -202 -68q-96 0 -146.5 48.5t-50.5 120.5t62.5 113.5
t133.5 41.5q98 0 159 -59zM388 665l17 -27q-14 -18 -41 -35.5t-55 -17.5q-18 0 -57 23.5t-61 23.5q-30 0 -79 -43l-18 24q17 19 46.5 38.5t54.5 19.5q22 0 61.5 -24t55.5 -24q38 0 76 42z" />
    <glyph glyph-name="adieresis" unicode="&#xe4;" horiz-adv-x="503" 
d="M391 76v133q-69 64 -157 64q-57 0 -104.5 -30t-47.5 -85q0 -62 44.5 -95.5t108.5 -33.5q97 0 156 47zM391 254v70q0 52 -38 85t-105 33t-132 -28l-20 35q70 34 150 34q106 0 147.5 -44.5t41.5 -127.5v-254q-71 -68 -202 -68q-96 0 -146.5 48.5t-50.5 120.5t62.5 113.5
t133.5 41.5q98 0 159 -59zM165 630q0 -15 -11.5 -26t-27.5 -11q-15 0 -26 11t-11 26q0 16 11 27.5t26 11.5q16 0 27.5 -11.5t11.5 -27.5zM384 630q0 -16 -11 -26.5t-28 -10.5q-15 0 -25.5 11t-10.5 26q0 17 10 28t26 11q18 0 28.5 -11t10.5 -28z" />
    <glyph glyph-name="aring" unicode="&#xe5;" horiz-adv-x="503" 
d="M391 76v133q-69 64 -157 64q-57 0 -104.5 -30t-47.5 -85q0 -62 44.5 -95.5t108.5 -33.5q97 0 156 47zM391 254v70q0 52 -38 85t-105 33t-132 -28l-20 35q70 34 150 34q106 0 147.5 -44.5t41.5 -127.5v-254q-71 -68 -202 -68q-96 0 -146.5 48.5t-50.5 120.5t62.5 113.5
t133.5 41.5q98 0 159 -59zM355 655q0 -43 -30.5 -73t-73.5 -30t-73.5 30t-30.5 73t30.5 73.5t73.5 30.5t73.5 -31t30.5 -73zM322 656q0 29 -20.5 49.5t-49.5 20.5t-49 -20.5t-20 -49.5q0 -28 20.5 -49t48.5 -21q29 0 49.5 21t20.5 49z" />
    <glyph glyph-name="ae" unicode="&#xe6;" horiz-adv-x="871" 
d="M789 100l25 -26q-62 -85 -194 -85q-125 0 -193 102q-24 -40 -77.5 -71t-116.5 -31q-96 0 -146.5 48.5t-50.5 120.5t62.5 113.5t133.5 41.5q51 0 86 -14t73 -42v67q0 52 -38 85t-105 33t-132 -28l-20 35q70 34 150 34q81 0 123.5 -26t57.5 -78q64 104 192 104
q101 0 154 -67.5t53 -162.5v-9h-391v-13q0 -99 55.5 -150.5t138.5 -51.5q57 0 97.5 21.5t62.5 49.5zM407 138q-12 30 -15 72q-68 63 -158 63q-57 0 -104.5 -30t-47.5 -85q0 -62 44.5 -95.5t108.5 -33.5q57 0 114.5 39.5t57.5 69.5zM438 284h342q-8 68 -50.5 113t-114.5 45
q-77 0 -123 -45t-54 -113z" />
    <glyph glyph-name="ccedilla" unicode="&#xe7;" horiz-adv-x="511" 
d="M457 97l23 -27q-61 -81 -189 -81q-104 0 -174 69.5t-70 175.5q0 108 69.5 178.5t177.5 70.5q60 0 103.5 -22.5t59.5 -42.5l-26 -30q-8 9 -23 19.5t-48.5 22.5t-69.5 12q-78 0 -137.5 -54t-59.5 -154q0 -95 58.5 -150t143.5 -55q98 0 162 68zM237 -215h-42l68 157h51z" />
    <glyph glyph-name="egrave" unicode="&#xe8;" 
d="M455 100l25 -26q-62 -85 -194 -85q-103 0 -170.5 67.5t-67.5 175.5q0 113 64 182t173 69q101 0 154 -67.5t53 -162.5v-9h-398q0 -8 0.5 -19t0.5 -12q6 -88 62.5 -136t137.5 -48q57 0 97.5 21.5t62.5 49.5zM97 284h348q-8 68 -50 113t-114 45q-70 0 -117 -37.5t-62 -94.5
q-4 -16 -5 -26zM322 600l-21 -17l-138 138l41 33z" />
    <glyph glyph-name="eacute" unicode="&#xe9;" 
d="M455 100l25 -26q-62 -85 -194 -85q-103 0 -170.5 67.5t-67.5 175.5q0 113 64 182t173 69q101 0 154 -67.5t53 -162.5v-9h-398q0 -8 0.5 -19t0.5 -12q6 -88 62.5 -136t137.5 -48q57 0 97.5 21.5t62.5 49.5zM97 284h348q-8 68 -50 113t-114 45q-70 0 -117 -37.5t-62 -94.5
q-4 -16 -5 -26zM362 721l-139 -138l-20 17l118 154z" />
    <glyph glyph-name="ecircumflex" unicode="&#xea;" 
d="M455 100l25 -26q-62 -85 -194 -85q-103 0 -170.5 67.5t-67.5 175.5q0 113 64 182t173 69q101 0 154 -67.5t53 -162.5v-9h-398q0 -8 0.5 -19t0.5 -12q6 -88 62.5 -136t137.5 -48q57 0 97.5 21.5t62.5 49.5zM97 284h348q-8 68 -50 113t-114 45q-70 0 -117 -37.5t-62 -94.5
q-4 -16 -5 -26zM420 598l-26 -22l-122 102l-122 -102l-26 22l148 133h1z" />
    <glyph glyph-name="edieresis" unicode="&#xeb;" 
d="M455 100l25 -26q-62 -85 -194 -85q-103 0 -170.5 67.5t-67.5 175.5q0 113 64 182t173 69q101 0 154 -67.5t53 -162.5v-9h-398q0 -8 0.5 -19t0.5 -12q6 -88 62.5 -136t137.5 -48q57 0 97.5 21.5t62.5 49.5zM97 284h348q-8 68 -50 113t-114 45q-70 0 -117 -37.5t-62 -94.5
q-4 -16 -5 -26zM201 630q0 -15 -11.5 -26t-27.5 -11q-15 0 -26 11t-11 26q0 16 11 27.5t26 11.5q16 0 27.5 -11.5t11.5 -27.5zM420 630q0 -16 -11 -26.5t-28 -10.5q-15 0 -25.5 11t-10.5 26q0 17 10 28t26 11q18 0 28.5 -11t10.5 -28z" />
    <glyph glyph-name="igrave" unicode="&#xec;" horiz-adv-x="210" 
d="M127 0h-44v471h44v-471zM163 600l-21 -17l-138 138l41 33z" />
    <glyph glyph-name="iacute" unicode="&#xed;" horiz-adv-x="210" 
d="M127 0h-44v471h44v-471zM207 721l-139 -138l-20 17l118 154z" />
    <glyph glyph-name="icircumflex" unicode="&#xee;" horiz-adv-x="210" 
d="M127 0h-44v471h44v-471zM233 608l-26 -22l-102 102l-102 -102l-25 22l127 133h1z" />
    <glyph glyph-name="idieresis" unicode="&#xef;" horiz-adv-x="210" 
d="M127 0h-44v471h44v-471zM64 630q0 -15 -11.5 -26t-27.5 -11q-15 0 -25.5 11t-10.5 26q0 16 10.5 27.5t25.5 11.5q17 0 28 -11.5t11 -27.5zM223 630q0 -16 -10.5 -26.5t-28.5 -10.5q-15 0 -25.5 11t-10.5 26q0 17 10 28t26 11q18 0 28.5 -11t10.5 -28z" />
    <glyph glyph-name="eth" unicode="&#xf0;" horiz-adv-x="599" 
d="M487 736l-120 -71q179 -278 179 -430q0 -102 -71 -174t-177 -72q-111 0 -181 73t-70 173q0 101 70.5 174.5t180.5 73.5q109 0 167 -81q-54 124 -136 241l-118 -72l-21 30l122 72q-79 118 -115 147h60q42 -50 90 -126l121 72zM297 30q84 0 143.5 55.5t59.5 149.5
q0 84 -59.5 145t-144.5 61q-94 0 -149 -59.5t-55 -148.5q0 -77 57.5 -140t147.5 -63z" />
    <glyph glyph-name="ntilde" unicode="&#xf1;" horiz-adv-x="538" 
d="M463 0h-44v288q0 81 -33 116t-108 35q-50 0 -90.5 -20.5t-64.5 -45.5v-373h-44v471h44v-51q71 63 162 63q178 0 178 -177v-306zM402 665l17 -27q-14 -18 -41 -35.5t-55 -17.5q-18 0 -57 23.5t-61 23.5q-30 0 -79 -43l-18 24q17 19 46.5 38.5t54.5 19.5q22 0 61.5 -24
t55.5 -24q38 0 76 42z" />
    <glyph glyph-name="ograve" unicode="&#xf2;" horiz-adv-x="593" 
d="M546 235q0 -104 -72 -175t-177 -71t-177.5 70.5t-72.5 175.5t72.5 176.5t177.5 71.5t177 -72t72 -176zM500 235q0 88 -60.5 147t-144.5 59q-90 0 -146.5 -59t-56.5 -150q0 -86 60.5 -144t142.5 -58q91 0 148 57t57 148zM354 600l-21 -17l-138 138l41 33z" />
    <glyph glyph-name="oacute" unicode="&#xf3;" horiz-adv-x="593" 
d="M546 235q0 -104 -72 -175t-177 -71t-177.5 70.5t-72.5 175.5t72.5 176.5t177.5 71.5t177 -72t72 -176zM500 235q0 88 -60.5 147t-144.5 59q-90 0 -146.5 -59t-56.5 -150q0 -86 60.5 -144t142.5 -58q91 0 148 57t57 148zM396 721l-139 -138l-20 17l118 154z" />
    <glyph glyph-name="ocircumflex" unicode="&#xf4;" horiz-adv-x="593" 
d="M546 235q0 -104 -72 -175t-177 -71t-177.5 70.5t-72.5 175.5t72.5 176.5t177.5 71.5t177 -72t72 -176zM500 235q0 88 -60.5 147t-144.5 59q-90 0 -146.5 -59t-56.5 -150q0 -86 60.5 -144t142.5 -58q91 0 148 57t57 148zM446 598l-26 -22l-122 102l-122 -102l-26 22
l148 133h1z" />
    <glyph glyph-name="otilde" unicode="&#xf5;" horiz-adv-x="593" 
d="M546 235q0 -104 -72 -175t-177 -71t-177.5 70.5t-72.5 175.5t72.5 176.5t177.5 71.5t177 -72t72 -176zM500 235q0 88 -60.5 147t-144.5 59q-90 0 -146.5 -59t-56.5 -150q0 -86 60.5 -144t142.5 -58q91 0 148 57t57 148zM435 665l17 -27q-14 -18 -41 -35.5t-55 -17.5
q-18 0 -57 23.5t-61 23.5q-30 0 -79 -43l-18 24q17 19 46.5 38.5t54.5 19.5q22 0 61.5 -24t55.5 -24q37 0 76 42z" />
    <glyph glyph-name="odieresis" unicode="&#xf6;" horiz-adv-x="593" 
d="M546 235q0 -104 -72 -175t-177 -71t-177.5 70.5t-72.5 175.5t72.5 176.5t177.5 71.5t177 -72t72 -176zM500 235q0 88 -60.5 147t-144.5 59q-90 0 -146.5 -59t-56.5 -150q0 -86 60.5 -144t142.5 -58q91 0 148 57t57 148zM225 630q0 -15 -11.5 -26t-27.5 -11q-15 0 -26 11
t-11 26q0 16 11 27.5t26 11.5q16 0 27.5 -11.5t11.5 -27.5zM444 630q0 -16 -11 -26.5t-28 -10.5q-15 0 -25.5 11t-10.5 26q0 17 10 28t26 11q18 0 28.5 -11t10.5 -28z" />
    <glyph glyph-name="divide" unicode="&#xf7;" horiz-adv-x="691" 
d="M384 173q0 -15 -10.5 -26t-27.5 -11q-14 0 -24.5 11t-10.5 26t10 26.5t25 11.5q17 0 27.5 -11t10.5 -27zM384 549q0 -15 -10.5 -25.5t-27.5 -10.5q-14 0 -24.5 11t-10.5 25q0 16 10.5 27t24.5 11q17 0 27.5 -11t10.5 -27zM596 342h-500v42h500v-42z" />
    <glyph glyph-name="oslash" unicode="&#xf8;" horiz-adv-x="593" 
d="M148 -145l-34 14l68 145q-62 30 -98.5 89t-36.5 132q0 105 72.5 176.5t177.5 71.5q47 0 94 -18l73 156l34 -17l-73 -156q56 -33 88.5 -89.5t32.5 -123.5q0 -104 -72 -175t-177 -71q-35 0 -81 11zM200 53l173 372q-40 16 -78 16q-90 0 -146.5 -59t-56.5 -150
q0 -58 29.5 -106t78.5 -73zM406 408l-172 -369q30 -9 61 -9q91 0 148 57t57 148q0 55 -25.5 100t-68.5 73z" />
    <glyph glyph-name="ugrave" unicode="&#xf9;" horiz-adv-x="538" 
d="M417 73v398h44v-417q-68 -65 -192 -65q-89 0 -141.5 46t-52.5 133v303h44v-293q0 -73 39.5 -111t109.5 -38q87 0 149 44zM328 600l-21 -17l-138 138l41 33z" />
    <glyph glyph-name="uacute" unicode="&#xfa;" horiz-adv-x="538" 
d="M417 73v398h44v-417q-68 -65 -192 -65q-89 0 -141.5 46t-52.5 133v303h44v-293q0 -73 39.5 -111t109.5 -38q87 0 149 44zM370 721l-139 -138l-20 17l118 154z" />
    <glyph glyph-name="ucircumflex" unicode="&#xfb;" horiz-adv-x="538" 
d="M417 73v398h44v-417q-68 -65 -192 -65q-89 0 -141.5 46t-52.5 133v303h44v-293q0 -73 39.5 -111t109.5 -38q87 0 149 44zM420 598l-26 -22l-122 102l-122 -102l-26 22l148 133h1z" />
    <glyph glyph-name="udieresis" unicode="&#xfc;" horiz-adv-x="538" 
d="M417 73v398h44v-417q-68 -65 -192 -65q-89 0 -141.5 46t-52.5 133v303h44v-293q0 -73 39.5 -111t109.5 -38q87 0 149 44zM197 630q0 -15 -11.5 -26t-27.5 -11q-15 0 -26 11t-11 26q0 16 11 27.5t26 11.5q16 0 27.5 -11.5t11.5 -27.5zM416 630q0 -16 -11 -26.5t-28 -10.5
q-15 0 -25.5 11t-10.5 26q0 17 10 28t26 11q18 0 28.5 -11t10.5 -28z" />
    <glyph glyph-name="yacute" unicode="&#xfd;" horiz-adv-x="466" 
d="M101 -259h-46l146 296l-192 434h49l168 -389l186 389h48zM365 721l-139 -138l-20 17l118 154z" />
    <glyph glyph-name="thorn" unicode="&#xfe;" horiz-adv-x="575" 
d="M123 -254h-44v1074h44v-374q68 37 149 37q106 0 181 -65.5t75 -184.5q0 -102 -62 -173t-168 -71q-51 0 -99 20.5t-76 49.5v-313zM123 398v-279q26 -39 73.5 -64.5t101.5 -25.5q78 0 131 54.5t53 148.5q0 92 -58.5 151t-157.5 59q-40 0 -80.5 -13.5t-62.5 -30.5z" />
    <glyph glyph-name="ydieresis" unicode="&#xff;" horiz-adv-x="466" 
d="M101 -259h-46l146 296l-192 434h49l168 -389l186 389h48zM155 630q0 -15 -11.5 -26t-27.5 -11q-15 0 -26 11t-11 26q0 16 11 27.5t26 11.5q16 0 27.5 -11.5t11.5 -27.5zM374 630q0 -16 -11 -26.5t-28 -10.5q-15 0 -25.5 11t-10.5 26q0 17 10 28t26 11q18 0 28.5 -11
t10.5 -28z" />
    <glyph glyph-name="Amacron" unicode="&#x100;" horiz-adv-x="671" 
d="M673 0h-50l-97 224h-381l-97 -224h-50l338 777zM507 268l-151 352q-18 42 -20 50l-20 -50l-152 -352h343zM509 882h-349v41h349v-41z" />
    <glyph glyph-name="amacron" unicode="&#x101;" horiz-adv-x="503" 
d="M391 76v133q-69 64 -157 64q-57 0 -104.5 -30t-47.5 -85q0 -62 44.5 -95.5t108.5 -33.5q97 0 156 47zM391 254v70q0 52 -38 85t-105 33t-132 -28l-20 35q70 34 150 34q106 0 147.5 -44.5t41.5 -127.5v-254q-71 -68 -202 -68q-96 0 -146.5 48.5t-50.5 120.5t62.5 113.5
t133.5 41.5q98 0 159 -59zM424 596h-349v41h349v-41z" />
    <glyph glyph-name="Abreve" unicode="&#x102;" horiz-adv-x="671" 
d="M673 0h-50l-97 224h-381l-97 -224h-50l338 777zM507 268l-151 352q-18 42 -20 50l-20 -50l-152 -352h343zM451 1015h43q-3 -58 -45.5 -105t-119.5 -47q-62 0 -105.5 40t-48.5 112h45q0 -11 3.5 -26t13 -36.5t33.5 -36t58 -14.5q33 0 57.5 11t36.5 25.5t19 33t8.5 28
t1.5 15.5z" />
    <glyph glyph-name="abreve" unicode="&#x103;" horiz-adv-x="503" 
d="M391 76v133q-69 64 -157 64q-57 0 -104.5 -30t-47.5 -85q0 -62 44.5 -95.5t108.5 -33.5q97 0 156 47zM391 254v70q0 52 -38 85t-105 33t-132 -28l-20 35q70 34 150 34q106 0 147.5 -44.5t41.5 -127.5v-254q-71 -68 -202 -68q-96 0 -146.5 48.5t-50.5 120.5t62.5 113.5
t133.5 41.5q98 0 159 -59zM365 729h43q-3 -58 -45.5 -105t-119.5 -47q-62 0 -105.5 40t-48.5 112h45q0 -11 3.5 -26t13 -36.5t33.5 -36t58 -14.5q33 0 57.5 11t36.5 25.5t19 33t8.5 28t1.5 15.5z" />
    <glyph glyph-name="Aogonek" unicode="&#x104;" horiz-adv-x="671" 
d="M697 -171v-39q-27 -15 -68 -15q-45 0 -79 28t-34 72q0 38 29.5 73t77.5 53l-97 223h-381l-97 -224h-50l338 777l340 -784q-46 -10 -82.5 -40.5t-36.5 -71.5q0 -30 22.5 -48t56.5 -18q26 0 61 14zM507 268l-151 352q-18 42 -20 50l-20 -50l-152 -352h343z" />
    <glyph glyph-name="aogonek" unicode="&#x105;" horiz-adv-x="503" 
d="M411 -158v-39q-27 -15 -66 -15q-46 0 -80 23t-34 66q0 69 76 119q-40 -7 -74 -7q-96 0 -146.5 48.5t-50.5 120.5t62.5 113.5t133.5 41.5q98 0 159 -59v70q0 52 -38 85t-105 33t-132 -28l-20 35q70 34 150 34q106 0 147.5 -44.5t41.5 -127.5v-254q-28 -27 -73 -47
q-37 -16 -63.5 -48.5t-26.5 -69.5q0 -30 22 -47t56 -17q26 0 61 14zM391 76v133q-69 64 -157 64q-57 0 -104.5 -30t-47.5 -85q0 -62 44.5 -95.5t108.5 -33.5q97 0 156 47z" />
    <glyph glyph-name="Cacute" unicode="&#x106;" horiz-adv-x="746" 
d="M675 113l23 -33q-106 -92 -248 -92q-169 0 -282 113.5t-113 276.5q0 164 113 278t282 114q142 0 248 -94l-29 -36q-81 85 -228 85q-143 0 -239.5 -98.5t-96.5 -253.5q0 -144 101.5 -243t244.5 -99q137 0 224 82zM557 885l-238 -43l-12 31l227 61z" />
    <glyph glyph-name="cacute" unicode="&#x107;" horiz-adv-x="511" 
d="M457 97l23 -27q-61 -81 -189 -81q-104 0 -174 69.5t-70 175.5q0 108 69.5 178.5t177.5 70.5q60 0 103.5 -22.5t59.5 -42.5l-26 -30q-8 9 -23 19.5t-48.5 22.5t-69.5 12q-78 0 -137.5 -54t-59.5 -154q0 -95 58.5 -150t143.5 -55q98 0 162 68zM367 721l-139 -138l-20 17
l118 154z" />
    <glyph glyph-name="Ccircumflex" unicode="&#x108;" horiz-adv-x="746" 
d="M675 113l23 -33q-106 -92 -248 -92q-169 0 -282 113.5t-113 276.5q0 164 113 278t282 114q142 0 248 -94l-29 -36q-81 85 -228 85q-143 0 -239.5 -98.5t-96.5 -253.5q0 -144 101.5 -243t244.5 -99q137 0 224 82zM575 842l-149 69l-153 -69l-15 23l168 98h1l167 -99z" />
    <glyph glyph-name="ccircumflex" unicode="&#x109;" horiz-adv-x="511" 
d="M457 97l23 -27q-61 -81 -189 -81q-104 0 -174 69.5t-70 175.5q0 108 69.5 178.5t177.5 70.5q60 0 103.5 -22.5t59.5 -42.5l-26 -30q-8 9 -23 19.5t-48.5 22.5t-69.5 12q-78 0 -137.5 -54t-59.5 -154q0 -95 58.5 -150t143.5 -55q98 0 162 68zM410 608l-26 -22l-122 102
l-122 -102l-26 22l148 133h1z" />
    <glyph glyph-name="Cdotaccent" unicode="&#x10a;" horiz-adv-x="746" 
d="M675 113l23 -33q-106 -92 -248 -92q-169 0 -282 113.5t-113 276.5q0 164 113 278t282 114q142 0 248 -94l-29 -36q-81 85 -228 85q-143 0 -239.5 -98.5t-96.5 -253.5q0 -144 101.5 -243t244.5 -99q137 0 224 82zM456 879q0 -15 -11.5 -26t-27.5 -11q-15 0 -26 11t-11 26
q0 16 11 27.5t26 11.5q17 0 28 -11t11 -28z" />
    <glyph glyph-name="cdotaccent" unicode="&#x10b;" horiz-adv-x="511" 
d="M457 97l23 -27q-61 -81 -189 -81q-104 0 -174 69.5t-70 175.5q0 108 69.5 178.5t177.5 70.5q60 0 103.5 -22.5t59.5 -42.5l-26 -30q-8 9 -23 19.5t-48.5 22.5t-69.5 12q-78 0 -137.5 -54t-59.5 -154q0 -95 58.5 -150t143.5 -55q98 0 162 68zM305 630q0 -15 -11.5 -26
t-27.5 -11q-15 0 -26 11t-11 26q0 16 11 27.5t26 11.5q16 0 27.5 -11.5t11.5 -27.5z" />
    <glyph glyph-name="Ccaron" unicode="&#x10c;" horiz-adv-x="746" 
d="M675 113l23 -33q-106 -92 -248 -92q-169 0 -282 113.5t-113 276.5q0 164 113 278t282 114q142 0 248 -94l-29 -36q-81 85 -228 85q-143 0 -239.5 -98.5t-96.5 -253.5q0 -144 101.5 -243t244.5 -99q137 0 224 82zM582 942l-168 -100l-168 98l15 23l157 -70l145 71z" />
    <glyph glyph-name="ccaron" unicode="&#x10d;" horiz-adv-x="511" 
d="M457 97l23 -27q-61 -81 -189 -81q-104 0 -174 69.5t-70 175.5q0 108 69.5 178.5t177.5 70.5q60 0 103.5 -22.5t59.5 -42.5l-26 -30q-8 9 -23 19.5t-48.5 22.5t-69.5 12q-78 0 -137.5 -54t-59.5 -154q0 -95 58.5 -150t143.5 -55q98 0 162 68zM420 709l-147 -133h-1
l-148 133l26 22l122 -102l122 102z" />
    <glyph glyph-name="Dcaron" unicode="&#x10e;" horiz-adv-x="727" 
d="M271 0h-165v757h155q175 0 291.5 -100t116.5 -279q0 -173 -110.5 -275.5t-287.5 -102.5zM154 44h92q170 0 271.5 86t101.5 251q0 110 -52 186.5t-134 111t-185 34.5h-94v-669zM487 941l-168 -100l-168 98l15 23l157 -70l145 71z" />
    <glyph glyph-name="dcaron" unicode="&#x10f;" horiz-adv-x="593" 
d="M609 575h-42l63 182h51zM453 76v287q-20 35 -66 57t-99 22q-88 0 -141 -56.5t-53 -157.5q0 -96 60 -147.5t150 -51.5q83 0 149 47zM453 423v397h44v-767q-80 -64 -193 -64q-107 0 -181.5 61t-74.5 178q0 116 66.5 185.5t173.5 69.5q103 0 165 -60z" />
    <glyph glyph-name="Dcroat" unicode="&#x110;" horiz-adv-x="727" 
d="M271 0h-165v358h-70v39h70v360h155q175 0 291.5 -100t116.5 -279q0 -173 -110.5 -275.5t-287.5 -102.5zM154 44h92q170 0 271.5 86t101.5 251q0 110 -52 186.5t-134 111t-185 34.5h-94v-316h209v-39h-209v-314z" />
    <glyph glyph-name="dcroat" unicode="&#x111;" horiz-adv-x="573" 
d="M453 423v227h-177l5 41h172v129h44v-129h79l-5 -41h-74v-597q-80 -64 -193 -64q-107 0 -181.5 61t-74.5 178q0 116 66.5 185.5t173.5 69.5q103 0 165 -60zM453 76v287q-20 35 -66 57t-99 22q-88 0 -141 -56.5t-53 -157.5q0 -96 60 -147.5t150 -51.5q83 0 149 47z" />
    <glyph glyph-name="Emacron" unicode="&#x112;" horiz-adv-x="547" 
d="M512 1h-406v755h373v-43h-325v-284h261v-44h-261v-341h358v-43zM464 882h-349v41h349v-41z" />
    <glyph glyph-name="emacron" unicode="&#x113;" 
d="M455 100l25 -26q-62 -85 -194 -85q-103 0 -170.5 67.5t-67.5 175.5q0 113 64 182t173 69q101 0 154 -67.5t53 -162.5v-9h-398q0 -8 0.5 -19t0.5 -12q6 -88 62.5 -136t137.5 -48q57 0 97.5 21.5t62.5 49.5zM97 284h348q-8 68 -50 113t-114 45q-70 0 -117 -37.5t-62 -94.5
q-4 -16 -5 -26zM447 596h-349v41h349v-41z" />
    <glyph glyph-name="Edotaccent" unicode="&#x116;" horiz-adv-x="547" 
d="M512 1h-406v755h373v-43h-325v-284h261v-44h-261v-341h358v-43zM337 916q0 -15 -11.5 -26t-27.5 -11q-15 0 -26 11t-11 26q0 16 11 27.5t26 11.5q16 0 27.5 -11.5t11.5 -27.5z" />
    <glyph glyph-name="edotaccent" unicode="&#x117;" 
d="M455 100l25 -26q-62 -85 -194 -85q-103 0 -170.5 67.5t-67.5 175.5q0 113 64 182t173 69q101 0 154 -67.5t53 -162.5v-9h-398q0 -8 0.5 -19t0.5 -12q6 -88 62.5 -136t137.5 -48q57 0 97.5 21.5t62.5 49.5zM97 284h348q-8 68 -50 113t-114 45q-70 0 -117 -37.5t-62 -94.5
q-4 -16 -5 -26zM310 630q0 -15 -11.5 -26t-27.5 -11q-15 0 -26 11t-11 26q0 16 11 27.5t26 11.5q17 0 28 -11.5t11 -27.5z" />
    <glyph glyph-name="Eogonek" unicode="&#x118;" horiz-adv-x="546" 
d="M432 -171v-39q-27 -15 -66 -15q-46 0 -80 23t-34 66q0 83 108 137h-254v755h373v-43h-325v-284h261v-44h-261v-341h358v-43h-123q-40 -18 -68 -51t-28 -71q0 -30 22 -47t56 -17q26 0 61 14z" />
    <glyph glyph-name="eogonek" unicode="&#x119;" horiz-adv-x="538" 
d="M450 -157v-39q-27 -15 -66 -15q-46 0 -80 23t-34 66q0 66 72 116q-30 -5 -56 -5q-103 0 -170.5 67.5t-67.5 175.5q0 113 64 182t173 69q101 0 154 -67.5t53 -162.5v-9h-398q0 -8 0.5 -19t0.5 -12q6 -88 62.5 -136t137.5 -48q57 0 97.5 21.5t62.5 49.5l25 -26
q-29 -40 -81 -64q-37 -16 -62.5 -48t-25.5 -69q0 -30 22 -47t56 -17q26 0 61 14zM97 284h348q-8 68 -50 113t-114 45q-70 0 -117 -37.5t-62 -94.5q-4 -16 -5 -26z" />
    <glyph glyph-name="Ecaron" unicode="&#x11a;" horiz-adv-x="547" 
d="M512 1h-406v755h373v-43h-325v-284h261v-44h-261v-341h358v-43zM442 995l-147 -133h-1l-148 133l26 22l122 -102l122 102z" />
    <glyph glyph-name="ecaron" unicode="&#x11b;" 
d="M455 100l25 -26q-62 -85 -194 -85q-103 0 -170.5 67.5t-67.5 175.5q0 113 64 182t173 69q101 0 154 -67.5t53 -162.5v-9h-398q0 -8 0.5 -19t0.5 -12q6 -88 62.5 -136t137.5 -48q57 0 97.5 21.5t62.5 49.5zM97 284h348q-8 68 -50 113t-114 45q-70 0 -117 -37.5t-62 -94.5
q-4 -16 -5 -26zM420 709l-147 -133h-1l-148 133l26 22l122 -102l122 102z" />
    <glyph glyph-name="Gcircumflex" unicode="&#x11c;" horiz-adv-x="831" 
d="M741 299h-214v43h263q-1 -87 -30 -156t-78.5 -111.5t-110.5 -64.5t-129 -22q-159 0 -273 114.5t-114 273.5q0 166 112.5 280t283.5 114q48 0 94 -11t76.5 -25.5t56.5 -31.5t36.5 -26.5t13.5 -13.5l-30 -35q-3 4 -13.5 13t-33.5 24t-50.5 28t-67 23t-80.5 10
q-158 0 -253 -99t-95 -251q0 -134 96.5 -239t241.5 -105q118 0 202.5 70.5t95.5 197.5zM584 843l-149 69l-153 -69l-15 23l168 98h1l167 -99z" />
    <glyph glyph-name="gcircumflex" unicode="&#x11d;" horiz-adv-x="574" 
d="M453 -26v100q-31 -39 -78.5 -62t-97.5 -23q-91 0 -160 66t-69 178q0 117 75.5 183.5t180.5 66.5q65 0 116.5 -20.5t76.5 -44.5v-445q0 -123 -63 -177.5t-154 -54.5q-98 0 -182 54l23 36q72 -48 163 -48q169 0 169 191zM453 129v270q-63 43 -151 43q-86 0 -147 -55
t-61 -154q0 -36 11.5 -71t34.5 -65t62 -48.5t88 -18.5q43 0 91 29t72 70zM436 608l-26 -22l-122 102l-122 -102l-26 22l148 133h1z" />
    <glyph glyph-name="Gbreve" unicode="&#x11e;" horiz-adv-x="831" 
d="M741 299h-214v43h263q-1 -87 -30 -156t-78.5 -111.5t-110.5 -64.5t-129 -22q-159 0 -273 114.5t-114 273.5q0 166 112.5 280t283.5 114q48 0 94 -11t76.5 -25.5t56.5 -31.5t36.5 -26.5t13.5 -13.5l-30 -35q-3 4 -13.5 13t-33.5 24t-50.5 28t-67 23t-80.5 10
q-158 0 -253 -99t-95 -251q0 -134 96.5 -239t241.5 -105q118 0 202.5 70.5t95.5 197.5zM542 985h43q-3 -58 -45.5 -105t-119.5 -47q-62 0 -105.5 40t-48.5 112h45q0 -11 3.5 -26t13 -36.5t33.5 -36t58 -14.5q33 0 57.5 11t36.5 25.5t19 33t8.5 28t1.5 15.5z" />
    <glyph glyph-name="gbreve" unicode="&#x11f;" horiz-adv-x="574" 
d="M453 -26v100q-31 -39 -78.5 -62t-97.5 -23q-91 0 -160 66t-69 178q0 117 75.5 183.5t180.5 66.5q65 0 116.5 -20.5t76.5 -44.5v-445q0 -123 -63 -177.5t-154 -54.5q-98 0 -182 54l23 36q72 -48 163 -48q169 0 169 191zM453 129v270q-63 43 -151 43q-86 0 -147 -55
t-61 -154q0 -36 11.5 -71t34.5 -65t62 -48.5t88 -18.5q43 0 91 29t72 70zM405 729h43q-3 -58 -45.5 -105t-119.5 -47q-62 0 -105.5 40t-48.5 112h45q0 -11 3.5 -26t13 -36.5t33.5 -36t58 -14.5q33 0 57.5 11t36.5 25.5t19 33t8.5 28t1.5 15.5z" />
    <glyph glyph-name="Gdotaccent" unicode="&#x120;" horiz-adv-x="831" 
d="M741 299h-214v43h263q-1 -87 -30 -156t-78.5 -111.5t-110.5 -64.5t-129 -22q-159 0 -273 114.5t-114 273.5q0 166 112.5 280t283.5 114q48 0 94 -11t76.5 -25.5t56.5 -31.5t36.5 -26.5t13.5 -13.5l-30 -35q-3 4 -13.5 13t-33.5 24t-50.5 28t-67 23t-80.5 10
q-158 0 -253 -99t-95 -251q0 -134 96.5 -239t241.5 -105q118 0 202.5 70.5t95.5 197.5zM472 879q0 -15 -11.5 -26t-27.5 -11q-15 0 -26 11t-11 26q0 16 11 27.5t26 11.5q17 0 28 -11t11 -28z" />
    <glyph glyph-name="gdotaccent" unicode="&#x121;" horiz-adv-x="574" 
d="M453 -26v100q-31 -39 -78.5 -62t-97.5 -23q-91 0 -160 66t-69 178q0 117 75.5 183.5t180.5 66.5q65 0 116.5 -20.5t76.5 -44.5v-445q0 -123 -63 -177.5t-154 -54.5q-98 0 -182 54l23 36q72 -48 163 -48q169 0 169 191zM453 129v270q-63 43 -151 43q-86 0 -147 -55
t-61 -154q0 -36 11.5 -71t34.5 -65t62 -48.5t88 -18.5q43 0 91 29t72 70zM326 630q0 -15 -11.5 -26t-27.5 -11q-15 0 -26 11t-11 26q0 16 11 27.5t26 11.5q17 0 28 -11.5t11 -27.5z" />
    <glyph glyph-name="Gcommaaccent" unicode="&#x122;" horiz-adv-x="831" 
d="M741 299h-214v43h263q-1 -87 -30 -156t-78.5 -111.5t-110.5 -64.5t-129 -22q-159 0 -273 114.5t-114 273.5q0 166 112.5 280t283.5 114q48 0 94 -11t76.5 -25.5t56.5 -31.5t36.5 -26.5t13.5 -13.5l-30 -35q-3 4 -13.5 13t-33.5 24t-50.5 28t-67 23t-80.5 10
q-158 0 -253 -99t-95 -251q0 -134 96.5 -239t241.5 -105q118 0 202.5 70.5t95.5 197.5zM410 -232h-51l77 178h56z" />
    <glyph glyph-name="gcommaaccent" unicode="&#x123;" horiz-adv-x="574" 
d="M312 603h-51l72 182h42zM453 -26v100q-31 -39 -78.5 -62t-97.5 -23q-91 0 -160 66t-69 178q0 117 75.5 183.5t180.5 66.5q65 0 116.5 -20.5t76.5 -44.5v-445q0 -123 -63 -177.5t-154 -54.5q-98 0 -182 54l23 36q72 -48 163 -48q169 0 169 191zM453 129v270
q-63 43 -151 43q-86 0 -147 -55t-61 -154q0 -36 11.5 -71t34.5 -65t62 -48.5t88 -18.5q43 0 91 29t72 70z" />
    <glyph glyph-name="Hcircumflex" unicode="&#x124;" horiz-adv-x="749" 
d="M643 0h-48v363h-441v-363h-48v757h48v-350h441v350h48v-757zM530 808l-149 69l-153 -69l-15 23l168 98h1l167 -99z" />
    <glyph glyph-name="hcircumflex" unicode="&#x125;" horiz-adv-x="538" 
d="M463 0h-44v288q0 81 -33 116t-108 35q-50 0 -90.5 -20.5t-64.5 -45.5v-373h-44v820h44v-400q71 63 162 63q178 0 178 -177v-306zM249 882l-26 -22l-122 102l-121 -102l-26 22l147 133h1z" />
    <glyph glyph-name="Hbar" unicode="&#x126;" horiz-adv-x="749" 
d="M643 0h-48v363h-441v-363h-48v579h-70v41h70v137h48v-137h441v137h48v-137h70v-41h-70v-579zM595 407v172h-441v-172h441z" />
    <glyph glyph-name="hbar" unicode="&#x127;" horiz-adv-x="538" 
d="M463 0h-44v288q0 81 -33 116t-108 35q-50 0 -90.5 -20.5t-64.5 -45.5v-373h-44v650h-77l5 41h72v129h44v-129h179l-5 -41h-174v-230q71 63 162 63q178 0 178 -177v-306z" />
    <glyph glyph-name="Itilde" unicode="&#x128;" horiz-adv-x="260" 
d="M281 934l18 -30q-15 -19 -46 -40t-59 -21q-19 0 -61 25t-65 25q-35 0 -84 -46l-19 27q18 21 49 41.5t58 20.5q24 0 66 -25.5t59 -25.5q39 0 84 49zM154 0h-48v757h48v-757z" />
    <glyph glyph-name="itilde" unicode="&#x129;" horiz-adv-x="210" 
d="M127 0h-44v471h44v-471zM244 665l17 -27q-14 -18 -41 -35.5t-55 -17.5q-18 0 -57 23.5t-61 23.5q-29 0 -78 -43l-18 24q17 20 46 39t54 19q22 0 61.5 -24t55.5 -24q38 0 76 42z" />
    <glyph glyph-name="Imacron" unicode="&#x12a;" horiz-adv-x="260" 
d="M154 0h-48v757h48v-757zM305 842h-348v41h348v-41z" />
    <glyph glyph-name="imacron" unicode="&#x12b;" horiz-adv-x="210" 
d="M127 0h-44v471h44v-471zM280 596h-348v41h348v-41z" />
    <glyph glyph-name="Ibreve" unicode="&#x12c;" horiz-adv-x="260" 
d="M154 0h-48v757h48v-757zM247 985h43q-3 -58 -45.5 -105t-119.5 -47q-61 0 -104.5 40t-48.5 112h44q0 -11 3.5 -26t13 -36.5t33.5 -36t58 -14.5q33 0 57.5 11t36.5 25.5t19 33t8.5 28t1.5 15.5z" />
    <glyph glyph-name="ibreve" unicode="&#x12d;" horiz-adv-x="210" 
d="M127 0h-44v471h44v-471zM222 729h43q-3 -58 -45.5 -105t-119.5 -47q-61 0 -104.5 40t-48.5 112h45q0 -11 3.5 -26t13 -36.5t33 -36t57.5 -14.5q33 0 57.5 11t36.5 25.5t19 33t8.5 28t1.5 15.5z" />
    <glyph glyph-name="Iogonek" unicode="&#x12e;" horiz-adv-x="260" 
d="M189 -171v-39q-27 -15 -66 -15q-46 0 -80 23t-34 66q0 79 97 136v757h48v-759q-46 -18 -75 -49t-29 -70q0 -30 22 -47t56 -17q26 0 61 14z" />
    <glyph glyph-name="iogonek" unicode="&#x12f;" horiz-adv-x="210" 
d="M163 -171v-39q-27 -15 -66 -15q-46 0 -79.5 23t-33.5 66q0 81 99 136v471h44v-475q-45 -16 -74 -47t-29 -70q0 -30 22 -47t56 -17q26 0 61 14zM145 610q0 -16 -11.5 -27.5t-28.5 -11.5q-16 0 -28 11.5t-12 27.5q0 18 11.5 29.5t28.5 11.5t28.5 -11.5t11.5 -29.5z" />
    <glyph glyph-name="Idotaccent" unicode="&#x130;" horiz-adv-x="260" 
d="M154 0h-48v757h48v-757zM168 916q0 -15 -11.5 -26t-27.5 -11q-15 0 -26 11t-11 26q0 16 11 27.5t26 11.5q17 0 28 -11.5t11 -27.5z" />
    <glyph glyph-name="dotlessi" unicode="&#x131;" horiz-adv-x="210" 
d="M127 0h-44v471h44v-471z" />
    <glyph glyph-name="IJ" unicode="&#x132;" horiz-adv-x="519" 
d="M154 0h-48v757h48v-757zM234 -264l-19 44q63 27 93 56t43.5 81.5t13.5 150.5v689h48v-694q0 -107 -17.5 -167.5t-53.5 -94t-108 -65.5z" />
    <glyph glyph-name="ij" unicode="&#x133;" horiz-adv-x="420" 
d="M127 0h-44v471h44v-471zM145 610q0 -16 -11.5 -27.5t-28.5 -11.5q-16 0 -28 11.5t-12 27.5q0 18 11.5 29.5t28.5 11.5t28.5 -11.5t11.5 -29.5zM218 -267l-19 38q15 7 25.5 12.5t20.5 13.5t16 12.5t11.5 17t8.5 18.5t6 25t3.5 29t1.5 37.5t1 45v55.5v434h44v-428
q0 -64 -0.5 -92.5t-4 -66.5t-10.5 -54t-21 -37t-33.5 -33.5t-49.5 -26.5zM356 610q0 -16 -11.5 -27.5t-28.5 -11.5q-16 0 -28 11.5t-12 27.5q0 18 11.5 29.5t28.5 11.5t28.5 -11.5t11.5 -29.5z" />
    <glyph glyph-name="Jcircumflex" unicode="&#x134;" horiz-adv-x="260" 
d="M-24 -264l-19 44q91 39 120 93t29 195v689h48v-694q0 -107 -17.5 -167.5t-53 -94t-107.5 -65.5zM278 842l-149 69l-152 -69l-15 23l167 98h1l167 -99z" />
    <glyph glyph-name="jcircumflex" unicode="&#x135;" horiz-adv-x="210" 
d="M8 -267l-18 38q19 9 31 15.5t23 17.5t16.5 17.5t10.5 25t7 29.5t3.5 42t1.5 51.5v67.5v434h44v-428q0 -64 -0.5 -92.5t-4 -66.5t-10.5 -54t-21 -37t-33.5 -33.5t-49.5 -26.5zM253 608l-26 -22l-122 102l-121 -102l-26 22l147 133h1z" />
    <glyph glyph-name="Kcommaaccent" unicode="&#x136;" horiz-adv-x="616" 
d="M307 -232h-51l77 178h56zM630 0h-80l-396 355v-355h-48v757h48v-358l354 358h70l-383 -379z" />
    <glyph glyph-name="kcommaaccent" unicode="&#x137;" horiz-adv-x="441" 
d="M445 0h-71l-251 249v-249h-44v820h44v-551l201 202h61l-213 -208zM201 -232h-51l77 178h56z" />
    <glyph glyph-name="kgreenlandic" unicode="&#x138;" horiz-adv-x="442" 
d="M445 0h-61l-261 249v-249h-44v471h44v-202l201 202h56l-213 -208z" />
    <glyph glyph-name="Lacute" unicode="&#x139;" horiz-adv-x="505" 
d="M279 887l-238 -43l-12 31l227 61zM480 1h-374v756h48v-713h326v-43z" />
    <glyph glyph-name="lacute" unicode="&#x13a;" horiz-adv-x="218" 
d="M201 1009l-139 -138l-20 17l118 154zM131 0h-44v820h44v-820z" />
    <glyph glyph-name="Lcommaaccent" unicode="&#x13b;" horiz-adv-x="506" 
d="M480 1h-374v756h48v-713h326v-43zM256 -232h-51l77 178h56z" />
    <glyph glyph-name="lcommaaccent" unicode="&#x13c;" horiz-adv-x="218" 
d="M131 0h-44v820h44v-820zM84 -232h-51l77 178h56z" />
    <glyph glyph-name="Lcaron" unicode="&#x13d;" horiz-adv-x="507" 
d="M391 615h-42l63 182h51zM480 1h-374v756h48v-713h326v-43z" />
    <glyph glyph-name="lcaron" unicode="&#x13e;" horiz-adv-x="230" 
d="M243 575h-42l63 182h51zM131 0h-44v820h44v-820z" />
    <glyph glyph-name="Ldot" unicode="&#x13f;" horiz-adv-x="530" 
d="M436 339q-18 0 -31 13t-13 31t13 31t31 13t31 -13t13 -31t-13 -31t-31 -13zM480 1h-374v756h48v-713h326v-43z" />
    <glyph glyph-name="ldot" unicode="&#x140;" horiz-adv-x="330" 
d="M274 339q-18 0 -31 13t-13 31t13 31t31 13t31 -13t13 -31t-13 -31t-31 -13zM131 0h-44v820h44v-820z" />
    <glyph glyph-name="Lslash" unicode="&#x141;" horiz-adv-x="506" 
d="M481 1h-374v248l-78 -51v47l78 51v461h48v-429l147 96v-47l-147 -96v-237h326v-43z" />
    <glyph glyph-name="lslash" unicode="&#x142;" horiz-adv-x="238" 
d="M139 0h-44v254l-70 -52v47l70 52v519h44v-487l79 60v-47l-79 -60v-286z" />
    <glyph glyph-name="Nacute" unicode="&#x143;" horiz-adv-x="847" 
d="M742 -24l-588 671v-647h-48v775l588 -669v651h48v-781zM579 884l-238 -43l-12 31l227 61z" />
    <glyph glyph-name="nacute" unicode="&#x144;" horiz-adv-x="538" 
d="M463 0h-44v288q0 81 -33 116t-108 35q-50 0 -90.5 -20.5t-64.5 -45.5v-373h-44v471h44v-51q71 63 162 63q178 0 178 -177v-306zM369 721l-139 -138l-20 17l118 154z" />
    <glyph glyph-name="Ncommaaccent" unicode="&#x145;" horiz-adv-x="847" 
d="M742 -24l-588 671v-647h-48v775l588 -669v651h48v-781zM408 -232h-51l77 178h56z" />
    <glyph glyph-name="ncommaaccent" unicode="&#x146;" horiz-adv-x="538" 
d="M463 0h-44v288q0 81 -33 116t-108 35q-50 0 -90.5 -20.5t-64.5 -45.5v-373h-44v471h44v-51q71 63 162 63q178 0 178 -177v-306zM254 -232h-51l77 178h56z" />
    <glyph glyph-name="Ncaron" unicode="&#x147;" horiz-adv-x="847" 
d="M608 906l-168 -97l-168 98l15 23l157 -70l145 68zM742 -24l-588 671v-647h-48v775l588 -669v651h48v-781z" />
    <glyph glyph-name="ncaron" unicode="&#x148;" horiz-adv-x="538" 
d="M463 0h-44v288q0 81 -33 116t-108 35q-50 0 -90.5 -20.5t-64.5 -45.5v-373h-44v471h44v-51q71 63 162 63q178 0 178 -177v-306zM413 709l-147 -133h-1l-148 133l26 22l122 -102l122 102z" />
    <glyph glyph-name="napostrophe" unicode="&#x149;" horiz-adv-x="666" 
d="M80 471h-42l63 182h51zM591 0h-44v288q0 81 -33 116t-108 35q-50 0 -90.5 -20.5t-64.5 -45.5v-373h-44v471h44v-51q71 63 162 63q178 0 178 -177v-306z" />
    <glyph glyph-name="Eng" unicode="&#x14a;" horiz-adv-x="848" 
d="M563 -264l-19 44q86 37 116 85.5t33 165.5l-539 616v-647h-48v775l588 -669v651h48v-694q0 -107 -17.5 -167.5t-53.5 -94t-108 -65.5z" />
    <glyph glyph-name="eng" unicode="&#x14b;" horiz-adv-x="538" 
d="M344 -267l-19 38q15 7 25.5 12.5t20.5 13.5t16 12.5t11.5 17t8.5 18.5t6 25t3.5 29t1.5 37.5t1 45v55.5v251q0 81 -33 116t-108 35q-50 0 -90.5 -20.5t-64.5 -45.5v-373h-44v471h44v-51q71 63 162 63q178 0 178 -177v-263q0 -64 -0.5 -92.5t-4 -66.5t-10.5 -54t-21 -37
t-33.5 -33.5t-49.5 -26.5z" />
    <glyph glyph-name="Omacron" unicode="&#x14c;" horiz-adv-x="903" 
d="M848 375q0 -161 -116 -274t-279 -113q-167 0 -282.5 113.5t-115.5 276.5q0 164 115.5 278t282.5 114t281 -112.5t114 -282.5zM798 376q0 151 -100.5 250t-244.5 99q-147 0 -247.5 -98t-100.5 -245q0 -142 100 -246.5t241 -104.5q150 0 251 99t101 246zM626 852h-349v41
h349v-41z" />
    <glyph glyph-name="omacron" unicode="&#x14d;" horiz-adv-x="593" 
d="M546 235q0 -104 -72 -175t-177 -71t-177.5 70.5t-72.5 175.5t72.5 176.5t177.5 71.5t177 -72t72 -176zM500 235q0 88 -60.5 147t-144.5 59q-90 0 -146.5 -59t-56.5 -150q0 -86 60.5 -144t142.5 -58q91 0 148 57t57 148zM471 596h-349v41h349v-41z" />
    <glyph glyph-name="Obreve" unicode="&#x14e;" horiz-adv-x="903" 
d="M848 375q0 -161 -116 -274t-279 -113q-167 0 -282.5 113.5t-115.5 276.5q0 164 115.5 278t282.5 114t281 -112.5t114 -282.5zM798 376q0 151 -100.5 250t-244.5 99q-147 0 -247.5 -98t-100.5 -245q0 -142 100 -246.5t241 -104.5q150 0 251 99t101 246zM568 985h43
q-3 -58 -45.5 -105t-119.5 -47q-62 0 -105.5 40t-48.5 112h45q0 -11 3.5 -26t13 -36.5t33.5 -36t58 -14.5q33 0 57.5 11t36.5 25.5t19 33t8.5 28t1.5 15.5z" />
    <glyph glyph-name="obreve" unicode="&#x14f;" horiz-adv-x="593" 
d="M546 235q0 -104 -72 -175t-177 -71t-177.5 70.5t-72.5 175.5t72.5 176.5t177.5 71.5t177 -72t72 -176zM500 235q0 88 -60.5 147t-144.5 59q-90 0 -146.5 -59t-56.5 -150q0 -86 60.5 -144t142.5 -58q91 0 148 57t57 148zM413 729h43q-3 -58 -45.5 -105t-119.5 -47
q-62 0 -105.5 40t-48.5 112h45q0 -11 3.5 -26t13 -36.5t33.5 -36t58 -14.5q33 0 57.5 11t36.5 25.5t19 33t8.5 28t1.5 15.5z" />
    <glyph glyph-name="Ohungarumlaut" unicode="&#x150;" horiz-adv-x="903" 
d="M848 375q0 -161 -116 -274t-279 -113q-167 0 -282.5 113.5t-115.5 276.5q0 164 115.5 278t282.5 114t281 -112.5t114 -282.5zM798 376q0 151 -100.5 250t-244.5 99q-147 0 -247.5 -98t-100.5 -245q0 -142 100 -246.5t241 -104.5q150 0 251 99t101 246zM517 947l-169 -108
l-20 17l148 124zM654 947l-169 -108l-20 17l148 124z" />
    <glyph glyph-name="ohungarumlaut" unicode="&#x151;" horiz-adv-x="593" 
d="M546 235q0 -104 -72 -175t-177 -71t-177.5 70.5t-72.5 175.5t72.5 176.5t177.5 71.5t177 -72t72 -176zM500 235q0 88 -60.5 147t-144.5 59q-90 0 -146.5 -59t-56.5 -150q0 -86 60.5 -144t142.5 -58q91 0 148 57t57 148zM363 691l-169 -108l-20 17l148 124zM500 691
l-169 -108l-20 17l148 124z" />
    <glyph glyph-name="OE" unicode="&#x152;" horiz-adv-x="1239" 
d="M1204 1h-406v199q-45 -100 -139.5 -156t-205.5 -56q-167 0 -282.5 113.5t-115.5 276.5q0 164 115.5 278t282.5 114q113 0 205 -56t140 -160v202h373v-43h-325v-284h261v-44h-261v-341h358v-43zM798 376q0 151 -100.5 250t-244.5 99q-147 0 -247.5 -98t-100.5 -245
q0 -142 100 -246.5t241 -104.5q150 0 251 99t101 246z" />
    <glyph glyph-name="oe" unicode="&#x153;" horiz-adv-x="989" 
d="M907 100l25 -26q-62 -85 -194 -85q-74 0 -132 36t-85 100q-30 -62 -90 -99t-134 -37q-105 0 -177.5 70.5t-72.5 175.5t72.5 176.5t177.5 71.5q74 0 133.5 -37.5t90.5 -100.5q26 65 82 101.5t134 36.5q101 0 154 -67.5t53 -162.5v-9h-398v-21l1 -10q6 -88 62.5 -136
t137.5 -48q57 0 97.5 21.5t62.5 49.5zM295 30q91 0 148 57t57 156q0 84 -61.5 141t-143.5 57q-90 0 -146.5 -59t-56.5 -150q0 -86 60.5 -144t142.5 -58zM549 284h348q-8 68 -50 113t-114 45q-71 0 -123 -42.5t-61 -115.5z" />
    <glyph glyph-name="Racute" unicode="&#x154;" horiz-adv-x="579" 
d="M406 886l-238 -43l-12 31l227 61zM586 0h-71l-318 309h-43v-309h-48v757h145q46 0 88.5 -11t81 -34.5t61.5 -67t23 -101.5q0 -100 -67 -164t-183 -69zM154 353h60q116 0 179 49t63 140q0 82 -57 126.5t-148 44.5h-97v-360z" />
    <glyph glyph-name="racute" unicode="&#x155;" horiz-adv-x="310" 
d="M123 0h-44v471h44v-65q3 20 33.5 48.5t66.5 28.5q40 0 77 -21l-26 -42q-27 18 -52 18q-37 0 -65.5 -31.5t-33.5 -63.5v-343zM276 721l-139 -138l-20 17l118 154z" />
    <glyph glyph-name="Rcommaaccent" unicode="&#x156;" horiz-adv-x="577" 
d="M586 0h-71l-318 309h-43v-309h-48v757h145q46 0 88.5 -11t81 -34.5t61.5 -67t23 -101.5q0 -100 -67 -164t-183 -69zM154 353h60q116 0 179 49t63 140q0 82 -57 126.5t-148 44.5h-97v-360zM290 -232h-51l77 178h56z" />
    <glyph glyph-name="rcommaaccent" unicode="&#x157;" horiz-adv-x="311" 
d="M123 0h-44v471h44v-65q3 20 33.5 48.5t66.5 28.5q40 0 77 -21l-26 -42q-27 18 -52 18q-37 0 -65.5 -31.5t-33.5 -63.5v-343zM108 -232h-51l77 178h56z" />
    <glyph glyph-name="Rcaron" unicode="&#x158;" horiz-adv-x="579" 
d="M442 940l-168 -97l-168 98l15 23l157 -70l145 68zM586 0h-71l-318 309h-43v-309h-48v757h145q46 0 88.5 -11t81 -34.5t61.5 -67t23 -101.5q0 -100 -67 -164t-183 -69zM154 353h60q116 0 179 49t63 140q0 82 -57 126.5t-148 44.5h-97v-360z" />
    <glyph glyph-name="rcaron" unicode="&#x159;" horiz-adv-x="310" 
d="M123 0h-44v471h44v-65q3 20 33.5 48.5t66.5 28.5q40 0 77 -21l-26 -42q-27 18 -52 18q-37 0 -65.5 -31.5t-33.5 -63.5v-343zM322 709l-147 -133h-1l-148 133l26 22l122 -102l122 102z" />
    <glyph glyph-name="Sacute" unicode="&#x15a;" horiz-adv-x="533" 
d="M409 886l-238 -43l-12 31l227 61zM37 84l31 35q67 -87 194 -87q73 0 121.5 42.5t48.5 112.5q0 46 -19.5 81t-50.5 57.5t-69 42t-76 38.5t-69 41.5t-50.5 57.5t-19.5 80q0 87 59.5 137t144.5 50q59 0 105.5 -22t71.5 -49l-30 -33q-60 60 -147 60q-64 0 -109 -35.5
t-45 -100.5q0 -39 19.5 -69t51 -49.5t69.5 -37.5t76 -38.5t69.5 -46.5t51 -67.5t19.5 -95.5q0 -79 -62 -139.5t-164 -60.5q-72 0 -134.5 30t-86.5 66z" />
    <glyph glyph-name="sacute" unicode="&#x15b;" horiz-adv-x="393" 
d="M29 60l29 30q53 -63 131 -63q51 0 82.5 27.5t31.5 77.5q0 31 -24 53.5t-58.5 37.5t-69.5 30.5t-59 43t-24 65.5q0 53 38 87.5t100 34.5q38 0 74.5 -16.5t55.5 -39.5l-23 -33q-14 16 -44.5 33t-65.5 17q-48 0 -70 -24t-22 -54q0 -28 24.5 -49.5t59.5 -36.5t70 -32.5
t59.5 -47t24.5 -69.5q0 -64 -46 -104t-115 -40q-55 0 -96 21.5t-63 50.5zM295 721l-139 -138l-20 17l118 154z" />
    <glyph glyph-name="Scircumflex" unicode="&#x15c;" horiz-adv-x="533" 
d="M423 845l-149 62l-153 -69l-15 23l168 98h1l167 -92zM37 84l31 35q67 -87 194 -87q73 0 121.5 42.5t48.5 112.5q0 46 -19.5 81t-50.5 57.5t-69 42t-76 38.5t-69 41.5t-50.5 57.5t-19.5 80q0 87 59.5 137t144.5 50q59 0 105.5 -22t71.5 -49l-30 -33q-60 60 -147 60
q-64 0 -109 -35.5t-45 -100.5q0 -39 19.5 -69t51 -49.5t69.5 -37.5t76 -38.5t69.5 -46.5t51 -67.5t19.5 -95.5q0 -79 -62 -139.5t-164 -60.5q-72 0 -134.5 30t-86.5 66z" />
    <glyph glyph-name="scircumflex" unicode="&#x15d;" horiz-adv-x="393" 
d="M29 60l29 30q53 -63 131 -63q51 0 82.5 27.5t31.5 77.5q0 31 -24 53.5t-58.5 37.5t-69.5 30.5t-59 43t-24 65.5q0 53 38 87.5t100 34.5q38 0 74.5 -16.5t55.5 -39.5l-23 -33q-14 16 -44.5 33t-65.5 17q-48 0 -70 -24t-22 -54q0 -28 24.5 -49.5t59.5 -36.5t70 -32.5
t59.5 -47t24.5 -69.5q0 -64 -46 -104t-115 -40q-55 0 -96 21.5t-63 50.5zM348 608l-26 -22l-122 102l-122 -102l-26 22l148 133h1z" />
    <glyph glyph-name="Scedilla" unicode="&#x15e;" horiz-adv-x="533" 
d="M37 84l31 35q67 -87 194 -87q73 0 121.5 42.5t48.5 112.5q0 46 -19.5 81t-50.5 57.5t-69 42t-76 38.5t-69 41.5t-50.5 57.5t-19.5 80q0 87 59.5 137t144.5 50q59 0 105.5 -22t71.5 -49l-30 -33q-60 60 -147 60q-64 0 -109 -35.5t-45 -100.5q0 -39 19.5 -69t51 -49.5
t69.5 -37.5t76 -38.5t69.5 -46.5t51 -67.5t19.5 -95.5q0 -79 -62 -139.5t-164 -60.5q-72 0 -134.5 30t-86.5 66zM228 -205h-42l68 157h51z" />
    <glyph glyph-name="scedilla" unicode="&#x15f;" horiz-adv-x="393" 
d="M29 60l29 30q53 -63 131 -63q51 0 82.5 27.5t31.5 77.5q0 31 -24 53.5t-58.5 37.5t-69.5 30.5t-59 43t-24 65.5q0 53 38 87.5t100 34.5q38 0 74.5 -16.5t55.5 -39.5l-23 -33q-14 16 -44.5 33t-65.5 17q-48 0 -70 -24t-22 -54q0 -28 24.5 -49.5t59.5 -36.5t70 -32.5
t59.5 -47t24.5 -69.5q0 -64 -46 -104t-115 -40q-55 0 -96 21.5t-63 50.5zM167 -205h-42l68 157h51z" />
    <glyph glyph-name="Scaron" unicode="&#x160;" horiz-adv-x="533" 
d="M449 916l-168 -100l-168 98l15 23l157 -70l145 71zM37 84l31 35q67 -87 194 -87q73 0 121.5 42.5t48.5 112.5q0 46 -19.5 81t-50.5 57.5t-69 42t-76 38.5t-69 41.5t-50.5 57.5t-19.5 80q0 87 59.5 137t144.5 50q59 0 105.5 -22t71.5 -49l-30 -33q-60 60 -147 60
q-64 0 -109 -35.5t-45 -100.5q0 -39 19.5 -69t51 -49.5t69.5 -37.5t76 -38.5t69.5 -46.5t51 -67.5t19.5 -95.5q0 -79 -62 -139.5t-164 -60.5q-72 0 -134.5 30t-86.5 66z" />
    <glyph glyph-name="scaron" unicode="&#x161;" horiz-adv-x="393" 
d="M29 60l29 30q53 -63 131 -63q51 0 82.5 27.5t31.5 77.5q0 31 -24 53.5t-58.5 37.5t-69.5 30.5t-59 43t-24 65.5q0 53 38 87.5t100 34.5q38 0 74.5 -16.5t55.5 -39.5l-23 -33q-14 16 -44.5 33t-65.5 17q-48 0 -70 -24t-22 -54q0 -28 24.5 -49.5t59.5 -36.5t70 -32.5
t59.5 -47t24.5 -69.5q0 -64 -46 -104t-115 -40q-55 0 -96 21.5t-63 50.5zM350 709l-147 -133h-1l-148 133l26 22l122 -102l122 102z" />
    <glyph glyph-name="Tcommaaccent" unicode="&#x162;" horiz-adv-x="530" 
d="M289 0h-48v713h-219v43h486v-43h-219v-713zM249 -232h-51l77 178h56z" />
    <glyph glyph-name="tcommaaccent" unicode="&#x163;" horiz-adv-x="278" 
d="M113 -232h-51l77 178h56zM151 0h-44v429h-87v41h87v171h44v-171h114v-41h-114v-429z" />
    <glyph glyph-name="Tcaron" unicode="&#x164;" horiz-adv-x="530" 
d="M432 940l-168 -97l-168 98l15 23l157 -70l145 68zM289 0h-48v713h-219v43h486v-43h-219v-713z" />
    <glyph glyph-name="tcaron" unicode="&#x165;" horiz-adv-x="280" 
d="M261 575h-42l63 182h51zM152 0h-44v429h-87v41h87v171h44v-171h114v-41h-114v-429z" />
    <glyph glyph-name="Tbar" unicode="&#x166;" horiz-adv-x="530" 
d="M289 0h-48v452h-126v41h126v220h-219v43h486v-43h-219v-220h126v-41h-126v-452z" />
    <glyph glyph-name="tbar" unicode="&#x167;" horiz-adv-x="281" 
d="M152 0h-44v279h-63v41h63v109h-87v41h87v171h44v-171h114v-41h-114v-109h91v-41h-91v-279z" />
    <glyph glyph-name="Utilde" unicode="&#x168;" horiz-adv-x="740" 
d="M529 934l18 -30q-15 -19 -46 -40t-59 -21q-19 0 -61 25t-65 25q-33 0 -85 -46l-19 27q18 21 49.5 41.5t58.5 20.5q24 0 66 -25.5t59 -25.5q39 0 84 49zM590 95v662h48v-676q-35 -42 -104.5 -67.5t-165.5 -25.5q-127 0 -198 72t-71 212v485h48v-472q0 -136 59.5 -195
t184.5 -59q56 0 112 16t87 48z" />
    <glyph glyph-name="utilde" unicode="&#x169;" horiz-adv-x="538" 
d="M417 73v398h44v-417q-68 -65 -192 -65q-89 0 -141.5 46t-52.5 133v303h44v-293q0 -73 39.5 -111t109.5 -38q87 0 149 44zM429 665l17 -27q-14 -18 -41 -35.5t-55 -17.5q-18 0 -57 23.5t-61 23.5q-30 0 -79 -43l-18 24q17 19 46.5 38.5t54.5 19.5q22 0 61.5 -24t55.5 -24
q37 0 76 42z" />
    <glyph glyph-name="Umacron" unicode="&#x16a;" horiz-adv-x="740" 
d="M548 842h-349v41h349v-41zM590 95v662h48v-676q-35 -42 -104.5 -67.5t-165.5 -25.5q-127 0 -198 72t-71 212v485h48v-472q0 -136 59.5 -195t184.5 -59q56 0 112 16t87 48z" />
    <glyph glyph-name="umacron" unicode="&#x16b;" horiz-adv-x="538" 
d="M417 73v398h44v-417q-68 -65 -192 -65q-89 0 -141.5 46t-52.5 133v303h44v-293q0 -73 39.5 -111t109.5 -38q87 0 149 44zM473 596h-349v41h349v-41z" />
    <glyph glyph-name="Ubreve" unicode="&#x16c;" horiz-adv-x="740" 
d="M496 972h43q-3 -58 -45.5 -105t-119.5 -47q-62 0 -105.5 40t-48.5 112h45q0 -11 3.5 -26t13 -36.5t33.5 -36t58 -14.5q33 0 57.5 11t36.5 25.5t19 33t8.5 28t1.5 15.5zM590 95v662h48v-676q-35 -42 -104.5 -67.5t-165.5 -25.5q-127 0 -198 72t-71 212v485h48v-472
q0 -136 59.5 -195t184.5 -59q56 0 112 16t87 48z" />
    <glyph glyph-name="ubreve" unicode="&#x16d;" horiz-adv-x="538" 
d="M417 73v398h44v-417q-68 -65 -192 -65q-89 0 -141.5 46t-52.5 133v303h44v-293q0 -73 39.5 -111t109.5 -38q87 0 149 44zM410 729h43q-3 -58 -45.5 -105t-119.5 -47q-62 0 -105.5 40t-48.5 112h45q0 -11 3.5 -26t13 -36.5t33.5 -36t58 -14.5q33 0 57.5 11t36.5 25.5
t19 33t8.5 28t1.5 15.5z" />
    <glyph glyph-name="Uring" unicode="&#x16e;" horiz-adv-x="740" 
d="M590 95v662h48v-676q-35 -42 -104.5 -67.5t-165.5 -25.5q-127 0 -198 72t-71 212v485h48v-472q0 -136 59.5 -195t184.5 -59q56 0 112 16t87 48zM479 888q0 -43 -30.5 -73t-73.5 -30t-73.5 30t-30.5 73t30.5 73.5t73.5 30.5t73.5 -31t30.5 -73zM446 889q0 29 -20.5 49.5
t-49.5 20.5t-49 -20.5t-20 -49.5q0 -28 20.5 -49t48.5 -21q29 0 49.5 21t20.5 49z" />
    <glyph glyph-name="uring" unicode="&#x16f;" horiz-adv-x="538" 
d="M403 656q0 -43 -30.5 -73t-73.5 -30t-73.5 30t-30.5 73t30.5 73.5t73.5 30.5t73.5 -31t30.5 -73zM370 657q0 29 -20.5 49.5t-49.5 20.5t-49 -20.5t-20 -49.5q0 -28 20.5 -49t48.5 -21q29 0 49.5 21t20.5 49zM417 73v398h44v-417q-68 -65 -192 -65q-89 0 -141.5 46
t-52.5 133v303h44v-293q0 -73 39.5 -111t109.5 -38q87 0 149 44z" />
    <glyph glyph-name="Uhungarumlaut" unicode="&#x170;" horiz-adv-x="740" 
d="M590 95v662h48v-676q-35 -42 -104.5 -67.5t-165.5 -25.5q-127 0 -198 72t-71 212v485h48v-472q0 -136 59.5 -195t184.5 -59q56 0 112 16t87 48zM437 950l-169 -108l-20 17l148 124zM594 950l-169 -108l-20 17l148 124z" />
    <glyph glyph-name="uhungarumlaut" unicode="&#x171;" horiz-adv-x="538" 
d="M417 73v398h44v-417q-68 -65 -192 -65q-89 0 -141.5 46t-52.5 133v303h44v-293q0 -73 39.5 -111t109.5 -38q87 0 149 44zM354 691l-169 -108l-20 17l148 124zM511 691l-169 -108l-20 17l148 124z" />
    <glyph glyph-name="Uogonek" unicode="&#x172;" horiz-adv-x="740" 
d="M524 -169v-39q-27 -15 -66 -15q-46 0 -80 23t-34 66q0 72 85 125q-29 -3 -61 -3q-127 0 -198 72t-71 212v485h48v-472q0 -136 59.5 -195t184.5 -59q56 0 112 16t87 48v662h48v-676q-55 -65 -171 -84q-82 -48 -82 -116q0 -30 22 -47t56 -17q26 0 61 14z" />
    <glyph glyph-name="uogonek" unicode="&#x173;" horiz-adv-x="536" 
d="M415 -170v-39q-27 -15 -66 -15q-46 0 -80 23t-34 66q0 75 90 128q-36 -4 -57 -4q-89 0 -141.5 46t-52.5 133v303h44v-293q0 -73 39.5 -111t109.5 -38q87 0 149 44v398h44v-417q-38 -36 -87 -52q-40 -17 -68.5 -50t-28.5 -72q0 -30 22 -47t56 -17q26 0 61 14z" />
    <glyph glyph-name="Wcircumflex" unicode="&#x174;" horiz-adv-x="991" 
d="M646 849l-149 62l-153 -69l-15 23l168 98h1l167 -92zM737 -27l-241 662l-238 -662l-246 784h56l189 -617q4 -11 6 -34q2 19 7 34l228 638l231 -638q4 -11 6 -34q2 19 6 34l183 617h54z" />
    <glyph glyph-name="wcircumflex" unicode="&#x175;" horiz-adv-x="707" 
d="M503 -21h-1l-149 403l-148 -403h-1l-191 492h49l144 -377l146 402h1l151 -402l144 377h46zM501 608l-26 -22l-122 102l-122 -102l-26 22l148 133h1z" />
    <glyph glyph-name="Ycircumflex" unicode="&#x176;" horiz-adv-x="523" 
d="M413 851l-149 62l-153 -69l-15 23l168 98h1l167 -92zM285 0h-48v328l-239 429h56l204 -365q4 -6 5 -15q1 9 5 15l206 365h54l-243 -429v-328z" />
    <glyph glyph-name="ycircumflex" unicode="&#x177;" horiz-adv-x="466" 
d="M101 -259h-46l146 296l-192 434h49l168 -389l186 389h48zM376 608l-26 -22l-122 102l-122 -102l-26 22l148 133h1z" />
    <glyph glyph-name="Ydieresis" unicode="&#x178;" horiz-adv-x="523" 
d="M483 882q0 -16 -10.5 -26.5t-28.5 -10.5q-15 0 -25.5 11t-10.5 26q0 17 10 28t26 11q18 0 28.5 -11t10.5 -28zM118 882q0 -15 -11.5 -26t-27.5 -11q-15 0 -26 11t-11 26q0 16 11 27.5t26 11.5q17 0 28 -11.5t11 -27.5zM285 0h-48v328l-239 429h56l204 -365q4 -6 5 -15
q1 9 5 15l206 365h54l-243 -429v-328z" />
    <glyph glyph-name="Zacute" unicode="&#x179;" horiz-adv-x="557" 
d="M413 886l-238 -43l-12 31l227 61zM527 1h-523l429 712h-358v43h441l-429 -712h440v-43z" />
    <glyph glyph-name="zacute" unicode="&#x17a;" horiz-adv-x="432" 
d="M392 1h-377l309 428h-264v41h343l-308 -428h297v-41zM332 721l-139 -138l-20 17l118 154z" />
    <glyph glyph-name="Zdotaccent" unicode="&#x17b;" horiz-adv-x="557" 
d="M333 878q0 -15 -11.5 -26t-27.5 -11q-15 0 -26 11t-11 26q0 16 11 27.5t26 11.5q16 0 27.5 -11.5t11.5 -27.5zM527 1h-523l429 712h-358v43h441l-429 -712h440v-43z" />
    <glyph glyph-name="zdotaccent" unicode="&#x17c;" horiz-adv-x="432" 
d="M392 1h-377l309 428h-264v41h343l-308 -428h297v-41zM269 630q0 -15 -11.5 -26t-27.5 -11q-15 0 -26 11t-11 26q0 16 11 27.5t26 11.5q16 0 27.5 -11.5t11.5 -27.5z" />
    <glyph glyph-name="Zcaron" unicode="&#x17d;" horiz-adv-x="557" 
d="M452 916l-168 -100l-168 98l15 23l157 -70l145 71zM527 1h-523l429 712h-358v43h441l-429 -712h440v-43z" />
    <glyph glyph-name="zcaron" unicode="&#x17e;" horiz-adv-x="432" 
d="M392 1h-377l309 428h-264v41h343l-308 -428h297v-41zM370 709l-147 -133h-1l-148 133l26 22l122 -102l122 102z" />
    <glyph glyph-name="longs" unicode="&#x17f;" horiz-adv-x="228" 
d="M149 0h-44v429h-80v41h80v149q0 100 40 149q40 47 109 47q49 0 73 -18l-21 -42q-22 16 -58 16q-49 0 -74 -38t-25 -104v-629z" />
    <glyph glyph-name="florin" unicode="&#x192;" horiz-adv-x="287" 
d="M-94 -262l5 37q16 -4 27 -4q25 0 44 14t31.5 41.5t20 54t14.5 64.5l89 492h-87l7 39h87l15 85q8 46 14 74t16.5 65.5t23 59.5t31 43.5t44 31.5t57.5 10q18 0 33 -5l-6 -41q-1 0 -14 1.5t-18 1.5q-24 0 -42.5 -8t-32.5 -28t-23 -37.5t-17.5 -53.5t-12.5 -58t-12 -69.5
t-12 -71.5h87l-7 -39h-87l-88 -495q-36 -210 -155 -210q-20 0 -32 6z" />
    <glyph glyph-name="uni01C0" unicode="&#x1c0;" horiz-adv-x="232" 
d="M140 0h-48v757h48v-757z" />
    <glyph glyph-name="uni01C1" unicode="&#x1c1;" horiz-adv-x="379" 
d="M140 0h-48v757h48v-757zM287 0h-48v757h48v-757z" />
    <glyph glyph-name="uni01C2" unicode="&#x1c2;" horiz-adv-x="578" 
d="M318 0h-47v282h-218v43h218v141h-218v44h218v247h47v-247h208v-44h-208v-141h208v-43h-208v-282z" />
    <glyph glyph-name="uni01C3" unicode="&#x1c3;" horiz-adv-x="226" 
d="M137 263h-49v494h49v-494zM158 33q0 -18 -13.5 -30.5t-32.5 -12.5q-18 0 -31 12.5t-13 30.5q0 19 13 32.5t31 13.5q21 0 33.5 -13t12.5 -33z" />
    <glyph glyph-name="AEacute" unicode="&#x1fc;" horiz-adv-x="881" 
d="M745 886l-238 -43l-12 31l227 61zM847 1h-407v223h-268l-131 -224h-50l439 756h383v-43h-325v-284h261v-44h-261v-341h359v-43zM440 268v414l-243 -414h243z" />
    <glyph glyph-name="aeacute" unicode="&#x1fd;" horiz-adv-x="871" 
d="M789 100l25 -26q-62 -85 -194 -85q-125 0 -193 102q-24 -40 -77.5 -71t-116.5 -31q-96 0 -146.5 48.5t-50.5 120.5t62.5 113.5t133.5 41.5q51 0 86 -14t73 -42v67q0 52 -38 85t-105 33t-132 -28l-20 35q70 34 150 34q81 0 123.5 -26t57.5 -78q64 104 192 104
q101 0 154 -67.5t53 -162.5v-9h-391v-13q0 -99 55.5 -150.5t138.5 -51.5q57 0 97.5 21.5t62.5 49.5zM407 138q-12 30 -15 72q-68 63 -158 63q-57 0 -104.5 -30t-47.5 -85q0 -62 44.5 -95.5t108.5 -33.5q57 0 114.5 39.5t57.5 69.5zM438 284h342q-8 68 -50.5 113t-114.5 45
q-77 0 -123 -45t-54 -113zM574 721l-139 -138l-20 17l118 154z" />
    <glyph glyph-name="Oslashacute" unicode="&#x1fe;" horiz-adv-x="903" 
d="M573 885l-238 -43l-12 31l227 61zM267 -148l-37 13l62 154q-107 46 -172 143t-65 216q0 164 115.5 278t282.5 114q67 0 133 -22l55 137l37 -16l-55 -135q102 -47 163.5 -142t61.5 -217q0 -161 -116 -274t-279 -113q-60 0 -124 18zM309 61l260 645q-59 19 -116 19
q-147 0 -247.5 -98t-100.5 -245q0 -104 56.5 -191.5t147.5 -129.5zM606 690l-260 -643q44 -16 100 -16q150 0 251 99t101 246q0 106 -52.5 189t-139.5 125z" />
    <glyph glyph-name="oslashacute" unicode="&#x1ff;" horiz-adv-x="593" 
d="M396 721l-139 -138l-20 17l118 154zM148 -145l-34 14l68 145q-62 30 -98.5 89t-36.5 132q0 105 72.5 176.5t177.5 71.5q47 0 94 -18l73 156l34 -17l-73 -156q56 -33 88.5 -89.5t32.5 -123.5q0 -104 -72 -175t-177 -71q-35 0 -81 11zM200 53l173 372q-40 16 -78 16
q-90 0 -146.5 -59t-56.5 -150q0 -58 29.5 -106t78.5 -73zM406 408l-172 -369q30 -9 61 -9q91 0 148 57t57 148q0 55 -25.5 100t-68.5 73z" />
    <glyph glyph-name="dotlessj" unicode="&#x237;" horiz-adv-x="210" 
d="M8 -267l-18 38q19 9 31 15.5t23 17.5t16.5 17.5t10.5 25t7 29.5t3.5 42t1.5 51.5v67.5v434h44v-428q0 -64 -0.5 -92.5t-4 -66.5t-10.5 -54t-21 -37t-33.5 -33.5t-49.5 -26.5z" />
    <glyph glyph-name="schwa" unicode="&#x259;" 
d="M45 218v9h398q0 8 -0.5 19t-0.5 12q-6 88 -62.5 136t-137.5 48q-57 0 -97.5 -21.5t-62.5 -49.5l-25 26q29 39 79.5 62.5t114.5 23.5q103 0 170.5 -68t67.5 -176q0 -113 -64 -181.5t-173 -68.5q-101 0 -154 67.5t-53 161.5zM440 187h-348q8 -68 50 -113t114 -45
q78 0 127 45.5t57 112.5z" />
    <glyph glyph-name="circumflex" unicode="&#x2c6;" horiz-adv-x="445" 
d="M374 608l-26 -22l-122 102l-122 -102l-26 22l148 133h1z" />
    <glyph glyph-name="caron" unicode="&#x2c7;" horiz-adv-x="445" 
d="M369 709l-147 -133h-1l-148 133l26 22l122 -102l122 102z" />
    <glyph glyph-name="breve" unicode="&#x2d8;" horiz-adv-x="409" 
d="M321 729h43q-3 -58 -45.5 -105t-119.5 -47q-62 0 -105.5 40t-48.5 112h45q0 -11 3.5 -26t13 -36.5t33.5 -36t58 -14.5q33 0 57.5 11t36.5 25.5t19 33t8.5 28t1.5 15.5z" />
    <glyph glyph-name="dotaccent" unicode="&#x2d9;" horiz-adv-x="250" 
d="M163 630q0 -15 -11.5 -26t-27.5 -11q-15 0 -26 11t-11 26q0 16 11 27.5t26 11.5q16 0 27.5 -11.5t11.5 -27.5z" />
    <glyph glyph-name="ring" unicode="&#x2da;" horiz-adv-x="384" 
d="M296 695q0 -43 -30.5 -73t-73.5 -30t-73.5 30t-30.5 73t30.5 73.5t73.5 30.5t73.5 -31t30.5 -73zM263 696q0 29 -20.5 49.5t-49.5 20.5t-49 -20.5t-20 -49.5q0 -28 20.5 -49t48.5 -21q29 0 49.5 21t20.5 49z" />
    <glyph glyph-name="ogonek" unicode="&#x2db;" horiz-adv-x="599" 
d="M389 -171v-39q-27 -15 -66 -15q-46 0 -80 23t-34 66q0 83 112 139h30q-41 -17 -71 -51t-30 -73q0 -30 22 -47t56 -17q26 0 61 14z" />
    <glyph glyph-name="tilde" unicode="&#x2dc;" horiz-adv-x="371" 
d="M343 665l17 -27q-14 -18 -41 -35.5t-55 -17.5q-18 0 -57 23.5t-61 23.5q-30 0 -79 -43l-18 24q17 19 46.5 38.5t54.5 19.5q22 0 61.5 -24t55.5 -24q37 0 76 42z" />
    <glyph glyph-name="hungarumlaut" unicode="&#x2dd;" horiz-adv-x="502" 
d="M267 691l-169 -108l-20 17l148 124zM424 691l-169 -108l-20 17l148 124z" />
    <glyph glyph-name="pi" unicode="&#x3c0;" horiz-adv-x="539" 
d="M455 0h-44v430h-283v-430h-44v470h371v-470z" />
    <glyph glyph-name="uni1E02" unicode="&#x1e02;" horiz-adv-x="600" 
d="M291 0h-185v757h139q110 0 172 -42t62 -145q0 -56 -38.5 -103t-89.5 -64q71 -7 132 -59t61 -136q0 -97 -66 -152.5t-187 -55.5zM154 410h61q97 0 156 45.5t59 115.5q0 142 -178 142h-98v-303zM154 44h138q99 0 150.5 44t51.5 119q0 68 -56 113.5t-138 45.5h-146v-322z
M301 879q0 -15 -11.5 -26t-27.5 -11q-15 0 -26 11t-11 26q0 16 11 27.5t26 11.5q16 0 27.5 -11t11.5 -28z" />
    <glyph glyph-name="uni1E03" unicode="&#x1e03;" horiz-adv-x="573" 
d="M76 53v767h44v-413q24 27 74 51.5t106 24.5q111 0 168 -70t57 -175q0 -119 -75 -184t-181 -65q-112 0 -193 64zM120 354v-279q20 -17 64.5 -31.5t84.5 -14.5q90 0 150 55t60 155q0 88 -48.5 145.5t-135.5 57.5q-49 0 -100 -28t-75 -60zM358 630q0 -15 -11.5 -26
t-27.5 -11q-15 0 -26 11t-11 26q0 16 11 27.5t26 11.5q17 0 28 -11.5t11 -27.5z" />
    <glyph glyph-name="uni1E0A" unicode="&#x1e0a;" horiz-adv-x="727" 
d="M271 0h-165v757h155q175 0 291.5 -100t116.5 -279q0 -173 -110.5 -275.5t-287.5 -102.5zM154 44h92q170 0 271.5 86t101.5 251q0 110 -52 186.5t-134 111t-185 34.5h-94v-669zM380 879q0 -15 -11.5 -26t-27.5 -11q-15 0 -26 11t-11 26q0 16 11 27.5t26 11.5q17 0 28 -11
t11 -28z" />
    <glyph glyph-name="uni1E0B" unicode="&#x1e0b;" horiz-adv-x="573" 
d="M453 76v287q-20 35 -66 57t-99 22q-88 0 -141 -56.5t-53 -157.5q0 -96 60 -147.5t150 -51.5q83 0 149 47zM453 423v397h44v-767q-80 -64 -193 -64q-107 0 -181.5 61t-74.5 178q0 116 66.5 185.5t173.5 69.5q103 0 165 -60zM276 630q0 -15 -11.5 -26t-27.5 -11
q-15 0 -26 11t-11 26q0 16 11 27.5t26 11.5q17 0 28 -11.5t11 -27.5z" />
    <glyph glyph-name="uni1E1E" unicode="&#x1e1e;" horiz-adv-x="500" 
d="M154 0h-48v756h366v-43h-318v-284h256v-44h-256v-385zM325 878q0 -15 -11.5 -26t-27.5 -11q-15 0 -26 11t-11 26q0 16 11 27.5t26 11.5q16 0 27.5 -11.5t11.5 -27.5z" />
    <glyph glyph-name="uni1E1F" unicode="&#x1e1f;" horiz-adv-x="285" 
d="M149 0h-44v429h-80v41h80v149q0 100 40 149q40 47 109 47q49 0 73 -18l-21 -42q-22 16 -58 16q-49 0 -74 -38t-25 -104v-159h117v-41h-117v-429zM254 905q0 -16 -11 -27t-27 -11t-27 11t-11 27t11 27t27 11q15 0 26.5 -11t11.5 -27z" />
    <glyph glyph-name="uni1E40" unicode="&#x1e40;" horiz-adv-x="963" 
d="M520 757q0 -15 -11.5 -26t-27.5 -11q-15 0 -26 11t-11 26q0 16 11 27.5t26 11.5q17 0 28 -11t11 -28zM892 0h-49l-55 588l-1 26l-8 -20l-298 -621l-298 621l-8 20q0 -20 -1 -26l-54 -588h-49l76 778l319 -661q14 -27 16 -40q2 13 16 40l317 661z" />
    <glyph glyph-name="uni1E41" unicode="&#x1e41;" horiz-adv-x="818" 
d="M448 630q0 -15 -11.5 -26t-27.5 -11q-15 0 -26 11t-11 26q0 16 11 27.5t26 11.5q17 0 28 -11.5t11 -27.5zM743 0h-44v308q0 68 -28 99.5t-93 31.5q-79 0 -151 -70q6 -24 6 -54v-315h-44v308q0 68 -28 99.5t-93 31.5q-44 0 -83 -21t-62 -45v-373h-44v471h44v-51
q26 23 68 43t84 20q105 0 140 -76q37 34 83.5 55t86.5 21q158 0 158 -168v-315z" />
    <glyph glyph-name="uni1E56" unicode="&#x1e56;" horiz-adv-x="544" 
d="M154 0h-48v757h134q72 0 129.5 -20.5t96.5 -70t39 -123.5q0 -104 -71.5 -169t-209.5 -65h-70v-309zM154 353h72q107 0 168.5 49.5t61.5 139.5q0 82 -56.5 126.5t-149.5 44.5h-96v-360zM315 879q0 -15 -11.5 -26t-27.5 -11q-15 0 -26 11t-11 26q0 16 11 27.5t26 11.5
q16 0 27.5 -11t11.5 -28z" />
    <glyph glyph-name="uni1E57" unicode="&#x1e57;" horiz-adv-x="573" 
d="M121 -254h-44v672q79 65 193 65q106 0 181 -65.5t75 -184.5q0 -102 -62 -173t-168 -71q-51 0 -99 20.5t-76 49.5v-313zM121 399v-280q26 -39 73.5 -64.5t101.5 -25.5q78 0 131 54.5t53 148.5q0 92 -58.5 151t-157.5 59q-40 0 -81.5 -13.5t-61.5 -29.5zM321 630
q0 -15 -11.5 -26t-27.5 -11q-15 0 -26 11t-11 26q0 16 11 27.5t26 11.5q16 0 27.5 -11.5t11.5 -27.5z" />
    <glyph glyph-name="uni1E60" unicode="&#x1e60;" horiz-adv-x="533" 
d="M37 84l31 35q67 -87 194 -87q73 0 121.5 42.5t48.5 112.5q0 46 -19.5 81t-50.5 57.5t-69 42t-76 38.5t-69 41.5t-50.5 57.5t-19.5 80q0 87 59.5 137t144.5 50q59 0 105.5 -22t71.5 -49l-30 -33q-60 60 -147 60q-64 0 -109 -35.5t-45 -100.5q0 -39 19.5 -69t51 -49.5
t69.5 -37.5t76 -38.5t69.5 -46.5t51 -67.5t19.5 -95.5q0 -79 -62 -139.5t-164 -60.5q-72 0 -134.5 30t-86.5 66zM306 879q0 -15 -11.5 -26t-27.5 -11q-15 0 -26 11t-11 26q0 16 11 27.5t26 11.5q17 0 28 -11t11 -28z" />
    <glyph glyph-name="uni1E61" unicode="&#x1e61;" horiz-adv-x="393" 
d="M29 60l29 30q53 -63 131 -63q51 0 82.5 27.5t31.5 77.5q0 31 -24 53.5t-58.5 37.5t-69.5 30.5t-59 43t-24 65.5q0 53 38 87.5t100 34.5q38 0 74.5 -16.5t55.5 -39.5l-23 -33q-14 16 -44.5 33t-65.5 17q-48 0 -70 -24t-22 -54q0 -28 24.5 -49.5t59.5 -36.5t70 -32.5
t59.5 -47t24.5 -69.5q0 -64 -46 -104t-115 -40q-55 0 -96 21.5t-63 50.5zM237 630q0 -15 -11.5 -26t-27.5 -11q-15 0 -26 11t-11 26q0 16 11 27.5t26 11.5q16 0 27.5 -11.5t11.5 -27.5z" />
    <glyph glyph-name="uni1E6A" unicode="&#x1e6a;" horiz-adv-x="530" 
d="M289 0h-48v713h-219v43h486v-43h-219v-713zM303 879q0 -15 -11.5 -26t-27.5 -11q-15 0 -26 11t-11 26q0 16 11 27.5t26 11.5q16 0 27.5 -11t11.5 -28z" />
    <glyph glyph-name="uni1E6B" unicode="&#x1e6b;" horiz-adv-x="280" 
d="M168 794q0 -15 -11.5 -26t-27.5 -11q-15 0 -26 11t-11 26q0 16 11 27.5t26 11.5q17 0 28 -11.5t11 -27.5zM152 0h-44v429h-87v41h87v171h44v-171h114v-41h-114v-429z" />
    <glyph glyph-name="Wgrave" unicode="&#x1e80;" horiz-adv-x="991" 
d="M610 843l-238 43l23 49l227 -61zM737 -27l-241 662l-238 -662l-246 784h56l189 -617q4 -11 6 -34q2 19 7 34l228 638l231 -638q4 -11 6 -34q2 19 6 34l183 617h54z" />
    <glyph glyph-name="wgrave" unicode="&#x1e81;" horiz-adv-x="707" 
d="M429 600l-21 -17l-138 138l41 33zM503 -21h-1l-149 403l-148 -403h-1l-191 492h49l144 -377l146 402h1l151 -402l144 377h46z" />
    <glyph glyph-name="Wacute" unicode="&#x1e82;" horiz-adv-x="991" 
d="M635 885l-238 -43l-12 31l227 61zM737 -27l-241 662l-238 -662l-246 784h56l189 -617q4 -11 6 -34q2 19 7 34l228 638l231 -638q4 -11 6 -34q2 19 6 34l183 617h54z" />
    <glyph glyph-name="wacute" unicode="&#x1e83;" horiz-adv-x="707" 
d="M503 -21h-1l-149 403l-148 -403h-1l-191 492h49l144 -377l146 402h1l151 -402l144 377h46zM435 721l-139 -138l-20 17l118 154z" />
    <glyph glyph-name="Wdieresis" unicode="&#x1e84;" horiz-adv-x="991" 
d="M305 757q0 -15 -11.5 -26t-27.5 -11q-15 0 -26 11t-11 26q0 16 11 27.5t26 11.5q16 0 27.5 -11t11.5 -28zM764 757q0 -15 -11 -26t-28 -11q-15 0 -25.5 11t-10.5 26q0 17 10 28t26 11q18 0 28.5 -11t10.5 -28zM737 -27l-241 662l-238 -662l-246 784h56l189 -617
q4 -11 6 -34q2 19 7 34l228 638l231 -638q4 -11 6 -34q2 19 6 34l183 617h54z" />
    <glyph glyph-name="wdieresis" unicode="&#x1e85;" horiz-adv-x="707" 
d="M503 -21h-1l-149 403l-148 -403h-1l-191 492h49l144 -377l146 402h1l151 -402l144 377h46zM282 630q0 -15 -11.5 -26t-27.5 -11q-15 0 -26 11t-11 26q0 16 11 27.5t26 11.5q17 0 28 -11.5t11 -27.5zM501 630q0 -16 -10.5 -26.5t-28.5 -10.5q-15 0 -25.5 11t-10.5 26
q0 17 10 28t26 11q18 0 28.5 -11t10.5 -28z" />
    <glyph glyph-name="Ygrave" unicode="&#x1ef2;" horiz-adv-x="523" 
d="M324 751l-20 -17l-139 138l41 33zM285 0h-48v328l-239 429h56l204 -365q4 -6 5 -15q1 9 5 15l206 365h54l-243 -429v-328z" />
    <glyph glyph-name="ygrave" unicode="&#x1ef3;" horiz-adv-x="466" 
d="M101 -259h-46l146 296l-192 434h49l168 -389l186 389h48zM290 600l-21 -17l-138 138l41 33z" />
    <glyph glyph-name="endash" unicode="&#x2013;" horiz-adv-x="594" 
d="M517 227h-445l5 40h445z" />
    <glyph glyph-name="emdash" unicode="&#x2014;" horiz-adv-x="854" 
d="M777 227h-705l5 40h705z" />
    <glyph glyph-name="quoteleft" unicode="&#x2018;" horiz-adv-x="215" 
d="M106 575h-51l72 182h42z" />
    <glyph glyph-name="quoteright" unicode="&#x2019;" horiz-adv-x="214" 
d="M99 575h-42l63 182h51z" />
    <glyph glyph-name="quotesinglbase" unicode="&#x201a;" horiz-adv-x="217" 
d="M78 -59h-42l63 181h51z" />
    <glyph glyph-name="quotedblleft" unicode="&#x201c;" horiz-adv-x="360" 
d="M106 575h-51l72 182h42zM251 575h-51l72 182h42z" />
    <glyph glyph-name="quotedblright" unicode="&#x201d;" horiz-adv-x="359" 
d="M244 575h-42l63 182h51zM99 575h-42l63 182h51z" />
    <glyph glyph-name="quotedblbase" unicode="&#x201e;" horiz-adv-x="362" 
d="M223 -61h-42l63 181h51zM78 -61h-42l63 181h51z" />
    <glyph glyph-name="dagger" unicode="&#x2020;" horiz-adv-x="455" 
d="M245 63h-39v498h-147v39h147v215h39v-215h151v-39h-151v-498z" />
    <glyph glyph-name="daggerdbl" unicode="&#x2021;" horiz-adv-x="477" 
d="M256 63h-39v195h-147v39h147v289h-147v39h147v195h39v-195h151v-39h-151v-289h151v-39h-151v-195z" />
    <glyph glyph-name="bullet" unicode="&#x2022;" horiz-adv-x="503" 
d="M251 182q-41 0 -70.5 29.5t-29.5 70.5t29.5 70.5t70.5 29.5t70.5 -29.5t29.5 -70.5t-29.5 -70.5t-70.5 -29.5z" />
    <glyph glyph-name="onedotenleader" unicode="&#x2024;" horiz-adv-x="228" 
d="M158 33q0 -17 -12.5 -29.5t-31.5 -12.5q-18 0 -31 12.5t-13 29.5q0 19 13 32t31 13q19 0 31.5 -13t12.5 -32z" />
    <glyph glyph-name="twodotenleader" unicode="&#x2025;" horiz-adv-x="462" 
d="M158 33q0 -17 -12.5 -29.5t-31.5 -12.5q-18 0 -31 12.5t-13 29.5q0 19 13 32t31 13q19 0 31.5 -13t12.5 -32zM392 33q0 -17 -12.5 -29.5t-31.5 -12.5q-18 0 -31 12.5t-13 29.5q0 19 13 32t31 13q19 0 31.5 -13t12.5 -32z" />
    <glyph glyph-name="ellipsis" unicode="&#x2026;" horiz-adv-x="912" 
d="M842 33q0 -17 -12.5 -29.5t-31.5 -12.5q-18 0 -31 12.5t-13 29.5q0 19 13 32t31 13q19 0 31.5 -13t12.5 -32zM158 33q0 -17 -12.5 -29.5t-31.5 -12.5q-18 0 -31 12.5t-13 29.5q0 19 13 32t31 13q19 0 31.5 -13t12.5 -32zM500 33q0 -17 -12.5 -29.5t-31.5 -12.5
q-18 0 -31 12.5t-13 29.5q0 19 13 32t31 13q19 0 31.5 -13t12.5 -32z" />
    <glyph glyph-name="perthousand" unicode="&#x2030;" horiz-adv-x="1232" 
d="M1182 133q0 -61 -42.5 -102.5t-103.5 -41.5t-103 41.5t-42 102.5t42 103.5t103 42.5t103.5 -42.5t42.5 -103.5zM1037 23q46 0 77 32t31 78t-31 78t-77 32t-77 -32t-31 -78t31 -78t77 -32zM259 -19l-30 12l325 777l31 -13zM343 616q0 -61 -42.5 -103t-103.5 -42t-103 42
t-42 103t42 103.5t103 42.5t103.5 -42.5t42.5 -103.5zM198 506q46 0 77 32t31 78t-31 78t-77 32t-77 -32t-31 -78t31 -78t77 -32zM780 133q0 -61 -42.5 -102.5t-103.5 -41.5t-103 41.5t-42 102.5t42 103.5t103 42.5t103.5 -42.5t42.5 -103.5zM635 23q46 0 77 32t31 78
t-31 78t-77 32t-77 -32t-31 -78t31 -78t77 -32z" />
    <glyph glyph-name="minute" unicode="&#x2032;" horiz-adv-x="214" 
d="M99 575h-42l63 182h51z" />
    <glyph glyph-name="second" unicode="&#x2033;" horiz-adv-x="359" 
d="M244 575h-42l63 182h51zM99 575h-42l63 182h51z" />
    <glyph glyph-name="guilsinglleft" unicode="&#x2039;" horiz-adv-x="273" 
d="M219 26h-41l-124 208l121 209h40l-121 -209z" />
    <glyph glyph-name="guilsinglright" unicode="&#x203a;" horiz-adv-x="273" 
d="M95 26h-41l125 208l-121 209h40l121 -209z" />
    <glyph glyph-name="fraction" unicode="&#x2044;" horiz-adv-x="125" 
d="M-123 -14l-28 14l397 765l29 -15z" />
    <glyph glyph-name="zero.sinf" unicode="&#x2080;" horiz-adv-x="407" 
d="M203 -187q-47 0 -80 19.5t-48.5 52.5t-22 65.5t-6.5 68.5q0 29 3.5 54.5t13.5 55t26.5 50t46 34.5t67.5 14q158 0 158 -208q0 -37 -6.5 -69.5t-22.5 -65t-49 -52t-80 -19.5zM203 -153q37 0 62 18t35.5 47.5t14.5 54.5t4 52q0 174 -116 174q-115 0 -115 -174
q0 -26 4 -51.5t15 -55t35.5 -47.5t60.5 -18z" />
    <glyph glyph-name="one.sinf" unicode="&#x2081;" horiz-adv-x="216" 
d="M151 -180h-40v358l-74 -31l-14 33l128 50v-410z" />
    <glyph glyph-name="two.sinf" unicode="&#x2082;" horiz-adv-x="379" 
d="M339 -179h-318q92 65 170 139q92 84 92 149q0 34 -26 58.5t-65 24.5q-57 0 -96 -44l-22 26q58 52 122 52q57 0 93 -33.5t36 -83.5q0 -77 -101 -167q-59 -52 -116 -89l231 3v-35z" />
    <glyph glyph-name="three.sinf" unicode="&#x2083;" horiz-adv-x="359" 
d="M220 45v-1q47 -15 71.5 -46t24.5 -68q0 -47 -43 -81.5t-117 -34.5q-49 0 -82.5 14t-47.5 28l19 32q10 -12 39.5 -25t70.5 -13q57 0 87.5 24t30.5 58q0 41 -38 70t-104 30v22q59 1 92 24.5t33 53.5q0 26 -22.5 42.5t-63.5 16.5q-46 0 -82 -22l-15 30q10 10 40.5 20
t63.5 10q54 0 87.5 -28t33.5 -65q0 -62 -78 -91z" />
    <glyph glyph-name="four.sinf" unicode="&#x2084;" horiz-adv-x="394" 
d="M299 -182h-43v90h-229v33l242 280h30v-277h64v-36h-64v-90zM257 -57l1 217l-184 -217h183z" />
    <glyph glyph-name="five.sinf" unicode="&#x2085;" horiz-adv-x="352" 
d="M27 -154l18 34q51 -29 99 -29q61 0 93.5 28.5t32.5 68.5q0 39 -32.5 66t-93.5 27q-34 0 -73 -11l60 190h171l-11 -35h-131l-37 -114q12 2 36 2q65 0 109 -34t44 -87q0 -59 -42 -98.5t-120 -39.5q-38 0 -72.5 11t-50.5 21z" />
    <glyph glyph-name="six.sinf" unicode="&#x2086;" horiz-adv-x="387" 
d="M203 242l29 -29q-86 -99 -114 -148q31 26 90 26q62 0 105.5 -42t43.5 -101q0 -60 -46 -100.5t-112 -40.5q-67 0 -113.5 42t-46.5 100q0 62 52 143.5t112 149.5zM315 -50q0 45 -35 75t-85 30q-46 0 -80 -30.5t-34 -74.5q0 -41 35.5 -73t83.5 -32t81.5 29.5t33.5 75.5z" />
    <glyph glyph-name="seven.sinf" unicode="&#x2087;" horiz-adv-x="331" 
d="M92 -183h-44l210 365h-223v38h285z" />
    <glyph glyph-name="eight.sinf" unicode="&#x2088;" horiz-adv-x="386" 
d="M260 23q79 -32 79 -96q0 -49 -43.5 -84.5t-102.5 -35.5q-61 0 -104 35t-43 84q0 61 81 97q-34 13 -55.5 38.5t-21.5 55.5q0 53 43.5 85.5t99.5 32.5q60 0 101.5 -32.5t41.5 -85.5q0 -29 -22 -55.5t-54 -38.5zM295 -75q0 33 -30.5 57.5t-72.5 24.5t-72 -24t-30 -58t30 -58
t72 -24t72.5 24.5t30.5 57.5zM292 116q0 36 -28.5 59.5t-70.5 23.5q-41 0 -70.5 -23.5t-29.5 -57.5q0 -31 29 -54.5t72 -23.5q41 0 69.5 22.5t28.5 53.5z" />
    <glyph glyph-name="nine.sinf" unicode="&#x2089;" horiz-adv-x="387" 
d="M174 -201l-28 25q61 59 122 155q-25 -24 -79 -24q-69 0 -114.5 42t-45.5 101q0 57 46 99t113 42q68 0 114 -42t46 -99q0 -49 -35 -114.5t-69.5 -107.5t-69.5 -77zM304 98q0 43 -34 73t-82 30q-50 0 -82 -30.5t-32 -72.5q0 -44 31.5 -75.5t83.5 -31.5q51 0 83 30.5
t32 76.5z" />
    <glyph glyph-name="parenleft.sinf" unicode="&#x208d;" horiz-adv-x="167" 
d="M129 -280l-30 -12q-52 120 -52 288q0 174 52 298l30 -11q-46 -128 -46 -285q0 -118 46 -278z" />
    <glyph glyph-name="parenright.sinf" unicode="&#x208e;" horiz-adv-x="166" 
d="M68 -292l-30 12q45 157 45 278q0 84 -14.5 161.5t-31.5 123.5l31 11q50 -122 50 -298q0 -169 -50 -288z" />
    <glyph glyph-name="Euro" unicode="&#x20ac;" horiz-adv-x="688" 
d="M604 59l19 -43q-42 -28 -156 -28q-127 0 -213 78.5t-109 210.5h-90l10 40h74q-3 30 -3 61q0 29 3 59h-74l10 40h69q25 130 107 207.5t206 77.5q107 0 162 -37l-21 -38q-60 30 -149 30q-99 0 -164 -62.5t-89 -177.5l309 2l-10 -42h-307q-4 -28 -4 -64q0 -28 4 -56l307 2
l-10 -42h-290q28 -115 97.5 -180.5t175.5 -65.5q89 0 136 28z" />
    <glyph glyph-name="uni2117" unicode="&#x2117;" horiz-adv-x="918" 
d="M459 -12q-164 0 -278 114.5t-114 276.5q0 164 114 278t278 114t278 -114t114 -278q0 -162 -114 -276.5t-278 -114.5zM459 20q149 0 252 104.5t103 254.5q0 151 -102.5 255t-252.5 104t-252.5 -104t-102.5 -255q0 -150 102.5 -254.5t252.5 -104.5zM399 108h-46v524h110
q81 0 139 -36.5t58 -114.5q0 -72 -55.5 -117.5t-153.5 -45.5h-52v-210zM399 356l50 1q77 2 120.5 34t43.5 90q0 53 -38.5 82.5t-100.5 29.5h-75v-237z" />
    <glyph glyph-name="trademark" unicode="&#x2122;" horiz-adv-x="933" 
d="M236 394h-40v328l-121 -1v36h282v-36l-121 1v-328zM845 394h-40l-32 256l-152 -270l-153 270l-27 -256h-40l43 374l179 -313l176 312z" />
    <glyph glyph-name="Omega" unicode="&#x2126;" horiz-adv-x="926" 
d="M839 0h-300v41q103 25 184 117t81 228q0 142 -99 240.5t-242 98.5t-242 -98.5t-99 -240.5q0 -136 81 -228t184 -117v-41h-300v42h201q-92 40 -154 133t-62 208q0 166 115 276.5t276 110.5t276 -110.5t115 -276.5q0 -115 -62 -208t-154 -133h201v-42z" />
    <glyph glyph-name="estimated" unicode="&#x212e;" horiz-adv-x="862" 
d="M711 130l30 -35q-3 -4 -13.5 -13.5t-36.5 -26.5t-56.5 -31t-76.5 -25t-94 -11q-165 0 -280.5 114.5t-115.5 278.5q0 159 114 274t273 115q69 0 129 -22.5t110 -69t79 -127t30 -186.5h-685q6 -144 103.5 -238.5t244.5 -94.5q41 0 80.5 10t67 23t50.5 28t33.5 24t13.5 13z
M119 408h635q-11 163 -93.5 240.5t-204.5 77.5q-72 0 -134.5 -27.5t-104.5 -73t-67.5 -102t-30.5 -115.5z" />
    <glyph glyph-name="arrowleft" unicode="&#x2190;" horiz-adv-x="861" 
d="M811 353h-696l80 -122l-39 -15l-106 160l106 160l39 -15l-80 -122h696v-46z" />
    <glyph glyph-name="arrowup" unicode="&#x2191;" horiz-adv-x="420" 
d="M233 -3h-46v695l-122 -80l-15 39l160 106l160 -106l-15 -39l-122 80v-695z" />
    <glyph glyph-name="arrowright" unicode="&#x2192;" horiz-adv-x="861" 
d="M705 216l-39 15l80 122h-696v46h696l-80 122l39 15l106 -160z" />
    <glyph glyph-name="arrowdown" unicode="&#x2193;" horiz-adv-x="420" 
d="M370 102l-160 -105l-160 105l15 39l122 -80v696h46v-696l122 80z" />
    <glyph glyph-name="arrowboth" unicode="&#x2194;" horiz-adv-x="881" 
d="M725 216l-39 15l80 122h-651l80 -122l-39 -15l-106 160l106 160l39 -15l-80 -122h651l-80 122l39 15l106 -160z" />
    <glyph glyph-name="arrowupdn" unicode="&#x2195;" horiz-adv-x="420" 
d="M370 91l-160 -105l-160 105l15 39l122 -80v651l-122 -80l-15 39l160 106l160 -106l-15 -39l-122 80v-651l122 80z" />
    <glyph glyph-name="uni2196" unicode="&#x2196;" horiz-adv-x="714" 
d="M631 91l-492 492l-30 -142l-38 17l38 188l188 38l17 -38l-142 -30l492 -492z" />
    <glyph glyph-name="uni2197" unicode="&#x2197;" horiz-adv-x="714" 
d="M664 458l-38 -17l-30 142l-492 -492l-33 33l492 492l-142 30l17 38l188 -38z" />
    <glyph glyph-name="uni2198" unicode="&#x2198;" horiz-adv-x="714" 
d="M626 129l-188 -38l-17 38l142 30l-492 492l33 33l492 -492l30 142l38 -17z" />
    <glyph glyph-name="uni2199" unicode="&#x2199;" horiz-adv-x="714" 
d="M297 91l-188 38l-38 188l38 17l30 -142l492 492l33 -33l-492 -492l142 -30z" />
    <glyph glyph-name="partialdiff" unicode="&#x2202;" horiz-adv-x="609" 
d="M143 776l18 30q113 -30 200.5 -112.5t132.5 -188.5t45 -217q0 -141 -62.5 -220.5t-181.5 -79.5q-100 0 -169.5 69t-69.5 173q0 92 68.5 162t177.5 70q40 0 94.5 -21t95.5 -75q-62 304 -349 410zM498 308q-74 110 -204 110q-82 0 -135 -56t-53 -136q0 -87 57 -140t131 -53
q99 0 153 69.5t54 168.5q0 15 -3 37z" />
    <glyph glyph-name="Delta" unicode="&#x2206;" horiz-adv-x="762" 
d="M719 0h-676l339 777zM650 44l-268 622l-269 -622h537z" />
    <glyph glyph-name="product" unicode="&#x220f;" horiz-adv-x="767" 
d="M652 0h-48v713h-441v-713h-48v757h537v-757z" />
    <glyph glyph-name="summation" unicode="&#x2211;" horiz-adv-x="638" 
d="M577 1h-523l280 377l-280 378h491v-43h-403l253 -335l-253 -334h435v-43z" />
    <glyph glyph-name="minus" unicode="&#x2212;" horiz-adv-x="674" 
d="M587 342h-500v44h500v-44z" />
    <glyph glyph-name="radical" unicode="&#x221a;" horiz-adv-x="652" 
d="M225 -272l-209 547h50l163 -416l368 983h53z" />
    <glyph glyph-name="infinity" unicode="&#x221e;" horiz-adv-x="935" 
d="M461 190q-43 -73 -87 -113t-107 -40q-83 0 -140.5 67t-57.5 153q0 99 58.5 164.5t139.5 65.5q29 0 54.5 -12t43.5 -28t38 -47t31.5 -52.5t29.5 -60.5q20 45 37 75t44 61.5t62.5 47.5t80.5 16q74 0 125.5 -60.5t51.5 -158.5q0 -103 -61.5 -167t-137.5 -64
q-69 0 -116.5 40.5t-88.5 112.5zM485 240q40 -77 81 -118.5t104 -41.5q71 0 114 47.5t43 134.5q0 75 -40.5 129.5t-114.5 54.5q-38 0 -73 -30.5t-52.5 -59.5t-50.5 -95q-7 -14 -11 -21zM439 231q-7 14 -23 44.5t-23.5 45t-22 39t-25 36t-25.5 25.5t-30.5 19.5t-32.5 5.5
q-62 0 -105.5 -51t-43.5 -124q0 -92 48.5 -141.5t122.5 -49.5q56 0 91.5 39t68.5 112z" />
    <glyph glyph-name="integral" unicode="&#x222b;" horiz-adv-x="421" 
d="M188 -8v634q0 98 41 143.5t108 45.5q49 0 73 -18l-21 -42q-22 16 -57 16q-50 0 -75 -36t-25 -96v-635q0 -97 -41 -142.5t-108 -45.5q-49 0 -73 18l21 42q22 -16 57 -16q50 0 75 36t25 96z" />
    <glyph glyph-name="approxequal" unicode="&#x2248;" horiz-adv-x="691" 
d="M552 286l44 -5q-8 -117 -98 -117q-49 0 -92 16.5t-69.5 37t-63 37t-73.5 16.5q-28 0 -45.5 -24t-16.5 -60l-42 4q0 54 28.5 86.5t72.5 32.5t84.5 -16.5t66.5 -37t64 -37t79 -16.5q27 0 44 21.5t17 61.5zM552 516l44 -5q-8 -117 -98 -117q-49 0 -92 16.5t-69.5 37t-63 37
t-73.5 16.5q-28 0 -45.5 -24t-16.5 -60l-42 4q0 54 28.5 86.5t72.5 32.5t84.5 -16.5t66.5 -37t64 -37t79 -16.5q27 0 44 21.5t17 61.5z" />
    <glyph glyph-name="notequal" unicode="&#x2260;" horiz-adv-x="655" 
d="M576 224h-263l-60 -224h-47l61 224h-191v44h203l53 190h-256v44h268l53 192h43l-52 -192h188v-44h-200l-51 -190h251v-44z" />
    <glyph glyph-name="lessequal" unicode="&#x2264;" horiz-adv-x="609" 
d="M494 88l-436 277v28l436 260l20 -37l-406 -237l406 -256zM550 1h-500v42h500v-42z" />
    <glyph glyph-name="greaterequal" unicode="&#x2265;" horiz-adv-x="609" 
d="M551 365l-436 -277l-20 35l406 256l-406 237l20 37l436 -260v-28zM559 1h-500v42h500v-42z" />
    <glyph glyph-name="triagup" unicode="&#x25b2;" horiz-adv-x="669" 
d="M679 0h-688l336 578z" />
    <glyph glyph-name="triagrt" unicode="&#x25ba;" horiz-adv-x="632" 
d="M632 360l-533 -364v723z" />
    <glyph glyph-name="triagdn" unicode="&#x25bc;" horiz-adv-x="669" 
d="M327 10l-336 579h688z" />
    <glyph glyph-name="triaglf" unicode="&#x25c4;" horiz-adv-x="632" 
d="M533 -4l-533 364l533 359v-723z" />
    <glyph glyph-name="lozenge" unicode="&#x25ca;" horiz-adv-x="569" 
d="M287 -20h-1l-231 436l231 437h1l227 -437zM288 81l176 335l-176 335l-180 -335z" />
    <glyph glyph-name="ff" unicode="&#xfb00;" horiz-adv-x="570" 
d="M149 0h-44v429h-80v41h80v108q0 100 40 149q40 47 109 47q49 0 73 -18l-21 -42q-22 16 -58 16q-49 0 -74 -38t-25 -104v-118h112v-41h-112v-429zM434 0h-44v429h-75v41h75v155q0 100 40 149q40 47 109 47q49 0 73 -18l-21 -42q-22 16 -58 16q-49 0 -74 -38t-25 -104v-165
h117v-41h-117v-429z" />
    <glyph glyph-name="fi" unicode="&#xfb01;" horiz-adv-x="496" 
d="M412 0h-44v471h44v-471zM431 611q0 -17 -11.5 -28.5t-28.5 -11.5t-28.5 11.5t-11.5 28.5t11.5 28.5t28.5 11.5t28.5 -11.5t11.5 -28.5zM149 0h-44v429h-80v41h80v149q0 100 40 149q40 47 109 47q49 0 73 -18l-21 -42q-22 16 -58 16q-49 0 -74 -38t-25 -104v-159h117v-41
h-117v-429z" />
    <glyph glyph-name="fl" unicode="&#xfb02;" horiz-adv-x="503" 
d="M416 0h-44v820h44v-820zM149 0h-44v429h-80v41h80v134q0 100 40 149q40 47 109 47q49 0 73 -18l-21 -42q-22 16 -58 16q-49 0 -74 -38t-25 -104v-144h117v-41h-117v-429z" />
    <glyph glyph-name="ffi" unicode="&#xfb03;" horiz-adv-x="781" 
d="M697 0h-44v471h44v-471zM716 611q0 -17 -11.5 -28.5t-28.5 -11.5t-28.5 11.5t-11.5 28.5t11.5 28.5t28.5 11.5t28.5 -11.5t11.5 -28.5zM149 0h-44v429h-80v41h80v108q0 100 40 149q40 47 109 47q49 0 73 -18l-21 -42q-22 16 -58 16q-49 0 -74 -38t-25 -104v-118h112v-41
h-112v-429zM434 0h-44v429h-75v41h75v155q0 100 40 149q40 47 109 47q49 0 73 -18l-21 -42q-22 16 -58 16q-49 0 -74 -38t-25 -104v-165h117v-41h-117v-429z" />
    <glyph glyph-name="ffl" unicode="&#xfb04;" horiz-adv-x="788" 
d="M701 0h-44v820h44v-820zM149 0h-44v429h-80v41h80v103q0 100 40 149q40 47 109 47q49 0 73 -18l-21 -42q-22 16 -58 16q-49 0 -74 -38t-25 -104v-113h112v-41h-112v-429zM434 0h-44v429h-75v41h75v140q0 100 40 149q40 47 109 47q49 0 73 -18l-21 -42q-22 16 -58 16
q-49 0 -74 -38t-25 -104v-150h112v-41h-112v-429z" />
    <glyph glyph-name="wgrave.sc" horiz-adv-x="772" 
d="M454 620l-21 -17l-139 138l41 33zM565 -20l-179 438l-177 -437l-189 543h53l137 -406q1 -4 4 -24q2 16 5 24l168 422l170 -422q3 -7 5 -23q0 9 4 23l132 406h53z" />
    <glyph glyph-name="uni1E6B.sc" horiz-adv-x="444" 
d="M245 0h-45v484l-172 -1v39h388v-39l-171 1v-484zM260 640q0 -15 -12 -26t-28 -11q-14 0 -25 11t-11 26q0 16 11 27.5t25 11.5q17 0 28.5 -11.5t11.5 -27.5z" />
    <glyph glyph-name="uni1E6B.semp" horiz-adv-x="280" 
d="M139 794q0 -15 -11.5 -26t-27.5 -11q-15 0 -26 11t-11 26q0 16 11 27.5t26 11.5q16 0 27.5 -11.5t11.5 -27.5zM123 0h-44v659h44v-189h146v-41h-146v-429z" />
    <glyph glyph-name="uni1E6B.alt2" horiz-adv-x="300" 
d="M188 794q0 -15 -11.5 -26t-27.5 -11q-15 0 -26 11t-11 26q0 16 11 27.5t26 11.5q17 0 28 -11.5t11 -27.5zM172 0h-44v429h-114v41h114v171h44v-171h114v-41h-114v-429z" />
    <glyph glyph-name="uni1E6B.alt" horiz-adv-x="286" 
d="M166 794q0 -15 -11.5 -26t-27.5 -11q-15 0 -26 11t-11 26q0 16 11 27.5t26 11.5q17 0 28 -11.5t11 -27.5zM257 31l-30 -39q-59 0 -90 31t-31 111v295h-87v41h87v171h44v-171h114v-41h-114v-286q0 -68 25 -90t82 -22z" />
    <glyph glyph-name="uni1E61.sc" horiz-adv-x="436" 
d="M42 61l29 33q50 -62 143 -62q52 0 86.5 27t34.5 72q0 43 -27 72.5t-65.5 46.5t-76.5 33.5t-65 46.5t-27 73q0 62 45.5 97t111.5 35q85 0 135 -52l-26 -32q-45 43 -109 43q-45 0 -77 -22.5t-32 -64.5q0 -35 27 -58.5t65.5 -39.5t77.5 -34.5t66 -54.5t27 -89
q0 -55 -48 -97.5t-126 -42.5q-54 0 -102 22t-67 48zM256 640q0 -15 -11.5 -26t-27.5 -11q-15 0 -26 11t-11 26q0 16 11 27.5t26 11.5q17 0 28 -11.5t11 -27.5z" />
    <glyph glyph-name="uni1E57.sc" horiz-adv-x="443" 
d="M139 0h-46v524h110q37 0 70.5 -8t62.5 -25t46.5 -47t17.5 -71q0 -72 -55.5 -117.5t-153.5 -45.5h-52v-210zM139 248l50 1q77 2 120.5 34t43.5 90q0 53 -38.5 82.5t-100.5 29.5h-75v-237zM260 640q0 -15 -11.5 -26t-27.5 -11q-15 0 -26 11t-11 26q0 16 11 27.5t26 11.5
q17 0 28 -11.5t11 -27.5z" />
    <glyph glyph-name="uni1E41.sc" horiz-adv-x="749" 
d="M413 580q0 -15 -11.5 -26t-27.5 -11q-15 0 -26 11.5t-11 25.5q0 16 11 27.5t26 11.5q16 0 27.5 -11.5t11.5 -27.5zM683 0h-47l-39 376v21l-8 -18l-215 -398l-215 398l-8 18v-21l-38 -376h-47l59 538l250 -460l248 460z" />
    <glyph glyph-name="uni1E41.alt" horiz-adv-x="816" 
d="M446 630q0 -15 -11.5 -26t-27.5 -11q-15 0 -26 11t-11 26q0 16 11 27.5t26 11.5q17 0 28 -11.5t11 -27.5zM741 0h-44v293q0 76 -29.5 112.5t-97.5 36.5q-40 0 -83 -15.5t-70 -36.5q14 -37 14 -87v-303h-44v293q0 76 -29.5 112.5t-97.5 36.5q-39 0 -77.5 -13t-61.5 -30
v-399h-44v418q79 65 182 65q96 0 138 -57q78 57 172 57q172 0 172 -180v-303z" />
    <glyph glyph-name="uni1E1F.sc" horiz-adv-x="410" 
d="M139 0h-46v522h281v-39l-235 1v-184l189 1v-41l-189 1v-261zM271 640q0 -15 -11.5 -26t-27.5 -11q-15 0 -26 11t-11 26q0 16 11 27.5t26 11.5q16 0 27.5 -11.5t11.5 -27.5z" />
    <glyph glyph-name="uni1E1F.semp2" horiz-adv-x="284" 
d="M228 905q0 -16 -11 -27t-27 -11t-27 11t-11 27t11 27t27 11q15 0 26.5 -11t11.5 -27zM123 0h-44v619q0 100 40 149q40 47 109 47q49 0 73 -18l-21 -42q-22 16 -58 16q-49 0 -74 -38t-25 -104v-159h142v-41h-142v-429z" />
    <glyph glyph-name="uni1E1F.semp" horiz-adv-x="284" 
d="M228 905q0 -16 -11 -27t-27 -11t-27 11t-11 27t11 27t27 11q15 0 26.5 -11t11.5 -27zM123 -244h-44v863q0 100 40 149q40 47 109 47q49 0 73 -18l-21 -42q-22 16 -58 16q-49 0 -74 -38t-25 -104v-159h142v-41h-142v-673z" />
    <glyph glyph-name="uni1E0B.sc" horiz-adv-x="578" 
d="M220 0h-127v524h120q133 0 220 -69t87 -193q0 -121 -83 -191.5t-217 -70.5zM139 40h60q127 0 200.5 56.5t73.5 167.5q0 105 -76 163t-190 58h-68v-445zM288 640q0 -15 -12 -26t-28 -11q-15 0 -25.5 11t-10.5 26q0 16 10.5 27.5t25.5 11.5q17 0 28.5 -11.5t11.5 -27.5z
" />
    <glyph glyph-name="uni1E03.sc" horiz-adv-x="483" 
d="M236 0h-143v524h109q179 0 179 -131q0 -38 -28 -70t-65 -43q52 -5 96.5 -41t44.5 -92q0 -70 -49.5 -108.5t-143.5 -38.5zM139 287l43 1q73 1 112.5 29t39.5 75q0 93 -128 93h-67v-198zM139 38l100 2q71 1 106.5 29t35.5 77q0 44 -39 73.5t-98 29.5h-105v-211zM253 640
q0 -15 -12 -26t-28 -11q-15 0 -25.5 11t-10.5 26q0 16 10.5 27.5t25.5 11.5q17 0 28.5 -11.5t11.5 -27.5z" />
    <glyph glyph-name="wacute.sc" horiz-adv-x="772" 
d="M475 741l-139 -138l-20 17l118 154zM565 -20l-179 438l-177 -437l-189 543h53l137 -406q1 -4 4 -24q2 16 5 24l168 422l170 -422q3 -7 5 -23q0 9 4 23l132 406h53z" />
    <glyph glyph-name="quoteleft.sc" horiz-adv-x="227" 
d="M119 372h-51l72 182h42z" />
    <glyph glyph-name="quoteright.sc" horiz-adv-x="224" 
d="M111 372h-42l63 182h51z" />
    <glyph glyph-name="quotedblleft.sc" horiz-adv-x="372" 
d="M119 372h-51l72 182h42zM264 372h-51l72 182h42z" />
    <glyph glyph-name="quotedblright.sc" horiz-adv-x="369" 
d="M256 372h-42l63 182h51zM111 372h-42l63 182h51z" />
    <glyph glyph-name="perthousand.sc" horiz-adv-x="934" 
d="M195 -19l-32 11l250 552l32 -12zM150 318q-45 0 -76.5 31.5t-31.5 76.5t31.5 76.5t76.5 31.5t76.5 -31.5t31.5 -76.5t-32 -76.5t-76 -31.5zM150 351q29 0 51 23t22 52t-22 52t-51 23t-51 -23t-22 -52t22 -52t51 -23zM476 -9q-45 0 -76.5 31t-31.5 76t31.5 76.5t76.5 31.5
t76.5 -31.5t31.5 -76.5t-31.5 -76t-76.5 -31zM476 23q29 0 51 23t22 52t-22 52t-51 23t-51 -23t-22 -52t22 -52t51 -23zM786 -9q-45 0 -76.5 31t-31.5 76t31.5 76.5t76.5 31.5t76.5 -31.5t31.5 -76.5t-31.5 -76t-76.5 -31zM786 23q29 0 51 23t22 52t-22 52t-51 23t-51 -23
t-22 -52t22 -52t51 -23z" />
    <glyph glyph-name="guilsinglleft.sc" horiz-adv-x="291" 
d="M225 50h-40l-123 209l120 209h40l-121 -209z" />
    <glyph glyph-name="wdieresis.sc" horiz-adv-x="772" 
d="M313 640q0 -15 -11.5 -26t-27.5 -11q-15 0 -26 11t-11 26q0 16 11 27.5t26 11.5q16 0 27.5 -11.5t11.5 -27.5zM532 640q0 -15 -10.5 -26t-27.5 -11q-16 0 -26.5 11t-10.5 26q0 17 10.5 28t26.5 11q17 0 27.5 -11t10.5 -28zM565 -20l-179 438l-177 -437l-189 543h53
l137 -406q1 -4 4 -24q2 16 5 24l168 422l170 -422q3 -7 5 -23q0 9 4 23l132 406h53z" />
    <glyph glyph-name="guilsinglright.sc" horiz-adv-x="291" 
d="M106 50h-40l124 209l-121 209h40l120 -209z" />
    <glyph glyph-name="Ygrave.alt" horiz-adv-x="523" 
d="M365 842l-238 43l23 49l227 -61zM285 0h-48v328l-239 429h56l204 -365q4 -6 5 -15q1 9 5 15l206 365h54l-243 -429v-328z" />
    <glyph glyph-name="Euro.dnom" horiz-adv-x="412" 
d="M358 43l15 -32q-34 -17 -91 -17q-80 0 -132 41t-66 111h-54l8 32h42q-2 18 -2 27q0 8 2 26h-44l8 31h40q15 70 63.5 110.5t124.5 40.5q61 0 99 -23l-17 -29q-32 18 -87 18q-112 0 -142 -117l179 2l-8 -33h-178q-1 -9 -1 -29q0 -12 1 -24l181 1l-8 -33h-166
q35 -120 154 -120q53 0 79 17z" />
    <glyph glyph-name="Euro.sup" horiz-adv-x="413" 
d="M359 386l15 -32q-36 -18 -97 -18q-75 0 -126.5 41.5t-65.5 111.5h-54l8 32h42q-2 18 -2 27q0 8 2 26h-44l8 31h40q15 69 63.5 110t122.5 41q63 0 101 -23l-17 -29q-31 18 -89 18q-110 0 -140 -117l179 2l-8 -33h-178q-1 -9 -1 -29q0 -12 1 -24l181 1l-8 -33h-166
q35 -120 151 -120q57 0 82 17z" />
    <glyph glyph-name="Euro.sinf" horiz-adv-x="412" 
d="M359 -143l15 -32q-36 -18 -97 -18q-75 0 -126.5 41.5t-65.5 111.5h-54l8 32h42q-2 16 -2 26q0 8 2 26h-44l8 31h40q15 69 63.5 110t122.5 41q63 0 101 -23l-17 -29q-31 18 -89 18q-110 0 -140 -117l179 2l-8 -33h-178q-1 -9 -1 -29q0 -12 1 -23l181 1l-8 -33h-166
q35 -120 151 -120q57 0 82 17z" />
    <glyph glyph-name="Euro.alt" horiz-adv-x="626" 
d="M551 65l21 -38q-58 -39 -158 -39q-153 0 -256 113.5t-103 276.5q0 164 103 278t256 114q101 0 167 -44l-26 -36q-70 35 -149 35q-102 0 -180.5 -63.5t-108.5 -169.5h325v-41h-335q-6 -37 -6 -78q0 -15 2 -41h339v-41h-333q22 -99 88.5 -167t156.5 -87q30 -6 61 -6
q82 0 136 34z" />
    <glyph glyph-name="ygrave.sc" horiz-adv-x="435" 
d="M240 0h-46l1 226l-183 298h54l153 -258l153 258h53l-186 -298zM275 620l-20 -17l-139 138l41 33z" />
    <glyph glyph-name="Euro.alt.sc" horiz-adv-x="501" 
d="M424 53l18 -33q-39 -29 -119 -29q-113 0 -189 81t-76 197q0 115 75.5 190t189.5 75q75 0 126 -34l-23 -32q-56 25 -109 25q-72 0 -127 -42t-78 -113h198v-37h-207q-4 -17 -4 -40q0 -3 0.5 -9.5t0.5 -10.5h210v-38h-204q19 -78 79.5 -126t137.5 -48q45 0 101 24z" />
    <glyph glyph-name="Euro.sc" 
d="M468 51l17 -39q-35 -21 -121 -21q-94 0 -158.5 53t-82.5 143h-78l10 37h63q-2 22 -2 37q0 11 2 43h-65l9 36h61q21 91 81 142.5t158 51.5q74 0 121 -28l-20 -34q-55 22 -112 22q-68 0 -115 -40t-65 -114q150 0 227 2l-9 -38h-226q-3 -20 -3 -39q0 -20 3 -41l228 1
l-10 -38h-210q20 -73 70 -115.5t124 -42.5t103 22z" />
    <glyph glyph-name="minus.dnom" horiz-adv-x="433" 
d="M375 173h-317v35h317v-35z" />
    <glyph glyph-name="minus.sup" horiz-adv-x="433" 
d="M375 525h-317v34h317v-34z" />
    <glyph glyph-name="minus.sinf" horiz-adv-x="433" 
d="M375 -5h-317v33h317v-33z" />
    <glyph glyph-name="minus.sc" horiz-adv-x="522" 
d="M444 237h-366v40h366v-40z" />
    <glyph glyph-name="notequal.sc" horiz-adv-x="480" 
d="M423 165h-187l-56 -199l-38 9l53 190h-138v39h149l28 100h-177v40h188l56 200l38 -12l-53 -188h137v-40h-148l-28 -100h176v-39z" />
    <glyph glyph-name="commaaccent" horiz-adv-x="317" 
d="M119 -232h-51l77 178h56z" />
    <glyph glyph-name="f.semp2" horiz-adv-x="284" 
d="M123 0h-44v619q0 100 40 149q40 47 109 47q49 0 73 -18l-21 -42q-22 16 -58 16q-49 0 -74 -38t-25 -104v-159h142v-41h-142v-429z" />
    <glyph glyph-name="f.sc" horiz-adv-x="409" 
d="M139 0h-46v523h280v-40l-234 1v-184l189 1v-41l-189 1v-261z" />
    <glyph glyph-name="grave.cap" horiz-adv-x="520" 
d="M418 842l-238 43l23 49l227 -61z" />
    <glyph glyph-name="acute.cap" horiz-adv-x="520" 
d="M430 885l-238 -43l-12 31l227 61z" />
    <glyph glyph-name="circumflex.cap" horiz-adv-x="520" 
d="M445 811l-149 69l-153 -69l-15 23l168 98h1l167 -99z" />
    <glyph glyph-name="caron.cap" horiz-adv-x="520" 
d="M464 916l-168 -100l-168 98l15 23l157 -70l145 71z" />
    <glyph glyph-name="tilde.cap" horiz-adv-x="834" 
d="M564 923l18 -30q-15 -19 -46 -40t-59 -21q-19 0 -61 25t-65 25q-33 0 -85 -46l-19 27q18 21 49.5 41.5t58.5 20.5q24 0 66 -25.5t59 -25.5q39 0 84 49z" />
    <glyph glyph-name="zero_slash.sc.alt" horiz-adv-x="679" 
d="M621 260q0 -113 -80.5 -191t-200.5 -78q-123 0 -203 78.5t-80 192.5t80 193t203 79t202 -77.5t79 -196.5zM201 73l239 399q-46 20 -100 20q-104 0 -170 -64.5t-66 -163.5q0 -57 26 -108t71 -83zM478 451l-239 -399q43 -20 96 -20q106 0 172.5 65t66.5 163q0 124 -96 191z
" />
    <glyph glyph-name="idotaccent.sc" horiz-adv-x="232" 
d="M139 0h-46v524h46v-524zM154 630q0 -15 -11.5 -26t-27.5 -11q-15 0 -26 11t-11 26q0 16 11 27.5t26 11.5q17 0 28 -11.5t11 -27.5z" />
    <glyph glyph-name="hyphen.sinf" horiz-adv-x="271" 
d="M208 -23h-150l5 36h150z" />
    <glyph glyph-name="hyphen.sup" horiz-adv-x="271" 
d="M208 507h-150l5 37h150z" />
    <glyph glyph-name="hyphen.dnom" horiz-adv-x="271" 
d="M208 156h-150l5 37h150z" />
    <glyph glyph-name="comma.sinf" horiz-adv-x="176" 
d="M61 -236h-32l46 106h43z" />
    <glyph glyph-name="comma.sup" horiz-adv-x="177" 
d="M61 294h-32l46 106h43z" />
    <glyph glyph-name="comma.dnom" horiz-adv-x="176" 
d="M61 -56h-32l46 105h43z" />
    <glyph glyph-name="plus.sc" horiz-adv-x="470" 
d="M256 73h-42v164h-162v40h162v164h42v-164h162v-40h-162v-164z" />
    <glyph glyph-name="plus.sinf" horiz-adv-x="381" 
d="M343 -4h-132v-125h-40v125h-133v37h133v126h40v-126h132v-37z" />
    <glyph glyph-name="plus.sup" horiz-adv-x="381" 
d="M343 526h-132v-125h-40v125h-133v38h133v126h40v-126h132v-38z" />
    <glyph glyph-name="plus.dnom" horiz-adv-x="395" 
d="M356 173h-140v-124h-36v124h-141v35h141v130h36v-130h140v-35z" />
    <glyph glyph-name="parenright.sc" horiz-adv-x="245" 
d="M100 -134l-33 15q55 205 55 361q0 110 -17.5 211t-38.5 162l34 14q60 -158 60 -388q0 -223 -60 -375z" />
    <glyph glyph-name="parenright.sup" horiz-adv-x="166" 
d="M68 238l-30 12q45 157 45 278q0 165 -46 286l31 11q50 -122 50 -299q0 -169 -50 -288z" />
    <glyph glyph-name="parenright.dnom" horiz-adv-x="166" 
d="M68 -112l-30 12q45 157 45 277q0 165 -46 286l31 11q50 -122 50 -299q0 -168 -50 -287z" />
    <glyph glyph-name="parenleft.sc" horiz-adv-x="245" 
d="M178 -119l-33 -15q-61 154 -61 375q0 225 60 388l35 -14q-21 -61 -38.5 -162t-17.5 -211q0 -162 55 -361z" />
    <glyph glyph-name="parenleft.sup" horiz-adv-x="167" 
d="M129 250l-30 -12q-52 120 -52 288q0 175 52 299l30 -11q-46 -128 -46 -286q0 -118 46 -278z" />
    <glyph glyph-name="parenleft.dnom" horiz-adv-x="167" 
d="M129 -100l-30 -12q-52 120 -52 287q0 175 52 299l30 -11q-46 -128 -46 -286q0 -117 46 -277z" />
    <glyph glyph-name="quotesingle.sc" horiz-adv-x="200" 
d="M116 361h-32l-9 203h50z" />
    <glyph glyph-name="ampersand.sc" horiz-adv-x="577" 
d="M573 0h-62l-81 92q-16 -30 -63 -65.5t-110 -35.5q-87 0 -146 54t-59 124q0 41 16.5 75.5t42.5 55.5t45 31.5t37 17.5l-8 9q-8 9 -12.5 15t-11 16t-9.5 21t-3 22q0 40 33.5 70t76.5 30q11 0 21 -1.5t17.5 -3t15 -5t12 -6t10.5 -6.5t8 -6.5t6 -6t5 -4.5l-28 -27
q-31 28 -66 28q-27 0 -47.5 -20t-20.5 -45q0 -7 2 -15t4.5 -13t8.5 -13t8.5 -11t11 -12t10.5 -11l194 1l-10 -35l-152 1zM402 122l-186 196q-27 -2 -72.5 -39.5t-45.5 -102.5q0 -63 49.5 -105t103.5 -42q64 0 103.5 33.5t47.5 59.5z" />
    <glyph glyph-name="ampersand.alt.sc" horiz-adv-x="574" 
d="M573 0h-62l-80 89q-16 -29 -63 -63.5t-111 -34.5q-87 0 -146 54t-59 124q0 41 16.5 76t41.5 56t44.5 32.5t36.5 17.5l-8 9q-8 9 -12 14t-10 15t-9 21t-3 22q0 40 33.5 70t76.5 30q11 0 21 -1.5t17.5 -3t15 -5t12 -6t10.5 -6.5t8 -6.5t6 -6t5 -4.5l-28 -27q-31 28 -66 28
q-27 0 -47.5 -20t-20.5 -45q0 -9 2.5 -17t8.5 -16.5t9.5 -13t13 -14.5t12.5 -13zM402 122l-186 196q-27 -2 -72.5 -39.5t-45.5 -102.5q0 -63 49.5 -105t103.5 -42q64 0 103.5 33.5t47.5 59.5z" />
    <glyph glyph-name="ampersand.alt" horiz-adv-x="719" 
d="M739 0h-68l-114 138q-4 -14 -20.5 -36.5t-45 -49t-76 -45.5t-101.5 -19q-112 0 -188 76t-76 184q0 100 59 170t132 86q-60 70 -60 124q0 63 39 102.5t104 39.5q16 0 30 -2t25.5 -6t20 -7.5t17 -9.5t12.5 -9.5t10.5 -9.5t7.5 -7l-31 -32q-43 40 -92 40q-40 0 -68.5 -23.5
t-28.5 -71.5q0 -23 11 -47.5t21.5 -38t31.5 -37.5zM525 172l-254 295q-9 -1 -26.5 -7.5t-43 -23t-47.5 -39.5t-38 -61t-16 -83q0 -97 66.5 -159.5t148.5 -62.5q40 0 75 12.5t57.5 29.5t40.5 38t26 36t11 25z" />
    <glyph glyph-name="percent.sc" horiz-adv-x="625" 
d="M195 -19l-32 11l250 552l32 -12zM150 318q-45 0 -76.5 31.5t-31.5 76.5t31.5 76.5t76.5 31.5t76.5 -31.5t31.5 -76.5t-32 -76.5t-76 -31.5zM150 351q29 0 51 23t22 52t-22 52t-51 23t-51 -23t-22 -52t22 -52t51 -23zM476 -9q-45 0 -76.5 31t-31.5 76t31.5 76.5t76.5 31.5
t76.5 -31.5t31.5 -76.5t-31.5 -76t-76.5 -31zM476 23q29 0 51 23t22 52t-22 52t-51 23t-51 -23t-22 -52t22 -52t51 -23z" />
    <glyph glyph-name="dollar.sc" horiz-adv-x="439" 
d="M243 -68l-32 1v70h-1q-51 0 -96.5 21t-63.5 45l27 33q45 -57 134 -58v217l-3 2q-30 14 -47 23.5t-39 26.5t-32 38t-10 47q0 54 37.5 87.5t93.5 38.5v80h32v-80q72 -5 115 -48l-25 -32q-40 36 -90 40v-188q74 -36 103.5 -66.5t29.5 -90.5q0 -48 -36 -86.5t-97 -47.5v-73z
M243 246v-200q39 8 62.5 32.5t23.5 60.5q0 38 -18.5 60t-67.5 47zM211 311v173q-36 -5 -60 -25.5t-24 -55.5q0 -24 13.5 -43t28 -27.5t42.5 -21.5z" />
    <glyph glyph-name="dollar.alt" horiz-adv-x="487" 
d="M268 -100h-39v102q-64 2 -117 33.5t-72 69.5l25 33q66 -91 164 -94v339q-39 21 -59.5 34t-46.5 35.5t-38 51.5t-12 65q0 76 44 121.5t112 53.5v99h39v-98q84 -5 151 -75l-26 -32q-58 60 -125 66v-289q40 -21 63 -36t51.5 -41.5t42 -63t13.5 -83.5q0 -67 -46.5 -121
t-123.5 -65v-105zM268 361v-315q56 8 90 46.5t34 97.5q0 62 -32.5 102t-91.5 69zM229 435v268q-49 -7 -79.5 -40t-30.5 -88q0 -49 28 -80t82 -60z" />
    <glyph glyph-name="dollar.sinf" horiz-adv-x="323" 
d="M182 -222h-31v54q-40 1 -72 18.5t-46 37.5l21 24q45 -48 97 -51v167q-32 15 -48.5 24t-32.5 29.5t-16 45.5q0 40 28 65t69 29v52h31v-52q45 -2 92 -40l-19 -23q-40 31 -73 34v-143q24 -11 38 -18.5t31.5 -21.5t26 -33t8.5 -43q0 -35 -28.5 -63.5t-75.5 -35.5v-56zM182 13
v-151q30 5 48.5 24t18.5 47q0 53 -67 80zM151 64v127q-26 -4 -43 -19.5t-17 -41.5q0 -23 15.5 -37.5t44.5 -28.5z" />
    <glyph glyph-name="dollar.sup" horiz-adv-x="317" 
d="M178 308h-31v54q-40 1 -72 18.5t-46 37.5l21 24q45 -48 97 -51v168q-32 15 -48.5 24t-32.5 29.5t-16 45.5q0 40 28 65t69 29v52h31v-52q45 -2 92 -40l-19 -23q-40 31 -73 34v-143q24 -11 38 -18.5t31.5 -21.5t26 -33t8.5 -44q0 -35 -28.5 -63.5t-75.5 -35.5v-56zM178 544
v-152q30 5 48.5 24t18.5 47q0 52 -67 81zM147 595v127q-26 -4 -43 -19.5t-17 -41.5q0 -23 15.5 -37.5t44.5 -28.5z" />
    <glyph glyph-name="dollar.dnom" horiz-adv-x="323" 
d="M182 -42h-31v53q-40 1 -72 18.5t-46 37.5l21 24q45 -48 97 -51v168q-32 15 -48.5 24t-32.5 29.5t-16 45.5q0 40 28 65t69 29v52h31v-52q45 -2 92 -40l-19 -23q-40 31 -73 34v-143q24 -11 38 -18.5t31.5 -21.5t26 -33t8.5 -44q0 -35 -28.5 -63.5t-75.5 -35.5v-55zM182 193
v-152q30 5 48.5 24t18.5 47q0 52 -67 81zM151 244v127q-26 -4 -43 -19.5t-17 -41.5q0 -23 15.5 -37.5t44.5 -28.5z" />
    <glyph glyph-name="numbersign.sc" horiz-adv-x="520" 
d="M327 -4l-38 4l23 176h-128l-24 -180l-38 4l23 176h-98l5 37h98l15 115h-100l5 37h100l22 173l40 -5l-23 -168h128l22 173l38 -5l-22 -168h99l-5 -37h-99l-15 -115h100l-5 -37h-100zM317 213l15 115h-128l-15 -115h128z" />
    <glyph glyph-name="numbersign.alt.sc" horiz-adv-x="958" 
d="M570 -18l-434 445l2 -427h-46v539l434 -446l-2 431h46v-542zM781 206q-51 0 -87 36t-36 88q0 50 36 86.5t87 36.5t87.5 -36.5t36.5 -86.5q0 -52 -36.5 -88t-87.5 -36zM782 240q36 0 62 26.5t26 62.5t-26 63t-62 27t-61.5 -27t-25.5 -63t25.5 -62.5t61.5 -26.5zM883 88
h-195l5 34h195z" />
    <glyph glyph-name="numbersign.alt" horiz-adv-x="1217" 
d="M1174 472q0 -73 -49.5 -122.5t-127.5 -49.5t-128 49t-50 123t50 123.5t128 49.5t127.5 -50t49.5 -123zM995 336q64 0 99.5 37t35.5 99q0 59 -38 98t-96 39q-63 0 -98.5 -38.5t-35.5 -100.5q0 -58 38.5 -96t94.5 -38zM1116 138h-245l5 41h245zM730 -24l-588 671v-647h-48
v775l588 -669v651h48v-781z" />
    <glyph glyph-name="quotedbl.sc" horiz-adv-x="295" 
d="M116 361h-32l-9 203h50zM211 361h-32l-9 203h50z" />
    <glyph glyph-name="exclam.sc" horiz-adv-x="240" 
d="M138 144h-37l-11 400h59zM165 33q0 -18 -13.5 -30.5t-32.5 -12.5q-18 0 -31 12.5t-13 30.5q0 19 13 32.5t31 13.5q21 0 33.5 -13t12.5 -33z" />
    <glyph glyph-name="multiply.sinf" horiz-adv-x="394" 
d="M343 -92l-28 -23l-117 106l-116 -105l-30 22l123 104l-122 105l29 23l117 -106l116 106l27 -23l-118 -104z" />
    <glyph glyph-name="multiply.sc" horiz-adv-x="470" 
d="M400 124l-32 -27l-132 135l-134 -135l-32 26l138 135l-138 138l32 28l136 -140l130 140l32 -28l-134 -137z" />
    <glyph glyph-name="Yacute.alt" horiz-adv-x="523" 
d="M387 885l-238 -43l-12 31l227 61zM285 0h-48v328l-239 429h56l204 -365q4 -6 5 -15q1 9 5 15l206 365h54l-243 -429v-328z" />
    <glyph glyph-name="germandbls.alt" horiz-adv-x="525" 
d="M209 8l10 40q52 -20 87 -20q53 0 96 32t43 91q0 11 -1.5 20.5t-6 18.5t-8 15t-12 13.5t-13 12t-16 11.5t-16 9.5l-18 10t-17.5 9.5q-33 19 -53 34.5t-37 49.5t-17 79q0 19 4 36t14 34t16 26t22 29l20 25q42 53 42 101q0 31 -10.5 53t-27 32t-31 14t-27.5 4
q-54 0 -91.5 -41t-37.5 -114v-633h-44v618q0 95 46.5 152t135.5 57q58 0 95 -37t37 -97q0 -17 -4 -34t-8 -28t-14.5 -28t-15 -23.5t-18.5 -24.5t-17 -22q-42 -55 -42 -94q0 -38 18 -67t36 -41.5t55 -33.5q27 -16 41 -25t33 -27t27 -40.5t8 -51.5q0 -73 -53 -118t-143 -45
q-38 0 -87 18z" />
    <glyph glyph-name="germandbls.semp" horiz-adv-x="516" 
d="M216 -245l2 37q46 8 93.5 35.5t86 82t38.5 120.5q0 63 -34.5 101t-104.5 38q-42 0 -91 -13l173 273h-231v-673h-44v673h-75v41h75v149q0 100 40 149q40 47 109 47q49 0 73 -18l-21 -42q-22 16 -58 16q-49 0 -74 -38t-25 -104v-159h310l-177 -261q17 3 33 3
q74 0 120.5 -52.5t46.5 -132.5q0 -60 -29 -112t-72 -84t-86 -51.5t-78 -24.5z" />
    <glyph glyph-name="agrave.alt" horiz-adv-x="564" 
d="M337 600l-21 -17l-138 138l41 33zM487 -1h-44v90q-26 -43 -70 -71.5t-101 -28.5q-87 0 -155.5 66.5t-68.5 178.5q0 116 75 182.5t179 66.5q59 0 109.5 -20.5t75.5 -44.5v-419zM443 144v255q-63 43 -142 43q-85 0 -146 -54.5t-61 -149.5q0 -88 52.5 -148t129.5 -60
q57 0 99.5 33t67.5 81z" />
    <glyph glyph-name="agrave.sc.semp" 
d="M341 620l-21 -17l-138 138l41 33zM525 0h-48l-49 103h-319l-48 -103h-49l257 539zM409 144l-140 297l-140 -297h280z" />
    <glyph glyph-name="agrave.sc" 
d="M342 620l-21 -17l-138 138l41 33zM525 0h-48l-68 143h-280l-68 -143h-49l257 539zM391 185l-122 257l-121 -257h243z" />
    <glyph glyph-name="period.dnom" horiz-adv-x="170" 
d="M116 22q0 -11 -9 -19.5t-22 -8.5t-21.5 8.5t-8.5 19.5q0 13 8.5 21.5t21.5 8.5t22 -8.5t9 -21.5z" />
    <glyph glyph-name="equal.sc" horiz-adv-x="522" 
d="M444 304h-366v40h366v-40zM444 165h-366v39h366v-39z" />
    <glyph glyph-name="period.sup" horiz-adv-x="175" 
d="M118 373q0 -12 -9 -20.5t-22 -8.5t-21.5 9t-8.5 20q0 13 8.5 21.5t21.5 8.5t22 -8.5t9 -21.5z" />
    <glyph glyph-name="greater.sc" horiz-adv-x="464" 
d="M420 244l-330 -178l-20 33l299 158l-299 170l20 32l330 -190v-25z" />
    <glyph glyph-name="question.sc" horiz-adv-x="365" 
d="M291 232l23 -23q-14 -23 -52.5 -46.5t-86.5 -23.5q-45 0 -81.5 28t-36.5 71q0 21 6.5 38.5t22.5 32.5t25 21.5t31 21.5q34 22 49.5 33t32 31t16.5 39q0 22 -17 37.5t-42 15.5q-42 0 -83 -30l-18 28q45 39 106 39q46 0 71 -27t25 -63q0 -12 -3.5 -23.5t-11.5 -22.5
t-14.5 -19t-19.5 -18.5t-20 -15.5t-22.5 -15.5t-19.5 -13.5q-5 -3 -18.5 -12t-18 -12.5t-14 -11.5t-13 -14.5t-7 -16.5t-3.5 -21q0 -26 24 -45t58 -19q66 0 112 57zM211 33q0 -17 -12.5 -29.5t-31.5 -12.5q-18 0 -31 12.5t-13 29.5q0 19 13 32t31 13q19 0 31.5 -13t12.5 -32
z" />
    <glyph glyph-name="A.semp" horiz-adv-x="666" 
d="M668 0h-51l-74 170h-423l-71 -170h-50l331 778zM525 214l-195 461l-192 -461h387z" />
    <glyph glyph-name="J.alt" horiz-adv-x="260" 
d="M-31 -281l-9 46q91 35 118.5 90.5t27.5 192.5v709h48v-718q0 -106 -19.5 -166.5t-56 -92t-109.5 -61.5z" />
    <glyph glyph-name="J.semp" horiz-adv-x="448" 
d="M300 208v505h-177v43h225v-557q0 -102 -51.5 -156.5t-131.5 -54.5q-62 0 -133 38l19 40q61 -35 115 -35q64 0 99 46t35 131z" />
    <glyph glyph-name="J.semp2" horiz-adv-x="434" 
d="M286 208v549h48v-558q0 -102 -51.5 -156.5t-131.5 -54.5q-54 0 -113 30l19 40q47 -27 95 -27q66 0 100 47.5t34 129.5z" />
    <glyph glyph-name="bracketleft.dnom" horiz-adv-x="198" 
d="M165 -85h-104v551h104v-31h-68v-491h68v-29z" />
    <glyph glyph-name="bracketleft.sup" horiz-adv-x="198" 
d="M165 265h-104v552h104v-31h-68v-492h68v-29z" />
    <glyph glyph-name="bracketleft.sinf" horiz-adv-x="198" 
d="M165 -265h-104v551h104v-31h-68v-491h68v-29z" />
    <glyph glyph-name="bracketleft.sc" horiz-adv-x="347" 
d="M289 -117h-122v719h122v-37l-83 2v-649l83 2v-37zM107 242q0 -16 -12 -27.5t-28 -11.5t-28 11.5t-12 27.5q0 17 11.5 29t28.5 12t28.5 -12t11.5 -29z" />
    <glyph glyph-name="backslash.sc" horiz-adv-x="356" 
d="M316 -24l-37 -13l-239 583l37 16z" />
    <glyph glyph-name="period.sinf" horiz-adv-x="170" 
d="M116 -157q0 -12 -9 -20.5t-22 -8.5t-21.5 9t-8.5 20q0 13 8.5 21.5t21.5 8.5t22 -8.5t9 -21.5z" />
    <glyph glyph-name="bracketright.dnom" horiz-adv-x="198" 
d="M137 -85h-104v30h68v491h-68v30h104v-551z" />
    <glyph glyph-name="slash.sc" horiz-adv-x="356" 
d="M77 -37l-37 13l239 586l37 -16z" />
    <glyph glyph-name="less.sc" horiz-adv-x="463" 
d="M373 54l-330 191v24l330 178l20 -33l-298 -158l298 -170z" />
    <glyph glyph-name="bracketright.sup" horiz-adv-x="198" 
d="M137 265h-104v30h68v492h-68v30h104v-552z" />
    <glyph glyph-name="bracketright.sinf" horiz-adv-x="198" 
d="M137 -265h-104v30h68v491h-68v30h104v-551z" />
    <glyph glyph-name="bracketright.sc" horiz-adv-x="347" 
d="M180 -115h-122v37l83 -2v647l-83 -2v37h122v-717zM320 242q0 -16 -12 -27.5t-28 -11.5t-28 11.5t-12 27.5q0 17 11.5 29t28.5 12t28.5 -12t11.5 -29z" />
    <glyph glyph-name="grave.sc" horiz-adv-x="269" 
d="M215 620l-21 -17l-139 138l41 33z" />
    <glyph glyph-name="a.alt" horiz-adv-x="564" 
d="M487 -1h-44v90q-26 -43 -70 -71.5t-101 -28.5q-87 0 -155.5 66.5t-68.5 178.5q0 116 75 182.5t179 66.5q59 0 109.5 -20.5t75.5 -44.5v-419zM443 144v255q-63 43 -142 43q-85 0 -146 -54.5t-61 -149.5q0 -88 52.5 -148t129.5 -60q57 0 99.5 33t67.5 81z" />
    <glyph glyph-name="a.sc.semp" 
d="M525 0h-48l-49 103h-319l-48 -103h-49l257 539zM409 144l-140 297l-140 -297h280z" />
    <glyph glyph-name="a.sc" 
d="M525 0h-48l-68 143h-280l-68 -143h-49l257 539zM391 185l-122 257l-121 -257h243z" />
    <glyph glyph-name="b.sc" horiz-adv-x="483" 
d="M236 0h-143v524h109q179 0 179 -131q0 -38 -28 -70t-65 -43q52 -5 96.5 -41t44.5 -92q0 -70 -49.5 -108.5t-143.5 -38.5zM139 287l43 1q73 1 112.5 29t39.5 75q0 93 -128 93h-67v-198zM139 39l100 1q70 1 106 29t36 77q0 44 -39 73.5t-98 29.5h-105v-210z" />
    <glyph glyph-name="e.sc" horiz-adv-x="446" 
d="M403 1h-310v522h286v-40l-240 1v-184l193 1v-40l-193 1v-222l264 1v-40z" />
    <glyph glyph-name="f_j" horiz-adv-x="495" 
d="M149 0h-44v429h-80v41h80v149q0 100 40 149q40 47 109 47q49 0 73 -18l-21 -42q-22 16 -58 16q-49 0 -74 -38t-25 -104v-159h117v-41h-117v-429zM293 -267l-19 38q15 7 25.5 12.5t20.5 13.5t16 12.5t11.5 17t8.5 18.5t6 25t3.5 29t1.5 37.5t1 45v55.5v434h44v-428
q0 -64 -0.5 -92.5t-4 -66.5t-10.5 -54t-21 -37t-33.5 -33.5t-49.5 -26.5zM431 611q0 -17 -11.5 -28.5t-28.5 -11.5t-28.5 11.5t-11.5 28.5t11.5 28.5t28.5 11.5t28.5 -11.5t11.5 -28.5z" />
    <glyph glyph-name="equal.dnom" horiz-adv-x="433" 
d="M375 111h-317v35h317v-35zM375 234h-317v35h317v-35z" />
    <glyph glyph-name="f_t" horiz-adv-x="547" 
d="M419 0h-44v429h-226v-429h-44v429h-80v41h80v149q0 100 40 149q40 47 109 47q49 0 73 -18l-21 -42q-22 16 -58 16q-49 0 -74 -38t-25 -104v-159h226v171h44v-171h114v-41h-114v-429z" />
    <glyph glyph-name="equal.sup" horiz-adv-x="433" 
d="M375 462h-317v36h317v-36zM375 585h-317v35h317v-35z" />
    <glyph glyph-name="f.alt" horiz-adv-x="285" 
d="M149 -244h-44v673h-80v41h80v149q0 100 40 149q39 47 109 47q49 0 73 -18l-21 -42q-22 16 -58 16q-49 0 -74 -38t-25 -104v-159h117v-41h-117v-673z" />
    <glyph glyph-name="f.semp" horiz-adv-x="284" 
d="M123 -244h-44v863q0 100 40 149q40 47 109 47q49 0 73 -18l-21 -42q-22 16 -58 16q-49 0 -74 -38t-25 -104v-159h142v-41h-142v-673z" />
    <glyph glyph-name="i.sc" horiz-adv-x="232" 
d="M139 0h-46v524h46v-524z" />
    <glyph glyph-name="j.semp" horiz-adv-x="210" 
d="M127 -254l-44 -10v735h44v-725zM146 610q0 -16 -11.5 -27.5t-28.5 -11.5q-16 0 -28 11.5t-12 27.5q0 18 11.5 29.5t28.5 11.5t28.5 -11.5t11.5 -29.5z" />
    <glyph glyph-name="j.sc.semp" horiz-adv-x="347" 
d="M228 199v285h-147v39h193v-339q0 -105 -36.5 -150.5t-114.5 -45.5q-61 0 -113 38l19 36q49 -35 95 -35q61 0 82.5 40.5t21.5 131.5z" />
    <glyph glyph-name="j.sc" horiz-adv-x="232" 
d="M-1 -181l-17 40q68 26 89.5 62t21.5 131v472h46v-476q0 -107 -28.5 -151.5t-111.5 -77.5z" />
    <glyph glyph-name="k.sc" horiz-adv-x="505" 
d="M498 0h-77l-282 239v-239h-46v524h46v-240l251 240h70l-285 -262z" />
    <glyph glyph-name="l.sc" horiz-adv-x="410" 
d="M380 1h-287v523h46v-484l241 1v-40z" />
    <glyph glyph-name="m.alt" horiz-adv-x="816" 
d="M741 0h-44v293q0 76 -29.5 112.5t-97.5 36.5q-40 0 -83 -15.5t-70 -36.5q14 -37 14 -87v-303h-44v293q0 76 -29.5 112.5t-97.5 36.5q-39 0 -77.5 -13t-61.5 -30v-399h-44v418q79 65 182 65q96 0 138 -57q78 57 172 57q172 0 172 -180v-303z" />
    <glyph glyph-name="r.sc" horiz-adv-x="481" 
d="M472 0h-72l-231 210h-30v-210h-46v524h114q48 0 89.5 -13t72.5 -48.5t31 -89.5q0 -67 -49 -111.5t-133 -50.5zM139 249h40q84 0 129 32t45 92q0 54 -39.5 83t-102.5 29h-72v-236z" />
    <glyph glyph-name="equal.sinf" horiz-adv-x="433" 
d="M375 -68h-317v36h317v-36zM375 54h-317v35h317v-35z" />
    <glyph glyph-name="s.sc" horiz-adv-x="435" 
d="M41 61l29 32q51 -61 143 -61q52 0 86.5 27t34.5 72q0 43 -27 72.5t-65 46.5t-76.5 33.5t-65.5 46.5t-27 73q0 62 46 97t111 35q85 0 135 -52l-26 -32q-45 43 -109 43q-45 0 -77 -22.5t-32 -64.5q0 -34 27 -58t65.5 -40t77.5 -34.5t66 -54.5t27 -89q0 -55 -48 -97.5
t-126 -42.5q-54 0 -102 22t-67 48z" />
    <glyph glyph-name="t.alt" horiz-adv-x="286" 
d="M257 31l-30 -39q-59 0 -90 31t-31 111v295h-87v41h87v171h44v-171h114v-41h-114v-286q0 -68 25 -90t82 -22z" />
    <glyph glyph-name="t.alt2" horiz-adv-x="300" 
d="M172 0h-44v429h-114v41h114v171h44v-171h114v-41h-114v-429z" />
    <glyph glyph-name="t.semp" horiz-adv-x="280" 
d="M123 0h-44v659h44v-189h146v-41h-146v-429z" />
    <glyph glyph-name="t.sc" horiz-adv-x="444" 
d="M245 0h-46v484l-171 -1v40h388v-40l-171 1v-484z" />
    <glyph glyph-name="u.sc" horiz-adv-x="586" 
d="M450 72v452h46v-466q-60 -67 -205 -67q-97 0 -150.5 50.5t-53.5 147.5v335h46v-316q0 -95 42 -135.5t133 -40.5q96 0 142 40z" />
    <glyph glyph-name="v.sc" horiz-adv-x="499" 
d="M250 -20l-237 544h57l176 -422q4 -9 6 -20q1 9 5 20l172 422h56z" />
    <glyph glyph-name="w.sc" horiz-adv-x="772" 
d="M565 -20l-179 438l-177 -437l-189 543h53l137 -406q1 -4 4 -24q2 16 5 24l168 422l170 -422q3 -7 5 -23q0 9 4 23l132 406h53z" />
    <glyph glyph-name="x.sc" horiz-adv-x="488" 
d="M459 0h-55l-160 234l-163 -234h-55l197 270l-182 254h55l150 -220l151 220h55l-185 -254z" />
    <glyph glyph-name="y.sc" horiz-adv-x="435" 
d="M240 0h-46l1 226l-183 298h54l153 -258l153 258h53l-186 -298z" />
    <glyph glyph-name="braceleft.sinf" horiz-adv-x="209" 
d="M178 -237l-8 -26q-49 3 -68 30t-19 74v71q0 37 -13 60.5t-46 38.5q34 16 46.5 39.5t12.5 60.5v71q0 47 19 74t68 30l8 -26q-17 -2 -28.5 -8t-17 -12.5t-8.5 -19t-3.5 -21.5t-0.5 -27v-68q0 -58 -46 -93q46 -34 46 -92v-68q0 -18 0.5 -27t3.5 -21.5t8.5 -19t17 -12.5
t28.5 -8z" />
    <glyph glyph-name="braceleft.sc" horiz-adv-x="274" 
d="M218 -105l-6 -20q-58 4 -80 37t-22 93v96q0 49 -15 79.5t-54 51.5q39 21 54 51.5t15 79.5v96q0 61 22 94t80 37l6 -20q-24 -4 -38.5 -14.5t-20.5 -31t-7 -35.5t-1 -46v-89q0 -38 -16 -65.5t-50 -56.5q34 -29 50 -56.5t16 -65.5v-89q0 -30 1 -45t7 -35.5t20.5 -31
t38.5 -14.5z" />
    <glyph glyph-name="bar.sc" horiz-adv-x="241" 
d="M141 -94h-41v703h41v-703z" />
    <glyph glyph-name="braceright.dnom" horiz-adv-x="209" 
d="M39 -83l-8 26q17 2 28.5 8t17 12.5t8.5 19t3.5 21t0.5 26.5v68q0 58 46 93q-46 35 -46 93v68q0 18 -0.5 27t-3.5 21.5t-8.5 19t-17 12.5t-28.5 8l8 26q49 -3 68 -30t19 -74v-71q0 -37 12.5 -60.5t46.5 -39.5q-34 -16 -46.5 -39.5t-12.5 -60.5v-71q0 -47 -19 -73.5
t-68 -29.5z" />
    <glyph glyph-name="braceright.sup" horiz-adv-x="208" 
d="M39 267l-8 26q17 2 28.5 8t17 12.5t8.5 19t3.5 21.5t0.5 27v68q0 58 46 93q-46 35 -46 93v68q0 18 -0.5 27t-3.5 21.5t-8.5 19t-17 12.5t-28.5 8l8 26q49 -3 68 -30t19 -74v-71q0 -37 12.5 -60.5t46.5 -39.5q-34 -16 -46.5 -39.5t-12.5 -60.5v-71q0 -47 -19 -74t-68 -30z
" />
    <glyph glyph-name="braceright.sinf" horiz-adv-x="209" 
d="M39 -263l-8 26q17 2 28.5 8t17 12.5t8.5 19t3.5 21.5t0.5 27v68q0 58 46 92q-46 35 -46 93v68q0 18 -0.5 27t-3.5 21.5t-8.5 19t-17 12.5t-28.5 8l8 26q49 -3 68 -30t19 -74v-71q0 -37 12.5 -60.5t46.5 -39.5q-33 -15 -46 -38.5t-13 -60.5v-71q0 -47 -19 -74t-68 -30z
" />
    <glyph glyph-name="braceright.sc" horiz-adv-x="274" 
d="M62 -125l-6 20q24 4 38.5 14.5t20.5 31t7 35.5t1 45v89q0 38 16 65.5t50 56.5q-34 29 -50 56.5t-16 65.5v89q0 31 -1 46t-7 35.5t-20.5 31t-38.5 14.5l6 20q58 -4 80 -37t22 -94v-96q0 -49 15 -79.5t54 -51.5q-39 -21 -54 -51.5t-15 -79.5v-96q0 -60 -22 -93t-80 -37z
" />
    <glyph glyph-name="exclamdown.sc" horiz-adv-x="239" 
d="M149 -10h-59l11 399h37zM120 454q-21 0 -33.5 13t-12.5 33q0 18 13.5 31t32.5 13q18 0 31 -13t13 -31q0 -19 -13 -32.5t-31 -13.5z" />
    <glyph glyph-name="cent.dnom" horiz-adv-x="336" 
d="M191 -13h-29v67q-58 7 -94.5 43.5t-36.5 89.5t36.5 89t94.5 43v78h29v-78q34 -1 62 -13.5t38 -22.5l-21 -24q-32 28 -79 30v-206q53 0 94 37l16 -24q-34 -40 -110 -43v-66zM162 85v201q-39 -7 -66 -32t-27 -68q0 -40 26.5 -67t66.5 -34z" />
    <glyph glyph-name="cent.sup" horiz-adv-x="337" 
d="M192 337h-29v68q-58 7 -94.5 43.5t-36.5 89.5t36.5 89t94.5 43v78h29v-78q34 -1 62 -13.5t38 -22.5l-21 -24q-32 28 -79 30v-206q53 0 94 37l16 -24q-34 -40 -110 -43v-67zM163 436v201q-39 -7 -66 -32t-27 -68q0 -40 26.5 -67t66.5 -34z" />
    <glyph glyph-name="cent.sinf" horiz-adv-x="336" 
d="M191 -193h-29v68q-58 7 -94.5 43t-36.5 89t36.5 89t94.5 43v78h29v-78q34 -1 62 -13.5t38 -22.5l-21 -24q-32 28 -79 30v-205q53 0 94 37l16 -24q-34 -40 -110 -43v-67zM162 -94v200q-39 -7 -66 -32t-27 -68q0 -40 26.5 -66.5t66.5 -33.5z" />
    <glyph glyph-name="cent.sc" horiz-adv-x="431" 
d="M247 -18h-37q0 17 0.5 51.5t0.5 52.5q-69 9 -113.5 57.5t-44.5 117.5q0 70 44 118t114 59q0 17 -0.5 51.5t-0.5 51.5h37q0 -17 -0.5 -50.5t-0.5 -50.5q44 -2 77.5 -19t45.5 -31l-26 -28q-43 38 -97 40v-281q69 3 116 51l24 -26q-49 -59 -140 -61q0 -18 0.5 -52t0.5 -51z
M211 124v275q-48 -9 -81 -44.5t-33 -93.5q0 -55 32.5 -91.5t81.5 -45.5z" />
    <glyph glyph-name="sterling.dnom" horiz-adv-x="354" 
d="M325 34l4 -32q-33 -6 -73 -6q-10 0 -46.5 7t-56.5 7q-21 0 -49.5 -6t-46 -12t-22.5 -8l-12 28q68 23 84 26v120h-45v31h45v91q0 64 23.5 93t72.5 29q32 0 55 -13l-18 -30q-17 10 -39 10q-31 0 -43 -19.5t-12 -56.5v-104h84v-31h-84v-117h16q16 0 49.5 -8t51.5 -8
q33 0 62 9z" />
    <glyph glyph-name="sterling.sup" horiz-adv-x="354" 
d="M325 385l4 -32q-26 -7 -73 -7q-10 0 -46.5 7.5t-56.5 7.5q-21 0 -49.5 -6.5t-46 -12t-22.5 -8.5l-12 29q68 23 84 26v120h-45v31h45v91q0 64 23.5 93t72.5 29q32 0 55 -13l-18 -30q-17 10 -39 10q-31 0 -43 -19.5t-12 -56.5v-104h84v-31h-84v-117h16q16 0 49.5 -8
t51.5 -8q33 0 62 9z" />
    <glyph glyph-name="sterling.sinf" horiz-adv-x="354" 
d="M325 -145l4 -32q-26 -7 -73 -7q-10 0 -46.5 7.5t-56.5 7.5q-21 0 -49.5 -6.5t-46 -12t-22.5 -8.5l-12 29q68 23 84 26v120h-45v30h45v91q0 64 23.5 93t72.5 29q32 0 55 -13l-18 -30q-17 10 -39 10q-31 0 -43 -19.5t-12 -56.5v-104h84v-30h-84v-117h16q16 0 49.5 -8
t51.5 -8q33 0 62 9z" />
    <glyph glyph-name="sterling.sc" horiz-adv-x="449" 
d="M404 34l5 -38q-27 -9 -71 -9q-23 0 -69 10.5t-71 10.5q-37 0 -85 -14.5t-58 -21.5l-14 34q2 2 17 8t40 14t47 13v175h-64v38h64v137q0 143 114 143q36 0 65 -16l-22 -37q-23 13 -48 13q-67 0 -67 -92v-148h110v-38h-110v-173q12 2 20 2q18 0 62.5 -11.5t60.5 -11.5
q36 0 74 12z" />
    <glyph glyph-name="guillemotleft.sc" horiz-adv-x="454" 
d="M225 50h-40l-123 209l120 209h40l-121 -209zM389 50h-41l-124 209l121 209h40l-121 -209z" />
    <glyph glyph-name="macron.sc" horiz-adv-x="563" 
d="M426 616h-289v41h289v-41z" />
    <glyph glyph-name="degree.sc" horiz-adv-x="370" 
d="M185 422q-51 0 -87 36t-36 88q0 50 36 86.5t87 36.5t87.5 -36.5t36.5 -86.5q0 -52 -36.5 -88t-87.5 -36zM186 456q36 0 62 26.5t26 62.5t-26 63t-62 27t-61.5 -27t-25.5 -63t25.5 -62.5t61.5 -26.5z" />
    <glyph glyph-name="plusminus.sc" horiz-adv-x="506" 
d="M436 1h-366v38h366v-38zM274 91h-42v164h-162v40h162v164h42v-164h162v-40h-162v-164z" />
    <glyph glyph-name="acute.sc" horiz-adv-x="268" 
d="M75 603l-20 17l118 154l40 -33z" />
    <glyph glyph-name="paragraph.sc" horiz-adv-x="525" 
d="M330 531v-522q-127 0 -206 73.5t-79 182.5q0 111 79.5 188.5t205.5 77.5zM436 -137h-46v671h46v-671z" />
    <glyph glyph-name="periodcentered.sc" horiz-adv-x="245" 
d="M166 250q0 -18 -13 -30.5t-31 -12.5t-31 13t-13 30q0 19 13 32t31 13q19 0 31.5 -13t12.5 -32z" />
    <glyph glyph-name="guillemotright.sc" horiz-adv-x="454" 
d="M106 50h-41l125 209l-121 209h40l121 -209zM269 50h-40l124 209l-121 209h40l120 -209z" />
    <glyph glyph-name="questiondown.sc" horiz-adv-x="366" 
d="M267 48l18 -28q-43 -38 -106 -38q-46 0 -71 26.5t-25 62.5q0 12 3.5 23.5t11.5 22.5t14.5 19t19.5 18.5t20 15.5t22.5 15.5t19.5 13.5q5 3 18.5 12t18 12.5t14 11.5t13 14.5t7 16.5t3.5 21q0 26 -24 45t-58 19q-66 0 -112 -57l-23 23q14 23 52.5 46.5t86.5 23.5
q45 0 81.5 -28t36.5 -71q0 -21 -6.5 -38.5t-22.5 -32.5t-25 -21.5t-31 -21.5q-34 -22 -49.5 -33t-32 -31t-16.5 -39q0 -22 17 -37.5t42 -15.5q42 0 83 30zM198 448q-19 0 -31.5 13t-12.5 32q0 17 13 30t31 13t31 -13t13 -30q0 -19 -13 -32t-31 -13z" />
    <glyph glyph-name="Agrave.semp" horiz-adv-x="666" 
d="M429 842l-238 43l23 49l227 -61zM668 0h-51l-74 170h-423l-71 -170h-50l331 778zM525 214l-195 461l-192 -461h387z" />
    <glyph glyph-name="Aacute.semp" horiz-adv-x="666" 
d="M456 885l-238 -43l-12 31l227 61zM668 0h-51l-74 170h-423l-71 -170h-50l331 778zM525 214l-195 461l-192 -461h387z" />
    <glyph glyph-name="Atilde.semp" horiz-adv-x="666" 
d="M486 923l18 -30q-15 -19 -46 -40t-59 -21q-19 0 -61 25t-65 25q-33 0 -85 -46l-19 27q18 21 49.5 41.5t58.5 20.5q24 0 66 -25.5t59 -25.5q39 0 84 49zM668 0h-51l-74 170h-423l-71 -170h-50l331 778zM525 214l-195 461l-192 -461h387z" />
    <glyph glyph-name="Adieresis.semp" horiz-adv-x="666" 
d="M238 886q0 -15 -11.5 -26t-27.5 -11q-15 0 -26 11t-11 26q0 16 11 27.5t26 11.5q17 0 28 -11.5t11 -27.5zM502 886q0 -16 -11 -26.5t-28 -10.5q-15 0 -25.5 11t-10.5 26q0 17 10 28t26 11q18 0 28.5 -11t10.5 -28zM668 0h-51l-74 170h-423l-71 -170h-50l331 778zM525 214
l-195 461l-192 -461h387z" />
    <glyph glyph-name="Aring.semp" horiz-adv-x="666" 
d="M436 900q0 -43 -30.5 -73t-73.5 -30t-73.5 30t-30.5 73t30.5 73.5t73.5 30.5t73.5 -31t30.5 -73zM403 901q0 29 -20.5 49.5t-49.5 20.5t-49 -20.5t-20 -49.5q0 -28 20.5 -49t48.5 -21q29 0 49.5 21t20.5 49zM668 0h-51l-74 170h-423l-71 -170h-50l331 778zM525 214
l-195 461l-192 -461h387z" />
    <glyph glyph-name="divide.sup" horiz-adv-x="431" 
d="M244 636q0 -10 -8.5 -18t-20.5 -8q-10 0 -18.5 8.5t-8.5 17.5q0 11 8.5 19.5t18.5 8.5q12 0 20.5 -8.5t8.5 -19.5zM374 524h-317v36h317v-36zM244 443q0 -10 -8.5 -18t-20.5 -8q-10 0 -18.5 8.5t-8.5 17.5q0 11 8.5 19.5t18.5 8.5q12 0 20.5 -8.5t8.5 -19.5z" />
    <glyph glyph-name="divide.dnom" horiz-adv-x="433" 
d="M245 285q0 -10 -8.5 -18t-20.5 -8q-10 0 -18.5 8.5t-8.5 17.5q0 11 8.5 19.5t18.5 8.5q12 0 20.5 -8.5t8.5 -19.5zM375 173h-317v36h317v-36zM245 92q0 -10 -8.5 -18t-20.5 -8q-10 0 -18.5 8.5t-8.5 17.5q0 11 8.5 19.5t18.5 8.5q12 0 20.5 -8.5t8.5 -19.5z" />
    <glyph glyph-name="odieresis.sc" horiz-adv-x="680" 
d="M624 260q0 -113 -81.5 -191t-201.5 -78q-123 0 -204 78.5t-81 192.5t81 193t204 79t203 -77.5t80 -196.5zM576 260q0 101 -66.5 166.5t-168.5 65.5q-104 0 -170.5 -64.5t-66.5 -163.5q0 -95 66 -163.5t166 -68.5q106 0 173 65t67 163zM253 640q0 -15 -11.5 -26t-27.5 -11
q-15 0 -26 11t-11 26q0 16 11 27.5t26 11.5q16 0 27.5 -11.5t11.5 -27.5zM472 640q0 -16 -11 -26.5t-28 -10.5q-15 0 -25.5 11t-10.5 26q0 17 10 28t26 11q18 0 28.5 -11t10.5 -28z" />
    <glyph glyph-name="ograve.sc" horiz-adv-x="680" 
d="M624 260q0 -113 -81.5 -191t-201.5 -78q-123 0 -204 78.5t-81 192.5t81 193t204 79t203 -77.5t80 -196.5zM576 260q0 101 -66.5 166.5t-168.5 65.5q-104 0 -170.5 -64.5t-66.5 -163.5q0 -95 66 -163.5t166 -68.5q106 0 173 65t67 163zM406 620l-21 -17l-138 138l41 33z
" />
    <glyph glyph-name="apple" horiz-adv-x="1312" 
d="M790 0h-268l-133 668l267 262l267 -262zM455 0h-226l-174 227l113 216l221 -109zM1083 0h-226l66 334l221 109l113 -216z" />
    <glyph glyph-name="ntilde.sc" horiz-adv-x="662" 
d="M464 685l17 -27q-14 -18 -41 -35.5t-55 -17.5q-18 0 -57 23.5t-61 23.5q-30 0 -79 -43l-18 24q17 19 46.5 38.5t54.5 19.5q22 0 61.5 -24t55.5 -24q38 0 76 42zM570 -18l-434 445l2 -427h-46v539l434 -446l-2 431h46v-542z" />
    <glyph glyph-name="ntilde.alt" 
d="M400 665l17 -27q-14 -18 -41 -35.5t-55 -17.5q-18 0 -57 23.5t-61 23.5q-30 0 -79 -43l-18 24q17 19 46.5 38.5t54.5 19.5q22 0 61.5 -24t55.5 -24q38 0 76 42zM463 0h-44v293q0 73 -39.5 111t-109.5 38q-91 0 -149 -43v-399h-44v418q79 65 192 65q88 0 141 -46.5
t53 -133.5v-303z" />
    <glyph glyph-name="eth.sc" horiz-adv-x="578" 
d="M220 0h-127v244h-56v37h56v243h120q133 0 220 -69t87 -193q0 -121 -83 -191.5t-217 -70.5zM139 40h60q127 0 200 56.5t73 167.5q0 106 -76 163.5t-189 57.5h-68v-204h143v-37h-143v-204z" />
    <glyph glyph-name="idieresis.sc" horiz-adv-x="232" 
d="M77 625q0 -15 -11.5 -26t-27.5 -11q-15 0 -26 11t-11 26q0 16 11 27.5t26 11.5q16 0 27.5 -11t11.5 -28zM240 625q0 -15 -11 -26t-28 -11q-15 0 -25.5 11t-10.5 26q0 17 10 28t26 11q18 0 28.5 -11t10.5 -28zM139 0h-46v524h46v-524z" />
    <glyph glyph-name="icircumflex.sc" horiz-adv-x="232" 
d="M139 0h-46v524h46v-524zM210 611l-94 72l-98 -79l-15 23l113 108h1l112 -102z" />
    <glyph glyph-name="iacute.sc" horiz-adv-x="232" 
d="M139 0h-46v524h46v-524zM90 583l-20 17l113 154l41 -33z" />
    <glyph glyph-name="igrave.sc" horiz-adv-x="232" 
d="M139 0h-46v524h46v-524zM158 600l-21 -17l-133 138l41 33z" />
    <glyph glyph-name="edieresis.sc" horiz-adv-x="446" 
d="M403 1h-310v522h286v-40l-240 1v-184l193 1v-40l-193 1v-222l264 1v-40zM162 640q0 -15 -11.5 -26t-27.5 -11q-15 0 -26 11t-11 26q0 16 11 27.5t26 11.5q17 0 28 -11.5t11 -27.5zM381 640q0 -16 -10.5 -26.5t-28.5 -10.5q-15 0 -25.5 11t-10.5 26q0 17 10 28t26 11
q18 0 28.5 -11t10.5 -28z" />
    <glyph glyph-name="ecircumflex.sc" horiz-adv-x="446" 
d="M403 1h-310v522h286v-40l-240 1v-184l193 1v-40l-193 1v-222l264 1v-40zM378 628l-26 -22l-122 102l-122 -102l-26 22l149 133z" />
    <glyph glyph-name="eacute.sc" horiz-adv-x="446" 
d="M336 741l-139 -138l-20 17l118 154zM403 1h-310v522h286v-40l-240 1v-184l193 1v-40l-193 1v-222l264 1v-40z" />
    <glyph glyph-name="egrave.sc" horiz-adv-x="446" 
d="M280 620l-21 -17l-138 138l41 33zM403 1h-310v522h286v-40l-240 1v-184l193 1v-40l-193 1v-222l264 1v-40z" />
    <glyph glyph-name="ccedilla.sc" horiz-adv-x="588" 
d="M283 -245h-42l68 157h51zM518 86l20 -33q-75 -62 -186 -62q-126 0 -211 79t-85 192t84.5 192.5t210.5 79.5q105 0 188 -67l-27 -33q-60 58 -168 58q-102 0 -170.5 -66t-68.5 -168q0 -95 72.5 -160.5t175.5 -65.5q101 0 165 54z" />
    <glyph glyph-name="ae.sc" horiz-adv-x="706" 
d="M663 1h-311v148h-196l-97 -149h-53l343 523h289v-39l-240 1v-184h193v-39h-193v-222l265 1v-40zM352 191v261l-171 -261h171z" />
    <glyph glyph-name="aring.sc" 
d="M372 695q0 -43 -30.5 -73t-73.5 -30t-73.5 30t-30.5 73t30.5 73.5t73.5 30.5t73.5 -31t30.5 -73zM339 696q0 29 -20.5 49.5t-49.5 20.5t-49 -20.5t-20 -49.5q0 -28 20.5 -49t48.5 -21q29 0 49.5 21t20.5 49zM525 0h-48l-68 143h-280l-68 -143h-49l257 539zM391 185
l-122 257l-121 -257h243z" />
    <glyph glyph-name="aring.sc.semp" 
d="M371 695q0 -43 -30.5 -73t-73.5 -30t-73.5 30t-30.5 73t30.5 73.5t73.5 30.5t73.5 -31t30.5 -73zM338 696q0 29 -20.5 49.5t-49.5 20.5t-49 -20.5t-20 -49.5q0 -28 20.5 -49t48.5 -21q29 0 49.5 21t20.5 49zM525 0h-48l-49 103h-319l-48 -103h-49l257 539zM409 144
l-140 297l-140 -297h280z" />
    <glyph glyph-name="aring.alt" horiz-adv-x="564" 
d="M374 695q0 -43 -30.5 -73t-73.5 -30t-73.5 30t-30.5 73t30.5 73.5t73.5 30.5t73.5 -31t30.5 -73zM341 696q0 29 -20.5 49.5t-49.5 20.5t-49 -20.5t-20 -49.5q0 -28 20.5 -49t48.5 -21q29 0 49.5 21t20.5 49zM487 -1h-44v90q-26 -43 -70 -71.5t-101 -28.5
q-87 0 -155.5 66.5t-68.5 178.5q0 116 75 182.5t179 66.5q59 0 109.5 -20.5t75.5 -44.5v-419zM443 144v255q-63 43 -142 43q-85 0 -146 -54.5t-61 -149.5q0 -88 52.5 -148t129.5 -60q57 0 99.5 33t67.5 81z" />
    <glyph glyph-name="adieresis.sc" 
d="M195 640q0 -15 -11.5 -26t-27.5 -11q-15 0 -26 11t-11 26q0 16 11 27.5t26 11.5q16 0 27.5 -11.5t11.5 -27.5zM414 640q0 -16 -11 -26.5t-28 -10.5q-15 0 -25.5 11t-10.5 26q0 17 10 28t26 11q18 0 28.5 -11t10.5 -28zM525 0h-48l-68 143h-280l-68 -143h-49l257 539z
M391 185l-122 257l-121 -257h243z" />
    <glyph glyph-name="adieresis.sc.semp" 
d="M194 640q0 -15 -11.5 -26t-27.5 -11q-15 0 -26 11t-11 26q0 16 11 27.5t26 11.5q17 0 28 -11.5t11 -27.5zM413 640q0 -16 -10.5 -26.5t-28.5 -10.5q-15 0 -25.5 11t-10.5 26q0 17 10 28t26 11q18 0 28.5 -11t10.5 -28zM525 0h-48l-49 103h-319l-48 -103h-49l257 539z
M409 144l-140 297l-140 -297h280z" />
    <glyph glyph-name="adieresis.alt" horiz-adv-x="564" 
d="M202 630q0 -15 -11.5 -26t-27.5 -11q-15 0 -26 11t-11 26q0 16 11 27.5t26 11.5q17 0 28 -11.5t11 -27.5zM421 630q0 -16 -10.5 -26.5t-28.5 -10.5q-15 0 -25.5 11t-10.5 26q0 17 10 28t26 11q18 0 28.5 -11t10.5 -28zM487 -1h-44v90q-26 -43 -70 -71.5t-101 -28.5
q-87 0 -155.5 66.5t-68.5 178.5q0 116 75 182.5t179 66.5q59 0 109.5 -20.5t75.5 -44.5v-419zM443 144v255q-63 43 -142 43q-85 0 -146 -54.5t-61 -149.5q0 -88 52.5 -148t129.5 -60q57 0 99.5 33t67.5 81z" />
    <glyph glyph-name="atilde.sc" 
d="M407 685l17 -27q-14 -18 -41 -35.5t-55 -17.5q-18 0 -57 23.5t-61 23.5q-30 0 -79 -43l-18 24q17 19 46.5 38.5t54.5 19.5q22 0 61.5 -24t55.5 -24q37 0 76 42zM525 0h-48l-68 143h-280l-68 -143h-49l257 539zM391 185l-122 257l-121 -257h243z" />
    <glyph glyph-name="atilde.sc.semp" 
d="M406 685l17 -27q-14 -18 -41 -35.5t-55 -17.5q-18 0 -57 23.5t-61 23.5q-30 0 -79 -43l-18 24q17 19 46.5 38.5t54.5 19.5q22 0 61.5 -24t55.5 -24q38 0 76 42zM525 0h-48l-49 103h-319l-48 -103h-49l257 539zM409 144l-140 297l-140 -297h280z" />
    <glyph glyph-name="atilde.alt" horiz-adv-x="564" 
d="M407 665l17 -27q-14 -18 -41 -35.5t-55 -17.5q-18 0 -57 23.5t-61 23.5q-30 0 -79 -43l-18 24q17 19 46.5 38.5t54.5 19.5q22 0 61.5 -24t55.5 -24q37 0 76 42zM487 -1h-44v90q-26 -43 -70 -71.5t-101 -28.5q-87 0 -155.5 66.5t-68.5 178.5q0 116 75 182.5t179 66.5
q59 0 109.5 -20.5t75.5 -44.5v-419zM443 144v255q-63 43 -142 43q-85 0 -146 -54.5t-61 -149.5q0 -88 52.5 -148t129.5 -60q57 0 99.5 33t67.5 81z" />
    <glyph glyph-name="acircumflex.sc" 
d="M416 628l-26 -22l-122 102l-122 -102l-26 22l149 133zM525 0h-48l-68 143h-280l-68 -143h-49l257 539zM391 185l-122 257l-121 -257h243z" />
    <glyph glyph-name="acircumflex.sc.semp" 
d="M415 628l-26 -22l-122 102l-122 -102l-26 22l149 133zM525 0h-48l-49 103h-319l-48 -103h-49l257 539zM409 144l-140 297l-140 -297h280z" />
    <glyph glyph-name="aacute.sc.semp" 
d="M347 741l-139 -138l-20 17l118 154zM525 0h-48l-49 103h-319l-48 -103h-49l257 539zM409 144l-140 297l-140 -297h280z" />
    <glyph glyph-name="aacute.alt" horiz-adv-x="564" 
d="M384 721l-139 -138l-20 17l118 154zM487 -1h-44v90q-26 -43 -70 -71.5t-101 -28.5q-87 0 -155.5 66.5t-68.5 178.5q0 116 75 182.5t179 66.5q59 0 109.5 -20.5t75.5 -44.5v-419zM443 144v255q-63 43 -142 43q-85 0 -146 -54.5t-61 -149.5q0 -88 52.5 -148t129.5 -60
q57 0 99.5 33t67.5 81z" />
    <glyph glyph-name="tcaron.alt" horiz-adv-x="286" 
d="M259 575h-42l63 182h51zM257 31l-30 -39q-59 0 -90 31t-31 111v295h-87v41h87v171h44v-171h114v-41h-114v-286q0 -68 25 -90t82 -22z" />
    <glyph glyph-name="scaron.sc" horiz-adv-x="436" 
d="M42 61l29 32q51 -61 143 -61q52 0 86.5 27t34.5 72q0 44 -27 74t-65.5 46.5t-76.5 33t-65 46t-27 72.5q0 62 46 97t111 35q85 0 135 -52l-26 -32q-45 43 -109 43q-45 0 -77 -22.5t-32 -64.5q0 -35 27 -59t65.5 -40t77.5 -34.5t66 -54t27 -88.5q0 -55 -48 -97.5
t-126 -42.5q-54 0 -102 22t-67 48zM361 709l-147 -133h-1l-148 133l26 22l122 -102l122 102z" />
    <glyph glyph-name="scedilla.sc" horiz-adv-x="436" 
d="M42 61l29 33q50 -62 143 -62q52 0 86.5 27t34.5 72q0 43 -27 72.5t-65.5 46.5t-76.5 33.5t-65 46.5t-27 73q0 62 45.5 97t111.5 35q85 0 135 -52l-26 -32q-45 43 -109 43q-45 0 -77 -22.5t-32 -64.5q0 -35 27 -58.5t65.5 -39.5t77.5 -34.5t66 -54.5t27 -89
q0 -55 -48 -97.5t-126 -42.5q-54 0 -102 22t-67 48zM190 -206h-42l69 157h50z" />
    <glyph glyph-name="scircumflex.sc" horiz-adv-x="436" 
d="M42 61l29 33q50 -62 143 -62q52 0 86.5 27t34.5 72q0 43 -27 72.5t-65.5 46.5t-76.5 33.5t-65 46.5t-27 73q0 62 45.5 97t111.5 35q85 0 135 -52l-26 -32q-45 43 -109 43q-45 0 -77 -22.5t-32 -64.5q0 -35 27 -58.5t65.5 -39.5t77.5 -34.5t66 -54.5t27 -89
q0 -55 -48 -97.5t-126 -42.5q-54 0 -102 22t-67 48zM366 628l-26 -22l-122 102l-122 -102l-26 22l149 133z" />
    <glyph glyph-name="sacute.sc" horiz-adv-x="436" 
d="M42 61l29 33q50 -62 143 -62q52 0 86.5 27t34.5 72q0 43 -27 72.5t-65.5 46.5t-76.5 33.5t-65 46.5t-27 73q0 62 45.5 97t111.5 35q85 0 135 -52l-26 -32q-45 43 -109 43q-45 0 -77 -22.5t-32 -64.5q0 -35 27 -58.5t65.5 -39.5t77.5 -34.5t66 -54.5t27 -89
q0 -55 -48 -97.5t-126 -42.5q-54 0 -102 22t-67 48zM319 741l-139 -138l-20 17l118 154z" />
    <glyph glyph-name="tcaron.alt2" horiz-adv-x="300" 
d="M281 575h-42l63 182h51zM172 0h-44v429h-114v41h114v171h44v-171h114v-41h-114v-429z" />
    <glyph glyph-name="tcaron.semp" horiz-adv-x="280" 
d="M252 575h-42l63 182h51zM123 0h-44v659h44v-189h146v-41h-146v-429z" />
    <glyph glyph-name="tcaron.sc" horiz-adv-x="444" 
d="M245 0h-45v484l-172 -1v39h388v-39l-171 1v-484zM369 739l-149 -133l-147 133l26 22l123 -102l122 102z" />
    <glyph glyph-name="tbar.alt" horiz-adv-x="289" 
d="M259 31l-30 -39q-59 0 -90 31t-31 111v145h-80v41h80v109h-87v41h87v171h44v-171h114v-41h-114v-109h91v-41h-91v-136q0 -68 25 -90t82 -22z" />
    <glyph glyph-name="tbar.alt2" horiz-adv-x="302" 
d="M173 0h-44v279h-91v41h91v109h-114v41h114v171h44v-171h114v-41h-114v-109h91v-41h-91v-279z" />
    <glyph glyph-name="tbar.semp" horiz-adv-x="299" 
d="M142 0h-44v279h-90v41h90v339h44v-189h146v-41h-146v-109h91v-41h-91v-279z" />
    <glyph glyph-name="tbar.sc" horiz-adv-x="443" 
d="M244 0h-45v287l-119 -1v41l119 -1v158l-172 -1v39h388v-39l-171 1v-158l118 1v-41l-118 1v-287z" />
    <glyph glyph-name="omacron.sc" horiz-adv-x="681" 
d="M624 260q0 -113 -81.5 -191t-201.5 -78q-124 0 -204.5 78.5t-80.5 192.5q0 115 80.5 193t204.5 78t203.5 -77t79.5 -196zM576 260q0 101 -66.5 166.5t-168.5 65.5q-104 0 -170.5 -64.5t-66.5 -163.5q0 -95 66 -163.5t166 -68.5q106 0 173 65t67 163zM481 616h-282v41h282
v-41z" />
    <glyph glyph-name="uhungarumlaut.sc" horiz-adv-x="587" 
d="M451 71v453h46v-466q-60 -67 -205 -67q-97 0 -150.5 50.5t-53.5 147.5v335h46v-316q0 -95 42 -135.5t133 -40.5q96 0 142 39zM343 712l-170 -108l-19 16l147 125zM499 712l-168 -108l-20 16l147 125z" />
    <glyph glyph-name="uogonek.sc" horiz-adv-x="586" 
d="M443 -168v-40q-27 -14 -66 -14q-46 0 -80 22.5t-34 65.5q0 75 91 129q-38 -4 -63 -4q-97 0 -150.5 50.5t-53.5 147.5v335h46v-316q0 -95 42 -135.5t133 -40.5q96 0 142 39v453h46v-466q-35 -38 -97 -55q-39 -18 -67.5 -51t-28.5 -71q0 -30 22 -47t56 -17q27 0 62 15z" />
    <glyph glyph-name="wcircumflex.sc" horiz-adv-x="772" 
d="M534 628l-26 -22l-122 102l-122 -102l-26 22l149 133zM565 -20l-179 438l-177 -437l-189 543h53l137 -406q1 -4 4 -24q2 16 5 24l168 422l170 -422q3 -7 5 -23q0 9 4 23l132 406h53z" />
    <glyph glyph-name="ycircumflex.sc" horiz-adv-x="435" 
d="M240 0h-46l1 226l-183 298h54l153 -258l153 258h53l-186 -298zM367 628l-27 -22l-122 102l-122 -102l-25 22l148 133z" />
    <glyph glyph-name="zacute.sc" horiz-adv-x="464" 
d="M422 1h-405l325 483l-263 -1v39h343l-326 -482l326 1v-40zM208 603l-20 17l117 154l41 -33z" />
    <glyph glyph-name="zdotaccent.sc" horiz-adv-x="464" 
d="M422 1h-405l325 483l-263 -1v39h343l-326 -482l326 1v-40zM277 640q0 -15 -12 -26t-28 -11q-15 0 -25.5 11t-10.5 26q0 16 10.5 27.5t25.5 11.5q17 0 28.5 -11.5t11.5 -27.5z" />
    <glyph glyph-name="zcaron.sc" horiz-adv-x="464" 
d="M385 730l-147 -133h-1l-148 133l26 22l122 -102l122 102zM422 1h-405l325 483l-263 -1v40h343l-326 -483l326 1v-40z" />
    <glyph glyph-name="longs.semp" horiz-adv-x="228" 
d="M149 -244h-44v673h-80v41h80v149q0 100 40 149q40 47 109 47q49 0 73 -18l-21 -42q-22 16 -58 16q-49 0 -74 -38t-25 -104v-873z" />
    <glyph glyph-name="longs.semp2" horiz-adv-x="228" 
d="M149 0h-44v429h-80v41h80v149q0 100 40 149q40 47 109 47q49 0 73 -18l-21 -42q-22 16 -58 16q-49 0 -74 -38t-25 -104v-629z" />
    <glyph glyph-name="florin.sc" horiz-adv-x="324" 
d="M-58 -167l7 31q12 -2 20 -2q29 0 48 28t26 60l69 350h-65l7 33h64l9 43q8 36 10.5 48.5t10.5 42t14 40.5t17.5 30t24 26.5t31 14t40.5 6.5q21 0 33 -7l-10 -32q-21 3 -30 3q-18 0 -32 -8t-24.5 -24t-18 -32.5t-13 -40.5t-8.5 -39.5t-6.5 -39.5t-4.5 -31h80l-6 -33h-80
l-66 -335q-27 -138 -120 -138q-17 0 -27 6z" />
    <glyph glyph-name="napostrophe.alt" horiz-adv-x="667" 
d="M80 471h-42l63 182h51zM593 0h-44v293q0 73 -39.5 111t-109.5 38q-91 0 -149 -43v-399h-44v418q79 65 192 65q88 0 141 -46.5t53 -133.5v-303z" />
    <glyph glyph-name="napostrophe.sc" horiz-adv-x="715" 
d="M623 -18l-435 445l2 -427h-46v539l435 -445l-3 430h47v-542zM10 493h-50l76 178h56z" />
    <glyph glyph-name="eng.alt" 
d="M344 -267l-19 38q15 7 25.5 12.5t20.5 13.5t16 12.5t11.5 17t8.5 18.5t6 25t3.5 29t1.5 37.5t1 45v55.5v256q0 73 -39.5 111t-109.5 38q-91 0 -149 -43v-399h-44v418q79 65 192 65q88 0 141 -46.5t53 -133.5v-260q0 -64 -0.5 -92.5t-4 -66.5t-10.5 -54t-21 -37
t-33.5 -33.5t-49.5 -26.5z" />
    <glyph glyph-name="eng.sc" horiz-adv-x="663" 
d="M430 -181l-17 40q65 25 87.5 57.5t24.5 111.5l-389 399l2 -427h-46v539l433 -444l-1 429h46v-476q0 -107 -28.5 -151.5t-111.5 -77.5z" />
    <glyph glyph-name="aeacute.sc" horiz-adv-x="706" 
d="M587 741l-139 -138l-20 17l118 154zM663 1h-311v148h-196l-97 -149h-53l343 523h289v-39l-240 1v-184h193v-39h-193v-222l265 1v-40zM352 191v261l-171 -261h171z" />
    <glyph glyph-name="oslashacute.sc" horiz-adv-x="680" 
d="M444 741l-139 -138l-21 17l119 154zM208 -101l-35 14l46 101q-75 32 -119 99t-44 149q0 115 80.5 193t204.5 78q53 0 98 -15l44 100l36 -15l-44 -99q69 -33 109 -97.5t40 -146.5q0 -113 -81.5 -191t-201.5 -78q-46 0 -88 11zM235 54l187 425q-41 13 -81 13
q-104 0 -170.5 -64.5t-66.5 -163.5q0 -68 35.5 -125t95.5 -85zM457 464l-187 -423q32 -9 66 -9q106 0 173 65t67 163q0 68 -31.5 121.5t-87.5 82.5z" />
    <glyph glyph-name="dotlessj.semp" horiz-adv-x="210" 
d="M127 -254l-44 -10v735h44v-725z" />
    <glyph glyph-name="dotlessj.sc" horiz-adv-x="232" 
d="M-1 -181l-17 40q68 26 89.5 62t21.5 131v472h46v-476q0 -107 -28.5 -151.5t-111.5 -77.5z" />
    <glyph glyph-name="circumflex.sc" horiz-adv-x="406" 
d="M351 628l-27 -22l-122 102l-122 -102l-25 22l149 133z" />
    <glyph glyph-name="breve.sc" horiz-adv-x="429" 
d="M331 749h43q-3 -58 -45.5 -105t-119.5 -47q-62 0 -105.5 40t-48.5 112h45q0 -11 3.5 -26t13 -36.5t33.5 -36t58 -14.5q32 0 56.5 11t36.5 26t19.5 33t9 27.5t1.5 15.5z" />
    <glyph glyph-name="ring.sc" horiz-adv-x="318" 
d="M159 596q-43 0 -73.5 30t-30.5 74q0 43 30.5 73t73.5 30t73.5 -30.5t30.5 -72.5q0 -44 -30.5 -74t-73.5 -30zM230 701q0 29 -20.5 49t-50.5 20q-28 0 -48 -20.5t-20 -48.5q0 -29 20 -50t48 -21q30 0 50.5 21t20.5 50z" />
    <glyph glyph-name="tilde.sc" horiz-adv-x="420" 
d="M349 685l16 -27q-14 -18 -41 -35.5t-55 -17.5q-18 0 -56.5 23.5t-60.5 23.5q-33 0 -79 -43l-18 23q15 19 45 39t55 20q23 0 62.5 -24t55.5 -24q37 0 76 42z" />
    <glyph glyph-name="hungarumlaut.sc" horiz-adv-x="455" 
d="M244 712l-169 -108l-20 16l147 125zM400 712l-168 -108l-20 16l148 125z" />
    <glyph glyph-name="ncaron.sc" horiz-adv-x="662" 
d="M570 -18l-434 445l2 -427h-46v539l434 -445l-2 430h46v-542zM479 739l-148 -133l-148 133l27 22l122 -102l122 102z" />
    <glyph glyph-name="ncaron.alt" 
d="M411 709l-147 -133h-1l-148 133l26 22l122 -102l122 102zM463 0h-44v293q0 73 -39.5 111t-109.5 38q-91 0 -149 -43v-399h-44v418q79 65 192 65q88 0 141 -46.5t53 -133.5v-303z" />
    <glyph glyph-name="divide.sinf" horiz-adv-x="433" 
d="M245 105q0 -10 -8.5 -18t-20.5 -8q-10 0 -18.5 8.5t-8.5 17.5q0 11 8.5 19.5t18.5 8.5q12 0 20.5 -8.5t8.5 -19.5zM375 -6h-317v35h317v-35zM245 -87q0 -10 -8.5 -18t-20.5 -8q-10 0 -18.5 8.5t-8.5 17.5q0 11 8.5 19.5t18.5 8.5q12 0 20.5 -8.5t8.5 -19.5z" />
    <glyph glyph-name="thorn.sc" horiz-adv-x="442" 
d="M139 0h-46v524h46v-105h64q81 0 139 -36.5t58 -114.5q0 -72 -55.5 -117.5t-153.5 -45.5h-52v-105zM139 143l50 1q77 2 120.5 34t43.5 90q0 53 -38.5 82.5t-100.5 29.5h-75v-237z" />
    <glyph glyph-name="divide.sc" horiz-adv-x="520" 
d="M443 236h-366v40h366v-40zM299 393q0 -14 -11 -25.5t-28 -11.5q-15 0 -26 11.5t-11 25.5q0 15 11 27t26 12q18 0 28.5 -11.5t10.5 -27.5zM299 117q0 -14 -11 -25.5t-28 -11.5q-15 0 -26 11.5t-11 25.5q0 15 11 27t26 12q18 0 28.5 -11.5t10.5 -27.5z" />
    <glyph glyph-name="ydieresis.sc" horiz-adv-x="435" 
d="M149 630q0 -15 -11.5 -26t-27.5 -11q-15 0 -26 11t-11 26q0 16 11 27.5t26 11.5q16 0 27.5 -11.5t11.5 -27.5zM368 630q0 -16 -11 -26.5t-28 -10.5q-15 0 -25.5 11t-10.5 26q0 17 10 28t26 11q18 0 28.5 -11t10.5 -28zM240 0h-46l1 226l-183 298h54l153 -258l153 258h53
l-186 -298z" />
    <glyph glyph-name="Amacron.semp" horiz-adv-x="666" 
d="M506 882h-349v41h349v-41zM668 0h-51l-74 170h-423l-71 -170h-50l331 778zM525 214l-195 461l-192 -461h387z" />
    <glyph glyph-name="amacron.alt" horiz-adv-x="564" 
d="M446 596h-349v41h349v-41zM487 -1h-44v90q-26 -43 -70 -71.5t-101 -28.5q-87 0 -155.5 66.5t-68.5 178.5q0 116 75 182.5t179 66.5q59 0 109.5 -20.5t75.5 -44.5v-419zM443 144v255q-63 43 -142 43q-85 0 -146 -54.5t-61 -149.5q0 -88 52.5 -148t129.5 -60q57 0 99.5 33
t67.5 81z" />
    <glyph glyph-name="amacron.sc.semp" 
d="M409 616h-282v41h282v-41zM525 0h-48l-49 103h-319l-48 -103h-49l257 539zM409 144l-140 297l-140 -297h280z" />
    <glyph glyph-name="amacron.sc" 
d="M410 616h-282v41h282v-41zM525 0h-48l-68 143h-280l-68 -143h-49l257 539zM391 185l-122 257l-121 -257h243z" />
    <glyph glyph-name="Abreve.semp" horiz-adv-x="666" 
d="M448 1015h43q-3 -58 -45.5 -105t-119.5 -47q-62 0 -105.5 40t-48.5 112h45q0 -11 3.5 -26t13 -36.5t33.5 -36t58 -14.5q33 0 57.5 11t36.5 25.5t19 33t8.5 28t1.5 15.5zM668 0h-51l-74 170h-423l-71 -170h-50l331 778zM525 214l-195 461l-192 -461h387z" />
    <glyph glyph-name="abreve.alt" horiz-adv-x="564" 
d="M379 729h43q-3 -58 -45.5 -105t-119.5 -47q-62 0 -105.5 40t-48.5 112h45q0 -11 3.5 -26t13 -36.5t33.5 -36t58 -14.5q33 0 57.5 11t36.5 25.5t19 33t8.5 28t1.5 15.5zM487 -1h-44v90q-26 -43 -70 -71.5t-101 -28.5q-87 0 -155.5 66.5t-68.5 178.5q0 116 75 182.5
t179 66.5q59 0 109.5 -20.5t75.5 -44.5v-419zM443 144v255q-63 43 -142 43q-85 0 -146 -54.5t-61 -149.5q0 -88 52.5 -148t129.5 -60q57 0 99.5 33t67.5 81z" />
    <glyph glyph-name="oslash.sc" horiz-adv-x="680" 
d="M207 -101l-34 14l45 101q-74 32 -118 99t-44 149q0 114 81 193t204 79q50 0 98 -16l44 100l36 -15l-44 -99q69 -33 109 -97.5t40 -146.5q0 -113 -81.5 -191t-201.5 -78q-46 0 -88 11zM235 54l187 425q-41 13 -81 13q-104 0 -170.5 -64.5t-66.5 -163.5q0 -68 35.5 -125
t95.5 -85zM457 464l-187 -423q32 -9 66 -9q106 0 173 65t67 163q0 68 -31.5 121.5t-87.5 82.5z" />
    <glyph glyph-name="abreve.sc.semp" 
d="M385 749h43q-3 -58 -45.5 -105t-119.5 -47q-62 0 -105.5 40t-48.5 112h45q0 -11 3.5 -26t13 -36.5t33.5 -36t58 -14.5q33 0 57.5 11t36.5 25.5t19 33t8.5 28t1.5 15.5zM525 0h-48l-49 103h-319l-48 -103h-49l257 539zM409 144l-140 297l-140 -297h280z" />
    <glyph glyph-name="ugrave.sc" horiz-adv-x="587" 
d="M451 72v452h46v-466q-60 -67 -205 -67q-97 0 -150.5 50.5t-53.5 147.5v335h46v-316q0 -95 42 -135.5t133 -40.5q96 0 142 40zM359 620l-21 -17l-138 138l41 33z" />
    <glyph glyph-name="uacute.sc" horiz-adv-x="587" 
d="M451 72v452h46v-466q-60 -67 -205 -67q-97 0 -150.5 50.5t-53.5 147.5v335h46v-316q0 -95 42 -135.5t133 -40.5q96 0 142 40zM388 741l-139 -138l-20 17l118 154z" />
    <glyph glyph-name="abreve.sc" 
d="M386 749h43q-3 -58 -45.5 -105t-119.5 -47q-62 0 -105.5 40t-48.5 112h45q0 -11 3.5 -26t13 -36.5t33.5 -36t58 -14.5q33 0 57.5 11t36.5 25.5t19 33t8.5 28t1.5 15.5zM525 0h-48l-68 143h-280l-68 -143h-49l257 539zM391 185l-122 257l-121 -257h243z" />
    <glyph glyph-name="Aogonek.semp" horiz-adv-x="666" 
d="M691 -171v-39q-27 -15 -68 -15q-45 0 -79 28t-34 72q0 38 29 73t77 53l-73 169h-423l-71 -170h-50l331 778l341 -785q-46 -10 -83 -40.5t-37 -71.5q0 -30 22.5 -48t56.5 -18q26 0 61 14zM525 214l-195 461l-192 -461h387z" />
    <glyph glyph-name="aogonek.sc.semp" 
d="M549 -172v-39q-29 -15 -66 -15q-46 0 -80 23t-34 65q0 41 27 77.5t81 60.5l-49 103h-319l-48 -103h-49l257 539l259 -545q-48 -16 -83.5 -47t-35.5 -69q0 -30 22.5 -47t56.5 -17q24 0 61 14zM409 144l-140 297l-140 -297h280z" />
    <glyph glyph-name="aogonek.sc" horiz-adv-x="538" 
d="M550 -172v-39q-28 -15 -66 -15q-46 0 -80 23t-34 65q0 40 27 77t80 61l-68 143h-280l-68 -143h-49l257 539l260 -545q-48 -16 -83.5 -47t-35.5 -69q0 -30 22.5 -47t56.5 -17q24 0 61 14zM391 185l-122 257l-121 -257h243z" />
    <glyph glyph-name="cacute.sc" horiz-adv-x="587" 
d="M518 86l19 -33q-74 -62 -185 -62q-126 0 -211 79t-85 192t84.5 192t209.5 79q108 0 189 -65l-27 -33q-61 57 -168 57q-102 0 -170.5 -66t-68.5 -168q0 -95 72.5 -160.5t175.5 -65.5q101 0 165 54zM422 741l-139 -138l-19 17l117 154z" />
    <glyph glyph-name="ccircumflex.sc" horiz-adv-x="587" 
d="M518 86l19 -33q-74 -62 -185 -62q-126 0 -211 79t-85 192t84.5 192t209.5 79q108 0 189 -65l-27 -33q-61 57 -168 57q-102 0 -170.5 -66t-68.5 -168q0 -95 72.5 -160.5t175.5 -65.5q101 0 165 54zM466 628l-26 -22l-123 102l-122 -102l-25 22l149 133z" />
    <glyph glyph-name="ucircumflex.sc" horiz-adv-x="587" 
d="M451 72v452h46v-466q-60 -67 -205 -67q-97 0 -150.5 50.5t-53.5 147.5v335h46v-316q0 -95 42 -135.5t133 -40.5q96 0 142 40zM443 628l-26 -22l-122 102l-122 -102l-26 22l149 133z" />
    <glyph glyph-name="cdotaccent.sc" horiz-adv-x="587" 
d="M518 86l19 -33q-74 -62 -185 -62q-126 0 -211 79t-85 192t84.5 192t209.5 79q108 0 189 -65l-27 -33q-61 57 -168 57q-102 0 -170.5 -66t-68.5 -168q0 -95 72.5 -160.5t175.5 -65.5q101 0 165 54zM360 640q0 -15 -11.5 -26t-27.5 -11q-15 0 -26 11t-11 26q0 16 11 27.5
t26 11.5q17 0 28 -11.5t11 -27.5z" />
    <glyph glyph-name="udieresis.sc" horiz-adv-x="587" 
d="M451 72v452h46v-466q-60 -67 -205 -67q-97 0 -150.5 50.5t-53.5 147.5v335h46v-316q0 -95 42 -135.5t133 -40.5q96 0 142 40zM214 640q0 -15 -11.5 -26t-27.5 -11q-15 0 -26 11t-11 26q0 16 11 27.5t26 11.5q17 0 28 -11.5t11 -27.5zM433 640q0 -16 -10.5 -26.5
t-28.5 -10.5q-15 0 -25.5 11t-10.5 26q0 17 10 28t26 11q18 0 28.5 -11t10.5 -28z" />
    <glyph glyph-name="gdotaccent.sc" horiz-adv-x="649" 
d="M557 206l-156 -1v40h204q-2 -123 -77.5 -188.5t-182.5 -65.5q-121 0 -205.5 79t-84.5 190q0 115 85 194t209 79q58 0 111 -19.5t71 -32.5t26 -21l-26 -33q-7 7 -24.5 19t-62.5 29t-93 17q-109 0 -178.5 -66.5t-69.5 -167.5q0 -88 67 -157.5t175 -69.5q84 0 144 47t68 128
zM367 640q0 -15 -12 -26t-28 -11q-14 0 -25 11t-11 26q0 16 11 27.5t25 11.5q17 0 28.5 -11.5t11.5 -27.5z" />
    <glyph glyph-name="gcommaaccent.sc" horiz-adv-x="649" 
d="M557 206l-156 -1v40h204q-2 -123 -77.5 -188.5t-182.5 -65.5q-121 0 -205.5 79t-84.5 190q0 115 85 194t209 79q58 0 111 -19.5t71 -32.5t26 -21l-26 -33q-7 7 -24.5 19t-62.5 29t-93 17q-109 0 -178.5 -66.5t-69.5 -167.5q0 -88 67 -157.5t175 -69.5q84 0 144 47t68 128
zM333 -232h-51l77 178h57z" />
    <glyph glyph-name="hcircumflex.sc" horiz-adv-x="595" 
d="M502 0h-46v246h-317v-246h-46v524h46v-236h317v236h46v-524zM443 628l-26 -22l-123 102l-122 -102l-25 22l149 133z" />
    <glyph glyph-name="hbar.sc" horiz-adv-x="596" 
d="M503 0h-46v246h-317v-246h-46v386h-60v41h60v97h46v-97h317v97h46v-97h55v-41h-55v-386zM457 288v98h-317v-98h317z" />
    <glyph glyph-name="yacute.sc" horiz-adv-x="435" 
d="M240 0h-46l1 226l-183 298h54l153 -258l153 258h53l-186 -298zM347 741l-139 -138l-20 17l118 154z" />
    <glyph glyph-name="itilde.sc" horiz-adv-x="231" 
d="M138 0h-45v524h45v-524zM254 685l17 -27q-46 -53 -96 -53q-18 0 -57 23.5t-61 23.5q-32 0 -78 -43l-18 23q16 20 45 39.5t55 19.5q23 0 62 -24t55 -24q38 0 76 42z" />
    <glyph glyph-name="imacron.sc" horiz-adv-x="231" 
d="M138 0h-45v524h45v-524zM256 616h-281v41h281v-41z" />
    <glyph glyph-name="ibreve.sc" horiz-adv-x="231" 
d="M138 0h-45v524h45v-524zM232 749h43q-3 -58 -45.5 -105t-119.5 -47q-61 0 -104.5 40t-48.5 112h44q0 -11 3.5 -26t13 -36.5t33.5 -36t58 -14.5q33 0 57.5 11t36.5 25.5t19 33t8.5 28t1.5 15.5z" />
    <glyph glyph-name="iogonek.sc" horiz-adv-x="231" 
d="M168 -171v-39q-27 -15 -66 -15q-46 0 -79.5 23t-33.5 65q0 81 104 137v524h45v-524q-45 -20 -77 -51.5t-32 -69.5q0 -30 22 -47t56 -17q24 0 61 14z" />
    <glyph glyph-name="dotlessi.sc" horiz-adv-x="232" 
d="M139 0h-46v524h46v-524z" />
    <glyph glyph-name="IJ.alt" horiz-adv-x="520" 
d="M154 0h-48v757h48v-757zM228 -281l-9 46q92 35 119.5 90.5t27.5 192.5v709h48v-718q0 -106 -19.5 -166.5t-56 -92t-110.5 -61.5z" />
    <glyph glyph-name="IJ.semp2" horiz-adv-x="694" 
d="M154 0h-48v757h48v-757zM546 208v549h48v-558q0 -102 -51.5 -156.5t-131.5 -54.5q-55 0 -113 30l19 40q47 -27 95 -27q66 0 100 47.5t34 129.5z" />
    <glyph glyph-name="ij.semp" horiz-adv-x="420" 
d="M127 0h-44v471h44v-471zM145 610q0 -16 -11.5 -27.5t-28.5 -11.5q-16 0 -28 11.5t-12 27.5q0 18 11.5 29.5t28.5 11.5t28.5 -11.5t11.5 -29.5zM337 -254l-44 -10v735h44v-725zM356 610q0 -16 -11.5 -27.5t-28.5 -11.5q-16 0 -28 11.5t-12 27.5q0 18 11.5 29.5t28.5 11.5
t28.5 -11.5t11.5 -29.5z" />
    <glyph glyph-name="ij.sc" horiz-adv-x="463" 
d="M139 0h-46v524h46v-524zM229 -181l-17 40q69 26 91 62t22 131v472h46v-476q0 -107 -29 -151.5t-113 -77.5z" />
    <glyph glyph-name="Jcircumflex.alt" horiz-adv-x="260" 
d="M-31 -281l-9 46q91 35 118.5 90.5t27.5 192.5v709h48v-718q0 -106 -19.5 -166.5t-56 -92t-109.5 -61.5zM279 811l-149 69l-152 -69l-15 23l167 98h1l167 -99z" />
    <glyph glyph-name="Jcircumflex.semp" horiz-adv-x="448" 
d="M300 208v505h-177v43h225v-557q0 -102 -51.5 -156.5t-131.5 -54.5q-62 0 -133 38l19 40q61 -35 115 -35q64 0 99 46t35 131zM401 811l-149 69l-153 -69l-15 23l168 98h1l167 -99z" />
    <glyph glyph-name="Jcircumflex.semp2" horiz-adv-x="434" 
d="M286 208v549h48v-558q0 -102 -51.5 -156.5t-131.5 -54.5q-54 0 -113 30l19 40q47 -27 95 -27q66 0 100 47.5t34 129.5zM460 811l-149 69l-153 -69l-15 23l168 98h1l167 -99z" />
    <glyph glyph-name="jcircumflex.semp" horiz-adv-x="210" 
d="M127 -254l-44 -10v735h44v-725zM233 608l-26 -22l-102 102l-102 -102l-25 22l127 133h1z" />
    <glyph glyph-name="jcircumflex.sc.semp" horiz-adv-x="347" 
d="M228 199v285h-147v39h193v-339q0 -105 -36.5 -150.5t-114.5 -45.5q-61 0 -113 38l19 36q49 -35 95 -35q61 0 82.5 40.5t21.5 131.5zM333 628l-27 -22l-122 102l-122 -102l-25 22l149 133z" />
    <glyph glyph-name="jcircumflex.sc" horiz-adv-x="231" 
d="M-2 -181l-17 40q68 26 90 62t22 131v472h45v-476q0 -107 -28.5 -151.5t-111.5 -77.5zM263 628l-26 -22l-122 102l-122 -102l-25 22l148 133z" />
    <glyph glyph-name="kcommaaccent.sc" horiz-adv-x="504" 
d="M238 -232h-50l77 178h56zM498 0h-77l-282 239v-239h-46v524h46v-240l251 240h70l-285 -262z" />
    <glyph glyph-name="kgreenlandic.sc" horiz-adv-x="505" 
d="M498 0h-77l-282 239v-239h-46v524h46v-240l251 240h70l-285 -262z" />
    <glyph glyph-name="lacute.sc" horiz-adv-x="410" 
d="M380 1h-287v523h46v-484l241 1v-40zM113 603l-20 17l118 154l40 -33z" />
    <glyph glyph-name="lcommaaccent.sc" horiz-adv-x="411" 
d="M380 1h-287v523h46v-484l241 1v-40zM201 -232h-51l77 178h56z" />
    <glyph glyph-name="lcaron.sc" horiz-adv-x="417" 
d="M314 350h-46l69 200h56zM380 1h-287v523h46v-484l241 1v-40z" />
    <glyph glyph-name="ldot.sc" horiz-adv-x="432" 
d="M380 1h-287v523h46v-484l241 1v-40zM374 275q0 -17 -13 -30t-31 -13t-31 13t-13 30q0 19 13 32t31 13q19 0 31.5 -13t12.5 -32z" />
    <glyph glyph-name="lslash.sc" horiz-adv-x="412" 
d="M383 1h-288v163l-60 -35v44l60 36v315h46v-287l115 68v-44l-115 -68v-153l242 1v-40z" />
    <glyph glyph-name="nacute.alt" 
d="M367 721l-139 -138l-20 17l118 154zM463 0h-44v293q0 73 -39.5 111t-109.5 38q-91 0 -149 -43v-399h-44v418q79 65 192 65q88 0 141 -46.5t53 -133.5v-303z" />
    <glyph glyph-name="nacute.sc" horiz-adv-x="662" 
d="M570 -18l-434 445l2 -427h-46v539l434 -445l-2 430h46v-542zM432 741l-139 -138l-20 17l118 154z" />
    <glyph glyph-name="ncommaaccent.alt" horiz-adv-x="536" 
d="M251 -232h-51l77 178h56zM462 0h-44v293q0 73 -39.5 111t-109.5 38q-91 0 -149 -43v-399h-44v418q79 65 192 65q88 0 141 -46.5t53 -133.5v-303z" />
    <glyph glyph-name="ncommaaccent.sc" horiz-adv-x="662" 
d="M570 -18l-434 445l2 -427h-46v539l434 -445l-2 430h46v-542zM304 -232h-50l77 178h56z" />
    <glyph glyph-name="Acircumflex.semp" horiz-adv-x="666" 
d="M481 818l-149 62l-153 -69l-15 23l168 98h1l167 -92zM668 0h-51l-74 170h-423l-71 -170h-50l331 778zM525 214l-195 461l-192 -461h387z" />
    <glyph glyph-name="IJ.semp" horiz-adv-x="668" 
d="M154 0h-48v757h48v-757zM520 208v505h-177v43h225v-557q0 -102 -51.5 -156.5t-131.5 -54.5q-62 0 -133 38l19 40q61 -35 115 -35q64 0 99 46t35 131z" />
    <glyph glyph-name="n.alt" 
d="M463 0h-44v293q0 73 -39.5 111t-109.5 38q-91 0 -149 -43v-399h-44v418q79 65 192 65q88 0 141 -46.5t53 -133.5v-303z" />
    <glyph glyph-name="acircumflex.alt" horiz-adv-x="564" 
d="M422 608l-26 -22l-122 102l-122 -102l-26 22l148 133h1zM487 -1h-44v90q-26 -43 -70 -71.5t-101 -28.5q-87 0 -155.5 66.5t-68.5 178.5q0 116 75 182.5t179 66.5q59 0 109.5 -20.5t75.5 -44.5v-419zM443 144v255q-63 43 -142 43q-85 0 -146 -54.5t-61 -149.5
q0 -88 52.5 -148t129.5 -60q57 0 99.5 33t67.5 81z" />
    <glyph glyph-name="aogonek.alt" horiz-adv-x="564" 
d="M515 -171v-39q-27 -15 -66 -15q-46 0 -80 23t-34 66q0 83 108 137v88q-26 -43 -70 -71.5t-101 -28.5q-87 0 -155.5 66.5t-68.5 178.5q0 116 75 182.5t179 66.5q59 0 109.5 -20.5t75.5 -44.5v-422q-111 -44 -111 -117q0 -30 22 -47t56 -17q26 0 61 14zM443 144v255
q-63 43 -142 43q-85 0 -146 -54.5t-61 -149.5q0 -88 52.5 -148t129.5 -60q57 0 99.5 33t67.5 81z" />
    <glyph glyph-name="tcommaaccent.semp" horiz-adv-x="279" 
d="M85 -232h-51l77 178h56zM123 0h-44v659h44v-189h146v-41h-146v-429z" />
    <glyph glyph-name="tcommaaccent.alt2" horiz-adv-x="298" 
d="M133 -232h-51l77 178h56zM171 0h-44v429h-114v41h114v171h44v-171h114v-41h-114v-429z" />
    <glyph glyph-name="tcommaaccent.alt" horiz-adv-x="287" 
d="M132 -232h-51l77 178h56zM257 31l-30 -39q-59 0 -90 31t-31 111v295h-87v41h87v171h44v-171h114v-41h-114v-286q0 -68 25 -90t82 -22z" />
    <glyph glyph-name="oacute.sc" horiz-adv-x="680" 
d="M624 260q0 -113 -81.5 -191t-201.5 -78q-123 0 -204 78.5t-81 192.5t81 193t204 79t203 -77.5t80 -196.5zM576 260q0 101 -66.5 166.5t-168.5 65.5q-104 0 -170.5 -64.5t-66.5 -163.5q0 -95 66 -163.5t166 -68.5q106 0 173 65t67 163zM444 741l-139 -138l-20 17l118 154z
" />
    <glyph glyph-name="ocircumflex.sc" horiz-adv-x="680" 
d="M624 260q0 -113 -81.5 -191t-201.5 -78q-123 0 -204 78.5t-81 192.5t81 193t204 79t203 -77.5t80 -196.5zM576 260q0 101 -66.5 166.5t-168.5 65.5q-104 0 -170.5 -64.5t-66.5 -163.5q0 -95 66 -163.5t166 -68.5q106 0 173 65t67 163zM488 628l-26 -22l-122 102
l-122 -102l-26 22l149 133z" />
    <glyph glyph-name="ohungarumlaut.sc" horiz-adv-x="681" 
d="M624 260q0 -113 -81.5 -191t-201.5 -78q-124 0 -204.5 78.5t-80.5 192.5q0 115 80.5 193t204.5 78t203.5 -77t79.5 -196zM576 260q0 101 -66.5 166.5t-168.5 65.5q-104 0 -170.5 -64.5t-66.5 -163.5q0 -95 66 -163.5t166 -68.5q106 0 173 65t67 163zM373 712l-170 -108
l-20 16l148 125zM529 712l-169 -108l-19 16l147 125z" />
    <glyph glyph-name="otilde.sc" horiz-adv-x="680" 
d="M624 260q0 -113 -81.5 -191t-201.5 -78q-123 0 -204 78.5t-81 192.5t81 193t204 79t203 -77.5t80 -196.5zM576 260q0 101 -66.5 166.5t-168.5 65.5q-104 0 -170.5 -64.5t-66.5 -163.5q0 -95 66 -163.5t166 -68.5q106 0 173 65t67 163zM479 685l17 -27q-14 -18 -41 -35.5
t-55 -17.5q-18 0 -57 23.5t-61 23.5q-30 0 -79 -43l-18 24q17 19 46.5 38.5t54.5 19.5q22 0 61.5 -24t55.5 -24q37 0 76 42z" />
    <glyph glyph-name="obreve.sc" horiz-adv-x="681" 
d="M624 260q0 -113 -81.5 -191t-201.5 -78q-124 0 -204.5 78.5t-80.5 192.5q0 115 80.5 193t204.5 78t203.5 -77t79.5 -196zM576 260q0 101 -66.5 166.5t-168.5 65.5q-104 0 -170.5 -64.5t-66.5 -163.5q0 -95 66 -163.5t166 -68.5q106 0 173 65t67 163zM456 749h43
q-3 -58 -45.5 -105t-119.5 -47q-62 0 -105.5 40t-48.5 112h45q0 -11 3.5 -26t13 -36.5t33.5 -36t58 -14.5q32 0 56.5 11t36.5 26t19.5 33t9 27.5t1.5 15.5z" />
    <glyph glyph-name="racute.sc" horiz-adv-x="481" 
d="M335 741l-139 -138l-19 17l117 154zM472 0h-72l-231 210h-30v-210h-46v524h114q48 0 89.5 -13t72.5 -48.5t31 -89.5q0 -67 -49 -111.5t-133 -50.5zM139 249h40q84 0 129 32t45 92q0 54 -39.5 83t-102.5 29h-72v-236z" />
    <glyph glyph-name="rcaron.sc" horiz-adv-x="481" 
d="M376 739l-149 -133l-147 133l26 22l122 -102l122 102zM472 0h-72l-231 210h-30v-210h-46v524h114q48 0 89.5 -13t72.5 -48.5t31 -89.5q0 -67 -49 -111.5t-133 -50.5zM139 249h40q84 0 129 32t45 92q0 54 -39.5 83t-102.5 29h-72v-236z" />
    <glyph glyph-name="rcommaaccent.sc" horiz-adv-x="479" 
d="M223 -232h-51l77 178h56zM472 0h-72l-231 210h-30v-210h-46v524h114q48 0 89.5 -13t72.5 -48.5t31 -89.5q0 -67 -49 -111.5t-133 -50.5zM139 249h40q84 0 129 32t45 92q0 54 -39.5 83t-102.5 29h-72v-236z" />
    <glyph glyph-name="tcommaaccent.sc" horiz-adv-x="446" 
d="M246 0h-45v484l-172 -1v39h388v-39l-171 1v-484zM185 -232h-50l77 178h56z" />
    <glyph glyph-name="umacron.sc" horiz-adv-x="587" 
d="M451 71v453h46v-466q-60 -67 -205 -67q-97 0 -150.5 50.5t-53.5 147.5v335h46v-316q0 -95 42 -135.5t133 -40.5q96 0 142 39zM434 616h-283v41h283v-41z" />
    <glyph glyph-name="uring.sc" horiz-adv-x="587" 
d="M451 71v453h46v-466q-60 -67 -205 -67q-97 0 -150.5 50.5t-53.5 147.5v335h46v-316q0 -95 42 -135.5t133 -40.5q96 0 142 39zM293 596q-43 0 -73.5 30t-30.5 74q0 43 30.5 73t73.5 30t73.5 -30.5t30.5 -72.5q0 -43 -30.5 -73.5t-73.5 -30.5zM364 701q0 29 -20.5 49
t-50.5 20q-28 0 -48 -20.5t-20 -48.5q0 -29 20 -50t48 -21q30 0 50.5 21t20.5 50z" />
    <glyph glyph-name="utilde.sc" horiz-adv-x="587" 
d="M451 71v453h46v-466q-60 -67 -205 -67q-97 0 -150.5 50.5t-53.5 147.5v335h46v-316q0 -95 42 -135.5t133 -40.5q96 0 142 39zM432 685l16 -27q-15 -18 -41 -35.5t-54 -17.5q-19 0 -58 23.5t-60 23.5q-33 0 -79 -43l-18 23q16 20 45.5 39.5t54.5 19.5q23 0 62.5 -24
t55.5 -24q38 0 76 42z" />
    <glyph glyph-name="ubreve.sc" horiz-adv-x="587" 
d="M451 71v453h46v-466q-60 -67 -205 -67q-97 0 -150.5 50.5t-53.5 147.5v335h46v-316q0 -95 42 -135.5t133 -40.5q96 0 142 39zM410 749h43q-4 -59 -46 -105.5t-119 -46.5q-62 0 -106 40t-48 112h45q0 -11 3.5 -26t13 -36.5t33.5 -36t58 -14.5q32 0 56.5 11t36.5 26
t19.5 33t9 27.5t1.5 15.5z" />
    <glyph glyph-name="emacron.sc" horiz-adv-x="446" 
d="M403 1h-310v521h286v-39l-240 1v-184l193 1v-40l-193 1v-222l264 1v-40zM374 616h-283v41h283v-41z" />
    <glyph glyph-name="eogonek.sc" horiz-adv-x="446" 
d="M392 -171v-39q-27 -15 -66 -15q-46 0 -80 23t-34 65q0 82 108 138h-227v521h286v-39l-240 1v-184l193 1v-40l-193 1v-222l264 1v-40h-55q-39 -18 -67 -51t-28 -71q0 -30 22 -47t56 -17q24 0 61 14z" />
    <glyph glyph-name="gcircumflex.sc" horiz-adv-x="649" 
d="M557 206l-156 -1v40h204q-2 -123 -77.5 -188.5t-182.5 -65.5q-121 0 -205.5 79t-84.5 190q0 115 85 194t209 79q58 0 111 -19.5t71 -32.5t26 -21l-26 -33q-7 7 -24.5 19t-62.5 29t-93 17q-109 0 -178.5 -66.5t-69.5 -167.5q0 -88 67 -157.5t175 -69.5q84 0 144 47t68 128
zM477 628l-26 -22l-122 102l-122 -102l-26 22l149 133z" />
    <glyph glyph-name="gbreve.sc" horiz-adv-x="649" 
d="M557 206l-156 -1v40h204q-2 -123 -77.5 -188.5t-182.5 -65.5q-121 0 -205.5 79t-84.5 190q0 115 85 194t209 79q58 0 111 -19.5t71 -32.5t26 -21l-26 -33q-7 7 -24.5 19t-62.5 29t-93 17q-109 0 -178.5 -66.5t-69.5 -167.5q0 -88 67 -157.5t175 -69.5q84 0 144 47t68 128
zM446 749h43q-3 -58 -45.5 -105t-119.5 -47q-62 0 -105.5 40t-48.5 112h45q0 -11 3.5 -26t13 -36.5t33.5 -36t58 -14.5q33 0 57.5 11t36.5 25.5t19 33t8.5 28t1.5 15.5z" />
    <glyph glyph-name="oe.sc" horiz-adv-x="927" 
d="M884 1h-308v126q-75 -136 -235 -136q-123 0 -204 78.5t-81 192.5t81 193t204 79q162 0 235 -135v124h283v-40l-237 1v-184l190 1v-40l-190 1v-222l262 1v-40zM576 260q0 101 -66.5 166.5t-168.5 65.5q-104 0 -170.5 -64.5t-66.5 -163.5q0 -95 66 -163.5t166 -68.5
q106 0 173 65t67 163z" />
    <glyph glyph-name="ff.sc" horiz-adv-x="818" 
d="M139 0h-46v523h280v-40l-234 1v-184l189 1v-41l-189 1v-261zM548 0h-46v523h280v-40l-234 1v-184l189 1v-41l-189 1v-261z" />
    <glyph glyph-name="fi.sc" horiz-adv-x="641" 
d="M139 0h-46v523h280v-40l-234 1v-184l189 1v-41l-189 1v-261zM548 0h-46v524h46v-524z" />
    <glyph glyph-name="f_j.sc" horiz-adv-x="641" 
d="M139 0h-46v523h280v-40l-234 1v-184l189 1v-41l-189 1v-261zM407 -181l-17 40q69 26 90.5 62t21.5 131v472h46v-476q0 -107 -28.5 -151.5t-112.5 -77.5z" />
    <glyph glyph-name="fl.sc" horiz-adv-x="819" 
d="M139 0h-46v522h281v-39l-235 1v-184l189 1v-41l-189 1v-261zM789 1h-287v523h46v-484l241 1v-40z" />
    <glyph glyph-name="f_t.sc" horiz-adv-x="853" 
d="M139 0h-46v523h280v-40l-234 1v-184l189 1v-41l-189 1v-261zM654 0h-46v484l-171 -1v40h388v-40l-171 1v-484z" />
    <glyph glyph-name="ffi.sc" horiz-adv-x="1050" 
d="M139 0h-46v523h280v-40l-234 1v-184l189 1v-41l-189 1v-261zM548 0h-46v523h280v-40l-234 1v-184l189 1v-41l-189 1v-261zM957 0h-46v524h46v-524z" />
    <glyph glyph-name="ffl.sc" horiz-adv-x="1228" 
d="M139 0h-46v523h280v-40l-234 1v-184l189 1v-41l-189 1v-261zM548 0h-46v523h280v-40l-234 1v-184l189 1v-41l-189 1v-261zM1198 1h-287v523h46v-484l241 1v-40z" />
    <glyph glyph-name="zero_slash" horiz-adv-x="648" 
d="M324 -11q-61 0 -107 25t-72.5 63t-42.5 92t-21.5 102.5t-5.5 102.5t5 102t21.5 102.5t42.5 93t72 64.5t107 26t107.5 -25t73 -63t43 -91.5t22 -103t5.5 -105.5q0 -55 -5.5 -104t-22 -102.5t-43 -91t-72.5 -62.5t-107 -25zM459 652l-237 -587q42 -33 102 -33
q44 0 78.5 16.5t55.5 46.5t35.5 63.5t21 75.5t9 73.5t2.5 66.5q0 190 -67 278zM189 100l236 585q-42 32 -102 32q-200 0 -200 -343q0 -184 66 -274z" />
    <glyph glyph-name="edotaccent.sc" horiz-adv-x="446" 
d="M403 1h-310v521h286v-39l-240 1v-184l193 1v-40l-193 1v-222l264 1v-40zM280 640q0 -15 -12 -26t-28 -11q-14 0 -25 11t-11 26q0 16 11 27.5t25 11.5q17 0 28.5 -11.5t11.5 -27.5z" />
    <glyph glyph-name="ecaron.sc" horiz-adv-x="446" 
d="M403 1h-310v521h286v-39l-240 1v-184l193 1v-40l-193 1v-222l264 1v-40zM385 739l-149 -133l-147 133l26 22l122 -102l122 102z" />
    <glyph glyph-name="ff.semp2" horiz-adv-x="568" 
d="M407 429v-429h-44v625q0 100 40 149q40 47 109 47q49 0 73 -18l-21 -42q-22 16 -58 16q-49 0 -74 -38t-25 -104v-165h146v-41h-146zM123 429v-429h-44v578q0 100 40 149q40 47 109 47q49 0 73 -18l-21 -42q-22 16 -58 16q-49 0 -74 -38t-25 -104v-118h136v-41h-136z" />
    <glyph glyph-name="ff.alt" horiz-adv-x="570" 
d="M149 -230h-44v659h-80v41h80v108q0 100 40 149q40 47 109 47q49 0 73 -18l-21 -42q-22 16 -58 16q-49 0 -74 -38t-25 -104v-118h112v-41h-112v-659zM434 -121h-44v550h-75v41h75v155q0 100 40 149q40 47 109 47q49 0 73 -18l-21 -42q-22 16 -58 16q-49 0 -74 -38
t-25 -104v-165h117v-41h-117v-550z" />
    <glyph glyph-name="ff.semp" horiz-adv-x="568" 
d="M123 -230h-44v808q0 100 40 149q40 47 109 47q49 0 73 -18l-21 -42q-22 16 -58 16q-49 0 -74 -38t-25 -104v-118h136v-41h-136v-659zM407 -121h-44v746q0 100 40 149q40 47 109 47q49 0 73 -18l-21 -42q-22 16 -58 16q-49 0 -74 -38t-25 -104v-165h146v-41h-146v-550z
" />
    <glyph glyph-name="fi.semp2" horiz-adv-x="495" 
d="M123 429v-429h-44v619q0 100 40 149q40 47 109 47q49 0 73 -18l-21 -42q-22 16 -58 16q-49 0 -74 -38t-25 -104v-159h142v-41h-142zM411 0h-44v471h44v-471zM430 611q0 -17 -11.5 -28.5t-28.5 -11.5t-28.5 11.5t-11.5 28.5t11.5 28.5t28.5 11.5t28.5 -11.5t11.5 -28.5z
" />
    <glyph glyph-name="fi.alt" horiz-adv-x="496" 
d="M412 0h-44v471h44v-471zM431 611q0 -17 -11.5 -28.5t-28.5 -11.5t-28.5 11.5t-11.5 28.5t11.5 28.5t28.5 11.5t28.5 -11.5t11.5 -28.5zM149 -244h-44v673h-80v41h80v149q0 100 40 149q40 47 109 47q49 0 73 -18l-21 -42q-22 16 -58 16q-49 0 -74 -38t-25 -104v-159h117
v-41h-117v-673z" />
    <glyph glyph-name="fi.semp" horiz-adv-x="495" 
d="M411 0h-44v471h44v-471zM430 611q0 -17 -11.5 -28.5t-28.5 -11.5t-28.5 11.5t-11.5 28.5t11.5 28.5t28.5 11.5t28.5 -11.5t11.5 -28.5zM123 -244h-44v863q0 100 40 149q40 47 109 47q49 0 73 -18l-21 -42q-22 16 -58 16q-49 0 -74 -38t-25 -104v-159h142v-41h-142v-673z
" />
    <glyph glyph-name="f_j.semp" horiz-adv-x="494" 
d="M123 -244h-44v863q0 100 40 149q40 47 109 47q49 0 73 -18l-21 -42q-22 16 -58 16q-49 0 -74 -38t-25 -104v-159h142v-41h-142v-673zM411 -254l-44 -10v735h44v-725zM430 611q0 -17 -11.5 -28.5t-28.5 -11.5t-28.5 11.5t-11.5 28.5t11.5 28.5t28.5 11.5t28.5 -11.5
t11.5 -28.5z" />
    <glyph glyph-name="fl.semp2" horiz-adv-x="502" 
d="M123 429v-429h-44v605q0 100 40 149q40 47 109 47q49 0 73 -18l-21 -42q-22 16 -58 16q-49 0 -74 -38t-25 -104v-145h142v-41h-142zM415 0h-44v820h44v-820z" />
    <glyph glyph-name="fl.alt" horiz-adv-x="503" 
d="M416 0h-44v820h44v-820zM149 -244h-44v673h-80v41h80v134q0 100 40 149q40 47 109 47q49 0 73 -18l-21 -42q-22 16 -58 16q-49 0 -74 -38t-25 -104v-144h117v-41h-117v-673z" />
    <glyph glyph-name="fl.semp" horiz-adv-x="502" 
d="M123 -244h-44v849q0 100 40 149q40 47 109 47q49 0 73 -18l-21 -42q-22 16 -58 16q-49 0 -74 -38t-25 -104v-145h142v-41h-142v-673zM415 0h-44v820h44v-820z" />
    <glyph glyph-name="f_t.semp" horiz-adv-x="564" 
d="M123 -244h-44v863q0 100 40 149q40 47 109 47q49 0 73 -18l-21 -42q-22 16 -58 16q-49 0 -74 -38t-25 -104v-159h142v-41h-142v-673zM407 0h-44v659h44v-189h146v-41h-146v-429z" />
    <glyph glyph-name="ffi.semp2" horiz-adv-x="779" 
d="M407 429v-429h-44v625q0 100 40 149q40 47 109 47q49 0 73 -18l-21 -42q-22 16 -58 16q-49 0 -74 -38t-25 -104v-165h142v-41h-142zM123 429v-429h-44v578q0 100 40 149q40 47 109 47q49 0 73 -18l-21 -42q-22 16 -58 16q-49 0 -74 -38t-25 -104v-118h128v-41h-128z
M695 0h-44v471h44v-471zM714 611q0 -17 -11.5 -28.5t-28.5 -11.5t-28.5 11.5t-11.5 28.5t11.5 28.5t28.5 11.5t28.5 -11.5t11.5 -28.5z" />
    <glyph glyph-name="ffi.alt" horiz-adv-x="781" 
d="M697 0h-44v471h44v-471zM716 611q0 -17 -11.5 -28.5t-28.5 -11.5t-28.5 11.5t-11.5 28.5t11.5 28.5t28.5 11.5t28.5 -11.5t11.5 -28.5zM149 -228h-44v657h-80v41h80v108q0 100 40 149q40 47 109 47q49 0 73 -18l-21 -42q-22 16 -58 16q-49 0 -74 -38t-25 -104v-118h112
v-41h-112v-657zM434 -121h-44v550h-75v41h75v155q0 100 40 149q40 47 109 47q49 0 73 -18l-21 -42q-22 16 -58 16q-49 0 -74 -38t-25 -104v-165h117v-41h-117v-550z" />
    <glyph glyph-name="ffi.semp" horiz-adv-x="779" 
d="M695 0h-44v471h44v-471zM714 611q0 -17 -11.5 -28.5t-28.5 -11.5t-28.5 11.5t-11.5 28.5t11.5 28.5t28.5 11.5t28.5 -11.5t11.5 -28.5zM123 -229h-44v807q0 100 40 149q40 47 109 47q49 0 73 -18l-21 -42q-22 16 -58 16q-49 0 -74 -38t-25 -104v-118h128v-41h-128v-658z
M407 -121h-44v746q0 100 40 149q40 47 109 47q49 0 73 -18l-21 -42q-22 16 -58 16q-49 0 -74 -38t-25 -104v-165h142v-41h-142v-550z" />
    <glyph glyph-name="ffl.semp2" horiz-adv-x="786" 
d="M407 429v-429h-44v610q0 100 40 149q40 47 109 47q49 0 73 -18l-21 -42q-22 16 -58 16q-49 0 -74 -38t-25 -104v-150h143v-41h-143zM123 429v-429h-44v573q0 100 40 149q40 47 109 47q49 0 73 -18l-21 -42q-22 16 -58 16q-49 0 -74 -38t-25 -104v-113h128v-41h-128z
M699 0h-44v820h44v-820z" />
    <glyph glyph-name="ffl.alt" horiz-adv-x="788" 
d="M701 0h-44v820h44v-820zM149 -228h-44v657h-80v41h80v103q0 100 40 149q40 47 109 47q49 0 73 -18l-21 -42q-22 16 -58 16q-49 0 -74 -38t-25 -104v-113h112v-41h-112v-657zM434 -120h-44v549h-75v41h75v140q0 100 40 149q40 47 109 47q49 0 73 -18l-21 -42
q-22 16 -58 16q-49 0 -74 -38t-25 -104v-150h112v-41h-112v-549z" />
    <glyph glyph-name="ffl.semp" horiz-adv-x="786" 
d="M699 0h-44v820h44v-820zM123 -230h-44v803q0 100 40 149q40 47 109 47q49 0 73 -18l-21 -42q-22 16 -58 16q-49 0 -74 -38t-25 -104v-113h128v-41h-128v-659zM407 -121h-44v731q0 100 40 149q40 47 109 47q49 0 73 -18l-21 -42q-22 16 -58 16q-49 0 -74 -38t-25 -104
v-150h143v-41h-143v-550z" />
    <glyph glyph-name="c.sc" horiz-adv-x="588" 
d="M518 86l20 -33q-75 -62 -186 -62q-126 0 -211 79t-85 192t84.5 192.5t210.5 79.5q105 0 188 -67l-27 -33q-60 58 -168 58q-102 0 -170.5 -66t-68.5 -168q0 -95 72.5 -160.5t175.5 -65.5q101 0 165 54z" />
    <glyph glyph-name="d.sc" horiz-adv-x="578" 
d="M220 0h-127v524h120q133 0 220 -69t87 -193q0 -121 -83 -191.5t-217 -70.5zM139 40h60q127 0 200 56.5t73 167.5q0 106 -76 163.5t-189 57.5h-68v-445z" />
    <glyph glyph-name="g.sc" horiz-adv-x="649" 
d="M557 206l-156 -1v40h204q-1 -83 -39 -142t-95 -85.5t-126 -26.5q-120 0 -205 79t-85 190q0 114 85.5 194t209.5 80q57 0 110 -19.5t70.5 -32.5t26.5 -22l-26 -33q-7 7 -24.5 19t-62.5 29t-93 17q-109 0 -178.5 -66.5t-69.5 -166.5q0 -88 67 -158t175 -70q84 0 144 46.5
t68 128.5z" />
    <glyph glyph-name="h.sc" horiz-adv-x="595" 
d="M502 0h-46v246h-317v-246h-46v524h46v-236h317v236h46v-524z" />
    <glyph glyph-name="m.sc" horiz-adv-x="749" 
d="M683 0h-47l-39 376v21l-8 -18l-215 -398l-215 398l-8 18v-21l-38 -376h-47l59 538l250 -460l248 460z" />
    <glyph glyph-name="n.sc" horiz-adv-x="662" 
d="M570 -18l-434 445l2 -427h-46v539l434 -446l-2 431h46v-542z" />
    <glyph glyph-name="o.sc" horiz-adv-x="680" 
d="M624 260q0 -113 -81.5 -191t-201.5 -78q-123 0 -204 78.5t-81 192.5t81 193t204 79t203 -77.5t80 -196.5zM576 260q0 101 -66.5 166.5t-168.5 65.5q-104 0 -170.5 -64.5t-66.5 -163.5q0 -95 66 -163.5t166 -68.5q106 0 173 65t67 163z" />
    <glyph glyph-name="p.sc" horiz-adv-x="443" 
d="M139 0h-46v524h110q81 0 139 -36.5t58 -114.5q0 -72 -55.5 -117.5t-153.5 -45.5h-52v-210zM139 248l50 1q77 2 120.5 34t43.5 90q0 53 -38.5 82.5t-100.5 29.5h-75v-237z" />
    <glyph glyph-name="q.sc" horiz-adv-x="680" 
d="M592 -72l-111 101q-70 -38 -140 -38q-123 0 -204 78.5t-81 192.5t81 193t204 79t203 -77.5t80 -196.5q0 -61 -29.5 -115.5t-79.5 -92.5l116 -84zM576 260q0 101 -66.5 166.5t-168.5 65.5q-104 0 -170.5 -64.5t-66.5 -163.5q0 -95 66 -163.5t166 -68.5q106 0 173 65
t67 163z" />
    <glyph glyph-name="z.sc" horiz-adv-x="464" 
d="M422 1h-405l325 483l-263 -1v40h343l-326 -483l326 1v-40z" />
    <glyph glyph-name="aacute.sc" 
d="M348 741l-139 -138l-20 17l118 154zM525 0h-48l-68 143h-280l-68 -143h-49l257 539zM391 185l-122 257l-121 -257h243z" />
    <glyph glyph-name="ccaron.sc" horiz-adv-x="587" 
d="M518 86l19 -33q-74 -62 -185 -62q-126 0 -211 79t-85 192t84.5 192t209.5 79q108 0 189 -65l-27 -33q-61 57 -168 57q-102 0 -170.5 -66t-68.5 -168q0 -95 72.5 -160.5t175.5 -65.5q101 0 165 54zM469 739l-148 -133l-148 133l27 22l122 -102l122 102z" />
    <glyph glyph-name="dcaron.sc" horiz-adv-x="578" 
d="M220 0h-127v524h120q133 0 220 -69t87 -193q0 -121 -83 -191.5t-217 -70.5zM139 40h60q127 0 200.5 56.5t73.5 167.5q0 105 -76 163t-190 58h-68v-445zM432 739l-149 -133l-147 133l26 22l122 -102l123 102z" />
    <glyph glyph-name="dcroat.sc" horiz-adv-x="578" 
d="M220 0h-127v244h-56v36h56v244h120q133 0 220 -69t87 -193q0 -121 -83 -191.5t-217 -70.5zM139 40h60q127 0 200.5 56.5t73.5 167.5q0 105 -76 163t-190 58h-68v-205h143v-36h-143v-204z" />
    <glyph glyph-name="four.sc" horiz-adv-x="482" 
d="M361 -4h-43v107h-293l336 441v-402h75v-39h-75v-107zM319 141v290l-218 -290h218z" />
    <glyph glyph-name="three.sc" horiz-adv-x="430" 
d="M38 45l20 34q13 -16 46.5 -33t81.5 -17q67 0 103.5 33t36.5 79q0 54 -44.5 95t-120.5 42v22q69 4 107 35.5t38 71.5q0 34 -27 57t-75 23q-55 0 -95 -29l-16 32q12 12 46.5 25t71.5 13q62 0 100.5 -36t38.5 -84q0 -79 -92 -116v-2q55 -20 84 -61t29 -88q0 -61 -49 -105
t-135 -44q-39 0 -74 11.5t-50 21.5t-25 20z" />
    <glyph glyph-name="two.sc" horiz-adv-x="467" 
d="M414 1h-390q7 7 80.5 65.5t131.5 116.5q113 113 113 201q0 46 -31.5 77.5t-80.5 31.5q-38 0 -69.5 -17.5t-48.5 -37.5l-24 29q64 67 146 67q68 0 111 -42.5t43 -107.5q0 -101 -125 -223q-61 -58 -151 -121l295 2v-41z" />
    <glyph glyph-name="one.sc" horiz-adv-x="273" 
d="M181 0h-44v476l-91 -39l-14 34l149 64v-535z" />
    <glyph glyph-name="zero.sc.alt" horiz-adv-x="679" 
d="M621 260q0 -113 -80.5 -191t-200.5 -78q-123 0 -203 78.5t-80 192.5t80 193t203 79t202 -77.5t79 -196.5zM574 260q0 101 -66.5 166.5t-167.5 65.5q-104 0 -170 -64.5t-66 -163.5q0 -95 65.5 -163.5t165.5 -68.5q106 0 172.5 65t66.5 163z" />
    <glyph glyph-name="zero_slash.sc" horiz-adv-x="529" 
d="M265 -8q-50 0 -87.5 17.5t-59 44t-34.5 64.5t-17.5 72t-4.5 72q0 48 8 90t28 85.5t62.5 69.5t103.5 26t103.5 -25t63 -68t28.5 -85.5t8 -92.5t-8 -92.5t-28.5 -85t-63 -67.5t-102.5 -25zM166 68l165 410q-30 15 -67 15q-157 0 -157 -231q0 -134 59 -194zM368 451
l-166 -408q29 -13 63 -13q50 0 84 24t48.5 64t19.5 73.5t5 70.5q0 130 -54 189z" />
    <glyph glyph-name="zero.sc" horiz-adv-x="529" 
d="M265 -8q-50 0 -87.5 17.5t-59 44t-34.5 64.5t-17.5 72t-4.5 72q0 48 8 90t28 85.5t62.5 69.5t103.5 26t103.5 -25t63 -68t28.5 -85.5t8 -92.5t-8 -92.5t-28.5 -85t-63 -67.5t-102.5 -25zM265 30q50 0 84 24t48.5 64t19.5 73.5t5 70.5q0 30 -2.5 56.5t-12.5 60t-26.5 57.5
t-46.5 40.5t-70 16.5q-157 0 -157 -231q0 -28 3 -54.5t13 -60.5t26 -58.5t46 -41.5t70 -17z" />
    <glyph glyph-name="nine.osf" horiz-adv-x="546" 
d="M236 -265l-31 33q48 50 114 143t109 177q-23 -26 -66 -39t-80 -13q-104 0 -172 71t-68 171q0 94 69.5 163.5t170.5 69.5q103 0 173 -69.5t70 -163.5q0 -65 -32.5 -148.5t-83 -161t-93 -134t-80.5 -99.5zM284 80q85 0 139 57t54 141q0 78 -57 132.5t-138 54.5
q-83 0 -136.5 -55t-53.5 -132q0 -82 53 -140t139 -58z" />
    <glyph glyph-name="eight.osf" horiz-adv-x="599" 
d="M393 363q128 -57 128 -172q0 -83 -66 -143t-156 -60q-92 0 -157 59t-65 144q0 110 131 173q-58 24 -91.5 68t-33.5 100q0 90 66 145t151 55q90 0 153.5 -55t63.5 -145q0 -54 -34.5 -99.5t-89.5 -69.5zM471 187q0 64 -50.5 110.5t-121.5 46.5q-72 0 -122.5 -46t-50.5 -111
t50.5 -111.5t122.5 -46.5t122 46.5t50 111.5zM466 532q0 67 -47.5 112.5t-118.5 45.5q-70 0 -119 -45.5t-49 -110.5q0 -61 49 -105t120 -44q69 0 117 43t48 104z" />
    <glyph glyph-name="seven.osf" horiz-adv-x="511" 
d="M87 -207h-49l397 661l-379 -1v45h450z" />
    <glyph glyph-name="six.osf" horiz-adv-x="591" 
d="M353 766l31 -33q-48 -50 -114.5 -144.5t-109.5 -178.5q23 26 66 39.5t80 13.5q104 0 172 -71.5t68 -171.5q0 -94 -69.5 -163t-170.5 -69q-104 0 -173.5 69t-69.5 163q0 65 32.5 149t83 162t93.5 135t81 100zM496 220q0 82 -53 140.5t-139 58.5q-85 0 -139 -57t-54 -142
q0 -78 57 -132.5t138 -54.5q83 0 136.5 55t53.5 132z" />
    <glyph glyph-name="five.osf" horiz-adv-x="504" 
d="M32 -168l21 40q15 -21 64 -44.5t113 -23.5q68 0 119 47.5t51 128.5q0 88 -77 154t-207 89l91 274h237l-12 -46l-194 3l-67 -200q121 -24 197 -98t76 -174q0 -96 -63 -158.5t-157 -62.5q-63 0 -119.5 25.5t-72.5 45.5z" />
    <glyph glyph-name="four.osf" horiz-adv-x="610" 
d="M439 -246h-45v250h-372l417 521v-480l139 1v-42h-139v-250zM394 45v355l-286 -356z" />
    </font>
</defs>
</svg>
