<?xml version="1.0" standalone="no"?>
<!DOCTYPE svg PUBLIC "-//W3C//DTD SVG 1.1//EN" "http://www.w3.org/Graphics/SVG/1.1/DTD/svg11.dtd" >
<svg xmlns="http://www.w3.org/2000/svg" xmlns:xlink="http://www.w3.org/1999/xlink" version="1.1">
<metadata>
Created by FontForge 20201107 at Tue Sep  4 00:08:34 2012
 By 
Copyright (c) 2011 Canada Type. Designed by Patrick Griffin &#38; Bill Troop. All rights reserved. 
</metadata>
<defs>
<font id="SemplicitaPro-LightItalic" horiz-adv-x="523" >
  <font-face 
    font-family="Semplicita Pro Light"
    font-weight="300"
    font-style="italic"
    font-stretch="normal"
    units-per-em="1000"
    panose-1="0 0 0 0 0 0 0 0 0 0"
    ascent="800"
    descent="-200"
    x-height="470"
    cap-height="757"
    bbox="-187 -292 1257 1042"
    underline-thickness="50"
    underline-position="-249"
    unicode-range="U+0020-FB04"
  />
<missing-glyph horiz-adv-x="544" 
d="M495 0h-448l120 757h448zM457 41l107 675h-360l-107 -675h360z" />
    <glyph glyph-name=".notdef" horiz-adv-x="544" 
d="M495 0h-448l120 757h448zM457 41l107 675h-360l-107 -675h360z" />
    <glyph glyph-name=".null" horiz-adv-x="0" 
 />
    <glyph glyph-name="nonmarkingreturn" horiz-adv-x="333" 
 />
    <glyph glyph-name="space" unicode=" " horiz-adv-x="240" 
 />
    <glyph glyph-name="exclam" unicode="!" horiz-adv-x="245" 
d="M122 188h-36l74 569h68zM124 40q0 -21 -15 -35.5t-36 -14.5q-16 0 -26.5 10.5t-10.5 26.5q0 21 15 36.5t36 15.5q17 0 27 -11t10 -28z" />
    <glyph glyph-name="quotedbl" unicode="&#x22;" horiz-adv-x="331" 
d="M145 488h-36l34 273h54zM280 488h-36l34 273h53z" />
    <glyph glyph-name="numbersign" unicode="#" horiz-adv-x="630" 
d="M337 -11l-41 3l72 256h-156l-71 -259l-40 3l71 256h-123l13 41h121l47 172h-120l12 41h119l73 260l41 -3l-72 -257h155l72 260l42 -3l-72 -257h123l-11 -41h-123l-49 -172h122l-10 -41h-123zM379 289l48 172h-155l-49 -172h156z" />
    <glyph glyph-name="dollar" unicode="$" horiz-adv-x="532" 
d="M236 -100h-38l14 92q-66 0 -118 29t-69 64l36 35q44 -83 158 -84l54 337q-137 75 -137 180q0 87 56 135.5t139 55.5l16 99h38l-16 -99q48 -3 83.5 -23.5t51.5 -43.5l-33 -33q-43 51 -109 56l-46 -292q69 -42 103 -85.5t34 -110.5q0 -84 -56 -145.5t-146 -71.5zM307 353
l-49 -314q63 12 102.5 54t39.5 112q0 87 -93 148zM281 428l43 272q-59 -5 -98 -39.5t-39 -99.5q0 -46 25 -76.5t69 -56.5z" />
    <glyph glyph-name="percent" unicode="%" horiz-adv-x="798" 
d="M200 -19l-28 12l432 777l28 -13zM219 471q-51 0 -84 35.5t-33 89.5q0 67 49.5 116.5t113.5 49.5q51 0 84.5 -36t33.5 -90q0 -67 -49.5 -116t-114.5 -49zM226 506q48 0 84.5 37.5t36.5 88.5q0 40 -24.5 67t-62.5 27q-48 0 -84 -37.5t-36 -88.5q0 -40 24 -67t62 -27z
M557 -11q-51 0 -84 35t-33 89q0 67 49.5 116.5t113.5 49.5q51 0 84 -36t33 -90q0 -67 -49 -115.5t-114 -48.5zM563 23q48 0 84 37.5t36 88.5q0 40 -23.5 67t-61.5 27q-48 0 -84.5 -37.5t-36.5 -88.5q0 -40 24 -67t62 -27z" />
    <glyph glyph-name="ampersand" unicode="&#x26;" horiz-adv-x="689" 
d="M661 0h-67l-89 135q-6 -14 -25 -36t-50 -48t-78 -44.5t-98 -18.5q-94 0 -153.5 64.5t-59.5 160.5q0 113 66.5 191t158.5 100q-39 63 -39 118q0 68 40.5 108t110.5 40q69 0 120 -51l-36 -32q-34 40 -91 40q-41 0 -69 -25.5t-28 -74.5q0 -53 42 -118l246 1l-16 -38l-204 -1
zM482 172l-193 295q-18 -1 -47.5 -14.5t-65 -40t-60.5 -77t-25 -114.5q0 -84 50 -137t121 -53q38 0 73 12.5t58.5 29.5t44 38t30 36t14.5 25z" />
    <glyph glyph-name="quotesingle" unicode="'" horiz-adv-x="197" 
d="M145 488h-36l34 273h54z" />
    <glyph glyph-name="parenleft" unicode="(" horiz-adv-x="234" 
d="M97 -251l-38 -16q-17 94 -17 273q0 233 55.5 448.5t135.5 381.5l34 -15q-181 -400 -181 -794q0 -142 11 -278z" />
    <glyph glyph-name="parenright" unicode=")" horiz-adv-x="235" 
d="M-5 -267l-33 16q48 122 72 188.5t54 172.5t42.5 214t12.5 235q0 176 -12 262l38 15q16 -90 16 -275q0 -225 -52 -440.5t-138 -387.5z" />
    <glyph glyph-name="plus" unicode="+" horiz-adv-x="597" 
d="M543 342h-216l-38 -238h-45l38 238h-216l7 44h216l38 238h45l-38 -238h216z" />
    <glyph glyph-name="comma" unicode="," horiz-adv-x="219" 
d="M3 -105h-40l96 181h52z" />
    <glyph glyph-name="hyphen" unicode="-" horiz-adv-x="383" 
d="M294 227h-233l11 40h233z" />
    <glyph glyph-name="period" unicode="." horiz-adv-x="227" 
d="M66 -9q-16 0 -26.5 10.5t-10.5 26.5q0 21 15.5 35.5t35.5 14.5q16 0 25.5 -10.5t9.5 -27.5q0 -20 -14.5 -34.5t-34.5 -14.5z" />
    <glyph glyph-name="slash" unicode="/" horiz-adv-x="525" 
d="M5 -215l-36 15l551 1020l37 -18z" />
    <glyph glyph-name="zero" unicode="0" horiz-adv-x="637" 
d="M268 -11q-53 0 -91.5 24t-58.5 65t-29 86.5t-9 97.5q0 138 34.5 249.5t105.5 181t169 69.5q54 0 93 -24t59.5 -65t29.5 -87t9 -99q0 -141 -35 -252.5t-107 -178.5t-170 -67zM275 32q83 0 143 67t86.5 166t26.5 215q0 43 -7 81.5t-22.5 75t-46 58.5t-73.5 22
q-80 0 -138.5 -63t-86 -162t-27.5 -218q0 -33 3.5 -64.5t14 -64.5t26 -57.5t41.5 -40t60 -15.5z" />
    <glyph glyph-name="one" unicode="1" horiz-adv-x="325" 
d="M160 -3h-46l111 705l-125 -60l-9 39l191 87z" />
    <glyph glyph-name="two" unicode="2" horiz-adv-x="564" 
d="M457 0h-477q11 9 29.5 25t24.5 21q13 11 59 48.5t71.5 58.5t71.5 62.5t74 71t63.5 71.5t55.5 76.5t34 75t14 76.5q0 59 -33.5 95.5t-90.5 36.5q-48 0 -93.5 -26.5t-70.5 -56.5l-22 32q95 95 197 95q75 0 118.5 -49.5t43.5 -127.5q0 -158 -216 -355q-150 -137 -224 -187
l378 3z" />
    <glyph glyph-name="three" unicode="3" horiz-adv-x="544" 
d="M4 65l27 39q12 -23 51.5 -48t102.5 -25q100 0 157 58t57 137q0 71 -48 124.5t-135 57.5l5 21q101 11 158 64.5t57 116.5q0 45 -30.5 75.5t-86.5 30.5q-69 0 -131 -43l-12 34q17 17 63.5 36t92.5 19q71 0 111.5 -43.5t40.5 -104.5q0 -58 -38 -110t-111 -82l-1 -2
q56 -25 85.5 -76t29.5 -110q0 -98 -71.5 -171.5t-198.5 -73.5q-49 0 -90.5 16.5t-58.5 31.5t-26 28z" />
    <glyph glyph-name="four" unicode="4" horiz-adv-x="593" 
d="M397 -3h-46l25 158h-370l514 617l-91 -573h94l-7 -44h-94zM383 199l66 422l-350 -422h284z" />
    <glyph glyph-name="five" unicode="5" horiz-adv-x="539" 
d="M5 43l28 41q64 -52 144 -52q75 0 130.5 36t80.5 87t25 107q0 70 -44 117.5t-130 47.5q-49 0 -107 -19l144 342h247l-19 -44h-202l-98 -241q32 5 57 5q90 0 146 -53t56 -140q0 -119 -78 -203.5t-210 -84.5q-55 0 -102 18.5t-68 35.5z" />
    <glyph glyph-name="six" unicode="6" horiz-adv-x="576" 
d="M414 766l26 -33q-53 -51 -131 -145t-132 -178q26 26 68 39.5t76 13.5q88 0 141 -60t53 -148q0 -106 -80.5 -186.5t-187.5 -80.5q-89 0 -143.5 59t-54.5 143q0 54 29.5 124t70.5 132t96 130.5t93 110t76 79.5zM254 33q88 0 150 65t62 152q0 71 -41 120t-112 49
q-90 0 -153 -67t-63 -157q0 -69 44.5 -115.5t112.5 -46.5z" />
    <glyph glyph-name="seven" unicode="7" horiz-adv-x="494" 
d="M74 -5h-51l442 711l-354 -1l7 45h427z" />
    <glyph glyph-name="eight" unicode="8" horiz-adv-x="581" 
d="M392 378q95 -50 95 -152q0 -101 -75 -169.5t-172 -68.5q-78 0 -129.5 52.5t-51.5 130.5q0 132 155 208q-43 22 -67.5 61.5t-24.5 88.5q0 73 38 128.5t92 80.5t112 25q76 0 126.5 -48.5t50.5 -129.5q0 -69 -42 -123t-107 -84zM437 215q0 61 -39.5 102.5t-98.5 41.5
q-76 0 -133.5 -56t-57.5 -131q0 -61 39 -102t100 -41q75 0 132.5 56t57.5 130zM489 579q0 61 -36.5 101t-95.5 40q-73 0 -129.5 -54.5t-56.5 -128.5q0 -57 38.5 -96.5t98.5 -39.5q72 0 126.5 52.5t54.5 125.5z" />
    <glyph glyph-name="nine" unicode="9" horiz-adv-x="577" 
d="M186 -14l-26 32q54 51 131 144t131 177q-26 -26 -68 -39t-76 -13q-87 0 -140.5 60t-53.5 148q0 111 80 189t189 78q89 0 143 -57t54 -146q0 -70 -40.5 -157t-107.5 -172t-115.5 -138.5t-100.5 -105.5zM287 331q90 0 152.5 66.5t62.5 156.5q0 73 -43.5 117.5t-112.5 44.5
q-89 0 -150.5 -65t-61.5 -152q0 -71 41 -119.5t112 -48.5z" />
    <glyph glyph-name="colon" unicode=":" horiz-adv-x="233" 
d="M117 40q0 -20 -15 -34.5t-35 -14.5q-15 0 -25.5 11t-10.5 26q0 21 15 36t35 15q16 0 26 -11t10 -28zM176 409q0 -21 -15 -35t-36 -14q-16 0 -26 10t-10 26q0 22 15 36.5t35 14.5q17 0 27 -10.5t10 -27.5z" />
    <glyph glyph-name="semicolon" unicode=";" horiz-adv-x="257" 
d="M196 410q0 -21 -14 -35t-36 -14q-16 0 -25.5 10t-9.5 26q0 21 14.5 35.5t34.5 14.5q17 0 26.5 -10t9.5 -27zM18 -105h-40l96 181h52z" />
    <glyph glyph-name="less" unicode="&#x3c;" horiz-adv-x="579" 
d="M437 79l-372 277l4 28l458 260l14 -37l-423 -237l345 -256z" />
    <glyph glyph-name="equal" unicode="=" horiz-adv-x="661" 
d="M553 224h-477l7 44h477zM590 458h-477l7 44h477z" />
    <glyph glyph-name="greater" unicode="&#x3e;" horiz-adv-x="578" 
d="M529 356l-457 -260l-14 37l423 237l-345 256l26 35l372 -277z" />
    <glyph glyph-name="question" unicode="?" horiz-adv-x="462" 
d="M372 305l22 -27q-21 -32 -76 -64.5t-116 -32.5q-51 0 -89.5 34t-38.5 89q0 54 30 97t73.5 70.5t86.5 53t73 58.5t30 74q0 31 -19 51.5t-50 20.5q-53 0 -115 -44l-14 34q64 53 136 53q50 0 78.5 -32t28.5 -76q0 -52 -30.5 -92.5t-73.5 -67.5t-86.5 -52.5t-74 -61
t-30.5 -79.5q0 -38 27.5 -63.5t69.5 -25.5q84 0 158 83zM212 40q0 -20 -15 -34.5t-35 -14.5q-16 0 -26.5 10.5t-10.5 26.5q0 21 15 35.5t36 14.5q16 0 26 -10.5t10 -27.5z" />
    <glyph glyph-name="at" unicode="@" horiz-adv-x="1024" 
d="M694 -177l7 -37q-107 -45 -230 -45q-180 0 -298.5 128.5t-118.5 315.5q0 115 46 223t122.5 187t180 127t213.5 48q174 0 269 -101.5t95 -264.5q0 -76 -32 -152.5t-87.5 -139t-140 -102t-181.5 -39.5q-105 0 -162 56t-57 132q0 75 56 128.5t154 53.5q81 0 140 -57l11 68
q19 118 -116 118q-61 0 -131 -28l-13 35q73 34 148 34q101 0 133.5 -44t19.5 -128l-25 -157h-13q-35 118 -159 118q-76 0 -118 -39.5t-42 -95.5q0 -61 47.5 -107.5t133.5 -46.5q111 0 203 56.5t141 143t49 181.5q0 45 -9.5 89t-33.5 90t-60 80.5t-95.5 56.5t-133.5 22
q-135 0 -254 -74.5t-189 -200.5t-70 -269q0 -163 109.5 -284t271.5 -121q124 0 219 42z" />
    <glyph glyph-name="A" unicode="A" horiz-adv-x="647" 
d="M600 0h-50l-56 224h-361l-127 -224h-50l446 777zM483 268l-88 352q-8 30 -11 50q-6 -15 -26 -50l-199 -352h324z" />
    <glyph glyph-name="B" unicode="B" horiz-adv-x="587" 
d="M237 0h-177l120 757h133q198 0 198 -152q0 -72 -46 -127.5t-105 -74.5q58 -6 106 -51t48 -118q0 -105 -73.5 -169.5t-203.5 -64.5zM173 410h58q100 0 165 53t65 134q0 116 -148 116h-92zM115 44h130q105 0 162 51t57 131q0 61 -44.5 100.5t-115.5 39.5h-138z" />
    <glyph glyph-name="C" unicode="C" horiz-adv-x="718" 
d="M618 113l18 -33q-113 -92 -251 -92q-142 0 -230.5 96t-88.5 240q0 94 36 177t96 142t141 93t170 34q137 0 222 -94l-35 -36q-64 85 -203 85q-99 0 -185 -51.5t-139 -144.5t-53 -204q0 -126 78.5 -210t198.5 -84q132 0 225 82z" />
    <glyph glyph-name="D" unicode="D" horiz-adv-x="708" 
d="M218 0h-158l120 757h149q148 0 241 -83.5t93 -234.5q0 -201 -126.5 -320t-318.5 -119zM115 44h87q182 0 296.5 102.5t114.5 289.5q0 136 -84.5 206.5t-217.5 70.5h-90z" />
    <glyph glyph-name="E" unicode="E" horiz-adv-x="530" 
d="M448 1h-388l120 755h356l-7 -43h-308l-45 -284h248l-7 -44h-248l-54 -341h340z" />
    <glyph glyph-name="F" unicode="F" horiz-adv-x="491" 
d="M107 0h-48l120 756h350l-7 -43h-302l-45 -284h243l-7 -44h-243z" />
    <glyph glyph-name="G" unicode="G" horiz-adv-x="804" 
d="M710 299h-203l7 43h252q-14 -90 -53 -159.5t-93.5 -111t-116 -62.5t-126.5 -21q-134 0 -222.5 97.5t-88.5 238.5q0 189 130.5 317.5t313.5 128.5q46 0 88 -11t68.5 -25.5t48.5 -31.5t30.5 -26.5t10.5 -13.5l-34 -35q-3 4 -11 12.5t-28 24t-43.5 28.5t-60 23t-75.5 10
q-167 0 -277 -116.5t-110 -278.5q0 -121 73.5 -210t194.5 -89q111 0 202.5 70.5t122.5 197.5z" />
    <glyph glyph-name="H" unicode="H" horiz-adv-x="728" 
d="M572 0h-48l57 363h-416l-57 -363h-48l120 757h48l-56 -350h416l56 350h48z" />
    <glyph glyph-name="I" unicode="I" horiz-adv-x="264" 
d="M108 0h-48l120 757h48z" />
    <glyph glyph-name="J" unicode="J" horiz-adv-x="263" 
d="M-106 -264l-12 44q64 27 96.5 56t54 82t37.5 150l109 689h48l-110 -694q-17 -107 -43.5 -167.5t-66 -94t-113.5 -65.5z" />
    <glyph glyph-name="K" unicode="K" horiz-adv-x="595" 
d="M562 0h-68l-329 359l-57 -359h-48l120 757h48l-57 -358l388 358h73l-425 -377z" />
    <glyph glyph-name="L" unicode="L" horiz-adv-x="485" 
d="M417 1h-357l120 756h48l-113 -713h309z" />
    <glyph glyph-name="M" unicode="M" horiz-adv-x="929" 
d="M807 0h-50l42 588q0 2 1.5 13.5t1.5 12.5q-2 -7 -11 -20l-380 -621l-183 621q-4 14 -5 20q-2 -18 -5 -26l-144 -588h-49l196 778l199 -661q9 -27 8 -40q7 19 21 40l407 661z" />
    <glyph glyph-name="N" unicode="N" horiz-adv-x="820" 
d="M661 -24l-452 671l-102 -647h-48l123 775l452 -669l103 651h48z" />
    <glyph glyph-name="O" unicode="O" horiz-adv-x="872" 
d="M388 -12q-141 0 -231.5 96.5t-90.5 240.5q0 125 62.5 228t164.5 160t219 57q141 0 229.5 -94.5t88.5 -242.5q0 -127 -63.5 -230.5t-164.5 -159t-214 -55.5zM388 31q159 0 275.5 116t116.5 281q0 130 -77.5 213.5t-197.5 83.5q-155 0 -271.5 -114t-116.5 -276
q0 -126 76.5 -215t194.5 -89z" />
    <glyph glyph-name="P" unicode="P" horiz-adv-x="533" 
d="M108 0h-48l120 757h129q95 0 158.5 -44.5t63.5 -136.5q0 -116 -77 -191.5t-231 -75.5h-66zM164 353h68q114 0 181.5 58t67.5 158q0 70 -46 107t-123 37h-91z" />
    <glyph glyph-name="Q" unicode="Q" horiz-adv-x="872" 
d="M756 -49l-41 -40l-123 133q-96 -56 -204 -56q-141 0 -231.5 96.5t-90.5 240.5q0 125 62.5 228t164.5 160t219 57q141 0 229.5 -94.5t88.5 -242.5q0 -115 -52.5 -208.5t-141.5 -153.5zM388 31q159 0 275.5 116t116.5 281q0 130 -77.5 213.5t-197.5 83.5
q-155 0 -271.5 -114t-116.5 -276q0 -126 76.5 -215t194.5 -89z" />
    <glyph glyph-name="R" unicode="R" horiz-adv-x="562" 
d="M520 0h-71l-251 309h-41l-49 -309h-48l120 757h138q87 0 150 -43.5t63 -136.5q0 -117 -75 -189t-200 -78zM164 353h57q124 0 192 57.5t68 158.5q0 69 -46 106.5t-123 37.5h-91z" />
    <glyph glyph-name="S" unicode="S" horiz-adv-x="517" 
d="M4 84l37 35q50 -87 170 -87q77 0 132 50.5t55 130.5q0 43 -20.5 77t-51.5 54.5t-67 42.5t-67 42t-51.5 54t-20.5 77q0 102 67 157t160 55q57 0 98 -22t60 -49l-35 -33q-48 60 -130 60q-67 0 -117.5 -41t-50.5 -114q0 -37 20.5 -67t51.5 -48t67.5 -41t67.5 -45t51.5 -60.5
t20.5 -88.5q0 -97 -70.5 -166t-180.5 -69q-69 0 -124 30.5t-72 65.5z" />
    <glyph glyph-name="T" unicode="T" horiz-adv-x="508" 
d="M229 0h-48l113 713h-208l7 43h464l-7 -43h-208z" />
    <glyph glyph-name="U" unicode="U" horiz-adv-x="718" 
d="M535 95l105 662h48l-107 -676q-40 -42 -110 -67.5t-162 -25.5q-122 0 -178 72t-34 212l77 485h48l-75 -472q-21 -136 26 -195t165 -59q53 0 108 16t89 48z" />
    <glyph glyph-name="V" unicode="V" horiz-adv-x="596" 
d="M244 -27l-170 784h58l131 -637q1 -5 1 -35q4 22 11 35l329 637h57z" />
    <glyph glyph-name="W" unicode="W" horiz-adv-x="954" 
d="M651 -27l-108 567q-9 50 -15 95l-46 -95l-285 -567l-112 784h56l81 -617q2 -13 0 -34q3 17 12 34l317 638l118 -638q1 -6 1 -34q4 17 11 34l271 617h54z" />
    <glyph glyph-name="X" unicode="X" horiz-adv-x="572" 
d="M502 0h-55l-154 345l-267 -345h-54l303 391l-165 366h55l145 -324l248 324h56l-286 -366z" />
    <glyph glyph-name="Y" unicode="Y" horiz-adv-x="508" 
d="M227 0h-48l52 328l-161 429h56l135 -363q3 -9 3 -15q1 6 7 15l253 363h55l-300 -429z" />
    <glyph glyph-name="Z" unicode="Z" horiz-adv-x="540" 
d="M462 1h-500l520 712h-340l7 43h423l-521 -712h418z" />
    <glyph glyph-name="bracketleft" unicode="[" horiz-adv-x="272" 
d="M151 -215h-145l164 1035h145l-7 -42h-103l-151 -954h103z" />
    <glyph glyph-name="backslash" unicode="\" horiz-adv-x="512" 
d="M390 -201l-42 -14l-228 1018l42 17z" />
    <glyph glyph-name="bracketright" unicode="]" horiz-adv-x="272" 
d="M102 -215h-144l7 42h102l151 954h-103l6 39h145z" />
    <glyph glyph-name="asciicircum" unicode="^" horiz-adv-x="577" 
d="M559 413h-51l-99 354l-211 -354h-50l246 401h47z" />
    <glyph glyph-name="underscore" unicode="_" horiz-adv-x="583" 
d="M478 -19h-470l6 39h470z" />
    <glyph glyph-name="grave" unicode="`" horiz-adv-x="312" 
d="M331 600l-24 -17l-111 138l46 33z" />
    <glyph glyph-name="a" unicode="a" horiz-adv-x="486" 
d="M337 76l22 133q-55 64 -138 64q-59 0 -111.5 -35t-52.5 -99q0 -53 35.5 -81.5t90.5 -28.5q91 0 154 47zM366 254l11 70q9 55 -19 86.5t-98 31.5q-60 0 -130 -28l-13 35q73 34 148 34q180 0 154 -172l-40 -254q-80 -68 -204 -68q-82 0 -123 41t-41 103q0 58 35 101
t82.5 61t96.5 18q93 0 141 -59z" />
    <glyph glyph-name="b" unicode="b" horiz-adv-x="557" 
d="M38 53l121 767h44l-65 -413q29 28 77 52t100 24q92 0 138.5 -53.5t46.5 -145.5q0 -96 -43.5 -165t-107.5 -99.5t-137 -30.5q-106 0 -174 64zM130 354l-45 -279q17 -17 56 -31.5t77 -14.5q97 0 166 66t69 182q0 78 -38.5 121.5t-110.5 43.5q-46 0 -96 -27.5t-78 -60.5z
" />
    <glyph glyph-name="c" unicode="c" horiz-adv-x="494" 
d="M408 97l18 -27q-71 -81 -193 -81q-87 0 -142 58t-55 150q0 127 80 206.5t198 79.5q57 0 95 -22.5t51 -42.5l-31 -30q-6 9 -18.5 20t-42 22.5t-63.5 11.5q-84 0 -153.5 -64t-69.5 -178q0 -80 46 -125.5t116 -45.5q92 0 164 68z" />
    <glyph glyph-name="d" unicode="d" horiz-adv-x="557" 
d="M400 76l45 287q-13 35 -53 57t-89 22q-97 0 -158.5 -68.5t-61.5 -178.5q0 -79 49 -122.5t120 -43.5q78 0 148 47zM455 423l63 397h44l-122 -767q-87 -64 -194 -64q-87 0 -148.5 52.5t-61.5 147.5q0 134 77.5 214t195.5 80q44 0 83.5 -16t62.5 -44z" />
    <glyph glyph-name="e" unicode="e" horiz-adv-x="519" 
d="M407 100l20 -26q-72 -85 -199 -85q-86 0 -139 56t-53 148q0 128 75.5 209t194.5 81q63 0 102.5 -34.5t52.5 -84.5t6 -111l-1 -9h-378q-17 -103 27.5 -159t128.5 -56q99 0 163 71zM97 284h328q4 68 -29 113t-101 45q-72 0 -126.5 -46.5t-71.5 -111.5z" />
    <glyph glyph-name="f" unicode="f" horiz-adv-x="282" 
d="M101 0h-44l68 429h-76l6 41h76l24 149q16 100 62 149q45 47 111 47q48 0 69 -18l-27 -42q-22 16 -54 16q-46 0 -75 -37.5t-40 -104.5l-25 -159h111l-6 -41h-112z" />
    <glyph glyph-name="g" unicode="g" horiz-adv-x="557" 
d="M382 -26l16 100q-35 -39 -83.5 -62t-95.5 -23q-76 0 -129.5 55t-53.5 150q0 71 25 127.5t66.5 91t91.5 52.5t104 18q61 0 107 -20.5t67 -44.5l-71 -445q-11 -70 -36 -118.5t-61 -72t-70.5 -32.5t-76.5 -9q-95 0 -165 54l28 36q59 -48 148 -48q159 0 189 191zM407 129
l43 270q-51 43 -135 43q-91 0 -161.5 -64.5t-70.5 -175.5q0 -70 38.5 -121t115.5 -51q41 0 91 29t79 70z" />
    <glyph glyph-name="h" unicode="h" 
d="M399 0h-44l46 288q13 81 -12.5 116t-96.5 35q-85 0 -157 -66l-59 -373h-44l130 820h44l-63 -400q76 63 163 63q81 0 117.5 -46t23.5 -131z" />
    <glyph glyph-name="i" unicode="i" horiz-adv-x="213" 
d="M80 0h-44l75 471h44zM194 616q0 -18 -13.5 -31.5t-32.5 -13.5q-14 0 -23.5 10t-9.5 24q0 19 14 32.5t32 13.5q15 0 24 -9.5t9 -25.5z" />
    <glyph glyph-name="j" unicode="j" horiz-adv-x="213" 
d="M-76 -267l-13 38q19 9 31.5 15.5t25 17.5t19 17t14 25t11 29.5t10 42t9.5 51.5t11 68l69 434h44l-68 -428q-8 -47 -12 -71t-10.5 -56.5t-11.5 -47.5t-14.5 -36t-18.5 -31.5t-24 -24t-32 -23t-40 -20.5zM196 616q0 -18 -14 -31.5t-32 -13.5q-15 0 -24 9.5t-9 24.5
q0 19 13.5 32.5t32.5 13.5q14 0 23.5 -9.5t9.5 -25.5z" />
    <glyph glyph-name="k" unicode="k" horiz-adv-x="428" 
d="M383 0h-59l-208 255l-40 -255h-44l130 820h44l-87 -549l219 200h63l-235 -208z" />
    <glyph glyph-name="l" unicode="l" horiz-adv-x="221" 
d="M84 0h-44l130 820h44z" />
    <glyph glyph-name="m" unicode="m" horiz-adv-x="790" 
d="M665 0h-44l49 308q11 69 -8.5 100t-83.5 31q-77 0 -155 -70q3 -22 -2 -54l-50 -315h-44l49 308q11 69 -9 100t-84 31q-76 0 -148 -66l-59 -373h-44l75 471h44l-8 -51q28 23 71 43t83 20q100 0 120 -76q90 76 175 76q150 0 123 -168z" />
    <glyph glyph-name="n" unicode="n" 
d="M399 0h-44l46 288q13 81 -12.5 116t-96.5 35q-85 0 -157 -66l-59 -373h-44l75 471h44l-8 -51q76 63 163 63q81 0 117.5 -46t23.5 -131z" />
    <glyph glyph-name="o" unicode="o" horiz-adv-x="574" 
d="M237 -11q-89 0 -145.5 60t-56.5 151q0 123 82 203t199 80q89 0 145 -61t56 -152q0 -120 -83 -200.5t-197 -80.5zM242 30q97 0 162.5 67t65.5 168q0 76 -46.5 126t-116.5 50q-96 0 -161.5 -69.5t-65.5 -167.5q0 -75 47 -124.5t115 -49.5z" />
    <glyph glyph-name="p" unicode="p" horiz-adv-x="555" 
d="M33 -254h-43l106 672q87 65 194 65q89 0 148.5 -54.5t59.5 -154.5q0 -120 -73 -202.5t-189 -82.5q-48 0 -90 20.5t-63 49.5zM137 399l-45 -280q18 -39 59 -64.5t92 -25.5q84 0 146.5 65.5t62.5 171.5q0 78 -46 127t-129 49q-37 0 -77.5 -13.5t-62.5 -29.5z" />
    <glyph glyph-name="q" unicode="q" horiz-adv-x="557" 
d="M391 -254h-44l52 328q-34 -39 -83.5 -62t-96.5 -23q-77 0 -130 55t-53 149q0 71 25 128t67 91.5t92.5 52.5t104.5 18q60 0 104.5 -20t67.5 -45zM408 129l42 270q-55 43 -133 43q-94 0 -164 -64t-70 -174q0 -70 39 -122t116 -52q41 0 91 29t79 70z" />
    <glyph glyph-name="r" unicode="r" horiz-adv-x="305" 
d="M76 0h-44l75 471h44l-11 -65q7 21 40 49t67 28q39 0 71 -21l-31 -42q-27 18 -48 18q-35 0 -66.5 -31.5t-42.5 -63.5z" />
    <glyph glyph-name="s" unicode="s" horiz-adv-x="383" 
d="M-6 60l32 30q40 -63 115 -63q54 0 89 31.5t35 83.5q0 27 -19.5 47.5t-47.5 34.5t-55.5 30t-47 42t-19.5 61q0 56 43 91.5t110 35.5q37 0 69.5 -16.5t46.5 -39.5l-28 -33q-10 16 -36.5 33t-59.5 17q-50 0 -75 -28t-25 -58t30 -54t65.5 -40t65.5 -49t30 -78q0 -62 -53 -106
t-126 -44q-52 0 -87.5 21.5t-51.5 50.5z" />
    <glyph glyph-name="t" unicode="t" horiz-adv-x="274" 
d="M103 0h-44l68 429h-83l6 41h83l28 171h44l-28 -171h108l-6 -41h-108z" />
    <glyph glyph-name="u" unicode="u" horiz-adv-x="522" 
d="M364 73l63 398h44l-66 -417q-77 -65 -195 -65q-84 0 -127 46t-29 133l48 303h44l-46 -293q-23 -149 117 -149q81 0 147 44z" />
    <glyph glyph-name="v" unicode="v" horiz-adv-x="434" 
d="M168 -21h-6l-124 492h48l81 -326q12 -49 13 -76h1q5 15 37 75l181 327h50z" />
    <glyph glyph-name="w" unicode="w" horiz-adv-x="679" 
d="M432 -21h-5l-77 403l-204 -403h-2l-104 492h49l74 -377l202 402h6l78 -402l195 377h48z" />
    <glyph glyph-name="x" unicode="x" horiz-adv-x="439" 
d="M375 0h-53l-117 216l-185 -216h-50l216 254l-116 217h53l95 -179l155 179h51l-187 -216z" />
    <glyph glyph-name="y" unicode="y" horiz-adv-x="453" 
d="M14 -259h-49l186 296l-114 434h50l97 -388l237 388h51z" />
    <glyph glyph-name="z" unicode="z" horiz-adv-x="417" 
d="M330 1h-360l357 428h-247l6 41h328l-356 -428h278z" />
    <glyph glyph-name="braceleft" unicode="{" horiz-adv-x="286" 
d="M170 -185l-13 -31q-70 20 -87.5 60.5t-3.5 133.5l20 131q11 76 1 113t-54 80q52 29 77 74t37 119l21 132q14 91 47.5 139.5t105.5 54.5l3 -31q-89 -14 -105 -120l-29 -188q-9 -60 -31.5 -100.5t-70.5 -79.5q33 -30 43.5 -71.5t0.5 -108.5l-28 -180q-10 -66 8.5 -93.5
t57.5 -33.5z" />
    <glyph glyph-name="bar" unicode="|" horiz-adv-x="217" 
d="M40 -259h-41l170 1079h42z" />
    <glyph glyph-name="braceright" unicode="}" horiz-adv-x="285" 
d="M-35 -216l-3 31q40 6 67.5 33.5t37.5 93.5l29 180q10 66 34 107.5t68 72.5q-36 39 -46 80.5t1 99.5l30 188q18 106 -67 120l12 31q48 -4 72.5 -29.5t26 -67.5t-6.5 -97l-21 -132q-13 -68 -1.5 -116t54.5 -77q-58 -43 -80 -80t-34 -113l-21 -131q-15 -92 -46 -133
t-106 -61z" />
    <glyph glyph-name="asciitilde" unicode="~" horiz-adv-x="561" 
d="M513 554l19 -29q-21 -19 -61.5 -39t-80.5 -20q-25 0 -75.5 26t-79.5 26q-43 0 -118 -48l-21 27q26 22 70.5 43t79.5 21q31 0 82 -26.5t72 -26.5q49 0 113 46z" />
    <glyph glyph-name="exclamdown" unicode="&#xa1;" horiz-adv-x="243" 
d="M74 -210h-68l106 568h37zM148 467q-18 0 -28 11t-10 28q0 21 15.5 36t37.5 15q15 0 25 -11t10 -27q0 -21 -15.5 -36.5t-34.5 -15.5z" />
    <glyph glyph-name="cent" unicode="&#xa2;" horiz-adv-x="540" 
d="M257 -12h-37l21 134q-75 10 -120.5 66.5t-45.5 140.5q0 116 68.5 193t175.5 91l23 146h37l-23 -144q56 -1 93.5 -23t50.5 -42l-31 -30q-7 9 -19 19t-40 22t-60 13l-66 -413q91 0 163 68l19 -27q-70 -80 -188 -82zM247 164l65 407q-77 -13 -134 -75.5t-57 -163.5
q0 -68 35 -113t91 -55z" />
    <glyph glyph-name="sterling" unicode="&#xa3;" horiz-adv-x="564" 
d="M467 33l-1 -40q-38 -12 -82 -12q-37 0 -93 15t-87 15q-34 0 -80 -11.5t-72 -21t-36 -14.5l-8 37q3 2 23 9.5t53 18.5t62 17l39 248h-71l7 41h71l34 214q16 100 61.5 148t112.5 48q47 0 68 -18l-28 -42q-19 16 -52 16q-48 0 -77.5 -37.5t-39.5 -104.5l-35 -224h131l-7 -41
h-131l-38 -242q8 1 22 1q29 -1 86 -17t92 -16q21 0 76 13z" />
    <glyph glyph-name="currency" unicode="&#xa4;" horiz-adv-x="673" 
d="M559 143l-34 -27l-63 78q-75 -54 -152 -54q-79 0 -135 54l-88 -78l-23 27l88 80q-35 55 -35 124q0 98 82 180l-63 82l32 28l64 -81q78 57 152 57q80 0 136 -56l88 80l26 -28l-88 -82q31 -47 31 -116q0 -103 -82 -188zM534 402q0 70 -45 117.5t-112 47.5q-79 0 -147 -64
t-68 -150q0 -70 45.5 -119t109.5 -49q82 0 149.5 65.5t67.5 151.5z" />
    <glyph glyph-name="yen" unicode="&#xa5;" horiz-adv-x="620" 
d="M497 173h-186l-27 -173h-48l27 173h-187l6 36h187l13 84h-187l6 36h186l-161 428h54l138 -370q3 -9 3 -13q1 4 7 13l257 370h50l-298 -428h185l-6 -36h-186l-13 -84h186z" />
    <glyph glyph-name="brokenbar" unicode="&#xa6;" horiz-adv-x="228" 
d="M148 381h-42l69 439h42zM46 -259h-42l70 438h42z" />
    <glyph glyph-name="section" unicode="&#xa7;" horiz-adv-x="528" 
d="M303 -128l-238 529q20 39 86 78t93 40l-63 147q13 28 117 77t183 50l-24 -57q-39 0 -128 -26t-95 -33l218 -500q-20 -40 -83.5 -78.5t-90.5 -39.5l78 -176q-18 -35 -128.5 -86t-183.5 -51l25 57q39 1 133.5 31.5t100.5 37.5zM399 161l-135 311q-34 0 -79 -18t-67 -37
l138 -311q39 1 80 18t63 37z" />
    <glyph glyph-name="dieresis" unicode="&#xa8;" horiz-adv-x="337" 
d="M206 636q0 -17 -13 -30t-31 -13q-13 0 -22 9.5t-9 22.5q0 18 13.5 31t29.5 13q15 0 23.5 -9t8.5 -24zM415 636q0 -18 -12.5 -30.5t-31.5 -12.5q-14 0 -22 9t-8 23q0 18 12 31t30 13q15 0 23.5 -9t8.5 -24z" />
    <glyph glyph-name="copyright" unicode="&#xa9;" horiz-adv-x="884" 
d="M397 20q158 0 277.5 122.5t119.5 288.5q0 132 -79 219.5t-204 87.5q-159 0 -278.5 -121.5t-119.5 -288.5q0 -132 79.5 -220t204.5 -88zM392 -12q-138 0 -227 97t-89 240q0 89 36.5 172t97 142.5t141 95.5t165.5 36q138 0 227 -97t89 -240q0 -118 -61.5 -221.5
t-163.5 -164t-215 -60.5zM583 218l13 -32q-68 -52 -169 -52q-96 0 -154 59t-58 149q0 119 84.5 202t205.5 83q95 0 152 -55l-30 -34q-39 48 -135 48q-97 0 -162 -69t-65 -170q0 -75 47 -123.5t123 -48.5q91 0 148 43z" />
    <glyph glyph-name="ordfeminine" unicode="&#xaa;" horiz-adv-x="408" 
d="M322 455l14 88q-36 40 -98 40q-41 0 -77 -22t-36 -63q0 -35 25 -53.5t64 -18.5q65 0 108 29zM389 614l-28 -175q-60 -48 -154 -48q-62 0 -93.5 29t-31.5 74q0 59 48.5 91t110.5 32q56 0 101 -36l7 46q5 34 -14 54.5t-71 20.5q-47 0 -95 -20l-11 30q55 24 113 24
q77 0 102.5 -31.5t15.5 -90.5z" />
    <glyph glyph-name="guillemotleft" unicode="&#xab;" horiz-adv-x="428" 
d="M171 25h-41l-86 209l149 209h40l-149 -209zM329 25h-42l-86 209l149 209h41l-150 -209z" />
    <glyph glyph-name="logicalnot" unicode="&#xac;" horiz-adv-x="658" 
d="M533 104h-45l38 238h-432l7 44h477z" />
    <glyph glyph-name="registered" unicode="&#xae;" horiz-adv-x="688" 
d="M331 220q-96 0 -159 69.5t-63 169.5q0 124 94.5 217.5t214.5 93.5q96 0 159 -68.5t63 -168.5q0 -125 -94.5 -219t-214.5 -94zM336 251q102 0 186.5 84.5t84.5 191.5q0 87 -56 149.5t-138 62.5q-103 0 -186.5 -83.5t-83.5 -191.5q0 -88 55 -150.5t138 -62.5zM495 353h-52
l-117 124h-18l-20 -124h-34l50 313h72q46 0 78 -19t32 -60q0 -45 -32 -75t-90 -33zM312 507h28q53 0 81.5 20t28.5 54q0 24 -20 38.5t-54 14.5h-44z" />
    <glyph glyph-name="macron" unicode="&#xaf;" horiz-adv-x="499" 
d="M510 596h-333l6 41h333z" />
    <glyph glyph-name="degree" unicode="&#xb0;" horiz-adv-x="391" 
d="M222 474q-52 0 -85 35.5t-33 89.5q0 73 48.5 119.5t115.5 46.5q51 0 84.5 -36t33.5 -90q0 -73 -49 -119t-115 -46zM229 509q48 0 84 37.5t36 88.5q0 40 -24 67t-62 27q-49 0 -84.5 -37.5t-35.5 -88.5q0 -40 24 -67t62 -27z" />
    <glyph glyph-name="plusminus" unicode="&#xb1;" horiz-adv-x="641" 
d="M570 349h-216l-38 -238h-45l38 238h-216l7 44h216l38 238h45l-38 -238h216zM515 1h-477l7 42h477z" />
    <glyph glyph-name="twosuperior" unicode="&#xb2;" horiz-adv-x="369" 
d="M337 352h-305q140 96 191 141q104 93 105 159q0 31 -20.5 51.5t-52.5 20.5q-52 0 -99 -44l-18 26q68 52 126 52q48 0 77 -28.5t29 -72.5q0 -27 -11.5 -55.5t-26.5 -50.5t-42.5 -47.5t-44 -39.5t-49 -35t-40 -25.5l-32.5 -19.5l219 3z" />
    <glyph glyph-name="threesuperior" unicode="&#xb3;" horiz-adv-x="347" 
d="M256 574v-1q37 -13 55.5 -40t18.5 -60q0 -52 -48 -91.5t-125 -39.5q-46 0 -76 14t-41 28l24 32q8 -12 34 -25t64 -13q59 0 92 27.5t33 65.5q0 37 -31.5 63t-88.5 27l4 22q60 1 96 27t36 58q0 23 -19 37.5t-54 14.5q-44 0 -80 -22l-11 30q11 10 41.5 20t62.5 10
q48 0 75 -24.5t27 -58.5q0 -68 -89 -101z" />
    <glyph glyph-name="acute" unicode="&#xb4;" horiz-adv-x="318" 
d="M350 721l-155 -138l-18 17l138 154z" />
    <glyph glyph-name="paragraph" unicode="&#xb6;" horiz-adv-x="528" 
d="M377 754l-79 -495q-101 -3 -159 59t-58 149q0 104 87 195.5t209 91.5zM335 -154h-46l144 911h46z" />
    <glyph glyph-name="periodcentered" unicode="&#xb7;" horiz-adv-x="229" 
d="M169 389q0 -19 -15.5 -34.5t-34.5 -15.5q-16 0 -26.5 11t-10.5 27q0 20 15.5 35t35.5 15q15 0 25.5 -11t10.5 -27z" />
    <glyph glyph-name="cedilla" unicode="&#xb8;" horiz-adv-x="556" 
d="M270 -195h-42l91 157h50z" />
    <glyph glyph-name="onesuperior" unicode="&#xb9;" horiz-adv-x="212" 
d="M154 350h-41l57 359l-75 -31l-9 33l133 50z" />
    <glyph glyph-name="ordmasculine" unicode="&#xba;" horiz-adv-x="464" 
d="M453 585q0 -85 -61 -139.5t-146 -54.5q-67 0 -110.5 43t-43.5 107q0 86 62 140.5t147 54.5q67 0 109.5 -43t42.5 -108zM409 582q0 51 -32.5 84.5t-82.5 33.5q-67 0 -113 -45.5t-46 -110.5q0 -51 33.5 -84t81.5 -33q68 0 113.5 44t45.5 111z" />
    <glyph glyph-name="guillemotright" unicode="&#xbb;" horiz-adv-x="426" 
d="M52 25h-41l153 209l-83 209h40l83 -209zM210 25h-41l152 209l-83 209h41l81 -209z" />
    <glyph glyph-name="onequarter" unicode="&#xbc;" horiz-adv-x="684" 
d="M92 -14l-27 14l496 765l27 -15zM186 350h-41l57 359l-75 -31l-8 33l133 50zM517 -2h-43l14 89h-218l5 33l276 281h30l-45 -278h61l-5 -36h-61zM494 122l36 218l-208 -218h172z" />
    <glyph glyph-name="onehalf" unicode="&#xbd;" horiz-adv-x="720" 
d="M92 -14l-27 14l496 765l27 -15zM186 350h-41l57 359l-75 -31l-8 33l133 50zM615 0h-304q140 96 191 141q105 93 105 159q0 31 -20.5 51.5t-53.5 20.5q-54 0 -98 -44l-18 26q68 52 125 52q49 0 78 -28.5t29 -72.5q0 -27 -11.5 -55.5t-26.5 -50.5t-42.5 -47.5t-44 -39.5
t-49 -35t-40 -25.5l-32.5 -19.5l218 3z" />
    <glyph glyph-name="threequarters" unicode="&#xbe;" horiz-adv-x="807" 
d="M639 -2h-43l14 89h-218l5 33l276 281h30l-44 -278h61l-6 -36h-61zM283 574v-1q37 -13 55.5 -40t18.5 -60q0 -52 -48 -91.5t-125 -39.5q-46 0 -76 14t-41 28l24 32q8 -12 34 -25t64 -13q59 0 92 27.5t33 65.5q0 37 -31.5 63t-88.5 27l4 22q60 1 96 27t36 58q0 23 -19 37.5
t-54 14.5q-44 0 -80 -22l-11 30q11 10 41.5 20t62.5 10q48 0 75 -24.5t27 -58.5q0 -68 -89 -101zM213 -14l-26 14l496 765l27 -15zM617 122l35 218l-207 -218h172z" />
    <glyph glyph-name="questiondown" unicode="&#xbf;" horiz-adv-x="448" 
d="M260 -158l14 -34q-64 -53 -136 -53q-50 0 -78.5 32t-28.5 76t22 80t54.5 58.5t71 47t71 45t54.5 52.5t22 69q0 38 -27.5 63.5t-68.5 25.5q-87 0 -159 -83l-22 27q21 32 75.5 64.5t115.5 32.5q51 0 90 -34t39 -89q0 -54 -30 -97t-73.5 -70.5t-86.5 -53t-73 -58.5t-30 -73
q0 -31 19 -51.5t50 -20.5q53 0 115 44zM268 448q-17 0 -27 10.5t-10 27.5q0 20 15 35t36 15q15 0 25 -11t10 -27q0 -21 -15 -35.5t-34 -14.5z" />
    <glyph glyph-name="Agrave" unicode="&#xc0;" horiz-adv-x="647" 
d="M503 842l-222 43l31 49l208 -61zM600 0h-50l-56 224h-361l-127 -224h-50l446 777zM483 268l-88 352q-8 30 -11 50q-6 -15 -26 -50l-199 -352h324z" />
    <glyph glyph-name="Aacute" unicode="&#xc1;" horiz-adv-x="647" 
d="M600 0h-50l-56 224h-361l-127 -224h-50l446 777zM483 268l-88 352q-8 30 -11 50q-6 -15 -26 -50l-199 -352h324zM534 885l-235 -43l-8 31l228 61z" />
    <glyph glyph-name="Acircumflex" unicode="&#xc2;" horiz-adv-x="647" 
d="M600 0h-50l-56 224h-361l-127 -224h-50l446 777zM483 268l-88 352q-8 30 -11 50l-11 -22t-15 -28l-199 -352h324zM571 840l-23 -22l-132 62l-157 -69l-12 23l178 98h7z" />
    <glyph glyph-name="Atilde" unicode="&#xc3;" horiz-adv-x="647" 
d="M600 0h-50l-56 224h-361l-127 -224h-50l446 777zM483 268l-88 352q-8 30 -11 50l-11 -22t-15 -28l-199 -352h324zM569 923l14 -30q-18 -19 -51 -40t-59 -21q-18 0 -54 25t-58 25q-31 0 -89 -46l-14 27q19 20 53.5 41t60.5 21q23 0 58 -25.5t51 -25.5q39 0 88 49z" />
    <glyph glyph-name="Adieresis" unicode="&#xc4;" horiz-adv-x="647" 
d="M600 0h-50l-56 224h-361l-127 -224h-50l446 777zM483 268l-88 352q-8 30 -11 50l-11 -22t-15 -28l-199 -352h324zM580 892q0 -17 -13 -30t-32 -13q-29 0 -29 32q0 18 12 31t30 13q15 0 23.5 -9t8.5 -24zM329 892q0 -17 -13.5 -30t-31.5 -13q-13 0 -21.5 9.5t-8.5 22.5
q0 18 13.5 31t29.5 13q15 0 23.5 -9t8.5 -24z" />
    <glyph glyph-name="Aring" unicode="&#xc5;" horiz-adv-x="647" 
d="M600 0h-50l-56 224h-361l-127 -224h-50l446 777zM483 268l-88 352q-8 30 -11 50q-6 -15 -26 -50l-199 -352h324zM521 914q0 -47 -35.5 -82t-81.5 -35q-37 0 -61 25.5t-24 63.5q0 48 36 83t82 35q36 0 60 -26.5t24 -63.5zM411 831q30 0 54 24.5t24 55.5q0 26 -16 43
t-40 17q-30 0 -53.5 -23.5t-23.5 -55.5q0 -25 15.5 -43t39.5 -18z" />
    <glyph glyph-name="AE" unicode="&#xc6;" horiz-adv-x="851" 
d="M769 1h-388l35 223h-253l-160 -224h-53l539 756h368l-7 -43h-308l-45 -284h248l-7 -44h-248l-54 -341h340zM423 268l66 414l-294 -414h228z" />
    <glyph glyph-name="Ccedilla" unicode="&#xc7;" horiz-adv-x="718" 
d="M293 -225h-42l90 157h51zM618 113l18 -33q-113 -92 -251 -92q-142 0 -230.5 96t-88.5 240q0 94 36 177t96 142t141 93t170 34q137 0 222 -94l-35 -36q-64 85 -203 85q-99 0 -185 -51.5t-139 -144.5t-53 -204q0 -126 78.5 -210t198.5 -84q132 0 225 82z" />
    <glyph glyph-name="Egrave" unicode="&#xc8;" horiz-adv-x="530" 
d="M483 847l-224 33l31 49l210 -51zM448 1h-388l120 755h356l-7 -43h-308l-45 -284h248l-7 -44h-248l-54 -341h340z" />
    <glyph glyph-name="Eacute" unicode="&#xc9;" horiz-adv-x="530" 
d="M501 885l-236 -43l-7 31l228 61zM448 1h-388l120 755h356l-7 -43h-308l-45 -284h248l-7 -44h-248l-54 -341h340z" />
    <glyph glyph-name="Ecircumflex" unicode="&#xca;" horiz-adv-x="530" 
d="M448 1h-388l120 755h356l-7 -43h-308l-45 -284h248l-7 -44h-248l-54 -341h340zM532 834l-24 -22l-131 68l-157 -69l-11 23l176 98h1z" />
    <glyph glyph-name="Edieresis" unicode="&#xcb;" horiz-adv-x="530" 
d="M286 882q0 -17 -13 -30t-31 -13q-13 0 -22 9.5t-9 22.5q0 18 13.5 31t29.5 13q15 0 23.5 -9t8.5 -24zM528 882q0 -18 -13 -30.5t-31 -12.5q-14 0 -22 9t-8 23q0 18 12 31t30 13q15 0 23.5 -9t8.5 -24zM448 1h-388l120 755h356l-7 -43h-308l-45 -284h248l-7 -44h-248
l-54 -341h340z" />
    <glyph glyph-name="Igrave" unicode="&#xcc;" horiz-adv-x="264" 
d="M301 847l-176 33l31 49l162 -51zM108 0h-48l120 757h48z" />
    <glyph glyph-name="Iacute" unicode="&#xcd;" horiz-adv-x="264" 
d="M318 880l-186 -33l-7 31l178 51zM108 0h-48l120 757h48z" />
    <glyph glyph-name="Icircumflex" unicode="&#xce;" horiz-adv-x="264" 
d="M108 0h-48l120 757h48zM293 814l-71 66l-95 -69l-12 23l116 98h1l83 -96z" />
    <glyph glyph-name="Idieresis" unicode="&#xcf;" horiz-adv-x="264" 
d="M192 852q0 -17 -13.5 -30t-31.5 -13q-13 0 -21.5 9.5t-8.5 22.5q0 18 13 31t29 13q15 0 24 -9.5t9 -23.5zM321 852q0 -18 -13 -30.5t-32 -12.5q-14 0 -22 9t-8 23q0 18 12 31t30 13q15 0 24 -9.5t9 -23.5zM108 0h-48l120 757h48z" />
    <glyph glyph-name="Eth" unicode="&#xd0;" horiz-adv-x="708" 
d="M218 0h-158l57 358h-67l6 39h67l57 360h149q148 0 241 -83.5t93 -234.5q0 -201 -126.5 -320t-318.5 -119zM115 44h87q182 0 296.5 102.5t114.5 289.5q0 136 -84.5 206.5t-217.5 70.5h-90l-50 -316h198l-6 -39h-198z" />
    <glyph glyph-name="Ntilde" unicode="&#xd1;" horiz-adv-x="820" 
d="M656 923l13 -30q-16 -18 -49.5 -39.5t-60.5 -21.5q-18 0 -54 25t-58 25q-28 0 -89 -46l-14 27q21 21 55 41.5t59 20.5q23 0 58.5 -25.5t51.5 -25.5q35 0 88 49zM661 -24l-452 671l-102 -647h-48l123 775l452 -669l103 651h48z" />
    <glyph glyph-name="Ograve" unicode="&#xd2;" horiz-adv-x="872" 
d="M603 842l-222 43l30 49l209 -61zM388 -12q-141 0 -231.5 96.5t-90.5 240.5q0 125 62.5 228t164.5 160t219 57q141 0 229.5 -94.5t88.5 -242.5q0 -127 -63.5 -230.5t-164.5 -159t-214 -55.5zM388 31q159 0 275.5 116t116.5 281q0 130 -77.5 213.5t-197.5 83.5
q-155 0 -271.5 -114t-116.5 -276q0 -126 76.5 -215t194.5 -89z" />
    <glyph glyph-name="Oacute" unicode="&#xd3;" horiz-adv-x="872" 
d="M646 885l-235 -43l-8 31l227 61zM388 -12q-141 0 -231.5 96.5t-90.5 240.5q0 125 62.5 228t164.5 160t219 57q141 0 229.5 -94.5t88.5 -242.5q0 -127 -63.5 -230.5t-164.5 -159t-214 -55.5zM388 31q159 0 275.5 116t116.5 281q0 130 -77.5 213.5t-197.5 83.5
q-155 0 -271.5 -114t-116.5 -276q0 -126 76.5 -215t194.5 -89z" />
    <glyph glyph-name="Ocircumflex" unicode="&#xd4;" horiz-adv-x="872" 
d="M680 840l-23 -22l-131 62l-157 -69l-13 23l178 98zM388 -12q-141 0 -231.5 96.5t-90.5 240.5q0 125 62.5 228t164.5 160t219 57q141 0 229.5 -94.5t88.5 -242.5q0 -127 -63.5 -230.5t-164.5 -159t-214 -55.5zM388 31q159 0 275.5 116t116.5 281q0 130 -77.5 213.5
t-197.5 83.5q-155 0 -271.5 -114t-116.5 -276q0 -126 76.5 -215t194.5 -89z" />
    <glyph glyph-name="Otilde" unicode="&#xd5;" horiz-adv-x="872" 
d="M678 923l13 -30q-18 -19 -51 -40t-60 -21q-18 0 -53.5 25t-57.5 25q-33 0 -88 -46l-16 27q21 21 55 41.5t59 20.5q23 0 59 -25.5t52 -25.5q35 0 88 49zM388 -12q-141 0 -231.5 96.5t-90.5 240.5q0 125 62.5 228t164.5 160t219 57q141 0 229.5 -94.5t88.5 -242.5
q0 -127 -63.5 -230.5t-164.5 -159t-214 -55.5zM388 31q159 0 275.5 116t116.5 281q0 130 -77.5 213.5t-197.5 83.5q-155 0 -271.5 -114t-116.5 -276q0 -126 76.5 -215t194.5 -89z" />
    <glyph glyph-name="Odieresis" unicode="&#xd6;" horiz-adv-x="872" 
d="M359 888q0 -17 -13.5 -30t-31.5 -13q-13 0 -21.5 9.5t-8.5 22.5q0 18 13 31t29 13q15 0 24 -9.5t9 -23.5zM758 888q0 -18 -13 -30.5t-32 -12.5q-14 0 -22 9t-8 23q0 18 12.5 31t29.5 13q15 0 24 -9.5t9 -23.5zM388 -12q-141 0 -231.5 96.5t-90.5 240.5q0 125 62.5 228
t164.5 160t219 57q141 0 229.5 -94.5t88.5 -242.5q0 -127 -63.5 -230.5t-164.5 -159t-214 -55.5zM388 31q159 0 275.5 116t116.5 281q0 130 -77.5 213.5t-197.5 83.5q-155 0 -271.5 -114t-116.5 -276q0 -126 76.5 -215t194.5 -89z" />
    <glyph glyph-name="multiply" unicode="&#xd7;" horiz-adv-x="621" 
d="M514 159l-37 -31l-160 205l-227 -205l-28 31l231 205l-163 205l35 32l164 -205l223 205l25 -32l-225 -204z" />
    <glyph glyph-name="Oslash" unicode="&#xd8;" horiz-adv-x="872" 
d="M191 -148l-35 13l84 156q-79 39 -126.5 121t-47.5 182q0 184 129.5 315t316.5 131q62 0 122 -22l74 137l34 -16l-74 -137q75 -39 118.5 -118.5t43.5 -180.5q0 -125 -63.5 -228.5t-164.5 -160t-214 -56.5q-58 0 -114 18zM264 63l346 643q-52 19 -105 19q-156 0 -272 -114
t-116 -277q0 -88 40 -161.5t107 -109.5zM644 688l-346 -641q38 -16 90 -16q157 0 274.5 116.5t117.5 280.5q0 87 -37 156t-99 104z" />
    <glyph glyph-name="Ugrave" unicode="&#xd9;" horiz-adv-x="719" 
d="M538 842l-222 43l31 49l208 -61zM535 95l105 662h48l-107 -676q-40 -42 -110 -67.5t-162 -25.5q-122 0 -178 72t-34 212l77 485h48l-75 -472q-21 -136 26 -195t165 -59q53 0 108 16t89 48z" />
    <glyph glyph-name="Uacute" unicode="&#xda;" horiz-adv-x="719" 
d="M585 885l-235 -43l-7 31l228 61zM535 95l105 662h48l-107 -676q-40 -42 -110 -67.5t-162 -25.5q-122 0 -178 72t-34 212l77 485h48l-75 -472q-21 -136 26 -195t165 -59q53 0 108 16t89 48z" />
    <glyph glyph-name="Ucircumflex" unicode="&#xdb;" horiz-adv-x="719" 
d="M535 95l105 662h48l-107 -676q-40 -42 -110 -67.5t-162 -25.5q-122 0 -178 72t-34 212l77 485h48l-75 -472q-21 -136 26 -195t165 -59q53 0 108 16t89 48zM607 840l-23 -22l-133 62l-157 -69l-11 23l177 98h1z" />
    <glyph glyph-name="Udieresis" unicode="&#xdc;" horiz-adv-x="719" 
d="M265 887q0 -17 -13 -30t-31 -13q-13 0 -22 9.5t-9 22.5q0 18 13.5 31t29.5 13q14 0 23 -9.5t9 -23.5zM714 887q0 -18 -12 -30.5t-32 -12.5q-13 0 -21.5 9t-8.5 23q0 18 12.5 31t29.5 13q32 0 32 -33zM535 95l105 662h48l-107 -676q-40 -42 -110.5 -67.5t-162.5 -25.5
q-121 0 -177 72t-34 212l77 485h48l-75 -472q-21 -136 25.5 -195t164.5 -59q54 0 108.5 16t89.5 48z" />
    <glyph glyph-name="Yacute" unicode="&#xdd;" horiz-adv-x="508" 
d="M461 872l-155 -138l-18 17l137 154zM227 0h-48l52 328l-161 429h56l135 -363q3 -9 3 -15q1 6 7 15l253 363h55l-300 -429z" />
    <glyph glyph-name="Thorn" unicode="&#xde;" horiz-adv-x="529" 
d="M108 0h-48l120 757h48l-24 -154h81q95 0 158.5 -44.5t63.5 -136.5q0 -114 -80.5 -190.5t-227.5 -76.5h-66zM140 199h68q113 0 180.5 58t67.5 158q0 70 -45.5 107t-122.5 37h-91z" />
    <glyph glyph-name="germandbls" unicode="&#xdf;" horiz-adv-x="501" 
d="M127 -245l8 37q36 6 76.5 26.5t79.5 52.5t64.5 81.5t25.5 104.5q0 51 -27.5 81.5t-84.5 30.5q-40 0 -88 -13l206 273h-218l-68 -429h-44l68 429h-72l6 41h72l24 149q16 100 62 149q46 47 111 47q48 0 69 -18l-27 -42q-22 16 -54 16q-46 0 -75 -37.5t-40 -104.5l-25 -159
h295l-209 -261q16 3 32 3q60 0 95.5 -43t35.5 -111q0 -54 -22.5 -103t-56.5 -82.5t-75.5 -60t-78 -40t-65.5 -17.5z" />
    <glyph glyph-name="agrave" unicode="&#xe0;" horiz-adv-x="486" 
d="M352 600l-23 -17l-111 138l46 33zM337 76l22 133q-55 64 -138 64q-59 0 -111.5 -35t-52.5 -99q0 -53 35.5 -81.5t90.5 -28.5q91 0 154 47zM366 254l11 70q9 55 -19 86.5t-98 31.5q-60 0 -130 -28l-13 35q73 34 148 34q180 0 154 -172l-40 -254q-80 -68 -204 -68
q-82 0 -123 41t-41 103q0 58 35 101t82.5 61t96.5 18q93 0 141 -59z" />
    <glyph glyph-name="aacute" unicode="&#xe1;" horiz-adv-x="486" 
d="M412 721l-155 -138l-19 17l138 154zM337 76l22 133q-55 64 -138 64q-59 0 -111.5 -35t-52.5 -99q0 -53 35.5 -81.5t90.5 -28.5q91 0 154 47zM366 254l11 70q9 55 -19 86.5t-98 31.5q-60 0 -130 -28l-13 35q73 34 148 34q180 0 154 -172l-40 -254q-80 -68 -204 -68
q-82 0 -123 41t-41 103q0 58 35 101t82.5 61t96.5 18q93 0 141 -59z" />
    <glyph glyph-name="acircumflex" unicode="&#xe2;" horiz-adv-x="486" 
d="M434 598l-29 -22l-100 102l-132 -102l-23 22l163 133h1zM337 76l22 133q-55 64 -138 64q-59 0 -111.5 -35t-52.5 -99q0 -53 35.5 -81.5t90.5 -28.5q91 0 154 47zM366 254l11 70q9 55 -19 86.5t-98 31.5q-60 0 -130 -28l-13 35q73 34 148 34q180 0 154 -172l-40 -254
q-80 -68 -204 -68q-82 0 -123 41t-41 103q0 58 35 101t82.5 61t96.5 18q93 0 141 -59z" />
    <glyph glyph-name="atilde" unicode="&#xe3;" horiz-adv-x="486" 
d="M430 665l12 -27q-17 -18 -45 -35.5t-56 -17.5q-17 0 -50 23.5t-54 23.5q-30 0 -82 -43l-14 24q18 19 50 38.5t56 19.5q21 0 54.5 -24t48.5 -24q34 0 80 42zM337 76l22 133q-55 64 -138 64q-59 0 -111.5 -35t-52.5 -99q0 -53 35.5 -81.5t90.5 -28.5q91 0 154 47zM366 254
l11 70q9 55 -19 86.5t-98 31.5q-60 0 -130 -28l-13 35q73 34 148 34q180 0 154 -172l-40 -254q-80 -68 -204 -68q-82 0 -123 41t-41 103q0 58 35 101t82.5 61t96.5 18q93 0 141 -59z" />
    <glyph glyph-name="adieresis" unicode="&#xe4;" horiz-adv-x="486" 
d="M214 635q0 -17 -13.5 -29.5t-31.5 -12.5q-13 0 -21.5 9.5t-8.5 22.5q0 18 12.5 31t29.5 13q14 0 23.5 -10t9.5 -24zM423 636q0 -18 -13 -30.5t-32 -12.5q-13 0 -21 9t-8 23q0 18 12 31t29 13q15 0 24 -9t9 -24zM337 76l22 133q-55 64 -138 64q-59 0 -111.5 -35t-52.5 -99
q0 -53 35.5 -81.5t90.5 -28.5q91 0 154 47zM366 254l11 70q9 55 -19 86.5t-98 31.5q-60 0 -130 -28l-13 35q73 34 148 34q180 0 154 -172l-40 -254q-80 -68 -204 -68q-82 0 -123 41t-41 103q0 58 35 101t82.5 61t96.5 18q93 0 141 -59z" />
    <glyph glyph-name="aring" unicode="&#xe5;" horiz-adv-x="486" 
d="M399 669q0 -47 -35 -82t-82 -35q-37 0 -60.5 25.5t-23.5 63.5q0 48 35.5 83t81.5 35q37 0 60.5 -26t23.5 -64zM288 586q31 0 54.5 24t23.5 56q0 26 -15.5 43t-40.5 17q-30 0 -53.5 -23.5t-23.5 -55.5q0 -25 15.5 -43t39.5 -18zM337 76l22 133q-55 64 -138 64
q-59 0 -111.5 -35t-52.5 -99q0 -53 35.5 -81.5t90.5 -28.5q91 0 154 47zM366 254l11 70q9 55 -19 86.5t-98 31.5q-60 0 -130 -28l-13 35q73 34 148 34q180 0 154 -172l-40 -254q-80 -68 -204 -68q-82 0 -123 41t-41 103q0 58 35 101t82.5 61t96.5 18q93 0 141 -59z" />
    <glyph glyph-name="ae" unicode="&#xe6;" horiz-adv-x="835" 
d="M722 100l20 -26q-72 -85 -198 -85q-117 0 -166 102q-30 -40 -86 -71t-116 -31q-82 0 -123 41t-41 103q0 47 21 83.5t54.5 56.5t69 30t69.5 10q80 0 141 -56l11 67q9 54 -19.5 86t-97.5 32q-60 0 -130 -28l-13 35q73 34 148 34q142 0 153 -104q70 104 202 104
q65 0 104.5 -34.5t51.5 -84.5t5 -111l-1 -9h-372q-17 -107 25 -161t125 -54q101 0 163 71zM365 138q-8 27 -4 72q-56 63 -139 63q-60 0 -112 -35t-52 -99q0 -53 35.5 -81.5t90.5 -28.5q52 0 112.5 39.5t68.5 69.5zM418 284h323q3 68 -30 113t-101 45q-71 0 -122.5 -45.5
t-69.5 -112.5z" />
    <glyph glyph-name="ccedilla" unicode="&#xe7;" horiz-adv-x="494" 
d="M149 -215h-42l91 157h50zM408 97l18 -27q-71 -81 -193 -81q-87 0 -142 58t-55 150q0 127 80 206.5t198 79.5q57 0 95 -22.5t51 -42.5l-31 -30q-6 9 -18.5 20t-42 22.5t-63.5 11.5q-84 0 -153.5 -64t-69.5 -178q0 -80 46 -125.5t116 -45.5q92 0 164 68z" />
    <glyph glyph-name="egrave" unicode="&#xe8;" horiz-adv-x="519" 
d="M360 600l-25 -17l-111 138l47 33zM407 100l20 -26q-72 -85 -199 -85q-86 0 -139 56t-53 148q0 128 75.5 209t194.5 81q63 0 102.5 -34.5t52.5 -84.5t6 -111l-1 -9h-378q-17 -103 27.5 -159t128.5 -56q99 0 163 71zM97 284h328q4 68 -29 113t-101 45q-72 0 -126.5 -46.5
t-71.5 -111.5z" />
    <glyph glyph-name="eacute" unicode="&#xe9;" horiz-adv-x="519" 
d="M420 721l-156 -138l-18 17l139 154zM407 100l20 -26q-72 -85 -199 -85q-86 0 -139 56t-53 148q0 128 75.5 209t194.5 81q63 0 102.5 -34.5t52.5 -84.5t6 -111l-1 -9h-378q-17 -103 27.5 -159t128.5 -56q99 0 163 71zM97 284h328q4 68 -29 113t-101 45q-72 0 -126.5 -46.5
t-71.5 -111.5z" />
    <glyph glyph-name="ecircumflex" unicode="&#xea;" horiz-adv-x="519" 
d="M454 598l-30 -22l-99 102l-133 -102l-22 22l163 133h1zM407 100l20 -26q-72 -85 -199 -85q-86 0 -139 56t-53 148q0 128 75.5 209t194.5 81q63 0 102.5 -34.5t52.5 -84.5t6 -111l-1 -9h-378q-17 -103 27.5 -159t128.5 -56q99 0 163 71zM97 284h328q4 68 -29 113t-101 45
q-72 0 -126.5 -46.5t-71.5 -111.5z" />
    <glyph glyph-name="edieresis" unicode="&#xeb;" horiz-adv-x="519" 
d="M250 635q0 -17 -13.5 -29.5t-30.5 -12.5q-13 0 -22 9.5t-9 22.5q0 18 13 31t30 13q14 0 23 -10t9 -24zM459 636q0 -18 -12.5 -30.5t-31.5 -12.5q-14 0 -22.5 9t-8.5 23q0 18 13 31t30 13q32 0 32 -33zM407 100l20 -26q-72 -85 -199 -85q-86 0 -139 56t-53 148
q0 128 75.5 209t194.5 81q63 0 102.5 -34.5t52.5 -84.5t6 -111l-1 -9h-378q-17 -103 27.5 -159t128.5 -56q99 0 163 71zM97 284h328q4 68 -29 113t-101 45q-72 0 -126.5 -46.5t-71.5 -111.5z" />
    <glyph glyph-name="igrave" unicode="&#xec;" horiz-adv-x="213" 
d="M208 600l-25 -17l-109 138l46 33zM80 0h-44l75 471h44z" />
    <glyph glyph-name="iacute" unicode="&#xed;" horiz-adv-x="213" 
d="M269 721l-154 -138l-18 17l136 154zM80 0h-44l75 471h44z" />
    <glyph glyph-name="icircumflex" unicode="&#xee;" horiz-adv-x="213" 
d="M81 0h-44l74 471h44zM280 608l-29 -22l-83 102l-115 -102l-23 22l146 133h1z" />
    <glyph glyph-name="idieresis" unicode="&#xef;" horiz-adv-x="213" 
d="M121 636q0 -17 -13 -30t-31 -13q-13 0 -22 9.5t-9 22.5q0 18 13.5 31t29.5 13q15 0 23.5 -9t8.5 -24zM271 636q0 -18 -12.5 -30.5t-31.5 -12.5q-14 0 -22.5 9t-8.5 23q0 18 12.5 31t30.5 13q15 0 23.5 -9t8.5 -24zM80 0h-44l75 471h44z" />
    <glyph glyph-name="eth" unicode="&#xf0;" horiz-adv-x="580" 
d="M537 736l-125 -71q105 -231 105 -388q0 -124 -81.5 -206t-197.5 -82q-93 0 -148 61.5t-55 150.5q0 118 81.5 200t200.5 82q102 0 144 -81q-32 125 -90 241l-122 -72l-17 30l127 72q-57 119 -88 147h60q27 -41 66 -126l126 72zM244 30q90 0 158 64.5t68 168.5
q0 74 -45.5 126t-116.5 52q-99 0 -163 -70t-64 -163q0 -71 44 -124.5t119 -53.5z" />
    <glyph glyph-name="ntilde" unicode="&#xf1;" 
d="M445 665l13 -27q-15 -17 -44 -35t-56 -18q-17 0 -50.5 23.5t-54.5 23.5q-27 0 -82 -43l-15 24q20 20 51 39t56 19q21 0 54.5 -24t49.5 -24q36 0 78 42zM399 0h-44l46 288q13 81 -12.5 116t-96.5 35q-85 0 -157 -66l-59 -373h-44l75 471h44l-8 -51q76 63 163 63
q81 0 117.5 -46t23.5 -131z" />
    <glyph glyph-name="ograve" unicode="&#xf2;" horiz-adv-x="574" 
d="M391 600l-24 -17l-112 138l47 33zM237 -11q-89 0 -145.5 60t-56.5 151q0 123 82 203t199 80q89 0 145 -61t56 -152q0 -120 -83 -200.5t-197 -80.5zM242 30q97 0 162.5 67t65.5 168q0 76 -46.5 126t-116.5 50q-96 0 -161.5 -69.5t-65.5 -167.5q0 -75 47 -124.5t115 -49.5z
" />
    <glyph glyph-name="oacute" unicode="&#xf3;" horiz-adv-x="574" 
d="M448 721l-155 -138l-19 17l139 154zM237 -11q-89 0 -145.5 60t-56.5 151q0 123 82 203t199 80q89 0 145 -61t56 -152q0 -120 -83 -200.5t-197 -80.5zM242 30q97 0 162.5 67t65.5 168q0 76 -46.5 126t-116.5 50q-96 0 -161.5 -69.5t-65.5 -167.5q0 -75 47 -124.5
t115 -49.5z" />
    <glyph glyph-name="ocircumflex" unicode="&#xf4;" horiz-adv-x="574" 
d="M478 598l-30 -22l-99 102l-133 -102l-22 22l163 133h1zM237 -11q-89 0 -145.5 60t-56.5 151q0 123 82 203t199 80q89 0 145 -61t56 -152q0 -120 -83 -200.5t-197 -80.5zM242 30q97 0 162.5 67t65.5 168q0 76 -46.5 126t-116.5 50q-96 0 -161.5 -69.5t-65.5 -167.5
q0 -75 47 -124.5t115 -49.5z" />
    <glyph glyph-name="otilde" unicode="&#xf5;" horiz-adv-x="574" 
d="M477 665l12 -27q-17 -18 -45 -35.5t-56 -17.5q-17 0 -50.5 23.5t-54.5 23.5q-27 0 -82 -43l-14 24q18 19 50 38.5t56 19.5q21 0 55 -24t49 -24q35 0 80 42zM237 -11q-89 0 -145.5 60t-56.5 151q0 123 82 203t199 80q89 0 145 -61t56 -152q0 -120 -83 -200.5t-197 -80.5z
M242 30q97 0 162.5 67t65.5 168q0 76 -46.5 126t-116.5 50q-96 0 -161.5 -69.5t-65.5 -167.5q0 -75 47 -124.5t115 -49.5z" />
    <glyph glyph-name="odieresis" unicode="&#xf6;" horiz-adv-x="574" 
d="M272 636q0 -17 -13.5 -30t-31.5 -13q-13 0 -21.5 9.5t-8.5 22.5q0 18 13 31t29 13q15 0 24 -9.5t9 -23.5zM481 636q0 -18 -12.5 -30.5t-32.5 -12.5q-13 0 -21.5 9t-8.5 23q0 18 12.5 31t29.5 13q15 0 24 -9t9 -24zM237 -11q-89 0 -145.5 60t-56.5 151q0 123 82 203
t199 80q89 0 145 -61t56 -152q0 -120 -83 -200.5t-197 -80.5zM242 30q97 0 162.5 67t65.5 168q0 76 -46.5 126t-116.5 50q-96 0 -161.5 -69.5t-65.5 -167.5q0 -75 47 -124.5t115 -49.5z" />
    <glyph glyph-name="divide" unicode="&#xf7;" horiz-adv-x="671" 
d="M353 178q0 -17 -13 -29.5t-31 -12.5q-12 0 -20.5 9.5t-8.5 22.5q0 16 12.5 29.5t28.5 13.5q15 0 23.5 -9t8.5 -24zM412 555q0 -17 -12.5 -29.5t-30.5 -12.5q-13 0 -21.5 9.5t-8.5 22.5q0 16 13 29t29 13q15 0 23 -9t8 -23zM580 342h-477l7 42h477z" />
    <glyph glyph-name="oslash" unicode="&#xf8;" horiz-adv-x="574" 
d="M76 -145l-32 14l88 145q-45 25 -70.5 75t-25.5 111q0 124 83 203.5t198 79.5q43 0 86 -18l94 156l31 -17l-94 -156q39 -27 61.5 -74.5t22.5 -103.5q0 -119 -83.5 -200t-196.5 -81q-33 0 -75 11zM156 53l223 372q-35 16 -71 16q-96 0 -161.5 -69t-65.5 -169
q0 -48 20.5 -88.5t54.5 -61.5zM409 408l-222 -369q27 -9 56 -9q97 0 162.5 67t65.5 168q0 94 -62 143z" />
    <glyph glyph-name="ugrave" unicode="&#xf9;" 
d="M340 600l-24 -17l-110 138l45 33zM365 73l63 398h44l-66 -417q-77 -65 -195 -65q-84 0 -127 46t-29 133l48 303h44l-46 -293q-23 -149 117 -149q81 0 147 44z" />
    <glyph glyph-name="uacute" unicode="&#xfa;" 
d="M436 721l-156 -138l-19 17l139 154zM365 73l63 398h44l-66 -417q-77 -65 -195 -65q-84 0 -127 46t-29 133l48 303h44l-46 -293q-23 -149 117 -149q81 0 147 44z" />
    <glyph glyph-name="ucircumflex" unicode="&#xfb;" 
d="M453 598l-29 -22l-100 102l-132 -102l-23 22l163 133h1zM365 73l63 398h44l-66 -417q-77 -65 -195 -65q-84 0 -127 46t-29 133l48 303h44l-46 -293q-23 -149 117 -149q81 0 147 44z" />
    <glyph glyph-name="udieresis" unicode="&#xfc;" 
d="M247 635q0 -17 -13.5 -29.5t-31.5 -12.5q-13 0 -22 9.5t-9 22.5q0 18 13 31t30 13q14 0 23.5 -10t9.5 -24zM455 636q0 -18 -12.5 -30.5t-32.5 -12.5q-13 0 -21 9t-8 23q0 18 12 31t29 13q33 0 33 -33zM365 73l63 398h44l-66 -417q-77 -65 -195 -65q-84 0 -127 46t-29 133
l48 303h44l-46 -293q-23 -149 117 -149q81 0 147 44z" />
    <glyph glyph-name="yacute" unicode="&#xfd;" horiz-adv-x="453" 
d="M416 721l-154 -138l-19 17l138 154zM14 -259h-49l186 296l-114 434h50l97 -388l237 388h51z" />
    <glyph glyph-name="thorn" unicode="&#xfe;" horiz-adv-x="559" 
d="M36 -254h-43l169 1074h44l-59 -374q70 37 146 37q89 0 148.5 -54.5t59.5 -154.5q0 -122 -73 -203.5t-189 -81.5q-48 0 -90 20.5t-63 49.5zM139 398l-44 -279q18 -39 59 -64.5t92 -25.5q84 0 146.5 65.5t62.5 171.5q0 78 -46 127t-129 49q-37 0 -77 -13.5t-64 -30.5z" />
    <glyph glyph-name="ydieresis" unicode="&#xff;" horiz-adv-x="453" 
d="M203 635q0 -17 -13.5 -29.5t-30.5 -12.5q-13 0 -21.5 9.5t-8.5 22.5q0 18 13 31t29 13q14 0 23 -10t9 -24zM413 636q0 -18 -13 -30.5t-32 -12.5q-14 0 -22 9t-8 23q0 18 12 31t30 13q15 0 24 -9t9 -24zM14 -259h-49l186 296l-114 434h50l97 -388l237 388h51z" />
    <glyph glyph-name="Amacron" unicode="&#x100;" horiz-adv-x="647" 
d="M600 0h-50l-56 224h-361l-127 -224h-50l446 777zM483 268l-88 352q-8 30 -11 50q-6 -15 -26 -50l-199 -352h324zM584 882h-334l6 41h334z" />
    <glyph glyph-name="amacron" unicode="&#x101;" horiz-adv-x="486" 
d="M454 596h-334l6 41h334zM337 76l22 133q-55 64 -138 64q-59 0 -111.5 -35t-52.5 -99q0 -53 35.5 -81.5t90.5 -28.5q91 0 154 47zM366 254l11 70q9 55 -19 86.5t-98 31.5q-60 0 -130 -28l-13 35q73 34 148 34q180 0 154 -172l-40 -254q-80 -68 -204 -68q-82 0 -123 41
t-41 103q0 58 35 101t82.5 61t96.5 18q93 0 141 -59z" />
    <glyph glyph-name="Abreve" unicode="&#x102;" horiz-adv-x="647" 
d="M600 0h-50l-56 224h-361l-127 -224h-50l446 777zM483 268l-88 352q-8 30 -11 50q-6 -15 -26 -50l-199 -352h324zM548 1015h43q-13 -59 -60.5 -105.5t-121.5 -46.5q-59 0 -94.5 40t-28.5 112h45q-4 -7 -1.5 -25.5t7.5 -38t25 -34.5t52 -15q31 0 55.5 11.5t38 25.5t23.5 33
t12.5 27.5t4.5 15.5z" />
    <glyph glyph-name="abreve" unicode="&#x103;" horiz-adv-x="486" 
d="M417 729h43q-13 -59 -60.5 -105.5t-121.5 -46.5q-59 0 -94.5 40t-29.5 112h46q-4 -7 -1.5 -25.5t7.5 -38t25 -34.5t52 -15q31 0 55.5 11.5t38 25.5t23.5 33t12.5 27.5t4.5 15.5zM337 76l22 133q-55 64 -138 64q-59 0 -111.5 -35t-52.5 -99q0 -53 35.5 -81.5t90.5 -28.5
q91 0 154 47zM366 254l11 70q9 55 -19 86.5t-98 31.5q-60 0 -130 -28l-13 35q73 34 148 34q180 0 154 -172l-40 -254q-80 -68 -204 -68q-82 0 -123 41t-41 103q0 58 35 101t82.5 61t96.5 18q93 0 141 -59z" />
    <glyph glyph-name="Aogonek" unicode="&#x104;" horiz-adv-x="647" 
d="M596 -171l-6 -39q-28 -15 -69 -15q-38 0 -65.5 24t-27.5 63q0 41 34 80.5t88 58.5l-56 223h-361l-127 -224h-50l446 777l200 -784q-50 -11 -91 -44t-41 -77q0 -26 18.5 -41.5t46.5 -15.5q24 0 61 14zM483 268l-88 352q-8 30 -11 50l-11 -22t-15 -28l-199 -352h324z" />
    <glyph glyph-name="aogonek" unicode="&#x105;" horiz-adv-x="486" 
d="M321 -158l-6 -39q-30 -15 -66 -15q-40 0 -68.5 20t-28.5 57q0 73 91 131q-37 -7 -68 -7q-82 0 -123 41t-41 103q0 58 35 101t82.5 61t96.5 18q93 0 141 -59l11 70q9 55 -19 86.5t-98 31.5q-60 0 -130 -28l-13 35q73 34 148 34q180 0 154 -172l-40 -254q-14 -12 -49.5 -33
t-62 -38t-48.5 -45.5t-22 -61.5q0 -26 17.5 -38.5t45.5 -12.5q24 0 61 14zM337 76l22 133q-55 64 -138 64q-59 0 -111.5 -35t-52.5 -99q0 -53 35.5 -81.5t90.5 -28.5q91 0 154 47z" />
    <glyph glyph-name="Cacute" unicode="&#x106;" horiz-adv-x="718" 
d="M630 885l-235 -43l-7 31l227 61zM618 113l18 -33q-113 -92 -251 -92q-142 0 -230.5 96t-88.5 240q0 94 36 177t96 142t141 93t170 34q137 0 222 -94l-35 -36q-64 85 -203 85q-99 0 -185 -51.5t-139 -144.5t-53 -204q0 -126 78.5 -210t198.5 -84q132 0 225 82z" />
    <glyph glyph-name="cacute" unicode="&#x107;" horiz-adv-x="494" 
d="M425 721l-155 -138l-18 17l137 154zM408 97l18 -27q-71 -81 -193 -81q-87 0 -142 58t-55 150q0 127 80 206.5t198 79.5q57 0 95 -22.5t51 -42.5l-31 -30q-6 9 -18.5 20t-42 22.5t-63.5 11.5q-84 0 -153.5 -64t-69.5 -178q0 -80 46 -125.5t116 -45.5q92 0 164 68z" />
    <glyph glyph-name="Ccircumflex" unicode="&#x108;" horiz-adv-x="718" 
d="M640 842l-131 69l-157 -69l-13 23l178 98h1l144 -99zM618 113l18 -33q-113 -92 -251 -92q-142 0 -230.5 96t-88.5 240q0 94 36 177t96 142t141 93t170 34q137 0 222 -94l-35 -36q-64 85 -203 85q-99 0 -185 -51.5t-139 -144.5t-53 -204q0 -126 78.5 -210t198.5 -84
q132 0 225 82z" />
    <glyph glyph-name="ccircumflex" unicode="&#x109;" horiz-adv-x="494" 
d="M448 608l-30 -22l-99 102l-133 -102l-22 22l163 133h1zM408 97l18 -27q-71 -81 -193 -81q-87 0 -142 58t-55 150q0 127 80 206.5t198 79.5q57 0 95 -22.5t51 -42.5l-31 -30q-6 9 -18.5 20t-42 22.5t-63.5 11.5q-84 0 -153.5 -64t-69.5 -178q0 -80 46 -125.5t116 -45.5
q92 0 164 68z" />
    <glyph glyph-name="Cdotaccent" unicode="&#x10a;" horiz-adv-x="718" 
d="M534 885q0 -17 -13 -30t-31 -13q-13 0 -22 9.5t-9 22.5q0 18 13.5 31t29.5 13q15 0 23.5 -9t8.5 -24zM618 113l18 -33q-113 -92 -251 -92q-142 0 -230.5 96t-88.5 240q0 94 36 177t96 142t141 93t170 34q137 0 222 -94l-35 -36q-64 85 -203 85q-99 0 -185 -51.5
t-139 -144.5t-53 -204q0 -126 78.5 -210t198.5 -84q132 0 225 82z" />
    <glyph glyph-name="cdotaccent" unicode="&#x10b;" horiz-adv-x="494" 
d="M350 635q0 -17 -13.5 -29.5t-30.5 -12.5q-13 0 -22 9.5t-9 22.5q0 18 13 31t30 13q13 0 22.5 -10t9.5 -24zM408 97l18 -27q-71 -81 -193 -81q-87 0 -142 58t-55 150q0 127 80 206.5t198 79.5q57 0 95 -22.5t51 -42.5l-31 -30q-6 9 -18.5 20t-42 22.5t-63.5 11.5
q-84 0 -153.5 -64t-69.5 -178q0 -80 46 -125.5t116 -45.5q92 0 164 68z" />
    <glyph glyph-name="Ccaron" unicode="&#x10c;" horiz-adv-x="718" 
d="M665 942l-177 -100l-146 98l19 23l138 -70l149 71zM618 113l18 -33q-113 -92 -251 -92q-142 0 -230.5 96t-88.5 240q0 94 36 177t96 142t141 93t170 34q137 0 222 -94l-35 -36q-64 85 -203 85q-99 0 -185 -51.5t-139 -144.5t-53 -204q0 -126 78.5 -210t198.5 -84
q132 0 225 82z" />
    <glyph glyph-name="ccaron" unicode="&#x10d;" horiz-adv-x="494" 
d="M471 709l-161 -133h-1l-121 133l29 22l100 -102l132 102zM408 97l18 -27q-71 -81 -193 -81q-87 0 -142 58t-55 150q0 127 80 206.5t198 79.5q57 0 95 -22.5t51 -42.5l-31 -30q-6 9 -18.5 20t-42 22.5t-63.5 11.5q-84 0 -153.5 -64t-69.5 -178q0 -80 46 -125.5t116 -45.5
q92 0 164 68z" />
    <glyph glyph-name="Dcaron" unicode="&#x10e;" horiz-adv-x="708" 
d="M573 941l-177 -100l-145 98l19 23l138 -70l150 71zM218 0h-158l120 757h149q148 0 241 -83.5t93 -234.5q0 -201 -126.5 -320t-318.5 -119zM115 44h87q182 0 296.5 102.5t114.5 289.5q0 136 -84.5 206.5t-217.5 70.5h-90z" />
    <glyph glyph-name="dcaron" unicode="&#x10f;" horiz-adv-x="577" 
d="M630 575h-41l90 182h50zM400 76l45 287q-13 35 -53 57t-89 22q-97 0 -158.5 -68.5t-61.5 -178.5q0 -79 49 -122.5t120 -43.5q78 0 148 47zM455 423l63 397h44l-122 -767q-87 -64 -194 -64q-87 0 -148.5 52.5t-61.5 147.5q0 134 77.5 214t195.5 80q44 0 83.5 -16t62.5 -44
z" />
    <glyph glyph-name="Dcroat" unicode="&#x110;" horiz-adv-x="708" 
d="M218 0h-158l57 358h-67l6 39h67l57 360h149q148 0 241 -83.5t93 -234.5q0 -201 -126.5 -320t-318.5 -119zM115 44h87q182 0 296.5 102.5t114.5 289.5q0 136 -84.5 206.5t-217.5 70.5h-90l-50 -316h198l-6 -39h-198z" />
    <glyph glyph-name="dcroat" unicode="&#x111;" horiz-adv-x="557" 
d="M455 423l36 227h-168l11 41h163l21 129h44l-21 -129h75l-12 -41h-69l-95 -597q-87 -64 -194 -64q-87 0 -148.5 52.5t-61.5 147.5q0 134 77.5 214t195.5 80q44 0 83.5 -16t62.5 -44zM400 76l45 287q-13 35 -53 57t-89 22q-97 0 -158.5 -68.5t-61.5 -178.5q0 -79 49 -122.5
t120 -43.5q78 0 148 47z" />
    <glyph glyph-name="Emacron" unicode="&#x112;" horiz-adv-x="530" 
d="M448 1h-388l120 755h356l-7 -43h-308l-45 -284h248l-7 -44h-248l-54 -341h340zM542 882h-333l6 41h333z" />
    <glyph glyph-name="emacron" unicode="&#x113;" horiz-adv-x="519" 
d="M479 596h-333l6 41h333zM407 100l20 -26q-72 -85 -199 -85q-86 0 -139 56t-53 148q0 128 75.5 209t194.5 81q63 0 102.5 -34.5t52.5 -84.5t6 -111l-1 -9h-378q-17 -103 27.5 -159t128.5 -56q99 0 163 71zM97 284h328q4 68 -29 113t-101 45q-72 0 -126.5 -46.5
t-71.5 -111.5z" />
    <glyph glyph-name="Edotaccent" unicode="&#x116;" horiz-adv-x="530" 
d="M448 1h-388l120 755h356l-7 -43h-308l-45 -284h248l-7 -44h-248l-54 -341h340zM427 921q0 -17 -13.5 -29.5t-30.5 -12.5q-13 0 -22 9.5t-9 22.5q0 18 13 31t30 13q14 0 23 -10t9 -24z" />
    <glyph glyph-name="edotaccent" unicode="&#x117;" horiz-adv-x="519" 
d="M354 635q0 -17 -13.5 -29.5t-30.5 -12.5q-13 0 -22 9.5t-9 22.5q0 18 13 31t30 13q14 0 23 -10t9 -24zM407 100l20 -26q-72 -85 -199 -85q-86 0 -139 56t-53 148q0 128 75.5 209t194.5 81q63 0 102.5 -34.5t52.5 -84.5t6 -111l-1 -9h-378q-17 -103 27.5 -159t128.5 -56
q99 0 163 71zM97 284h328q4 68 -29 113t-101 45q-72 0 -126.5 -46.5t-71.5 -111.5z" />
    <glyph glyph-name="Eogonek" unicode="&#x118;" horiz-adv-x="530" 
d="M347 -171l-7 -39q-29 -15 -66 -15q-40 0 -68.5 20t-28.5 57q0 88 123 149h-240l120 755h356l-7 -43h-308l-45 -284h248l-7 -44h-248l-54 -341h340l-7 -43h-117q-44 -20 -76.5 -56t-32.5 -76q0 -26 17.5 -40t45.5 -14q23 0 62 14z" />
    <glyph glyph-name="eogonek" unicode="&#x119;" horiz-adv-x="519" 
d="M360 -157l-6 -39q-29 -15 -66 -15q-40 0 -68.5 20t-28.5 57q0 69 88 128q-27 -5 -51 -5q-86 0 -139 56t-53 148q0 128 75.5 209t194.5 81q63 0 102.5 -34.5t52.5 -84.5t6 -111l-1 -9h-378q-17 -103 27 -159t129 -56q99 0 163 71l20 -26q-18 -22 -54 -44t-64.5 -37.5
t-51 -43.5t-22.5 -65q0 -26 18 -40.5t46 -14.5q26 0 61 14zM97 284h328q4 68 -29 113t-101 45q-72 0 -126.5 -46.5t-71.5 -111.5z" />
    <glyph glyph-name="Ecaron" unicode="&#x11a;" horiz-adv-x="530" 
d="M448 1h-388l120 755h356l-7 -43h-308l-45 -284h248l-7 -44h-248l-54 -341h340zM541 995l-164 -133h-1l-123 133l29 22l103 -102l135 102z" />
    <glyph glyph-name="ecaron" unicode="&#x11b;" horiz-adv-x="519" 
d="M471 709l-162 -133h-1l-121 133l30 22l100 -102l132 102zM407 100l20 -26q-72 -85 -199 -85q-86 0 -139 56t-53 148q0 128 75.5 209t194.5 81q63 0 102.5 -34.5t52.5 -84.5t6 -111l-1 -9h-378q-17 -103 27.5 -159t128.5 -56q99 0 163 71zM97 284h328q4 68 -29 113
t-101 45q-72 0 -126.5 -46.5t-71.5 -111.5z" />
    <glyph glyph-name="Gcircumflex" unicode="&#x11c;" horiz-adv-x="804" 
d="M648 843l-131 69l-157 -69l-11 23l176 98h1l144 -99zM710 299h-203l7 43h252q-14 -90 -53 -159.5t-93.5 -111t-116 -62.5t-126.5 -21q-134 0 -222.5 97.5t-88.5 238.5q0 189 130.5 317.5t313.5 128.5q46 0 88 -11t68.5 -25.5t48.5 -31.5t30.5 -26.5t10.5 -13.5l-34 -35
q-3 4 -11 12.5t-28 24t-43.5 28.5t-60 23t-75.5 10q-167 0 -277 -116.5t-110 -278.5q0 -121 73.5 -210t194.5 -89q111 0 202.5 70.5t122.5 197.5z" />
    <glyph glyph-name="gcircumflex" unicode="&#x11d;" horiz-adv-x="557" 
d="M469 608l-29 -22l-99 102l-133 -102l-22 22l163 133h1zM382 -26l16 100q-35 -39 -83.5 -62t-95.5 -23q-76 0 -129.5 55t-53.5 150q0 71 25 127.5t66.5 91t91.5 52.5t104 18q61 0 107 -20.5t67 -44.5l-71 -445q-11 -70 -36 -118.5t-61 -72t-70.5 -32.5t-76.5 -9
q-95 0 -165 54l28 36q59 -48 148 -48q159 0 189 191zM407 129l43 270q-51 43 -135 43q-91 0 -161.5 -64.5t-70.5 -175.5q0 -70 38.5 -121t115.5 -51q41 0 91 29t79 70z" />
    <glyph glyph-name="Gbreve" unicode="&#x11e;" horiz-adv-x="804" 
d="M629 985h43q-12 -58 -60 -105t-122 -47q-59 0 -94.5 40t-29.5 112h46q-3 -7 -0.5 -25.5t7 -38t25 -34.5t52.5 -15q31 0 55.5 11t38 26t23 32.5t12.5 28t4 15.5zM710 299h-203l7 43h252q-14 -90 -53 -159.5t-93.5 -111t-116 -62.5t-126.5 -21q-134 0 -222.5 97.5
t-88.5 238.5q0 189 130.5 317.5t313.5 128.5q46 0 88 -11t68.5 -25.5t48.5 -31.5t30.5 -26.5t10.5 -13.5l-34 -35q-3 4 -11 12.5t-28 24t-43.5 28.5t-60 23t-75.5 10q-167 0 -277 -116.5t-110 -278.5q0 -121 73.5 -210t194.5 -89q111 0 202.5 70.5t122.5 197.5z" />
    <glyph glyph-name="gbreve" unicode="&#x11f;" horiz-adv-x="557" 
d="M457 729h43q-13 -59 -60.5 -105.5t-121.5 -46.5q-59 0 -94.5 40t-29.5 112h46q-4 -7 -1.5 -25.5t7.5 -38t25 -34.5t52 -15q31 0 55.5 11t38.5 26t23.5 32.5t12.5 28t4 15.5zM382 -26l16 100q-35 -39 -83.5 -62t-95.5 -23q-76 0 -129.5 55t-53.5 150q0 71 25 127.5
t66.5 91t91.5 52.5t104 18q61 0 107 -20.5t67 -44.5l-71 -445q-11 -70 -36 -118.5t-61 -72t-70.5 -32.5t-76.5 -9q-95 0 -165 54l28 36q59 -48 148 -48q159 0 189 191zM407 129l43 270q-51 43 -135 43q-91 0 -161.5 -64.5t-70.5 -175.5q0 -70 38.5 -121t115.5 -51
q41 0 91 29t79 70z" />
    <glyph glyph-name="Gdotaccent" unicode="&#x120;" horiz-adv-x="804" 
d="M547 885q0 -17 -13 -30t-30 -13q-13 0 -22.5 9.5t-9.5 22.5q0 18 13.5 31t30.5 13q14 0 22.5 -9.5t8.5 -23.5zM710 299h-203l7 43h252q-14 -90 -53 -159.5t-93.5 -111t-116 -62.5t-126.5 -21q-134 0 -222.5 97.5t-88.5 238.5q0 189 130.5 317.5t313.5 128.5q46 0 88 -11
t68.5 -25.5t48.5 -31.5t30.5 -26.5t10.5 -13.5l-34 -35q-3 4 -11 12.5t-28 24t-43.5 28.5t-60 23t-75.5 10q-167 0 -277 -116.5t-110 -278.5q0 -121 73.5 -210t194.5 -89q111 0 202.5 70.5t122.5 197.5z" />
    <glyph glyph-name="gdotaccent" unicode="&#x121;" horiz-adv-x="557" 
d="M368 636q0 -17 -13 -30t-31 -13q-13 0 -22 9.5t-9 22.5q0 18 13.5 31t29.5 13q15 0 23.5 -9t8.5 -24zM382 -26l16 100q-35 -39 -83.5 -62t-95.5 -23q-76 0 -129.5 55t-53.5 150q0 71 25 127.5t66.5 91t91.5 52.5t104 18q61 0 107 -20.5t67 -44.5l-71 -445
q-11 -70 -36 -118.5t-61 -72t-70.5 -32.5t-76.5 -9q-95 0 -165 54l28 36q59 -48 148 -48q159 0 189 191zM407 129l43 270q-51 43 -135 43q-91 0 -161.5 -64.5t-70.5 -175.5q0 -70 38.5 -121t115.5 -51q41 0 91 29t79 70z" />
    <glyph glyph-name="Gcommaaccent" unicode="&#x122;" horiz-adv-x="804" 
d="M313 -232h-51l102 178h56zM710 299h-203l7 43h252q-14 -90 -53 -159.5t-93.5 -111t-116 -62.5t-126.5 -21q-134 0 -222.5 97.5t-88.5 238.5q0 189 130.5 317.5t313.5 128.5q46 0 88 -11t68.5 -25.5t48.5 -31.5t30.5 -26.5t10.5 -13.5l-34 -35q-3 4 -11 12.5t-28 24
t-43.5 28.5t-60 23t-75.5 10q-167 0 -277 -116.5t-110 -278.5q0 -121 73.5 -210t194.5 -89q111 0 202.5 70.5t122.5 197.5z" />
    <glyph glyph-name="gcommaaccent" unicode="&#x123;" horiz-adv-x="557" 
d="M350 603h-51l99 182h41zM382 -26l16 100q-35 -39 -83.5 -62t-95.5 -23q-76 0 -129.5 55t-53.5 150q0 71 25 127.5t66.5 91t91.5 52.5t104 18q61 0 107 -20.5t67 -44.5l-71 -445q-11 -70 -36 -118.5t-61 -72t-70.5 -32.5t-76.5 -9q-95 0 -165 54l28 36q59 -48 148 -48
q159 0 189 191zM407 129l43 270q-51 43 -135 43q-91 0 -161.5 -64.5t-70.5 -175.5q0 -70 38.5 -121t115.5 -51q41 0 91 29t79 70z" />
    <glyph glyph-name="Hcircumflex" unicode="&#x124;" horiz-adv-x="728" 
d="M572 0h-48l57 363h-416l-57 -363h-48l120 757h48l-56 -350h416l56 350h48zM592 808l-131 69l-157 -69l-12 23l177 98h1l144 -99z" />
    <glyph glyph-name="hcircumflex" unicode="&#x125;" 
d="M336 882l-30 -22l-100 102l-132 -102l-22 22l163 133h1zM399 0h-44l46 288q13 81 -12.5 116t-96.5 35q-85 0 -157 -66l-59 -373h-44l130 820h44l-63 -400q76 63 163 63q81 0 117.5 -46t23.5 -131z" />
    <glyph glyph-name="Hbar" unicode="&#x126;" horiz-adv-x="728" 
d="M572 0h-48l57 363h-416l-57 -363h-48l92 579h-67l6 41h67l22 137h48l-22 -137h416l22 137h48l-22 -137h67l-6 -41h-67zM588 407l28 172h-416l-28 -172h416z" />
    <glyph glyph-name="hbar" unicode="&#x127;" 
d="M399 0h-44l46 288q13 81 -12.5 116t-96.5 35q-85 0 -157 -66l-59 -373h-44l103 650h-73l11 41h68l21 129h44l-21 -129h169l-11 -41h-164l-36 -230q76 63 163 63q81 0 117.5 -46t23.5 -131z" />
    <glyph glyph-name="Itilde" unicode="&#x128;" horiz-adv-x="264" 
d="M108 0h-48l120 757h48zM375 934l13 -30q-20 -20 -51.5 -40.5t-58.5 -20.5q-18 0 -54.5 25t-58.5 25q-27 0 -88 -46l-15 27q21 21 55 41.5t59 20.5q23 0 59 -25.5t52 -25.5q35 0 88 49z" />
    <glyph glyph-name="itilde" unicode="&#x129;" horiz-adv-x="213" 
d="M80 0h-44l75 471h44zM296 665l13 -27q-53 -53 -100 -53q-17 0 -51 23.5t-55 23.5q-30 0 -82 -43l-14 24q18 19 50 38.5t56 19.5q21 0 55 -24t49 -24q33 0 79 42z" />
    <glyph glyph-name="Imacron" unicode="&#x12a;" horiz-adv-x="264" 
d="M108 0h-48l120 757h48zM384 842h-333l6 41h333z" />
    <glyph glyph-name="imacron" unicode="&#x12b;" horiz-adv-x="213" 
d="M81 0h-44l74 471h44zM320 596h-332l6 41h332z" />
    <glyph glyph-name="Ibreve" unicode="&#x12c;" horiz-adv-x="264" 
d="M108 0h-48l120 757h48zM350 985h44q-13 -59 -60.5 -105.5t-121.5 -46.5q-59 0 -94.5 40t-29.5 112h45q-4 -7 -1 -25.5t7.5 -38t25 -34.5t52.5 -15q31 0 55.5 11t38 26t23 32.5t12.5 28t4 15.5z" />
    <glyph glyph-name="ibreve" unicode="&#x12d;" horiz-adv-x="213" 
d="M80 0h-44l75 471h44zM284 729h44q-13 -59 -60.5 -105.5t-121.5 -46.5q-59 0 -94.5 40t-29.5 112h45q-4 -7 -1 -25.5t7.5 -38t25 -34.5t52.5 -15q31 0 55.5 11.5t38 25t23.5 33t12 27.5z" />
    <glyph glyph-name="Iogonek" unicode="&#x12e;" horiz-adv-x="264" 
d="M113 -171l-7 -39q-27 -15 -66 -15t-67 20t-28 57q0 83 115 148l120 757h48l-121 -759q-51 -20 -84.5 -53.5t-33.5 -74.5q0 -26 17 -40.5t46 -14.5q24 0 61 14z" />
    <glyph glyph-name="iogonek" unicode="&#x12f;" horiz-adv-x="213" 
d="M88 -171l-7 -39q-27 -15 -66 -15t-67 20t-28 57q0 84 117 148l74 471h44l-75 -475q-49 -18 -82.5 -51.5t-33.5 -74.5q0 -26 17.5 -40.5t45.5 -14.5q24 0 61 14zM195 616q0 -18 -13.5 -31.5t-32.5 -13.5q-14 0 -23.5 10t-9.5 24q0 19 14 32.5t32 13.5q15 0 24 -9.5
t9 -25.5z" />
    <glyph glyph-name="Idotaccent" unicode="&#x130;" horiz-adv-x="264" 
d="M108 0h-48l120 757h48zM267 922q0 -17 -13.5 -30t-31.5 -13q-13 0 -21.5 9.5t-8.5 22.5q0 18 13 31t29 13q15 0 24 -9.5t9 -23.5z" />
    <glyph glyph-name="IJ" unicode="&#x132;" horiz-adv-x="527" 
d="M108 0h-48l120 757h48zM157 -264l-12 44q93 39 129.5 93t59.5 195l109 689h48l-110 -694q-17 -107 -43.5 -167.5t-66 -94t-114.5 -65.5z" />
    <glyph glyph-name="ij" unicode="&#x133;" horiz-adv-x="426" 
d="M80 0h-44l75 471h44zM194 616q0 -18 -13.5 -31.5t-32.5 -13.5q-14 0 -23.5 10t-9.5 24q0 19 14 32.5t32 13.5q15 0 24 -9.5t9 -25.5zM136 -267l-13 38q26 12 41 20t29 25t20.5 28t15 45.5t12.5 60t14 87.5l69 434h44l-68 -428q-8 -47 -12 -71t-10.5 -56.5t-11.5 -47.5
t-14.5 -36t-19 -31.5t-24 -24t-31.5 -23t-41 -20.5zM409 616q0 -18 -14 -31.5t-32 -13.5q-15 0 -24 9.5t-9 24.5q0 19 13.5 32.5t32.5 13.5q14 0 23.5 -9.5t9.5 -25.5z" />
    <glyph glyph-name="Jcircumflex" unicode="&#x134;" horiz-adv-x="263" 
d="M-106 -264l-12 44q64 27 96.5 56t54 82t37.5 150l109 689h48l-110 -694q-17 -107 -43.5 -167.5t-66 -94t-113.5 -65.5zM380 864l-23 -22l-131 69l-157 -69l-11 23l177 98h1z" />
    <glyph glyph-name="jcircumflex" unicode="&#x135;" horiz-adv-x="213" 
d="M-76 -267l-13 38q19 9 31.5 15.5t25 17.5t19 17t14 25t11 29.5t10 42t9.5 51.5t11 68l69 434h44l-68 -428q-26 -167 -51 -218.5t-112 -91.5zM296 608l-30 -22l-99 102l-131 -102l-22 22l162 133h1z" />
    <glyph glyph-name="Kcommaaccent" unicode="&#x136;" horiz-adv-x="594" 
d="M215 -232h-51l102 178h56zM562 0h-68l-329 359l-57 -359h-48l120 757h48l-57 -358l388 358h73l-425 -377z" />
    <glyph glyph-name="kcommaaccent" unicode="&#x137;" horiz-adv-x="426" 
d="M112 -232h-50l102 178h55zM383 0h-59l-208 255l-40 -255h-44l130 820h44l-87 -549l219 200h63l-235 -208z" />
    <glyph glyph-name="kgreenlandic" unicode="&#x138;" horiz-adv-x="428" 
d="M383 0h-59l-208 255l-40 -255h-44l75 471h44l-32 -200l219 200h63l-235 -208z" />
    <glyph glyph-name="Lacute" unicode="&#x139;" horiz-adv-x="485" 
d="M417 1h-357l120 756h48l-113 -713h309zM367 887l-234 -43l-8 31l228 61z" />
    <glyph glyph-name="lacute" unicode="&#x13a;" horiz-adv-x="221" 
d="M84 0h-44l130 820h44zM313 1009l-155 -138l-18 17l138 154z" />
    <glyph glyph-name="Lcommaaccent" unicode="&#x13b;" horiz-adv-x="485" 
d="M417 1h-357l120 756h48l-113 -713h309zM166 -232h-50l102 178h55z" />
    <glyph glyph-name="lcommaaccent" unicode="&#x13c;" horiz-adv-x="221" 
d="M84 0h-44l130 820h44zM3 -232h-50l101 178h56z" />
    <glyph glyph-name="Lcaron" unicode="&#x13d;" horiz-adv-x="487" 
d="M417 1h-357l120 756h48l-113 -713h309zM429 615h-41l89 182h51z" />
    <glyph glyph-name="lcaron" unicode="&#x13e;" horiz-adv-x="233" 
d="M84 0h-44l130 820h44zM283 575h-42l90 182h50z" />
    <glyph glyph-name="Ldot" unicode="&#x13f;" horiz-adv-x="509" 
d="M417 1h-357l120 756h48l-113 -713h309zM429 339q-16 0 -26.5 11t-10.5 27q0 20 15 35t35 15q16 0 26 -11t10 -27q0 -20 -15 -35t-34 -15z" />
    <glyph glyph-name="ldot" unicode="&#x140;" horiz-adv-x="326" 
d="M84 0h-44l130 820h44zM325 389q0 -19 -15.5 -34.5t-34.5 -15.5q-16 0 -26.5 11t-10.5 27q0 20 16 35t35 15q16 0 26 -11t10 -27z" />
    <glyph glyph-name="Lslash" unicode="&#x141;" horiz-adv-x="484" 
d="M418 1h-358l39 248l-82 -51l7 47l83 51l73 461h48l-68 -429l154 96l-8 -47l-154 -96l-37 -237h310z" />
    <glyph glyph-name="lslash" unicode="&#x142;" horiz-adv-x="240" 
d="M94 0h-44l40 254l-75 -52l7 47l76 52l82 519h44l-77 -487l84 60l-7 -47l-85 -60z" />
    <glyph glyph-name="Nacute" unicode="&#x143;" horiz-adv-x="820" 
d="M650 884l-236 -43l-7 31l228 61zM661 -24l-452 671l-102 -647h-48l123 775l452 -669l103 651h48z" />
    <glyph glyph-name="nacute" unicode="&#x144;" 
d="M425 721l-156 -138l-18 17l138 154zM399 0h-44l46 288q13 81 -12.5 116t-96.5 35q-85 0 -157 -66l-59 -373h-44l75 471h44l-8 -51q76 63 163 63q81 0 117.5 -46t23.5 -131z" />
    <glyph glyph-name="Ncommaaccent" unicode="&#x145;" horiz-adv-x="820" 
d="M308 -232h-50l102 178h55zM661 -24l-452 671l-102 -647h-48l123 775l452 -669l103 651h48z" />
    <glyph glyph-name="ncommaaccent" unicode="&#x146;" 
d="M160 -232h-51l102 178h56zM399 0h-44l46 288q13 81 -12.5 116t-96.5 35q-85 0 -157 -66l-59 -373h-44l75 471h44l-8 -51q76 63 163 63q81 0 117.5 -46t23.5 -131z" />
    <glyph glyph-name="Ncaron" unicode="&#x147;" horiz-adv-x="820" 
d="M681 906l-176 -97l-145 98l18 23l139 -70l148 68zM661 -24l-452 671l-102 -647h-48l123 775l452 -669l103 651h48z" />
    <glyph glyph-name="ncaron" unicode="&#x148;" 
d="M463 709l-161 -133h-1l-121 133l30 22l100 -102l132 102zM399 0h-44l46 288q13 81 -12.5 116t-96.5 35q-85 0 -157 -66l-59 -373h-44l75 471h44l-8 -51q76 63 163 63q81 0 117.5 -46t23.5 -131z" />
    <glyph glyph-name="napostrophe" unicode="&#x149;" horiz-adv-x="641" 
d="M106 471h-43l91 182h52zM517 0h-44l46 288q13 81 -12.5 116t-96.5 35q-86 0 -157 -66l-59 -373h-44l75 471h44l-8 -51q76 63 163 63q81 0 117.5 -46t23.5 -131z" />
    <glyph glyph-name="Eng" unicode="&#x14a;" horiz-adv-x="821" 
d="M451 -264l-12 44q88 37 124 85.5t58 165.5l-412 616l-102 -647h-48l123 775l452 -669l103 651h48l-110 -694q-17 -107 -43.5 -167.5t-66 -94t-114.5 -65.5z" />
    <glyph glyph-name="eng" unicode="&#x14b;" 
d="M242 -267l-13 38q26 12 41 20t29 25t20.5 28t15 45.5t12.5 60t14 87.5l40 251q13 81 -12.5 116t-96.5 35q-85 0 -157 -66l-59 -373h-44l75 471h44l-8 -51q76 63 163 63q80 0 117 -46.5t24 -131.5l-41 -262q-10 -62 -15.5 -92.5t-15 -67t-18.5 -53.5t-26 -37t-37.5 -33
t-51.5 -27z" />
    <glyph glyph-name="Omacron" unicode="&#x14c;" horiz-adv-x="872" 
d="M690 852h-333l7 41h333zM388 -12q-141 0 -231.5 96.5t-90.5 240.5q0 125 62.5 228t164.5 160t219 57q141 0 229.5 -94.5t88.5 -242.5q0 -127 -63.5 -230.5t-164.5 -159t-214 -55.5zM388 31q159 0 275.5 116t116.5 281q0 130 -77.5 213.5t-197.5 83.5q-155 0 -271.5 -114
t-116.5 -276q0 -126 76.5 -215t194.5 -89z" />
    <glyph glyph-name="omacron" unicode="&#x14d;" horiz-adv-x="574" 
d="M500 596h-333l6 41h333zM237 -11q-89 0 -145.5 60t-56.5 151q0 123 82 203t199 80q89 0 145 -61t56 -152q0 -120 -83 -200.5t-197 -80.5zM242 30q97 0 162.5 67t65.5 168q0 76 -46.5 126t-116.5 50q-96 0 -161.5 -69.5t-65.5 -167.5q0 -75 47 -124.5t115 -49.5z" />
    <glyph glyph-name="Obreve" unicode="&#x14e;" horiz-adv-x="872" 
d="M654 985h43q-12 -58 -60 -105t-122 -47q-59 0 -94.5 40t-29.5 112h46q-4 -7 -1.5 -25.5t7.5 -38t25 -34.5t52 -15q31 0 55.5 11t38.5 26t23.5 32.5t12.5 28t4 15.5zM388 -12q-141 0 -231.5 96.5t-90.5 240.5q0 125 62.5 228t164.5 160t219 57q141 0 229.5 -94.5
t88.5 -242.5q0 -127 -63.5 -230.5t-164.5 -159t-214 -55.5zM388 31q159 0 275.5 116t116.5 281q0 130 -77.5 213.5t-197.5 83.5q-155 0 -271.5 -114t-116.5 -276q0 -126 76.5 -215t194.5 -89z" />
    <glyph glyph-name="obreve" unicode="&#x14f;" horiz-adv-x="574" 
d="M464 729h43q-12 -58 -59.5 -105t-121.5 -47q-59 0 -94.5 40t-29.5 112h45q-4 -7 -1 -25.5t7.5 -38t25 -34.5t52.5 -15q31 0 55.5 11.5t38 25t23.5 33t12 27.5zM237 -11q-89 0 -145.5 60t-56.5 151q0 123 82 203t199 80q89 0 145 -61t56 -152q0 -120 -83 -200.5
t-197 -80.5zM242 30q97 0 162.5 67t65.5 168q0 76 -46.5 126t-116.5 50q-96 0 -161.5 -69.5t-65.5 -167.5q0 -75 47 -124.5t115 -49.5z" />
    <glyph glyph-name="Ohungarumlaut" unicode="&#x150;" horiz-adv-x="872" 
d="M599 947l-179 -108l-17 17l162 124zM734 947l-179 -108l-17 17l162 124zM388 -12q-141 0 -231.5 96.5t-90.5 240.5q0 125 62.5 228t164.5 160t219 57q141 0 229.5 -94.5t88.5 -242.5q0 -127 -63.5 -230.5t-164.5 -159t-214 -55.5zM388 31q159 0 275.5 116t116.5 281
q0 130 -77.5 213.5t-197.5 83.5q-155 0 -271.5 -114t-116.5 -276q0 -126 76.5 -215t194.5 -89z" />
    <glyph glyph-name="ohungarumlaut" unicode="&#x151;" horiz-adv-x="574" 
d="M409 691l-179 -108l-18 17l162 124zM544 691l-179 -108l-18 17l162 124zM237 -11q-89 0 -145.5 60t-56.5 151q0 123 82 203t199 80q89 0 145 -61t56 -152q0 -120 -83 -200.5t-197 -80.5zM242 30q97 0 162.5 67t65.5 168q0 76 -46.5 126t-116.5 50q-96 0 -161.5 -69.5
t-65.5 -167.5q0 -75 47 -124.5t115 -49.5z" />
    <glyph glyph-name="OE" unicode="&#x152;" horiz-adv-x="1186" 
d="M1103 1h-388l30 186q-60 -99 -155 -149t-202 -50q-141 0 -231.5 96.5t-90.5 240.5q0 124 62.5 227t165 160.5t218.5 57.5q106 0 184 -56t107 -160l32 202h357l-7 -43h-309l-45 -284h248l-7 -44h-248l-54 -341h340zM388 31q159 0 275.5 116t116.5 281q0 130 -77.5 213.5
t-197.5 83.5q-155 0 -271.5 -114t-116.5 -276q0 -126 76.5 -215t194.5 -89z" />
    <glyph glyph-name="oe" unicode="&#x153;" horiz-adv-x="948" 
d="M836 100l20 -26q-72 -85 -199 -85q-67 0 -115 35t-67 96q-38 -61 -101.5 -96t-136.5 -35q-89 0 -145.5 60t-56.5 151q0 123 82 203t199 80q68 0 118 -37t71 -101q30 63 91 100.5t137 37.5q63 0 103 -34.5t53.5 -85t6.5 -110.5l-1 -9h-378q-4 -24 -4 -51q0 -80 43.5 -122
t116.5 -42q99 0 163 71zM242 30q97 0 162.5 67t65.5 168q0 76 -46.5 126t-116.5 50q-96 0 -161.5 -69.5t-65.5 -167.5q0 -75 47 -124.5t115 -49.5zM526 284h328q4 68 -29 113t-101 45q-72 0 -126.5 -46.5t-71.5 -111.5z" />
    <glyph glyph-name="Racute" unicode="&#x154;" horiz-adv-x="562" 
d="M488 886l-234 -43l-8 31l228 61zM520 0h-71l-251 309h-41l-49 -309h-48l120 757h138q87 0 150 -43.5t63 -136.5q0 -117 -75 -189t-200 -78zM164 353h57q124 0 192 57.5t68 158.5q0 69 -46 106.5t-123 37.5h-91z" />
    <glyph glyph-name="racute" unicode="&#x155;" horiz-adv-x="305" 
d="M76 0h-44l75 471h44l-11 -65q7 21 40 49t67 28q39 0 71 -21l-31 -42q-27 18 -48 18q-35 0 -66.5 -31.5t-42.5 -63.5zM337 721l-156 -138l-18 17l138 154z" />
    <glyph glyph-name="Rcommaaccent" unicode="&#x156;" horiz-adv-x="563" 
d="M198 -232h-51l103 178h55zM520 0h-71l-251 309h-41l-49 -309h-48l120 757h138q87 0 150 -43.5t63 -136.5q0 -117 -75 -189t-200 -78zM164 353h57q124 0 192 57.5t68 158.5q0 69 -46 106.5t-123 37.5h-91z" />
    <glyph glyph-name="rcommaaccent" unicode="&#x157;" horiz-adv-x="306" 
d="M76 0h-44l75 471h44l-11 -65q7 21 39.5 49t67.5 28q39 0 70 -21l-32 -42q-21 18 -47 18q-35 0 -66.5 -31.5t-41.5 -63.5zM24 -232h-50l101 178h56z" />
    <glyph glyph-name="Rcaron" unicode="&#x158;" horiz-adv-x="562" 
d="M530 940l-176 -97l-146 98l20 23l138 -70l148 68zM520 0h-71l-251 309h-41l-49 -309h-48l120 757h138q87 0 150 -43.5t63 -136.5q0 -117 -75 -189t-200 -78zM164 353h57q124 0 192 57.5t68 158.5q0 69 -46 106.5t-123 37.5h-91z" />
    <glyph glyph-name="rcaron" unicode="&#x159;" horiz-adv-x="305" 
d="M76 0h-44l75 471h44l-11 -65q7 21 40 49t67 28q39 0 71 -21l-31 -42q-27 18 -48 18q-35 0 -66.5 -31.5t-42.5 -63.5zM378 709l-162 -133h-1l-121 133l30 22l100 -102l132 102z" />
    <glyph glyph-name="Sacute" unicode="&#x15a;" horiz-adv-x="517" 
d="M486 886l-235 -43l-7 31l228 61zM4 84l37 35q50 -87 170 -87q77 0 132 50.5t55 130.5q0 43 -20.5 77t-51.5 54.5t-67 42.5t-67 42t-51.5 54t-20.5 77q0 102 67 157t160 55q57 0 98 -22t60 -49l-35 -33q-48 60 -130 60q-67 0 -117.5 -41t-50.5 -114q0 -37 20.5 -67
t51.5 -48t67.5 -41t67.5 -45t51.5 -60.5t20.5 -88.5q0 -97 -70.5 -166t-180.5 -69q-69 0 -124 30.5t-72 65.5z" />
    <glyph glyph-name="sacute" unicode="&#x15b;" horiz-adv-x="383" 
d="M354 721l-156 -138l-17 17l137 154zM-6 60l32 30q40 -63 115 -63q54 0 89 31.5t35 83.5q0 27 -19.5 47.5t-47.5 34.5t-55.5 30t-47 42t-19.5 61q0 56 43 91.5t110 35.5q37 0 69.5 -16.5t46.5 -39.5l-28 -33q-10 16 -36.5 33t-59.5 17q-50 0 -75 -28t-25 -58t30 -54
t65.5 -40t65.5 -49t30 -78q0 -62 -53 -106t-126 -44q-52 0 -87.5 21.5t-51.5 50.5z" />
    <glyph glyph-name="Scedilla" unicode="&#x15e;" horiz-adv-x="517" 
d="M142 -205h-42l91 157h51zM4 84l37 35q50 -87 170 -87q77 0 132 50.5t55 130.5q0 43 -20.5 77t-51.5 54.5t-67 42.5t-67 42t-51.5 54t-20.5 77q0 102 67 157t160 55q57 0 98 -22t60 -49l-35 -33q-48 60 -130 60q-67 0 -117.5 -41t-50.5 -114q0 -37 20.5 -67t51.5 -48
t67.5 -41t67.5 -45t51.5 -60.5t20.5 -88.5q0 -97 -70.5 -166t-180.5 -69q-69 0 -124 30.5t-72 65.5z" />
    <glyph glyph-name="scedilla" unicode="&#x15f;" horiz-adv-x="383" 
d="M84 -205h-42l90 157h51zM-6 60l32 30q40 -63 115 -63q54 0 89 31.5t35 83.5q0 27 -19.5 47.5t-47.5 34.5t-55.5 30t-47 42t-19.5 61q0 56 43 91.5t110 35.5q37 0 69.5 -16.5t46.5 -39.5l-28 -33q-10 16 -36.5 33t-59.5 17q-50 0 -75 -28t-25 -58t30 -54t65.5 -40
t65.5 -49t30 -78q0 -62 -53 -106t-126 -44q-52 0 -87.5 21.5t-51.5 50.5z" />
    <glyph glyph-name="Scaron" unicode="&#x160;" horiz-adv-x="517" 
d="M529 916l-177 -100l-146 98l20 23l138 -70l149 71zM4 84l37 35q50 -87 170 -87q77 0 132 50.5t55 130.5q0 43 -20.5 77t-51.5 54.5t-67 42.5t-67 42t-51.5 54t-20.5 77q0 102 67 157t160 55q57 0 98 -22t60 -49l-35 -33q-48 60 -130 60q-67 0 -117.5 -41t-50.5 -114
q0 -37 20.5 -67t51.5 -48t67.5 -41t67.5 -45t51.5 -60.5t20.5 -88.5q0 -97 -70.5 -166t-180.5 -69q-69 0 -124 30.5t-72 65.5z" />
    <glyph glyph-name="scaron" unicode="&#x161;" horiz-adv-x="383" 
d="M403 709l-162 -133h-1l-120 133l28 22l100 -102l132 102zM-6 60l32 30q40 -63 115 -63q54 0 89 31.5t35 83.5q0 27 -19.5 47.5t-47.5 34.5t-55.5 30t-47 42t-19.5 61q0 56 43 91.5t110 35.5q37 0 69.5 -16.5t46.5 -39.5l-28 -33q-10 16 -36.5 33t-59.5 17q-50 0 -75 -28
t-25 -58t30 -54t65.5 -40t65.5 -49t30 -78q0 -62 -53 -106t-126 -44q-52 0 -87.5 21.5t-51.5 50.5z" />
    <glyph glyph-name="Tcommaaccent" unicode="&#x162;" horiz-adv-x="508" 
d="M229 0h-48l113 713h-208l7 43h464l-7 -43h-208zM152 -232h-51l103 178h55z" />
    <glyph glyph-name="tcommaaccent" unicode="&#x163;" horiz-adv-x="273" 
d="M28 -232h-50l102 178h55zM103 0h-44l68 429h-83l6 41h83l27 171h44l-27 -171h108l-6 -41h-108z" />
    <glyph glyph-name="Tcaron" unicode="&#x164;" horiz-adv-x="508" 
d="M229 0h-48l113 713h-208l7 43h464l-7 -43h-208zM515 940l-177 -97l-146 98l20 23l138 -70l148 68z" />
    <glyph glyph-name="tcaron" unicode="&#x165;" horiz-adv-x="274" 
d="M298 575h-41l90 182h50zM103 0h-44l68 429h-83l6 41h83l28 171h44l-28 -171h108l-6 -41h-108z" />
    <glyph glyph-name="Tbar" unicode="&#x166;" horiz-adv-x="508" 
d="M229 0h-48l72 452h-121l6 41h121l35 220h-208l7 43h464l-7 -43h-208l-35 -220h122l-6 -41h-122z" />
    <glyph glyph-name="tbar" unicode="&#x167;" horiz-adv-x="275" 
d="M104 0h-44l44 279h-60l6 41h60l18 109h-83l6 41h83l27 171h44l-27 -171h108l-6 -41h-108l-18 -109h86l-6 -41h-86z" />
    <glyph glyph-name="Utilde" unicode="&#x168;" horiz-adv-x="719" 
d="M535 95l105 662h48l-107 -676q-40 -42 -110 -67.5t-162 -25.5q-122 0 -178 72t-34 212l77 485h48l-75 -472q-21 -136 26 -195t165 -59q53 0 108 16t89 48zM611 934l13 -30q-18 -19 -50.5 -40t-59.5 -21q-18 0 -54.5 25t-58.5 25q-27 0 -88 -46l-15 27q21 21 55 41.5
t59 20.5q23 0 59 -25.5t52 -25.5q35 0 88 49z" />
    <glyph glyph-name="utilde" unicode="&#x169;" 
d="M445 665l11 -27q-15 -17 -43.5 -35t-56.5 -18q-17 0 -50.5 23.5t-54.5 23.5q-29 0 -81 -43l-15 24q20 20 51 39t56 19q21 0 54.5 -24t48.5 -24q35 0 80 42zM365 73l63 398h44l-66 -417q-77 -65 -195 -65q-84 0 -127 46t-29 133l48 303h44l-46 -293q-23 -149 117 -149
q81 0 147 44z" />
    <glyph glyph-name="Umacron" unicode="&#x16a;" horiz-adv-x="719" 
d="M535 95l105 662h48l-107 -676q-40 -42 -110 -67.5t-162 -25.5q-122 0 -178 72t-34 212l77 485h48l-75 -472q-21 -136 26 -195t165 -59q53 0 108 16t89 48zM615 842h-333l7 41h333z" />
    <glyph glyph-name="umacron" unicode="&#x16b;" 
d="M475 596h-333l6 41h333zM365 73l63 398h44l-66 -417q-77 -65 -195 -65q-84 0 -127 46t-29 133l48 303h44l-46 -293q-23 -149 117 -149q81 0 147 44z" />
    <glyph glyph-name="Ubreve" unicode="&#x16c;" horiz-adv-x="719" 
d="M535 95l105 662h48l-107 -676q-40 -42 -110 -67.5t-162 -25.5q-122 0 -178 72t-34 212l77 485h48l-75 -472q-21 -136 26 -195t165 -59q53 0 108 16t89 48zM584 972h43q-12 -58 -60 -105t-122 -47q-58 0 -93.5 40t-29.5 112h45q-4 -7 -1.5 -25.5t7.5 -38t25 -34.5t52 -15
q31 0 56 11t38.5 26t23 32.5t12.5 28t4 15.5z" />
    <glyph glyph-name="ubreve" unicode="&#x16d;" 
d="M434 729h43q-12 -58 -60 -105t-122 -47q-58 0 -93.5 40t-29.5 112h45q-4 -7 -1 -25.5t7.5 -38t25 -34.5t52.5 -15q31 0 55.5 11.5t38 25t23.5 33t12 27.5zM365 73l63 398h44l-66 -417q-77 -65 -195 -65q-84 0 -127 46t-29 133l48 303h44l-46 -293q-23 -149 117 -149
q81 0 147 44z" />
    <glyph glyph-name="Uring" unicode="&#x16e;" horiz-adv-x="719" 
d="M535 95l105 662h48l-107 -676q-40 -42 -110 -67.5t-162 -25.5q-122 0 -178 72t-34 212l77 485h48l-75 -472q-21 -136 26 -195t165 -59q53 0 108 16t89 48zM558 902q0 -47 -35.5 -82t-81.5 -35q-37 0 -61 25.5t-24 63.5q0 48 36 83t82 35q36 0 60 -26.5t24 -63.5zM448 819
q30 0 54 24.5t24 55.5q0 26 -16 43t-40 17q-30 0 -53.5 -23.5t-23.5 -55.5q0 -25 15.5 -43t39.5 -18z" />
    <glyph glyph-name="uring" unicode="&#x16f;" 
d="M419 670q0 -47 -35.5 -82t-81.5 -35q-37 0 -61 25.5t-24 63.5q0 48 36 83t82 35q36 0 60 -26.5t24 -63.5zM308 587q30 0 54 24.5t24 55.5q0 26 -15.5 43t-39.5 17q-30 0 -53.5 -23.5t-23.5 -55.5q0 -25 15 -43t39 -18zM365 73l63 398h44l-66 -417q-77 -65 -195 -65
q-84 0 -127 46t-29 133l48 303h44l-46 -293q-23 -149 117 -149q81 0 147 44z" />
    <glyph glyph-name="Uhungarumlaut" unicode="&#x170;" horiz-adv-x="719" 
d="M535 95l105 662h48l-107 -676q-40 -42 -110 -67.5t-162 -25.5q-122 0 -178 72t-34 212l77 485h48l-75 -472q-21 -136 26 -195t165 -59q53 0 108 16t89 48zM526 950l-179 -108l-17 17l162 124zM678 950l-179 -108l-17 17l162 124z" />
    <glyph glyph-name="uhungarumlaut" unicode="&#x171;" 
d="M375 691l-179 -108l-18 17l162 124zM527 691l-179 -108l-18 17l162 124zM365 73l63 398h44l-66 -417q-77 -65 -195 -65q-84 0 -127 46t-29 133l48 303h44l-46 -293q-23 -149 117 -149q81 0 147 44z" />
    <glyph glyph-name="Uogonek" unicode="&#x172;" horiz-adv-x="718" 
d="M430 -169l-6 -39q-28 -15 -66 -15q-40 0 -68.5 20t-28.5 57q0 77 102 137q-25 -3 -54 -3q-122 0 -178 72t-34 212l77 485h48l-75 -472q-21 -136 26 -195t165 -59q53 0 108 16t89 48l105 662h48l-107 -676q-64 -66 -177 -84q-42 -23 -70.5 -56t-28.5 -69q0 -26 18 -40.5
t47 -14.5q25 0 60 14z" />
    <glyph glyph-name="uogonek" unicode="&#x173;" horiz-adv-x="522" 
d="M325 -170l-6 -39q-27 -15 -66 -15q-40 0 -68 20t-28 57q0 79 105 140q-32 -4 -52 -4q-84 0 -127 46t-29 133l48 303h44l-46 -293q-24 -149 117 -149q81 0 147 44l63 398h44l-66 -417q-42 -36 -91 -52q-45 -19 -79.5 -55t-34.5 -76q0 -26 18 -40.5t46 -14.5q26 0 61 14z
" />
    <glyph glyph-name="Wcircumflex" unicode="&#x174;" horiz-adv-x="954" 
d="M651 -27l-108 567q-9 50 -15 95l-46 -95l-285 -567l-112 784h56l81 -617q2 -13 0 -34q3 17 12 34l317 638l118 -638q1 -6 1 -34q4 17 11 34l271 617h54zM727 871l-23 -22l-133 62l-156 -69l-12 23l177 98h1z" />
    <glyph glyph-name="wcircumflex" unicode="&#x175;" horiz-adv-x="679" 
d="M528 608l-30 -22l-100 102l-131 -102l-22 22l162 133h1zM432 -21h-5l-77 403l-204 -403h-2l-104 492h49l74 -377l202 402h6l78 -402l195 377h48z" />
    <glyph glyph-name="Ycircumflex" unicode="&#x176;" horiz-adv-x="508" 
d="M483 851l-132 62l-157 -69l-12 23l177 98h1l145 -92zM227 0h-48l52 328l-161 429h56l135 -363q3 -9 3 -15q1 6 7 15l253 363h55l-300 -429z" />
    <glyph glyph-name="ycircumflex" unicode="&#x177;" horiz-adv-x="453" 
d="M409 608l-28 -22l-100 102l-132 -102l-23 22l164 133h1zM14 -259h-49l186 296l-114 434h50l97 -388l237 388h51z" />
    <glyph glyph-name="Ydieresis" unicode="&#x178;" horiz-adv-x="508" 
d="M557 888q0 -18 -12.5 -30.5t-31.5 -12.5q-14 0 -22 9t-8 23q0 18 12 31t30 13q15 0 23.5 -9t8.5 -24zM207 887q0 -17 -13.5 -29.5t-30.5 -12.5q-13 0 -22 9.5t-9 22.5q0 18 13 31t30 13q14 0 23 -10t9 -24zM227 0h-48l52 328l-161 429h56l135 -363q3 -9 3 -15q1 6 7 15
l253 363h55l-300 -429z" />
    <glyph glyph-name="Zacute" unicode="&#x179;" horiz-adv-x="540" 
d="M462 1h-500l520 712h-340l7 43h423l-521 -712h418zM495 886l-236 -43l-7 31l228 61z" />
    <glyph glyph-name="zacute" unicode="&#x17a;" horiz-adv-x="417" 
d="M388 721l-156 -138l-17 17l137 154zM330 1h-360l357 428h-247l6 41h328l-356 -428h278z" />
    <glyph glyph-name="Zdotaccent" unicode="&#x17b;" horiz-adv-x="540" 
d="M462 1h-500l520 712h-340l7 43h423l-521 -712h418zM415 884q0 -17 -13 -30t-31 -13q-13 0 -22 9.5t-9 22.5q0 18 13.5 31t29.5 13q15 0 23.5 -9t8.5 -24z" />
    <glyph glyph-name="zdotaccent" unicode="&#x17c;" horiz-adv-x="417" 
d="M311 636q0 -17 -13 -30t-31 -13q-13 0 -22 9.5t-9 22.5q0 18 13.5 31t29.5 13q15 0 23.5 -9t8.5 -24zM330 1h-360l357 428h-247l6 41h328l-356 -428h278z" />
    <glyph glyph-name="Zcaron" unicode="&#x17d;" horiz-adv-x="540" 
d="M462 1h-500l520 712h-340l7 43h423l-521 -712h418zM535 916l-177 -100l-145 98l18 23l138 -70l149 71z" />
    <glyph glyph-name="zcaron" unicode="&#x17e;" horiz-adv-x="417" 
d="M421 709l-161 -133h-1l-121 133l30 22l99 -102l133 102zM330 1h-360l357 428h-247l6 41h328l-356 -428h278z" />
    <glyph glyph-name="longs" unicode="&#x17f;" horiz-adv-x="230" 
d="M101 0h-44l68 429h-76l6 41h76l24 149q16 100 62 149q46 47 111 47q48 0 69 -18l-27 -42q-22 16 -54 16q-46 0 -75 -37.5t-40 -104.5z" />
    <glyph glyph-name="florin" unicode="&#x192;" horiz-adv-x="258" 
d="M-90 -262l5 37q16 -4 26 -4q31 0 53 27.5t32 61.5t19 85l85 492h-83l7 39h82l15 85q10 57 16.5 88.5t21 74.5t31 65.5t44.5 39t64 16.5q18 0 33 -5l-6 -41q-1 0 -13.5 1.5t-17.5 1.5q-23 0 -40.5 -8t-30.5 -27.5t-21.5 -37.5t-16.5 -53.5t-12 -58.5t-11.5 -69.5
t-11.5 -71.5h83l-7 -39h-83l-84 -495q-7 -41 -16 -73t-25.5 -66t-43.5 -52.5t-62 -18.5q-20 0 -32 6z" />
    <glyph glyph-name="uni01C0" unicode="&#x1c0;" horiz-adv-x="236" 
d="M94 0h-48l120 757h48z" />
    <glyph glyph-name="uni01C1" unicode="&#x1c1;" horiz-adv-x="382" 
d="M94 0h-48l120 757h48zM240 0h-48l120 757h48z" />
    <glyph glyph-name="uni01C2" unicode="&#x1c2;" horiz-adv-x="553" 
d="M256 0h-47l45 282h-205l7 43h205l22 141h-205l7 44h205l39 247h47l-39 -247h197l-7 -44h-197l-22 -141h197l-7 -43h-197z" />
    <glyph glyph-name="uni01C3" unicode="&#x1c3;" horiz-adv-x="230" 
d="M133 263h-49l78 494h49zM65 -10q-16 0 -26 10.5t-10 26.5q0 21 15.5 36.5t34.5 15.5q17 0 27 -11t10 -28q0 -21 -15 -35.5t-36 -14.5z" />
    <glyph glyph-name="AEacute" unicode="&#x1fc;" horiz-adv-x="851" 
d="M815 886l-234 -43l-8 31l228 61zM769 1h-388l35 223h-253l-160 -224h-53l539 756h368l-7 -43h-308l-45 -284h248l-7 -44h-248l-54 -341h340zM423 268l66 414l-294 -414h228z" />
    <glyph glyph-name="aeacute" unicode="&#x1fd;" horiz-adv-x="835" 
d="M616 721l-155 -138l-19 17l138 154zM722 100l20 -26q-72 -85 -198 -85q-117 0 -166 102q-30 -40 -86 -71t-116 -31q-82 0 -123 41t-41 103q0 47 21 83.5t54.5 56.5t69 30t69.5 10q80 0 141 -56l11 67q9 54 -19.5 86t-97.5 32q-60 0 -130 -28l-13 35q73 34 148 34
q142 0 153 -104q70 104 202 104q65 0 104.5 -34.5t51.5 -84.5t5 -111l-1 -9h-372q-17 -107 25 -161t125 -54q101 0 163 71zM365 138q-8 27 -4 72q-56 63 -139 63q-60 0 -112 -35t-52 -99q0 -53 35.5 -81.5t90.5 -28.5q52 0 112.5 39.5t68.5 69.5zM418 284h323q3 68 -30 113
t-101 45q-71 0 -122.5 -45.5t-69.5 -112.5z" />
    <glyph glyph-name="Oslashacute" unicode="&#x1fe;" horiz-adv-x="872" 
d="M645 885l-235 -43l-8 31l227 61zM191 -148l-35 13l84 156q-79 39 -126.5 121t-47.5 182q0 184 129.5 315t316.5 131q62 0 122 -22l74 137l34 -16l-74 -137q75 -39 118.5 -118.5t43.5 -180.5q0 -125 -63.5 -228.5t-164.5 -160t-214 -56.5q-58 0 -114 18zM264 63l346 643
q-52 19 -105 19q-156 0 -272 -114t-116 -277q0 -88 40 -161.5t107 -109.5zM644 688l-346 -641q38 -16 90 -16q157 0 274.5 116.5t117.5 280.5q0 87 -37 156t-99 104z" />
    <glyph glyph-name="oslashacute" unicode="&#x1ff;" horiz-adv-x="574" 
d="M449 721l-155 -138l-19 17l139 154zM76 -145l-32 14l88 145q-45 25 -70.5 75t-25.5 111q0 124 83 203.5t198 79.5q43 0 86 -18l94 156l31 -17l-94 -156q39 -27 61.5 -74.5t22.5 -103.5q0 -119 -83.5 -200t-196.5 -81q-33 0 -75 11zM156 53l223 372q-35 16 -71 16
q-96 0 -161.5 -69t-65.5 -169q0 -48 20.5 -88.5t54.5 -61.5zM409 408l-222 -369q27 -9 56 -9q97 0 162.5 67t65.5 168q0 94 -62 143z" />
    <glyph glyph-name="dotlessj" unicode="&#x237;" horiz-adv-x="213" 
d="M-76 -267l-13 38q19 9 31.5 15.5t25 17.5t19 17t14 25t11 29.5t10 42t9.5 51.5t11 68l69 434h44l-68 -428q-8 -47 -12 -71t-10.5 -56.5t-11.5 -47.5t-14.5 -36t-18.5 -31.5t-24 -24t-32 -23t-40 -20.5z" />
    <glyph glyph-name="schwa" unicode="&#x259;" horiz-adv-x="519" 
d="M30 218l1 9h379q16 103 -28 159t-129 56q-99 0 -163 -71l-19 26q71 86 198 86q86 0 139 -57t53 -148q0 -124 -75.5 -206.5t-193.5 -82.5q-49 0 -84.5 19.5t-53 52.5t-23.5 72.5t-1 84.5zM400 187h-328q-3 -69 29 -113.5t100 -44.5q73 0 127 46t72 112z" />
    <glyph glyph-name="circumflex" unicode="&#x2c6;" horiz-adv-x="423" 
d="M453 608l-29 -22l-100 102l-132 -102l-23 22l163 133h1z" />
    <glyph glyph-name="caron" unicode="&#x2c7;" horiz-adv-x="423" 
d="M464 709l-162 -133h-1l-121 133l29 22l100 -102l132 102z" />
    <glyph glyph-name="breve" unicode="&#x2d8;" horiz-adv-x="388" 
d="M419 729h44q-13 -59 -60.5 -105.5t-121.5 -46.5q-59 0 -94.5 40t-29.5 112h45q-4 -7 -1 -25.5t7.5 -38t25 -34.5t52.5 -15q31 0 55.5 11.5t38 25t23.5 33t12 27.5z" />
    <glyph glyph-name="dotaccent" unicode="&#x2d9;" horiz-adv-x="238" 
d="M256 636q0 -17 -13 -30t-31 -13q-13 0 -22 9.5t-9 22.5q0 18 13.5 31t29.5 13q15 0 23.5 -9t8.5 -24z" />
    <glyph glyph-name="ring" unicode="&#x2da;" horiz-adv-x="363" 
d="M393 709q0 -47 -35 -82t-82 -35q-36 0 -60 25.5t-24 63.5q0 48 36 83t81 35q37 0 60.5 -26t23.5 -64zM282 626q31 0 54.5 24t23.5 56q0 26 -15.5 43t-40.5 17q-30 0 -53.5 -23.5t-23.5 -55.5q0 -25 15.5 -43t39.5 -18z" />
    <glyph glyph-name="ogonek" unicode="&#x2db;" horiz-adv-x="568" 
d="M343 -171l-7 -39q-27 -15 -66 -15q-40 0 -68 20t-28 57q0 87 130 151h32q-47 -19 -82.5 -55.5t-35.5 -77.5q0 -26 17.5 -40.5t46.5 -14.5q24 0 61 14z" />
    <glyph glyph-name="tilde" unicode="&#x2dc;" horiz-adv-x="352" 
d="M431 665l13 -27q-53 -53 -100 -53q-18 0 -52 23.5t-54 23.5q-30 0 -82 -43l-14 24q18 19 50 38.5t56 19.5q21 0 55 -24t49 -24q34 0 79 42z" />
    <glyph glyph-name="hungarumlaut" unicode="&#x2dd;" horiz-adv-x="483" 
d="M365 691l-179 -108l-17 17l162 124zM517 691l-179 -108l-17 17l162 124z" />
    <glyph glyph-name="pi" unicode="&#x3c0;" horiz-adv-x="525" 
d="M392 0h-44l68 430h-267l-68 -430h-44l74 470h355z" />
    <glyph glyph-name="uni1E02" unicode="&#x1e02;" horiz-adv-x="587" 
d="M388 884q0 -17 -13.5 -29.5t-31.5 -12.5q-13 0 -21.5 9.5t-8.5 22.5q0 18 12.5 31t29.5 13q14 0 23.5 -10t9.5 -24zM237 0h-177l120 757h133q198 0 198 -152q0 -72 -46 -127.5t-105 -74.5q58 -6 106 -51t48 -118q0 -105 -73.5 -169.5t-203.5 -64.5zM173 410h58
q100 0 165 53t65 134q0 116 -148 116h-92zM115 44h130q105 0 162 51t57 131q0 61 -44.5 100.5t-115.5 39.5h-138z" />
    <glyph glyph-name="uni1E03" unicode="&#x1e03;" horiz-adv-x="557" 
d="M399 636q0 -17 -13 -30t-31 -13q-13 0 -22 9.5t-9 22.5q0 18 13.5 31t29.5 13q15 0 23.5 -9t8.5 -24zM38 53l121 767h44l-65 -413q29 28 77 52t100 24q92 0 138.5 -53.5t46.5 -145.5q0 -96 -43.5 -165t-107.5 -99.5t-137 -30.5q-106 0 -174 64zM130 354l-45 -279
q17 -17 56 -31.5t77 -14.5q97 0 166 66t69 182q0 78 -38.5 121.5t-110.5 43.5q-46 0 -96 -27.5t-78 -60.5z" />
    <glyph glyph-name="uni1E0A" unicode="&#x1e0a;" horiz-adv-x="708" 
d="M460 884q0 -17 -13.5 -29.5t-31.5 -12.5q-13 0 -21.5 9.5t-8.5 22.5q0 18 12.5 31t29.5 13q14 0 23.5 -10t9.5 -24zM218 0h-158l120 757h149q148 0 241 -83.5t93 -234.5q0 -201 -126.5 -320t-318.5 -119zM115 44h87q182 0 296.5 102.5t114.5 289.5q0 136 -84.5 206.5
t-217.5 70.5h-90z" />
    <glyph glyph-name="uni1E0B" unicode="&#x1e0b;" horiz-adv-x="557" 
d="M324 635q0 -17 -13.5 -29.5t-30.5 -12.5q-13 0 -22 9.5t-9 22.5q0 18 13 31t30 13q14 0 23 -10t9 -24zM400 76l45 287q-13 35 -53 57t-89 22q-97 0 -158.5 -68.5t-61.5 -178.5q0 -79 49 -122.5t120 -43.5q78 0 148 47zM455 423l63 397h44l-122 -767q-87 -64 -194 -64
q-87 0 -148.5 52.5t-61.5 147.5q0 134 77.5 214t195.5 80q44 0 83.5 -16t62.5 -44z" />
    <glyph glyph-name="uni1E1E" unicode="&#x1e1e;" horiz-adv-x="491" 
d="M107 0h-48l120 756h350l-7 -43h-302l-45 -284h243l-7 -44h-243zM409 884q0 -17 -13.5 -30t-31.5 -13q-13 0 -21.5 9.5t-8.5 22.5q0 18 13 31t29 13q15 0 24 -9.5t9 -23.5z" />
    <glyph glyph-name="uni1E1F" unicode="&#x1e1f;" horiz-adv-x="282" 
d="M101 0h-44l68 429h-76l6 41h76l24 149q16 100 62 149q46 47 111 47q48 0 69 -18l-27 -42q-22 16 -54 16q-46 0 -75 -37.5t-40 -104.5l-25 -159h111l-6 -41h-112zM345 910q0 -17 -13 -30t-31 -13q-13 0 -22 9.5t-9 23.5q0 17 13 30t30 13q13 0 22.5 -9.5t9.5 -23.5z" />
    <glyph glyph-name="uni1E40" unicode="&#x1e40;" horiz-adv-x="929" 
d="M574 762q0 -17 -13.5 -29.5t-30.5 -12.5q-13 0 -22.5 9.5t-9.5 22.5q0 18 13.5 31t30.5 13q14 0 23 -10t9 -24zM807 0h-50l42 588q0 2 1.5 13.5t1.5 12.5q-2 -7 -11 -20l-380 -621l-183 621q-4 14 -5 20q-2 -18 -5 -26l-144 -588h-49l196 778l199 -661q9 -27 8 -40
q7 19 21 40l407 661z" />
    <glyph glyph-name="uni1E41" unicode="&#x1e41;" horiz-adv-x="790" 
d="M485 635q0 -17 -13.5 -29.5t-30.5 -12.5q-13 0 -22 9.5t-9 22.5q0 18 13 31t30 13q14 0 23 -10t9 -24zM665 0h-44l49 308q11 69 -8.5 100t-83.5 31q-77 0 -155 -70q3 -22 -2 -54l-50 -315h-44l49 308q11 69 -9 100t-84 31q-76 0 -148 -66l-59 -373h-44l75 471h44l-8 -51
q28 23 71 43t83 20q100 0 120 -76q90 76 175 76q150 0 123 -168z" />
    <glyph glyph-name="uni1E56" unicode="&#x1e56;" horiz-adv-x="533" 
d="M401 884q0 -17 -13.5 -29.5t-31.5 -12.5q-13 0 -21.5 9.5t-8.5 22.5q0 18 12.5 31t29.5 13q14 0 23.5 -10t9.5 -24zM108 0h-48l120 757h129q95 0 158.5 -44.5t63.5 -136.5q0 -116 -77 -191.5t-231 -75.5h-66zM164 353h68q114 0 181.5 58t67.5 158q0 70 -46 107t-123 37
h-91z" />
    <glyph glyph-name="uni1E57" unicode="&#x1e57;" horiz-adv-x="555" 
d="M364 635q0 -17 -13.5 -29.5t-31.5 -12.5q-13 0 -21.5 9.5t-8.5 22.5q0 18 12.5 31t29.5 13q14 0 23.5 -10t9.5 -24zM33 -254h-43l106 672q87 65 194 65q89 0 148.5 -54.5t59.5 -154.5q0 -120 -73 -202.5t-189 -82.5q-48 0 -90 20.5t-63 49.5zM137 399l-45 -280
q18 -39 59 -64.5t92 -25.5q84 0 146.5 65.5t62.5 171.5q0 78 -46 127t-129 49q-37 0 -77.5 -13.5t-62.5 -29.5z" />
    <glyph glyph-name="uni1E60" unicode="&#x1e60;" horiz-adv-x="517" 
d="M389 885q0 -17 -13 -30t-31 -13q-13 0 -22 9.5t-9 22.5q0 18 13.5 31t29.5 13q15 0 23.5 -9t8.5 -24zM4 84l37 35q50 -87 170 -87q77 0 132 50.5t55 130.5q0 43 -20.5 77t-51.5 54.5t-67 42.5t-67 42t-51.5 54t-20.5 77q0 102 67 157t160 55q57 0 98 -22t60 -49l-35 -33
q-48 60 -130 60q-67 0 -117.5 -41t-50.5 -114q0 -37 20.5 -67t51.5 -48t67.5 -41t67.5 -45t51.5 -60.5t20.5 -88.5q0 -97 -70.5 -166t-180.5 -69q-69 0 -124 30.5t-72 65.5z" />
    <glyph glyph-name="uni1E61" unicode="&#x1e61;" horiz-adv-x="383" 
d="M284 635q0 -17 -13.5 -29.5t-31.5 -12.5q-13 0 -21.5 9.5t-8.5 22.5q0 18 12.5 31t29.5 13q14 0 23.5 -10t9.5 -24zM-6 60l32 30q40 -63 115 -63q54 0 89 31.5t35 83.5q0 27 -19.5 47.5t-47.5 34.5t-55.5 30t-47 42t-19.5 61q0 56 43 91.5t110 35.5q37 0 69.5 -16.5
t46.5 -39.5l-28 -33q-10 16 -36.5 33t-59.5 17q-50 0 -75 -28t-25 -58t30 -54t65.5 -40t65.5 -49t30 -78q0 -62 -53 -106t-126 -44q-52 0 -87.5 21.5t-51.5 50.5z" />
    <glyph glyph-name="uni1E6A" unicode="&#x1e6a;" horiz-adv-x="508" 
d="M229 0h-48l113 713h-208l7 43h464l-7 -43h-208zM382 885q0 -17 -13 -30t-32 -13q-13 0 -21.5 9.5t-8.5 22.5q0 18 13 31t29 13q15 0 24 -9.5t9 -23.5z" />
    <glyph glyph-name="uni1E6B" unicode="&#x1e6b;" horiz-adv-x="274" 
d="M244 799q0 -17 -13.5 -29.5t-30.5 -12.5q-13 0 -22 9.5t-9 22.5q0 18 13 31t30 13q14 0 23 -10t9 -24zM103 0h-44l68 429h-83l6 41h83l28 171h44l-28 -171h108l-6 -41h-108z" />
    <glyph glyph-name="Wgrave" unicode="&#x1e80;" horiz-adv-x="954" 
d="M651 -27l-108 567q-9 50 -15 95l-46 -95l-285 -567l-112 784h56l81 -617q2 -13 0 -34q3 17 12 34l317 638l118 -638q1 -6 1 -34q4 17 11 34l271 617h54zM668 843l-222 43l30 49l209 -61z" />
    <glyph glyph-name="wgrave" unicode="&#x1e81;" horiz-adv-x="679" 
d="M456 600l-24 -17l-111 138l46 33zM432 -21h-5l-77 403l-204 -403h-2l-104 492h49l74 -377l202 402h6l78 -402l195 377h48z" />
    <glyph glyph-name="Wacute" unicode="&#x1e82;" horiz-adv-x="954" 
d="M651 -27l-108 567q-9 50 -15 95l-46 -95l-285 -567l-112 784h56l81 -617q2 -13 0 -34q3 17 12 34l317 638l118 -638q1 -6 1 -34q4 17 11 34l271 617h54zM700 885l-235 -43l-7 31l228 61z" />
    <glyph glyph-name="wacute" unicode="&#x1e83;" horiz-adv-x="679" 
d="M486 721l-155 -138l-19 17l138 154zM432 -21h-5l-77 403l-204 -403h-2l-104 492h49l74 -377l202 402h6l78 -402l195 377h48z" />
    <glyph glyph-name="Wdieresis" unicode="&#x1e84;" horiz-adv-x="954" 
d="M651 -27l-108 567q-9 50 -15 95l-46 -95l-285 -567l-112 784h56l81 -617q2 -13 0 -34q3 17 12 34l317 638l118 -638q1 -6 1 -34q4 17 11 34l271 617h54zM801 763q0 -18 -12.5 -30.5t-32.5 -12.5q-13 0 -21 9t-8 23q0 18 12 31t29 13q15 0 24 -9t9 -24zM369 762
q0 -17 -13.5 -29.5t-31.5 -12.5q-13 0 -21.5 9.5t-8.5 22.5q0 18 12.5 31t29.5 13q14 0 23.5 -10t9.5 -24z" />
    <glyph glyph-name="wdieresis" unicode="&#x1e85;" horiz-adv-x="679" 
d="M323 636q0 -17 -13.5 -30t-30.5 -13q-13 0 -22 9.5t-9 22.5q0 18 13 31t30 13q14 0 23 -9.5t9 -23.5zM532 636q0 -18 -12.5 -30.5t-32.5 -12.5q-13 0 -21 9t-8 23q0 18 12 31t29 13q15 0 24 -9t9 -24zM432 -21h-5l-77 403l-204 -403h-2l-104 492h49l74 -377l202 402h6
l78 -402l195 377h48z" />
    <glyph glyph-name="Ygrave" unicode="&#x1ef2;" horiz-adv-x="508" 
d="M382 751l-23 -17l-112 138l46 33zM227 0h-48l52 328l-161 429h56l135 -363q3 -9 3 -15q1 6 7 15l253 363h55l-300 -429z" />
    <glyph glyph-name="ygrave" unicode="&#x1ef3;" horiz-adv-x="453" 
d="M325 600l-24 -17l-112 138l47 33zM14 -259h-49l186 296l-114 434h50l97 -388l237 388h51z" />
    <glyph glyph-name="emdash" unicode="&#x2014;" horiz-adv-x="822" 
d="M733 227h-672l11 40h672z" />
    <glyph glyph-name="quoteleft" unicode="&#x2018;" horiz-adv-x="217" 
d="M151 575h-51l99 182h41z" />
    <glyph glyph-name="quoteright" unicode="&#x2019;" horiz-adv-x="216" 
d="M142 575h-41l89 182h51z" />
    <glyph glyph-name="quotesinglbase" unicode="&#x201a;" horiz-adv-x="219" 
d="M24 -59h-40l88 181h51z" />
    <glyph glyph-name="quotedblleft" unicode="&#x201c;" horiz-adv-x="332" 
d="M265 575h-50l99 182h41zM150 575h-50l98 182h41z" />
    <glyph glyph-name="quotedblright" unicode="&#x201d;" horiz-adv-x="331" 
d="M142 575h-41l90 182h50zM258 575h-41l89 182h50z" />
    <glyph glyph-name="quotedblbase" unicode="&#x201e;" horiz-adv-x="334" 
d="M23 -61h-40l89 181h50zM139 -61h-41l89 181h50z" />
    <glyph glyph-name="dagger" unicode="&#x2020;" horiz-adv-x="446" 
d="M202 63h-39l79 498h-140l6 39h140l34 215h39l-34 -215h144l-6 -39h-144z" />
    <glyph glyph-name="daggerdbl" unicode="&#x2021;" horiz-adv-x="462" 
d="M210 63h-39l31 195h-140l6 39h140l46 289h-140l6 39h140l31 195h39l-31 -195h144l-6 -39h-144l-46 -289h144l-6 -39h-144z" />
    <glyph glyph-name="bullet" unicode="&#x2022;" horiz-adv-x="476" 
d="M381 295q0 -45 -35.5 -79t-79.5 -34q-36 0 -59.5 25t-23.5 62q0 45 35 79t80 34q36 0 59.5 -25.5t23.5 -61.5z" />
    <glyph glyph-name="onedotenleader" unicode="&#x2024;" horiz-adv-x="227" 
d="M66 -9q-16 0 -26.5 10.5t-10.5 26.5q0 21 15.5 35.5t35.5 14.5q16 0 25.5 -10.5t9.5 -27.5q0 -20 -14.5 -34.5t-34.5 -14.5z" />
    <glyph glyph-name="twodotenleader" unicode="&#x2025;" horiz-adv-x="450" 
d="M66 -9q-16 0 -26.5 10.5t-10.5 26.5q0 21 15.5 35.5t35.5 14.5q16 0 25.5 -10.5t9.5 -27.5q0 -20 -14.5 -34.5t-34.5 -14.5zM289 -9q-16 0 -26.5 10.5t-10.5 26.5q0 20 16 35t35 15q16 0 25.5 -10.5t9.5 -27.5q0 -20 -14.5 -34.5t-34.5 -14.5z" />
    <glyph glyph-name="ellipsis" unicode="&#x2026;" horiz-adv-x="857" 
d="M66 -9q-16 0 -26.5 10.5t-10.5 26.5q0 20 16 35t35 15q16 0 25.5 -10.5t9.5 -27.5q0 -20 -14.5 -34.5t-34.5 -14.5zM381 -9q-16 0 -26.5 10.5t-10.5 26.5q0 21 15 35.5t36 14.5q16 0 25.5 -10.5t9.5 -27.5q0 -20 -14.5 -34.5t-34.5 -14.5zM745 40q0 -20 -14.5 -34.5
t-35.5 -14.5q-16 0 -26 10.5t-10 26.5q0 21 15 35.5t35 14.5q16 0 26 -10.5t10 -27.5z" />
    <glyph glyph-name="perthousand" unicode="&#x2030;" horiz-adv-x="1178" 
d="M938 -11q-51 0 -84 35t-33 89q0 67 49.5 116.5t113.5 49.5q51 0 84 -36t33 -90q0 -67 -49.5 -115.5t-113.5 -48.5zM944 23q48 0 84 37.5t36 88.5q0 40 -23.5 67t-61.5 27q-48 0 -84 -37.5t-36 -88.5q0 -40 23.5 -67t61.5 -27zM200 -19l-28 12l432 777l28 -13zM219 471
q-51 0 -84 35.5t-33 89.5q0 67 49.5 116.5t113.5 49.5q51 0 84.5 -36t33.5 -90q0 -67 -49.5 -116t-114.5 -49zM226 506q48 0 84.5 37.5t36.5 88.5q0 40 -24.5 67t-62.5 27q-48 0 -84 -37.5t-36 -88.5q0 -40 24 -67t62 -27zM557 -11q-51 0 -84 35t-33 89q0 67 49.5 116.5
t113.5 49.5q51 0 84 -36t33 -90q0 -67 -49 -115.5t-114 -48.5zM563 23q48 0 84 37.5t36 88.5q0 40 -23.5 67t-61.5 27q-48 0 -84.5 -37.5t-36.5 -88.5q0 -40 24 -67t62 -27z" />
    <glyph glyph-name="guilsinglleft" unicode="&#x2039;" horiz-adv-x="271" 
d="M171 26h-41l-86 208l149 209h40l-149 -209z" />
    <glyph glyph-name="guilsinglright" unicode="&#x203a;" horiz-adv-x="271" 
d="M54 26h-42l153 208l-83 209h40l83 -209z" />
    <glyph glyph-name="fraction" unicode="&#x2044;" horiz-adv-x="125" 
d="M-161 -14l-26 14l495 765l27 -15z" />
    <glyph glyph-name="zero.sinf" unicode="&#x2080;" horiz-adv-x="399" 
d="M120 -187q-66 0 -93.5 45.5t-27.5 110.5q0 109 48 183.5t139 74.5q47 0 76 -24.5t39 -57t10 -73.5q0 -25 -3 -52t-14.5 -66t-31 -68.5t-56.5 -51t-86 -21.5zM126 -153q69 0 105.5 66.5t36.5 155.5q0 50 -20 87t-67 37q-68 0 -104 -64t-36 -155q0 -50 19.5 -88.5
t65.5 -38.5z" />
    <glyph glyph-name="one.sinf" unicode="&#x2081;" horiz-adv-x="214" 
d="M71 -180h-41l57 358l-75 -31l-9 33l133 50z" />
    <glyph glyph-name="two.sinf" unicode="&#x2082;" horiz-adv-x="368" 
d="M252 -179h-304q4 3 36 25t43 29.5t42 30t44.5 35t38.5 34t37.5 37.5t27 35.5t20.5 37.5t6 35q0 31 -20.5 51.5t-52.5 20.5q-52 0 -99 -44l-18 26q68 52 126 52q48 0 77 -28.5t29 -72.5q0 -27 -11.5 -55.5t-26 -50t-42.5 -47t-44.5 -39.5t-49 -35t-40 -25.5l-32.5 -19.5
l219 3z" />
    <glyph glyph-name="three.sinf" unicode="&#x2083;" horiz-adv-x="349" 
d="M174 45v-1q37 -13 55.5 -39.5t18.5 -59.5q0 -52 -48 -91.5t-125 -39.5q-46 0 -75.5 14t-40.5 28l24 32q8 -12 33.5 -25t63.5 -13q59 0 92 27.5t33 65.5q0 37 -31.5 62.5t-88.5 26.5l4 22q60 1 96 27t36 58q0 23 -19 37.5t-54 14.5q-44 0 -81 -22l-10 30q11 10 41.5 20
t62.5 10q48 0 75 -24.5t27 -58.5q0 -68 -89 -101z" />
    <glyph glyph-name="four.sinf" unicode="&#x2084;" horiz-adv-x="382" 
d="M213 -182h-43l14 90h-217l5 33l275 280h30l-44 -277h61l-6 -36h-61zM191 -57l35 217l-207 -217h172z" />
    <glyph glyph-name="five.sinf" unicode="&#x2085;" horiz-adv-x="345" 
d="M-42 -154l23 34q43 -29 89 -29q63 0 98.5 33t35.5 76q0 34 -26 57.5t-78 23.5q-32 0 -72 -11l87 190h164l-16 -35h-124l-53 -114q11 2 34 2q56 0 92 -29.5t36 -76.5q0 -62 -47.5 -107.5t-130.5 -45.5q-37 0 -68.5 11t-43.5 21z" />
    <glyph glyph-name="six.sinf" unicode="&#x2086;" horiz-adv-x="374" 
d="M189 242l25 -29q-107 -110 -134 -148q32 26 88 26q53 0 87 -36t34 -88q0 -67 -52.5 -113.5t-122.5 -46.5q-57 0 -94 36.5t-37 88.5q0 32 18.5 72t56.5 88t58 71t61 66q8 9 12 13zM247 -36q0 40 -27.5 65.5t-69.5 25.5q-48 0 -86.5 -34.5t-38.5 -81.5q0 -38 27.5 -66
t68.5 -28q50 0 88 34.5t38 84.5z" />
    <glyph glyph-name="seven.sinf" unicode="&#x2087;" horiz-adv-x="322" 
d="M13 -183h-43l257 365h-212l6 38h274z" />
    <glyph glyph-name="eight.sinf" unicode="&#x2088;" horiz-adv-x="375" 
d="M209 23q61 -28 61 -84q0 -53 -49.5 -92.5t-111.5 -39.5q-53 0 -87.5 30.5t-34.5 75.5q0 68 93 110q-27 11 -43 34t-16 50q0 56 48.5 92t107.5 36q52 0 86 -28t34 -75q0 -35 -26 -65t-62 -44zM225 -66q0 30 -24.5 51.5t-60.5 21.5q-43 0 -76.5 -27.5t-33.5 -63.5
q0 -30 24 -51.5t60 -21.5q43 0 77 27.5t34 63.5zM253 126q0 32 -23 52.5t-58 20.5q-43 0 -75.5 -26.5t-32.5 -62.5q0 -29 23 -49.5t60 -20.5q42 0 74 25.5t32 60.5z" />
    <glyph glyph-name="nine.sinf" unicode="&#x2089;" horiz-adv-x="374" 
d="M87 -201l-24 25q72 63 142 155q-28 -24 -79 -24q-59 0 -94.5 36t-35.5 89q0 63 52 111t123 48q59 0 95.5 -36.5t36.5 -87.5q0 -118 -216 -316zM259 111q0 38 -26.5 64t-67.5 26q-53 0 -89 -35.5t-36 -82.5q0 -39 25 -65.5t68 -26.5q53 0 89.5 35.5t36.5 84.5z" />
    <glyph glyph-name="parenleft.sinf" unicode="&#x208d;" horiz-adv-x="169" 
d="M38 -280l-32 -12q-15 68 -15 170q0 224 108 416l28 -11q-99 -201 -99 -392q0 -89 10 -171z" />
    <glyph glyph-name="parenright.sinf" unicode="&#x208e;" horiz-adv-x="169" 
d="M-24 -292l-28 12q35 82 51.5 127.5t31.5 120t15 155.5q0 109 -11 160l33 11q14 -63 14 -168q0 -227 -106 -418z" />
    <glyph glyph-name="Euro" unicode="&#x20ac;" horiz-adv-x="663" 
d="M540 59l13 -43q-6 -4 -20 -9.5t-51.5 -12t-82.5 -6.5q-118 0 -188.5 79t-71.5 210h-86l16 40h70q4 40 7 61q4 28 12 59h-70l16 40h66q44 131 133.5 208t209.5 77q100 0 149 -37l-27 -38q-55 30 -137 30q-94 0 -165 -62.5t-112 -177.5l293 2l-17 -42h-291q-10 -42 -13 -64
q-4 -28 -6 -56l293 2l-17 -42h-275q8 -114 65 -180t154 -66q38 0 71 7t45 12.5t17 8.5z" />
    <glyph glyph-name="uni2117" unicode="&#x2117;" horiz-adv-x="884" 
d="M397 20q158 0 277.5 122.5t119.5 288.5q0 132 -79 219.5t-204 87.5q-159 0 -278.5 -121.5t-119.5 -288.5q0 -132 79.5 -220t204.5 -88zM392 -12q-138 0 -227 97t-89 240q0 89 36.5 172t97 142.5t141 95.5t165.5 36q138 0 227 -97t89 -240q0 -118 -61.5 -221.5
t-163.5 -164t-215 -60.5zM356 108h-46l83 524h103q71 0 119.5 -31t48.5 -98q0 -84 -58.5 -134.5t-168.5 -50.5h-47zM396 356l46 1q174 3 174 141q0 46 -31 70.5t-84 24.5h-68z" />
    <glyph glyph-name="trademark" unicode="&#x2122;" horiz-adv-x="901" 
d="M243 394h-40l52 328q-19 0 -57.5 -0.5t-57.5 -0.5l6 36h271l-6 -36q-20 0 -58.5 0.5t-57.5 0.5zM825 394h-40l10 256l-187 -270l-102 270l-66 -256h-40l100 374l122 -313l217 312z" />
    <glyph glyph-name="estimated" unicode="&#x212e;" horiz-adv-x="831" 
d="M655 130l23 -35q-4 -4 -15 -13t-38.5 -26.5t-58.5 -31.5t-76.5 -25t-91.5 -11q-140 0 -230 97t-90 242q0 116 62 219t162 163.5t210 60.5q66 0 119.5 -22t95 -70.5t55 -125.5t-0.5 -187h-650q-17 -144 59.5 -238.5t215.5 -94.5q39 0 78.5 10t67.5 23t52.5 28.5t35.5 24
t15 12.5zM139 408h600q15 163 -51.5 240.5t-181.5 77.5q-133 0 -235.5 -96.5t-131.5 -221.5z" />
    <glyph glyph-name="arrowleft" unicode="&#x2190;" horiz-adv-x="819" 
d="M827 353h-659l56 -122l-40 -15l-76 160l126 160l36 -15l-94 -122h659z" />
    <glyph glyph-name="arrowup" unicode="&#x2191;" horiz-adv-x="400" 
d="M222 -3h-46l110 695l-126 -80l-9 39l169 106l135 -106l-21 -39l-102 80z" />
    <glyph glyph-name="arrowright" unicode="&#x2192;" horiz-adv-x="819" 
d="M704 216l-35 15l94 122h-659l7 46h659l-55 122l40 15l76 -160z" />
    <glyph glyph-name="arrowdown" unicode="&#x2193;" horiz-adv-x="400" 
d="M368 102l-169 -105l-135 105l21 39l102 -80l110 696h46l-110 -696l126 80z" />
    <glyph glyph-name="arrowboth" unicode="&#x2194;" horiz-adv-x="838" 
d="M724 216l-36 15l94 122h-614l56 -122l-40 -15l-76 160l126 160l36 -15l-94 -122h614l-56 122l40 15l76 -160z" />
    <glyph glyph-name="arrowupdn" unicode="&#x2195;" horiz-adv-x="400" 
d="M366 91l-169 -105l-135 105l21 39l102 -80l103 651l-127 -80l-9 39l169 106l135 -106l-21 -39l-101 80l-103 -651l126 80z" />
    <glyph glyph-name="uni2196" unicode="&#x2196;" horiz-adv-x="678" 
d="M651 124l-38 -33l-387 492l-52 -142l-34 17l66 188l185 38l10 -38l-137 -30z" />
    <glyph glyph-name="uni2197" unicode="&#x2197;" horiz-adv-x="678" 
d="M704 458l-40 -17l-6 142l-543 -492l-28 33l544 492l-128 30l22 38l173 -38z" />
    <glyph glyph-name="uni2198" unicode="&#x2198;" horiz-adv-x="678" 
d="M615 129l-185 -38l-10 38l138 30l-388 492l38 33l387 -492l52 142l34 -17z" />
    <glyph glyph-name="uni2199" unicode="&#x2199;" horiz-adv-x="678" 
d="M296 91l-173 38l-6 188l40 17l6 -142l543 492l28 -33l-543 -492l127 -30z" />
    <glyph glyph-name="partialdiff" unicode="&#x2202;" horiz-adv-x="594" 
d="M221 776l26 30q128 -40 202.5 -168t74.5 -280q0 -165 -76.5 -267.5t-210.5 -102.5q-85 0 -139.5 57.5t-54.5 148.5q0 104 79.5 186t195.5 82q37 0 84.5 -21t76.5 -75q-11 303 -258 410zM243 33q53 0 98.5 24t74.5 62t45 82.5t16 86.5q0 37 -20.5 64.5t-50.5 40.5t-56 19
t-46 6q-88 0 -150 -66t-62 -156q0 -75 44 -119t107 -44z" />
    <glyph glyph-name="Delta" unicode="&#x2206;" horiz-adv-x="738" 
d="M647 0h-645l447 777zM585 44l-155 622l-351 -622h506z" />
    <glyph glyph-name="product" unicode="&#x220f;" horiz-adv-x="746" 
d="M581 0h-48l113 713h-416l-113 -713h-48l120 757h512z" />
    <glyph glyph-name="summation" unicode="&#x2211;" horiz-adv-x="614" 
d="M506 1h-499l328 377l-208 378h469l-7 -43h-381l188 -335l-294 -334h411z" />
    <glyph glyph-name="minus" unicode="&#x2212;" horiz-adv-x="658" 
d="M571 342h-477l7 44h477z" />
    <glyph glyph-name="radical" unicode="&#x221a;" horiz-adv-x="630" 
d="M127 -272l-115 547h50l88 -416l505 983h54z" />
    <glyph glyph-name="infinity" unicode="&#x221e;" horiz-adv-x="903" 
d="M426 190q-52 -73 -100 -113t-108 -40q-69 0 -112.5 56t-43.5 133q0 113 69.5 187t157.5 74q27 0 50 -12t37.5 -28.5t28.5 -46.5t21.5 -52.5t18.5 -60.5q27 46 47.5 75.5t51 61.5t66.5 47.5t79 15.5q60 0 99 -48.5t39 -129.5q0 -68 -22 -122t-56.5 -85.5t-73.5 -48
t-78 -16.5q-65 0 -104 40.5t-67 112.5zM458 240q27 -78 59 -119t91 -41q76 0 127.5 58t51.5 157q0 63 -30.5 107t-88.5 44q-28 0 -53.5 -14t-51 -43t-44.5 -56.5t-47 -70.5q-9 -15 -14 -22zM412 231q-4 13 -14.5 44.5t-15.5 45.5t-14.5 38.5t-18 36t-20 25.5t-25.5 19.5
t-30 5.5q-66 0 -119 -62.5t-53 -150.5q0 -74 37.5 -113.5t97.5 -39.5q52 0 92 39t83 112z" />
    <glyph glyph-name="integral" unicode="&#x222b;" horiz-adv-x="415" 
d="M136 -8l101 634q13 81 48 126q47 63 124 63q50 0 68 -18l-27 -42q-19 16 -52 16q-47 0 -76 -36t-39 -96l-101 -635q-13 -78 -49 -125q-47 -63 -124 -63q-46 0 -67 18l28 42q16 -16 51 -16q47 0 76.5 36t38.5 96z" />
    <glyph glyph-name="approxequal" unicode="&#x2248;" horiz-adv-x="673" 
d="M529 286l43 -5q-26 -117 -112 -117q-46 0 -84.5 16.5t-60.5 37t-54 37t-67 16.5q-26 0 -46.5 -24t-25.5 -60l-41 4q9 54 41.5 86.5t74.5 32.5q35 0 64 -11t50 -27t41.5 -31.5t47.5 -26.5t59 -11q26 0 44.5 21.5t25.5 61.5zM565 516l44 -5q-27 -117 -113 -117
q-46 0 -84.5 16.5t-60.5 37t-54 37t-67 16.5q-26 0 -46 -24t-25 -60l-42 4q9 54 41.5 86.5t74.5 32.5q35 0 64 -11t50 -26.5t41.5 -31.5t47.5 -27t59 -11q26 0 45 21.5t25 61.5z" />
    <glyph glyph-name="notequal" unicode="&#x2260;" horiz-adv-x="630" 
d="M537 224h-250l-92 -224h-46l93 224h-182l7 44h194l80 190h-244l7 44h256l81 192h43l-81 -192h178l-7 -44h-190l-78 -190h238z" />
    <glyph glyph-name="lessequal" unicode="&#x2264;" horiz-adv-x="589" 
d="M443 88l-372 277l4 28l457 260l14 -37l-422 -237l344 -256zM482 1h-477l7 42h477z" />
    <glyph glyph-name="greaterequal" unicode="&#x2265;" horiz-adv-x="589" 
d="M538 365l-459 -277l-16 35l427 256l-348 237l26 37l374 -260zM488 1h-477l7 42h477z" />
    <glyph glyph-name="triagup" unicode="&#x25b2;" horiz-adv-x="635" 
d="M645 0h-654l411 578z" />
    <glyph glyph-name="triagrt" unicode="&#x25ba;" horiz-adv-x="600" 
d="M657 360l-564 -364l115 723z" />
    <glyph glyph-name="triagdn" unicode="&#x25bc;" horiz-adv-x="635" 
d="M311 10l-228 579h655z" />
    <glyph glyph-name="triaglf" unicode="&#x25c4;" horiz-adv-x="600" 
d="M505 -4l-448 364l563 359z" />
    <glyph glyph-name="lozenge" unicode="&#x25ca;" horiz-adv-x="551" 
d="M227 -20h-1l-152 436l290 437h1l147 -437zM244 81l219 335l-113 335l-223 -335z" />
    <glyph glyph-name="ff" unicode="&#xfb00;" horiz-adv-x="564" 
d="M101 0h-44l68 429h-76l6 41h77l17 108q16 101 61 149q46 47 112 47q48 0 69 -18l-28 -42q-19 16 -53 16q-46 0 -75.5 -38t-40.5 -104l-19 -118h107l-6 -41h-107zM383 0h-44l68 429h-72l6 41h72l25 155q16 100 62 149q46 47 111 47q50 0 68 -18l-26 -42q-22 16 -54 16
q-92 0 -115 -142l-26 -165h110l-6 -41h-111z" />
    <glyph glyph-name="fi" unicode="&#xfb01;" horiz-adv-x="496" 
d="M362 0h-44l75 471h44zM477 616q0 -18 -14 -31.5t-32 -13.5q-14 0 -23.5 10t-9.5 25q0 18 14 31.5t32 13.5q15 0 24 -10t9 -25zM101 0h-44l68 429h-76l6 41h76l24 149q16 100 62 149q46 47 111 47q48 0 69 -18l-27 -42q-22 16 -54 16q-46 0 -75 -37.5t-40 -104.5l-25 -159
h111l-6 -41h-112z" />
    <glyph glyph-name="fl" unicode="&#xfb02;" horiz-adv-x="503" 
d="M366 0h-44l130 820h44zM101 0h-44l68 429h-76l6 41h77l21 134q16 101 61 149q46 47 112 47q48 0 69 -18l-28 -42q-19 16 -53 16q-46 0 -75.5 -38t-40.5 -104l-23 -144h111l-6 -41h-111z" />
    <glyph glyph-name="ffi" unicode="&#xfb03;" horiz-adv-x="778" 
d="M644 0h-44l75 471h44zM759 616q0 -18 -14 -31.5t-32 -13.5q-15 0 -24 9.5t-9 24.5q0 19 14 32.5t32 13.5q15 0 24 -10t9 -25zM101 0h-44l68 429h-76l6 41h77l17 108q16 101 61 149q46 47 112 47q48 0 69 -18l-28 -42q-19 16 -53 16q-46 0 -75.5 -38t-40.5 -104l-19 -118
h107l-6 -41h-107zM383 0h-44l68 429h-72l6 41h72l25 155q16 100 62 149q46 47 111 47q50 0 68 -18l-26 -42q-22 16 -54 16q-92 0 -115 -142l-26 -165h110l-6 -41h-111z" />
    <glyph glyph-name="ffl" unicode="&#xfb04;" horiz-adv-x="785" 
d="M648 0h-44l130 820h44zM101 0h-44l68 429h-76l6 41h77l16 103q16 100 62 149q46 47 111 47q48 0 69 -18l-28 -42q-19 16 -53 16q-46 0 -75.5 -38t-40.5 -104l-18 -113h107l-6 -41h-107zM383 0h-44l68 429h-72l6 41h73l22 140q16 101 61 149q46 47 112 47q50 0 68 -18
l-27 -42q-19 16 -53 16q-47 0 -76 -37.5t-40 -104.5l-24 -150h107l-6 -41h-107z" />
    <glyph glyph-name="IJ.semp" horiz-adv-x="699" 
d="M108 0h-48l120 757h48zM535 208l80 505h-168l7 43h215l-88 -557q-17 -110 -73 -160.5t-135 -50.5q-59 0 -122 38l25 40q54 -35 105 -35q61 0 100.5 46t53.5 131z" />
    <glyph glyph-name="Amacron.semp" horiz-adv-x="643" 
d="M582 882h-334l6 41h334zM596 0h-51l-42 170h-402l-94 -170h-50l440 778zM493 214l-112 461l-255 -461h367z" />
    <glyph glyph-name="Abreve.semp" horiz-adv-x="643" 
d="M545 1015h44q-13 -59 -60.5 -105.5t-121.5 -46.5q-59 0 -94.5 40t-29.5 112h45q-4 -7 -1 -25.5t7.5 -38t25 -34.5t52.5 -15q31 0 55.5 11.5t38 25t23.5 33t12 27.5zM596 0h-51l-42 170h-402l-94 -170h-50l440 778zM493 214l-112 461l-255 -461h367z" />
    <glyph glyph-name="Aogonek.semp" horiz-adv-x="642" 
d="M591 -171l-6 -39q-29 -15 -69 -15q-38 0 -65.5 24t-27.5 63q0 41 34 80t88 59l-42 169h-402l-94 -170h-50l440 778l201 -785q-50 -11 -91.5 -44t-41.5 -77q0 -26 18.5 -41.5t46.5 -15.5q24 0 61 14zM493 214l-112 461l-255 -461h367z" />
    <glyph glyph-name="Atilde.semp" horiz-adv-x="643" 
d="M567 923l13 -30q-16 -18 -49.5 -39.5t-60.5 -21.5q-18 0 -54 25t-58 25q-30 0 -88 -46l-15 27q21 21 55 41.5t59 20.5q23 0 58.5 -25.5t51.5 -25.5q39 0 88 49zM596 0h-51l-42 170h-402l-94 -170h-50l440 778zM493 214l-112 461l-255 -461h367z" />
    <glyph glyph-name="Aring.semp" horiz-adv-x="643" 
d="M519 914q0 -47 -35.5 -82t-82.5 -35q-36 0 -60 25.5t-24 63.5q0 48 36 83t81 35q37 0 61 -26.5t24 -63.5zM408 831q30 0 54 24.5t24 55.5q0 26 -15.5 43t-40.5 17q-30 0 -53.5 -23.5t-23.5 -55.5q0 -25 15.5 -43t39.5 -18zM596 0h-51l-42 170h-402l-94 -170h-50l440 778z
M493 214l-112 461l-255 -461h367z" />
    <glyph glyph-name="Agrave.semp" horiz-adv-x="643" 
d="M500 842l-221 43l31 49l208 -61zM596 0h-51l-42 170h-402l-94 -170h-50l440 778zM493 214l-112 461l-255 -461h367z" />
    <glyph glyph-name="Adieresis.semp" horiz-adv-x="643" 
d="M327 891q0 -17 -13.5 -29.5t-31.5 -12.5q-13 0 -22 9.5t-9 22.5q0 18 13.5 31t30.5 13q13 0 22.5 -10t9.5 -24zM578 892q0 -17 -13 -30t-32 -13q-14 0 -22 9t-8 23q0 18 13 31t30 13q15 0 23.5 -9t8.5 -24zM596 0h-51l-42 170h-402l-94 -170h-50l440 778zM493 214
l-112 461l-255 -461h367z" />
    <glyph glyph-name="Acircumflex.semp" horiz-adv-x="643" 
d="M569 840l-23 -22l-133 62l-157 -69l-11 23l177 98h7zM596 0h-51l-42 170h-402l-94 -170h-50l440 778zM493 214l-112 461l-255 -461h367z" />
    <glyph glyph-name="Aacute.semp" horiz-adv-x="643" 
d="M534 885l-236 -43l-7 31l228 61zM596 0h-51l-42 170h-402l-94 -170h-50l440 778zM493 214l-112 461l-255 -461h367z" />
    <glyph glyph-name="J.semp2" horiz-adv-x="424" 
d="M259 208l87 549h48l-88 -558q-17 -110 -73.5 -160.5t-135.5 -50.5q-52 0 -103 30l24 40q41 -27 87 -27q61 0 101 47.5t53 129.5z" />
    <glyph glyph-name="J.semp" horiz-adv-x="435" 
d="M271 208l80 505h-168l7 43h215l-88 -557q-17 -110 -73 -160.5t-135 -50.5q-59 0 -121 38l24 40q54 -35 105 -35q61 0 100.5 46t53.5 131z" />
    <glyph glyph-name="J.alt" horiz-adv-x="264" 
d="M-114 -281l-3 46q93 35 128 90.5t56 192.5l112 709h49l-114 -718q-24 -153 -71 -214.5t-157 -105.5z" />
    <glyph glyph-name="A.semp" horiz-adv-x="643" 
d="M596 0h-51l-42 170h-402l-94 -170h-50l440 778zM493 214l-112 461l-255 -461h367z" />
    <glyph glyph-name="i.sc" horiz-adv-x="234" 
d="M92 0h-46l83 524h46z" />
    <glyph glyph-name="dotlessj.semp" horiz-adv-x="213" 
d="M40 -254l-45 -10l116 735h44z" />
    <glyph glyph-name="jcircumflex.semp" horiz-adv-x="213" 
d="M40 -254l-45 -10l116 735h44zM278 608l-29 -22l-82 102l-114 -102l-23 22l145 133h1z" />
    <glyph glyph-name="uni1E1F.semp" horiz-adv-x="281" 
d="M321 910q0 -17 -13.5 -30t-30.5 -13q-14 0 -22.5 9t-8.5 23q0 18 13 31t30 13q13 0 22.5 -9.5t9.5 -23.5zM38 -244h-43l136 863q16 100 62 149q46 47 111 47q48 0 69 -18l-28 -42q-19 16 -53 16q-46 0 -75.5 -38t-40.5 -104l-25 -159h135l-6 -41h-135z" />
    <glyph glyph-name="uni1E1F.semp2" horiz-adv-x="280" 
d="M320 910q0 -17 -13.5 -30t-30.5 -13q-13 0 -22 9t-9 23q0 18 13 31t30 13q13 0 22.5 -9.5t9.5 -23.5zM76 0h-44l98 619q16 100 62 149q46 47 111 47q48 0 69 -18l-27 -42q-22 16 -54 16q-46 0 -75 -37.5t-40 -104.5l-25 -159h134l-6 -41h-135z" />
    <glyph glyph-name="Jcircumflex.alt" horiz-adv-x="264" 
d="M-114 -281l-3 46q93 35 128 90.5t56 192.5l112 709h49l-114 -718q-24 -153 -71 -214.5t-157 -105.5zM354 811l-131 69l-157 -69l-13 23l178 98h1l144 -99z" />
    <glyph glyph-name="Jcircumflex.semp" horiz-adv-x="435" 
d="M271 208l80 505h-168l7 43h215l-88 -557q-18 -110 -73.5 -160.5t-134.5 -50.5q-59 0 -121 38l24 40q54 -35 105 -35q61 0 100.5 46t53.5 131zM486 833l-24 -22l-130 69l-157 -69l-12 23l177 98h1z" />
    <glyph glyph-name="Jcircumflex.semp2" horiz-adv-x="424" 
d="M259 208l87 549h48l-88 -558q-17 -110 -73.5 -160.5t-135.5 -50.5q-52 0 -103 30l24 40q41 -27 87 -27q61 0 101 47.5t53 129.5zM544 833l-23 -22l-131 69l-156 -69l-13 23l177 98h1z" />
    <glyph glyph-name="Ygrave.alt" horiz-adv-x="508" 
d="M436 842l-221 43l30 49l208 -61zM227 0h-48l52 328l-161 429h56l135 -363q3 -9 3 -15q1 6 7 15l253 363h55l-300 -429z" />
    <glyph glyph-name="Yacute.alt" horiz-adv-x="508" 
d="M465 885l-235 -43l-7 31l227 61zM227 0h-48l52 328l-161 429h56l135 -363q3 -9 3 -15q1 6 7 15l253 363h55l-300 -429z" />
    <glyph glyph-name="IJ.alt" horiz-adv-x="528" 
d="M108 0h-48l120 757h48zM149 -281l-3 46q93 35 128 90.5t57 192.5l112 709h49l-114 -718q-13 -80 -30 -131.5t-46 -87.5t-62.5 -57t-90.5 -44z" />
    <glyph glyph-name="IJ.semp2" horiz-adv-x="688" 
d="M108 0h-48l120 757h48zM523 208l87 549h48l-88 -558q-17 -110 -73.5 -160.5t-135.5 -50.5q-51 0 -104 30l25 40q41 -27 87 -27q61 0 101 47.5t53 129.5z" />
    <glyph glyph-name="a.alt" horiz-adv-x="548" 
d="M422 -1h-44l14 90q-30 -43 -77 -71.5t-101 -28.5q-73 0 -125.5 54.5t-52.5 149.5q0 71 25 128t66.5 91.5t91.5 52.5t104 18t97.5 -20t67.5 -45zM401 144l40 255q-55 43 -127 43q-91 0 -161 -64t-70 -174q0 -75 40 -124.5t103 -49.5q53 0 98.5 33t76.5 81z" />
    <glyph glyph-name="f.semp2" horiz-adv-x="280" 
d="M76 0h-44l98 619q16 100 62 149q46 47 111 47q48 0 69 -18l-27 -42q-22 16 -54 16q-46 0 -75 -37.5t-40 -104.5l-25 -159h134l-6 -41h-135z" />
    <glyph glyph-name="f.alt" horiz-adv-x="282" 
d="M62 -244h-44l107 673h-76l6 41h76l24 149q16 100 62 149q45 47 111 47q48 0 69 -18l-27 -42q-22 16 -54 16q-46 0 -75 -37.5t-40 -104.5l-25 -159h111l-6 -41h-112z" />
    <glyph glyph-name="f.semp" horiz-adv-x="281" 
d="M38 -244h-43l136 863q16 100 62 149q46 47 111 47q48 0 69 -18l-28 -42q-19 16 -53 16q-46 0 -75.5 -38t-40.5 -104l-25 -159h135l-6 -41h-135z" />
    <glyph glyph-name="j.semp" horiz-adv-x="213" 
d="M40 -254l-45 -10l116 735h44zM195 616q0 -18 -13.5 -31.5t-32.5 -13.5q-14 0 -23.5 10t-9.5 24q0 19 14 32.5t32 13.5q15 0 24 -9.5t9 -25.5z" />
    <glyph glyph-name="m.alt" horiz-adv-x="786" 
d="M662 0h-44l46 293q12 77 -8.5 113t-86.5 36q-38 0 -80.5 -15.5t-71.5 -36.5q6 -38 -1 -87l-48 -303h-44l46 293q12 77 -9 113t-87 36q-38 0 -76 -13t-62 -30l-63 -399h-44l66 418q87 65 184 65q92 0 122 -57q85 57 173 57q164 0 136 -180z" />
    <glyph glyph-name="n.alt" horiz-adv-x="522" 
d="M398 0h-44l46 293q24 149 -117 149q-87 0 -147 -43l-63 -399h-44l66 418q87 65 193 65q85 0 128.5 -46.5t29.5 -133.5z" />
    <glyph glyph-name="longs.semp" horiz-adv-x="229" 
d="M62 -244h-44l107 673h-76l6 41h76l24 149q16 100 62 149q46 47 111 47q48 0 69 -18l-28 -42q-19 16 -53 16q-46 0 -75.5 -38t-40.5 -104z" />
    <glyph glyph-name="t.alt" horiz-adv-x="277" 
d="M204 31l-35 -39q-57 0 -82.5 31t-12.5 111l47 295h-83l6 41h83l28 171h44l-28 -171h108l-6 -41h-108l-45 -286q-4 -26 -4.5 -45t4.5 -31.5t11 -19.5t18.5 -10.5t24 -4.5t30.5 -1z" />
    <glyph glyph-name="t.alt2" horiz-adv-x="290" 
d="M120 0h-44l68 429h-109l6 41h109l28 171h44l-28 -171h108l-6 -41h-108z" />
    <glyph glyph-name="t.semp" horiz-adv-x="277" 
d="M77 0h-44l104 659h44l-30 -189h138l-6 -41h-138z" />
    <glyph glyph-name="aacute.alt" horiz-adv-x="548" 
d="M438 721l-155 -138l-18 17l138 154zM422 -1h-44l14 90q-30 -43 -77 -71.5t-101 -28.5q-73 0 -125.5 54.5t-52.5 149.5q0 71 25 128t66.5 91.5t91.5 52.5t104 18t97.5 -20t67.5 -45zM401 144l40 255q-55 43 -127 43q-91 0 -161 -64t-70 -174q0 -75 40 -124.5t103 -49.5
q53 0 98.5 33t76.5 81z" />
    <glyph glyph-name="acircumflex.alt" horiz-adv-x="548" 
d="M457 608l-28 -22l-100 102l-132 -102l-23 22l163 133h1zM422 -1h-44l14 90q-30 -43 -77 -71.5t-101 -28.5q-73 0 -125.5 54.5t-52.5 149.5q0 71 25 128t66.5 91.5t91.5 52.5t104 18t97.5 -20t67.5 -45zM401 144l40 255q-55 43 -127 43q-91 0 -161 -64t-70 -174
q0 -75 40 -124.5t103 -49.5q53 0 98.5 33t76.5 81z" />
    <glyph glyph-name="adieresis.alt" horiz-adv-x="548" 
d="M252 635q0 -17 -13.5 -29.5t-30.5 -12.5q-13 0 -22.5 9.5t-9.5 22.5q0 18 13.5 31t30.5 13q14 0 23 -10t9 -24zM460 636q0 -18 -12 -30.5t-32 -12.5q-13 0 -21.5 9t-8.5 23q0 18 12.5 31t29.5 13q32 0 32 -33zM422 -1h-44l14 90q-30 -43 -77 -71.5t-101 -28.5
q-73 0 -125.5 54.5t-52.5 149.5q0 71 25 128t66.5 91.5t91.5 52.5t104 18t97.5 -20t67.5 -45zM401 144l40 255q-55 43 -127 43q-91 0 -161 -64t-70 -174q0 -75 40 -124.5t103 -49.5q53 0 98.5 33t76.5 81z" />
    <glyph glyph-name="agrave.alt" horiz-adv-x="548" 
d="M375 600l-25 -17l-111 138l46 33zM422 -1h-44l14 90q-30 -43 -77 -71.5t-101 -28.5q-73 0 -125.5 54.5t-52.5 149.5q0 71 25 128t66.5 91.5t91.5 52.5t104 18t97.5 -20t67.5 -45zM401 144l40 255q-55 43 -127 43q-91 0 -161 -64t-70 -174q0 -75 40 -124.5t103 -49.5
q53 0 98.5 33t76.5 81z" />
    <glyph glyph-name="aring.alt" horiz-adv-x="548" 
d="M427 709q0 -47 -35 -82t-82 -35q-37 0 -60.5 25.5t-23.5 63.5q0 48 36 83t81 35q37 0 60.5 -26t23.5 -64zM316 626q31 0 54.5 24t23.5 56q0 26 -15.5 43t-40.5 17q-30 0 -53.5 -23.5t-23.5 -55.5q0 -25 15.5 -43t39.5 -18zM422 -1h-44l14 90q-30 -43 -77 -71.5
t-101 -28.5q-73 0 -125.5 54.5t-52.5 149.5q0 71 25 128t66.5 91.5t91.5 52.5t104 18t97.5 -20t67.5 -45zM401 144l40 255q-55 43 -127 43q-91 0 -161 -64t-70 -174q0 -75 40 -124.5t103 -49.5q53 0 98.5 33t76.5 81z" />
    <glyph glyph-name="atilde.alt" horiz-adv-x="548" 
d="M453 665l13 -27q-17 -18 -45 -35.5t-56 -17.5q-17 0 -50.5 23.5t-54.5 23.5q-27 0 -82 -43l-14 24q18 19 50 38.5t56 19.5q21 0 55 -24t49 -24q34 0 79 42zM422 -1h-44l14 90q-30 -43 -77 -71.5t-101 -28.5q-73 0 -125.5 54.5t-52.5 149.5q0 71 25 128t66.5 91.5
t91.5 52.5t104 18t97.5 -20t67.5 -45zM401 144l40 255q-55 43 -127 43q-91 0 -161 -64t-70 -174q0 -75 40 -124.5t103 -49.5q53 0 98.5 33t76.5 81z" />
    <glyph glyph-name="aogonek.alt" horiz-adv-x="548" 
d="M422 -171l-6 -39q-29 -15 -67 -15q-39 0 -67.5 20t-28.5 57q0 89 125 149l14 88q-30 -43 -77 -71.5t-101 -28.5q-73 0 -125.5 54.5t-52.5 149.5q0 71 25 128t66.5 91.5t91.5 52.5t104 18t97.5 -20t67.5 -45l-67 -422q-124 -51 -124 -126q0 -26 17.5 -40.5t46.5 -14.5
q26 0 61 14zM401 144l40 255q-55 43 -127 43q-91 0 -161 -64t-70 -174q0 -75 40 -124.5t103 -49.5q53 0 98.5 33t76.5 81z" />
    <glyph glyph-name="abreve.alt" horiz-adv-x="548" 
d="M434 729h43q-11 -58 -59.5 -105t-122.5 -47q-58 0 -93.5 40t-29.5 112h45q-3 -7 -0.5 -25.5t7 -38t25 -34.5t52.5 -15q31 0 56 11t38.5 26t23 32.5t12 28t3.5 15.5zM422 -1h-44l14 90q-30 -43 -77 -71.5t-101 -28.5q-73 0 -125.5 54.5t-52.5 149.5q0 71 25 128t66.5 91.5
t91.5 52.5t104 18t97.5 -20t67.5 -45zM401 144l40 255q-55 43 -127 43q-91 0 -161 -64t-70 -174q0 -75 40 -124.5t103 -49.5q53 0 98.5 33t76.5 81z" />
    <glyph glyph-name="amacron.alt" horiz-adv-x="548" 
d="M479 596h-333l7 41h333zM422 -1h-44l14 90q-30 -43 -77 -71.5t-101 -28.5q-73 0 -125.5 54.5t-52.5 149.5q0 71 25 128t66.5 91.5t91.5 52.5t104 18t97.5 -20t67.5 -45zM401 144l40 255q-55 43 -127 43q-91 0 -161 -64t-70 -174q0 -75 40 -124.5t103 -49.5q53 0 98.5 33
t76.5 81z" />
    <glyph glyph-name="tcommaaccent.semp" horiz-adv-x="276" 
d="M3 -232h-50l101 178h56zM77 0h-44l104 659h44l-30 -189h138l-6 -41h-138z" />
    <glyph glyph-name="tcommaaccent.alt2" horiz-adv-x="288" 
d="M45 -232h-50l101 178h56zM119 0h-44l68 429h-109l6 41h109l27 171h44l-27 -171h108l-6 -41h-108z" />
    <glyph glyph-name="tcommaaccent.alt" horiz-adv-x="277" 
d="M41 -232h-49l101 178h55zM204 31l-36 -39q-57 0 -82 31t-12 111l47 295h-83l6 41h83l27 171h44l-27 -171h108l-6 -41h-108l-45 -286q-4 -26 -4.5 -45t4.5 -31.5t11 -19.5t18.5 -10.5t24 -4.5t30.5 -1z" />
    <glyph glyph-name="tcaron.semp" horiz-adv-x="277" 
d="M292 575h-42l90 182h50zM77 0h-44l104 659h44l-30 -189h138l-6 -41h-138z" />
    <glyph glyph-name="tcaron.alt2" horiz-adv-x="290" 
d="M315 575h-41l89 182h51zM120 0h-44l68 429h-109l6 41h109l28 171h44l-28 -171h108l-6 -41h-108z" />
    <glyph glyph-name="tcaron.alt" horiz-adv-x="277" 
d="M292 575h-41l89 182h51zM204 31l-35 -39q-57 0 -82.5 31t-12.5 111l47 295h-83l6 41h83l28 171h44l-28 -171h108l-6 -41h-108l-45 -286q-4 -26 -4.5 -45t4.5 -31.5t11 -19.5t18.5 -10.5t24 -4.5t30.5 -1z" />
    <glyph glyph-name="napostrophe.alt" horiz-adv-x="643" 
d="M106 471h-43l91 182h52zM519 0h-43l46 293q24 149 -118 149q-84 0 -146 -43l-64 -399h-44l67 418q85 65 194 65q84 0 127 -46.5t29 -133.5z" />
    <glyph glyph-name="ntilde.alt" horiz-adv-x="522" 
d="M443 665l13 -27q-15 -17 -44 -35t-56 -18q-18 0 -51 23.5t-54 23.5q-25 0 -83 -43l-14 24q20 20 51 39t55 19q21 0 55 -24t50 -24q36 0 78 42zM398 0h-44l46 293q24 149 -117 149q-87 0 -147 -43l-63 -399h-44l66 418q87 65 193 65q85 0 128.5 -46.5t29.5 -133.5z" />
    <glyph glyph-name="ncommaaccent.alt" 
d="M158 -232h-51l102 178h56zM399 0h-44l46 293q24 149 -117 149q-87 0 -147 -43l-63 -399h-44l66 418q87 65 193 65q85 0 128.5 -46.5t29.5 -133.5z" />
    <glyph glyph-name="ncaron.alt" horiz-adv-x="522" 
d="M460 709l-161 -133h-1l-121 133l30 22l100 -102l132 102zM398 0h-44l46 293q24 149 -117 149q-87 0 -147 -43l-63 -399h-44l66 418q87 65 193 65q85 0 128.5 -46.5t29.5 -133.5z" />
    <glyph glyph-name="nacute.alt" horiz-adv-x="522" 
d="M422 721l-156 -138l-18 17l138 154zM398 0h-44l46 293q24 149 -117 149q-87 0 -147 -43l-63 -399h-44l66 418q87 65 193 65q85 0 128.5 -46.5t29.5 -133.5z" />
    <glyph glyph-name="uni1E41.alt" horiz-adv-x="786" 
d="M482 635q0 -17 -13.5 -29.5t-30.5 -12.5q-13 0 -22 9.5t-9 22.5q0 18 13 31t30 13q14 0 23 -10t9 -24zM662 0h-44l46 293q12 77 -8.5 113t-86.5 36q-38 0 -80.5 -15.5t-71.5 -36.5q6 -38 -1 -87l-48 -303h-44l46 293q12 77 -9 113t-87 36q-38 0 -76 -13t-62 -30l-63 -399
h-44l66 418q87 65 184 65q92 0 122 -57q85 57 173 57q164 0 136 -180z" />
    <glyph glyph-name="ncaron.sc" horiz-adv-x="643" 
d="M533 739l-163 -133l-121 133l31 22l99 -102l133 102zM499 -18l-341 445l-66 -427h-46l85 539l342 -446l66 431h46z" />
    <glyph glyph-name="nacute.sc" horiz-adv-x="643" 
d="M489 741l-155 -138l-19 17l139 154zM499 -18l-341 445l-66 -427h-46l85 539l342 -446l66 431h46z" />
    <glyph glyph-name="uni1E41.sc" horiz-adv-x="723" 
d="M443 585q0 -16 -13.5 -29t-30.5 -13q-13 0 -22 10t-9 23q0 17 13 30t30 13q14 0 23 -10t9 -24zM607 0h-46l23 373l3 21q-2 -3 -5.5 -9t-5.5 -9l-266 -395l-141 395q-1 3 -2.5 9t-2.5 9l-3 -21l-95 -373h-47l142 538l143 -392q8 -22 22 -66l42 66l267 392z" />
    <glyph glyph-name="ldot.sc" horiz-adv-x="417" 
d="M310 232q-16 0 -26 11t-10 27q0 21 15 35.5t35 14.5q16 0 25.5 -10.5t9.5 -27.5q0 -20 -14.5 -35t-34.5 -15zM321 1h-275l83 523h46l-77 -484q38 0 114.5 0.5t114.5 0.5z" />
    <glyph glyph-name="lcommaaccent.sc" horiz-adv-x="395" 
d="M113 -232h-50l102 178h55zM321 1h-275l83 523h46l-77 -484q38 0 114.5 0.5t114.5 0.5z" />
    <glyph glyph-name="lcaron.sc" horiz-adv-x="404" 
d="M313 350h-45l97 200h56zM321 1h-275l83 523h46l-77 -484l229 1z" />
    <glyph glyph-name="lacute.sc" horiz-adv-x="393" 
d="M315 741l-155 -138l-18 17l138 154zM320 1h-274l83 523h46l-77 -484q38 0 114 0.5t114 0.5z" />
    <glyph glyph-name="lslash.sc" horiz-adv-x="395" 
d="M324 1h-276l26 163l-63 -35l7 44l63 36l50 315h46l-46 -287l122 68l-7 -44l-122 -68l-24 -153l230 1z" />
    <glyph glyph-name="kcommaaccent.sc" horiz-adv-x="488" 
d="M149 -232h-50l102 178h56zM435 0h-66l-239 240l-38 -240h-46l83 524h46l-38 -240l275 240h69l-313 -262z" />
    <glyph glyph-name="jcircumflex.sc.semp" horiz-adv-x="338" 
d="M370 628l-29 -22l-100 102l-132 -102l-22 22l164 133zM201 199l45 285h-139l6 39h186l-54 -339q-18 -112 -58.5 -154t-117.5 -42q-56 0 -101 38l24 36q37 -35 83 -35q58 0 84.5 40.5t41.5 131.5z" />
    <glyph glyph-name="jcircumflex.sc" horiz-adv-x="232" 
d="M-73 -181l-11 40q69 26 96 62t42 131l75 472h44l-75 -476q-17 -107 -51.5 -151.5t-119.5 -77.5zM309 628l-30 -22l-99 102l-134 -102l-21 22l164 133z" />
    <glyph glyph-name="itilde.sc" horiz-adv-x="233" 
d="M91 0h-45l83 524h45zM309 685l13 -27q-17 -18 -45 -35.5t-55 -17.5q-18 0 -52 23.5t-54 23.5q-27 0 -82 -43l-14 23q18 19 50 39t56 20q22 0 55.5 -24t48.5 -24q34 0 79 42z" />
    <glyph glyph-name="ibreve.sc" horiz-adv-x="233" 
d="M91 0h-45l83 524h45zM296 749h42q-13 -59 -60 -105.5t-119 -46.5q-58 0 -93 40t-29 112h44q-4 -7 -1.5 -25.5t7.5 -38t25 -34.5t52 -15q37 0 64.5 15t41.5 39t19 36.5t7 22.5z" />
    <glyph glyph-name="iogonek.sc" horiz-adv-x="234" 
d="M93 -171l-6 -39q-29 -15 -67 -15q-39 0 -67 20t-28 57q0 84 121 148l83 524h46l-83 -524q-51 -22 -87 -55.5t-36 -74.5q0 -26 17.5 -40.5t46.5 -14.5q22 0 60 14z" />
    <glyph glyph-name="imacron.sc" horiz-adv-x="233" 
d="M91 0h-45l83 524h45zM303 616h-274l6 41h274z" />
    <glyph glyph-name="ncommaaccent.sc" horiz-adv-x="643" 
d="M212 -232h-50l102 178h56zM499 -18l-341 445l-66 -427h-46l85 539l342 -446l66 431h46z" />
    <glyph glyph-name="ntilde.sc" horiz-adv-x="643" 
d="M510 685l13 -27q-17 -18 -45 -35.5t-56 -17.5q-17 0 -50.5 23.5t-54.5 23.5q-27 0 -82 -43l-14 24q18 19 50 38.5t56 19.5q21 0 55 -24t49 -24q37 0 79 42zM499 -18l-341 445l-66 -427h-46l85 539l342 -446l66 431h46z" />
    <glyph glyph-name="napostrophe.sc" horiz-adv-x="683" 
d="M38 493h-50l101 178h56zM539 -18l-341 445l-66 -427h-46l85 539l342 -446l66 431h46z" />
    <glyph glyph-name="oacute.sc" horiz-adv-x="658" 
d="M501 741l-156 -138l-19 17l139 154zM597 300q0 -129 -93.5 -219t-220.5 -90q-106 0 -170 66.5t-64 170.5q0 128 93.5 217t221.5 89q107 0 170 -65t63 -169zM289 32q106 0 183 77t77 186q0 87 -52.5 142t-140.5 55q-106 0 -182 -76t-76 -183q0 -86 51 -143.5t140 -57.5z
" />
    <glyph glyph-name="ocircumflex.sc" horiz-adv-x="658" 
d="M523 628l-30 -22l-100 102l-132 -102l-21 22l163 133zM597 300q0 -129 -93.5 -219t-220.5 -90q-106 0 -170 66.5t-64 170.5q0 128 93.5 217t221.5 89q107 0 170 -65t63 -169zM289 32q106 0 183 77t77 186q0 87 -52.5 142t-140.5 55q-106 0 -182 -76t-76 -183
q0 -86 51 -143.5t140 -57.5z" />
    <glyph glyph-name="odieresis.sc" horiz-adv-x="658" 
d="M302 645q0 -17 -13.5 -29.5t-30.5 -12.5q-13 0 -22 9.5t-9 22.5q0 18 13 31t30 13q14 0 23 -10t9 -24zM510 646q0 -18 -12.5 -30.5t-31.5 -12.5q-13 0 -21.5 9t-8.5 23q0 18 12.5 31t29.5 13q32 0 32 -33zM597 300q0 -129 -93.5 -219t-220.5 -90q-106 0 -170 66.5
t-64 170.5q0 128 93.5 217t221.5 89q107 0 170 -65t63 -169zM289 32q106 0 183 77t77 186q0 87 -52.5 142t-140.5 55q-106 0 -182 -76t-76 -183q0 -86 51 -143.5t140 -57.5z" />
    <glyph glyph-name="ograve.sc" horiz-adv-x="658" 
d="M442 620l-24 -17l-110 138l45 33zM597 300q0 -129 -93.5 -219t-220.5 -90q-106 0 -170 66.5t-64 170.5q0 128 93.5 217t221.5 89q107 0 170 -65t63 -169zM289 32q106 0 183 77t77 186q0 87 -52.5 142t-140.5 55q-106 0 -182 -76t-76 -183q0 -86 51 -143.5t140 -57.5z" />
    <glyph glyph-name="ohungarumlaut.sc" horiz-adv-x="658" 
d="M425 712l-179 -108l-18 16l162 125zM576 712l-178 -108l-17 16l161 125zM597 300q0 -129 -93.5 -219t-220.5 -90q-106 0 -170 66.5t-64 170.5q0 128 93.5 217t221.5 89q107 0 170 -65t63 -169zM289 32q106 0 183 77t77 186q0 87 -52.5 142t-140.5 55q-106 0 -182 -76
t-76 -183q0 -86 51 -143.5t140 -57.5z" />
    <glyph glyph-name="omacron.sc" horiz-adv-x="658" 
d="M516 616h-274l6 41h274zM597 300q0 -129 -93.5 -219t-220.5 -90q-106 0 -170 66.5t-64 170.5q0 128 93.5 217t221.5 89q107 0 170 -65t63 -169zM289 32q106 0 183 77t77 186q0 87 -52.5 142t-140.5 55q-106 0 -182 -76t-76 -183q0 -86 51 -143.5t140 -57.5z" />
    <glyph glyph-name="otilde.sc" horiz-adv-x="658" 
d="M523 685l12 -27q-17 -18 -45 -35.5t-56 -17.5q-17 0 -50.5 23.5t-54.5 23.5q-29 0 -81 -43l-15 24q19 19 51 38.5t56 19.5q21 0 54.5 -24t48.5 -24q35 0 80 42zM597 300q0 -129 -93.5 -219t-220.5 -90q-106 0 -170 66.5t-64 170.5q0 128 93.5 217t221.5 89q107 0 170 -65
t63 -169zM289 32q106 0 183 77t77 186q0 87 -52.5 142t-140.5 55q-106 0 -182 -76t-76 -183q0 -86 51 -143.5t140 -57.5z" />
    <glyph glyph-name="idotaccent.sc" horiz-adv-x="234" 
d="M92 0h-46l83 524h46zM206 636q0 -17 -13 -30t-31 -13q-13 0 -22 9.5t-9 22.5q0 18 13.5 31t29.5 13q15 0 23.5 -9t8.5 -24z" />
    <glyph glyph-name="igrave.sc" horiz-adv-x="234" 
d="M92 0h-46l83 524h46zM204 600l-25 -17l-102 138l46 33z" />
    <glyph glyph-name="idieresis.sc" horiz-adv-x="234" 
d="M132 630q0 -17 -13.5 -29.5t-31.5 -12.5q-13 0 -21.5 9.5t-8.5 22.5q0 18 13 31t29 13q14 0 23.5 -10t9.5 -24zM288 631q0 -18 -13 -30.5t-32 -12.5q-14 0 -22 9t-8 23q0 18 12.5 31t29.5 13q15 0 24 -9t9 -24zM92 0h-46l83 524h46z" />
    <glyph glyph-name="icircumflex.sc" horiz-adv-x="234" 
d="M92 0h-46l83 524h46zM277 633l-23 -22l-77 72l-104 -79l-13 23l125 108h1z" />
    <glyph glyph-name="iacute.sc" horiz-adv-x="234" 
d="M92 0h-46l83 524h46zM286 721l-147 -138l-18 17l129 154z" />
    <glyph glyph-name="hbar.sc" horiz-adv-x="580" 
d="M439 0h-46l39 246h-299l-39 -246h-46l61 386h-59l7 41h59l15 97h46l-15 -97h299l15 97h46l-15 -97h54l-7 -41h-54zM439 288l15 98h-299l-15 -98h299z" />
    <glyph glyph-name="hcircumflex.sc" horiz-adv-x="579" 
d="M437 0h-46l39 246h-299l-39 -246h-46l83 524h46l-37 -236h299l37 236h46zM480 628l-29 -22l-101 102l-131 -102l-22 22l164 133z" />
    <glyph glyph-name="obreve.sc" horiz-adv-x="658" 
d="M508 749h42q-12 -58 -59.5 -105t-119.5 -47q-58 0 -93 40t-29 112h45q-4 -7 -1.5 -25.5t7 -38t24.5 -34.5t52 -15q37 0 64.5 15t41.5 39t19 36.5t7 22.5zM597 300q0 -129 -93.5 -219t-220.5 -90q-106 0 -170 66.5t-64 170.5q0 128 93.5 217t221.5 89q107 0 170 -65
t63 -169zM289 32q106 0 183 77t77 186q0 87 -52.5 142t-140.5 55q-106 0 -182 -76t-76 -183q0 -86 51 -143.5t140 -57.5z" />
    <glyph glyph-name="oslash.sc" horiz-adv-x="658" 
d="M139 -101l-32 14l60 103q-56 29 -87 85t-31 127q0 128 93.5 217t221.5 89q49 0 92 -16l58 100l34 -15l-58 -101q51 -29 79 -82t28 -120q0 -129 -93.5 -219t-220.5 -90q-44 0 -83 11zM190 56l243 422q-36 14 -77 14q-106 0 -182 -76t-76 -183q0 -58 23.5 -104.5
t68.5 -72.5zM466 462l-243 -420q29 -10 66 -10q106 0 183 77t77 186q0 114 -83 167z" />
    <glyph glyph-name="oslashacute.sc" horiz-adv-x="658" 
d="M500 741l-156 -138l-20 17l140 154zM139 -101l-32 14l60 103q-56 29 -87 85t-31 127q0 128 93.5 217t221.5 89q49 0 92 -16l58 100l34 -15l-58 -101q51 -29 79 -82t28 -120q0 -129 -93.5 -219t-220.5 -90q-44 0 -83 11zM190 56l243 422q-36 14 -77 14q-106 0 -182 -76
t-76 -183q0 -58 23.5 -104.5t68.5 -72.5zM466 462l-243 -420q29 -10 66 -10q106 0 183 77t77 186q0 114 -83 167z" />
    <glyph glyph-name="uni1E57.sc" horiz-adv-x="434" 
d="M309 646q0 -17 -13 -30t-31 -13q-13 0 -22 9.5t-9 22.5q0 18 13.5 31t29.5 13q14 0 23 -9.5t9 -23.5zM92 0h-46l83 524h105q72 0 119.5 -31.5t47.5 -100.5q0 -77 -60.5 -129.5t-163.5 -52.5h-52zM131 248l47 1q80 2 128 39t48 98q0 49 -31 74t-84 25h-70z" />
    <glyph glyph-name="racute.sc" horiz-adv-x="466" 
d="M396 741l-154 -138l-18 17l138 154zM410 0h-65l-195 210h-25l-33 -210h-46l83 524h109q68 0 115.5 -31t47.5 -98q0 -75 -54.5 -126t-144.5 -58zM131 249h38q88 0 136.5 37.5t48.5 103.5q0 46 -32 70.5t-85 24.5h-68z" />
    <glyph glyph-name="rcaron.sc" horiz-adv-x="466" 
d="M435 739l-164 -133l-120 133l30 22l99 -102l133 102zM410 0h-65l-195 210h-25l-33 -210h-46l83 524h109q68 0 115.5 -31t47.5 -98q0 -75 -54.5 -126t-144.5 -58zM131 249h38q88 0 136.5 37.5t48.5 103.5q0 46 -32 70.5t-85 24.5h-68z" />
    <glyph glyph-name="rcommaaccent.sc" horiz-adv-x="465" 
d="M135 -232h-51l102 178h56zM410 0h-65l-195 210h-25l-33 -210h-46l83 524h109q68 0 115.5 -31t47.5 -98q0 -75 -54.5 -126t-144.5 -58zM131 249h38q88 0 136.5 37.5t48.5 103.5q0 46 -32 70.5t-85 24.5h-68z" />
    <glyph glyph-name="uni1E61.sc" horiz-adv-x="426" 
d="M303 646q0 -17 -13 -30t-31 -13q-13 0 -22 9.5t-9 22.5q0 18 13.5 31t29.5 13q15 0 23.5 -9t8.5 -24zM6 61l34 32q15 -24 47 -42.5t76 -18.5q57 0 96 31.5t39 84.5q0 37 -21.5 62t-52 40t-61.5 31t-52.5 43.5t-21.5 67.5q0 67 51.5 105t119.5 38q83 0 123 -52l-30 -32
q-37 43 -97 43q-47 0 -82 -26t-35 -68q0 -31 21.5 -53.5t52.5 -37.5t61.5 -31.5t52 -47t21.5 -72.5q0 -71 -53 -119t-134 -48q-56 0 -98 22t-57 48z" />
    <glyph glyph-name="scaron.sc" horiz-adv-x="426" 
d="M415 709l-162 -133h-1l-121 133l29 22l100 -102l132 102zM6 61l34 32q15 -24 47 -42.5t76 -18.5q57 0 96 31.5t39 84.5q0 37 -21.5 62t-52 40t-61.5 31t-52.5 43.5t-21.5 67.5q0 67 51.5 105t119.5 38q83 0 123 -52l-30 -32q-37 43 -97 43q-47 0 -82 -26t-35 -68
q0 -31 21.5 -53.5t52.5 -37.5t61.5 -31.5t52 -47t21.5 -72.5q0 -71 -53 -119t-134 -48q-56 0 -98 22t-57 48z" />
    <glyph glyph-name="sacute.sc" horiz-adv-x="426" 
d="M380 741l-155 -138l-18 17l138 154zM6 61l34 32q15 -24 47 -42.5t76 -18.5q57 0 96 31.5t39 84.5q0 37 -21.5 62t-52 40t-61.5 31t-52.5 43.5t-21.5 67.5q0 67 51.5 105t119.5 38q83 0 123 -52l-30 -32q-37 43 -97 43q-47 0 -82 -26t-35 -68q0 -31 21.5 -53.5t52.5 -37.5
t61.5 -31.5t52 -47t21.5 -72.5q0 -71 -53 -119t-134 -48q-56 0 -98 22t-57 48z" />
    <glyph glyph-name="scedilla.sc" horiz-adv-x="426" 
d="M107 -206h-42l91 157h50zM6 61l34 32q15 -24 47 -42.5t76 -18.5q57 0 96 31.5t39 84.5q0 37 -21.5 62t-52 40t-61.5 31t-52.5 43.5t-21.5 67.5q0 67 51.5 105t119.5 38q83 0 123 -52l-30 -32q-37 43 -97 43q-47 0 -82 -26t-35 -68q0 -31 21.5 -53.5t52.5 -37.5
t61.5 -31.5t52 -47t21.5 -72.5q0 -71 -53 -119t-134 -48q-56 0 -98 22t-57 48z" />
    <glyph glyph-name="tcaron.sc" horiz-adv-x="427" 
d="M424 739l-165 -133l-119 133l29 22l101 -102l132 102zM189 0h-46l76 484q-27 0 -81.5 -0.5t-81.5 -0.5l6 39h371l-6 -39q-27 0 -81 0.5t-81 0.5z" />
    <glyph glyph-name="tcommaaccent.sc" horiz-adv-x="429" 
d="M96 -232h-50l103 178h55zM190 0h-46l77 484l-164 -1l7 39h371l-7 -39l-161 1z" />
    <glyph glyph-name="uni1E6B.sc" horiz-adv-x="427" 
d="M304 645q0 -17 -13.5 -29.5t-31.5 -12.5q-13 0 -22 9.5t-9 22.5q0 18 13.5 31t29.5 13q14 0 23.5 -10t9.5 -24zM189 0h-46l76 484l-163 -1l6 39h371l-6 -39l-162 1z" />
    <glyph glyph-name="tbar.sc" horiz-adv-x="428" 
d="M190 0h-46l45 287l-112 -1l6 41l112 -1l25 158l-163 -1l6 39h371l-6 -39l-162 1l-25 -158l112 1l-6 -41l-112 1z" />
    <glyph glyph-name="uacute.sc" horiz-adv-x="571" 
d="M397 72l72 452h46l-74 -466q-69 -67 -207 -67q-93 0 -136 50t-27 148l53 335h46l-50 -316q-15 -97 15 -136.5t122 -39.5t140 40zM446 741l-155 -138l-18 17l138 154z" />
    <glyph glyph-name="ucircumflex.sc" horiz-adv-x="571" 
d="M397 72l72 452h46l-74 -466q-69 -67 -207 -67q-93 0 -136 50t-27 148l53 335h46l-50 -316q-15 -97 15 -136.5t122 -39.5t140 40zM479 628l-28 -22l-100 102l-132 -102l-23 22l165 133z" />
    <glyph glyph-name="udieresis.sc" horiz-adv-x="571" 
d="M397 72l72 452h46l-74 -466q-69 -67 -207 -67q-93 0 -136 50t-27 148l53 335h46l-50 -316q-15 -97 15 -136.5t122 -39.5t140 40zM265 645q0 -17 -13.5 -29.5t-31.5 -12.5q-13 0 -21.5 9.5t-8.5 22.5q0 18 13 31t30 13q13 0 22.5 -10t9.5 -24zM473 646q0 -18 -12.5 -30.5
t-32.5 -12.5q-13 0 -21 9t-8 23q0 18 12.5 31t29.5 13q32 0 32 -33z" />
    <glyph glyph-name="ugrave.sc" horiz-adv-x="571" 
d="M398 620l-25 -17l-111 138l47 33zM397 72l72 452h46l-74 -466q-69 -67 -207 -67q-93 0 -136 50t-27 148l53 335h46l-50 -316q-15 -97 15 -136.5t122 -39.5t140 40z" />
    <glyph glyph-name="uogonek.sc" horiz-adv-x="571" 
d="M353 -168l-6 -40q-28 -14 -66 -14q-41 0 -69.5 19.5t-28.5 56.5q0 79 109 141q-36 -4 -58 -4q-93 0 -136 50t-27 148l53 335h46l-50 -316q-15 -97 15 -136.5t122 -39.5q91 0 140 39l72 453h46l-74 -466q-37 -37 -101 -55q-45 -21 -79 -56t-34 -75q0 -26 18 -40.5
t46 -14.5q25 0 62 15z" />
    <glyph glyph-name="uhungarumlaut.sc" horiz-adv-x="571" 
d="M397 71l72 453h46l-74 -466q-69 -67 -207 -67q-93 0 -136 50t-27 148l53 335h46l-50 -316q-15 -97 15 -136.5t122 -39.5q91 0 140 39zM397 712l-179 -108l-17 16l161 125zM548 712l-177 -108l-18 16l161 125z" />
    <glyph glyph-name="umacron.sc" horiz-adv-x="571" 
d="M397 71l72 453h46l-74 -466q-69 -67 -207 -67q-93 0 -136 50t-27 148l53 335h46l-50 -316q-15 -97 15 -136.5t122 -39.5q91 0 140 39zM472 616h-275l6 41h275z" />
    <glyph glyph-name="uring.sc" horiz-adv-x="571" 
d="M397 71l72 453h46l-74 -466q-69 -67 -207 -67q-93 0 -136 50t-27 148l53 335h46l-50 -316q-15 -97 15 -136.5t122 -39.5q91 0 140 39zM331 596q-37 0 -60.5 25.5t-23.5 63.5q0 48 35.5 83t81.5 35q36 0 60 -26t24 -63q0 -48 -35.5 -83t-81.5 -35zM337 630q31 0 55 24
t24 56q0 26 -16 43t-41 17q-30 0 -53 -23.5t-23 -55.5q0 -25 15.5 -43t38.5 -18z" />
    <glyph glyph-name="utilde.sc" horiz-adv-x="571" 
d="M397 71l72 453h46l-74 -466q-69 -67 -207 -67q-93 0 -136 50t-27 148l53 335h46l-50 -316q-15 -97 15 -136.5t122 -39.5q91 0 140 39zM477 685l12 -27q-15 -17 -43 -35t-56 -18q-17 0 -50.5 23.5t-54.5 23.5q-30 0 -82 -43l-14 23q18 20 49.5 39.5t55.5 19.5q22 0 56 -24
t49 -24q40 0 78 42z" />
    <glyph glyph-name="ubreve.sc" horiz-adv-x="571" 
d="M397 71l72 453h46l-74 -466q-69 -67 -207 -67q-93 0 -136 50t-27 148l53 335h46l-50 -316q-15 -97 15 -136.5t122 -39.5q91 0 140 39zM465 749h42q-14 -59 -60.5 -105.5t-119.5 -46.5q-58 0 -93 40t-28 112h44q-4 -7 -1.5 -25.5t7 -38t24.5 -34.5t52 -15q37 0 65 15.5
t42 39t19 36t7 22.5z" />
    <glyph glyph-name="wcircumflex.sc" horiz-adv-x="748" 
d="M566 628l-29 -22l-100 102l-132 -102l-23 22l165 133zM492 -20l-102 434l-238 -433l-95 543h53l66 -403v-24q1 11 8 24l227 419l94 -419q1 -3 1 -8.5v-8.5l1 -3q3 11 7 20l190 403h52z" />
    <glyph glyph-name="eogonek.sc" horiz-adv-x="434" 
d="M305 -171l-7 -39q-27 -15 -66 -15q-40 0 -68 20t-28 56q0 87 125 150h-215l83 521h274l-7 -39l-228 1l-29 -184l184 1l-7 -40l-183 1l-35 -222l251 1l-6 -40h-52q-45 -20 -78 -55.5t-33 -75.5q0 -26 17.5 -40.5t45.5 -14.5q23 0 62 14z" />
    <glyph glyph-name="uni1E1F.sc" horiz-adv-x="402" 
d="M320 645q0 -17 -13.5 -29.5t-31.5 -12.5q-13 0 -22 9.5t-9 22.5q0 18 13.5 31t29.5 13q15 0 24 -9.5t9 -24.5zM92 0h-46l83 522h269l-7 -39q-37 0 -111 0.5t-111 0.5l-29 -184q30 0 90 0.5t89 0.5l-7 -41q-29 0 -89 0.5t-90 0.5z" />
    <glyph glyph-name="gcircumflex.sc" horiz-adv-x="629" 
d="M513 628l-30 -22l-100 102l-132 -102l-22 22l164 133zM518 206l-147 -1l6 40h196q-21 -124 -102 -189t-183 -65q-105 0 -172.5 67t-67.5 171q0 128 98 216.5t228 88.5q113 0 187 -74l-31 -33q-65 65 -162 65q-111 0 -191 -77t-80 -181q0 -82 52.5 -142.5t142.5 -60.5
q78 0 142 46.5t84 128.5z" />
    <glyph glyph-name="gbreve.sc" horiz-adv-x="629" 
d="M498 749h43q-13 -59 -60 -105.5t-120 -46.5q-58 0 -93 40t-28 112h44q-4 -7 -1.5 -25.5t7 -38t24.5 -34.5t52 -15q30 0 55 11.5t38 25t23 33t12 27.5zM518 206l-147 -1l6 40h196q-21 -124 -102 -189t-183 -65q-105 0 -172.5 67t-67.5 171q0 128 98 216.5t228 88.5
q113 0 187 -74l-31 -33q-65 65 -162 65q-111 0 -191 -77t-80 -181q0 -82 52.5 -142.5t142.5 -60.5q78 0 142 46.5t84 128.5z" />
    <glyph glyph-name="gcommaaccent.sc" horiz-adv-x="629" 
d="M238 -232h-51l102 178h57zM518 206l-147 -1l6 40h196q-21 -124 -102 -189t-183 -65q-105 0 -172.5 67t-67.5 171q0 128 98 216.5t228 88.5q113 0 187 -74l-31 -33q-65 65 -162 65q-111 0 -191 -77t-80 -181q0 -82 52.5 -142.5t142.5 -60.5q78 0 142 46.5t84 128.5z" />
    <glyph glyph-name="gdotaccent.sc" horiz-adv-x="629" 
d="M410 645q0 -17 -14 -29.5t-31 -12.5q-13 0 -21.5 9.5t-8.5 22.5q0 18 13 31t29 13q14 0 23.5 -10t9.5 -24zM518 206l-147 -1l6 40h196q-21 -124 -102 -189t-183 -65q-105 0 -172.5 67t-67.5 171q0 128 98 216.5t228 88.5q113 0 187 -74l-31 -33q-65 65 -162 65
q-111 0 -191 -77t-80 -181q0 -82 52.5 -142.5t142.5 -60.5q78 0 142 46.5t84 128.5z" />
    <glyph glyph-name="wgrave.sc" horiz-adv-x="748" 
d="M489 620l-23 -17l-113 138l47 33zM492 -20l-102 434l-238 -433l-95 543h53l66 -403v-24q1 11 8 24l227 419l94 -419q1 -3 1 -8.5v-8.5l1 -3q3 11 7 20l190 403h52z" />
    <glyph glyph-name="wacute.sc" horiz-adv-x="748" 
d="M528 741l-154 -138l-19 17l138 154zM492 -20l-102 434l-238 -433l-95 543h53l66 -403v-24q1 11 8 24l227 419l94 -419q1 -3 1 -8.5v-8.5l1 -3q3 11 7 20l190 403h52z" />
    <glyph glyph-name="wdieresis.sc" horiz-adv-x="748" 
d="M567 646q0 -17 -12.5 -30t-30.5 -13q-14 0 -22.5 9t-8.5 23q0 18 12.5 31t30.5 13q14 0 22.5 -9.5t8.5 -23.5zM358 646q0 -17 -13 -30t-31 -13q-13 0 -22 9.5t-9 22.5q0 18 13.5 31t29.5 13q14 0 23 -9.5t9 -23.5zM492 -20l-102 434l-238 -433l-95 543h53l66 -403v-24
q1 11 8 24l227 419l94 -419q1 -3 1 -8.5v-8.5l1 -3q3 11 7 20l190 403h52z" />
    <glyph glyph-name="ygrave.sc" horiz-adv-x="425" 
d="M316 620l-23 -17l-113 138l47 33zM185 0h-46l37 226l-128 298h54l102 -253l188 253h53l-225 -298z" />
    <glyph glyph-name="ycircumflex.sc" horiz-adv-x="425" 
d="M405 628l-30 -22l-100 102l-132 -102l-22 22l164 133zM185 0h-46l37 226l-128 298h54l102 -253l188 253h53l-225 -298z" />
    <glyph glyph-name="yacute.sc" horiz-adv-x="425" 
d="M404 741l-154 -138l-19 17l138 154zM185 0h-46l37 226l-128 298h54l102 -253l188 253h53l-225 -298z" />
    <glyph glyph-name="ydieresis.sc" horiz-adv-x="425" 
d="M197 636q0 -17 -13 -30t-31 -13q-13 0 -22 9.5t-9 22.5q0 18 13.5 31t29.5 13q15 0 23.5 -9t8.5 -24zM408 636q0 -18 -13 -30.5t-31 -12.5q-14 0 -22 9t-8 23q0 18 12 31t30 13q15 0 23.5 -9t8.5 -24zM185 0h-46l37 226l-128 298h54l102 -253l188 253h53l-225 -298z" />
    <glyph glyph-name="zcaron.sc" horiz-adv-x="452" 
d="M442 730l-162 -133h-1l-121 133l30 22l100 -102l132 102zM362 1h-388l381 483l-247 -1l7 40h330l-384 -483l307 1z" />
    <glyph glyph-name="zacute.sc" horiz-adv-x="452" 
d="M407 741l-155 -138l-17 17l136 154zM362 1h-388l381 483l-247 -1l7 40h330l-384 -483l307 1z" />
    <glyph glyph-name="zdotaccent.sc" horiz-adv-x="452" 
d="M325 645q0 -17 -14 -29.5t-32 -12.5q-12 0 -20.5 9.5t-8.5 22.5q0 18 12.5 31t28.5 13q15 0 24.5 -10t9.5 -24zM362 1h-388l381 483l-247 -1l7 40h330l-384 -483l307 1z" />
    <glyph glyph-name="ae.sc" horiz-adv-x="686" 
d="M595 1h-297l24 148h-185l-115 -149h-58l410 523h281l-7 -40l-228 1l-29 -184l184 1l-7 -40l-183 1l-35 -222l251 1zM328 191l41 260l-201 -260h160z" />
    <glyph glyph-name="aeacute.sc" horiz-adv-x="686" 
d="M642 741l-155 -138l-19 17l139 154zM595 1h-297l24 148h-185l-115 -149h-58l410 523h281l-7 -40l-228 1l-29 -184l184 1l-7 -40l-183 1l-35 -222l251 1zM328 191l41 260l-201 -260h160z" />
    <glyph glyph-name="ij.sc" horiz-adv-x="467" 
d="M92 0h-46l83 524h46zM161 -181l-11 40q70 26 96.5 62t41.5 131l75 472h45l-75 -476q-17 -107 -52 -151.5t-120 -77.5z" />
    <glyph glyph-name="eng.sc" horiz-adv-x="644" 
d="M338 -181l-10 40q66 25 93 57.5t41 111.5l-304 399l-66 -427h-46l85 539l342 -445l66 430h46l-75 -476q-17 -107 -52 -151.5t-120 -77.5z" />
    <glyph glyph-name="oe.sc" horiz-adv-x="891" 
d="M800 1h-297l18 116q-86 -126 -241 -126q-104 0 -168 67t-64 167q0 131 93 220t225 89q73 0 124.5 -34t75.5 -101l20 124h274l-7 -40l-228 1l-29 -184l184 1l-7 -40l-183 1l-35 -222l251 1zM538 224l10 60v11q0 87 -52.5 142t-136.5 55q-110 0 -186 -75.5t-76 -184.5
q0 -84 51 -142t134 -58q92 0 162.5 54t93.5 138z" />
    <glyph glyph-name="ff.sc" horiz-adv-x="804" 
d="M92 0h-46l83 523h268l-7 -40l-221 1l-29 -184l179 1l-7 -41l-179 1zM494 0h-46l83 523h268l-7 -40l-221 1l-29 -184l179 1l-7 -41l-179 1z" />
    <glyph glyph-name="fi.sc" horiz-adv-x="636" 
d="M92 0h-46l83 523h268l-7 -40l-221 1l-29 -184l179 1l-7 -41l-179 1zM494 0h-46l83 524h46z" />
    <glyph glyph-name="f_j.sc" horiz-adv-x="635" 
d="M92 0h-46l83 523h268l-7 -40l-221 1l-29 -184l179 1l-7 -41l-179 1zM329 -181l-11 40q70 26 96.5 62t41.5 131l75 472h45l-75 -476q-17 -107 -52 -151.5t-120 -77.5z" />
    <glyph glyph-name="fl.sc" horiz-adv-x="796" 
d="M92 0h-46l83 523h268l-7 -40l-221 1l-29 -184l179 1l-7 -41l-179 1zM723 1h-275l83 523h46l-77 -484l229 1z" />
    <glyph glyph-name="f_t.sc" horiz-adv-x="829" 
d="M92 0h-46l83 523h268l-7 -40l-221 1l-29 -184l179 1l-7 -41l-179 1zM591 0h-46l76 484l-163 -1l6 40h371l-6 -40l-162 1z" />
    <glyph glyph-name="ffi.sc" horiz-adv-x="1038" 
d="M92 0h-46l83 523h268l-7 -40l-221 1l-29 -184l179 1l-7 -41l-179 1zM494 0h-46l83 523h268l-7 -40l-221 1l-29 -184l179 1l-7 -41l-179 1zM896 0h-46l83 524h46z" />
    <glyph glyph-name="ffl.sc" horiz-adv-x="1198" 
d="M92 0h-46l83 523h268l-7 -40l-221 1l-29 -184l179 1l-7 -41l-179 1zM494 0h-46l83 523h268l-7 -40l-221 1l-29 -184l179 1l-7 -41l-179 1zM1125 1h-275l83 523h46l-77 -484l229 1z" />
    <glyph glyph-name="zero_slash" horiz-adv-x="637" 
d="M268 -11q-53 0 -91.5 24t-58.5 65t-29 86.5t-9 97.5q0 138 34.5 249.5t105.5 181t169 69.5q54 0 93 -24t59.5 -65t29.5 -87t9 -99q0 -141 -35 -252.5t-107 -178.5t-170 -67zM157 100l316 585q-34 32 -91 32q-80 0 -139 -63.5t-86.5 -162.5t-27.5 -220q0 -116 28 -171z
M502 652l-317 -587q35 -33 90 -33q83 0 143 67t86.5 166.5t26.5 215.5q0 118 -29 171z" />
    <glyph glyph-name="emacron.sc" horiz-adv-x="433" 
d="M414 616h-275l7 41h275zM342 1h-296l83 521h273l-7 -39q-37 0 -113 0.5t-114 0.5l-29 -184q30 0 91.5 0.5t92.5 0.5l-7 -40q-31 0 -92 0.5t-91 0.5l-35 -222q42 0 125 0.5t125 0.5z" />
    <glyph glyph-name="edotaccent.sc" horiz-adv-x="434" 
d="M327 645q0 -17 -14 -29.5t-32 -12.5q-12 0 -20.5 9.5t-8.5 22.5q0 18 13 31t28 13t24.5 -10t9.5 -24zM343 1h-297l83 521h274l-7 -39l-228 1l-29 -184l184 1l-7 -40l-183 1l-35 -222l251 1z" />
    <glyph glyph-name="ecaron.sc" horiz-adv-x="434" 
d="M443 739l-164 -133l-120 133l29 22l100 -102l132 102zM342 1h-296l83 521h274l-7 -39q-38 0 -114 0.5t-114 0.5l-29 -184q31 0 92 0.5t92 0.5l-7 -40q-31 0 -91.5 0.5t-91.5 0.5l-35 -222q42 0 125 0.5t125 0.5z" />
    <glyph glyph-name="egrave.sc" horiz-adv-x="434" 
d="M325 620l-25 -17l-111 138l46 33zM343 1h-297l83 522h274l-7 -40l-228 1l-29 -184l184 1l-7 -40l-183 1l-35 -222l251 1z" />
    <glyph glyph-name="uni1E6B.alt" horiz-adv-x="277" 
d="M238 799q0 -17 -13.5 -29.5t-30.5 -12.5q-13 0 -22.5 9.5t-9.5 22.5q0 18 13.5 31t30.5 13q14 0 23 -10t9 -24zM204 31l-35 -39q-57 0 -82.5 31t-12.5 111l47 295h-83l6 41h83l28 171h44l-28 -171h108l-6 -41h-108l-45 -286q-4 -26 -4.5 -45t4.5 -31.5t11 -19.5
t18.5 -10.5t24 -4.5t30.5 -1z" />
    <glyph glyph-name="uni1E6B.alt2" horiz-adv-x="290" 
d="M261 799q0 -17 -13.5 -29.5t-30.5 -12.5q-13 0 -22 9.5t-9 22.5q0 18 13 31t30 13q14 0 23 -10t9 -24zM120 0h-44l68 429h-109l6 41h109l28 171h44l-28 -171h108l-6 -41h-108z" />
    <glyph glyph-name="uni1E6B.semp" horiz-adv-x="277" 
d="M218 800q0 -17 -13 -30t-31 -13q-13 0 -22 9.5t-9 22.5q0 18 13.5 31t29.5 13q15 0 23.5 -9t8.5 -24zM77 0h-44l104 659h44l-30 -189h138l-6 -41h-138z" />
    <glyph glyph-name="tbar.alt" horiz-adv-x="280" 
d="M207 31l-36 -39q-57 0 -82 31t-12 111l23 145h-76l6 41h76l18 109h-83l6 41h83l27 171h44l-27 -171h108l-6 -41h-108l-18 -109h86l-6 -41h-86l-22 -136q-4 -23 -4 -40t2 -29t8 -20t12.5 -12.5t18 -7t21.5 -3t27 -0.5z" />
    <glyph glyph-name="ff.semp2" horiz-adv-x="563" 
d="M426 429l-69 -429h-43l99 625q16 101 61 149q46 47 112 47q48 0 69 -18l-28 -42q-19 16 -53 16q-46 0 -75.5 -38t-40.5 -104l-26 -165h139l-6 -41h-139zM145 429l-69 -429h-44l92 578q16 100 62 149q46 47 111 47q48 0 69 -18l-27 -42q-22 16 -54 16q-46 0 -75 -37.5
t-40 -104.5l-19 -118h129l-6 -41h-129z" />
    <glyph glyph-name="ff.alt" horiz-adv-x="564" 
d="M64 -230h-44l105 659h-76l6 41h76l24 149q16 100 62 149q45 47 111 47q48 0 69 -18l-27 -42q-22 16 -54 16q-46 0 -75 -37.5t-40 -104.5l-25 -159h111l-6 -41h-112zM364 -121h-44l87 550h-76l6 41h76l24 149q16 100 62 149q45 47 111 47q48 0 69 -18l-27 -42
q-22 16 -54 16q-46 0 -75 -37.5t-40 -104.5l-25 -159h111l-6 -41h-112z" />
    <glyph glyph-name="ff.semp" horiz-adv-x="563" 
d="M40 -230h-43l127 808q16 100 62 149q46 47 111 47q48 0 69 -18l-27 -42q-22 16 -54 16q-46 0 -75 -37.5t-40 -104.5l-19 -118h129l-6 -41h-129zM338 -121h-43l118 746q16 101 61 149q46 47 112 47q48 0 69 -18l-28 -42q-19 16 -53 16q-46 0 -75.5 -38t-40.5 -104
l-26 -165h139l-6 -41h-139z" />
    <glyph glyph-name="fi.semp2" horiz-adv-x="496" 
d="M145 429l-68 -429h-44l98 619q16 100 62 149q46 47 111 47q48 0 69 -18l-28 -42q-19 16 -53 16q-46 0 -75.5 -38t-40.5 -104l-25 -159h135l-6 -41h-135zM362 0h-44l74 471h44zM477 616q0 -18 -14 -31.5t-32 -13.5q-15 0 -24.5 10t-9.5 25q0 18 14.5 31.5t32.5 13.5
q15 0 24 -10t9 -25z" />
    <glyph glyph-name="fi.alt" horiz-adv-x="495" 
d="M64 -230h-44l105 659h-76l6 41h76l24 149q16 100 62 149q45 47 111 47q48 0 69 -18l-27 -42q-22 16 -54 16q-46 0 -75 -37.5t-40 -104.5l-25 -159h111l-6 -41h-112zM362 0h-44l75 471h44zM476 616q0 -18 -13.5 -31.5t-32.5 -13.5q-14 0 -23.5 10t-9.5 24q0 19 14 32.5
t32 13.5q15 0 24 -9.5t9 -25.5z" />
    <glyph glyph-name="fi.semp" horiz-adv-x="496" 
d="M362 0h-44l74 471h44zM477 616q0 -18 -14 -31.5t-32 -13.5q-15 0 -24.5 10t-9.5 25q0 18 14.5 31.5t32.5 13.5q15 0 24 -10t9 -25zM38 -244h-43l136 863q16 100 62 149q46 47 111 47q48 0 69 -18l-28 -42q-19 16 -53 16q-46 0 -75.5 -38t-40.5 -104l-25 -159h135l-6 -41
h-135z" />
    <glyph glyph-name="f_j" horiz-adv-x="494" 
d="M101 0h-44l68 429h-76l6 41h76l24 149q16 100 62 149q46 47 111 47q48 0 69 -18l-27 -42q-22 16 -54 16q-46 0 -75 -37.5t-40 -104.5l-25 -159h111l-6 -41h-112zM205 -267l-13 38q26 12 41 20t29 25t20.5 28t15 45.5t12.5 60t14 87.5l69 434h44l-68 -428q-8 -47 -12 -71
t-10.5 -56.5t-11.5 -47.5t-14.5 -36t-19 -31.5t-24 -24t-31.5 -23t-41 -20.5zM477 616q0 -18 -14 -31.5t-32 -13.5q-15 0 -24 9.5t-9 24.5q0 19 14 32.5t32 13.5q15 0 24 -10t9 -25z" />
    <glyph glyph-name="tbar.alt2" horiz-adv-x="292" 
d="M122 0h-44l44 279h-87l6 41h87l18 109h-109l6 41h109l27 171h44l-27 -171h108l-6 -41h-108l-18 -109h86l-6 -41h-86z" />
    <glyph glyph-name="f_j.semp" horiz-adv-x="495" 
d="M38 -244h-43l136 863q16 100 62 149q46 47 111 47q48 0 69 -18l-28 -42q-19 16 -53 16q-46 0 -75.5 -38t-40.5 -104l-25 -159h135l-6 -41h-135zM321 -254l-45 -10l116 735h44zM477 616q0 -18 -14 -31.5t-32 -13.5q-15 0 -24.5 10t-9.5 25q0 18 14 31.5t32 13.5
q15 0 24.5 -10t9.5 -25z" />
    <glyph glyph-name="tbar.semp" horiz-adv-x="286" 
d="M87 0h-44l44 279h-84l6 41h84l54 339h44l-30 -189h138l-6 -41h-138l-18 -109h86l-6 -41h-86z" />
    <glyph glyph-name="fl.semp2" horiz-adv-x="502" 
d="M144 429l-68 -429h-44l96 605q16 101 61 149q46 47 112 47q48 0 69 -18l-28 -42q-19 16 -53 16q-46 0 -75.5 -38t-40.5 -104l-23 -145h117l-6 -41h-117zM365 0h-44l130 820h44z" />
    <glyph glyph-name="fl.alt" horiz-adv-x="503" 
d="M64 -230h-44l105 659h-76l6 41h76l24 149q16 100 62 149q45 47 111 47q48 0 69 -18l-27 -42q-22 16 -54 16q-46 0 -75 -37.5t-40 -104.5l-25 -159h111l-6 -41h-112zM366 0h-44l130 820h44z" />
    <glyph glyph-name="fl.semp" horiz-adv-x="502" 
d="M365 0h-44l130 820h44zM37 -244h-43l134 849q16 101 61 149q46 47 112 47q48 0 69 -18l-28 -42q-19 16 -53 16q-46 0 -75.5 -38t-40.5 -104l-23 -145h117l-6 -41h-117z" />
    <glyph glyph-name="f_t" horiz-adv-x="531" 
d="M359 0h-44l68 429h-214l-68 -429h-44l68 429h-76l6 41h76l24 149q16 100 62 149q46 47 111 47q48 0 69 -18l-27 -42q-22 16 -54 16q-46 0 -75 -37.5t-40 -104.5l-25 -159h213l28 171h44l-28 -171h109l-6 -41h-109z" />
    <glyph glyph-name="f_t.semp" horiz-adv-x="558" 
d="M38 -244h-43l136 863q16 100 62 149q46 47 111 47q48 0 69 -18l-28 -42q-19 16 -53 16q-46 0 -75.5 -38t-40.5 -104l-25 -159h135l-6 -41h-135zM358 0h-44l104 659h44l-30 -189h138l-6 -41h-138z" />
    <glyph glyph-name="ffi.semp2" horiz-adv-x="777" 
d="M426 429l-68 -429h-44l99 625q16 100 62 149q46 47 111 47q49 0 70 -18l-28 -42q-19 16 -54 16q-46 0 -75 -37.5t-40 -104.5l-26 -165h129l-7 -41h-129zM144 429l-68 -429h-44l92 578q16 100 62 149q46 47 111 47q48 0 69 -18l-27 -42q-22 16 -54 16q-46 0 -75 -37.5
t-40 -104.5l-19 -118h122l-7 -41h-122zM642 0h-44l75 471h44zM758 616q0 -18 -14 -31.5t-32 -13.5q-15 0 -24 9.5t-9 24.5q0 19 13.5 32.5t32.5 13.5q14 0 23.5 -10t9.5 -25z" />
    <glyph glyph-name="ffi.alt" horiz-adv-x="777" 
d="M64 -230h-44l105 659h-76l6 41h76l24 149q16 100 62 149q45 47 111 47q48 0 69 -18l-27 -42q-22 16 -54 16q-46 0 -75 -37.5t-40 -104.5l-25 -159h111l-6 -41h-112zM364 -121h-44l87 550h-76l6 41h76l24 149q16 100 62 149q45 47 111 47q48 0 69 -18l-27 -42
q-22 16 -54 16q-46 0 -75 -37.5t-40 -104.5l-25 -159h111l-6 -41h-112zM644 0h-44l75 471h44zM758 616q0 -18 -13.5 -31.5t-32.5 -13.5q-14 0 -23.5 10t-9.5 24q0 19 14 32.5t32 13.5q15 0 24 -9.5t9 -25.5z" />
    <glyph glyph-name="ffi.semp" horiz-adv-x="777" 
d="M40 -229h-43l127 807q16 100 62 149q46 47 111 47q48 0 69 -18l-27 -42q-22 16 -54 16q-46 0 -75 -37.5t-40 -104.5l-19 -118h122l-7 -41h-122zM339 -121h-44l118 746q16 100 62 149q46 47 111 47q49 0 70 -18l-28 -42q-19 16 -54 16q-46 0 -75 -37.5t-40 -104.5
l-26 -165h129l-7 -41h-129zM642 0h-44l75 471h44zM758 616q0 -18 -14 -31.5t-32 -13.5q-15 0 -24 9.5t-9 24.5q0 19 13.5 32.5t32.5 13.5q14 0 23.5 -10t9.5 -25z" />
    <glyph glyph-name="ffl.semp2" horiz-adv-x="782" 
d="M427 429l-69 -429h-44l97 610q16 100 62 149q46 47 111 47q48 0 69 -18l-27 -42q-19 16 -54 16q-46 0 -75 -37.5t-40 -104.5l-24 -150h127l-6 -41h-127zM145 429l-69 -429h-44l91 573q16 100 62 149q46 47 111 47q46 0 70 -18l-28 -42q-19 16 -54 16q-46 0 -75 -37.5
t-40 -104.5l-18 -113h122l-6 -41h-122zM646 0h-44l129 820h44z" />
    <glyph glyph-name="ffl.alt" horiz-adv-x="785" 
d="M64 -230h-44l105 659h-76l6 41h76l24 149q16 100 62 149q45 47 111 47q48 0 69 -18l-27 -42q-22 16 -54 16q-46 0 -75 -37.5t-40 -104.5l-25 -159h111l-6 -41h-112zM364 -121h-44l87 550h-76l6 41h76l24 149q16 100 62 149q45 47 111 47q48 0 69 -18l-27 -42
q-22 16 -54 16q-46 0 -75 -37.5t-40 -104.5l-25 -159h111l-6 -41h-112zM648 0h-44l130 820h44z" />
    <glyph glyph-name="ffl.semp" horiz-adv-x="782" 
d="M646 0h-44l129 820h44zM40 -230h-43l126 803q16 100 62 149q46 47 111 47q46 0 70 -18l-28 -42q-19 16 -54 16q-46 0 -75 -37.5t-40 -104.5l-18 -113h122l-6 -41h-122zM339 -121h-44l116 731q16 100 62 149q46 47 111 47q48 0 69 -18l-27 -42q-19 16 -54 16
q-46 0 -75 -37.5t-40 -104.5l-24 -150h127l-6 -41h-127z" />
    <glyph glyph-name="ij.semp" horiz-adv-x="426" 
d="M80 0h-44l75 471h44zM194 616q0 -18 -13.5 -31.5t-32.5 -13.5q-14 0 -23.5 10t-9.5 24q0 19 14 32.5t32 13.5q15 0 24 -9.5t9 -25.5zM253 -254l-46 -10l117 735h44zM408 616q0 -18 -13.5 -31.5t-32.5 -13.5q-14 0 -23.5 10t-9.5 24q0 19 14 32.5t32 13.5q15 0 24 -9.5
t9 -25.5z" />
    <glyph glyph-name="eng.alt" horiz-adv-x="522" 
d="M241 -267l-13 38q26 12 41 20t29 25t20.5 28t15 45.5t12.5 60t14 87.5l40 256q23 149 -117 149q-87 0 -147 -43l-63 -399h-44l66 418q87 65 193 65q85 0 128.5 -46.5t29.5 -133.5l-41 -260q-10 -62 -15.5 -92.5t-15 -67t-18.5 -53.5t-26 -37t-37.5 -33t-51.5 -27z" />
    <glyph glyph-name="germandbls.alt" horiz-adv-x="511" 
d="M157 8l17 40q46 -20 79 -20q55 0 103.5 36.5t48.5 101.5q0 26 -15 47.5t-26 29.5t-43 28q-37 24 -58 53.5t-21 79.5q0 21 4.5 41t10 33.5t18.5 31t19.5 25t24 25.5t22.5 24q58 64 58 121q0 46 -24.5 64.5t-51.5 18.5q-51 0 -93.5 -41t-53.5 -114l-100 -633h-44l98 618
q34 209 207 209q49 0 78.5 -30.5t29.5 -81.5q0 -24 -4.5 -44t-19.5 -43t-20 -31t-30.5 -35.5t-26.5 -28.5q-19 -22 -29 -35.5t-19 -35t-9 -44.5q0 -44 21 -69.5t62 -51.5q26 -17 41 -29.5t28.5 -37.5t13.5 -55q0 -80 -59.5 -132.5t-155.5 -52.5q-37 0 -81 18z" />
    <glyph glyph-name="germandbls.semp" horiz-adv-x="501" 
d="M126 -245l8 37q36 6 76.5 26.5t79.5 52.5t64.5 81.5t25.5 104.5q0 51 -27.5 81.5t-84.5 30.5q-40 0 -88 -13l207 273h-219l-107 -673h-44l107 673h-71l6 41h71l24 149q16 100 62 149q46 47 112 47q50 0 68 -18l-27 -42q-22 16 -54 16q-46 0 -75.5 -38t-40.5 -104
l-25 -159h296l-209 -261q16 3 32 3q61 0 96.5 -43t35.5 -111q0 -67 -33.5 -125t-83 -94t-97 -57.5t-85.5 -26.5z" />
    <glyph glyph-name="a.sc" horiz-adv-x="520" 
d="M459 0h-48l-41 143h-265l-87 -143h-50l332 539zM358 185l-73 254l-154 -254h227z" />
    <glyph glyph-name="a.sc.semp" horiz-adv-x="518" 
d="M457 0h-48l-30 103h-301l-62 -103h-48l330 539zM367 144l-84 297l-179 -297h263z" />
    <glyph glyph-name="b.sc" horiz-adv-x="474" 
d="M183 0h-137l83 524h105q153 0 153 -105q0 -52 -33 -89t-76 -50q47 -7 81 -37.5t34 -85.5q0 -69 -55.5 -113t-154.5 -44zM137 287l42 1q74 2 117 33.5t43 84.5q0 79 -107 79h-63zM98 39l93 1q73 1 113 33.5t40 80.5q0 43 -31.5 69t-82.5 26h-99z" />
    <glyph glyph-name="c.sc" horiz-adv-x="567" 
d="M463 86l15 -33q-81 -62 -186 -62q-110 0 -177 67.5t-67 171.5q0 127 96 215.5t228 88.5q107 0 172 -67l-31 -33q-47 58 -146 58q-110 0 -190 -75.5t-80 -183.5q0 -89 57.5 -145t146.5 -56q94 0 162 54z" />
    <glyph glyph-name="d.sc" horiz-adv-x="563" 
d="M168 0h-122l83 524h115q115 0 185 -58.5t70 -170.5q0 -130 -91.5 -212.5t-239.5 -82.5zM98 40h57q133 0 214.5 66.5t81.5 181.5q0 99 -60 148t-157 49h-65z" />
    <glyph glyph-name="e.sc" horiz-adv-x="434" 
d="M343 1h-297l83 522h274l-7 -40l-228 1l-29 -184l184 1l-7 -40l-183 1l-35 -222l251 1z" />
    <glyph glyph-name="f.sc" horiz-adv-x="402" 
d="M92 0h-46l83 523h268l-7 -40l-221 1l-29 -184l179 1l-7 -41l-179 1z" />
    <glyph glyph-name="g.sc" horiz-adv-x="629" 
d="M518 206l-147 -1l6 40h196q-21 -124 -102 -189t-183 -65q-105 0 -172.5 67t-67.5 171q0 128 98 216.5t228 88.5q113 0 187 -74l-31 -33q-65 65 -162 65q-111 0 -191 -77t-80 -181q0 -82 52.5 -142.5t142.5 -60.5q78 0 142 46.5t84 128.5z" />
    <glyph glyph-name="h.sc" horiz-adv-x="579" 
d="M437 0h-46l39 246h-299l-39 -246h-46l83 524h46l-37 -236h299l37 236h46z" />
    <glyph glyph-name="j.sc" horiz-adv-x="233" 
d="M-72 -181l-11 40q69 26 95.5 62t41.5 131l75 472h45l-75 -476q-17 -107 -51.5 -151.5t-119.5 -77.5z" />
    <glyph glyph-name="j.sc.semp" horiz-adv-x="338" 
d="M201 199l45 285h-139l6 39h186l-54 -339q-18 -113 -58.5 -154.5t-117.5 -41.5q-56 0 -101 38l24 36q37 -35 83 -35q58 0 84.5 40.5t41.5 131.5z" />
    <glyph glyph-name="k.sc" horiz-adv-x="489" 
d="M435 0h-66l-239 240l-38 -240h-46l83 524h46l-38 -240l275 240h69l-313 -262z" />
    <glyph glyph-name="l.sc" horiz-adv-x="394" 
d="M321 1h-275l83 523h46l-77 -484l229 1z" />
    <glyph glyph-name="m.sc" horiz-adv-x="723" 
d="M607 0h-46l23 373l3 21q-2 -3 -5.5 -9t-5.5 -9l-266 -395l-141 395q-1 3 -2.5 9t-2.5 9l-3 -21l-95 -373h-47l142 538l143 -392q8 -22 22 -66l42 66l267 392z" />
    <glyph glyph-name="n.sc" horiz-adv-x="643" 
d="M499 -18l-341 445l-66 -427h-46l85 539l342 -446l66 431h46z" />
    <glyph glyph-name="o.sc" horiz-adv-x="658" 
d="M597 300q0 -129 -93.5 -219t-220.5 -90q-106 0 -170 66.5t-64 170.5q0 128 93.5 217t221.5 89q107 0 170 -65t63 -169zM289 32q106 0 183 77t77 186q0 87 -52.5 142t-140.5 55q-106 0 -182 -76t-76 -183q0 -86 51 -143.5t140 -57.5z" />
    <glyph glyph-name="p.sc" horiz-adv-x="434" 
d="M92 0h-46l83 524h105q72 0 119.5 -31.5t47.5 -100.5q0 -77 -60.5 -129.5t-163.5 -52.5h-52zM131 248l47 1q80 2 128 39t48 98q0 49 -31 74t-84 25h-70z" />
    <glyph glyph-name="q.sc" horiz-adv-x="657" 
d="M549 -35l-37 -33l-85 96q-69 -37 -145 -37q-106 0 -170 66.5t-64 170.5q0 128 93 217t221 89q107 0 170.5 -65t63.5 -168q0 -78 -38 -144t-97 -106zM288 32q106 0 183 77t77 186q0 87 -52.5 142t-140.5 55q-106 0 -182 -76t-76 -183q0 -86 51 -143.5t140 -57.5z" />
    <glyph glyph-name="r.sc" horiz-adv-x="466" 
d="M410 0h-65l-195 210h-25l-33 -210h-46l83 524h109q68 0 115.5 -31t47.5 -98q0 -75 -54.5 -126t-144.5 -58zM131 249h38q88 0 136.5 37.5t48.5 103.5q0 46 -32 70.5t-85 24.5h-68z" />
    <glyph glyph-name="s.sc" horiz-adv-x="426" 
d="M6 61l34 32q15 -24 47 -42.5t76 -18.5q57 0 96 31.5t39 84.5q0 37 -21.5 62t-52 40t-61.5 31t-52.5 43.5t-21.5 67.5q0 67 51.5 105t119.5 38q83 0 123 -52l-30 -32q-37 43 -97 43q-47 0 -82 -26t-35 -68q0 -31 21.5 -53.5t52.5 -37.5t61.5 -31.5t52 -47t21.5 -72.5
q0 -71 -53 -119t-134 -48q-56 0 -98 22t-57 48z" />
    <glyph glyph-name="t.sc" horiz-adv-x="427" 
d="M189 0h-46l76 484l-163 -1l6 40h371l-6 -40l-162 1z" />
    <glyph glyph-name="u.sc" horiz-adv-x="571" 
d="M397 72l72 452h46l-74 -466q-69 -67 -207 -67q-93 0 -136 50t-27 148l53 335h46l-50 -316q-15 -97 15 -136.5t122 -39.5t140 40z" />
    <glyph glyph-name="v.sc" horiz-adv-x="485" 
d="M190 -20l-141 544h56l100 -419q2 -12 2 -20q3 9 8 20l231 419h56z" />
    <glyph glyph-name="w.sc" horiz-adv-x="748" 
d="M492 -20l-102 434l-238 -433l-95 543h53l66 -403v-24q1 11 8 24l227 419l94 -419q1 -3 1 -8.5v-8.5l1 -3q3 11 7 20l190 403h52z" />
    <glyph glyph-name="x.sc" horiz-adv-x="477" 
d="M398 0h-56l-113 232l-193 -232h-54l228 273l-132 251h56l105 -217l179 217h56l-216 -256z" />
    <glyph glyph-name="y.sc" horiz-adv-x="425" 
d="M185 0h-46l37 226l-128 298h54l102 -253l188 253h53l-225 -298z" />
    <glyph glyph-name="z.sc" horiz-adv-x="452" 
d="M362 1h-388l381 483l-247 -1l7 40h330l-384 -483l307 1z" />
    <glyph glyph-name="eth.sc" horiz-adv-x="564" 
d="M169 0h-122l38 244h-53l6 37h53l39 243h115q115 0 185 -58.5t70 -170.5q0 -130 -91.5 -212.5t-239.5 -82.5zM99 40h57q133 0 214.5 66.5t81.5 181.5q0 99 -60 148t-157 49h-65l-33 -204h137l-6 -37h-137z" />
    <glyph glyph-name="thorn.sc" horiz-adv-x="432" 
d="M92 0h-46l83 524h46l-17 -105h59q72 0 120 -31t48 -100q0 -78 -62 -130.5t-165 -52.5h-49zM115 143l47 1q80 2 127.5 39t47.5 99q0 49 -30.5 73.5t-84.5 24.5h-70z" />
    <glyph glyph-name="aacute.sc" horiz-adv-x="520" 
d="M409 741l-155 -138l-19 17l139 154zM459 0h-48l-41 143h-265l-87 -143h-50l332 539zM358 185l-73 254l-154 -254h227z" />
    <glyph glyph-name="aacute.sc.semp" horiz-adv-x="518" 
d="M406 741l-156 -138l-18 17l138 154zM457 0h-48l-30 103h-301l-62 -103h-48l330 539zM367 144l-84 297l-179 -297h263z" />
    <glyph glyph-name="acircumflex.sc" horiz-adv-x="520" 
d="M455 628l-29 -22l-100 102l-132 -102l-23 22l165 133zM459 0h-48l-41 143h-265l-87 -143h-50l332 539zM358 185l-73 254l-154 -254h227z" />
    <glyph glyph-name="acircumflex.sc.semp" horiz-adv-x="518" 
d="M452 628l-29 -22l-100 102l-132 -102l-23 22l164 133zM457 0h-48l-30 103h-301l-62 -103h-48l330 539zM367 144l-84 297l-179 -297h263z" />
    <glyph glyph-name="adieresis.sc" horiz-adv-x="520" 
d="M247 645q0 -17 -13.5 -29.5t-30.5 -12.5q-13 0 -22 9.5t-9 22.5q0 18 13.5 31t29.5 13q13 0 22.5 -10t9.5 -24zM456 646q0 -18 -13 -30.5t-31 -12.5q-14 0 -22 9t-8 23q0 18 12 31t30 13q15 0 23.5 -9t8.5 -24zM459 0h-48l-41 143h-265l-87 -143h-50l332 539zM358 185
l-73 254l-154 -254h227z" />
    <glyph glyph-name="adieresis.sc.semp" horiz-adv-x="518" 
d="M244 646q0 -17 -13.5 -30t-31.5 -13q-13 0 -21.5 9.5t-8.5 22.5q0 18 13 31t29 13q15 0 24 -9.5t9 -23.5zM453 646q0 -18 -13 -30.5t-32 -12.5q-13 0 -21 9t-8 23q0 18 12 31t29 13q15 0 24 -9t9 -24zM457 0h-48l-30 103h-301l-62 -103h-48l330 539zM367 144l-84 297
l-179 -297h263z" />
    <glyph glyph-name="agrave.sc" horiz-adv-x="520" 
d="M382 620l-24 -17l-112 138l47 33zM459 0h-48l-41 143h-265l-87 -143h-50l332 539zM358 185l-73 254l-154 -254h227z" />
    <glyph glyph-name="agrave.sc.semp" horiz-adv-x="518" 
d="M379 620l-25 -17l-111 138l46 33zM457 0h-48l-30 103h-301l-62 -103h-48l330 539zM367 144l-84 297l-179 -297h263z" />
    <glyph glyph-name="aring.sc" horiz-adv-x="520" 
d="M308 592q-37 0 -60.5 25.5t-23.5 63.5q0 48 35.5 83t81.5 35q36 0 59.5 -26.5t23.5 -63.5q0 -47 -35.5 -82t-80.5 -35zM314 626q31 0 54.5 24t23.5 56q0 26 -15.5 43t-40.5 17q-30 0 -53.5 -23.5t-23.5 -55.5q0 -25 15.5 -43t39.5 -18zM459 0h-48l-41 143h-265l-87 -143
h-50l332 539zM358 185l-73 254l-154 -254h227z" />
    <glyph glyph-name="aring.sc.semp" horiz-adv-x="518" 
d="M305 592q-36 0 -60 25.5t-24 63.5q0 48 35.5 83t80.5 35q36 0 60 -26.5t24 -63.5q0 -47 -35 -82t-81 -35zM311 626q31 0 54.5 24t23.5 56q0 26 -15.5 43t-40.5 17q-30 0 -53.5 -23.5t-23.5 -55.5q0 -25 15.5 -43t39.5 -18zM457 0h-48l-30 103h-301l-62 -103h-48l330 539z
M367 144l-84 297l-179 -297h263z" />
    <glyph glyph-name="atilde.sc" horiz-adv-x="520" 
d="M454 685l13 -27q-15 -17 -44 -35t-56 -18q-17 0 -51 23.5t-54 23.5q-25 0 -83 -43l-14 24q20 20 51 39t56 19q21 0 54.5 -24t49.5 -24q40 0 78 42zM459 0h-48l-41 143h-265l-87 -143h-50l332 539zM358 185l-73 254l-154 -254h227z" />
    <glyph glyph-name="atilde.sc.semp" horiz-adv-x="518" 
d="M451 685l13 -27q-15 -17 -43.5 -35t-56.5 -18q-17 0 -50.5 23.5t-54.5 23.5q-27 0 -82 -43l-15 24q20 20 51 39t56 19q21 0 54.5 -24t49.5 -24q36 0 78 42zM457 0h-48l-30 103h-301l-62 -103h-48l330 539zM367 144l-84 297l-179 -297h263z" />
    <glyph glyph-name="aogonek.sc" horiz-adv-x="520" 
d="M457 -172l-7 -39q-28 -15 -66 -15q-40 0 -68.5 20t-28.5 57q0 41 31.5 82t92.5 67l-41 143h-265l-87 -143h-50l332 539l161 -545q-52 -17 -91 -50.5t-39 -74.5q0 -26 17.5 -40.5t46.5 -14.5q22 0 62 14zM358 185l-73 253l-154 -253h227z" />
    <glyph glyph-name="aogonek.sc.semp" horiz-adv-x="518" 
d="M454 -172l-7 -39q-29 -15 -66 -15q-40 0 -68.5 20t-28.5 57q0 41 32 81.5t93 67.5l-30 103h-301l-62 -103h-48l330 539l161 -545q-52 -17 -91.5 -50.5t-39.5 -74.5q0 -26 17.5 -40.5t46.5 -14.5q22 0 62 14zM367 144l-84 297l-179 -297h263z" />
    <glyph glyph-name="abreve.sc" horiz-adv-x="520" 
d="M441 749h43q-12 -58 -59.5 -105t-120.5 -47q-58 0 -92.5 40t-28.5 112h44q-4 -7 -1.5 -25.5t7.5 -38t25 -34.5t52 -15q37 0 65 15.5t41 38t18.5 37t6.5 22.5zM459 0h-48l-41 143h-265l-87 -143h-50l332 539zM358 185l-73 254l-154 -254h227z" />
    <glyph glyph-name="abreve.sc.semp" horiz-adv-x="518" 
d="M438 749h43q-12 -58 -59.5 -105t-120.5 -47q-58 0 -92.5 40t-28.5 112h44q-4 -7 -1.5 -25.5t7.5 -38t25 -34.5t52 -15q37 0 65 15.5t41 38t18.5 37t6.5 22.5zM457 0h-48l-30 103h-301l-62 -103h-48l330 539zM367 144l-84 297l-179 -297h263z" />
    <glyph glyph-name="amacron.sc" horiz-adv-x="520" 
d="M449 616h-274l7 41h274zM459 0h-48l-41 143h-265l-87 -143h-50l332 539zM358 185l-73 254l-154 -254h227z" />
    <glyph glyph-name="amacron.sc.semp" horiz-adv-x="518" 
d="M446 616h-274l7 41h274zM457 0h-48l-30 103h-301l-62 -103h-48l330 539zM367 144l-84 297l-179 -297h263z" />
    <glyph glyph-name="uni1E03.sc" horiz-adv-x="474" 
d="M303 645q0 -17 -14 -29.5t-31 -12.5q-13 0 -21.5 9t-8.5 23q0 18 12.5 31t29.5 13q14 0 23.5 -10t9.5 -24zM183 0h-137l83 524h105q153 0 153 -105q0 -52 -33 -89t-76 -50q47 -7 81 -37.5t34 -85.5q0 -69 -55.5 -113t-154.5 -44zM137 287l42 1q74 2 117 33.5t43 84.5
q0 79 -107 79h-63zM98 39l93 1q73 1 113 33.5t40 80.5q0 43 -31.5 69t-82.5 26h-99z" />
    <glyph glyph-name="ccedilla.sc" horiz-adv-x="567" 
d="M188 -245h-42l90 157h51zM463 86l15 -33q-81 -62 -186 -62q-110 0 -177 67.5t-67 171.5q0 127 96 215.5t228 88.5q107 0 172 -67l-31 -33q-47 58 -146 58q-110 0 -190 -75.5t-80 -183.5q0 -89 57.5 -145t146.5 -56q94 0 162 54z" />
    <glyph glyph-name="cacute.sc" horiz-adv-x="567" 
d="M476 741l-156 -138l-17 17l138 154zM463 86l15 -33q-81 -62 -186 -62q-110 0 -177 67.5t-67 171.5q0 127 96 215.5t228 88.5q107 0 172 -67l-31 -33q-47 58 -146 58q-110 0 -190 -75.5t-80 -183.5q0 -89 57.5 -145t146.5 -56q94 0 162 54z" />
    <glyph glyph-name="ccaron.sc" horiz-adv-x="567" 
d="M521 739l-163 -133l-120 133l29 22l100 -102l132 102zM463 86l15 -33q-81 -62 -186 -62q-110 0 -177 67.5t-67 171.5q0 127 96 215.5t228 88.5q107 0 172 -67l-31 -33q-47 58 -146 58q-110 0 -190 -75.5t-80 -183.5q0 -89 57.5 -145t146.5 -56q94 0 162 54z" />
    <glyph glyph-name="ccircumflex.sc" horiz-adv-x="567" 
d="M500 628l-29 -22l-101 102l-132 -102l-22 22l164 133zM463 86l15 -33q-81 -62 -186 -62q-110 0 -177 67.5t-67 171.5q0 127 96 215.5t228 88.5q107 0 172 -67l-31 -33q-47 58 -146 58q-110 0 -190 -75.5t-80 -183.5q0 -89 57.5 -145t146.5 -56q94 0 162 54z" />
    <glyph glyph-name="cdotaccent.sc" horiz-adv-x="567" 
d="M402 646q0 -17 -13.5 -30t-31.5 -13q-13 0 -21.5 9.5t-8.5 22.5q0 17 13.5 30.5t28.5 13.5t24 -9.5t9 -23.5zM463 86l15 -33q-81 -62 -186 -62q-110 0 -177 67.5t-67 171.5q0 127 96 215.5t228 88.5q107 0 172 -67l-31 -33q-47 58 -146 58q-110 0 -190 -75.5t-80 -183.5
q0 -89 57.5 -145t146.5 -56q94 0 162 54z" />
    <glyph glyph-name="dcaron.sc" horiz-adv-x="563" 
d="M486 739l-163 -133l-120 133l30 22l98 -102l134 102zM168 0h-122l83 524h115q115 0 185 -58.5t70 -170.5q0 -130 -91.5 -212.5t-239.5 -82.5zM98 40h57q133 0 214.5 66.5t81.5 181.5q0 99 -60 148t-157 49h-65z" />
    <glyph glyph-name="dcroat.sc" horiz-adv-x="564" 
d="M169 0h-122l38 244h-53l6 37h53l39 243h115q115 0 185 -58.5t70 -170.5q0 -130 -91.5 -212.5t-239.5 -82.5zM99 40h57q133 0 214.5 66.5t81.5 181.5q0 99 -60 148t-157 49h-65l-33 -204h137l-6 -37h-137z" />
    <glyph glyph-name="uni1E0B.sc" horiz-adv-x="563" 
d="M337 645q0 -17 -13.5 -29.5t-31.5 -12.5q-13 0 -21.5 9.5t-8.5 22.5q0 18 13 31t29 13q15 0 24 -9.5t9 -24.5zM168 0h-122l83 524h115q115 0 185 -58.5t70 -170.5q0 -130 -91.5 -212.5t-239.5 -82.5zM98 40h57q133 0 214.5 66.5t81.5 181.5q0 99 -60 148t-157 49h-65z
" />
    <glyph glyph-name="eacute.sc" horiz-adv-x="434" 
d="M398 741l-156 -138l-18 17l138 154zM343 1h-297l83 522h274l-7 -40l-228 1l-29 -184l184 1l-7 -40l-183 1l-35 -222l251 1z" />
    <glyph glyph-name="ecircumflex.sc" horiz-adv-x="434" 
d="M418 628l-28 -22l-100 102l-132 -102l-23 22l164 133zM343 1h-297l83 522h274l-7 -40q-38 0 -114 0.5t-114 0.5l-29 -184q31 0 92.5 0.5t91.5 0.5l-7 -40q-30 0 -91 0.5t-92 0.5l-35 -222q42 0 125.5 0.5t125.5 0.5z" />
    <glyph glyph-name="edieresis.sc" horiz-adv-x="433" 
d="M215 645q0 -17 -13.5 -29.5t-31.5 -12.5q-13 0 -21.5 9.5t-8.5 22.5q0 18 13 31t29 13q14 0 23.5 -10t9.5 -24zM424 646q0 -18 -13 -30.5t-32 -12.5q-13 0 -21 9t-8 23q0 18 12 31t29 13q15 0 24 -9t9 -24zM342 1h-296l83 522h273l-7 -40q-38 0 -114 0.5t-113 0.5
l-29 -184q30 0 91.5 0.5t92.5 0.5l-7 -40q-31 0 -92 0.5t-91 0.5l-35 -222q42 0 125 0.5t125 0.5z" />
    <glyph glyph-name="four.sc" horiz-adv-x="468" 
d="M300 -4h-43l17 107h-277l390 441l-64 -402h71l-6 -39h-71zM281 141l45 280l-247 -281z" />
    <glyph glyph-name="three.sc" horiz-adv-x="421" 
d="M249 292v-2q42 -17 63.5 -52.5t21.5 -76.5q0 -67 -55.5 -118t-146.5 -51q-37 0 -68 11.5t-43.5 21.5t-20.5 20l24 34q9 -16 38.5 -33t75.5 -17q70 0 110.5 38t40.5 90q0 48 -36 84t-100 37l3 22q72 5 113.5 40t41.5 78q0 30 -22 49.5t-62 19.5q-51 0 -95 -29l-11 32
q14 12 49 25t70 13q54 0 85 -31.5t31 -74.5q0 -39 -26.5 -74t-80.5 -56z" />
    <glyph glyph-name="two.sc" horiz-adv-x="460" 
d="M360 1h-380q11 9 51 36t78 53.5t85 66.5t81.5 77t58.5 81t24 84t-25 67t-65 27q-66 0 -121 -55l-19 29q73 67 150 67q58 0 92 -36t34 -92q0 -37 -14.5 -75t-34 -68t-53.5 -63t-57.5 -53t-62.5 -46.5t-52.5 -35t-42.5 -25.5q47 0 140 1t139 1z" />
    <glyph glyph-name="one.sc" horiz-adv-x="269" 
d="M127 0h-44l76 476l-93 -39l-9 34l155 64z" />
    <glyph glyph-name="zero_slash.sc.alt" horiz-adv-x="657" 
d="M594 302q0 -128 -92.5 -219.5t-219.5 -91.5q-105 0 -168.5 66.5t-63.5 169.5q0 128 93 217.5t220 89.5q106 0 168.5 -65t62.5 -167zM162 73l288 399q-40 20 -92 20q-108 0 -184 -75.5t-76 -183.5q0 -104 64 -160zM484 451l-288 -399q37 -20 88 -20q110 0 186.5 76.5
t76.5 185.5q0 102 -63 157z" />
    <glyph glyph-name="zero.sc.alt" horiz-adv-x="657" 
d="M594 302q0 -128 -92.5 -219.5t-219.5 -91.5q-106 0 -169 66.5t-63 169.5q0 128 92.5 217.5t220.5 89.5q107 0 169 -64.5t62 -167.5zM288 32q106 0 182.5 77t76.5 187q0 87 -51.5 141.5t-139.5 54.5q-106 0 -182 -76t-76 -184q0 -85 50.5 -142.5t139.5 -57.5z" />
    <glyph glyph-name="zero_slash.sc" horiz-adv-x="518" 
d="M209 -8q-45 0 -77 17.5t-48.5 48t-24 63.5t-7.5 71q0 24 2.5 51.5t10 69.5t25 78t42.5 69.5t67.5 53t95.5 19.5q59 0 96 -31.5t49.5 -73.5t12.5 -95q0 -148 -63.5 -244.5t-180.5 -96.5zM129 68l219 410q-25 15 -59 15q-63 0 -107 -42.5t-64 -107t-20 -143.5
q0 -92 31 -132zM380 451l-220 -408q23 -13 56 -13q64 0 109 45.5t63.5 110.5t18.5 141q0 87 -27 124z" />
    <glyph glyph-name="zero.sc" horiz-adv-x="518" 
d="M209 -8q-45 0 -77 17.5t-48.5 48t-24 63.5t-7.5 71q0 24 2.5 51.5t10 69.5t25 78t42.5 69.5t67.5 53t95.5 19.5q59 0 96 -31.5t49.5 -73.5t12.5 -95q0 -148 -63.5 -244.5t-180.5 -96.5zM216 30q64 0 109 45.5t63.5 110.5t18.5 140q0 42 -8.5 76.5t-36.5 62.5t-73 28
q-63 0 -107.5 -42.5t-64 -107t-19.5 -142.5q0 -41 8.5 -76.5t36.5 -65t73 -29.5z" />
    <glyph glyph-name="nine.osf" horiz-adv-x="528" 
d="M139 -265l-26 33q53 51 130.5 144t131.5 176q-26 -26 -68 -39t-76 -13q-87 0 -140.5 60t-53.5 148q0 111 80 189t189 78q88 0 142.5 -59.5t54.5 -143.5q0 -66 -41 -153t-107 -171.5t-116.5 -142t-99.5 -106.5zM240 80q90 0 152.5 66.5t62.5 156.5q0 69 -44 115.5
t-112 46.5q-89 0 -150.5 -65t-61.5 -152q0 -71 41 -119.5t112 -48.5z" />
    <glyph glyph-name="eight.osf" horiz-adv-x="584" 
d="M392 363q96 -49 96 -147q0 -97 -75 -162.5t-171 -65.5q-79 0 -130.5 51t-51.5 126q0 128 154 199q-44 20 -69 58.5t-25 86.5q0 104 74 163.5t167 59.5q76 0 127 -46.5t51 -124.5q0 -66 -41.5 -118t-105.5 -80zM438 206q0 58 -39.5 98t-99.5 40q-75 0 -132.5 -53
t-57.5 -124q0 -59 39.5 -98.5t100.5 -39.5q74 0 131.5 53.5t57.5 123.5zM488 554q0 59 -37.5 97.5t-95.5 38.5q-73 0 -129.5 -52t-56.5 -122q0 -54 39 -92.5t99 -38.5q72 0 126.5 50t54.5 119z" />
    <glyph glyph-name="seven.osf" horiz-adv-x="500" 
d="M11 -207h-51l480 661l-359 -1l7 45h432z" />
    <glyph glyph-name="six.osf" horiz-adv-x="576" 
d="M414 766l26 -33q-53 -51 -131 -145t-132 -178q26 26 68 39.5t76 13.5q88 0 141 -60t53 -148q0 -106 -80.5 -186.5t-187.5 -80.5q-89 0 -143.5 59t-54.5 143q0 54 29.5 124t70.5 132t96 130.5t93 110t76 79.5zM254 33q88 0 150 65t62 152q0 71 -41 120t-112 49
q-90 0 -153 -67t-63 -157q0 -69 44.5 -115.5t112.5 -46.5z" />
    <glyph glyph-name="five.osf" horiz-adv-x="492" 
d="M-39 -168l27 40q11 -21 53.5 -44.5t103.5 -23.5q72 0 131 55.5t59 144.5q0 80 -62.5 139t-170.5 80l129 274h227l-19 -46l-183 3l-95 -200q99 -22 159 -87t60 -154q0 -111 -73 -181.5t-175 -70.5q-61 0 -110 25.5t-61 45.5z" />
    <glyph glyph-name="four.osf" horiz-adv-x="594" 
d="M342 -246h-45l40 250h-359l487 521l-77 -480q22 0 66 0.5t66 0.5l-7 -42h-131zM343 45l55 343l-326 -344q45 0 135.5 0.5t135.5 0.5z" />
    <glyph glyph-name="three.osf" horiz-adv-x="520" 
d="M-43 -180l27 39q12 -24 51 -48.5t102 -24.5q99 0 156.5 58.5t57.5 140.5q0 76 -47 131t-134 59l5 21q98 10 155.5 65t57.5 110q0 43 -32 71t-85 28q-69 0 -131 -43l-12 34q17 17 63.5 36t92.5 19q67 0 109 -40.5t42 -99.5q0 -51 -38 -104.5t-108 -82.5l-1 -2
q55 -25 84 -77t29 -114q0 -101 -74 -177t-196 -76q-38 0 -70.5 9t-53.5 23t-32.5 25t-17.5 20z" />
    <glyph glyph-name="two.osf" horiz-adv-x="517" 
d="M411 0h-430q21 11 65.5 34t71 37.5t67 38t66 41.5t55.5 44t46.5 49t28 51.5t11.5 57.5q0 49 -31.5 81.5t-83.5 32.5q-46 0 -90 -23t-67 -49l-22 31q31 30 81.5 56.5t108.5 26.5q69 0 110.5 -43t41.5 -107q0 -59 -30 -111.5t-81 -91.5t-102 -66.5t-108 -48.5l299 3z" />
    <glyph glyph-name="one.osf" horiz-adv-x="391" 
d="M308 0h-291l6 38l135 1l66 402l-123 -46l-8 38l186 71l-76 -464l111 1z" />
    <glyph glyph-name="zero_slash.osf" horiz-adv-x="633" 
d="M265 -17q-92 0 -151.5 64.5t-59.5 160.5q0 126 88.5 212t205.5 86q92 0 152 -65t60 -161q0 -126 -89 -211.5t-206 -85.5zM459 413l-263 -369q34 -17 77 -17q95 0 168 73t73 172q0 91 -55 141zM161 65l265 372q-38 22 -84 22q-95 0 -168 -73.5t-73 -173.5q0 -96 60 -147z
" />
    <glyph glyph-name="zero.osf" horiz-adv-x="633" 
d="M265 -17q-92 0 -151.5 64.5t-59.5 160.5q0 126 88.5 212t205.5 86q92 0 152 -65t60 -161q0 -126 -89 -211.5t-206 -85.5zM273 27q95 0 168 73t73 173q0 79 -48.5 132.5t-123.5 53.5q-95 0 -168 -73.5t-73 -172.5q0 -79 48.5 -132.5t123.5 -53.5z" />
    <glyph glyph-name="nine.tab" horiz-adv-x="609" 
d="M200 -14l-26 32q54 51 131 144t131 177q-26 -26 -68 -39t-76 -13q-87 0 -140.5 60t-53.5 148q0 111 80 189t189 78q89 0 143 -57t54 -146q0 -70 -40.5 -157t-107.5 -172t-115.5 -138.5t-100.5 -105.5zM301 331q90 0 152.5 66.5t62.5 156.5q0 73 -43.5 117.5t-112.5 44.5
q-89 0 -150.5 -65t-61.5 -152q0 -71 41 -119.5t112 -48.5z" />
    <glyph glyph-name="eight.tab" horiz-adv-x="609" 
d="M406 378q95 -50 95 -152q0 -101 -75 -169.5t-172 -68.5q-78 0 -129.5 52.5t-51.5 130.5q0 132 155 208q-43 22 -67.5 61.5t-24.5 88.5q0 73 38 128.5t92 80.5t112 25q76 0 126.5 -48.5t50.5 -129.5q0 -69 -42 -123t-107 -84zM451 215q0 61 -39.5 102.5t-98.5 41.5
q-76 0 -133.5 -56t-57.5 -131q0 -61 39 -102t100 -41q75 0 132.5 56t57.5 130zM503 579q0 61 -36.5 101t-95.5 40q-73 0 -129.5 -54.5t-56.5 -128.5q0 -57 38.5 -96.5t98.5 -39.5q72 0 126.5 52.5t54.5 125.5z" />
    <glyph glyph-name="seven.tab" horiz-adv-x="609" 
d="M128 -5h-51l442 711l-354 -1l7 45h427z" />
    <glyph glyph-name="six.tab" horiz-adv-x="609" 
d="M432 766l26 -33q-53 -51 -131 -145t-132 -178q26 26 68 39.5t76 13.5q88 0 141 -60t53 -148q0 -106 -80.5 -186.5t-187.5 -80.5q-89 0 -143.5 59t-54.5 143q0 54 29.5 124t70.5 132t96 130.5t93 110t76 79.5zM272 33q88 0 150 65t62 152q0 71 -41 120t-112 49
q-90 0 -153 -67t-63 -157q0 -69 44.5 -115.5t112.5 -46.5z" />
    <glyph glyph-name="five.tab" horiz-adv-x="609" 
d="M42 43l28 41q64 -52 144 -52q75 0 130.5 36t80.5 87t25 107q0 70 -44 117.5t-130 47.5q-49 0 -107 -19l144 342h247l-19 -44h-202l-98 -241q32 5 57 5q90 0 146 -53t56 -140q0 -119 -78 -203.5t-210 -84.5q-55 0 -102 18.5t-68 35.5z" />
    <glyph glyph-name="four.tab" horiz-adv-x="609" 
d="M412 -3h-46l25 158h-370l514 617l-91 -573h94l-7 -44h-94zM398 199l66 422l-350 -422h284z" />
    <glyph glyph-name="three.tab" horiz-adv-x="609" 
d="M41 65l27 39q12 -23 51.5 -48t102.5 -25q100 0 157 58t57 137q0 71 -48 124.5t-135 57.5l5 21q101 11 158 64.5t57 116.5q0 45 -30.5 75.5t-86.5 30.5q-69 0 -131 -43l-12 34q17 17 63.5 36t92.5 19q71 0 111.5 -43.5t40.5 -104.5q0 -58 -38 -110t-111 -82l-1 -2
q56 -25 85.5 -76t29.5 -110q0 -98 -71.5 -171.5t-198.5 -73.5q-49 0 -90.5 16.5t-58.5 31.5t-26 28z" />
    <glyph glyph-name="two.tab" horiz-adv-x="609" 
d="M482 0h-478q11 9 32 26.5t23 19.5q13 11 59 48.5t71.5 58.5t71.5 62.5t74 71t63.5 71.5t55.5 76.5t34 75t14 76.5q0 59 -33.5 95.5t-90.5 36.5q-48 0 -93.5 -26.5t-70.5 -56.5l-22 32q95 95 197 95q75 0 118.5 -49.5t43.5 -127.5q0 -158 -216 -355q-150 -137 -224 -187
l378 3z" />
    <glyph glyph-name="one.tab" horiz-adv-x="609" 
d="M475 1h-420l7 43h188l104 658l-154 -73l-8 39l218 100l-114 -724h186z" />
    <glyph glyph-name="zero_slash.tab" horiz-adv-x="609" 
d="M254 -11q-53 0 -91.5 24t-58.5 65t-29 86.5t-9 97.5q0 138 34.5 249.5t105.5 181t169 69.5q54 0 93 -24t59.5 -65t29.5 -87t9 -99q0 -141 -35 -252.5t-107 -178.5t-170 -67zM143 100l316 585q-34 32 -91 32q-80 0 -139 -63.5t-86.5 -162.5t-27.5 -220q0 -116 28 -171z
M488 652l-317 -587q35 -33 90 -33q83 0 143 67t86.5 166.5t26.5 215.5q0 118 -29 171z" />
    <glyph glyph-name="zero.tab" horiz-adv-x="609" 
d="M254 -11q-53 0 -91.5 24t-58.5 65t-29 86.5t-9 97.5q0 138 34.5 249.5t105.5 181t169 69.5q54 0 93 -24t59.5 -65t29.5 -87t9 -99q0 -141 -35 -252.5t-107 -178.5t-170 -67zM261 32q83 0 143 67t86.5 166t26.5 215q0 43 -7 81.5t-22.5 75t-46 58.5t-73.5 22
q-80 0 -138.5 -63t-86 -162t-27.5 -218q0 -33 3.5 -64.5t14 -64.5t26 -57.5t41.5 -40t60 -15.5z" />
    <glyph glyph-name="five.alt" horiz-adv-x="516" 
d="M-8 59l29 42q15 -18 63.5 -43.5t105.5 -25.5q86 0 149.5 62t63.5 154q0 87 -71.5 144t-188.5 75l141 274h229l-19 -47h-184l-100 -195q112 -19 178 -80.5t66 -158.5q0 -119 -78.5 -195t-196.5 -76q-66 0 -120.5 25.5t-66.5 44.5z" />
    <glyph glyph-name="question.sc" horiz-adv-x="360" 
d="M273 232l19 -23q-16 -23 -57 -46.5t-87 -23.5q-39 0 -68.5 24.5t-29.5 62.5q0 16 3 29.5t13.5 27t15 20t23.5 19.5t20.5 14.5t24.5 15.5q29 18 41.5 26.5t32 24t27.5 29.5t8 30q0 20 -13 33t-34 13q-38 0 -84 -30l-13 28q50 39 108 39q39 0 59 -22.5t20 -55.5
q0 -14 -3.5 -26.5t-13 -25t-16.5 -21t-23 -20t-22.5 -16.5t-26 -17t-22.5 -14q-6 -4 -21.5 -13.5t-21 -13t-16 -12.5t-14.5 -16t-7.5 -17.5t-3.5 -22.5q0 -24 19 -40.5t47 -16.5q62 0 116 57zM167 40q0 -20 -15 -34.5t-35 -14.5q-16 0 -26 10.5t-10 26.5q0 21 15 35.5
t35 14.5q16 0 26 -10.5t10 -27.5z" />
    <glyph glyph-name="questiondown.sc" horiz-adv-x="360" 
d="M220 48l13 -28q-49 -38 -108 -38q-39 0 -59 22t-20 55q0 16 7 32t14.5 26.5t25 25t25.5 20t30 19.5t26 17q6 4 18.5 11.5t18 11.5t15 11t13.5 12t9 13t7 17t2 19q0 24 -18.5 40.5t-47.5 16.5q-64 0 -115 -57l-20 23q18 24 58 47t86 23q39 0 68.5 -24.5t29.5 -62.5
q0 -24 -7.5 -42.5t-28 -36t-28.5 -23.5t-37 -24q-37 -23 -54.5 -35t-35.5 -33t-18 -42q0 -20 13 -33t34 -13q40 0 84 30zM268 498q0 -20 -16 -35t-35 -15q-16 0 -26.5 11t-10.5 27q0 20 15.5 35t35.5 15q16 0 26.5 -11t10.5 -27z" />
    <glyph glyph-name="exclam.sc" horiz-adv-x="241" 
d="M113 144h-36l52 400h58zM122 40q0 -21 -15 -35.5t-36 -14.5q-16 0 -26.5 10.5t-10.5 26.5q0 21 15 36.5t36 15.5q17 0 27 -11t10 -28z" />
    <glyph glyph-name="exclamdown.sc" horiz-adv-x="241" 
d="M100 -10h-58l74 399h36zM145 454q-17 0 -27.5 11t-10.5 28q0 21 15.5 36t36.5 15q16 0 26 -11t10 -27q0 -21 -15 -36.5t-35 -15.5z" />
    <glyph glyph-name="periodcentered.sc" horiz-adv-x="245" 
d="M158 257q0 -20 -15 -35t-35 -15q-16 0 -26.5 11t-10.5 27q0 21 15 35.5t36 14.5q16 0 26 -10.5t10 -27.5z" />
    <glyph glyph-name="commaaccent" horiz-adv-x="301" 
d="M77 -232h-51l102 178h56z" />
    <glyph glyph-name="plus.sc" horiz-adv-x="453" 
d="M391 237h-154l-26 -164h-42l26 164h-154l6 40h154l26 164h42l-26 -164h154z" />
    <glyph glyph-name="plus.dnom" horiz-adv-x="380" 
d="M321 173h-134l-20 -124h-36l20 124h-134l6 35h134l20 130h36l-20 -130h134z" />
    <glyph glyph-name="plus.sup" horiz-adv-x="369" 
d="M367 526h-127l-20 -125h-39l20 125h-128l6 38h128l20 126h39l-20 -126h127z" />
    <glyph glyph-name="plus.sinf" horiz-adv-x="370" 
d="M283 -4h-127l-20 -125h-39l20 125h-127l6 37h127l20 126h39l-20 -126h127z" />
    <glyph glyph-name="minus.sc" horiz-adv-x="509" 
d="M419 237h-350l6 40h350z" />
    <glyph glyph-name="minus.dnom" horiz-adv-x="422" 
d="M342 173h-304l6 35h304z" />
    <glyph glyph-name="minus.sup" horiz-adv-x="423" 
d="M399 525h-304l5 34h304z" />
    <glyph glyph-name="minus.sinf" horiz-adv-x="422" 
d="M314 -5h-304l5 33h304z" />
    <glyph glyph-name="multiply.sc" horiz-adv-x="456" 
d="M358 124l-36 -27l-104 135l-148 -135l-28 26l152 135l-109 138l37 28l106 -140l146 140l27 -28l-148 -137z" />
    <glyph glyph-name="multiply.dnom" horiz-adv-x="382" 
d="M297 87l-32 -23l-94 104l-126 -103l-27 22l130 105l-96 105l33 23l93 -104l128 104l23 -23l-127 -105z" />
    <glyph glyph-name="multiply.sup" horiz-adv-x="383" 
d="M352 438l-32 -23l-94 106l-126 -105l-27 22l134 105l-100 105l33 23l94 -106l127 106l23 -23l-128 -104z" />
    <glyph glyph-name="multiply.sinf" horiz-adv-x="382" 
d="M268 -92l-32 -23l-94 106l-126 -105l-26 22l115 104l-82 105l33 23l94 -106l127 106l23 -23l-128 -104z" />
    <glyph glyph-name="divide.sc" horiz-adv-x="502" 
d="M416 236h-350l6 40h350zM304 398q0 -16 -13 -29t-31 -13q-12 0 -21.5 10.5t-9.5 22.5q0 16 13.5 29.5t29.5 13.5q15 0 23.5 -10t8.5 -24zM261 122q0 -15 -13.5 -28.5t-31.5 -13.5q-12 0 -21 10.5t-9 22.5q0 16 13.5 29.5t28.5 13.5q16 0 24.5 -10t8.5 -24z" />
    <glyph glyph-name="divide.dnom" horiz-adv-x="419" 
d="M341 173h-304l6 36h304zM204 95q0 -10 -10 -19.5t-22 -9.5q-10 0 -16.5 7.5t-6.5 16.5q0 11 10.5 20.5t21.5 9.5q10 0 16.5 -7.5t6.5 -17.5zM235 288q0 -10 -10 -19.5t-22 -9.5q-9 0 -16 7.5t-7 16.5q0 11 10 20.5t21 9.5q10 0 17 -7.5t7 -17.5z" />
    <glyph glyph-name="divide.sup" horiz-adv-x="418" 
d="M396 524h-304l6 36h304zM259 446q0 -10 -10 -19.5t-22 -9.5q-9 0 -16 7.5t-7 16.5q0 11 10.5 20.5t21.5 9.5q10 0 16.5 -7.5t6.5 -17.5zM290 639q0 -10 -10 -19.5t-22 -9.5q-10 0 -16.5 7.5t-6.5 16.5q0 11 10 20.5t21 9.5q10 0 17 -7.5t7 -17.5z" />
    <glyph glyph-name="divide.sinf" horiz-adv-x="418" 
d="M312 -6h-304l6 35h304zM175 -84q0 -10 -10 -19.5t-22 -9.5q-9 0 -16 7.5t-7 16.5q0 11 10 20.5t22 9.5q10 0 16.5 -7.5t6.5 -17.5zM206 108q0 -10 -10 -19.5t-22 -9.5q-10 0 -16.5 7.5t-6.5 16.5q0 11 10 20.5t21 9.5t17.5 -7.5t6.5 -17.5z" />
    <glyph glyph-name="equal.sc" horiz-adv-x="509" 
d="M408 165h-350l6 39h350zM430 304h-350l6 40h350z" />
    <glyph glyph-name="equal.dnom" horiz-adv-x="423" 
d="M333 111h-304l6 35h304zM352 234h-304l6 35h304z" />
    <glyph glyph-name="equal.sup" horiz-adv-x="423" 
d="M389 462h-304l6 36h304zM408 585h-304l6 35h304z" />
    <glyph glyph-name="equal.sinf" horiz-adv-x="423" 
d="M324 54h-304l6 35h304zM305 -68h-304l6 36h304z" />
    <glyph glyph-name="notequal.sc" horiz-adv-x="463" 
d="M385 165h-178l-85 -199l-36 9l80 190h-131l6 39h142l42 100h-168l6 40h179l85 200l36 -12l-80 -188h130l-6 -40h-141l-42 -100h167z" />
    <glyph glyph-name="plusminus.sc" horiz-adv-x="490" 
d="M375 1h-350l6 38h350zM415 255h-154l-26 -164h-42l26 164h-154l7 40h154l26 164h42l-26 -164h154z" />
    <glyph glyph-name="less.sc" horiz-adv-x="449" 
d="M320 54l-285 191l4 24l343 178l15 -33l-307 -158l255 -170z" />
    <glyph glyph-name="greater.sc" horiz-adv-x="449" 
d="M396 244l-343 -178l-15 33l309 158l-257 170l25 32l285 -190z" />
    <glyph glyph-name="section.alt" horiz-adv-x="374" 
d="M164 -160l51 873q16 19 57 38t82 19q20 0 32 -11.5t12 -28.5q0 -20 -16 -37t-35 -17q-20 0 -30 15.5t-8 31.5q-53 -13 -59 -22l-50 -872q-22 -35 -77.5 -65.5t-103.5 -30.5q-17 0 -27.5 11t-10.5 28q0 22 16 37.5t35 15.5t28.5 -14.5t8.5 -29.5q71 20 95 59zM124 -97
l-40 -26l47 778l37 31z" />
    <glyph glyph-name="five.sc" horiz-adv-x="424" 
d="M0 31l25 36q46 -37 110 -37q74 0 118.5 46.5t44.5 104.5q0 47 -32 78.5t-94 31.5q-38 0 -83 -14l106 242h191l-18 -38h-149l-68 -157q23 3 42 3q67 0 109.5 -38t42.5 -101q0 -76 -58.5 -136t-151.5 -60q-46 0 -82.5 13t-52.5 26z" />
    <glyph glyph-name="two.dnom" horiz-adv-x="368" 
d="M281 0h-304q137 95 184 136q111 96 111 164q0 31 -20.5 51.5t-52.5 20.5q-52 0 -99 -44l-18 26q68 52 126 52q48 0 77 -28.5t29 -72.5q0 -27 -11.5 -55.5t-26.5 -50.5t-42.5 -47.5t-44 -39.5t-49 -35t-40 -25.5l-32.5 -19.5l219 3z" />
    <glyph glyph-name="six.sc" horiz-adv-x="451" 
d="M299 531l25 -28q-34 -31 -97 -99.5t-90 -113.5q41 33 106 33q61 0 100.5 -42t39.5 -104q0 -78 -60.5 -131.5t-140.5 -53.5q-66 0 -108.5 42t-42.5 102q0 41 26.5 96t58.5 98.5t77.5 93.5t65.5 69zM340 174q0 48 -33.5 79t-83.5 31q-56 0 -102 -41.5t-46 -99.5
q0 -45 32.5 -78.5t81.5 -33.5q60 0 105.5 41t45.5 102z" />
    <glyph glyph-name="three.dnom" horiz-adv-x="348" 
d="M201 223v-1q37 -13 55.5 -40t18.5 -60q0 -52 -48 -91t-125 -39q-46 0 -75.5 13.5t-40.5 27.5l23 32q8 -12 34 -25t64 -13q59 0 92 27.5t33 65.5t-31.5 63.5t-88.5 26.5l4 22q60 1 96 27t36 58q0 23 -19 37.5t-54 14.5q-44 0 -81 -22l-10 30q11 10 41.5 20t62.5 10
q48 0 75 -24.5t27 -58.5q0 -68 -89 -101z" />
    <glyph glyph-name="four.dnom" horiz-adv-x="382" 
d="M241 -2h-43l14 89h-217l5 33l275 281h30l-44 -278h61l-6 -36h-61zM219 122l35 218l-207 -218h172z" />
    <glyph glyph-name="five.dnom" horiz-adv-x="346" 
d="M-13 25l22 34q44 -29 90 -29q63 0 98.5 32.5t35.5 76.5q0 35 -26 58.5t-78 23.5q-32 0 -72 -11l87 190h164l-16 -35h-124l-53 -114q11 2 34 2q56 0 92 -30t36 -77q0 -61 -47.5 -106.5t-130.5 -45.5q-37 0 -68.5 10.5t-43.5 20.5z" />
    <glyph glyph-name="six.dnom" horiz-adv-x="371" 
d="M241 455l25 -28q-29 -28 -82 -84.5t-77 -91.5q33 26 88 26q53 0 87 -36t34 -89q0 -67 -52.5 -113t-122.5 -46q-58 0 -95 36t-37 88q0 41 30 96.5t80 112t72.5 80.5t49.5 49zM274 149q0 40 -27.5 66t-69.5 26q-47 0 -86 -35t-39 -82q0 -38 27.5 -66t68.5 -28q50 0 88 34.5
t38 84.5z" />
    <glyph glyph-name="seven.dnom" horiz-adv-x="323" 
d="M42 -3h-45l257 365h-210l6 38h274z" />
    <glyph glyph-name="eight.dnom" horiz-adv-x="375" 
d="M238 209q61 -28 61 -85q0 -53 -49 -92t-112 -39q-53 0 -88 30t-35 75q0 69 94 111q-27 11 -43 34t-16 50q0 56 48.5 92t107.5 36q52 0 86 -28t34 -75q0 -35 -26 -65t-62 -44zM254 119q0 30 -24.5 52t-60.5 22q-43 0 -76.5 -27.5t-33.5 -64.5q0 -30 24 -51.5t60 -21.5
q43 0 77 27.5t34 63.5zM282 312q0 32 -23 52.5t-58 20.5q-43 0 -75.5 -26.5t-32.5 -62.5q0 -29 23 -49.5t60 -20.5q42 0 74 25.5t32 60.5z" />
    <glyph glyph-name="nine.dnom" horiz-adv-x="374" 
d="M103 -45l-24 27q82 72 153 164q-28 -24 -79 -24q-59 0 -95 36.5t-36 89.5q0 63 52.5 111t123.5 48q59 0 95.5 -36.5t36.5 -87.5q0 -40 -26 -91t-69 -100t-72 -79t-60 -58zM286 279q0 38 -26.5 64t-67.5 26q-52 0 -88.5 -35.5t-36.5 -82.5q0 -39 25 -66t68 -27
q53 0 89.5 36t36.5 85z" />
    <glyph glyph-name="zero_slash.sinf" horiz-adv-x="399" 
d="M120 -187q-66 0 -93.5 45.5t-27.5 110.5q0 109 48 183.5t139 74.5q47 0 76 -24.5t39 -57t10 -73.5q0 -25 -3 -52t-14.5 -66t-31 -68.5t-56.5 -51t-86 -21.5zM58 -120l168 302q-19 11 -45 11q-68 0 -104 -64t-36 -156q0 -63 17 -93zM250 161l-168 -303q17 -11 44 -11
q69 0 105.5 66.5t36.5 157.5q0 63 -18 90z" />
    <glyph glyph-name="seven.sc" horiz-adv-x="396" 
d="M61 -4h-51l323 484l-258 -1l6 40h326z" />
    <glyph glyph-name="eight.sc" horiz-adv-x="454" 
d="M292 262q71 -36 71 -109q0 -69 -55.5 -115t-127.5 -46q-62 0 -101.5 37t-39.5 92q0 91 111 141q-68 32 -68 109q0 72 56 114.5t124 42.5q59 0 97.5 -34t38.5 -89q0 -49 -30 -87t-76 -56zM316 150q0 40 -28 67.5t-71 27.5q-52 0 -92.5 -36.5t-40.5 -86.5q0 -39 27 -66.5
t72 -27.5q53 0 93 36.5t40 85.5zM352 399q0 39 -25 65t-69 26q-52 0 -91 -35t-39 -83q0 -39 27 -65t71 -26q50 0 88 34.5t38 83.5z" />
    <glyph glyph-name="nine.sc" horiz-adv-x="451" 
d="M138 -11l-24 28q100 91 185 210q-32 -31 -100 -31q-63 0 -103.5 42.5t-40.5 104.5q0 76 60 130.5t139 54.5q68 0 110.5 -42t42.5 -100q0 -48 -31.5 -110t-81 -121t-86 -96.5t-70.5 -69.5zM363 378q0 47 -32.5 78.5t-82.5 31.5q-60 0 -103.5 -43t-43.5 -100q0 -47 30 -79
t81 -32q61 0 106 43.5t45 100.5z" />
    <glyph glyph-name="zero.sup" horiz-adv-x="400" 
d="M205 343q-66 0 -94 45.5t-28 110.5q0 110 48.5 184.5t139.5 74.5q47 0 76 -24.5t39 -57t10 -73.5q0 -25 -3 -52t-14.5 -66.5t-31 -69t-56.5 -51t-86 -21.5zM211 377q69 0 105.5 66.5t36.5 156.5q0 50 -20 87t-67 37q-68 0 -104 -64t-36 -156q0 -50 19.5 -88.5t65.5 -38.5
z" />
    <glyph glyph-name="zero_slash.sup" horiz-adv-x="400" 
d="M205 343q-66 0 -94 45.5t-28 110.5q0 110 48.5 184.5t139.5 74.5q47 0 76 -24.5t39 -57t10 -73.5q0 -25 -3 -52t-14.5 -66.5t-31 -69t-56.5 -51t-86 -21.5zM143 410l168 303q-19 11 -45 11q-68 0 -104.5 -64.5t-36.5 -157.5q0 -62 18 -92zM335 692l-169 -305
q20 -10 45 -10q69 0 105.5 67t36.5 158q0 63 -18 90z" />
    <glyph glyph-name="one.sup" horiz-adv-x="212" 
d="M154 350h-41l57 359l-75 -31l-9 33l133 50z" />
    <glyph glyph-name="two.sup" horiz-adv-x="369" 
d="M337 352h-305q140 96 191 141q104 93 105 159q0 31 -20.5 51.5t-52.5 20.5q-52 0 -99 -44l-18 26q68 52 126 52q48 0 77 -28.5t29 -72.5q0 -27 -11.5 -55.5t-26.5 -50.5t-42.5 -47.5t-44 -39.5t-49 -35t-40 -25.5l-32.5 -19.5l219 3z" />
    <glyph glyph-name="three.sup" horiz-adv-x="347" 
d="M256 574v-1q37 -13 55.5 -40t18.5 -60q0 -52 -48 -91.5t-125 -39.5q-46 0 -76 14t-41 28l24 32q8 -12 34 -25t64 -13q59 0 92 27.5t33 65.5q0 37 -31.5 63t-88.5 27l4 22q60 1 96 27t36 58q0 23 -19 37.5t-54 14.5q-44 0 -80 -22l-11 30q11 10 41.5 20t62.5 10
q48 0 75 -24.5t27 -58.5q0 -68 -89 -101z" />
    <glyph glyph-name="four.sup" horiz-adv-x="379" 
d="M294 340h-43l14 90h-218l5 33l276 281h30l-44 -278h61l-6 -36h-61zM272 465l35 218l-207 -218h172z" />
    <glyph glyph-name="zero.dnom" horiz-adv-x="399" 
d="M149 -7q-66 0 -94 45t-28 110q0 110 48.5 184.5t139.5 74.5q47 0 76 -24.5t39 -57t10 -73.5q0 -25 -3 -52t-14.5 -66t-31 -68.5t-56.5 -51t-86 -21.5zM155 26q69 0 105.5 66.5t36.5 156.5q0 50 -20 87t-67 37q-68 0 -104 -64t-36 -156q0 -50 19.5 -88.5t65.5 -38.5z" />
    <glyph glyph-name="five.sup" horiz-adv-x="345" 
d="M41 376l23 34q44 -29 90 -29q63 0 98.5 33t35.5 76q0 35 -26 58.5t-78 23.5q-32 0 -72 -11l87 190h164l-16 -35h-124l-53 -114q11 2 34 2q56 0 92 -30t36 -77q0 -62 -47.5 -107.5t-130.5 -45.5q-37 0 -69 11t-44 21z" />
    <glyph glyph-name="six.sup" horiz-adv-x="374" 
d="M274 779l25 -29q-107 -110 -134 -148q33 26 88 26q53 0 87 -36t34 -89q0 -67 -52.5 -113.5t-122.5 -46.5q-57 0 -94.5 36.5t-37.5 88.5q0 14 4.5 31t11 32.5t18.5 35.5t21 34.5t26 35.5t26.5 33t28.5 33t26 28.5t25 26.5t20 21zM332 500q0 40 -27.5 66t-69.5 26
q-48 0 -86.5 -34.5t-38.5 -82.5q0 -38 27.5 -66t68.5 -28q50 0 88 34.5t38 84.5z" />
    <glyph glyph-name="zero_slash.dnom" horiz-adv-x="399" 
d="M149 -7q-66 0 -94 45t-28 110q0 110 48.5 184.5t139.5 74.5q47 0 76 -24.5t39 -57t10 -73.5q0 -25 -3 -52t-14.5 -66t-31 -68.5t-56.5 -51t-86 -21.5zM87 59l168 303q-19 11 -45 11q-68 0 -104.5 -64.5t-36.5 -157.5q0 -62 18 -92zM279 341l-169 -305q20 -10 45 -10
q69 0 105.5 67t36.5 158q0 63 -18 90z" />
    <glyph glyph-name="seven.sup" horiz-adv-x="325" 
d="M98 346h-47l258 366h-209l6 38h274z" />
    <glyph glyph-name="eight.sup" horiz-adv-x="375" 
d="M293 555q61 -28 61 -85q0 -53 -49 -92.5t-112 -39.5q-53 0 -88 30.5t-35 75.5q0 69 94 111q-27 11 -43 34t-16 50q0 56 49 92t107 36q52 0 86 -28t34 -75q0 -35 -26 -65t-62 -44zM309 465q0 30 -24.5 52t-60.5 22q-43 0 -76.5 -27.5t-33.5 -64.5q0 -30 24 -51.5t60 -21.5
q43 0 77 27.5t34 63.5zM337 658q0 32 -23 52.5t-58 20.5q-43 0 -75.5 -26.5t-32.5 -62.5q0 -29 23.5 -49.5t59.5 -20.5q42 0 74 25.5t32 60.5z" />
    <glyph glyph-name="nine.sup" horiz-adv-x="374" 
d="M171 328l-24 25q72 63 142 155q-28 -24 -79 -24q-59 0 -95 36.5t-36 89.5q0 63 52.5 111t123.5 48q59 0 95.5 -36.5t36.5 -87.5q0 -119 -216 -317zM343 641q0 38 -26.5 64t-67.5 26q-52 0 -88.5 -35.5t-36.5 -82.5q0 -39 25 -66t68 -27q53 0 89.5 36t36.5 85z" />
    <glyph glyph-name="percent.sc" horiz-adv-x="603" 
d="M140 -19l-30 11l325 552l29 -12zM149 318q-39 0 -63.5 26.5t-24.5 66.5q0 49 37 86t84 37q39 0 63.5 -26.5t24.5 -66.5q0 -49 -37 -86t-84 -37zM154 351q30 0 55.5 26t25.5 59q0 26 -16.5 45.5t-41.5 19.5q-30 0 -55.5 -26t-25.5 -59q0 -26 16.5 -45.5t41.5 -19.5z
M409 -9q-39 0 -63.5 26.5t-24.5 65.5q0 49 37 86t84 37q39 0 63.5 -26.5t24.5 -66.5q0 -49 -37 -85.5t-84 -36.5zM414 23q30 0 55.5 26t25.5 59q0 26 -16.5 45.5t-41.5 19.5q-30 0 -55.5 -26t-25.5 -59q0 -26 16.5 -45.5t41.5 -19.5z" />
    <glyph glyph-name="perthousand.sc" horiz-adv-x="899" 
d="M141 -19l-29 11l324 552l30 -12zM150 318q-39 0 -63.5 26.5t-24.5 66.5q0 49 37 86t84 37q39 0 63.5 -26.5t24.5 -66.5q0 -49 -37 -86t-84 -37zM155 351q30 0 55.5 26t25.5 59q0 26 -16.5 45.5t-41.5 19.5q-30 0 -55.5 -26t-25.5 -59q0 -26 16.5 -45.5t41.5 -19.5z
M410 -9q-39 0 -63.5 26.5t-24.5 65.5q0 49 37 86t84 37q39 0 63.5 -26.5t24.5 -66.5q0 -49 -37 -85.5t-84 -36.5zM415 23q30 0 55.5 26t25.5 59q0 26 -16.5 45.5t-41.5 19.5q-30 0 -55.5 -26t-25.5 -59q0 -26 16.5 -45.5t41.5 -19.5zM705 -9q-39 0 -63.5 26.5t-24.5 65.5
q0 49 37.5 86t84.5 37q39 0 63.5 -26.5t24.5 -66.5q0 -49 -37.5 -85.5t-84.5 -36.5zM711 23q30 0 55 26t25 59q0 26 -16.5 45.5t-41.5 19.5q-30 0 -55 -26t-25 -59q0 -26 17 -45.5t41 -19.5z" />
    <glyph glyph-name="dollar.alt" horiz-adv-x="472" 
d="M195 -100h-38l17 102q-61 2 -106 33.5t-58 69.5l30 33q50 -91 140 -94l54 339q-29 18 -45.5 30t-37 32.5t-29.5 45t-9 54.5q0 83 51.5 136.5t126.5 62.5l16 99h38l-16 -98q80 -5 132 -75l-31 -32q-43 60 -107 66l-46 -289q40 -24 64 -43t45 -57.5t21 -88.5
q0 -87 -54 -147.5t-141 -73.5zM269 361l-50 -315q62 10 102 55.5t40 115.5q0 92 -92 144zM242 435l43 268q-53 -8 -89 -46.5t-36 -100.5q0 -41 21 -68.5t61 -52.5z" />
    <glyph glyph-name="dollar.sc" horiz-adv-x="434" 
d="M146 -67l13 70q-48 0 -88.5 21t-54.5 45l32 33q13 -22 42.5 -39.5t74.5 -18.5l35 217q-57 29 -80.5 59.5t-23.5 69.5q0 62 43.5 95.5t104.5 38.5l13 80h33l-14 -80q66 -5 101 -48l-30 -32q-33 36 -77 40l-31 -188q56 -32 80 -59.5t24 -73.5q0 -63 -41.5 -105.5
t-110.5 -52.5l-12 -73q-5 0 -16 0.5t-17 0.5zM230 246l-33 -200q43 9 70.5 37.5t27.5 71.5q0 30 -15 50t-50 41zM209 311l29 173q-41 -3 -67.5 -27.5t-26.5 -63.5q0 -31 16.5 -48t48.5 -34z" />
    <glyph glyph-name="dollar.dnom" horiz-adv-x="311" 
d="M119 -42h-31l8 53q-37 4 -65.5 20.5t-36.5 35.5l24 24q34 -48 84 -51l27 168q-19 10 -29.5 16.5t-24 17.5t-19.5 24.5t-6 29.5q0 46 30.5 73t81.5 32l8 52h31l-9 -52q46 -6 80 -40l-23 -23q-31 31 -62 34l-23 -143q25 -13 40 -23t28.5 -30.5t13.5 -47.5
q0 -43 -30.5 -75.5t-88.5 -39.5zM157 193l-25 -152q75 12 75 83q0 43 -50 69zM135 244l21 127q-67 -9 -67 -69q0 -32 46 -58z" />
    <glyph glyph-name="dollar.sup" horiz-adv-x="309" 
d="M174 308h-31l8 54q-37 4 -65.5 20.5t-37.5 35.5l25 24q34 -48 84 -51l27 168q-19 10 -29.5 16.5t-24 17.5t-19.5 24.5t-6 29.5q0 46 30.5 73t81.5 32l8 52h31l-9 -52q46 -6 80 -40l-23 -23q-31 31 -62 34l-23 -143q25 -13 40 -23t28.5 -30.5t13.5 -47.5
q0 -43 -30.5 -75.5t-88.5 -39.5zM212 544l-25 -152q75 12 75 83q0 43 -50 69zM190 595l21 127q-67 -9 -67 -69q0 -32 46 -58z" />
    <glyph glyph-name="dollar.sinf" horiz-adv-x="313" 
d="M93 -221h-31l8 54q-37 4 -65 20.5t-37 35.5l25 24q31 -48 83 -51l27 167q-19 10 -29.5 16.5t-24 17.5t-19.5 24.5t-6 29.5q0 46 30.5 73t81.5 32l8 52h31l-9 -52q46 -6 80 -40l-23 -23q-31 31 -62 34l-23 -143q25 -13 40 -23t28.5 -30.5t13.5 -46.5q0 -43 -30.5 -75.5
t-88.5 -39.5zM131 14l-25 -151q75 12 75 83q0 44 -50 68zM109 65l21 127q-67 -9 -67 -69q0 -32 46 -58z" />
    <glyph glyph-name="one.dnom" horiz-adv-x="213" 
d="M99 0h-41l57 358l-75 -31l-9 33l133 50z" />
    <glyph glyph-name="cent.sc" horiz-adv-x="420" 
d="M191 -18h-37l18 104q-58 9 -91.5 50t-33.5 104q0 80 51.5 133t128.5 65l16 103h37l-17 -101q41 -2 70.5 -19t38.5 -31l-31 -28q-8 11 -31 25t-53 15l-45 -281q67 3 117 51l20 -26q-56 -59 -142 -61zM178 124l43 275q-52 -10 -91.5 -51.5t-39.5 -104.5q0 -48 24 -79
t64 -40z" />
    <glyph glyph-name="cent.dnom" horiz-adv-x="327" 
d="M138 -13h-29l11 67q-48 6 -77 37.5t-29 77.5q0 59 42.5 100.5t105.5 49.5l12 78h29l-12 -78q32 -1 56 -13t33 -23l-24 -24q-28 28 -70 30l-33 -206q49 0 95 37l11 -24q-37 -40 -110 -43zM125 85l31 201q-42 -8 -73 -37t-31 -77q0 -35 20 -58t53 -29z" />
    <glyph glyph-name="cent.sup" horiz-adv-x="327" 
d="M194 337h-29l11 68q-48 6 -77 37.5t-29 77.5q0 59 42.5 100.5t105.5 49.5l12 78h29l-12 -78q32 -1 56 -13t33 -23l-24 -24q-28 28 -70 30l-33 -206q49 0 95 37l11 -24q-37 -40 -110 -43zM181 436l31 201q-42 -8 -73 -37t-31 -77q0 -35 20 -58t53 -29z" />
    <glyph glyph-name="cent.sinf" horiz-adv-x="329" 
d="M111 -193h-29l11 68q-47 6 -76 37.5t-29 77.5q0 58 42 99.5t105 49.5l12 78h29l-12 -78q32 -1 56 -13t33 -23l-24 -24q-28 28 -70 30l-33 -205q49 0 95 37l11 -24q-37 -40 -110 -43zM98 -94l31 200q-42 -8 -73 -37t-31 -76q0 -35 20 -58t53 -29z" />
    <glyph glyph-name="sterling.sc" horiz-adv-x="436" 
d="M349 34l-1 -38q-27 -9 -70 -9q-22 0 -64 10.5t-65 10.5q-36 0 -83.5 -14.5t-59.5 -21.5l-7 34q2 2 17.5 8t40 14t46.5 13l27 175h-61l6 38h61l22 137q12 75 47 109t84 34q36 0 62 -16l-28 -37q-20 13 -44 13q-32 0 -52 -29.5t-27 -72.5l-21 -138h104l-6 -38h-105
l-27 -171q5 1 14 1q20 0 61 -12t63 -12q30 0 66 12z" />
    </font>
</defs>
</svg>
